M48
;DRILL file {KiCad (5.0.0)} date 09/18/18 07:55:36
;FORMAT={-:-/ absolute / metric / decimal}
FMAT,2
METRIC,TZ
T1C0.400
T2C0.800
T3C1.000
%
G90
G05
M71
T1
X2.794Y29.845
X2.794Y10.16
X2.794Y8.255
X3.246Y30.945
X3.519Y10.867
X3.556Y52.832
X3.92Y31.693
X4.217Y11.583
X4.718Y32.295
X4.937Y12.277
X5.334Y19.685
X6.604Y29.21
X6.604Y24.765
X7.874Y24.765
X9.144Y24.765
X10.414Y24.765
X11.684Y24.765
X12.954Y24.765
X14.224Y71.374
X14.224Y24.765
X14.769Y52.324
X15.494Y72.644
X15.494Y29.21
X15.494Y24.765
X16.764Y24.765
X18.111Y17.037
X18.574Y10.848
X18.836Y16.317
X19.304Y28.575
X19.561Y15.601
X19.939Y10.16
X20.286Y14.893
X20.993Y14.186
X21.7Y13.479
X22.407Y12.772
X23.114Y12.065
X27.559Y17.78
X30.099Y23.495
X30.099Y17.78
X32.639Y20.955
X35.814Y33.02
X37.084Y32.93
X44.704Y27.305
X44.704Y20.955
X45.339Y29.21
X45.974Y20.955
X52.959Y27.305
X57.404Y48.514
X57.404Y21.59
X59.309Y48.514
X59.309Y22.86
X60.579Y8.89
X63.754Y8.89
T2
X6.604Y50.419
X6.604Y35.179
X9.144Y50.419
X9.144Y35.179
X11.684Y50.419
X11.684Y35.179
X14.224Y50.419
X14.224Y35.179
X16.764Y50.419
X16.764Y35.179
X19.304Y50.419
X19.304Y35.179
X21.844Y50.419
X21.844Y35.179
X24.384Y50.419
X24.384Y35.179
X26.924Y50.419
X26.924Y35.179
X29.464Y50.419
X29.464Y35.179
X32.004Y50.419
X32.004Y35.179
X34.544Y50.419
X34.544Y35.179
X37.084Y50.419
X37.084Y35.179
X39.624Y50.419
X39.624Y35.179
X42.164Y50.419
X42.164Y35.179
X44.704Y50.419
X44.704Y35.179
X47.244Y50.419
X47.244Y35.179
X49.784Y50.419
X49.784Y35.179
X52.324Y50.419
X52.324Y35.179
X54.864Y50.419
X54.864Y35.179
X6.604Y69.469
X6.604Y54.229
X9.144Y69.469
X9.144Y54.229
X11.684Y69.469
X11.684Y54.229
X14.224Y69.469
X14.224Y54.229
X16.764Y69.469
X16.764Y54.229
X19.304Y69.469
X19.304Y54.229
X21.844Y69.469
X21.844Y54.229
X24.384Y69.469
X24.384Y54.229
X26.924Y69.469
X26.924Y54.229
X29.464Y69.469
X29.464Y54.229
X32.004Y69.469
X32.004Y54.229
X34.544Y69.469
X34.544Y54.229
X37.084Y69.469
X37.084Y54.229
X39.624Y69.469
X39.624Y54.229
X42.164Y69.469
X42.164Y54.229
X44.704Y69.469
X44.704Y54.229
X47.244Y69.469
X47.244Y54.229
X49.784Y69.469
X49.784Y54.229
X52.324Y69.469
X52.324Y54.229
X54.864Y69.469
X54.864Y54.229
T3
X6.604Y78.994
X6.604Y76.454
X9.144Y78.994
X9.144Y76.454
X11.684Y78.994
X11.684Y76.454
X14.224Y78.994
X14.224Y76.454
X16.764Y78.994
X16.764Y76.454
X19.304Y78.994
X19.304Y76.454
X21.844Y78.994
X21.844Y76.454
X24.384Y78.994
X24.384Y76.454
X26.924Y78.994
X26.924Y76.454
X29.464Y78.994
X29.464Y76.454
X32.004Y78.994
X32.004Y76.454
X34.544Y78.994
X34.544Y76.454
X37.084Y78.994
X37.084Y76.454
X39.624Y78.994
X39.624Y76.454
X42.164Y78.994
X42.164Y76.454
X44.704Y78.994
X44.704Y76.454
X47.244Y78.994
X47.244Y76.454
X49.784Y78.994
X49.784Y76.454
X52.324Y78.994
X52.324Y76.454
X54.864Y78.994
X54.864Y76.454
X57.398Y78.977
X57.398Y76.437
T0
M30
