%TF.GenerationSoftware,KiCad,Pcbnew,(5.0.0)*%
%TF.CreationDate,2018-09-18T07:55:34-07:00*%
%TF.ProjectId,6522,363532322E6B696361645F7063620000,0.1*%
%TF.SameCoordinates,PX6a38238PY7fe6300*%
%TF.FileFunction,Paste,Top*%
%TF.FilePolarity,Positive*%
%FSLAX46Y46*%
G04 Gerber Fmt 4.6, Leading zero omitted, Abs format (unit mm)*
G04 Created by KiCad (PCBNEW (5.0.0)) date 09/18/18 07:55:34*
%MOMM*%
%LPD*%
G01*
G04 APERTURE LIST*
%ADD10R,0.600000X1.950000*%
%ADD11R,0.600000X1.500000*%
%ADD12C,0.100000*%
%ADD13C,0.975000*%
%ADD14R,1.200000X0.900000*%
G04 APERTURE END LIST*
D10*
X5461000Y17779000D03*
X6731000Y17779000D03*
X8001000Y17779000D03*
X9271000Y17779000D03*
X10541000Y17779000D03*
X11811000Y17779000D03*
X13081000Y17779000D03*
X14351000Y17779000D03*
X15621000Y17779000D03*
X16891000Y17779000D03*
X16891000Y27179000D03*
X15621000Y27179000D03*
X14351000Y27179000D03*
X13081000Y27179000D03*
X11811000Y27179000D03*
X10541000Y27179000D03*
X9271000Y27179000D03*
X8001000Y27179000D03*
X6731000Y27179000D03*
X5461000Y27179000D03*
D11*
X44704000Y19525000D03*
X45974000Y19525000D03*
X47244000Y19525000D03*
X48514000Y19525000D03*
X49784000Y19525000D03*
X51054000Y19525000D03*
X52324000Y19525000D03*
X52324000Y24925000D03*
X51054000Y24925000D03*
X49784000Y24925000D03*
X48514000Y24925000D03*
X47244000Y24925000D03*
X45974000Y24925000D03*
X44704000Y24925000D03*
X27559000Y24925000D03*
X28829000Y24925000D03*
X30099000Y24925000D03*
X31369000Y24925000D03*
X32639000Y24925000D03*
X33909000Y24925000D03*
X35179000Y24925000D03*
X35179000Y19525000D03*
X33909000Y19525000D03*
X32639000Y19525000D03*
X31369000Y19525000D03*
X30099000Y19525000D03*
X28829000Y19525000D03*
X27559000Y19525000D03*
D12*
G36*
X63991642Y11493826D02*
X64015303Y11490316D01*
X64038507Y11484504D01*
X64061029Y11476446D01*
X64082653Y11466218D01*
X64103170Y11453921D01*
X64122383Y11439671D01*
X64140107Y11423607D01*
X64156171Y11405883D01*
X64170421Y11386670D01*
X64182718Y11366153D01*
X64192946Y11344529D01*
X64201004Y11322007D01*
X64206816Y11298803D01*
X64210326Y11275142D01*
X64211500Y11251250D01*
X64211500Y10338750D01*
X64210326Y10314858D01*
X64206816Y10291197D01*
X64201004Y10267993D01*
X64192946Y10245471D01*
X64182718Y10223847D01*
X64170421Y10203330D01*
X64156171Y10184117D01*
X64140107Y10166393D01*
X64122383Y10150329D01*
X64103170Y10136079D01*
X64082653Y10123782D01*
X64061029Y10113554D01*
X64038507Y10105496D01*
X64015303Y10099684D01*
X63991642Y10096174D01*
X63967750Y10095000D01*
X63480250Y10095000D01*
X63456358Y10096174D01*
X63432697Y10099684D01*
X63409493Y10105496D01*
X63386971Y10113554D01*
X63365347Y10123782D01*
X63344830Y10136079D01*
X63325617Y10150329D01*
X63307893Y10166393D01*
X63291829Y10184117D01*
X63277579Y10203330D01*
X63265282Y10223847D01*
X63255054Y10245471D01*
X63246996Y10267993D01*
X63241184Y10291197D01*
X63237674Y10314858D01*
X63236500Y10338750D01*
X63236500Y11251250D01*
X63237674Y11275142D01*
X63241184Y11298803D01*
X63246996Y11322007D01*
X63255054Y11344529D01*
X63265282Y11366153D01*
X63277579Y11386670D01*
X63291829Y11405883D01*
X63307893Y11423607D01*
X63325617Y11439671D01*
X63344830Y11453921D01*
X63365347Y11466218D01*
X63386971Y11476446D01*
X63409493Y11484504D01*
X63432697Y11490316D01*
X63456358Y11493826D01*
X63480250Y11495000D01*
X63967750Y11495000D01*
X63991642Y11493826D01*
X63991642Y11493826D01*
G37*
D13*
X63724000Y10795000D03*
D12*
G36*
X62116642Y11493826D02*
X62140303Y11490316D01*
X62163507Y11484504D01*
X62186029Y11476446D01*
X62207653Y11466218D01*
X62228170Y11453921D01*
X62247383Y11439671D01*
X62265107Y11423607D01*
X62281171Y11405883D01*
X62295421Y11386670D01*
X62307718Y11366153D01*
X62317946Y11344529D01*
X62326004Y11322007D01*
X62331816Y11298803D01*
X62335326Y11275142D01*
X62336500Y11251250D01*
X62336500Y10338750D01*
X62335326Y10314858D01*
X62331816Y10291197D01*
X62326004Y10267993D01*
X62317946Y10245471D01*
X62307718Y10223847D01*
X62295421Y10203330D01*
X62281171Y10184117D01*
X62265107Y10166393D01*
X62247383Y10150329D01*
X62228170Y10136079D01*
X62207653Y10123782D01*
X62186029Y10113554D01*
X62163507Y10105496D01*
X62140303Y10099684D01*
X62116642Y10096174D01*
X62092750Y10095000D01*
X61605250Y10095000D01*
X61581358Y10096174D01*
X61557697Y10099684D01*
X61534493Y10105496D01*
X61511971Y10113554D01*
X61490347Y10123782D01*
X61469830Y10136079D01*
X61450617Y10150329D01*
X61432893Y10166393D01*
X61416829Y10184117D01*
X61402579Y10203330D01*
X61390282Y10223847D01*
X61380054Y10245471D01*
X61371996Y10267993D01*
X61366184Y10291197D01*
X61362674Y10314858D01*
X61361500Y10338750D01*
X61361500Y11251250D01*
X61362674Y11275142D01*
X61366184Y11298803D01*
X61371996Y11322007D01*
X61380054Y11344529D01*
X61390282Y11366153D01*
X61402579Y11386670D01*
X61416829Y11405883D01*
X61432893Y11423607D01*
X61450617Y11439671D01*
X61469830Y11453921D01*
X61490347Y11466218D01*
X61511971Y11476446D01*
X61534493Y11484504D01*
X61557697Y11490316D01*
X61581358Y11493826D01*
X61605250Y11495000D01*
X62092750Y11495000D01*
X62116642Y11493826D01*
X62116642Y11493826D01*
G37*
D13*
X61849000Y10795000D03*
D12*
G36*
X63991642Y15303826D02*
X64015303Y15300316D01*
X64038507Y15294504D01*
X64061029Y15286446D01*
X64082653Y15276218D01*
X64103170Y15263921D01*
X64122383Y15249671D01*
X64140107Y15233607D01*
X64156171Y15215883D01*
X64170421Y15196670D01*
X64182718Y15176153D01*
X64192946Y15154529D01*
X64201004Y15132007D01*
X64206816Y15108803D01*
X64210326Y15085142D01*
X64211500Y15061250D01*
X64211500Y14148750D01*
X64210326Y14124858D01*
X64206816Y14101197D01*
X64201004Y14077993D01*
X64192946Y14055471D01*
X64182718Y14033847D01*
X64170421Y14013330D01*
X64156171Y13994117D01*
X64140107Y13976393D01*
X64122383Y13960329D01*
X64103170Y13946079D01*
X64082653Y13933782D01*
X64061029Y13923554D01*
X64038507Y13915496D01*
X64015303Y13909684D01*
X63991642Y13906174D01*
X63967750Y13905000D01*
X63480250Y13905000D01*
X63456358Y13906174D01*
X63432697Y13909684D01*
X63409493Y13915496D01*
X63386971Y13923554D01*
X63365347Y13933782D01*
X63344830Y13946079D01*
X63325617Y13960329D01*
X63307893Y13976393D01*
X63291829Y13994117D01*
X63277579Y14013330D01*
X63265282Y14033847D01*
X63255054Y14055471D01*
X63246996Y14077993D01*
X63241184Y14101197D01*
X63237674Y14124858D01*
X63236500Y14148750D01*
X63236500Y15061250D01*
X63237674Y15085142D01*
X63241184Y15108803D01*
X63246996Y15132007D01*
X63255054Y15154529D01*
X63265282Y15176153D01*
X63277579Y15196670D01*
X63291829Y15215883D01*
X63307893Y15233607D01*
X63325617Y15249671D01*
X63344830Y15263921D01*
X63365347Y15276218D01*
X63386971Y15286446D01*
X63409493Y15294504D01*
X63432697Y15300316D01*
X63456358Y15303826D01*
X63480250Y15305000D01*
X63967750Y15305000D01*
X63991642Y15303826D01*
X63991642Y15303826D01*
G37*
D13*
X63724000Y14605000D03*
D12*
G36*
X62116642Y15303826D02*
X62140303Y15300316D01*
X62163507Y15294504D01*
X62186029Y15286446D01*
X62207653Y15276218D01*
X62228170Y15263921D01*
X62247383Y15249671D01*
X62265107Y15233607D01*
X62281171Y15215883D01*
X62295421Y15196670D01*
X62307718Y15176153D01*
X62317946Y15154529D01*
X62326004Y15132007D01*
X62331816Y15108803D01*
X62335326Y15085142D01*
X62336500Y15061250D01*
X62336500Y14148750D01*
X62335326Y14124858D01*
X62331816Y14101197D01*
X62326004Y14077993D01*
X62317946Y14055471D01*
X62307718Y14033847D01*
X62295421Y14013330D01*
X62281171Y13994117D01*
X62265107Y13976393D01*
X62247383Y13960329D01*
X62228170Y13946079D01*
X62207653Y13933782D01*
X62186029Y13923554D01*
X62163507Y13915496D01*
X62140303Y13909684D01*
X62116642Y13906174D01*
X62092750Y13905000D01*
X61605250Y13905000D01*
X61581358Y13906174D01*
X61557697Y13909684D01*
X61534493Y13915496D01*
X61511971Y13923554D01*
X61490347Y13933782D01*
X61469830Y13946079D01*
X61450617Y13960329D01*
X61432893Y13976393D01*
X61416829Y13994117D01*
X61402579Y14013330D01*
X61390282Y14033847D01*
X61380054Y14055471D01*
X61371996Y14077993D01*
X61366184Y14101197D01*
X61362674Y14124858D01*
X61361500Y14148750D01*
X61361500Y15061250D01*
X61362674Y15085142D01*
X61366184Y15108803D01*
X61371996Y15132007D01*
X61380054Y15154529D01*
X61390282Y15176153D01*
X61402579Y15196670D01*
X61416829Y15215883D01*
X61432893Y15233607D01*
X61450617Y15249671D01*
X61469830Y15263921D01*
X61490347Y15276218D01*
X61511971Y15286446D01*
X61534493Y15294504D01*
X61557697Y15300316D01*
X61581358Y15303826D01*
X61605250Y15305000D01*
X62092750Y15305000D01*
X62116642Y15303826D01*
X62116642Y15303826D01*
G37*
D13*
X61849000Y14605000D03*
D12*
G36*
X19784142Y23981326D02*
X19807803Y23977816D01*
X19831007Y23972004D01*
X19853529Y23963946D01*
X19875153Y23953718D01*
X19895670Y23941421D01*
X19914883Y23927171D01*
X19932607Y23911107D01*
X19948671Y23893383D01*
X19962921Y23874170D01*
X19975218Y23853653D01*
X19985446Y23832029D01*
X19993504Y23809507D01*
X19999316Y23786303D01*
X20002826Y23762642D01*
X20004000Y23738750D01*
X20004000Y23251250D01*
X20002826Y23227358D01*
X19999316Y23203697D01*
X19993504Y23180493D01*
X19985446Y23157971D01*
X19975218Y23136347D01*
X19962921Y23115830D01*
X19948671Y23096617D01*
X19932607Y23078893D01*
X19914883Y23062829D01*
X19895670Y23048579D01*
X19875153Y23036282D01*
X19853529Y23026054D01*
X19831007Y23017996D01*
X19807803Y23012184D01*
X19784142Y23008674D01*
X19760250Y23007500D01*
X18847750Y23007500D01*
X18823858Y23008674D01*
X18800197Y23012184D01*
X18776993Y23017996D01*
X18754471Y23026054D01*
X18732847Y23036282D01*
X18712330Y23048579D01*
X18693117Y23062829D01*
X18675393Y23078893D01*
X18659329Y23096617D01*
X18645079Y23115830D01*
X18632782Y23136347D01*
X18622554Y23157971D01*
X18614496Y23180493D01*
X18608684Y23203697D01*
X18605174Y23227358D01*
X18604000Y23251250D01*
X18604000Y23738750D01*
X18605174Y23762642D01*
X18608684Y23786303D01*
X18614496Y23809507D01*
X18622554Y23832029D01*
X18632782Y23853653D01*
X18645079Y23874170D01*
X18659329Y23893383D01*
X18675393Y23911107D01*
X18693117Y23927171D01*
X18712330Y23941421D01*
X18732847Y23953718D01*
X18754471Y23963946D01*
X18776993Y23972004D01*
X18800197Y23977816D01*
X18823858Y23981326D01*
X18847750Y23982500D01*
X19760250Y23982500D01*
X19784142Y23981326D01*
X19784142Y23981326D01*
G37*
D13*
X19304000Y23495000D03*
D12*
G36*
X19784142Y22106326D02*
X19807803Y22102816D01*
X19831007Y22097004D01*
X19853529Y22088946D01*
X19875153Y22078718D01*
X19895670Y22066421D01*
X19914883Y22052171D01*
X19932607Y22036107D01*
X19948671Y22018383D01*
X19962921Y21999170D01*
X19975218Y21978653D01*
X19985446Y21957029D01*
X19993504Y21934507D01*
X19999316Y21911303D01*
X20002826Y21887642D01*
X20004000Y21863750D01*
X20004000Y21376250D01*
X20002826Y21352358D01*
X19999316Y21328697D01*
X19993504Y21305493D01*
X19985446Y21282971D01*
X19975218Y21261347D01*
X19962921Y21240830D01*
X19948671Y21221617D01*
X19932607Y21203893D01*
X19914883Y21187829D01*
X19895670Y21173579D01*
X19875153Y21161282D01*
X19853529Y21151054D01*
X19831007Y21142996D01*
X19807803Y21137184D01*
X19784142Y21133674D01*
X19760250Y21132500D01*
X18847750Y21132500D01*
X18823858Y21133674D01*
X18800197Y21137184D01*
X18776993Y21142996D01*
X18754471Y21151054D01*
X18732847Y21161282D01*
X18712330Y21173579D01*
X18693117Y21187829D01*
X18675393Y21203893D01*
X18659329Y21221617D01*
X18645079Y21240830D01*
X18632782Y21261347D01*
X18622554Y21282971D01*
X18614496Y21305493D01*
X18608684Y21328697D01*
X18605174Y21352358D01*
X18604000Y21376250D01*
X18604000Y21863750D01*
X18605174Y21887642D01*
X18608684Y21911303D01*
X18614496Y21934507D01*
X18622554Y21957029D01*
X18632782Y21978653D01*
X18645079Y21999170D01*
X18659329Y22018383D01*
X18675393Y22036107D01*
X18693117Y22052171D01*
X18712330Y22066421D01*
X18732847Y22078718D01*
X18754471Y22088946D01*
X18776993Y22097004D01*
X18800197Y22102816D01*
X18823858Y22106326D01*
X18847750Y22107500D01*
X19760250Y22107500D01*
X19784142Y22106326D01*
X19784142Y22106326D01*
G37*
D13*
X19304000Y21620000D03*
D12*
G36*
X38834142Y22106326D02*
X38857803Y22102816D01*
X38881007Y22097004D01*
X38903529Y22088946D01*
X38925153Y22078718D01*
X38945670Y22066421D01*
X38964883Y22052171D01*
X38982607Y22036107D01*
X38998671Y22018383D01*
X39012921Y21999170D01*
X39025218Y21978653D01*
X39035446Y21957029D01*
X39043504Y21934507D01*
X39049316Y21911303D01*
X39052826Y21887642D01*
X39054000Y21863750D01*
X39054000Y21376250D01*
X39052826Y21352358D01*
X39049316Y21328697D01*
X39043504Y21305493D01*
X39035446Y21282971D01*
X39025218Y21261347D01*
X39012921Y21240830D01*
X38998671Y21221617D01*
X38982607Y21203893D01*
X38964883Y21187829D01*
X38945670Y21173579D01*
X38925153Y21161282D01*
X38903529Y21151054D01*
X38881007Y21142996D01*
X38857803Y21137184D01*
X38834142Y21133674D01*
X38810250Y21132500D01*
X37897750Y21132500D01*
X37873858Y21133674D01*
X37850197Y21137184D01*
X37826993Y21142996D01*
X37804471Y21151054D01*
X37782847Y21161282D01*
X37762330Y21173579D01*
X37743117Y21187829D01*
X37725393Y21203893D01*
X37709329Y21221617D01*
X37695079Y21240830D01*
X37682782Y21261347D01*
X37672554Y21282971D01*
X37664496Y21305493D01*
X37658684Y21328697D01*
X37655174Y21352358D01*
X37654000Y21376250D01*
X37654000Y21863750D01*
X37655174Y21887642D01*
X37658684Y21911303D01*
X37664496Y21934507D01*
X37672554Y21957029D01*
X37682782Y21978653D01*
X37695079Y21999170D01*
X37709329Y22018383D01*
X37725393Y22036107D01*
X37743117Y22052171D01*
X37762330Y22066421D01*
X37782847Y22078718D01*
X37804471Y22088946D01*
X37826993Y22097004D01*
X37850197Y22102816D01*
X37873858Y22106326D01*
X37897750Y22107500D01*
X38810250Y22107500D01*
X38834142Y22106326D01*
X38834142Y22106326D01*
G37*
D13*
X38354000Y21620000D03*
D12*
G36*
X38834142Y23981326D02*
X38857803Y23977816D01*
X38881007Y23972004D01*
X38903529Y23963946D01*
X38925153Y23953718D01*
X38945670Y23941421D01*
X38964883Y23927171D01*
X38982607Y23911107D01*
X38998671Y23893383D01*
X39012921Y23874170D01*
X39025218Y23853653D01*
X39035446Y23832029D01*
X39043504Y23809507D01*
X39049316Y23786303D01*
X39052826Y23762642D01*
X39054000Y23738750D01*
X39054000Y23251250D01*
X39052826Y23227358D01*
X39049316Y23203697D01*
X39043504Y23180493D01*
X39035446Y23157971D01*
X39025218Y23136347D01*
X39012921Y23115830D01*
X38998671Y23096617D01*
X38982607Y23078893D01*
X38964883Y23062829D01*
X38945670Y23048579D01*
X38925153Y23036282D01*
X38903529Y23026054D01*
X38881007Y23017996D01*
X38857803Y23012184D01*
X38834142Y23008674D01*
X38810250Y23007500D01*
X37897750Y23007500D01*
X37873858Y23008674D01*
X37850197Y23012184D01*
X37826993Y23017996D01*
X37804471Y23026054D01*
X37782847Y23036282D01*
X37762330Y23048579D01*
X37743117Y23062829D01*
X37725393Y23078893D01*
X37709329Y23096617D01*
X37695079Y23115830D01*
X37682782Y23136347D01*
X37672554Y23157971D01*
X37664496Y23180493D01*
X37658684Y23203697D01*
X37655174Y23227358D01*
X37654000Y23251250D01*
X37654000Y23738750D01*
X37655174Y23762642D01*
X37658684Y23786303D01*
X37664496Y23809507D01*
X37672554Y23832029D01*
X37682782Y23853653D01*
X37695079Y23874170D01*
X37709329Y23893383D01*
X37725393Y23911107D01*
X37743117Y23927171D01*
X37762330Y23941421D01*
X37782847Y23953718D01*
X37804471Y23963946D01*
X37826993Y23972004D01*
X37850197Y23977816D01*
X37873858Y23981326D01*
X37897750Y23982500D01*
X38810250Y23982500D01*
X38834142Y23981326D01*
X38834142Y23981326D01*
G37*
D13*
X38354000Y23495000D03*
D12*
G36*
X55344142Y23981326D02*
X55367803Y23977816D01*
X55391007Y23972004D01*
X55413529Y23963946D01*
X55435153Y23953718D01*
X55455670Y23941421D01*
X55474883Y23927171D01*
X55492607Y23911107D01*
X55508671Y23893383D01*
X55522921Y23874170D01*
X55535218Y23853653D01*
X55545446Y23832029D01*
X55553504Y23809507D01*
X55559316Y23786303D01*
X55562826Y23762642D01*
X55564000Y23738750D01*
X55564000Y23251250D01*
X55562826Y23227358D01*
X55559316Y23203697D01*
X55553504Y23180493D01*
X55545446Y23157971D01*
X55535218Y23136347D01*
X55522921Y23115830D01*
X55508671Y23096617D01*
X55492607Y23078893D01*
X55474883Y23062829D01*
X55455670Y23048579D01*
X55435153Y23036282D01*
X55413529Y23026054D01*
X55391007Y23017996D01*
X55367803Y23012184D01*
X55344142Y23008674D01*
X55320250Y23007500D01*
X54407750Y23007500D01*
X54383858Y23008674D01*
X54360197Y23012184D01*
X54336993Y23017996D01*
X54314471Y23026054D01*
X54292847Y23036282D01*
X54272330Y23048579D01*
X54253117Y23062829D01*
X54235393Y23078893D01*
X54219329Y23096617D01*
X54205079Y23115830D01*
X54192782Y23136347D01*
X54182554Y23157971D01*
X54174496Y23180493D01*
X54168684Y23203697D01*
X54165174Y23227358D01*
X54164000Y23251250D01*
X54164000Y23738750D01*
X54165174Y23762642D01*
X54168684Y23786303D01*
X54174496Y23809507D01*
X54182554Y23832029D01*
X54192782Y23853653D01*
X54205079Y23874170D01*
X54219329Y23893383D01*
X54235393Y23911107D01*
X54253117Y23927171D01*
X54272330Y23941421D01*
X54292847Y23953718D01*
X54314471Y23963946D01*
X54336993Y23972004D01*
X54360197Y23977816D01*
X54383858Y23981326D01*
X54407750Y23982500D01*
X55320250Y23982500D01*
X55344142Y23981326D01*
X55344142Y23981326D01*
G37*
D13*
X54864000Y23495000D03*
D12*
G36*
X55344142Y22106326D02*
X55367803Y22102816D01*
X55391007Y22097004D01*
X55413529Y22088946D01*
X55435153Y22078718D01*
X55455670Y22066421D01*
X55474883Y22052171D01*
X55492607Y22036107D01*
X55508671Y22018383D01*
X55522921Y21999170D01*
X55535218Y21978653D01*
X55545446Y21957029D01*
X55553504Y21934507D01*
X55559316Y21911303D01*
X55562826Y21887642D01*
X55564000Y21863750D01*
X55564000Y21376250D01*
X55562826Y21352358D01*
X55559316Y21328697D01*
X55553504Y21305493D01*
X55545446Y21282971D01*
X55535218Y21261347D01*
X55522921Y21240830D01*
X55508671Y21221617D01*
X55492607Y21203893D01*
X55474883Y21187829D01*
X55455670Y21173579D01*
X55435153Y21161282D01*
X55413529Y21151054D01*
X55391007Y21142996D01*
X55367803Y21137184D01*
X55344142Y21133674D01*
X55320250Y21132500D01*
X54407750Y21132500D01*
X54383858Y21133674D01*
X54360197Y21137184D01*
X54336993Y21142996D01*
X54314471Y21151054D01*
X54292847Y21161282D01*
X54272330Y21173579D01*
X54253117Y21187829D01*
X54235393Y21203893D01*
X54219329Y21221617D01*
X54205079Y21240830D01*
X54192782Y21261347D01*
X54182554Y21282971D01*
X54174496Y21305493D01*
X54168684Y21328697D01*
X54165174Y21352358D01*
X54164000Y21376250D01*
X54164000Y21863750D01*
X54165174Y21887642D01*
X54168684Y21911303D01*
X54174496Y21934507D01*
X54182554Y21957029D01*
X54192782Y21978653D01*
X54205079Y21999170D01*
X54219329Y22018383D01*
X54235393Y22036107D01*
X54253117Y22052171D01*
X54272330Y22066421D01*
X54292847Y22078718D01*
X54314471Y22088946D01*
X54336993Y22097004D01*
X54360197Y22102816D01*
X54383858Y22106326D01*
X54407750Y22107500D01*
X55320250Y22107500D01*
X55344142Y22106326D01*
X55344142Y22106326D01*
G37*
D13*
X54864000Y21620000D03*
D12*
G36*
X57671642Y51117826D02*
X57695303Y51114316D01*
X57718507Y51108504D01*
X57741029Y51100446D01*
X57762653Y51090218D01*
X57783170Y51077921D01*
X57802383Y51063671D01*
X57820107Y51047607D01*
X57836171Y51029883D01*
X57850421Y51010670D01*
X57862718Y50990153D01*
X57872946Y50968529D01*
X57881004Y50946007D01*
X57886816Y50922803D01*
X57890326Y50899142D01*
X57891500Y50875250D01*
X57891500Y49962750D01*
X57890326Y49938858D01*
X57886816Y49915197D01*
X57881004Y49891993D01*
X57872946Y49869471D01*
X57862718Y49847847D01*
X57850421Y49827330D01*
X57836171Y49808117D01*
X57820107Y49790393D01*
X57802383Y49774329D01*
X57783170Y49760079D01*
X57762653Y49747782D01*
X57741029Y49737554D01*
X57718507Y49729496D01*
X57695303Y49723684D01*
X57671642Y49720174D01*
X57647750Y49719000D01*
X57160250Y49719000D01*
X57136358Y49720174D01*
X57112697Y49723684D01*
X57089493Y49729496D01*
X57066971Y49737554D01*
X57045347Y49747782D01*
X57024830Y49760079D01*
X57005617Y49774329D01*
X56987893Y49790393D01*
X56971829Y49808117D01*
X56957579Y49827330D01*
X56945282Y49847847D01*
X56935054Y49869471D01*
X56926996Y49891993D01*
X56921184Y49915197D01*
X56917674Y49938858D01*
X56916500Y49962750D01*
X56916500Y50875250D01*
X56917674Y50899142D01*
X56921184Y50922803D01*
X56926996Y50946007D01*
X56935054Y50968529D01*
X56945282Y50990153D01*
X56957579Y51010670D01*
X56971829Y51029883D01*
X56987893Y51047607D01*
X57005617Y51063671D01*
X57024830Y51077921D01*
X57045347Y51090218D01*
X57066971Y51100446D01*
X57089493Y51108504D01*
X57112697Y51114316D01*
X57136358Y51117826D01*
X57160250Y51119000D01*
X57647750Y51119000D01*
X57671642Y51117826D01*
X57671642Y51117826D01*
G37*
D13*
X57404000Y50419000D03*
D12*
G36*
X59546642Y51117826D02*
X59570303Y51114316D01*
X59593507Y51108504D01*
X59616029Y51100446D01*
X59637653Y51090218D01*
X59658170Y51077921D01*
X59677383Y51063671D01*
X59695107Y51047607D01*
X59711171Y51029883D01*
X59725421Y51010670D01*
X59737718Y50990153D01*
X59747946Y50968529D01*
X59756004Y50946007D01*
X59761816Y50922803D01*
X59765326Y50899142D01*
X59766500Y50875250D01*
X59766500Y49962750D01*
X59765326Y49938858D01*
X59761816Y49915197D01*
X59756004Y49891993D01*
X59747946Y49869471D01*
X59737718Y49847847D01*
X59725421Y49827330D01*
X59711171Y49808117D01*
X59695107Y49790393D01*
X59677383Y49774329D01*
X59658170Y49760079D01*
X59637653Y49747782D01*
X59616029Y49737554D01*
X59593507Y49729496D01*
X59570303Y49723684D01*
X59546642Y49720174D01*
X59522750Y49719000D01*
X59035250Y49719000D01*
X59011358Y49720174D01*
X58987697Y49723684D01*
X58964493Y49729496D01*
X58941971Y49737554D01*
X58920347Y49747782D01*
X58899830Y49760079D01*
X58880617Y49774329D01*
X58862893Y49790393D01*
X58846829Y49808117D01*
X58832579Y49827330D01*
X58820282Y49847847D01*
X58810054Y49869471D01*
X58801996Y49891993D01*
X58796184Y49915197D01*
X58792674Y49938858D01*
X58791500Y49962750D01*
X58791500Y50875250D01*
X58792674Y50899142D01*
X58796184Y50922803D01*
X58801996Y50946007D01*
X58810054Y50968529D01*
X58820282Y50990153D01*
X58832579Y51010670D01*
X58846829Y51029883D01*
X58862893Y51047607D01*
X58880617Y51063671D01*
X58899830Y51077921D01*
X58920347Y51090218D01*
X58941971Y51100446D01*
X58964493Y51108504D01*
X58987697Y51114316D01*
X59011358Y51117826D01*
X59035250Y51119000D01*
X59522750Y51119000D01*
X59546642Y51117826D01*
X59546642Y51117826D01*
G37*
D13*
X59279000Y50419000D03*
D12*
G36*
X59546642Y70167826D02*
X59570303Y70164316D01*
X59593507Y70158504D01*
X59616029Y70150446D01*
X59637653Y70140218D01*
X59658170Y70127921D01*
X59677383Y70113671D01*
X59695107Y70097607D01*
X59711171Y70079883D01*
X59725421Y70060670D01*
X59737718Y70040153D01*
X59747946Y70018529D01*
X59756004Y69996007D01*
X59761816Y69972803D01*
X59765326Y69949142D01*
X59766500Y69925250D01*
X59766500Y69012750D01*
X59765326Y68988858D01*
X59761816Y68965197D01*
X59756004Y68941993D01*
X59747946Y68919471D01*
X59737718Y68897847D01*
X59725421Y68877330D01*
X59711171Y68858117D01*
X59695107Y68840393D01*
X59677383Y68824329D01*
X59658170Y68810079D01*
X59637653Y68797782D01*
X59616029Y68787554D01*
X59593507Y68779496D01*
X59570303Y68773684D01*
X59546642Y68770174D01*
X59522750Y68769000D01*
X59035250Y68769000D01*
X59011358Y68770174D01*
X58987697Y68773684D01*
X58964493Y68779496D01*
X58941971Y68787554D01*
X58920347Y68797782D01*
X58899830Y68810079D01*
X58880617Y68824329D01*
X58862893Y68840393D01*
X58846829Y68858117D01*
X58832579Y68877330D01*
X58820282Y68897847D01*
X58810054Y68919471D01*
X58801996Y68941993D01*
X58796184Y68965197D01*
X58792674Y68988858D01*
X58791500Y69012750D01*
X58791500Y69925250D01*
X58792674Y69949142D01*
X58796184Y69972803D01*
X58801996Y69996007D01*
X58810054Y70018529D01*
X58820282Y70040153D01*
X58832579Y70060670D01*
X58846829Y70079883D01*
X58862893Y70097607D01*
X58880617Y70113671D01*
X58899830Y70127921D01*
X58920347Y70140218D01*
X58941971Y70150446D01*
X58964493Y70158504D01*
X58987697Y70164316D01*
X59011358Y70167826D01*
X59035250Y70169000D01*
X59522750Y70169000D01*
X59546642Y70167826D01*
X59546642Y70167826D01*
G37*
D13*
X59279000Y69469000D03*
D12*
G36*
X57671642Y70167826D02*
X57695303Y70164316D01*
X57718507Y70158504D01*
X57741029Y70150446D01*
X57762653Y70140218D01*
X57783170Y70127921D01*
X57802383Y70113671D01*
X57820107Y70097607D01*
X57836171Y70079883D01*
X57850421Y70060670D01*
X57862718Y70040153D01*
X57872946Y70018529D01*
X57881004Y69996007D01*
X57886816Y69972803D01*
X57890326Y69949142D01*
X57891500Y69925250D01*
X57891500Y69012750D01*
X57890326Y68988858D01*
X57886816Y68965197D01*
X57881004Y68941993D01*
X57872946Y68919471D01*
X57862718Y68897847D01*
X57850421Y68877330D01*
X57836171Y68858117D01*
X57820107Y68840393D01*
X57802383Y68824329D01*
X57783170Y68810079D01*
X57762653Y68797782D01*
X57741029Y68787554D01*
X57718507Y68779496D01*
X57695303Y68773684D01*
X57671642Y68770174D01*
X57647750Y68769000D01*
X57160250Y68769000D01*
X57136358Y68770174D01*
X57112697Y68773684D01*
X57089493Y68779496D01*
X57066971Y68787554D01*
X57045347Y68797782D01*
X57024830Y68810079D01*
X57005617Y68824329D01*
X56987893Y68840393D01*
X56971829Y68858117D01*
X56957579Y68877330D01*
X56945282Y68897847D01*
X56935054Y68919471D01*
X56926996Y68941993D01*
X56921184Y68965197D01*
X56917674Y68988858D01*
X56916500Y69012750D01*
X56916500Y69925250D01*
X56917674Y69949142D01*
X56921184Y69972803D01*
X56926996Y69996007D01*
X56935054Y70018529D01*
X56945282Y70040153D01*
X56957579Y70060670D01*
X56971829Y70079883D01*
X56987893Y70097607D01*
X57005617Y70113671D01*
X57024830Y70127921D01*
X57045347Y70140218D01*
X57066971Y70150446D01*
X57089493Y70158504D01*
X57112697Y70164316D01*
X57136358Y70167826D01*
X57160250Y70169000D01*
X57647750Y70169000D01*
X57671642Y70167826D01*
X57671642Y70167826D01*
G37*
D13*
X57404000Y69469000D03*
D12*
G36*
X61052684Y78798621D02*
X61076345Y78795111D01*
X61099549Y78789299D01*
X61122071Y78781241D01*
X61143695Y78771013D01*
X61164212Y78758716D01*
X61183425Y78744466D01*
X61201149Y78728402D01*
X61217213Y78710678D01*
X61231463Y78691465D01*
X61243760Y78670948D01*
X61253988Y78649324D01*
X61262046Y78626802D01*
X61267858Y78603598D01*
X61271368Y78579937D01*
X61272542Y78556045D01*
X61272542Y78068545D01*
X61271368Y78044653D01*
X61267858Y78020992D01*
X61262046Y77997788D01*
X61253988Y77975266D01*
X61243760Y77953642D01*
X61231463Y77933125D01*
X61217213Y77913912D01*
X61201149Y77896188D01*
X61183425Y77880124D01*
X61164212Y77865874D01*
X61143695Y77853577D01*
X61122071Y77843349D01*
X61099549Y77835291D01*
X61076345Y77829479D01*
X61052684Y77825969D01*
X61028792Y77824795D01*
X60116292Y77824795D01*
X60092400Y77825969D01*
X60068739Y77829479D01*
X60045535Y77835291D01*
X60023013Y77843349D01*
X60001389Y77853577D01*
X59980872Y77865874D01*
X59961659Y77880124D01*
X59943935Y77896188D01*
X59927871Y77913912D01*
X59913621Y77933125D01*
X59901324Y77953642D01*
X59891096Y77975266D01*
X59883038Y77997788D01*
X59877226Y78020992D01*
X59873716Y78044653D01*
X59872542Y78068545D01*
X59872542Y78556045D01*
X59873716Y78579937D01*
X59877226Y78603598D01*
X59883038Y78626802D01*
X59891096Y78649324D01*
X59901324Y78670948D01*
X59913621Y78691465D01*
X59927871Y78710678D01*
X59943935Y78728402D01*
X59961659Y78744466D01*
X59980872Y78758716D01*
X60001389Y78771013D01*
X60023013Y78781241D01*
X60045535Y78789299D01*
X60068739Y78795111D01*
X60092400Y78798621D01*
X60116292Y78799795D01*
X61028792Y78799795D01*
X61052684Y78798621D01*
X61052684Y78798621D01*
G37*
D13*
X60572542Y78312295D03*
D12*
G36*
X61052684Y76923621D02*
X61076345Y76920111D01*
X61099549Y76914299D01*
X61122071Y76906241D01*
X61143695Y76896013D01*
X61164212Y76883716D01*
X61183425Y76869466D01*
X61201149Y76853402D01*
X61217213Y76835678D01*
X61231463Y76816465D01*
X61243760Y76795948D01*
X61253988Y76774324D01*
X61262046Y76751802D01*
X61267858Y76728598D01*
X61271368Y76704937D01*
X61272542Y76681045D01*
X61272542Y76193545D01*
X61271368Y76169653D01*
X61267858Y76145992D01*
X61262046Y76122788D01*
X61253988Y76100266D01*
X61243760Y76078642D01*
X61231463Y76058125D01*
X61217213Y76038912D01*
X61201149Y76021188D01*
X61183425Y76005124D01*
X61164212Y75990874D01*
X61143695Y75978577D01*
X61122071Y75968349D01*
X61099549Y75960291D01*
X61076345Y75954479D01*
X61052684Y75950969D01*
X61028792Y75949795D01*
X60116292Y75949795D01*
X60092400Y75950969D01*
X60068739Y75954479D01*
X60045535Y75960291D01*
X60023013Y75968349D01*
X60001389Y75978577D01*
X59980872Y75990874D01*
X59961659Y76005124D01*
X59943935Y76021188D01*
X59927871Y76038912D01*
X59913621Y76058125D01*
X59901324Y76078642D01*
X59891096Y76100266D01*
X59883038Y76122788D01*
X59877226Y76145992D01*
X59873716Y76169653D01*
X59872542Y76193545D01*
X59872542Y76681045D01*
X59873716Y76704937D01*
X59877226Y76728598D01*
X59883038Y76751802D01*
X59891096Y76774324D01*
X59901324Y76795948D01*
X59913621Y76816465D01*
X59927871Y76835678D01*
X59943935Y76853402D01*
X59961659Y76869466D01*
X59980872Y76883716D01*
X60001389Y76896013D01*
X60023013Y76906241D01*
X60045535Y76914299D01*
X60068739Y76920111D01*
X60092400Y76923621D01*
X60116292Y76924795D01*
X61028792Y76924795D01*
X61052684Y76923621D01*
X61052684Y76923621D01*
G37*
D13*
X60572542Y76437295D03*
D14*
X3429000Y37464000D03*
X3429000Y34164000D03*
X3556000Y50928000D03*
X3556000Y54228000D03*
M02*
