M48
;DRILL file {KiCad (5.0.0)} date 09/17/18 08:33:42
;FORMAT={-:-/ absolute / metric / decimal}
FMAT,2
METRIC,TZ
T1C0.400
T2C0.800
T3C1.000
%
G90
G05
M71
T1
X1.778Y29.845
X1.778Y10.16
X1.778Y8.255
X2.251Y30.953
X2.503Y10.867
X2.976Y31.75
X3.201Y11.583
X3.755Y32.475
X3.921Y12.277
X4.318Y19.685
X5.588Y29.21
X5.588Y24.765
X6.858Y24.765
X8.128Y24.765
X9.398Y24.765
X10.668Y24.765
X11.938Y24.765
X13.208Y71.374
X13.208Y24.765
X13.753Y52.324
X14.478Y72.644
X14.478Y29.21
X14.478Y24.765
X15.748Y24.765
X17.095Y17.037
X17.558Y10.848
X17.82Y16.317
X18.288Y28.575
X18.545Y15.601
X18.923Y10.16
X19.27Y14.893
X19.977Y14.186
X20.684Y13.479
X21.391Y12.772
X22.098Y12.065
X26.543Y17.78
X29.083Y23.495
X29.083Y17.78
X31.623Y20.955
X34.798Y33.02
X36.068Y32.93
X43.688Y27.305
X43.688Y20.955
X44.323Y29.21
X44.958Y20.955
X51.943Y27.305
X56.388Y48.514
X56.388Y21.59
X58.293Y48.514
X58.293Y22.86
X59.563Y8.89
X62.738Y8.89
T2
X5.588Y69.469
X5.588Y54.229
X8.128Y69.469
X8.128Y54.229
X10.668Y69.469
X10.668Y54.229
X13.208Y69.469
X13.208Y54.229
X15.748Y69.469
X15.748Y54.229
X18.288Y69.469
X18.288Y54.229
X20.828Y69.469
X20.828Y54.229
X23.368Y69.469
X23.368Y54.229
X25.908Y69.469
X25.908Y54.229
X28.448Y69.469
X28.448Y54.229
X30.988Y69.469
X30.988Y54.229
X33.528Y69.469
X33.528Y54.229
X36.068Y69.469
X36.068Y54.229
X38.608Y69.469
X38.608Y54.229
X41.148Y69.469
X41.148Y54.229
X43.688Y69.469
X43.688Y54.229
X46.228Y69.469
X46.228Y54.229
X48.768Y69.469
X48.768Y54.229
X51.308Y69.469
X51.308Y54.229
X53.848Y69.469
X53.848Y54.229
X5.588Y50.419
X5.588Y35.179
X8.128Y50.419
X8.128Y35.179
X10.668Y50.419
X10.668Y35.179
X13.208Y50.419
X13.208Y35.179
X15.748Y50.419
X15.748Y35.179
X18.288Y50.419
X18.288Y35.179
X20.828Y50.419
X20.828Y35.179
X23.368Y50.419
X23.368Y35.179
X25.908Y50.419
X25.908Y35.179
X28.448Y50.419
X28.448Y35.179
X30.988Y50.419
X30.988Y35.179
X33.528Y50.419
X33.528Y35.179
X36.068Y50.419
X36.068Y35.179
X38.608Y50.419
X38.608Y35.179
X41.148Y50.419
X41.148Y35.179
X43.688Y50.419
X43.688Y35.179
X46.228Y50.419
X46.228Y35.179
X48.768Y50.419
X48.768Y35.179
X51.308Y50.419
X51.308Y35.179
X53.848Y50.419
X53.848Y35.179
T3
X56.382Y78.977
X56.382Y76.437
X5.588Y78.994
X5.588Y76.454
X8.128Y78.994
X8.128Y76.454
X10.668Y78.994
X10.668Y76.454
X13.208Y78.994
X13.208Y76.454
X15.748Y78.994
X15.748Y76.454
X18.288Y78.994
X18.288Y76.454
X20.828Y78.994
X20.828Y76.454
X23.368Y78.994
X23.368Y76.454
X25.908Y78.994
X25.908Y76.454
X28.448Y78.994
X28.448Y76.454
X30.988Y78.994
X30.988Y76.454
X33.528Y78.994
X33.528Y76.454
X36.068Y78.994
X36.068Y76.454
X38.608Y78.994
X38.608Y76.454
X41.148Y78.994
X41.148Y76.454
X43.688Y78.994
X43.688Y76.454
X46.228Y78.994
X46.228Y76.454
X48.768Y78.994
X48.768Y76.454
X51.308Y78.994
X51.308Y76.454
X53.848Y78.994
X53.848Y76.454
T0
M30
