%TF.GenerationSoftware,KiCad,Pcbnew,(5.0.0)*%
%TF.CreationDate,2018-09-17T09:06:44-07:00*%
%TF.ProjectId,6522,363532322E6B696361645F7063620000,0.1*%
%TF.SameCoordinates,PX6b302f8PY7fe6300*%
%TF.FileFunction,Soldermask,Top*%
%TF.FilePolarity,Negative*%
%FSLAX46Y46*%
G04 Gerber Fmt 4.6, Leading zero omitted, Abs format (unit mm)*
G04 Created by KiCad (PCBNEW (5.0.0)) date 09/17/18 09:06:44*
%MOMM*%
%LPD*%
G01*
G04 APERTURE LIST*
%ADD10R,2.824000X7.650000*%
%ADD11R,2.100000X2.100000*%
%ADD12O,2.100000X2.100000*%
%ADD13R,2.000000X2.000000*%
%ADD14O,2.000000X2.000000*%
%ADD15R,1.000000X2.350000*%
%ADD16R,1.000000X1.900000*%
%ADD17C,0.100000*%
%ADD18C,1.375000*%
G04 APERTURE END LIST*
D10*
X1397000Y3810000D03*
X3937000Y3810000D03*
X6477000Y3810000D03*
X9017000Y3810000D03*
X11557000Y3810000D03*
X14097000Y3810000D03*
X16637000Y3810000D03*
X19177000Y3810000D03*
X21717000Y3810000D03*
X24257000Y3810000D03*
X26797000Y3810000D03*
X29337000Y3810000D03*
X31877000Y3810000D03*
X34417000Y3810000D03*
X36957000Y3810000D03*
X39497000Y3810000D03*
X42037000Y3810000D03*
X44577000Y3810000D03*
X47117000Y3810000D03*
X49657000Y3810000D03*
X52197000Y3810000D03*
X54737000Y3810000D03*
X57277000Y3810000D03*
X59817000Y3810000D03*
X62357000Y3810000D03*
D11*
X53848000Y78994000D03*
D12*
X53848000Y76454000D03*
X51308000Y78994000D03*
X51308000Y76454000D03*
X48768000Y78994000D03*
X48768000Y76454000D03*
X46228000Y78994000D03*
X46228000Y76454000D03*
X43688000Y78994000D03*
X43688000Y76454000D03*
X41148000Y78994000D03*
X41148000Y76454000D03*
X38608000Y78994000D03*
X38608000Y76454000D03*
X36068000Y78994000D03*
X36068000Y76454000D03*
X33528000Y78994000D03*
X33528000Y76454000D03*
X30988000Y78994000D03*
X30988000Y76454000D03*
X28448000Y78994000D03*
X28448000Y76454000D03*
X25908000Y78994000D03*
X25908000Y76454000D03*
X23368000Y78994000D03*
X23368000Y76454000D03*
X20828000Y78994000D03*
X20828000Y76454000D03*
X18288000Y78994000D03*
X18288000Y76454000D03*
X15748000Y78994000D03*
X15748000Y76454000D03*
X13208000Y78994000D03*
X13208000Y76454000D03*
X10668000Y78994000D03*
X10668000Y76454000D03*
X8128000Y78994000D03*
X8128000Y76454000D03*
X5588000Y78994000D03*
X5588000Y76454000D03*
D13*
X53848000Y69469000D03*
D14*
X5588000Y54229000D03*
X51308000Y69469000D03*
X8128000Y54229000D03*
X48768000Y69469000D03*
X10668000Y54229000D03*
X46228000Y69469000D03*
X13208000Y54229000D03*
X43688000Y69469000D03*
X15748000Y54229000D03*
X41148000Y69469000D03*
X18288000Y54229000D03*
X38608000Y69469000D03*
X20828000Y54229000D03*
X36068000Y69469000D03*
X23368000Y54229000D03*
X33528000Y69469000D03*
X25908000Y54229000D03*
X30988000Y69469000D03*
X28448000Y54229000D03*
X28448000Y69469000D03*
X30988000Y54229000D03*
X25908000Y69469000D03*
X33528000Y54229000D03*
X23368000Y69469000D03*
X36068000Y54229000D03*
X20828000Y69469000D03*
X38608000Y54229000D03*
X18288000Y69469000D03*
X41148000Y54229000D03*
X15748000Y69469000D03*
X43688000Y54229000D03*
X13208000Y69469000D03*
X46228000Y54229000D03*
X10668000Y69469000D03*
X48768000Y54229000D03*
X8128000Y69469000D03*
X51308000Y54229000D03*
X5588000Y69469000D03*
X53848000Y54229000D03*
D11*
X56381542Y78977295D03*
D12*
X56381542Y76437295D03*
D14*
X53848000Y35179000D03*
X5588000Y50419000D03*
X51308000Y35179000D03*
X8128000Y50419000D03*
X48768000Y35179000D03*
X10668000Y50419000D03*
X46228000Y35179000D03*
X13208000Y50419000D03*
X43688000Y35179000D03*
X15748000Y50419000D03*
X41148000Y35179000D03*
X18288000Y50419000D03*
X38608000Y35179000D03*
X20828000Y50419000D03*
X36068000Y35179000D03*
X23368000Y50419000D03*
X33528000Y35179000D03*
X25908000Y50419000D03*
X30988000Y35179000D03*
X28448000Y50419000D03*
X28448000Y35179000D03*
X30988000Y50419000D03*
X25908000Y35179000D03*
X33528000Y50419000D03*
X23368000Y35179000D03*
X36068000Y50419000D03*
X20828000Y35179000D03*
X38608000Y50419000D03*
X18288000Y35179000D03*
X41148000Y50419000D03*
X15748000Y35179000D03*
X43688000Y50419000D03*
X13208000Y35179000D03*
X46228000Y50419000D03*
X10668000Y35179000D03*
X48768000Y50419000D03*
X8128000Y35179000D03*
X51308000Y50419000D03*
X5588000Y35179000D03*
D13*
X53848000Y50419000D03*
D15*
X4445000Y17779000D03*
X5715000Y17779000D03*
X6985000Y17779000D03*
X8255000Y17779000D03*
X9525000Y17779000D03*
X10795000Y17779000D03*
X12065000Y17779000D03*
X13335000Y17779000D03*
X14605000Y17779000D03*
X15875000Y17779000D03*
X15875000Y27179000D03*
X14605000Y27179000D03*
X13335000Y27179000D03*
X12065000Y27179000D03*
X10795000Y27179000D03*
X9525000Y27179000D03*
X8255000Y27179000D03*
X6985000Y27179000D03*
X5715000Y27179000D03*
X4445000Y27179000D03*
D16*
X43688000Y19525000D03*
X44958000Y19525000D03*
X46228000Y19525000D03*
X47498000Y19525000D03*
X48768000Y19525000D03*
X50038000Y19525000D03*
X51308000Y19525000D03*
X51308000Y24925000D03*
X50038000Y24925000D03*
X48768000Y24925000D03*
X47498000Y24925000D03*
X46228000Y24925000D03*
X44958000Y24925000D03*
X43688000Y24925000D03*
X26543000Y24925000D03*
X27813000Y24925000D03*
X29083000Y24925000D03*
X30353000Y24925000D03*
X31623000Y24925000D03*
X32893000Y24925000D03*
X34163000Y24925000D03*
X34163000Y19525000D03*
X32893000Y19525000D03*
X31623000Y19525000D03*
X30353000Y19525000D03*
X29083000Y19525000D03*
X27813000Y19525000D03*
X26543000Y19525000D03*
D17*
G36*
X63085443Y11693345D02*
X63118812Y11688395D01*
X63151535Y11680198D01*
X63183297Y11668834D01*
X63213793Y11654410D01*
X63242727Y11637068D01*
X63269823Y11616972D01*
X63294818Y11594318D01*
X63317472Y11569323D01*
X63337568Y11542227D01*
X63354910Y11513293D01*
X63369334Y11482797D01*
X63380698Y11451035D01*
X63388895Y11418312D01*
X63393845Y11384943D01*
X63395500Y11351250D01*
X63395500Y10238750D01*
X63393845Y10205057D01*
X63388895Y10171688D01*
X63380698Y10138965D01*
X63369334Y10107203D01*
X63354910Y10076707D01*
X63337568Y10047773D01*
X63317472Y10020677D01*
X63294818Y9995682D01*
X63269823Y9973028D01*
X63242727Y9952932D01*
X63213793Y9935590D01*
X63183297Y9921166D01*
X63151535Y9909802D01*
X63118812Y9901605D01*
X63085443Y9896655D01*
X63051750Y9895000D01*
X62364250Y9895000D01*
X62330557Y9896655D01*
X62297188Y9901605D01*
X62264465Y9909802D01*
X62232703Y9921166D01*
X62202207Y9935590D01*
X62173273Y9952932D01*
X62146177Y9973028D01*
X62121182Y9995682D01*
X62098528Y10020677D01*
X62078432Y10047773D01*
X62061090Y10076707D01*
X62046666Y10107203D01*
X62035302Y10138965D01*
X62027105Y10171688D01*
X62022155Y10205057D01*
X62020500Y10238750D01*
X62020500Y11351250D01*
X62022155Y11384943D01*
X62027105Y11418312D01*
X62035302Y11451035D01*
X62046666Y11482797D01*
X62061090Y11513293D01*
X62078432Y11542227D01*
X62098528Y11569323D01*
X62121182Y11594318D01*
X62146177Y11616972D01*
X62173273Y11637068D01*
X62202207Y11654410D01*
X62232703Y11668834D01*
X62264465Y11680198D01*
X62297188Y11688395D01*
X62330557Y11693345D01*
X62364250Y11695000D01*
X63051750Y11695000D01*
X63085443Y11693345D01*
X63085443Y11693345D01*
G37*
D18*
X62708000Y10795000D03*
D17*
G36*
X61210443Y11693345D02*
X61243812Y11688395D01*
X61276535Y11680198D01*
X61308297Y11668834D01*
X61338793Y11654410D01*
X61367727Y11637068D01*
X61394823Y11616972D01*
X61419818Y11594318D01*
X61442472Y11569323D01*
X61462568Y11542227D01*
X61479910Y11513293D01*
X61494334Y11482797D01*
X61505698Y11451035D01*
X61513895Y11418312D01*
X61518845Y11384943D01*
X61520500Y11351250D01*
X61520500Y10238750D01*
X61518845Y10205057D01*
X61513895Y10171688D01*
X61505698Y10138965D01*
X61494334Y10107203D01*
X61479910Y10076707D01*
X61462568Y10047773D01*
X61442472Y10020677D01*
X61419818Y9995682D01*
X61394823Y9973028D01*
X61367727Y9952932D01*
X61338793Y9935590D01*
X61308297Y9921166D01*
X61276535Y9909802D01*
X61243812Y9901605D01*
X61210443Y9896655D01*
X61176750Y9895000D01*
X60489250Y9895000D01*
X60455557Y9896655D01*
X60422188Y9901605D01*
X60389465Y9909802D01*
X60357703Y9921166D01*
X60327207Y9935590D01*
X60298273Y9952932D01*
X60271177Y9973028D01*
X60246182Y9995682D01*
X60223528Y10020677D01*
X60203432Y10047773D01*
X60186090Y10076707D01*
X60171666Y10107203D01*
X60160302Y10138965D01*
X60152105Y10171688D01*
X60147155Y10205057D01*
X60145500Y10238750D01*
X60145500Y11351250D01*
X60147155Y11384943D01*
X60152105Y11418312D01*
X60160302Y11451035D01*
X60171666Y11482797D01*
X60186090Y11513293D01*
X60203432Y11542227D01*
X60223528Y11569323D01*
X60246182Y11594318D01*
X60271177Y11616972D01*
X60298273Y11637068D01*
X60327207Y11654410D01*
X60357703Y11668834D01*
X60389465Y11680198D01*
X60422188Y11688395D01*
X60455557Y11693345D01*
X60489250Y11695000D01*
X61176750Y11695000D01*
X61210443Y11693345D01*
X61210443Y11693345D01*
G37*
D18*
X60833000Y10795000D03*
D17*
G36*
X63085443Y15503345D02*
X63118812Y15498395D01*
X63151535Y15490198D01*
X63183297Y15478834D01*
X63213793Y15464410D01*
X63242727Y15447068D01*
X63269823Y15426972D01*
X63294818Y15404318D01*
X63317472Y15379323D01*
X63337568Y15352227D01*
X63354910Y15323293D01*
X63369334Y15292797D01*
X63380698Y15261035D01*
X63388895Y15228312D01*
X63393845Y15194943D01*
X63395500Y15161250D01*
X63395500Y14048750D01*
X63393845Y14015057D01*
X63388895Y13981688D01*
X63380698Y13948965D01*
X63369334Y13917203D01*
X63354910Y13886707D01*
X63337568Y13857773D01*
X63317472Y13830677D01*
X63294818Y13805682D01*
X63269823Y13783028D01*
X63242727Y13762932D01*
X63213793Y13745590D01*
X63183297Y13731166D01*
X63151535Y13719802D01*
X63118812Y13711605D01*
X63085443Y13706655D01*
X63051750Y13705000D01*
X62364250Y13705000D01*
X62330557Y13706655D01*
X62297188Y13711605D01*
X62264465Y13719802D01*
X62232703Y13731166D01*
X62202207Y13745590D01*
X62173273Y13762932D01*
X62146177Y13783028D01*
X62121182Y13805682D01*
X62098528Y13830677D01*
X62078432Y13857773D01*
X62061090Y13886707D01*
X62046666Y13917203D01*
X62035302Y13948965D01*
X62027105Y13981688D01*
X62022155Y14015057D01*
X62020500Y14048750D01*
X62020500Y15161250D01*
X62022155Y15194943D01*
X62027105Y15228312D01*
X62035302Y15261035D01*
X62046666Y15292797D01*
X62061090Y15323293D01*
X62078432Y15352227D01*
X62098528Y15379323D01*
X62121182Y15404318D01*
X62146177Y15426972D01*
X62173273Y15447068D01*
X62202207Y15464410D01*
X62232703Y15478834D01*
X62264465Y15490198D01*
X62297188Y15498395D01*
X62330557Y15503345D01*
X62364250Y15505000D01*
X63051750Y15505000D01*
X63085443Y15503345D01*
X63085443Y15503345D01*
G37*
D18*
X62708000Y14605000D03*
D17*
G36*
X61210443Y15503345D02*
X61243812Y15498395D01*
X61276535Y15490198D01*
X61308297Y15478834D01*
X61338793Y15464410D01*
X61367727Y15447068D01*
X61394823Y15426972D01*
X61419818Y15404318D01*
X61442472Y15379323D01*
X61462568Y15352227D01*
X61479910Y15323293D01*
X61494334Y15292797D01*
X61505698Y15261035D01*
X61513895Y15228312D01*
X61518845Y15194943D01*
X61520500Y15161250D01*
X61520500Y14048750D01*
X61518845Y14015057D01*
X61513895Y13981688D01*
X61505698Y13948965D01*
X61494334Y13917203D01*
X61479910Y13886707D01*
X61462568Y13857773D01*
X61442472Y13830677D01*
X61419818Y13805682D01*
X61394823Y13783028D01*
X61367727Y13762932D01*
X61338793Y13745590D01*
X61308297Y13731166D01*
X61276535Y13719802D01*
X61243812Y13711605D01*
X61210443Y13706655D01*
X61176750Y13705000D01*
X60489250Y13705000D01*
X60455557Y13706655D01*
X60422188Y13711605D01*
X60389465Y13719802D01*
X60357703Y13731166D01*
X60327207Y13745590D01*
X60298273Y13762932D01*
X60271177Y13783028D01*
X60246182Y13805682D01*
X60223528Y13830677D01*
X60203432Y13857773D01*
X60186090Y13886707D01*
X60171666Y13917203D01*
X60160302Y13948965D01*
X60152105Y13981688D01*
X60147155Y14015057D01*
X60145500Y14048750D01*
X60145500Y15161250D01*
X60147155Y15194943D01*
X60152105Y15228312D01*
X60160302Y15261035D01*
X60171666Y15292797D01*
X60186090Y15323293D01*
X60203432Y15352227D01*
X60223528Y15379323D01*
X60246182Y15404318D01*
X60271177Y15426972D01*
X60298273Y15447068D01*
X60327207Y15464410D01*
X60357703Y15478834D01*
X60389465Y15490198D01*
X60422188Y15498395D01*
X60455557Y15503345D01*
X60489250Y15505000D01*
X61176750Y15505000D01*
X61210443Y15503345D01*
X61210443Y15503345D01*
G37*
D18*
X60833000Y14605000D03*
D17*
G36*
X18877943Y24180845D02*
X18911312Y24175895D01*
X18944035Y24167698D01*
X18975797Y24156334D01*
X19006293Y24141910D01*
X19035227Y24124568D01*
X19062323Y24104472D01*
X19087318Y24081818D01*
X19109972Y24056823D01*
X19130068Y24029727D01*
X19147410Y24000793D01*
X19161834Y23970297D01*
X19173198Y23938535D01*
X19181395Y23905812D01*
X19186345Y23872443D01*
X19188000Y23838750D01*
X19188000Y23151250D01*
X19186345Y23117557D01*
X19181395Y23084188D01*
X19173198Y23051465D01*
X19161834Y23019703D01*
X19147410Y22989207D01*
X19130068Y22960273D01*
X19109972Y22933177D01*
X19087318Y22908182D01*
X19062323Y22885528D01*
X19035227Y22865432D01*
X19006293Y22848090D01*
X18975797Y22833666D01*
X18944035Y22822302D01*
X18911312Y22814105D01*
X18877943Y22809155D01*
X18844250Y22807500D01*
X17731750Y22807500D01*
X17698057Y22809155D01*
X17664688Y22814105D01*
X17631965Y22822302D01*
X17600203Y22833666D01*
X17569707Y22848090D01*
X17540773Y22865432D01*
X17513677Y22885528D01*
X17488682Y22908182D01*
X17466028Y22933177D01*
X17445932Y22960273D01*
X17428590Y22989207D01*
X17414166Y23019703D01*
X17402802Y23051465D01*
X17394605Y23084188D01*
X17389655Y23117557D01*
X17388000Y23151250D01*
X17388000Y23838750D01*
X17389655Y23872443D01*
X17394605Y23905812D01*
X17402802Y23938535D01*
X17414166Y23970297D01*
X17428590Y24000793D01*
X17445932Y24029727D01*
X17466028Y24056823D01*
X17488682Y24081818D01*
X17513677Y24104472D01*
X17540773Y24124568D01*
X17569707Y24141910D01*
X17600203Y24156334D01*
X17631965Y24167698D01*
X17664688Y24175895D01*
X17698057Y24180845D01*
X17731750Y24182500D01*
X18844250Y24182500D01*
X18877943Y24180845D01*
X18877943Y24180845D01*
G37*
D18*
X18288000Y23495000D03*
D17*
G36*
X18877943Y22305845D02*
X18911312Y22300895D01*
X18944035Y22292698D01*
X18975797Y22281334D01*
X19006293Y22266910D01*
X19035227Y22249568D01*
X19062323Y22229472D01*
X19087318Y22206818D01*
X19109972Y22181823D01*
X19130068Y22154727D01*
X19147410Y22125793D01*
X19161834Y22095297D01*
X19173198Y22063535D01*
X19181395Y22030812D01*
X19186345Y21997443D01*
X19188000Y21963750D01*
X19188000Y21276250D01*
X19186345Y21242557D01*
X19181395Y21209188D01*
X19173198Y21176465D01*
X19161834Y21144703D01*
X19147410Y21114207D01*
X19130068Y21085273D01*
X19109972Y21058177D01*
X19087318Y21033182D01*
X19062323Y21010528D01*
X19035227Y20990432D01*
X19006293Y20973090D01*
X18975797Y20958666D01*
X18944035Y20947302D01*
X18911312Y20939105D01*
X18877943Y20934155D01*
X18844250Y20932500D01*
X17731750Y20932500D01*
X17698057Y20934155D01*
X17664688Y20939105D01*
X17631965Y20947302D01*
X17600203Y20958666D01*
X17569707Y20973090D01*
X17540773Y20990432D01*
X17513677Y21010528D01*
X17488682Y21033182D01*
X17466028Y21058177D01*
X17445932Y21085273D01*
X17428590Y21114207D01*
X17414166Y21144703D01*
X17402802Y21176465D01*
X17394605Y21209188D01*
X17389655Y21242557D01*
X17388000Y21276250D01*
X17388000Y21963750D01*
X17389655Y21997443D01*
X17394605Y22030812D01*
X17402802Y22063535D01*
X17414166Y22095297D01*
X17428590Y22125793D01*
X17445932Y22154727D01*
X17466028Y22181823D01*
X17488682Y22206818D01*
X17513677Y22229472D01*
X17540773Y22249568D01*
X17569707Y22266910D01*
X17600203Y22281334D01*
X17631965Y22292698D01*
X17664688Y22300895D01*
X17698057Y22305845D01*
X17731750Y22307500D01*
X18844250Y22307500D01*
X18877943Y22305845D01*
X18877943Y22305845D01*
G37*
D18*
X18288000Y21620000D03*
D17*
G36*
X37927943Y22305845D02*
X37961312Y22300895D01*
X37994035Y22292698D01*
X38025797Y22281334D01*
X38056293Y22266910D01*
X38085227Y22249568D01*
X38112323Y22229472D01*
X38137318Y22206818D01*
X38159972Y22181823D01*
X38180068Y22154727D01*
X38197410Y22125793D01*
X38211834Y22095297D01*
X38223198Y22063535D01*
X38231395Y22030812D01*
X38236345Y21997443D01*
X38238000Y21963750D01*
X38238000Y21276250D01*
X38236345Y21242557D01*
X38231395Y21209188D01*
X38223198Y21176465D01*
X38211834Y21144703D01*
X38197410Y21114207D01*
X38180068Y21085273D01*
X38159972Y21058177D01*
X38137318Y21033182D01*
X38112323Y21010528D01*
X38085227Y20990432D01*
X38056293Y20973090D01*
X38025797Y20958666D01*
X37994035Y20947302D01*
X37961312Y20939105D01*
X37927943Y20934155D01*
X37894250Y20932500D01*
X36781750Y20932500D01*
X36748057Y20934155D01*
X36714688Y20939105D01*
X36681965Y20947302D01*
X36650203Y20958666D01*
X36619707Y20973090D01*
X36590773Y20990432D01*
X36563677Y21010528D01*
X36538682Y21033182D01*
X36516028Y21058177D01*
X36495932Y21085273D01*
X36478590Y21114207D01*
X36464166Y21144703D01*
X36452802Y21176465D01*
X36444605Y21209188D01*
X36439655Y21242557D01*
X36438000Y21276250D01*
X36438000Y21963750D01*
X36439655Y21997443D01*
X36444605Y22030812D01*
X36452802Y22063535D01*
X36464166Y22095297D01*
X36478590Y22125793D01*
X36495932Y22154727D01*
X36516028Y22181823D01*
X36538682Y22206818D01*
X36563677Y22229472D01*
X36590773Y22249568D01*
X36619707Y22266910D01*
X36650203Y22281334D01*
X36681965Y22292698D01*
X36714688Y22300895D01*
X36748057Y22305845D01*
X36781750Y22307500D01*
X37894250Y22307500D01*
X37927943Y22305845D01*
X37927943Y22305845D01*
G37*
D18*
X37338000Y21620000D03*
D17*
G36*
X37927943Y24180845D02*
X37961312Y24175895D01*
X37994035Y24167698D01*
X38025797Y24156334D01*
X38056293Y24141910D01*
X38085227Y24124568D01*
X38112323Y24104472D01*
X38137318Y24081818D01*
X38159972Y24056823D01*
X38180068Y24029727D01*
X38197410Y24000793D01*
X38211834Y23970297D01*
X38223198Y23938535D01*
X38231395Y23905812D01*
X38236345Y23872443D01*
X38238000Y23838750D01*
X38238000Y23151250D01*
X38236345Y23117557D01*
X38231395Y23084188D01*
X38223198Y23051465D01*
X38211834Y23019703D01*
X38197410Y22989207D01*
X38180068Y22960273D01*
X38159972Y22933177D01*
X38137318Y22908182D01*
X38112323Y22885528D01*
X38085227Y22865432D01*
X38056293Y22848090D01*
X38025797Y22833666D01*
X37994035Y22822302D01*
X37961312Y22814105D01*
X37927943Y22809155D01*
X37894250Y22807500D01*
X36781750Y22807500D01*
X36748057Y22809155D01*
X36714688Y22814105D01*
X36681965Y22822302D01*
X36650203Y22833666D01*
X36619707Y22848090D01*
X36590773Y22865432D01*
X36563677Y22885528D01*
X36538682Y22908182D01*
X36516028Y22933177D01*
X36495932Y22960273D01*
X36478590Y22989207D01*
X36464166Y23019703D01*
X36452802Y23051465D01*
X36444605Y23084188D01*
X36439655Y23117557D01*
X36438000Y23151250D01*
X36438000Y23838750D01*
X36439655Y23872443D01*
X36444605Y23905812D01*
X36452802Y23938535D01*
X36464166Y23970297D01*
X36478590Y24000793D01*
X36495932Y24029727D01*
X36516028Y24056823D01*
X36538682Y24081818D01*
X36563677Y24104472D01*
X36590773Y24124568D01*
X36619707Y24141910D01*
X36650203Y24156334D01*
X36681965Y24167698D01*
X36714688Y24175895D01*
X36748057Y24180845D01*
X36781750Y24182500D01*
X37894250Y24182500D01*
X37927943Y24180845D01*
X37927943Y24180845D01*
G37*
D18*
X37338000Y23495000D03*
D17*
G36*
X54437943Y24180845D02*
X54471312Y24175895D01*
X54504035Y24167698D01*
X54535797Y24156334D01*
X54566293Y24141910D01*
X54595227Y24124568D01*
X54622323Y24104472D01*
X54647318Y24081818D01*
X54669972Y24056823D01*
X54690068Y24029727D01*
X54707410Y24000793D01*
X54721834Y23970297D01*
X54733198Y23938535D01*
X54741395Y23905812D01*
X54746345Y23872443D01*
X54748000Y23838750D01*
X54748000Y23151250D01*
X54746345Y23117557D01*
X54741395Y23084188D01*
X54733198Y23051465D01*
X54721834Y23019703D01*
X54707410Y22989207D01*
X54690068Y22960273D01*
X54669972Y22933177D01*
X54647318Y22908182D01*
X54622323Y22885528D01*
X54595227Y22865432D01*
X54566293Y22848090D01*
X54535797Y22833666D01*
X54504035Y22822302D01*
X54471312Y22814105D01*
X54437943Y22809155D01*
X54404250Y22807500D01*
X53291750Y22807500D01*
X53258057Y22809155D01*
X53224688Y22814105D01*
X53191965Y22822302D01*
X53160203Y22833666D01*
X53129707Y22848090D01*
X53100773Y22865432D01*
X53073677Y22885528D01*
X53048682Y22908182D01*
X53026028Y22933177D01*
X53005932Y22960273D01*
X52988590Y22989207D01*
X52974166Y23019703D01*
X52962802Y23051465D01*
X52954605Y23084188D01*
X52949655Y23117557D01*
X52948000Y23151250D01*
X52948000Y23838750D01*
X52949655Y23872443D01*
X52954605Y23905812D01*
X52962802Y23938535D01*
X52974166Y23970297D01*
X52988590Y24000793D01*
X53005932Y24029727D01*
X53026028Y24056823D01*
X53048682Y24081818D01*
X53073677Y24104472D01*
X53100773Y24124568D01*
X53129707Y24141910D01*
X53160203Y24156334D01*
X53191965Y24167698D01*
X53224688Y24175895D01*
X53258057Y24180845D01*
X53291750Y24182500D01*
X54404250Y24182500D01*
X54437943Y24180845D01*
X54437943Y24180845D01*
G37*
D18*
X53848000Y23495000D03*
D17*
G36*
X54437943Y22305845D02*
X54471312Y22300895D01*
X54504035Y22292698D01*
X54535797Y22281334D01*
X54566293Y22266910D01*
X54595227Y22249568D01*
X54622323Y22229472D01*
X54647318Y22206818D01*
X54669972Y22181823D01*
X54690068Y22154727D01*
X54707410Y22125793D01*
X54721834Y22095297D01*
X54733198Y22063535D01*
X54741395Y22030812D01*
X54746345Y21997443D01*
X54748000Y21963750D01*
X54748000Y21276250D01*
X54746345Y21242557D01*
X54741395Y21209188D01*
X54733198Y21176465D01*
X54721834Y21144703D01*
X54707410Y21114207D01*
X54690068Y21085273D01*
X54669972Y21058177D01*
X54647318Y21033182D01*
X54622323Y21010528D01*
X54595227Y20990432D01*
X54566293Y20973090D01*
X54535797Y20958666D01*
X54504035Y20947302D01*
X54471312Y20939105D01*
X54437943Y20934155D01*
X54404250Y20932500D01*
X53291750Y20932500D01*
X53258057Y20934155D01*
X53224688Y20939105D01*
X53191965Y20947302D01*
X53160203Y20958666D01*
X53129707Y20973090D01*
X53100773Y20990432D01*
X53073677Y21010528D01*
X53048682Y21033182D01*
X53026028Y21058177D01*
X53005932Y21085273D01*
X52988590Y21114207D01*
X52974166Y21144703D01*
X52962802Y21176465D01*
X52954605Y21209188D01*
X52949655Y21242557D01*
X52948000Y21276250D01*
X52948000Y21963750D01*
X52949655Y21997443D01*
X52954605Y22030812D01*
X52962802Y22063535D01*
X52974166Y22095297D01*
X52988590Y22125793D01*
X53005932Y22154727D01*
X53026028Y22181823D01*
X53048682Y22206818D01*
X53073677Y22229472D01*
X53100773Y22249568D01*
X53129707Y22266910D01*
X53160203Y22281334D01*
X53191965Y22292698D01*
X53224688Y22300895D01*
X53258057Y22305845D01*
X53291750Y22307500D01*
X54404250Y22307500D01*
X54437943Y22305845D01*
X54437943Y22305845D01*
G37*
D18*
X53848000Y21620000D03*
D17*
G36*
X56765443Y51317345D02*
X56798812Y51312395D01*
X56831535Y51304198D01*
X56863297Y51292834D01*
X56893793Y51278410D01*
X56922727Y51261068D01*
X56949823Y51240972D01*
X56974818Y51218318D01*
X56997472Y51193323D01*
X57017568Y51166227D01*
X57034910Y51137293D01*
X57049334Y51106797D01*
X57060698Y51075035D01*
X57068895Y51042312D01*
X57073845Y51008943D01*
X57075500Y50975250D01*
X57075500Y49862750D01*
X57073845Y49829057D01*
X57068895Y49795688D01*
X57060698Y49762965D01*
X57049334Y49731203D01*
X57034910Y49700707D01*
X57017568Y49671773D01*
X56997472Y49644677D01*
X56974818Y49619682D01*
X56949823Y49597028D01*
X56922727Y49576932D01*
X56893793Y49559590D01*
X56863297Y49545166D01*
X56831535Y49533802D01*
X56798812Y49525605D01*
X56765443Y49520655D01*
X56731750Y49519000D01*
X56044250Y49519000D01*
X56010557Y49520655D01*
X55977188Y49525605D01*
X55944465Y49533802D01*
X55912703Y49545166D01*
X55882207Y49559590D01*
X55853273Y49576932D01*
X55826177Y49597028D01*
X55801182Y49619682D01*
X55778528Y49644677D01*
X55758432Y49671773D01*
X55741090Y49700707D01*
X55726666Y49731203D01*
X55715302Y49762965D01*
X55707105Y49795688D01*
X55702155Y49829057D01*
X55700500Y49862750D01*
X55700500Y50975250D01*
X55702155Y51008943D01*
X55707105Y51042312D01*
X55715302Y51075035D01*
X55726666Y51106797D01*
X55741090Y51137293D01*
X55758432Y51166227D01*
X55778528Y51193323D01*
X55801182Y51218318D01*
X55826177Y51240972D01*
X55853273Y51261068D01*
X55882207Y51278410D01*
X55912703Y51292834D01*
X55944465Y51304198D01*
X55977188Y51312395D01*
X56010557Y51317345D01*
X56044250Y51319000D01*
X56731750Y51319000D01*
X56765443Y51317345D01*
X56765443Y51317345D01*
G37*
D18*
X56388000Y50419000D03*
D17*
G36*
X58640443Y51317345D02*
X58673812Y51312395D01*
X58706535Y51304198D01*
X58738297Y51292834D01*
X58768793Y51278410D01*
X58797727Y51261068D01*
X58824823Y51240972D01*
X58849818Y51218318D01*
X58872472Y51193323D01*
X58892568Y51166227D01*
X58909910Y51137293D01*
X58924334Y51106797D01*
X58935698Y51075035D01*
X58943895Y51042312D01*
X58948845Y51008943D01*
X58950500Y50975250D01*
X58950500Y49862750D01*
X58948845Y49829057D01*
X58943895Y49795688D01*
X58935698Y49762965D01*
X58924334Y49731203D01*
X58909910Y49700707D01*
X58892568Y49671773D01*
X58872472Y49644677D01*
X58849818Y49619682D01*
X58824823Y49597028D01*
X58797727Y49576932D01*
X58768793Y49559590D01*
X58738297Y49545166D01*
X58706535Y49533802D01*
X58673812Y49525605D01*
X58640443Y49520655D01*
X58606750Y49519000D01*
X57919250Y49519000D01*
X57885557Y49520655D01*
X57852188Y49525605D01*
X57819465Y49533802D01*
X57787703Y49545166D01*
X57757207Y49559590D01*
X57728273Y49576932D01*
X57701177Y49597028D01*
X57676182Y49619682D01*
X57653528Y49644677D01*
X57633432Y49671773D01*
X57616090Y49700707D01*
X57601666Y49731203D01*
X57590302Y49762965D01*
X57582105Y49795688D01*
X57577155Y49829057D01*
X57575500Y49862750D01*
X57575500Y50975250D01*
X57577155Y51008943D01*
X57582105Y51042312D01*
X57590302Y51075035D01*
X57601666Y51106797D01*
X57616090Y51137293D01*
X57633432Y51166227D01*
X57653528Y51193323D01*
X57676182Y51218318D01*
X57701177Y51240972D01*
X57728273Y51261068D01*
X57757207Y51278410D01*
X57787703Y51292834D01*
X57819465Y51304198D01*
X57852188Y51312395D01*
X57885557Y51317345D01*
X57919250Y51319000D01*
X58606750Y51319000D01*
X58640443Y51317345D01*
X58640443Y51317345D01*
G37*
D18*
X58263000Y50419000D03*
D17*
G36*
X58640443Y70367345D02*
X58673812Y70362395D01*
X58706535Y70354198D01*
X58738297Y70342834D01*
X58768793Y70328410D01*
X58797727Y70311068D01*
X58824823Y70290972D01*
X58849818Y70268318D01*
X58872472Y70243323D01*
X58892568Y70216227D01*
X58909910Y70187293D01*
X58924334Y70156797D01*
X58935698Y70125035D01*
X58943895Y70092312D01*
X58948845Y70058943D01*
X58950500Y70025250D01*
X58950500Y68912750D01*
X58948845Y68879057D01*
X58943895Y68845688D01*
X58935698Y68812965D01*
X58924334Y68781203D01*
X58909910Y68750707D01*
X58892568Y68721773D01*
X58872472Y68694677D01*
X58849818Y68669682D01*
X58824823Y68647028D01*
X58797727Y68626932D01*
X58768793Y68609590D01*
X58738297Y68595166D01*
X58706535Y68583802D01*
X58673812Y68575605D01*
X58640443Y68570655D01*
X58606750Y68569000D01*
X57919250Y68569000D01*
X57885557Y68570655D01*
X57852188Y68575605D01*
X57819465Y68583802D01*
X57787703Y68595166D01*
X57757207Y68609590D01*
X57728273Y68626932D01*
X57701177Y68647028D01*
X57676182Y68669682D01*
X57653528Y68694677D01*
X57633432Y68721773D01*
X57616090Y68750707D01*
X57601666Y68781203D01*
X57590302Y68812965D01*
X57582105Y68845688D01*
X57577155Y68879057D01*
X57575500Y68912750D01*
X57575500Y70025250D01*
X57577155Y70058943D01*
X57582105Y70092312D01*
X57590302Y70125035D01*
X57601666Y70156797D01*
X57616090Y70187293D01*
X57633432Y70216227D01*
X57653528Y70243323D01*
X57676182Y70268318D01*
X57701177Y70290972D01*
X57728273Y70311068D01*
X57757207Y70328410D01*
X57787703Y70342834D01*
X57819465Y70354198D01*
X57852188Y70362395D01*
X57885557Y70367345D01*
X57919250Y70369000D01*
X58606750Y70369000D01*
X58640443Y70367345D01*
X58640443Y70367345D01*
G37*
D18*
X58263000Y69469000D03*
D17*
G36*
X56765443Y70367345D02*
X56798812Y70362395D01*
X56831535Y70354198D01*
X56863297Y70342834D01*
X56893793Y70328410D01*
X56922727Y70311068D01*
X56949823Y70290972D01*
X56974818Y70268318D01*
X56997472Y70243323D01*
X57017568Y70216227D01*
X57034910Y70187293D01*
X57049334Y70156797D01*
X57060698Y70125035D01*
X57068895Y70092312D01*
X57073845Y70058943D01*
X57075500Y70025250D01*
X57075500Y68912750D01*
X57073845Y68879057D01*
X57068895Y68845688D01*
X57060698Y68812965D01*
X57049334Y68781203D01*
X57034910Y68750707D01*
X57017568Y68721773D01*
X56997472Y68694677D01*
X56974818Y68669682D01*
X56949823Y68647028D01*
X56922727Y68626932D01*
X56893793Y68609590D01*
X56863297Y68595166D01*
X56831535Y68583802D01*
X56798812Y68575605D01*
X56765443Y68570655D01*
X56731750Y68569000D01*
X56044250Y68569000D01*
X56010557Y68570655D01*
X55977188Y68575605D01*
X55944465Y68583802D01*
X55912703Y68595166D01*
X55882207Y68609590D01*
X55853273Y68626932D01*
X55826177Y68647028D01*
X55801182Y68669682D01*
X55778528Y68694677D01*
X55758432Y68721773D01*
X55741090Y68750707D01*
X55726666Y68781203D01*
X55715302Y68812965D01*
X55707105Y68845688D01*
X55702155Y68879057D01*
X55700500Y68912750D01*
X55700500Y70025250D01*
X55702155Y70058943D01*
X55707105Y70092312D01*
X55715302Y70125035D01*
X55726666Y70156797D01*
X55741090Y70187293D01*
X55758432Y70216227D01*
X55778528Y70243323D01*
X55801182Y70268318D01*
X55826177Y70290972D01*
X55853273Y70311068D01*
X55882207Y70328410D01*
X55912703Y70342834D01*
X55944465Y70354198D01*
X55977188Y70362395D01*
X56010557Y70367345D01*
X56044250Y70369000D01*
X56731750Y70369000D01*
X56765443Y70367345D01*
X56765443Y70367345D01*
G37*
D18*
X56388000Y69469000D03*
D17*
G36*
X60146485Y78998140D02*
X60179854Y78993190D01*
X60212577Y78984993D01*
X60244339Y78973629D01*
X60274835Y78959205D01*
X60303769Y78941863D01*
X60330865Y78921767D01*
X60355860Y78899113D01*
X60378514Y78874118D01*
X60398610Y78847022D01*
X60415952Y78818088D01*
X60430376Y78787592D01*
X60441740Y78755830D01*
X60449937Y78723107D01*
X60454887Y78689738D01*
X60456542Y78656045D01*
X60456542Y77968545D01*
X60454887Y77934852D01*
X60449937Y77901483D01*
X60441740Y77868760D01*
X60430376Y77836998D01*
X60415952Y77806502D01*
X60398610Y77777568D01*
X60378514Y77750472D01*
X60355860Y77725477D01*
X60330865Y77702823D01*
X60303769Y77682727D01*
X60274835Y77665385D01*
X60244339Y77650961D01*
X60212577Y77639597D01*
X60179854Y77631400D01*
X60146485Y77626450D01*
X60112792Y77624795D01*
X59000292Y77624795D01*
X58966599Y77626450D01*
X58933230Y77631400D01*
X58900507Y77639597D01*
X58868745Y77650961D01*
X58838249Y77665385D01*
X58809315Y77682727D01*
X58782219Y77702823D01*
X58757224Y77725477D01*
X58734570Y77750472D01*
X58714474Y77777568D01*
X58697132Y77806502D01*
X58682708Y77836998D01*
X58671344Y77868760D01*
X58663147Y77901483D01*
X58658197Y77934852D01*
X58656542Y77968545D01*
X58656542Y78656045D01*
X58658197Y78689738D01*
X58663147Y78723107D01*
X58671344Y78755830D01*
X58682708Y78787592D01*
X58697132Y78818088D01*
X58714474Y78847022D01*
X58734570Y78874118D01*
X58757224Y78899113D01*
X58782219Y78921767D01*
X58809315Y78941863D01*
X58838249Y78959205D01*
X58868745Y78973629D01*
X58900507Y78984993D01*
X58933230Y78993190D01*
X58966599Y78998140D01*
X59000292Y78999795D01*
X60112792Y78999795D01*
X60146485Y78998140D01*
X60146485Y78998140D01*
G37*
D18*
X59556542Y78312295D03*
D17*
G36*
X60146485Y77123140D02*
X60179854Y77118190D01*
X60212577Y77109993D01*
X60244339Y77098629D01*
X60274835Y77084205D01*
X60303769Y77066863D01*
X60330865Y77046767D01*
X60355860Y77024113D01*
X60378514Y76999118D01*
X60398610Y76972022D01*
X60415952Y76943088D01*
X60430376Y76912592D01*
X60441740Y76880830D01*
X60449937Y76848107D01*
X60454887Y76814738D01*
X60456542Y76781045D01*
X60456542Y76093545D01*
X60454887Y76059852D01*
X60449937Y76026483D01*
X60441740Y75993760D01*
X60430376Y75961998D01*
X60415952Y75931502D01*
X60398610Y75902568D01*
X60378514Y75875472D01*
X60355860Y75850477D01*
X60330865Y75827823D01*
X60303769Y75807727D01*
X60274835Y75790385D01*
X60244339Y75775961D01*
X60212577Y75764597D01*
X60179854Y75756400D01*
X60146485Y75751450D01*
X60112792Y75749795D01*
X59000292Y75749795D01*
X58966599Y75751450D01*
X58933230Y75756400D01*
X58900507Y75764597D01*
X58868745Y75775961D01*
X58838249Y75790385D01*
X58809315Y75807727D01*
X58782219Y75827823D01*
X58757224Y75850477D01*
X58734570Y75875472D01*
X58714474Y75902568D01*
X58697132Y75931502D01*
X58682708Y75961998D01*
X58671344Y75993760D01*
X58663147Y76026483D01*
X58658197Y76059852D01*
X58656542Y76093545D01*
X58656542Y76781045D01*
X58658197Y76814738D01*
X58663147Y76848107D01*
X58671344Y76880830D01*
X58682708Y76912592D01*
X58697132Y76943088D01*
X58714474Y76972022D01*
X58734570Y76999118D01*
X58757224Y77024113D01*
X58782219Y77046767D01*
X58809315Y77066863D01*
X58838249Y77084205D01*
X58868745Y77098629D01*
X58900507Y77109993D01*
X58933230Y77118190D01*
X58966599Y77123140D01*
X59000292Y77124795D01*
X60112792Y77124795D01*
X60146485Y77123140D01*
X60146485Y77123140D01*
G37*
D18*
X59556542Y76437295D03*
M02*
