%TF.GenerationSoftware,KiCad,Pcbnew,(5.0.0)*%
%TF.CreationDate,2018-09-18T07:55:34-07:00*%
%TF.ProjectId,6522,363532322E6B696361645F7063620000,0.1*%
%TF.SameCoordinates,PX6a38238PY7fe6300*%
%TF.FileFunction,Legend,Top*%
%TF.FilePolarity,Positive*%
%FSLAX46Y46*%
G04 Gerber Fmt 4.6, Leading zero omitted, Abs format (unit mm)*
G04 Created by KiCad (PCBNEW (5.0.0)) date 09/18/18 07:55:34*
%MOMM*%
%LPD*%
G01*
G04 APERTURE LIST*
%ADD10C,0.400000*%
%ADD11C,0.120000*%
%ADD12C,0.150000*%
%ADD13C,0.010000*%
G04 APERTURE END LIST*
D10*
X62309333Y25608667D02*
X62309333Y26561048D01*
X62880761Y25418191D02*
X60880761Y26084858D01*
X62880761Y26751524D01*
X61547428Y27418191D02*
X63547428Y27418191D01*
X61642666Y27418191D02*
X61547428Y27608667D01*
X61547428Y27989620D01*
X61642666Y28180096D01*
X61737904Y28275334D01*
X61928380Y28370572D01*
X62499809Y28370572D01*
X62690285Y28275334D01*
X62785523Y28180096D01*
X62880761Y27989620D01*
X62880761Y27608667D01*
X62785523Y27418191D01*
X61547428Y29227715D02*
X63547428Y29227715D01*
X61642666Y29227715D02*
X61547428Y29418191D01*
X61547428Y29799143D01*
X61642666Y29989620D01*
X61737904Y30084858D01*
X61928380Y30180096D01*
X62499809Y30180096D01*
X62690285Y30084858D01*
X62785523Y29989620D01*
X62880761Y29799143D01*
X62880761Y29418191D01*
X62785523Y29227715D01*
X62880761Y31322953D02*
X62785523Y31132477D01*
X62595047Y31037239D01*
X60880761Y31037239D01*
X62785523Y32846762D02*
X62880761Y32656286D01*
X62880761Y32275334D01*
X62785523Y32084858D01*
X62595047Y31989620D01*
X61833142Y31989620D01*
X61642666Y32084858D01*
X61547428Y32275334D01*
X61547428Y32656286D01*
X61642666Y32846762D01*
X61833142Y32942000D01*
X62023619Y32942000D01*
X62214095Y31989620D01*
X62880761Y35322953D02*
X60880761Y35322953D01*
X62880761Y36275334D02*
X60880761Y36275334D01*
X62880761Y38751524D02*
X60880761Y38751524D01*
X60880761Y39227715D01*
X60976000Y39513429D01*
X61166476Y39703905D01*
X61356952Y39799143D01*
X61737904Y39894381D01*
X62023619Y39894381D01*
X62404571Y39799143D01*
X62595047Y39703905D01*
X62785523Y39513429D01*
X62880761Y39227715D01*
X62880761Y38751524D01*
X61547428Y41608667D02*
X62880761Y41608667D01*
X61547428Y40751524D02*
X62595047Y40751524D01*
X62785523Y40846762D01*
X62880761Y41037239D01*
X62880761Y41322953D01*
X62785523Y41513429D01*
X62690285Y41608667D01*
X62880761Y43418191D02*
X61833142Y43418191D01*
X61642666Y43322953D01*
X61547428Y43132477D01*
X61547428Y42751524D01*
X61642666Y42561048D01*
X62785523Y43418191D02*
X62880761Y43227715D01*
X62880761Y42751524D01*
X62785523Y42561048D01*
X62595047Y42465810D01*
X62404571Y42465810D01*
X62214095Y42561048D01*
X62118857Y42751524D01*
X62118857Y43227715D01*
X62023619Y43418191D01*
X62880761Y44656286D02*
X62785523Y44465810D01*
X62595047Y44370572D01*
X60880761Y44370572D01*
X60880761Y47799143D02*
X60880761Y47418191D01*
X60976000Y47227715D01*
X61071238Y47132477D01*
X61356952Y46942000D01*
X61737904Y46846762D01*
X62499809Y46846762D01*
X62690285Y46942000D01*
X62785523Y47037239D01*
X62880761Y47227715D01*
X62880761Y47608667D01*
X62785523Y47799143D01*
X62690285Y47894381D01*
X62499809Y47989620D01*
X62023619Y47989620D01*
X61833142Y47894381D01*
X61737904Y47799143D01*
X61642666Y47608667D01*
X61642666Y47227715D01*
X61737904Y47037239D01*
X61833142Y46942000D01*
X62023619Y46846762D01*
X60880761Y49799143D02*
X60880761Y48846762D01*
X61833142Y48751524D01*
X61737904Y48846762D01*
X61642666Y49037239D01*
X61642666Y49513429D01*
X61737904Y49703905D01*
X61833142Y49799143D01*
X62023619Y49894381D01*
X62499809Y49894381D01*
X62690285Y49799143D01*
X62785523Y49703905D01*
X62880761Y49513429D01*
X62880761Y49037239D01*
X62785523Y48846762D01*
X62690285Y48751524D01*
X61071238Y50656286D02*
X60976000Y50751524D01*
X60880761Y50942000D01*
X60880761Y51418191D01*
X60976000Y51608667D01*
X61071238Y51703905D01*
X61261714Y51799143D01*
X61452190Y51799143D01*
X61737904Y51703905D01*
X62880761Y50561048D01*
X62880761Y51799143D01*
X61071238Y52561048D02*
X60976000Y52656286D01*
X60880761Y52846762D01*
X60880761Y53322953D01*
X60976000Y53513429D01*
X61071238Y53608667D01*
X61261714Y53703905D01*
X61452190Y53703905D01*
X61737904Y53608667D01*
X62880761Y52465810D01*
X62880761Y53703905D01*
X60976000Y57132477D02*
X60880761Y56942000D01*
X60880761Y56656286D01*
X60976000Y56370572D01*
X61166476Y56180096D01*
X61356952Y56084858D01*
X61737904Y55989620D01*
X62023619Y55989620D01*
X62404571Y56084858D01*
X62595047Y56180096D01*
X62785523Y56370572D01*
X62880761Y56656286D01*
X62880761Y56846762D01*
X62785523Y57132477D01*
X62690285Y57227715D01*
X62023619Y57227715D01*
X62023619Y56846762D01*
X62880761Y58084858D02*
X60880761Y58084858D01*
X60880761Y58846762D01*
X60976000Y59037239D01*
X61071238Y59132477D01*
X61261714Y59227715D01*
X61547428Y59227715D01*
X61737904Y59132477D01*
X61833142Y59037239D01*
X61928380Y58846762D01*
X61928380Y58084858D01*
X62880761Y60084858D02*
X60880761Y60084858D01*
X60880761Y61418191D02*
X60880761Y61799143D01*
X60976000Y61989620D01*
X61166476Y62180096D01*
X61547428Y62275334D01*
X62214095Y62275334D01*
X62595047Y62180096D01*
X62785523Y61989620D01*
X62880761Y61799143D01*
X62880761Y61418191D01*
X62785523Y61227715D01*
X62595047Y61037239D01*
X62214095Y60942000D01*
X61547428Y60942000D01*
X61166476Y61037239D01*
X60976000Y61227715D01*
X60880761Y61418191D01*
D11*
X5274000Y80324000D02*
X5274000Y75124000D01*
X53594000Y80324000D02*
X5274000Y80324000D01*
X56194000Y75124000D02*
X5274000Y75124000D01*
X53594000Y80324000D02*
X53594000Y77724000D01*
X53594000Y77724000D02*
X56194000Y77724000D01*
X56194000Y77724000D02*
X56194000Y75124000D01*
X54864000Y80324000D02*
X56194000Y80324000D01*
X56194000Y80324000D02*
X56194000Y78994000D01*
X56194000Y60849000D02*
G75*
G02X56194000Y62849000I0J1000000D01*
G01*
X56194000Y62849000D02*
X56194000Y68309000D01*
X56194000Y68309000D02*
X5274000Y68309000D01*
X5274000Y68309000D02*
X5274000Y55389000D01*
X5274000Y55389000D02*
X56194000Y55389000D01*
X56194000Y55389000D02*
X56194000Y60849000D01*
X56067542Y80307295D02*
X56067542Y75107295D01*
X56127542Y80307295D02*
X56067542Y80307295D01*
X58727542Y75107295D02*
X56067542Y75107295D01*
X56127542Y80307295D02*
X56127542Y77707295D01*
X56127542Y77707295D02*
X58727542Y77707295D01*
X58727542Y77707295D02*
X58727542Y75107295D01*
X57397542Y80307295D02*
X58727542Y80307295D01*
X58727542Y80307295D02*
X58727542Y78977295D01*
X56194000Y36339000D02*
X56194000Y41799000D01*
X5274000Y36339000D02*
X56194000Y36339000D01*
X5274000Y49259000D02*
X5274000Y36339000D01*
X56194000Y49259000D02*
X5274000Y49259000D01*
X56194000Y43799000D02*
X56194000Y49259000D01*
X56194000Y41799000D02*
G75*
G02X56194000Y43799000I0J1000000D01*
G01*
D12*
X4601000Y18604000D02*
X4851000Y18604000D01*
X4601000Y26354000D02*
X4936000Y26354000D01*
X17751000Y26354000D02*
X17416000Y26354000D01*
X17751000Y18604000D02*
X17416000Y18604000D01*
X4601000Y18604000D02*
X4601000Y26354000D01*
X17751000Y18604000D02*
X17751000Y26354000D01*
X4851000Y18604000D02*
X4851000Y16804000D01*
X44064000Y20150000D02*
X44089000Y20150000D01*
X44064000Y24300000D02*
X44179000Y24300000D01*
X52964000Y24300000D02*
X52849000Y24300000D01*
X52964000Y20150000D02*
X52849000Y20150000D01*
X44064000Y20150000D02*
X44064000Y24300000D01*
X52964000Y20150000D02*
X52964000Y24300000D01*
X44089000Y20150000D02*
X44089000Y18775000D01*
X26944000Y20150000D02*
X26944000Y18775000D01*
X35819000Y20150000D02*
X35819000Y24300000D01*
X26919000Y20150000D02*
X26919000Y24300000D01*
X35819000Y20150000D02*
X35704000Y20150000D01*
X35819000Y24300000D02*
X35704000Y24300000D01*
X26919000Y24300000D02*
X27034000Y24300000D01*
X26919000Y20150000D02*
X26944000Y20150000D01*
D11*
X62527922Y10085000D02*
X63045078Y10085000D01*
X62527922Y11505000D02*
X63045078Y11505000D01*
X62527922Y13895000D02*
X63045078Y13895000D01*
X62527922Y15315000D02*
X63045078Y15315000D01*
X20014000Y22816078D02*
X20014000Y22298922D01*
X18594000Y22816078D02*
X18594000Y22298922D01*
X37644000Y22816078D02*
X37644000Y22298922D01*
X39064000Y22816078D02*
X39064000Y22298922D01*
X55574000Y22816078D02*
X55574000Y22298922D01*
X54154000Y22816078D02*
X54154000Y22298922D01*
X58600078Y51129000D02*
X58082922Y51129000D01*
X58600078Y49709000D02*
X58082922Y49709000D01*
X58600078Y68759000D02*
X58082922Y68759000D01*
X58600078Y70179000D02*
X58082922Y70179000D01*
X61282542Y77633373D02*
X61282542Y77116217D01*
X59862542Y77633373D02*
X59862542Y77116217D01*
D13*
G36*
X55102536Y16226573D02*
X55215118Y15629382D01*
X55630531Y15458135D01*
X56045945Y15286888D01*
X56544302Y15625767D01*
X56683869Y15720123D01*
X56810029Y15804370D01*
X56916896Y15874662D01*
X56998583Y15927153D01*
X57049202Y15957996D01*
X57062987Y15964647D01*
X57087821Y15947542D01*
X57140889Y15900256D01*
X57216241Y15828828D01*
X57307930Y15739300D01*
X57410008Y15637711D01*
X57516527Y15530102D01*
X57621537Y15422513D01*
X57719092Y15320985D01*
X57803243Y15231559D01*
X57868041Y15160274D01*
X57907538Y15113172D01*
X57916981Y15097408D01*
X57903392Y15068347D01*
X57865294Y15004679D01*
X57806694Y14912633D01*
X57731598Y14798436D01*
X57644009Y14668316D01*
X57593255Y14594099D01*
X57500746Y14458578D01*
X57418541Y14336284D01*
X57350631Y14233305D01*
X57301001Y14155727D01*
X57273641Y14109639D01*
X57269530Y14099953D01*
X57278850Y14072426D01*
X57304255Y14008272D01*
X57341912Y13916510D01*
X57387987Y13806161D01*
X57438647Y13686245D01*
X57490060Y13565781D01*
X57538390Y13453791D01*
X57579807Y13359293D01*
X57610475Y13291308D01*
X57626562Y13258857D01*
X57627512Y13257580D01*
X57652773Y13251383D01*
X57720046Y13237560D01*
X57822361Y13217468D01*
X57952742Y13192466D01*
X58104217Y13163914D01*
X58192594Y13147449D01*
X58354453Y13116631D01*
X58500650Y13087306D01*
X58623788Y13061079D01*
X58716470Y13039554D01*
X58771302Y13024335D01*
X58782324Y13019507D01*
X58793119Y12986826D01*
X58801830Y12913015D01*
X58808461Y12806708D01*
X58813019Y12676533D01*
X58815510Y12531124D01*
X58815939Y12379110D01*
X58814312Y12229123D01*
X58810636Y12089794D01*
X58804916Y11969755D01*
X58797158Y11877635D01*
X58787369Y11822068D01*
X58781497Y11810500D01*
X58746400Y11796635D01*
X58672029Y11776812D01*
X58568224Y11753361D01*
X58444820Y11728609D01*
X58401742Y11720602D01*
X58194048Y11682559D01*
X58029985Y11651921D01*
X57904131Y11627471D01*
X57811066Y11607991D01*
X57745368Y11592264D01*
X57701618Y11579072D01*
X57674393Y11567196D01*
X57658273Y11555420D01*
X57656018Y11553092D01*
X57633504Y11515600D01*
X57599159Y11442635D01*
X57556412Y11343133D01*
X57508693Y11226027D01*
X57459431Y11100252D01*
X57412056Y10974743D01*
X57369996Y10858435D01*
X57336681Y10760261D01*
X57315542Y10689157D01*
X57310006Y10654058D01*
X57310467Y10652828D01*
X57329224Y10624139D01*
X57371777Y10561015D01*
X57433654Y10470027D01*
X57510383Y10357745D01*
X57597492Y10230740D01*
X57622299Y10194647D01*
X57710753Y10063797D01*
X57788589Y9944409D01*
X57851567Y9843338D01*
X57895446Y9767441D01*
X57915986Y9723573D01*
X57916981Y9718183D01*
X57899723Y9689856D01*
X57852036Y9633739D01*
X57780051Y9555863D01*
X57689898Y9462260D01*
X57587706Y9358959D01*
X57479606Y9251994D01*
X57371729Y9147394D01*
X57270205Y9051191D01*
X57181163Y8969416D01*
X57110734Y8908100D01*
X57065048Y8873274D01*
X57052410Y8867588D01*
X57022992Y8880980D01*
X56962762Y8917101D01*
X56881530Y8969864D01*
X56819031Y9012333D01*
X56705786Y9090260D01*
X56571675Y9182016D01*
X56437156Y9273625D01*
X56364834Y9322654D01*
X56120039Y9488230D01*
X55914551Y9377125D01*
X55820937Y9328452D01*
X55741331Y9290619D01*
X55687468Y9269042D01*
X55673758Y9266039D01*
X55657271Y9288207D01*
X55624746Y9350851D01*
X55578609Y9448191D01*
X55521291Y9574451D01*
X55455217Y9723850D01*
X55382816Y9890612D01*
X55306517Y10068958D01*
X55228747Y10253109D01*
X55151935Y10437288D01*
X55078507Y10615715D01*
X55010893Y10782613D01*
X54951521Y10932203D01*
X54902817Y11058707D01*
X54867211Y11156346D01*
X54847131Y11219343D01*
X54843901Y11240979D01*
X54869497Y11268576D01*
X54925539Y11313375D01*
X55000312Y11366066D01*
X55006588Y11370235D01*
X55199846Y11524931D01*
X55355675Y11705409D01*
X55472725Y11905898D01*
X55549646Y12120626D01*
X55585087Y12343823D01*
X55577698Y12569719D01*
X55526128Y12792541D01*
X55429027Y13006521D01*
X55400459Y13053336D01*
X55251869Y13242382D01*
X55076328Y13394188D01*
X54879911Y13507966D01*
X54668694Y13582925D01*
X54448754Y13618278D01*
X54226164Y13613233D01*
X54007002Y13567001D01*
X53797343Y13478794D01*
X53603262Y13347821D01*
X53543227Y13294663D01*
X53390436Y13128261D01*
X53279098Y12953088D01*
X53202724Y12756734D01*
X53160188Y12562283D01*
X53149687Y12343658D01*
X53184701Y12123948D01*
X53261674Y11910580D01*
X53377048Y11710978D01*
X53527266Y11532571D01*
X53708774Y11382783D01*
X53732628Y11366994D01*
X53808202Y11315288D01*
X53865652Y11270488D01*
X53893118Y11241883D01*
X53893518Y11240979D01*
X53887621Y11210036D01*
X53864246Y11139809D01*
X53825822Y11036075D01*
X53774778Y10904610D01*
X53713543Y10751193D01*
X53644545Y10581599D01*
X53570214Y10401607D01*
X53492979Y10216992D01*
X53415269Y10033532D01*
X53339512Y9857004D01*
X53268138Y9693186D01*
X53203575Y9547853D01*
X53148253Y9426783D01*
X53104601Y9335753D01*
X53075047Y9280540D01*
X53063145Y9266039D01*
X53026778Y9277331D01*
X52958731Y9307615D01*
X52870737Y9351480D01*
X52822351Y9377125D01*
X52616864Y9488230D01*
X52372069Y9322654D01*
X52247107Y9237830D01*
X52110296Y9144484D01*
X51982089Y9056592D01*
X51917872Y9012333D01*
X51827552Y8951682D01*
X51751072Y8903619D01*
X51698408Y8874230D01*
X51681303Y8868018D01*
X51656406Y8884777D01*
X51601306Y8931564D01*
X51521344Y9003520D01*
X51421861Y9095788D01*
X51308201Y9203510D01*
X51236316Y9272674D01*
X51110552Y9396243D01*
X51001864Y9506766D01*
X50914646Y9599515D01*
X50853290Y9669763D01*
X50822192Y9712780D01*
X50819209Y9721510D01*
X50833054Y9754716D01*
X50871313Y9821858D01*
X50929742Y9916137D01*
X51004098Y10030755D01*
X51090136Y10158917D01*
X51114603Y10194647D01*
X51203755Y10324511D01*
X51283739Y10441431D01*
X51350081Y10538838D01*
X51398312Y10610161D01*
X51423958Y10648830D01*
X51426436Y10652828D01*
X51422730Y10683645D01*
X51403062Y10751401D01*
X51370861Y10847161D01*
X51329556Y10961991D01*
X51282576Y11086956D01*
X51233350Y11213121D01*
X51185309Y11331552D01*
X51141882Y11433315D01*
X51106497Y11509474D01*
X51082585Y11551096D01*
X51080885Y11553092D01*
X51066263Y11564987D01*
X51041566Y11576750D01*
X51001373Y11589599D01*
X50940264Y11604751D01*
X50852818Y11623424D01*
X50733613Y11646835D01*
X50577228Y11676203D01*
X50378244Y11712745D01*
X50335161Y11720602D01*
X50207471Y11745273D01*
X50096154Y11769407D01*
X50011046Y11790676D01*
X49961984Y11806752D01*
X49955406Y11810500D01*
X49944565Y11843727D01*
X49935754Y11917979D01*
X49928977Y12024624D01*
X49924241Y12155033D01*
X49921551Y12300573D01*
X49920914Y12452614D01*
X49922335Y12602524D01*
X49925821Y12741672D01*
X49931377Y12861428D01*
X49939009Y12953159D01*
X49948723Y13008234D01*
X49954579Y13019507D01*
X49987181Y13030877D01*
X50061419Y13049376D01*
X50169897Y13073398D01*
X50305218Y13101338D01*
X50459986Y13131592D01*
X50544308Y13147449D01*
X50704297Y13177356D01*
X50846968Y13204450D01*
X50965349Y13227369D01*
X51052466Y13244757D01*
X51101346Y13255253D01*
X51109391Y13257580D01*
X51122988Y13283814D01*
X51151730Y13347005D01*
X51191786Y13438123D01*
X51239325Y13548143D01*
X51290516Y13668035D01*
X51341527Y13788773D01*
X51388527Y13901329D01*
X51427685Y13996674D01*
X51455170Y14065783D01*
X51467150Y14099626D01*
X51467373Y14101105D01*
X51453792Y14127803D01*
X51415716Y14189240D01*
X51357148Y14279311D01*
X51282089Y14391910D01*
X51194541Y14520930D01*
X51143648Y14595039D01*
X51050910Y14730923D01*
X50968542Y14854291D01*
X50900562Y14958903D01*
X50850989Y15038517D01*
X50823843Y15086893D01*
X50819922Y15097738D01*
X50836776Y15122980D01*
X50883369Y15176876D01*
X50953749Y15253387D01*
X51041966Y15346477D01*
X51142066Y15450105D01*
X51248099Y15558236D01*
X51354112Y15664830D01*
X51454153Y15763850D01*
X51542271Y15849258D01*
X51612514Y15915015D01*
X51658929Y15955084D01*
X51674457Y15964647D01*
X51699740Y15951200D01*
X51760212Y15913425D01*
X51849993Y15855165D01*
X51963204Y15780266D01*
X52093964Y15692575D01*
X52192600Y15625767D01*
X52690958Y15286888D01*
X53106371Y15458135D01*
X53521785Y15629382D01*
X53634367Y16226573D01*
X53746950Y16823765D01*
X54989953Y16823765D01*
X55102536Y16226573D01*
X55102536Y16226573D01*
G37*
X55102536Y16226573D02*
X55215118Y15629382D01*
X55630531Y15458135D01*
X56045945Y15286888D01*
X56544302Y15625767D01*
X56683869Y15720123D01*
X56810029Y15804370D01*
X56916896Y15874662D01*
X56998583Y15927153D01*
X57049202Y15957996D01*
X57062987Y15964647D01*
X57087821Y15947542D01*
X57140889Y15900256D01*
X57216241Y15828828D01*
X57307930Y15739300D01*
X57410008Y15637711D01*
X57516527Y15530102D01*
X57621537Y15422513D01*
X57719092Y15320985D01*
X57803243Y15231559D01*
X57868041Y15160274D01*
X57907538Y15113172D01*
X57916981Y15097408D01*
X57903392Y15068347D01*
X57865294Y15004679D01*
X57806694Y14912633D01*
X57731598Y14798436D01*
X57644009Y14668316D01*
X57593255Y14594099D01*
X57500746Y14458578D01*
X57418541Y14336284D01*
X57350631Y14233305D01*
X57301001Y14155727D01*
X57273641Y14109639D01*
X57269530Y14099953D01*
X57278850Y14072426D01*
X57304255Y14008272D01*
X57341912Y13916510D01*
X57387987Y13806161D01*
X57438647Y13686245D01*
X57490060Y13565781D01*
X57538390Y13453791D01*
X57579807Y13359293D01*
X57610475Y13291308D01*
X57626562Y13258857D01*
X57627512Y13257580D01*
X57652773Y13251383D01*
X57720046Y13237560D01*
X57822361Y13217468D01*
X57952742Y13192466D01*
X58104217Y13163914D01*
X58192594Y13147449D01*
X58354453Y13116631D01*
X58500650Y13087306D01*
X58623788Y13061079D01*
X58716470Y13039554D01*
X58771302Y13024335D01*
X58782324Y13019507D01*
X58793119Y12986826D01*
X58801830Y12913015D01*
X58808461Y12806708D01*
X58813019Y12676533D01*
X58815510Y12531124D01*
X58815939Y12379110D01*
X58814312Y12229123D01*
X58810636Y12089794D01*
X58804916Y11969755D01*
X58797158Y11877635D01*
X58787369Y11822068D01*
X58781497Y11810500D01*
X58746400Y11796635D01*
X58672029Y11776812D01*
X58568224Y11753361D01*
X58444820Y11728609D01*
X58401742Y11720602D01*
X58194048Y11682559D01*
X58029985Y11651921D01*
X57904131Y11627471D01*
X57811066Y11607991D01*
X57745368Y11592264D01*
X57701618Y11579072D01*
X57674393Y11567196D01*
X57658273Y11555420D01*
X57656018Y11553092D01*
X57633504Y11515600D01*
X57599159Y11442635D01*
X57556412Y11343133D01*
X57508693Y11226027D01*
X57459431Y11100252D01*
X57412056Y10974743D01*
X57369996Y10858435D01*
X57336681Y10760261D01*
X57315542Y10689157D01*
X57310006Y10654058D01*
X57310467Y10652828D01*
X57329224Y10624139D01*
X57371777Y10561015D01*
X57433654Y10470027D01*
X57510383Y10357745D01*
X57597492Y10230740D01*
X57622299Y10194647D01*
X57710753Y10063797D01*
X57788589Y9944409D01*
X57851567Y9843338D01*
X57895446Y9767441D01*
X57915986Y9723573D01*
X57916981Y9718183D01*
X57899723Y9689856D01*
X57852036Y9633739D01*
X57780051Y9555863D01*
X57689898Y9462260D01*
X57587706Y9358959D01*
X57479606Y9251994D01*
X57371729Y9147394D01*
X57270205Y9051191D01*
X57181163Y8969416D01*
X57110734Y8908100D01*
X57065048Y8873274D01*
X57052410Y8867588D01*
X57022992Y8880980D01*
X56962762Y8917101D01*
X56881530Y8969864D01*
X56819031Y9012333D01*
X56705786Y9090260D01*
X56571675Y9182016D01*
X56437156Y9273625D01*
X56364834Y9322654D01*
X56120039Y9488230D01*
X55914551Y9377125D01*
X55820937Y9328452D01*
X55741331Y9290619D01*
X55687468Y9269042D01*
X55673758Y9266039D01*
X55657271Y9288207D01*
X55624746Y9350851D01*
X55578609Y9448191D01*
X55521291Y9574451D01*
X55455217Y9723850D01*
X55382816Y9890612D01*
X55306517Y10068958D01*
X55228747Y10253109D01*
X55151935Y10437288D01*
X55078507Y10615715D01*
X55010893Y10782613D01*
X54951521Y10932203D01*
X54902817Y11058707D01*
X54867211Y11156346D01*
X54847131Y11219343D01*
X54843901Y11240979D01*
X54869497Y11268576D01*
X54925539Y11313375D01*
X55000312Y11366066D01*
X55006588Y11370235D01*
X55199846Y11524931D01*
X55355675Y11705409D01*
X55472725Y11905898D01*
X55549646Y12120626D01*
X55585087Y12343823D01*
X55577698Y12569719D01*
X55526128Y12792541D01*
X55429027Y13006521D01*
X55400459Y13053336D01*
X55251869Y13242382D01*
X55076328Y13394188D01*
X54879911Y13507966D01*
X54668694Y13582925D01*
X54448754Y13618278D01*
X54226164Y13613233D01*
X54007002Y13567001D01*
X53797343Y13478794D01*
X53603262Y13347821D01*
X53543227Y13294663D01*
X53390436Y13128261D01*
X53279098Y12953088D01*
X53202724Y12756734D01*
X53160188Y12562283D01*
X53149687Y12343658D01*
X53184701Y12123948D01*
X53261674Y11910580D01*
X53377048Y11710978D01*
X53527266Y11532571D01*
X53708774Y11382783D01*
X53732628Y11366994D01*
X53808202Y11315288D01*
X53865652Y11270488D01*
X53893118Y11241883D01*
X53893518Y11240979D01*
X53887621Y11210036D01*
X53864246Y11139809D01*
X53825822Y11036075D01*
X53774778Y10904610D01*
X53713543Y10751193D01*
X53644545Y10581599D01*
X53570214Y10401607D01*
X53492979Y10216992D01*
X53415269Y10033532D01*
X53339512Y9857004D01*
X53268138Y9693186D01*
X53203575Y9547853D01*
X53148253Y9426783D01*
X53104601Y9335753D01*
X53075047Y9280540D01*
X53063145Y9266039D01*
X53026778Y9277331D01*
X52958731Y9307615D01*
X52870737Y9351480D01*
X52822351Y9377125D01*
X52616864Y9488230D01*
X52372069Y9322654D01*
X52247107Y9237830D01*
X52110296Y9144484D01*
X51982089Y9056592D01*
X51917872Y9012333D01*
X51827552Y8951682D01*
X51751072Y8903619D01*
X51698408Y8874230D01*
X51681303Y8868018D01*
X51656406Y8884777D01*
X51601306Y8931564D01*
X51521344Y9003520D01*
X51421861Y9095788D01*
X51308201Y9203510D01*
X51236316Y9272674D01*
X51110552Y9396243D01*
X51001864Y9506766D01*
X50914646Y9599515D01*
X50853290Y9669763D01*
X50822192Y9712780D01*
X50819209Y9721510D01*
X50833054Y9754716D01*
X50871313Y9821858D01*
X50929742Y9916137D01*
X51004098Y10030755D01*
X51090136Y10158917D01*
X51114603Y10194647D01*
X51203755Y10324511D01*
X51283739Y10441431D01*
X51350081Y10538838D01*
X51398312Y10610161D01*
X51423958Y10648830D01*
X51426436Y10652828D01*
X51422730Y10683645D01*
X51403062Y10751401D01*
X51370861Y10847161D01*
X51329556Y10961991D01*
X51282576Y11086956D01*
X51233350Y11213121D01*
X51185309Y11331552D01*
X51141882Y11433315D01*
X51106497Y11509474D01*
X51082585Y11551096D01*
X51080885Y11553092D01*
X51066263Y11564987D01*
X51041566Y11576750D01*
X51001373Y11589599D01*
X50940264Y11604751D01*
X50852818Y11623424D01*
X50733613Y11646835D01*
X50577228Y11676203D01*
X50378244Y11712745D01*
X50335161Y11720602D01*
X50207471Y11745273D01*
X50096154Y11769407D01*
X50011046Y11790676D01*
X49961984Y11806752D01*
X49955406Y11810500D01*
X49944565Y11843727D01*
X49935754Y11917979D01*
X49928977Y12024624D01*
X49924241Y12155033D01*
X49921551Y12300573D01*
X49920914Y12452614D01*
X49922335Y12602524D01*
X49925821Y12741672D01*
X49931377Y12861428D01*
X49939009Y12953159D01*
X49948723Y13008234D01*
X49954579Y13019507D01*
X49987181Y13030877D01*
X50061419Y13049376D01*
X50169897Y13073398D01*
X50305218Y13101338D01*
X50459986Y13131592D01*
X50544308Y13147449D01*
X50704297Y13177356D01*
X50846968Y13204450D01*
X50965349Y13227369D01*
X51052466Y13244757D01*
X51101346Y13255253D01*
X51109391Y13257580D01*
X51122988Y13283814D01*
X51151730Y13347005D01*
X51191786Y13438123D01*
X51239325Y13548143D01*
X51290516Y13668035D01*
X51341527Y13788773D01*
X51388527Y13901329D01*
X51427685Y13996674D01*
X51455170Y14065783D01*
X51467150Y14099626D01*
X51467373Y14101105D01*
X51453792Y14127803D01*
X51415716Y14189240D01*
X51357148Y14279311D01*
X51282089Y14391910D01*
X51194541Y14520930D01*
X51143648Y14595039D01*
X51050910Y14730923D01*
X50968542Y14854291D01*
X50900562Y14958903D01*
X50850989Y15038517D01*
X50823843Y15086893D01*
X50819922Y15097738D01*
X50836776Y15122980D01*
X50883369Y15176876D01*
X50953749Y15253387D01*
X51041966Y15346477D01*
X51142066Y15450105D01*
X51248099Y15558236D01*
X51354112Y15664830D01*
X51454153Y15763850D01*
X51542271Y15849258D01*
X51612514Y15915015D01*
X51658929Y15955084D01*
X51674457Y15964647D01*
X51699740Y15951200D01*
X51760212Y15913425D01*
X51849993Y15855165D01*
X51963204Y15780266D01*
X52093964Y15692575D01*
X52192600Y15625767D01*
X52690958Y15286888D01*
X53106371Y15458135D01*
X53521785Y15629382D01*
X53634367Y16226573D01*
X53746950Y16823765D01*
X54989953Y16823765D01*
X55102536Y16226573D01*
D11*
X4429000Y38064000D02*
X2429000Y38064000D01*
X2429000Y38064000D02*
X2429000Y34164000D01*
X4429000Y38064000D02*
X4429000Y34164000D01*
X4556000Y54828000D02*
X4556000Y50928000D01*
X2556000Y54828000D02*
X2556000Y50928000D01*
X4556000Y54828000D02*
X2556000Y54828000D01*
D12*
X54443380Y73453667D02*
X55157666Y73453667D01*
X55300523Y73406048D01*
X55395761Y73310810D01*
X55443380Y73167953D01*
X55443380Y73072715D01*
X55443380Y74453667D02*
X55443380Y73882239D01*
X55443380Y74167953D02*
X54443380Y74167953D01*
X54586238Y74072715D01*
X54681476Y73977477D01*
X54729095Y73882239D01*
X56646380Y61087096D02*
X57455904Y61087096D01*
X57551142Y61134715D01*
X57598761Y61182334D01*
X57646380Y61277572D01*
X57646380Y61468048D01*
X57598761Y61563286D01*
X57551142Y61610905D01*
X57455904Y61658524D01*
X56646380Y61658524D01*
X56646380Y62610905D02*
X56646380Y62134715D01*
X57122571Y62087096D01*
X57074952Y62134715D01*
X57027333Y62229953D01*
X57027333Y62468048D01*
X57074952Y62563286D01*
X57122571Y62610905D01*
X57217809Y62658524D01*
X57455904Y62658524D01*
X57551142Y62610905D01*
X57598761Y62563286D01*
X57646380Y62468048D01*
X57646380Y62229953D01*
X57598761Y62134715D01*
X57551142Y62087096D01*
X56983380Y73453667D02*
X57697666Y73453667D01*
X57840523Y73406048D01*
X57935761Y73310810D01*
X57983380Y73167953D01*
X57983380Y73072715D01*
X57078619Y73882239D02*
X57031000Y73929858D01*
X56983380Y74025096D01*
X56983380Y74263191D01*
X57031000Y74358429D01*
X57078619Y74406048D01*
X57173857Y74453667D01*
X57269095Y74453667D01*
X57411952Y74406048D01*
X57983380Y73834620D01*
X57983380Y74453667D01*
X56646380Y42037096D02*
X57455904Y42037096D01*
X57551142Y42084715D01*
X57598761Y42132334D01*
X57646380Y42227572D01*
X57646380Y42418048D01*
X57598761Y42513286D01*
X57551142Y42560905D01*
X57455904Y42608524D01*
X56646380Y42608524D01*
X56979714Y43513286D02*
X57646380Y43513286D01*
X56598761Y43275191D02*
X57313047Y43037096D01*
X57313047Y43656143D01*
X3128380Y21717096D02*
X3937904Y21717096D01*
X4033142Y21764715D01*
X4080761Y21812334D01*
X4128380Y21907572D01*
X4128380Y22098048D01*
X4080761Y22193286D01*
X4033142Y22240905D01*
X3937904Y22288524D01*
X3128380Y22288524D01*
X4128380Y23288524D02*
X4128380Y22717096D01*
X4128380Y23002810D02*
X3128380Y23002810D01*
X3271238Y22907572D01*
X3366476Y22812334D01*
X3414095Y22717096D01*
X42591380Y21463096D02*
X43400904Y21463096D01*
X43496142Y21510715D01*
X43543761Y21558334D01*
X43591380Y21653572D01*
X43591380Y21844048D01*
X43543761Y21939286D01*
X43496142Y21986905D01*
X43400904Y22034524D01*
X42591380Y22034524D01*
X42686619Y22463096D02*
X42639000Y22510715D01*
X42591380Y22605953D01*
X42591380Y22844048D01*
X42639000Y22939286D01*
X42686619Y22986905D01*
X42781857Y23034524D01*
X42877095Y23034524D01*
X43019952Y22986905D01*
X43591380Y22415477D01*
X43591380Y23034524D01*
X25446380Y21463096D02*
X26255904Y21463096D01*
X26351142Y21510715D01*
X26398761Y21558334D01*
X26446380Y21653572D01*
X26446380Y21844048D01*
X26398761Y21939286D01*
X26351142Y21986905D01*
X26255904Y22034524D01*
X25446380Y22034524D01*
X25446380Y22415477D02*
X25446380Y23034524D01*
X25827333Y22701191D01*
X25827333Y22844048D01*
X25874952Y22939286D01*
X25922571Y22986905D01*
X26017809Y23034524D01*
X26255904Y23034524D01*
X26351142Y22986905D01*
X26398761Y22939286D01*
X26446380Y22844048D01*
X26446380Y22558334D01*
X26398761Y22463096D01*
X26351142Y22415477D01*
X62619833Y12087858D02*
X62572214Y12040239D01*
X62429357Y11992620D01*
X62334119Y11992620D01*
X62191261Y12040239D01*
X62096023Y12135477D01*
X62048404Y12230715D01*
X62000785Y12421191D01*
X62000785Y12564048D01*
X62048404Y12754524D01*
X62096023Y12849762D01*
X62191261Y12945000D01*
X62334119Y12992620D01*
X62429357Y12992620D01*
X62572214Y12945000D01*
X62619833Y12897381D01*
X63572214Y11992620D02*
X63000785Y11992620D01*
X63286500Y11992620D02*
X63286500Y12992620D01*
X63191261Y12849762D01*
X63096023Y12754524D01*
X63000785Y12706905D01*
X62619833Y15897858D02*
X62572214Y15850239D01*
X62429357Y15802620D01*
X62334119Y15802620D01*
X62191261Y15850239D01*
X62096023Y15945477D01*
X62048404Y16040715D01*
X62000785Y16231191D01*
X62000785Y16374048D01*
X62048404Y16564524D01*
X62096023Y16659762D01*
X62191261Y16755000D01*
X62334119Y16802620D01*
X62429357Y16802620D01*
X62572214Y16755000D01*
X62619833Y16707381D01*
X63000785Y16707381D02*
X63048404Y16755000D01*
X63143642Y16802620D01*
X63381738Y16802620D01*
X63476976Y16755000D01*
X63524595Y16707381D01*
X63572214Y16612143D01*
X63572214Y16516905D01*
X63524595Y16374048D01*
X62953166Y15802620D01*
X63572214Y15802620D01*
X21311142Y22390834D02*
X21358761Y22343215D01*
X21406380Y22200358D01*
X21406380Y22105120D01*
X21358761Y21962262D01*
X21263523Y21867024D01*
X21168285Y21819405D01*
X20977809Y21771786D01*
X20834952Y21771786D01*
X20644476Y21819405D01*
X20549238Y21867024D01*
X20454000Y21962262D01*
X20406380Y22105120D01*
X20406380Y22200358D01*
X20454000Y22343215D01*
X20501619Y22390834D01*
X20406380Y22724167D02*
X20406380Y23343215D01*
X20787333Y23009881D01*
X20787333Y23152739D01*
X20834952Y23247977D01*
X20882571Y23295596D01*
X20977809Y23343215D01*
X21215904Y23343215D01*
X21311142Y23295596D01*
X21358761Y23247977D01*
X21406380Y23152739D01*
X21406380Y22867024D01*
X21358761Y22771786D01*
X21311142Y22724167D01*
X40361142Y22390834D02*
X40408761Y22343215D01*
X40456380Y22200358D01*
X40456380Y22105120D01*
X40408761Y21962262D01*
X40313523Y21867024D01*
X40218285Y21819405D01*
X40027809Y21771786D01*
X39884952Y21771786D01*
X39694476Y21819405D01*
X39599238Y21867024D01*
X39504000Y21962262D01*
X39456380Y22105120D01*
X39456380Y22200358D01*
X39504000Y22343215D01*
X39551619Y22390834D01*
X39789714Y23247977D02*
X40456380Y23247977D01*
X39408761Y23009881D02*
X40123047Y22771786D01*
X40123047Y23390834D01*
X56871142Y22390834D02*
X56918761Y22343215D01*
X56966380Y22200358D01*
X56966380Y22105120D01*
X56918761Y21962262D01*
X56823523Y21867024D01*
X56728285Y21819405D01*
X56537809Y21771786D01*
X56394952Y21771786D01*
X56204476Y21819405D01*
X56109238Y21867024D01*
X56014000Y21962262D01*
X55966380Y22105120D01*
X55966380Y22200358D01*
X56014000Y22343215D01*
X56061619Y22390834D01*
X55966380Y23295596D02*
X55966380Y22819405D01*
X56442571Y22771786D01*
X56394952Y22819405D01*
X56347333Y22914643D01*
X56347333Y23152739D01*
X56394952Y23247977D01*
X56442571Y23295596D01*
X56537809Y23343215D01*
X56775904Y23343215D01*
X56871142Y23295596D01*
X56918761Y23247977D01*
X56966380Y23152739D01*
X56966380Y22914643D01*
X56918761Y22819405D01*
X56871142Y22771786D01*
X58174833Y48411858D02*
X58127214Y48364239D01*
X57984357Y48316620D01*
X57889119Y48316620D01*
X57746261Y48364239D01*
X57651023Y48459477D01*
X57603404Y48554715D01*
X57555785Y48745191D01*
X57555785Y48888048D01*
X57603404Y49078524D01*
X57651023Y49173762D01*
X57746261Y49269000D01*
X57889119Y49316620D01*
X57984357Y49316620D01*
X58127214Y49269000D01*
X58174833Y49221381D01*
X59031976Y49316620D02*
X58841500Y49316620D01*
X58746261Y49269000D01*
X58698642Y49221381D01*
X58603404Y49078524D01*
X58555785Y48888048D01*
X58555785Y48507096D01*
X58603404Y48411858D01*
X58651023Y48364239D01*
X58746261Y48316620D01*
X58936738Y48316620D01*
X59031976Y48364239D01*
X59079595Y48411858D01*
X59127214Y48507096D01*
X59127214Y48745191D01*
X59079595Y48840429D01*
X59031976Y48888048D01*
X58936738Y48935667D01*
X58746261Y48935667D01*
X58651023Y48888048D01*
X58603404Y48840429D01*
X58555785Y48745191D01*
X58174833Y67461858D02*
X58127214Y67414239D01*
X57984357Y67366620D01*
X57889119Y67366620D01*
X57746261Y67414239D01*
X57651023Y67509477D01*
X57603404Y67604715D01*
X57555785Y67795191D01*
X57555785Y67938048D01*
X57603404Y68128524D01*
X57651023Y68223762D01*
X57746261Y68319000D01*
X57889119Y68366620D01*
X57984357Y68366620D01*
X58127214Y68319000D01*
X58174833Y68271381D01*
X58508166Y68366620D02*
X59174833Y68366620D01*
X58746261Y67366620D01*
X62579684Y77208129D02*
X62627303Y77160510D01*
X62674922Y77017653D01*
X62674922Y76922415D01*
X62627303Y76779557D01*
X62532065Y76684319D01*
X62436827Y76636700D01*
X62246351Y76589081D01*
X62103494Y76589081D01*
X61913018Y76636700D01*
X61817780Y76684319D01*
X61722542Y76779557D01*
X61674922Y76922415D01*
X61674922Y77017653D01*
X61722542Y77160510D01*
X61770161Y77208129D01*
X62103494Y77779557D02*
X62055875Y77684319D01*
X62008256Y77636700D01*
X61913018Y77589081D01*
X61865399Y77589081D01*
X61770161Y77636700D01*
X61722542Y77684319D01*
X61674922Y77779557D01*
X61674922Y77970034D01*
X61722542Y78065272D01*
X61770161Y78112891D01*
X61865399Y78160510D01*
X61913018Y78160510D01*
X62008256Y78112891D01*
X62055875Y78065272D01*
X62103494Y77970034D01*
X62103494Y77779557D01*
X62151113Y77684319D01*
X62198732Y77636700D01*
X62293970Y77589081D01*
X62484446Y77589081D01*
X62579684Y77636700D01*
X62627303Y77684319D01*
X62674922Y77779557D01*
X62674922Y77970034D01*
X62627303Y78065272D01*
X62579684Y78112891D01*
X62484446Y78160510D01*
X62293970Y78160510D01*
X62198732Y78112891D01*
X62151113Y78065272D01*
X62103494Y77970034D01*
X3881380Y38631905D02*
X2881380Y38631905D01*
X2881380Y38870000D01*
X2929000Y39012858D01*
X3024238Y39108096D01*
X3119476Y39155715D01*
X3309952Y39203334D01*
X3452809Y39203334D01*
X3643285Y39155715D01*
X3738523Y39108096D01*
X3833761Y39012858D01*
X3881380Y38870000D01*
X3881380Y38631905D01*
X3881380Y40155715D02*
X3881380Y39584286D01*
X3881380Y39870000D02*
X2881380Y39870000D01*
X3024238Y39774762D01*
X3119476Y39679524D01*
X3167095Y39584286D01*
X4135380Y55268905D02*
X3135380Y55268905D01*
X3135380Y55507000D01*
X3183000Y55649858D01*
X3278238Y55745096D01*
X3373476Y55792715D01*
X3563952Y55840334D01*
X3706809Y55840334D01*
X3897285Y55792715D01*
X3992523Y55745096D01*
X4087761Y55649858D01*
X4135380Y55507000D01*
X4135380Y55268905D01*
X3230619Y56221286D02*
X3183000Y56268905D01*
X3135380Y56364143D01*
X3135380Y56602239D01*
X3183000Y56697477D01*
X3230619Y56745096D01*
X3325857Y56792715D01*
X3421095Y56792715D01*
X3563952Y56745096D01*
X4135380Y56173667D01*
X4135380Y56792715D01*
M02*
