%TF.GenerationSoftware,KiCad,Pcbnew,(5.0.0)*%
%TF.CreationDate,2018-09-17T10:05:30-07:00*%
%TF.ProjectId,6522,363532322E6B696361645F7063620000,0.1*%
%TF.SameCoordinates,PX6b302f8PY7fe6300*%
%TF.FileFunction,Legend,Bot*%
%TF.FilePolarity,Positive*%
%FSLAX46Y46*%
G04 Gerber Fmt 4.6, Leading zero omitted, Abs format (unit mm)*
G04 Created by KiCad (PCBNEW (5.0.0)) date 09/17/18 10:05:30*
%MOMM*%
%LPD*%
G01*
G04 APERTURE LIST*
%ADD10C,0.300000*%
%ADD11C,0.010000*%
G04 APERTURE END LIST*
D10*
X51289714Y31198429D02*
X51289714Y32698429D01*
X50646857Y31198429D02*
X50646857Y31984143D01*
X50718285Y32127000D01*
X50861142Y32198429D01*
X51075428Y32198429D01*
X51218285Y32127000D01*
X51289714Y32055572D01*
X50146857Y32198429D02*
X49575428Y32198429D01*
X49932571Y32698429D02*
X49932571Y31412715D01*
X49861142Y31269858D01*
X49718285Y31198429D01*
X49575428Y31198429D01*
X49289714Y32198429D02*
X48718285Y32198429D01*
X49075428Y32698429D02*
X49075428Y31412715D01*
X49004000Y31269858D01*
X48861142Y31198429D01*
X48718285Y31198429D01*
X48218285Y32198429D02*
X48218285Y30698429D01*
X48218285Y32127000D02*
X48075428Y32198429D01*
X47789714Y32198429D01*
X47646857Y32127000D01*
X47575428Y32055572D01*
X47504000Y31912715D01*
X47504000Y31484143D01*
X47575428Y31341286D01*
X47646857Y31269858D01*
X47789714Y31198429D01*
X48075428Y31198429D01*
X48218285Y31269858D01*
X46932571Y31269858D02*
X46789714Y31198429D01*
X46504000Y31198429D01*
X46361142Y31269858D01*
X46289714Y31412715D01*
X46289714Y31484143D01*
X46361142Y31627000D01*
X46504000Y31698429D01*
X46718285Y31698429D01*
X46861142Y31769858D01*
X46932571Y31912715D01*
X46932571Y31984143D01*
X46861142Y32127000D01*
X46718285Y32198429D01*
X46504000Y32198429D01*
X46361142Y32127000D01*
X45646857Y31341286D02*
X45575428Y31269858D01*
X45646857Y31198429D01*
X45718285Y31269858D01*
X45646857Y31341286D01*
X45646857Y31198429D01*
X45646857Y32127000D02*
X45575428Y32055572D01*
X45646857Y31984143D01*
X45718285Y32055572D01*
X45646857Y32127000D01*
X45646857Y31984143D01*
X43861142Y32769858D02*
X45146857Y30841286D01*
X42289714Y32769858D02*
X43575428Y30841286D01*
X41146857Y32198429D02*
X41146857Y30984143D01*
X41218285Y30841286D01*
X41289714Y30769858D01*
X41432571Y30698429D01*
X41646857Y30698429D01*
X41789714Y30769858D01*
X41146857Y31269858D02*
X41289714Y31198429D01*
X41575428Y31198429D01*
X41718285Y31269858D01*
X41789714Y31341286D01*
X41861142Y31484143D01*
X41861142Y31912715D01*
X41789714Y32055572D01*
X41718285Y32127000D01*
X41575428Y32198429D01*
X41289714Y32198429D01*
X41146857Y32127000D01*
X40432571Y31198429D02*
X40432571Y32198429D01*
X40432571Y32698429D02*
X40504000Y32627000D01*
X40432571Y32555572D01*
X40361142Y32627000D01*
X40432571Y32698429D01*
X40432571Y32555572D01*
X39932571Y32198429D02*
X39361142Y32198429D01*
X39718285Y32698429D02*
X39718285Y31412715D01*
X39646857Y31269858D01*
X39504000Y31198429D01*
X39361142Y31198429D01*
X38646857Y31198429D02*
X38789714Y31269858D01*
X38861142Y31412715D01*
X38861142Y32698429D01*
X37432571Y31198429D02*
X37432571Y31984143D01*
X37504000Y32127000D01*
X37646857Y32198429D01*
X37932571Y32198429D01*
X38075428Y32127000D01*
X37432571Y31269858D02*
X37575428Y31198429D01*
X37932571Y31198429D01*
X38075428Y31269858D01*
X38146857Y31412715D01*
X38146857Y31555572D01*
X38075428Y31698429D01*
X37932571Y31769858D01*
X37575428Y31769858D01*
X37432571Y31841286D01*
X36718285Y31198429D02*
X36718285Y32698429D01*
X36718285Y32127000D02*
X36575428Y32198429D01*
X36289714Y32198429D01*
X36146857Y32127000D01*
X36075428Y32055572D01*
X36004000Y31912715D01*
X36004000Y31484143D01*
X36075428Y31341286D01*
X36146857Y31269858D01*
X36289714Y31198429D01*
X36575428Y31198429D01*
X36718285Y31269858D01*
X35361142Y31341286D02*
X35289714Y31269858D01*
X35361142Y31198429D01*
X35432571Y31269858D01*
X35361142Y31341286D01*
X35361142Y31198429D01*
X34004000Y31269858D02*
X34146857Y31198429D01*
X34432571Y31198429D01*
X34575428Y31269858D01*
X34646857Y31341286D01*
X34718285Y31484143D01*
X34718285Y31912715D01*
X34646857Y32055572D01*
X34575428Y32127000D01*
X34432571Y32198429D01*
X34146857Y32198429D01*
X34004000Y32127000D01*
X33146857Y31198429D02*
X33289714Y31269858D01*
X33361142Y31341286D01*
X33432571Y31484143D01*
X33432571Y31912715D01*
X33361142Y32055572D01*
X33289714Y32127000D01*
X33146857Y32198429D01*
X32932571Y32198429D01*
X32789714Y32127000D01*
X32718285Y32055572D01*
X32646857Y31912715D01*
X32646857Y31484143D01*
X32718285Y31341286D01*
X32789714Y31269858D01*
X32932571Y31198429D01*
X33146857Y31198429D01*
X32004000Y31198429D02*
X32004000Y32198429D01*
X32004000Y32055572D02*
X31932571Y32127000D01*
X31789714Y32198429D01*
X31575428Y32198429D01*
X31432571Y32127000D01*
X31361142Y31984143D01*
X31361142Y31198429D01*
X31361142Y31984143D02*
X31289714Y32127000D01*
X31146857Y32198429D01*
X30932571Y32198429D01*
X30789714Y32127000D01*
X30718285Y31984143D01*
X30718285Y31198429D01*
X28932571Y32769858D02*
X30218285Y30841286D01*
X28504000Y31269858D02*
X28361142Y31198429D01*
X28075428Y31198429D01*
X27932571Y31269858D01*
X27861142Y31412715D01*
X27861142Y31484143D01*
X27932571Y31627000D01*
X28075428Y31698429D01*
X28289714Y31698429D01*
X28432571Y31769858D01*
X28504000Y31912715D01*
X28504000Y31984143D01*
X28432571Y32127000D01*
X28289714Y32198429D01*
X28075428Y32198429D01*
X27932571Y32127000D01*
X26575428Y31198429D02*
X26575428Y31984143D01*
X26646857Y32127000D01*
X26789714Y32198429D01*
X27075428Y32198429D01*
X27218285Y32127000D01*
X26575428Y31269858D02*
X26718285Y31198429D01*
X27075428Y31198429D01*
X27218285Y31269858D01*
X27289714Y31412715D01*
X27289714Y31555572D01*
X27218285Y31698429D01*
X27075428Y31769858D01*
X26718285Y31769858D01*
X26575428Y31841286D01*
X25646857Y31198429D02*
X25789714Y31269858D01*
X25861142Y31412715D01*
X25861142Y32698429D01*
X25289714Y32198429D02*
X24718285Y32198429D01*
X25075428Y31198429D02*
X25075428Y32484143D01*
X25004000Y32627000D01*
X24861142Y32698429D01*
X24718285Y32698429D01*
X24432571Y32198429D02*
X23861142Y32198429D01*
X24218285Y32698429D02*
X24218285Y31412715D01*
X24146857Y31269858D01*
X24004000Y31198429D01*
X23861142Y31198429D01*
X22789714Y31269858D02*
X22932571Y31198429D01*
X23218285Y31198429D01*
X23361142Y31269858D01*
X23432571Y31412715D01*
X23432571Y31984143D01*
X23361142Y32127000D01*
X23218285Y32198429D01*
X22932571Y32198429D01*
X22789714Y32127000D01*
X22718285Y31984143D01*
X22718285Y31841286D01*
X23432571Y31698429D01*
X22075428Y31198429D02*
X22075428Y32198429D01*
X22075428Y31912715D02*
X22004000Y32055572D01*
X21932571Y32127000D01*
X21789714Y32198429D01*
X21646857Y32198429D01*
X20075428Y32769858D02*
X21361142Y30841286D01*
X18932571Y31198429D02*
X18932571Y31984143D01*
X19004000Y32127000D01*
X19146857Y32198429D01*
X19432571Y32198429D01*
X19575428Y32127000D01*
X18932571Y31269858D02*
X19075428Y31198429D01*
X19432571Y31198429D01*
X19575428Y31269858D01*
X19646857Y31412715D01*
X19646857Y31555572D01*
X19575428Y31698429D01*
X19432571Y31769858D01*
X19075428Y31769858D01*
X18932571Y31841286D01*
X18289714Y32555572D02*
X18218285Y32627000D01*
X18075428Y32698429D01*
X17718285Y32698429D01*
X17575428Y32627000D01*
X17504000Y32555572D01*
X17432571Y32412715D01*
X17432571Y32269858D01*
X17504000Y32055572D01*
X18361142Y31198429D01*
X17432571Y31198429D01*
X16146857Y32198429D02*
X16146857Y30984143D01*
X16218285Y30841286D01*
X16289714Y30769858D01*
X16432571Y30698429D01*
X16646857Y30698429D01*
X16789714Y30769858D01*
X16146857Y31269858D02*
X16289714Y31198429D01*
X16575428Y31198429D01*
X16718285Y31269858D01*
X16789714Y31341286D01*
X16861142Y31484143D01*
X16861142Y31912715D01*
X16789714Y32055572D01*
X16718285Y32127000D01*
X16575428Y32198429D01*
X16289714Y32198429D01*
X16146857Y32127000D01*
X15432571Y32198429D02*
X15432571Y30698429D01*
X15432571Y32127000D02*
X15289714Y32198429D01*
X15004000Y32198429D01*
X14861142Y32127000D01*
X14789714Y32055572D01*
X14718285Y31912715D01*
X14718285Y31484143D01*
X14789714Y31341286D01*
X14861142Y31269858D01*
X15004000Y31198429D01*
X15289714Y31198429D01*
X15432571Y31269858D01*
X14075428Y31198429D02*
X14075428Y32198429D01*
X14075428Y32698429D02*
X14146857Y32627000D01*
X14075428Y32555572D01*
X14004000Y32627000D01*
X14075428Y32698429D01*
X14075428Y32555572D01*
X13146857Y31198429D02*
X13289714Y31269858D01*
X13361142Y31341286D01*
X13432571Y31484143D01*
X13432571Y31912715D01*
X13361142Y32055572D01*
X13289714Y32127000D01*
X13146857Y32198429D01*
X12932571Y32198429D01*
X12789714Y32127000D01*
X12718285Y32055572D01*
X12646857Y31912715D01*
X12646857Y31484143D01*
X12718285Y31341286D01*
X12789714Y31269858D01*
X12932571Y31198429D01*
X13146857Y31198429D01*
D11*
G36*
X23526750Y26193750D02*
X25622250Y26193750D01*
X25622250Y28289250D01*
X23526750Y28289250D01*
X23526750Y26193750D01*
X23526750Y26193750D01*
G37*
X23526750Y26193750D02*
X25622250Y26193750D01*
X25622250Y28289250D01*
X23526750Y28289250D01*
X23526750Y26193750D01*
G36*
X38893750Y26193750D02*
X40989250Y26193750D01*
X40989250Y28289250D01*
X38893750Y28289250D01*
X38893750Y26193750D01*
X38893750Y26193750D01*
G37*
X38893750Y26193750D02*
X40989250Y26193750D01*
X40989250Y28289250D01*
X38893750Y28289250D01*
X38893750Y26193750D01*
G36*
X26320750Y13620750D02*
X27019250Y13620750D01*
X27019250Y14319250D01*
X26320750Y14319250D01*
X26320750Y13620750D01*
X26320750Y13620750D01*
G37*
X26320750Y13620750D02*
X27019250Y13620750D01*
X27019250Y14319250D01*
X26320750Y14319250D01*
X26320750Y13620750D01*
G36*
X38893750Y10826750D02*
X40989250Y10826750D01*
X40989250Y12922250D01*
X38893750Y12922250D01*
X38893750Y10826750D01*
X38893750Y10826750D01*
G37*
X38893750Y10826750D02*
X40989250Y10826750D01*
X40989250Y12922250D01*
X38893750Y12922250D01*
X38893750Y10826750D01*
G36*
X22129750Y24796750D02*
X27019250Y24796750D01*
X27019250Y28987750D01*
X26320750Y28987750D01*
X26320750Y25495250D01*
X22828250Y25495250D01*
X22828250Y28987750D01*
X26320750Y28987750D01*
X27019250Y28987750D01*
X27019250Y29686250D01*
X22129750Y29686250D01*
X22129750Y24796750D01*
X22129750Y24796750D01*
G37*
X22129750Y24796750D02*
X27019250Y24796750D01*
X27019250Y28987750D01*
X26320750Y28987750D01*
X26320750Y25495250D01*
X22828250Y25495250D01*
X22828250Y28987750D01*
X26320750Y28987750D01*
X27019250Y28987750D01*
X27019250Y29686250D01*
X22129750Y29686250D01*
X22129750Y24796750D01*
G36*
X37496750Y24796750D02*
X42386250Y24796750D01*
X42386250Y28987750D01*
X41687750Y28987750D01*
X41687750Y25495250D01*
X38195250Y25495250D01*
X38195250Y28987750D01*
X41687750Y28987750D01*
X42386250Y28987750D01*
X42386250Y29686250D01*
X37496750Y29686250D01*
X37496750Y24796750D01*
X37496750Y24796750D01*
G37*
X37496750Y24796750D02*
X42386250Y24796750D01*
X42386250Y28987750D01*
X41687750Y28987750D01*
X41687750Y25495250D01*
X38195250Y25495250D01*
X38195250Y28987750D01*
X41687750Y28987750D01*
X42386250Y28987750D01*
X42386250Y29686250D01*
X37496750Y29686250D01*
X37496750Y24796750D01*
G36*
X28416250Y20605750D02*
X29114750Y20605750D01*
X29114750Y22002750D01*
X28416250Y22002750D01*
X28416250Y20605750D01*
X28416250Y20605750D01*
G37*
X28416250Y20605750D02*
X29114750Y20605750D01*
X29114750Y22002750D01*
X28416250Y22002750D01*
X28416250Y20605750D01*
G36*
X29114750Y15017750D02*
X29114750Y14319250D01*
X28416250Y14319250D01*
X28416250Y15017750D01*
X27717750Y15017750D01*
X27717750Y12922250D01*
X25622250Y12922250D01*
X25622250Y15017750D01*
X27717750Y15017750D01*
X28416250Y15017750D01*
X28416250Y15716250D01*
X29114750Y15716250D01*
X29114750Y17113250D01*
X29813250Y17113250D01*
X29813250Y19208750D01*
X28416250Y19208750D01*
X28416250Y18510250D01*
X27019250Y18510250D01*
X27019250Y17811750D01*
X28416250Y17811750D01*
X28416250Y15716250D01*
X27019250Y15716250D01*
X27019250Y16414750D01*
X26320750Y16414750D01*
X26320750Y15716250D01*
X24923750Y15716250D01*
X24923750Y16414750D01*
X25622250Y16414750D01*
X25622250Y17811750D01*
X24923750Y17811750D01*
X24923750Y18510250D01*
X26320750Y18510250D01*
X26320750Y19208750D01*
X28416250Y19208750D01*
X29813250Y19208750D01*
X30511750Y19208750D01*
X30511750Y19907250D01*
X27019250Y19907250D01*
X26320750Y19907250D01*
X26320750Y19208750D01*
X25622250Y19208750D01*
X25622250Y19907250D01*
X24923750Y19907250D01*
X24923750Y18510250D01*
X24225250Y18510250D01*
X24225250Y19907250D01*
X24923750Y19907250D01*
X25622250Y19907250D01*
X26320750Y19907250D01*
X27019250Y19907250D01*
X27019250Y21304250D01*
X27717750Y21304250D01*
X27717750Y22701250D01*
X27019250Y22701250D01*
X27019250Y22002750D01*
X26320750Y22002750D01*
X26320750Y21304250D01*
X25622250Y21304250D01*
X25622250Y20605750D01*
X22828250Y20605750D01*
X22828250Y22002750D01*
X22129750Y22002750D01*
X22129750Y18510250D01*
X22828250Y18510250D01*
X22828250Y19907250D01*
X23526750Y19907250D01*
X23526750Y18510250D01*
X24225250Y18510250D01*
X24225250Y17811750D01*
X24923750Y17811750D01*
X24923750Y17113250D01*
X24225250Y17113250D01*
X24225250Y16414750D01*
X23526750Y16414750D01*
X23526750Y15716250D01*
X22828250Y15716250D01*
X22828250Y15017750D01*
X24225250Y15017750D01*
X24225250Y13620750D01*
X24923750Y13620750D01*
X24923750Y12922250D01*
X24225250Y12922250D01*
X24225250Y12223750D01*
X27019250Y12223750D01*
X27019250Y10826750D01*
X28416250Y10826750D01*
X28416250Y11525250D01*
X27717750Y11525250D01*
X27717750Y12223750D01*
X29813250Y12223750D01*
X29813250Y12922250D01*
X31210250Y12922250D01*
X31210250Y13620750D01*
X31908750Y13620750D01*
X31908750Y15017750D01*
X31210250Y15017750D01*
X31210250Y13620750D01*
X30511750Y13620750D01*
X29813250Y13620750D01*
X29813250Y12922250D01*
X29114750Y12922250D01*
X29114750Y13620750D01*
X29813250Y13620750D01*
X30511750Y13620750D01*
X30511750Y14319250D01*
X29813250Y14319250D01*
X29813250Y15017750D01*
X31210250Y15017750D01*
X31210250Y15716250D01*
X29813250Y15716250D01*
X29813250Y15017750D01*
X29114750Y15017750D01*
X29114750Y15017750D01*
G37*
X29114750Y15017750D02*
X29114750Y14319250D01*
X28416250Y14319250D01*
X28416250Y15017750D01*
X27717750Y15017750D01*
X27717750Y12922250D01*
X25622250Y12922250D01*
X25622250Y15017750D01*
X27717750Y15017750D01*
X28416250Y15017750D01*
X28416250Y15716250D01*
X29114750Y15716250D01*
X29114750Y17113250D01*
X29813250Y17113250D01*
X29813250Y19208750D01*
X28416250Y19208750D01*
X28416250Y18510250D01*
X27019250Y18510250D01*
X27019250Y17811750D01*
X28416250Y17811750D01*
X28416250Y15716250D01*
X27019250Y15716250D01*
X27019250Y16414750D01*
X26320750Y16414750D01*
X26320750Y15716250D01*
X24923750Y15716250D01*
X24923750Y16414750D01*
X25622250Y16414750D01*
X25622250Y17811750D01*
X24923750Y17811750D01*
X24923750Y18510250D01*
X26320750Y18510250D01*
X26320750Y19208750D01*
X28416250Y19208750D01*
X29813250Y19208750D01*
X30511750Y19208750D01*
X30511750Y19907250D01*
X27019250Y19907250D01*
X26320750Y19907250D01*
X26320750Y19208750D01*
X25622250Y19208750D01*
X25622250Y19907250D01*
X24923750Y19907250D01*
X24923750Y18510250D01*
X24225250Y18510250D01*
X24225250Y19907250D01*
X24923750Y19907250D01*
X25622250Y19907250D01*
X26320750Y19907250D01*
X27019250Y19907250D01*
X27019250Y21304250D01*
X27717750Y21304250D01*
X27717750Y22701250D01*
X27019250Y22701250D01*
X27019250Y22002750D01*
X26320750Y22002750D01*
X26320750Y21304250D01*
X25622250Y21304250D01*
X25622250Y20605750D01*
X22828250Y20605750D01*
X22828250Y22002750D01*
X22129750Y22002750D01*
X22129750Y18510250D01*
X22828250Y18510250D01*
X22828250Y19907250D01*
X23526750Y19907250D01*
X23526750Y18510250D01*
X24225250Y18510250D01*
X24225250Y17811750D01*
X24923750Y17811750D01*
X24923750Y17113250D01*
X24225250Y17113250D01*
X24225250Y16414750D01*
X23526750Y16414750D01*
X23526750Y15716250D01*
X22828250Y15716250D01*
X22828250Y15017750D01*
X24225250Y15017750D01*
X24225250Y13620750D01*
X24923750Y13620750D01*
X24923750Y12922250D01*
X24225250Y12922250D01*
X24225250Y12223750D01*
X27019250Y12223750D01*
X27019250Y10826750D01*
X28416250Y10826750D01*
X28416250Y11525250D01*
X27717750Y11525250D01*
X27717750Y12223750D01*
X29813250Y12223750D01*
X29813250Y12922250D01*
X31210250Y12922250D01*
X31210250Y13620750D01*
X31908750Y13620750D01*
X31908750Y15017750D01*
X31210250Y15017750D01*
X31210250Y13620750D01*
X30511750Y13620750D01*
X29813250Y13620750D01*
X29813250Y12922250D01*
X29114750Y12922250D01*
X29114750Y13620750D01*
X29813250Y13620750D01*
X30511750Y13620750D01*
X30511750Y14319250D01*
X29813250Y14319250D01*
X29813250Y15017750D01*
X31210250Y15017750D01*
X31210250Y15716250D01*
X29813250Y15716250D01*
X29813250Y15017750D01*
X29114750Y15017750D01*
G36*
X24225250Y21304250D02*
X24923750Y21304250D01*
X24923750Y22002750D01*
X24225250Y22002750D01*
X24225250Y21304250D01*
X24225250Y21304250D01*
G37*
X24225250Y21304250D02*
X24923750Y21304250D01*
X24923750Y22002750D01*
X24225250Y22002750D01*
X24225250Y21304250D01*
G36*
X26320750Y22002750D02*
X26320750Y23399750D01*
X25622250Y23399750D01*
X25622250Y24098250D01*
X24923750Y24098250D01*
X24923750Y22002750D01*
X26320750Y22002750D01*
X26320750Y22002750D01*
G37*
X26320750Y22002750D02*
X26320750Y23399750D01*
X25622250Y23399750D01*
X25622250Y24098250D01*
X24923750Y24098250D01*
X24923750Y22002750D01*
X26320750Y22002750D01*
G36*
X39592250Y18510250D02*
X39592250Y19208750D01*
X38893750Y19208750D01*
X38893750Y18510250D01*
X37496750Y18510250D01*
X37496750Y19208750D01*
X38893750Y19208750D01*
X39592250Y19208750D01*
X40290750Y19208750D01*
X40290750Y19907250D01*
X36798250Y19907250D01*
X36798250Y20605750D01*
X36099750Y20605750D01*
X36099750Y19907250D01*
X35401250Y19907250D01*
X35401250Y19208750D01*
X36798250Y19208750D01*
X36798250Y17811750D01*
X38893750Y17811750D01*
X38893750Y18510250D01*
X39592250Y18510250D01*
X39592250Y18510250D01*
G37*
X39592250Y18510250D02*
X39592250Y19208750D01*
X38893750Y19208750D01*
X38893750Y18510250D01*
X37496750Y18510250D01*
X37496750Y19208750D01*
X38893750Y19208750D01*
X39592250Y19208750D01*
X40290750Y19208750D01*
X40290750Y19907250D01*
X36798250Y19907250D01*
X36798250Y20605750D01*
X36099750Y20605750D01*
X36099750Y19907250D01*
X35401250Y19907250D01*
X35401250Y19208750D01*
X36798250Y19208750D01*
X36798250Y17811750D01*
X38893750Y17811750D01*
X38893750Y18510250D01*
X39592250Y18510250D01*
G36*
X24225250Y24098250D02*
X22129750Y24098250D01*
X22129750Y23399750D01*
X22828250Y23399750D01*
X22828250Y22701250D01*
X23526750Y22701250D01*
X23526750Y22002750D01*
X24225250Y22002750D01*
X24225250Y24098250D01*
X24225250Y24098250D01*
G37*
X24225250Y24098250D02*
X22129750Y24098250D01*
X22129750Y23399750D01*
X22828250Y23399750D01*
X22828250Y22701250D01*
X23526750Y22701250D01*
X23526750Y22002750D01*
X24225250Y22002750D01*
X24225250Y24098250D01*
G36*
X30511750Y27590750D02*
X29813250Y27590750D01*
X29813250Y25495250D01*
X30511750Y25495250D01*
X30511750Y27590750D01*
X30511750Y27590750D01*
G37*
X30511750Y27590750D02*
X29813250Y27590750D01*
X29813250Y25495250D01*
X30511750Y25495250D01*
X30511750Y27590750D01*
G36*
X29813250Y28289250D02*
X30511750Y28289250D01*
X30511750Y28987750D01*
X29813250Y28987750D01*
X29813250Y28289250D01*
X29114750Y28289250D01*
X29114750Y28987750D01*
X29813250Y28987750D01*
X30511750Y28987750D01*
X30511750Y29686250D01*
X29114750Y29686250D01*
X29114750Y28987750D01*
X27717750Y28987750D01*
X27717750Y26892250D01*
X28416250Y26892250D01*
X28416250Y26193750D01*
X29114750Y26193750D01*
X29114750Y27590750D01*
X29813250Y27590750D01*
X29813250Y28289250D01*
X29813250Y28289250D01*
G37*
X29813250Y28289250D02*
X30511750Y28289250D01*
X30511750Y28987750D01*
X29813250Y28987750D01*
X29813250Y28289250D01*
X29114750Y28289250D01*
X29114750Y28987750D01*
X29813250Y28987750D01*
X30511750Y28987750D01*
X30511750Y29686250D01*
X29114750Y29686250D01*
X29114750Y28987750D01*
X27717750Y28987750D01*
X27717750Y26892250D01*
X28416250Y26892250D01*
X28416250Y26193750D01*
X29114750Y26193750D01*
X29114750Y27590750D01*
X29813250Y27590750D01*
X29813250Y28289250D01*
G36*
X40290750Y20605750D02*
X40290750Y19907250D01*
X40989250Y19907250D01*
X40989250Y20605750D01*
X40290750Y20605750D01*
X40290750Y20605750D01*
G37*
X40290750Y20605750D02*
X40290750Y19907250D01*
X40989250Y19907250D01*
X40989250Y20605750D01*
X40290750Y20605750D01*
G36*
X40290750Y18510250D02*
X39592250Y18510250D01*
X39592250Y17811750D01*
X40290750Y17811750D01*
X40290750Y18510250D01*
X40290750Y18510250D01*
G37*
X40290750Y18510250D02*
X39592250Y18510250D01*
X39592250Y17811750D01*
X40290750Y17811750D01*
X40290750Y18510250D01*
G36*
X24225250Y17811750D02*
X22828250Y17811750D01*
X22828250Y17113250D01*
X24225250Y17113250D01*
X24225250Y17811750D01*
X24225250Y17811750D01*
G37*
X24225250Y17811750D02*
X22828250Y17811750D01*
X22828250Y17113250D01*
X24225250Y17113250D01*
X24225250Y17811750D01*
G36*
X31210250Y12223750D02*
X30511750Y12223750D01*
X30511750Y11525250D01*
X31210250Y11525250D01*
X31210250Y9429750D01*
X34004250Y9429750D01*
X34004250Y10128250D01*
X33305750Y10128250D01*
X32607250Y10128250D01*
X32607250Y10826750D01*
X33305750Y10826750D01*
X33305750Y10128250D01*
X34004250Y10128250D01*
X34702750Y10128250D01*
X34702750Y10826750D01*
X36099750Y10826750D01*
X36099750Y11525250D01*
X36798250Y11525250D01*
X36798250Y12223750D01*
X36099750Y12223750D01*
X36099750Y11525250D01*
X34702750Y11525250D01*
X34702750Y12223750D01*
X34004250Y12223750D01*
X34004250Y10826750D01*
X33305750Y10826750D01*
X33305750Y11525250D01*
X32607250Y11525250D01*
X32607250Y12223750D01*
X34004250Y12223750D01*
X34702750Y12223750D01*
X36099750Y12223750D01*
X36798250Y12223750D01*
X36798250Y14319250D01*
X36099750Y14319250D01*
X35401250Y14319250D01*
X34702750Y14319250D01*
X34702750Y12922250D01*
X33305750Y12922250D01*
X33305750Y15716250D01*
X34004250Y15716250D01*
X34004250Y14319250D01*
X34702750Y14319250D01*
X35401250Y14319250D01*
X35401250Y15017750D01*
X34702750Y15017750D01*
X34702750Y15716250D01*
X34004250Y15716250D01*
X34004250Y16414750D01*
X35401250Y16414750D01*
X35401250Y15716250D01*
X36099750Y15716250D01*
X36099750Y14319250D01*
X36798250Y14319250D01*
X36798250Y15017750D01*
X38893750Y15017750D01*
X38893750Y16414750D01*
X38195250Y16414750D01*
X38195250Y15716250D01*
X37496750Y15716250D01*
X37496750Y16414750D01*
X38195250Y16414750D01*
X38195250Y17113250D01*
X36798250Y17113250D01*
X36798250Y15716250D01*
X36099750Y15716250D01*
X36099750Y17113250D01*
X36798250Y17113250D01*
X36798250Y17811750D01*
X36099750Y17811750D01*
X36099750Y18510250D01*
X35401250Y18510250D01*
X35401250Y17113250D01*
X34702750Y17113250D01*
X34702750Y17811750D01*
X34004250Y17811750D01*
X34004250Y17113250D01*
X31908750Y17113250D01*
X31908750Y17811750D01*
X31210250Y17811750D01*
X31210250Y16414750D01*
X32607250Y16414750D01*
X32607250Y12223750D01*
X31908750Y12223750D01*
X31908750Y12922250D01*
X31210250Y12922250D01*
X31210250Y12223750D01*
X31210250Y12223750D01*
G37*
X31210250Y12223750D02*
X30511750Y12223750D01*
X30511750Y11525250D01*
X31210250Y11525250D01*
X31210250Y9429750D01*
X34004250Y9429750D01*
X34004250Y10128250D01*
X33305750Y10128250D01*
X32607250Y10128250D01*
X32607250Y10826750D01*
X33305750Y10826750D01*
X33305750Y10128250D01*
X34004250Y10128250D01*
X34702750Y10128250D01*
X34702750Y10826750D01*
X36099750Y10826750D01*
X36099750Y11525250D01*
X36798250Y11525250D01*
X36798250Y12223750D01*
X36099750Y12223750D01*
X36099750Y11525250D01*
X34702750Y11525250D01*
X34702750Y12223750D01*
X34004250Y12223750D01*
X34004250Y10826750D01*
X33305750Y10826750D01*
X33305750Y11525250D01*
X32607250Y11525250D01*
X32607250Y12223750D01*
X34004250Y12223750D01*
X34702750Y12223750D01*
X36099750Y12223750D01*
X36798250Y12223750D01*
X36798250Y14319250D01*
X36099750Y14319250D01*
X35401250Y14319250D01*
X34702750Y14319250D01*
X34702750Y12922250D01*
X33305750Y12922250D01*
X33305750Y15716250D01*
X34004250Y15716250D01*
X34004250Y14319250D01*
X34702750Y14319250D01*
X35401250Y14319250D01*
X35401250Y15017750D01*
X34702750Y15017750D01*
X34702750Y15716250D01*
X34004250Y15716250D01*
X34004250Y16414750D01*
X35401250Y16414750D01*
X35401250Y15716250D01*
X36099750Y15716250D01*
X36099750Y14319250D01*
X36798250Y14319250D01*
X36798250Y15017750D01*
X38893750Y15017750D01*
X38893750Y16414750D01*
X38195250Y16414750D01*
X38195250Y15716250D01*
X37496750Y15716250D01*
X37496750Y16414750D01*
X38195250Y16414750D01*
X38195250Y17113250D01*
X36798250Y17113250D01*
X36798250Y15716250D01*
X36099750Y15716250D01*
X36099750Y17113250D01*
X36798250Y17113250D01*
X36798250Y17811750D01*
X36099750Y17811750D01*
X36099750Y18510250D01*
X35401250Y18510250D01*
X35401250Y17113250D01*
X34702750Y17113250D01*
X34702750Y17811750D01*
X34004250Y17811750D01*
X34004250Y17113250D01*
X31908750Y17113250D01*
X31908750Y17811750D01*
X31210250Y17811750D01*
X31210250Y16414750D01*
X32607250Y16414750D01*
X32607250Y12223750D01*
X31908750Y12223750D01*
X31908750Y12922250D01*
X31210250Y12922250D01*
X31210250Y12223750D01*
G36*
X30511750Y24796750D02*
X31210250Y24796750D01*
X31210250Y25495250D01*
X30511750Y25495250D01*
X30511750Y24796750D01*
X30511750Y24796750D01*
G37*
X30511750Y24796750D02*
X31210250Y24796750D01*
X31210250Y25495250D01*
X30511750Y25495250D01*
X30511750Y24796750D01*
G36*
X27717750Y26193750D02*
X27717750Y24098250D01*
X28416250Y24098250D01*
X28416250Y22701250D01*
X29813250Y22701250D01*
X29813250Y21304250D01*
X30511750Y21304250D01*
X30511750Y20605750D01*
X31210250Y20605750D01*
X31210250Y21304250D01*
X31908750Y21304250D01*
X31908750Y20605750D01*
X33305750Y20605750D01*
X33305750Y19208750D01*
X34702750Y19208750D01*
X34702750Y20605750D01*
X35401250Y20605750D01*
X35401250Y21304250D01*
X34004250Y21304250D01*
X34004250Y20605750D01*
X33305750Y20605750D01*
X33305750Y21304250D01*
X34004250Y21304250D01*
X34004250Y22002750D01*
X34702750Y22002750D01*
X34702750Y22701250D01*
X33305750Y22701250D01*
X33305750Y21304250D01*
X32607250Y21304250D01*
X32607250Y23399750D01*
X31908750Y23399750D01*
X31908750Y22002750D01*
X31210250Y22002750D01*
X31210250Y21304250D01*
X30511750Y21304250D01*
X30511750Y22701250D01*
X29813250Y22701250D01*
X29813250Y23399750D01*
X31908750Y23399750D01*
X32607250Y23399750D01*
X34004250Y23399750D01*
X34004250Y24098250D01*
X34702750Y24098250D01*
X34702750Y24796750D01*
X35401250Y24796750D01*
X35401250Y25495250D01*
X34702750Y25495250D01*
X34702750Y24796750D01*
X34004250Y24796750D01*
X34004250Y25495250D01*
X33305750Y25495250D01*
X33305750Y24098250D01*
X32607250Y24098250D01*
X32607250Y25495250D01*
X33305750Y25495250D01*
X34004250Y25495250D01*
X34702750Y25495250D01*
X34702750Y26892250D01*
X36099750Y26892250D01*
X36099750Y27590750D01*
X36798250Y27590750D01*
X36798250Y28289250D01*
X35401250Y28289250D01*
X35401250Y27590750D01*
X34702750Y27590750D01*
X34702750Y26892250D01*
X34004250Y26892250D01*
X34004250Y26193750D01*
X33305750Y26193750D01*
X33305750Y26892250D01*
X34004250Y26892250D01*
X34004250Y27590750D01*
X33305750Y27590750D01*
X33305750Y26892250D01*
X32607250Y26892250D01*
X32607250Y26193750D01*
X31908750Y26193750D01*
X31908750Y26892250D01*
X32607250Y26892250D01*
X32607250Y27590750D01*
X33305750Y27590750D01*
X34004250Y27590750D01*
X34702750Y27590750D01*
X34702750Y28289250D01*
X35401250Y28289250D01*
X36798250Y28289250D01*
X36798250Y29686250D01*
X36099750Y29686250D01*
X36099750Y28987750D01*
X34004250Y28987750D01*
X34004250Y28289250D01*
X33305750Y28289250D01*
X33305750Y29686250D01*
X31210250Y29686250D01*
X31210250Y28289250D01*
X31908750Y28289250D01*
X31908750Y27590750D01*
X31210250Y27590750D01*
X31210250Y26193750D01*
X31908750Y26193750D01*
X31908750Y24098250D01*
X29813250Y24098250D01*
X29813250Y23399750D01*
X29114750Y23399750D01*
X29114750Y24098250D01*
X29813250Y24098250D01*
X29813250Y25495250D01*
X29114750Y25495250D01*
X29114750Y24796750D01*
X28416250Y24796750D01*
X28416250Y26193750D01*
X27717750Y26193750D01*
X27717750Y26193750D01*
G37*
X27717750Y26193750D02*
X27717750Y24098250D01*
X28416250Y24098250D01*
X28416250Y22701250D01*
X29813250Y22701250D01*
X29813250Y21304250D01*
X30511750Y21304250D01*
X30511750Y20605750D01*
X31210250Y20605750D01*
X31210250Y21304250D01*
X31908750Y21304250D01*
X31908750Y20605750D01*
X33305750Y20605750D01*
X33305750Y19208750D01*
X34702750Y19208750D01*
X34702750Y20605750D01*
X35401250Y20605750D01*
X35401250Y21304250D01*
X34004250Y21304250D01*
X34004250Y20605750D01*
X33305750Y20605750D01*
X33305750Y21304250D01*
X34004250Y21304250D01*
X34004250Y22002750D01*
X34702750Y22002750D01*
X34702750Y22701250D01*
X33305750Y22701250D01*
X33305750Y21304250D01*
X32607250Y21304250D01*
X32607250Y23399750D01*
X31908750Y23399750D01*
X31908750Y22002750D01*
X31210250Y22002750D01*
X31210250Y21304250D01*
X30511750Y21304250D01*
X30511750Y22701250D01*
X29813250Y22701250D01*
X29813250Y23399750D01*
X31908750Y23399750D01*
X32607250Y23399750D01*
X34004250Y23399750D01*
X34004250Y24098250D01*
X34702750Y24098250D01*
X34702750Y24796750D01*
X35401250Y24796750D01*
X35401250Y25495250D01*
X34702750Y25495250D01*
X34702750Y24796750D01*
X34004250Y24796750D01*
X34004250Y25495250D01*
X33305750Y25495250D01*
X33305750Y24098250D01*
X32607250Y24098250D01*
X32607250Y25495250D01*
X33305750Y25495250D01*
X34004250Y25495250D01*
X34702750Y25495250D01*
X34702750Y26892250D01*
X36099750Y26892250D01*
X36099750Y27590750D01*
X36798250Y27590750D01*
X36798250Y28289250D01*
X35401250Y28289250D01*
X35401250Y27590750D01*
X34702750Y27590750D01*
X34702750Y26892250D01*
X34004250Y26892250D01*
X34004250Y26193750D01*
X33305750Y26193750D01*
X33305750Y26892250D01*
X34004250Y26892250D01*
X34004250Y27590750D01*
X33305750Y27590750D01*
X33305750Y26892250D01*
X32607250Y26892250D01*
X32607250Y26193750D01*
X31908750Y26193750D01*
X31908750Y26892250D01*
X32607250Y26892250D01*
X32607250Y27590750D01*
X33305750Y27590750D01*
X34004250Y27590750D01*
X34702750Y27590750D01*
X34702750Y28289250D01*
X35401250Y28289250D01*
X36798250Y28289250D01*
X36798250Y29686250D01*
X36099750Y29686250D01*
X36099750Y28987750D01*
X34004250Y28987750D01*
X34004250Y28289250D01*
X33305750Y28289250D01*
X33305750Y29686250D01*
X31210250Y29686250D01*
X31210250Y28289250D01*
X31908750Y28289250D01*
X31908750Y27590750D01*
X31210250Y27590750D01*
X31210250Y26193750D01*
X31908750Y26193750D01*
X31908750Y24098250D01*
X29813250Y24098250D01*
X29813250Y23399750D01*
X29114750Y23399750D01*
X29114750Y24098250D01*
X29813250Y24098250D01*
X29813250Y25495250D01*
X29114750Y25495250D01*
X29114750Y24796750D01*
X28416250Y24796750D01*
X28416250Y26193750D01*
X27717750Y26193750D01*
G36*
X41687750Y20605750D02*
X41687750Y19907250D01*
X42386250Y19907250D01*
X42386250Y22002750D01*
X41687750Y22002750D01*
X41687750Y21304250D01*
X40989250Y21304250D01*
X40989250Y20605750D01*
X41687750Y20605750D01*
X41687750Y20605750D01*
G37*
X41687750Y20605750D02*
X41687750Y19907250D01*
X42386250Y19907250D01*
X42386250Y22002750D01*
X41687750Y22002750D01*
X41687750Y21304250D01*
X40989250Y21304250D01*
X40989250Y20605750D01*
X41687750Y20605750D01*
G36*
X40290750Y17113250D02*
X40989250Y17113250D01*
X40989250Y15017750D01*
X42386250Y15017750D01*
X42386250Y17811750D01*
X41687750Y17811750D01*
X41687750Y19208750D01*
X40989250Y19208750D01*
X40989250Y17811750D01*
X40290750Y17811750D01*
X40290750Y17113250D01*
X40290750Y17113250D01*
G37*
X40290750Y17113250D02*
X40989250Y17113250D01*
X40989250Y15017750D01*
X42386250Y15017750D01*
X42386250Y17811750D01*
X41687750Y17811750D01*
X41687750Y19208750D01*
X40989250Y19208750D01*
X40989250Y17811750D01*
X40290750Y17811750D01*
X40290750Y17113250D01*
G36*
X38893750Y20605750D02*
X38893750Y21304250D01*
X37496750Y21304250D01*
X37496750Y22002750D01*
X38893750Y22002750D01*
X38893750Y22701250D01*
X39592250Y22701250D01*
X39592250Y23399750D01*
X38195250Y23399750D01*
X38195250Y22701250D01*
X37496750Y22701250D01*
X37496750Y23399750D01*
X38195250Y23399750D01*
X39592250Y23399750D01*
X40290750Y23399750D01*
X40290750Y24098250D01*
X36099750Y24098250D01*
X36099750Y23399750D01*
X36798250Y23399750D01*
X36798250Y22002750D01*
X35401250Y22002750D01*
X35401250Y21304250D01*
X36798250Y21304250D01*
X36798250Y20605750D01*
X38893750Y20605750D01*
X38893750Y20605750D01*
G37*
X38893750Y20605750D02*
X38893750Y21304250D01*
X37496750Y21304250D01*
X37496750Y22002750D01*
X38893750Y22002750D01*
X38893750Y22701250D01*
X39592250Y22701250D01*
X39592250Y23399750D01*
X38195250Y23399750D01*
X38195250Y22701250D01*
X37496750Y22701250D01*
X37496750Y23399750D01*
X38195250Y23399750D01*
X39592250Y23399750D01*
X40290750Y23399750D01*
X40290750Y24098250D01*
X36099750Y24098250D01*
X36099750Y23399750D01*
X36798250Y23399750D01*
X36798250Y22002750D01*
X35401250Y22002750D01*
X35401250Y21304250D01*
X36798250Y21304250D01*
X36798250Y20605750D01*
X38893750Y20605750D01*
G36*
X26320750Y10826750D02*
X25622250Y10826750D01*
X25622250Y10128250D01*
X24923750Y10128250D01*
X24923750Y10826750D01*
X25622250Y10826750D01*
X26320750Y10826750D01*
X26320750Y11525250D01*
X24923750Y11525250D01*
X24923750Y10826750D01*
X24225250Y10826750D01*
X24225250Y11525250D01*
X22828250Y11525250D01*
X22828250Y12223750D01*
X23526750Y12223750D01*
X23526750Y13620750D01*
X22129750Y13620750D01*
X22129750Y10128250D01*
X22828250Y10128250D01*
X22828250Y10826750D01*
X23526750Y10826750D01*
X23526750Y10128250D01*
X24923750Y10128250D01*
X24923750Y9429750D01*
X25622250Y9429750D01*
X25622250Y10128250D01*
X26320750Y10128250D01*
X26320750Y9429750D01*
X27019250Y9429750D01*
X27019250Y10826750D01*
X26320750Y10826750D01*
X26320750Y10826750D01*
G37*
X26320750Y10826750D02*
X25622250Y10826750D01*
X25622250Y10128250D01*
X24923750Y10128250D01*
X24923750Y10826750D01*
X25622250Y10826750D01*
X26320750Y10826750D01*
X26320750Y11525250D01*
X24923750Y11525250D01*
X24923750Y10826750D01*
X24225250Y10826750D01*
X24225250Y11525250D01*
X22828250Y11525250D01*
X22828250Y12223750D01*
X23526750Y12223750D01*
X23526750Y13620750D01*
X22129750Y13620750D01*
X22129750Y10128250D01*
X22828250Y10128250D01*
X22828250Y10826750D01*
X23526750Y10826750D01*
X23526750Y10128250D01*
X24923750Y10128250D01*
X24923750Y9429750D01*
X25622250Y9429750D01*
X25622250Y10128250D01*
X26320750Y10128250D01*
X26320750Y9429750D01*
X27019250Y9429750D01*
X27019250Y10826750D01*
X26320750Y10826750D01*
G36*
X34004250Y18510250D02*
X33305750Y18510250D01*
X33305750Y17811750D01*
X34004250Y17811750D01*
X34004250Y18510250D01*
X34004250Y18510250D01*
G37*
X34004250Y18510250D02*
X33305750Y18510250D01*
X33305750Y17811750D01*
X34004250Y17811750D01*
X34004250Y18510250D01*
G36*
X33305750Y19208750D02*
X32607250Y19208750D01*
X32607250Y19907250D01*
X31210250Y19907250D01*
X31210250Y18510250D01*
X33305750Y18510250D01*
X33305750Y19208750D01*
X33305750Y19208750D01*
G37*
X33305750Y19208750D02*
X32607250Y19208750D01*
X32607250Y19907250D01*
X31210250Y19907250D01*
X31210250Y18510250D01*
X33305750Y18510250D01*
X33305750Y19208750D01*
G36*
X39592250Y22701250D02*
X39592250Y22002750D01*
X40989250Y22002750D01*
X40989250Y22701250D01*
X39592250Y22701250D01*
X39592250Y22701250D01*
G37*
X39592250Y22701250D02*
X39592250Y22002750D01*
X40989250Y22002750D01*
X40989250Y22701250D01*
X39592250Y22701250D01*
G36*
X40290750Y21304250D02*
X39592250Y21304250D01*
X39592250Y20605750D01*
X40290750Y20605750D01*
X40290750Y21304250D01*
X40290750Y21304250D01*
G37*
X40290750Y21304250D02*
X39592250Y21304250D01*
X39592250Y20605750D01*
X40290750Y20605750D01*
X40290750Y21304250D01*
G36*
X34702750Y9429750D02*
X36798250Y9429750D01*
X36798250Y10128250D01*
X34702750Y10128250D01*
X34702750Y9429750D01*
X34702750Y9429750D01*
G37*
X34702750Y9429750D02*
X36798250Y9429750D01*
X36798250Y10128250D01*
X34702750Y10128250D01*
X34702750Y9429750D01*
G36*
X42386250Y22701250D02*
X42386250Y24098250D01*
X41687750Y24098250D01*
X41687750Y23399750D01*
X40989250Y23399750D01*
X40989250Y22701250D01*
X42386250Y22701250D01*
X42386250Y22701250D01*
G37*
X42386250Y22701250D02*
X42386250Y24098250D01*
X41687750Y24098250D01*
X41687750Y23399750D01*
X40989250Y23399750D01*
X40989250Y22701250D01*
X42386250Y22701250D01*
G36*
X36099750Y26193750D02*
X35401250Y26193750D01*
X35401250Y25495250D01*
X36099750Y25495250D01*
X36099750Y26193750D01*
X36099750Y26193750D01*
G37*
X36099750Y26193750D02*
X35401250Y26193750D01*
X35401250Y25495250D01*
X36099750Y25495250D01*
X36099750Y26193750D01*
G36*
X36798250Y26193750D02*
X36798250Y26892250D01*
X36099750Y26892250D01*
X36099750Y26193750D01*
X36798250Y26193750D01*
X36798250Y26193750D01*
G37*
X36798250Y26193750D02*
X36798250Y26892250D01*
X36099750Y26892250D01*
X36099750Y26193750D01*
X36798250Y26193750D01*
G36*
X29813250Y10128250D02*
X29813250Y10826750D01*
X30511750Y10826750D01*
X30511750Y11525250D01*
X29114750Y11525250D01*
X29114750Y10128250D01*
X29813250Y10128250D01*
X29813250Y10128250D01*
G37*
X29813250Y10128250D02*
X29813250Y10826750D01*
X30511750Y10826750D01*
X30511750Y11525250D01*
X29114750Y11525250D01*
X29114750Y10128250D01*
X29813250Y10128250D01*
G36*
X27019250Y23399750D02*
X27717750Y23399750D01*
X27717750Y24098250D01*
X27019250Y24098250D01*
X27019250Y23399750D01*
X27019250Y23399750D01*
G37*
X27019250Y23399750D02*
X27717750Y23399750D01*
X27717750Y24098250D01*
X27019250Y24098250D01*
X27019250Y23399750D01*
G36*
X22129750Y16414750D02*
X22828250Y16414750D01*
X22828250Y17113250D01*
X22129750Y17113250D01*
X22129750Y16414750D01*
X22129750Y16414750D01*
G37*
X22129750Y16414750D02*
X22828250Y16414750D01*
X22828250Y17113250D01*
X22129750Y17113250D01*
X22129750Y16414750D01*
G36*
X38893750Y16414750D02*
X39592250Y16414750D01*
X39592250Y15017750D01*
X40290750Y15017750D01*
X40290750Y17113250D01*
X38893750Y17113250D01*
X38893750Y16414750D01*
X38893750Y16414750D01*
G37*
X38893750Y16414750D02*
X39592250Y16414750D01*
X39592250Y15017750D01*
X40290750Y15017750D01*
X40290750Y17113250D01*
X38893750Y17113250D01*
X38893750Y16414750D01*
G36*
X36099750Y24796750D02*
X36798250Y24796750D01*
X36798250Y25495250D01*
X36099750Y25495250D01*
X36099750Y24796750D01*
X36099750Y24796750D01*
G37*
X36099750Y24796750D02*
X36798250Y24796750D01*
X36798250Y25495250D01*
X36099750Y25495250D01*
X36099750Y24796750D01*
G36*
X27717750Y10128250D02*
X27717750Y9429750D01*
X29114750Y9429750D01*
X29114750Y10128250D01*
X27717750Y10128250D01*
X27717750Y10128250D01*
G37*
X27717750Y10128250D02*
X27717750Y9429750D01*
X29114750Y9429750D01*
X29114750Y10128250D01*
X27717750Y10128250D01*
G36*
X37496750Y9429750D02*
X42386250Y9429750D01*
X42386250Y13620750D01*
X41687750Y13620750D01*
X41687750Y10128250D01*
X38195250Y10128250D01*
X38195250Y13620750D01*
X41687750Y13620750D01*
X42386250Y13620750D01*
X42386250Y14319250D01*
X37496750Y14319250D01*
X37496750Y9429750D01*
X37496750Y9429750D01*
G37*
X37496750Y9429750D02*
X42386250Y9429750D01*
X42386250Y13620750D01*
X41687750Y13620750D01*
X41687750Y10128250D01*
X38195250Y10128250D01*
X38195250Y13620750D01*
X41687750Y13620750D01*
X42386250Y13620750D01*
X42386250Y14319250D01*
X37496750Y14319250D01*
X37496750Y9429750D01*
M02*
