%TF.GenerationSoftware,KiCad,Pcbnew,(5.0.0)*%
%TF.CreationDate,2018-09-17T10:05:30-07:00*%
%TF.ProjectId,6522,363532322E6B696361645F7063620000,0.1*%
%TF.SameCoordinates,PX6b302f8PY7fe6300*%
%TF.FileFunction,Copper,L1,Top,Signal*%
%TF.FilePolarity,Positive*%
%FSLAX46Y46*%
G04 Gerber Fmt 4.6, Leading zero omitted, Abs format (unit mm)*
G04 Created by KiCad (PCBNEW (5.0.0)) date 09/17/18 10:05:30*
%MOMM*%
%LPD*%
G01*
G04 APERTURE LIST*
%ADD10C,0.400000*%
%ADD11R,1.524000X6.350000*%
%ADD12R,1.700000X1.700000*%
%ADD13O,1.700000X1.700000*%
%ADD14R,1.600000X1.600000*%
%ADD15O,1.600000X1.600000*%
%ADD16R,0.600000X1.950000*%
%ADD17R,0.600000X1.500000*%
%ADD18C,0.100000*%
%ADD19C,0.975000*%
%ADD20R,1.200000X0.900000*%
%ADD21C,0.800000*%
%ADD22C,0.250000*%
%ADD23C,0.500000*%
%ADD24C,0.254000*%
G04 APERTURE END LIST*
D10*
X3349523Y58484858D02*
X3444761Y58675334D01*
X3444761Y59056286D01*
X3349523Y59246762D01*
X3159047Y59342000D01*
X3063809Y59342000D01*
X2873333Y59246762D01*
X2778095Y59056286D01*
X2778095Y58770572D01*
X2682857Y58580096D01*
X2492380Y58484858D01*
X2397142Y58484858D01*
X2206666Y58580096D01*
X2111428Y58770572D01*
X2111428Y59056286D01*
X2206666Y59246762D01*
X3349523Y61056286D02*
X3444761Y60865810D01*
X3444761Y60484858D01*
X3349523Y60294381D01*
X3254285Y60199143D01*
X3063809Y60103905D01*
X2492380Y60103905D01*
X2301904Y60199143D01*
X2206666Y60294381D01*
X2111428Y60484858D01*
X2111428Y60865810D01*
X2206666Y61056286D01*
X3444761Y62199143D02*
X3349523Y62008667D01*
X3254285Y61913429D01*
X3063809Y61818191D01*
X2492380Y61818191D01*
X2301904Y61913429D01*
X2206666Y62008667D01*
X2111428Y62199143D01*
X2111428Y62484858D01*
X2206666Y62675334D01*
X2301904Y62770572D01*
X2492380Y62865810D01*
X3063809Y62865810D01*
X3254285Y62770572D01*
X3349523Y62675334D01*
X3444761Y62484858D01*
X3444761Y62199143D01*
X2111428Y63437239D02*
X2111428Y64199143D01*
X1444761Y63722953D02*
X3159047Y63722953D01*
X3349523Y63818191D01*
X3444761Y64008667D01*
X3444761Y64199143D01*
X2111428Y64580096D02*
X2111428Y65342000D01*
X1444761Y64865810D02*
X3159047Y64865810D01*
X3349523Y64961048D01*
X3444761Y65151524D01*
X3444761Y65342000D01*
X2492380Y67246762D02*
X2397142Y67151524D01*
X2301904Y66961048D01*
X2301904Y66770572D01*
X2397142Y66580096D01*
X2492380Y66484858D01*
X2682857Y66389620D01*
X2873333Y66389620D01*
X3063809Y66484858D01*
X3159047Y66580096D01*
X3254285Y66770572D01*
X3254285Y66961048D01*
X3159047Y67151524D01*
X3063809Y67246762D01*
X2301904Y67246762D02*
X3063809Y67246762D01*
X3159047Y67342000D01*
X3159047Y67437239D01*
X3063809Y67627715D01*
X2873333Y67722953D01*
X2397142Y67722953D01*
X2111428Y67532477D01*
X1920952Y67246762D01*
X1825714Y66865810D01*
X1920952Y66484858D01*
X2111428Y66199143D01*
X2397142Y66008667D01*
X2778095Y65913429D01*
X3159047Y66008667D01*
X3444761Y66199143D01*
X3635238Y66484858D01*
X3730476Y66865810D01*
X3635238Y67246762D01*
X3444761Y67532477D01*
X3444761Y69437239D02*
X2397142Y69437239D01*
X2206666Y69342000D01*
X2111428Y69151524D01*
X2111428Y68770572D01*
X2206666Y68580096D01*
X3349523Y69437239D02*
X3444761Y69246762D01*
X3444761Y68770572D01*
X3349523Y68580096D01*
X3159047Y68484858D01*
X2968571Y68484858D01*
X2778095Y68580096D01*
X2682857Y68770572D01*
X2682857Y69246762D01*
X2587619Y69437239D01*
X3444761Y70675334D02*
X3349523Y70484858D01*
X3159047Y70389620D01*
X1444761Y70389620D01*
X2111428Y71151524D02*
X2111428Y71913429D01*
X3444761Y71437239D02*
X1730476Y71437239D01*
X1540000Y71532477D01*
X1444761Y71722953D01*
X1444761Y71913429D01*
X2111428Y72294381D02*
X2111428Y73056286D01*
X1444761Y72580096D02*
X3159047Y72580096D01*
X3349523Y72675334D01*
X3444761Y72865810D01*
X3444761Y73056286D01*
X3349523Y74484858D02*
X3444761Y74294381D01*
X3444761Y73913429D01*
X3349523Y73722953D01*
X3159047Y73627715D01*
X2397142Y73627715D01*
X2206666Y73722953D01*
X2111428Y73913429D01*
X2111428Y74294381D01*
X2206666Y74484858D01*
X2397142Y74580096D01*
X2587619Y74580096D01*
X2778095Y73627715D01*
X3444761Y75437239D02*
X2111428Y75437239D01*
X2492380Y75437239D02*
X2301904Y75532477D01*
X2206666Y75627715D01*
X2111428Y75818191D01*
X2111428Y76008667D01*
X3254285Y76675334D02*
X3349523Y76770572D01*
X3444761Y76675334D01*
X3349523Y76580096D01*
X3254285Y76675334D01*
X3444761Y76675334D01*
X2111428Y78484858D02*
X3444761Y78484858D01*
X2111428Y77627715D02*
X3159047Y77627715D01*
X3349523Y77722953D01*
X3444761Y77913429D01*
X3444761Y78199143D01*
X3349523Y78389620D01*
X3254285Y78484858D01*
X3349523Y79342000D02*
X3444761Y79532477D01*
X3444761Y79913429D01*
X3349523Y80103905D01*
X3159047Y80199143D01*
X3063809Y80199143D01*
X2873333Y80103905D01*
X2778095Y79913429D01*
X2778095Y79627715D01*
X2682857Y79437239D01*
X2492380Y79342000D01*
X2397142Y79342000D01*
X2206666Y79437239D01*
X2111428Y79627715D01*
X2111428Y79913429D01*
X2206666Y80103905D01*
D11*
X1397000Y3810000D03*
X3937000Y3810000D03*
X6477000Y3810000D03*
X9017000Y3810000D03*
X11557000Y3810000D03*
X14097000Y3810000D03*
X16637000Y3810000D03*
X19177000Y3810000D03*
X21717000Y3810000D03*
X24257000Y3810000D03*
X26797000Y3810000D03*
X29337000Y3810000D03*
X31877000Y3810000D03*
X34417000Y3810000D03*
X36957000Y3810000D03*
X39497000Y3810000D03*
X42037000Y3810000D03*
X44577000Y3810000D03*
X47117000Y3810000D03*
X49657000Y3810000D03*
X52197000Y3810000D03*
X54737000Y3810000D03*
X57277000Y3810000D03*
X59817000Y3810000D03*
X62357000Y3810000D03*
D12*
X53848000Y78994000D03*
D13*
X53848000Y76454000D03*
X51308000Y78994000D03*
X51308000Y76454000D03*
X48768000Y78994000D03*
X48768000Y76454000D03*
X46228000Y78994000D03*
X46228000Y76454000D03*
X43688000Y78994000D03*
X43688000Y76454000D03*
X41148000Y78994000D03*
X41148000Y76454000D03*
X38608000Y78994000D03*
X38608000Y76454000D03*
X36068000Y78994000D03*
X36068000Y76454000D03*
X33528000Y78994000D03*
X33528000Y76454000D03*
X30988000Y78994000D03*
X30988000Y76454000D03*
X28448000Y78994000D03*
X28448000Y76454000D03*
X25908000Y78994000D03*
X25908000Y76454000D03*
X23368000Y78994000D03*
X23368000Y76454000D03*
X20828000Y78994000D03*
X20828000Y76454000D03*
X18288000Y78994000D03*
X18288000Y76454000D03*
X15748000Y78994000D03*
X15748000Y76454000D03*
X13208000Y78994000D03*
X13208000Y76454000D03*
X10668000Y78994000D03*
X10668000Y76454000D03*
X8128000Y78994000D03*
X8128000Y76454000D03*
X5588000Y78994000D03*
X5588000Y76454000D03*
D14*
X53848000Y69469000D03*
D15*
X5588000Y54229000D03*
X51308000Y69469000D03*
X8128000Y54229000D03*
X48768000Y69469000D03*
X10668000Y54229000D03*
X46228000Y69469000D03*
X13208000Y54229000D03*
X43688000Y69469000D03*
X15748000Y54229000D03*
X41148000Y69469000D03*
X18288000Y54229000D03*
X38608000Y69469000D03*
X20828000Y54229000D03*
X36068000Y69469000D03*
X23368000Y54229000D03*
X33528000Y69469000D03*
X25908000Y54229000D03*
X30988000Y69469000D03*
X28448000Y54229000D03*
X28448000Y69469000D03*
X30988000Y54229000D03*
X25908000Y69469000D03*
X33528000Y54229000D03*
X23368000Y69469000D03*
X36068000Y54229000D03*
X20828000Y69469000D03*
X38608000Y54229000D03*
X18288000Y69469000D03*
X41148000Y54229000D03*
X15748000Y69469000D03*
X43688000Y54229000D03*
X13208000Y69469000D03*
X46228000Y54229000D03*
X10668000Y69469000D03*
X48768000Y54229000D03*
X8128000Y69469000D03*
X51308000Y54229000D03*
X5588000Y69469000D03*
X53848000Y54229000D03*
D12*
X56381542Y78977295D03*
D13*
X56381542Y76437295D03*
D15*
X53848000Y35179000D03*
X5588000Y50419000D03*
X51308000Y35179000D03*
X8128000Y50419000D03*
X48768000Y35179000D03*
X10668000Y50419000D03*
X46228000Y35179000D03*
X13208000Y50419000D03*
X43688000Y35179000D03*
X15748000Y50419000D03*
X41148000Y35179000D03*
X18288000Y50419000D03*
X38608000Y35179000D03*
X20828000Y50419000D03*
X36068000Y35179000D03*
X23368000Y50419000D03*
X33528000Y35179000D03*
X25908000Y50419000D03*
X30988000Y35179000D03*
X28448000Y50419000D03*
X28448000Y35179000D03*
X30988000Y50419000D03*
X25908000Y35179000D03*
X33528000Y50419000D03*
X23368000Y35179000D03*
X36068000Y50419000D03*
X20828000Y35179000D03*
X38608000Y50419000D03*
X18288000Y35179000D03*
X41148000Y50419000D03*
X15748000Y35179000D03*
X43688000Y50419000D03*
X13208000Y35179000D03*
X46228000Y50419000D03*
X10668000Y35179000D03*
X48768000Y50419000D03*
X8128000Y35179000D03*
X51308000Y50419000D03*
X5588000Y35179000D03*
D14*
X53848000Y50419000D03*
D16*
X4445000Y17779000D03*
X5715000Y17779000D03*
X6985000Y17779000D03*
X8255000Y17779000D03*
X9525000Y17779000D03*
X10795000Y17779000D03*
X12065000Y17779000D03*
X13335000Y17779000D03*
X14605000Y17779000D03*
X15875000Y17779000D03*
X15875000Y27179000D03*
X14605000Y27179000D03*
X13335000Y27179000D03*
X12065000Y27179000D03*
X10795000Y27179000D03*
X9525000Y27179000D03*
X8255000Y27179000D03*
X6985000Y27179000D03*
X5715000Y27179000D03*
X4445000Y27179000D03*
D17*
X43688000Y19525000D03*
X44958000Y19525000D03*
X46228000Y19525000D03*
X47498000Y19525000D03*
X48768000Y19525000D03*
X50038000Y19525000D03*
X51308000Y19525000D03*
X51308000Y24925000D03*
X50038000Y24925000D03*
X48768000Y24925000D03*
X47498000Y24925000D03*
X46228000Y24925000D03*
X44958000Y24925000D03*
X43688000Y24925000D03*
X26543000Y24925000D03*
X27813000Y24925000D03*
X29083000Y24925000D03*
X30353000Y24925000D03*
X31623000Y24925000D03*
X32893000Y24925000D03*
X34163000Y24925000D03*
X34163000Y19525000D03*
X32893000Y19525000D03*
X31623000Y19525000D03*
X30353000Y19525000D03*
X29083000Y19525000D03*
X27813000Y19525000D03*
X26543000Y19525000D03*
D18*
G36*
X62975642Y11493826D02*
X62999303Y11490316D01*
X63022507Y11484504D01*
X63045029Y11476446D01*
X63066653Y11466218D01*
X63087170Y11453921D01*
X63106383Y11439671D01*
X63124107Y11423607D01*
X63140171Y11405883D01*
X63154421Y11386670D01*
X63166718Y11366153D01*
X63176946Y11344529D01*
X63185004Y11322007D01*
X63190816Y11298803D01*
X63194326Y11275142D01*
X63195500Y11251250D01*
X63195500Y10338750D01*
X63194326Y10314858D01*
X63190816Y10291197D01*
X63185004Y10267993D01*
X63176946Y10245471D01*
X63166718Y10223847D01*
X63154421Y10203330D01*
X63140171Y10184117D01*
X63124107Y10166393D01*
X63106383Y10150329D01*
X63087170Y10136079D01*
X63066653Y10123782D01*
X63045029Y10113554D01*
X63022507Y10105496D01*
X62999303Y10099684D01*
X62975642Y10096174D01*
X62951750Y10095000D01*
X62464250Y10095000D01*
X62440358Y10096174D01*
X62416697Y10099684D01*
X62393493Y10105496D01*
X62370971Y10113554D01*
X62349347Y10123782D01*
X62328830Y10136079D01*
X62309617Y10150329D01*
X62291893Y10166393D01*
X62275829Y10184117D01*
X62261579Y10203330D01*
X62249282Y10223847D01*
X62239054Y10245471D01*
X62230996Y10267993D01*
X62225184Y10291197D01*
X62221674Y10314858D01*
X62220500Y10338750D01*
X62220500Y11251250D01*
X62221674Y11275142D01*
X62225184Y11298803D01*
X62230996Y11322007D01*
X62239054Y11344529D01*
X62249282Y11366153D01*
X62261579Y11386670D01*
X62275829Y11405883D01*
X62291893Y11423607D01*
X62309617Y11439671D01*
X62328830Y11453921D01*
X62349347Y11466218D01*
X62370971Y11476446D01*
X62393493Y11484504D01*
X62416697Y11490316D01*
X62440358Y11493826D01*
X62464250Y11495000D01*
X62951750Y11495000D01*
X62975642Y11493826D01*
X62975642Y11493826D01*
G37*
D19*
X62708000Y10795000D03*
D18*
G36*
X61100642Y11493826D02*
X61124303Y11490316D01*
X61147507Y11484504D01*
X61170029Y11476446D01*
X61191653Y11466218D01*
X61212170Y11453921D01*
X61231383Y11439671D01*
X61249107Y11423607D01*
X61265171Y11405883D01*
X61279421Y11386670D01*
X61291718Y11366153D01*
X61301946Y11344529D01*
X61310004Y11322007D01*
X61315816Y11298803D01*
X61319326Y11275142D01*
X61320500Y11251250D01*
X61320500Y10338750D01*
X61319326Y10314858D01*
X61315816Y10291197D01*
X61310004Y10267993D01*
X61301946Y10245471D01*
X61291718Y10223847D01*
X61279421Y10203330D01*
X61265171Y10184117D01*
X61249107Y10166393D01*
X61231383Y10150329D01*
X61212170Y10136079D01*
X61191653Y10123782D01*
X61170029Y10113554D01*
X61147507Y10105496D01*
X61124303Y10099684D01*
X61100642Y10096174D01*
X61076750Y10095000D01*
X60589250Y10095000D01*
X60565358Y10096174D01*
X60541697Y10099684D01*
X60518493Y10105496D01*
X60495971Y10113554D01*
X60474347Y10123782D01*
X60453830Y10136079D01*
X60434617Y10150329D01*
X60416893Y10166393D01*
X60400829Y10184117D01*
X60386579Y10203330D01*
X60374282Y10223847D01*
X60364054Y10245471D01*
X60355996Y10267993D01*
X60350184Y10291197D01*
X60346674Y10314858D01*
X60345500Y10338750D01*
X60345500Y11251250D01*
X60346674Y11275142D01*
X60350184Y11298803D01*
X60355996Y11322007D01*
X60364054Y11344529D01*
X60374282Y11366153D01*
X60386579Y11386670D01*
X60400829Y11405883D01*
X60416893Y11423607D01*
X60434617Y11439671D01*
X60453830Y11453921D01*
X60474347Y11466218D01*
X60495971Y11476446D01*
X60518493Y11484504D01*
X60541697Y11490316D01*
X60565358Y11493826D01*
X60589250Y11495000D01*
X61076750Y11495000D01*
X61100642Y11493826D01*
X61100642Y11493826D01*
G37*
D19*
X60833000Y10795000D03*
D18*
G36*
X62975642Y15303826D02*
X62999303Y15300316D01*
X63022507Y15294504D01*
X63045029Y15286446D01*
X63066653Y15276218D01*
X63087170Y15263921D01*
X63106383Y15249671D01*
X63124107Y15233607D01*
X63140171Y15215883D01*
X63154421Y15196670D01*
X63166718Y15176153D01*
X63176946Y15154529D01*
X63185004Y15132007D01*
X63190816Y15108803D01*
X63194326Y15085142D01*
X63195500Y15061250D01*
X63195500Y14148750D01*
X63194326Y14124858D01*
X63190816Y14101197D01*
X63185004Y14077993D01*
X63176946Y14055471D01*
X63166718Y14033847D01*
X63154421Y14013330D01*
X63140171Y13994117D01*
X63124107Y13976393D01*
X63106383Y13960329D01*
X63087170Y13946079D01*
X63066653Y13933782D01*
X63045029Y13923554D01*
X63022507Y13915496D01*
X62999303Y13909684D01*
X62975642Y13906174D01*
X62951750Y13905000D01*
X62464250Y13905000D01*
X62440358Y13906174D01*
X62416697Y13909684D01*
X62393493Y13915496D01*
X62370971Y13923554D01*
X62349347Y13933782D01*
X62328830Y13946079D01*
X62309617Y13960329D01*
X62291893Y13976393D01*
X62275829Y13994117D01*
X62261579Y14013330D01*
X62249282Y14033847D01*
X62239054Y14055471D01*
X62230996Y14077993D01*
X62225184Y14101197D01*
X62221674Y14124858D01*
X62220500Y14148750D01*
X62220500Y15061250D01*
X62221674Y15085142D01*
X62225184Y15108803D01*
X62230996Y15132007D01*
X62239054Y15154529D01*
X62249282Y15176153D01*
X62261579Y15196670D01*
X62275829Y15215883D01*
X62291893Y15233607D01*
X62309617Y15249671D01*
X62328830Y15263921D01*
X62349347Y15276218D01*
X62370971Y15286446D01*
X62393493Y15294504D01*
X62416697Y15300316D01*
X62440358Y15303826D01*
X62464250Y15305000D01*
X62951750Y15305000D01*
X62975642Y15303826D01*
X62975642Y15303826D01*
G37*
D19*
X62708000Y14605000D03*
D18*
G36*
X61100642Y15303826D02*
X61124303Y15300316D01*
X61147507Y15294504D01*
X61170029Y15286446D01*
X61191653Y15276218D01*
X61212170Y15263921D01*
X61231383Y15249671D01*
X61249107Y15233607D01*
X61265171Y15215883D01*
X61279421Y15196670D01*
X61291718Y15176153D01*
X61301946Y15154529D01*
X61310004Y15132007D01*
X61315816Y15108803D01*
X61319326Y15085142D01*
X61320500Y15061250D01*
X61320500Y14148750D01*
X61319326Y14124858D01*
X61315816Y14101197D01*
X61310004Y14077993D01*
X61301946Y14055471D01*
X61291718Y14033847D01*
X61279421Y14013330D01*
X61265171Y13994117D01*
X61249107Y13976393D01*
X61231383Y13960329D01*
X61212170Y13946079D01*
X61191653Y13933782D01*
X61170029Y13923554D01*
X61147507Y13915496D01*
X61124303Y13909684D01*
X61100642Y13906174D01*
X61076750Y13905000D01*
X60589250Y13905000D01*
X60565358Y13906174D01*
X60541697Y13909684D01*
X60518493Y13915496D01*
X60495971Y13923554D01*
X60474347Y13933782D01*
X60453830Y13946079D01*
X60434617Y13960329D01*
X60416893Y13976393D01*
X60400829Y13994117D01*
X60386579Y14013330D01*
X60374282Y14033847D01*
X60364054Y14055471D01*
X60355996Y14077993D01*
X60350184Y14101197D01*
X60346674Y14124858D01*
X60345500Y14148750D01*
X60345500Y15061250D01*
X60346674Y15085142D01*
X60350184Y15108803D01*
X60355996Y15132007D01*
X60364054Y15154529D01*
X60374282Y15176153D01*
X60386579Y15196670D01*
X60400829Y15215883D01*
X60416893Y15233607D01*
X60434617Y15249671D01*
X60453830Y15263921D01*
X60474347Y15276218D01*
X60495971Y15286446D01*
X60518493Y15294504D01*
X60541697Y15300316D01*
X60565358Y15303826D01*
X60589250Y15305000D01*
X61076750Y15305000D01*
X61100642Y15303826D01*
X61100642Y15303826D01*
G37*
D19*
X60833000Y14605000D03*
D18*
G36*
X18768142Y23981326D02*
X18791803Y23977816D01*
X18815007Y23972004D01*
X18837529Y23963946D01*
X18859153Y23953718D01*
X18879670Y23941421D01*
X18898883Y23927171D01*
X18916607Y23911107D01*
X18932671Y23893383D01*
X18946921Y23874170D01*
X18959218Y23853653D01*
X18969446Y23832029D01*
X18977504Y23809507D01*
X18983316Y23786303D01*
X18986826Y23762642D01*
X18988000Y23738750D01*
X18988000Y23251250D01*
X18986826Y23227358D01*
X18983316Y23203697D01*
X18977504Y23180493D01*
X18969446Y23157971D01*
X18959218Y23136347D01*
X18946921Y23115830D01*
X18932671Y23096617D01*
X18916607Y23078893D01*
X18898883Y23062829D01*
X18879670Y23048579D01*
X18859153Y23036282D01*
X18837529Y23026054D01*
X18815007Y23017996D01*
X18791803Y23012184D01*
X18768142Y23008674D01*
X18744250Y23007500D01*
X17831750Y23007500D01*
X17807858Y23008674D01*
X17784197Y23012184D01*
X17760993Y23017996D01*
X17738471Y23026054D01*
X17716847Y23036282D01*
X17696330Y23048579D01*
X17677117Y23062829D01*
X17659393Y23078893D01*
X17643329Y23096617D01*
X17629079Y23115830D01*
X17616782Y23136347D01*
X17606554Y23157971D01*
X17598496Y23180493D01*
X17592684Y23203697D01*
X17589174Y23227358D01*
X17588000Y23251250D01*
X17588000Y23738750D01*
X17589174Y23762642D01*
X17592684Y23786303D01*
X17598496Y23809507D01*
X17606554Y23832029D01*
X17616782Y23853653D01*
X17629079Y23874170D01*
X17643329Y23893383D01*
X17659393Y23911107D01*
X17677117Y23927171D01*
X17696330Y23941421D01*
X17716847Y23953718D01*
X17738471Y23963946D01*
X17760993Y23972004D01*
X17784197Y23977816D01*
X17807858Y23981326D01*
X17831750Y23982500D01*
X18744250Y23982500D01*
X18768142Y23981326D01*
X18768142Y23981326D01*
G37*
D19*
X18288000Y23495000D03*
D18*
G36*
X18768142Y22106326D02*
X18791803Y22102816D01*
X18815007Y22097004D01*
X18837529Y22088946D01*
X18859153Y22078718D01*
X18879670Y22066421D01*
X18898883Y22052171D01*
X18916607Y22036107D01*
X18932671Y22018383D01*
X18946921Y21999170D01*
X18959218Y21978653D01*
X18969446Y21957029D01*
X18977504Y21934507D01*
X18983316Y21911303D01*
X18986826Y21887642D01*
X18988000Y21863750D01*
X18988000Y21376250D01*
X18986826Y21352358D01*
X18983316Y21328697D01*
X18977504Y21305493D01*
X18969446Y21282971D01*
X18959218Y21261347D01*
X18946921Y21240830D01*
X18932671Y21221617D01*
X18916607Y21203893D01*
X18898883Y21187829D01*
X18879670Y21173579D01*
X18859153Y21161282D01*
X18837529Y21151054D01*
X18815007Y21142996D01*
X18791803Y21137184D01*
X18768142Y21133674D01*
X18744250Y21132500D01*
X17831750Y21132500D01*
X17807858Y21133674D01*
X17784197Y21137184D01*
X17760993Y21142996D01*
X17738471Y21151054D01*
X17716847Y21161282D01*
X17696330Y21173579D01*
X17677117Y21187829D01*
X17659393Y21203893D01*
X17643329Y21221617D01*
X17629079Y21240830D01*
X17616782Y21261347D01*
X17606554Y21282971D01*
X17598496Y21305493D01*
X17592684Y21328697D01*
X17589174Y21352358D01*
X17588000Y21376250D01*
X17588000Y21863750D01*
X17589174Y21887642D01*
X17592684Y21911303D01*
X17598496Y21934507D01*
X17606554Y21957029D01*
X17616782Y21978653D01*
X17629079Y21999170D01*
X17643329Y22018383D01*
X17659393Y22036107D01*
X17677117Y22052171D01*
X17696330Y22066421D01*
X17716847Y22078718D01*
X17738471Y22088946D01*
X17760993Y22097004D01*
X17784197Y22102816D01*
X17807858Y22106326D01*
X17831750Y22107500D01*
X18744250Y22107500D01*
X18768142Y22106326D01*
X18768142Y22106326D01*
G37*
D19*
X18288000Y21620000D03*
D18*
G36*
X37818142Y22106326D02*
X37841803Y22102816D01*
X37865007Y22097004D01*
X37887529Y22088946D01*
X37909153Y22078718D01*
X37929670Y22066421D01*
X37948883Y22052171D01*
X37966607Y22036107D01*
X37982671Y22018383D01*
X37996921Y21999170D01*
X38009218Y21978653D01*
X38019446Y21957029D01*
X38027504Y21934507D01*
X38033316Y21911303D01*
X38036826Y21887642D01*
X38038000Y21863750D01*
X38038000Y21376250D01*
X38036826Y21352358D01*
X38033316Y21328697D01*
X38027504Y21305493D01*
X38019446Y21282971D01*
X38009218Y21261347D01*
X37996921Y21240830D01*
X37982671Y21221617D01*
X37966607Y21203893D01*
X37948883Y21187829D01*
X37929670Y21173579D01*
X37909153Y21161282D01*
X37887529Y21151054D01*
X37865007Y21142996D01*
X37841803Y21137184D01*
X37818142Y21133674D01*
X37794250Y21132500D01*
X36881750Y21132500D01*
X36857858Y21133674D01*
X36834197Y21137184D01*
X36810993Y21142996D01*
X36788471Y21151054D01*
X36766847Y21161282D01*
X36746330Y21173579D01*
X36727117Y21187829D01*
X36709393Y21203893D01*
X36693329Y21221617D01*
X36679079Y21240830D01*
X36666782Y21261347D01*
X36656554Y21282971D01*
X36648496Y21305493D01*
X36642684Y21328697D01*
X36639174Y21352358D01*
X36638000Y21376250D01*
X36638000Y21863750D01*
X36639174Y21887642D01*
X36642684Y21911303D01*
X36648496Y21934507D01*
X36656554Y21957029D01*
X36666782Y21978653D01*
X36679079Y21999170D01*
X36693329Y22018383D01*
X36709393Y22036107D01*
X36727117Y22052171D01*
X36746330Y22066421D01*
X36766847Y22078718D01*
X36788471Y22088946D01*
X36810993Y22097004D01*
X36834197Y22102816D01*
X36857858Y22106326D01*
X36881750Y22107500D01*
X37794250Y22107500D01*
X37818142Y22106326D01*
X37818142Y22106326D01*
G37*
D19*
X37338000Y21620000D03*
D18*
G36*
X37818142Y23981326D02*
X37841803Y23977816D01*
X37865007Y23972004D01*
X37887529Y23963946D01*
X37909153Y23953718D01*
X37929670Y23941421D01*
X37948883Y23927171D01*
X37966607Y23911107D01*
X37982671Y23893383D01*
X37996921Y23874170D01*
X38009218Y23853653D01*
X38019446Y23832029D01*
X38027504Y23809507D01*
X38033316Y23786303D01*
X38036826Y23762642D01*
X38038000Y23738750D01*
X38038000Y23251250D01*
X38036826Y23227358D01*
X38033316Y23203697D01*
X38027504Y23180493D01*
X38019446Y23157971D01*
X38009218Y23136347D01*
X37996921Y23115830D01*
X37982671Y23096617D01*
X37966607Y23078893D01*
X37948883Y23062829D01*
X37929670Y23048579D01*
X37909153Y23036282D01*
X37887529Y23026054D01*
X37865007Y23017996D01*
X37841803Y23012184D01*
X37818142Y23008674D01*
X37794250Y23007500D01*
X36881750Y23007500D01*
X36857858Y23008674D01*
X36834197Y23012184D01*
X36810993Y23017996D01*
X36788471Y23026054D01*
X36766847Y23036282D01*
X36746330Y23048579D01*
X36727117Y23062829D01*
X36709393Y23078893D01*
X36693329Y23096617D01*
X36679079Y23115830D01*
X36666782Y23136347D01*
X36656554Y23157971D01*
X36648496Y23180493D01*
X36642684Y23203697D01*
X36639174Y23227358D01*
X36638000Y23251250D01*
X36638000Y23738750D01*
X36639174Y23762642D01*
X36642684Y23786303D01*
X36648496Y23809507D01*
X36656554Y23832029D01*
X36666782Y23853653D01*
X36679079Y23874170D01*
X36693329Y23893383D01*
X36709393Y23911107D01*
X36727117Y23927171D01*
X36746330Y23941421D01*
X36766847Y23953718D01*
X36788471Y23963946D01*
X36810993Y23972004D01*
X36834197Y23977816D01*
X36857858Y23981326D01*
X36881750Y23982500D01*
X37794250Y23982500D01*
X37818142Y23981326D01*
X37818142Y23981326D01*
G37*
D19*
X37338000Y23495000D03*
D18*
G36*
X54328142Y23981326D02*
X54351803Y23977816D01*
X54375007Y23972004D01*
X54397529Y23963946D01*
X54419153Y23953718D01*
X54439670Y23941421D01*
X54458883Y23927171D01*
X54476607Y23911107D01*
X54492671Y23893383D01*
X54506921Y23874170D01*
X54519218Y23853653D01*
X54529446Y23832029D01*
X54537504Y23809507D01*
X54543316Y23786303D01*
X54546826Y23762642D01*
X54548000Y23738750D01*
X54548000Y23251250D01*
X54546826Y23227358D01*
X54543316Y23203697D01*
X54537504Y23180493D01*
X54529446Y23157971D01*
X54519218Y23136347D01*
X54506921Y23115830D01*
X54492671Y23096617D01*
X54476607Y23078893D01*
X54458883Y23062829D01*
X54439670Y23048579D01*
X54419153Y23036282D01*
X54397529Y23026054D01*
X54375007Y23017996D01*
X54351803Y23012184D01*
X54328142Y23008674D01*
X54304250Y23007500D01*
X53391750Y23007500D01*
X53367858Y23008674D01*
X53344197Y23012184D01*
X53320993Y23017996D01*
X53298471Y23026054D01*
X53276847Y23036282D01*
X53256330Y23048579D01*
X53237117Y23062829D01*
X53219393Y23078893D01*
X53203329Y23096617D01*
X53189079Y23115830D01*
X53176782Y23136347D01*
X53166554Y23157971D01*
X53158496Y23180493D01*
X53152684Y23203697D01*
X53149174Y23227358D01*
X53148000Y23251250D01*
X53148000Y23738750D01*
X53149174Y23762642D01*
X53152684Y23786303D01*
X53158496Y23809507D01*
X53166554Y23832029D01*
X53176782Y23853653D01*
X53189079Y23874170D01*
X53203329Y23893383D01*
X53219393Y23911107D01*
X53237117Y23927171D01*
X53256330Y23941421D01*
X53276847Y23953718D01*
X53298471Y23963946D01*
X53320993Y23972004D01*
X53344197Y23977816D01*
X53367858Y23981326D01*
X53391750Y23982500D01*
X54304250Y23982500D01*
X54328142Y23981326D01*
X54328142Y23981326D01*
G37*
D19*
X53848000Y23495000D03*
D18*
G36*
X54328142Y22106326D02*
X54351803Y22102816D01*
X54375007Y22097004D01*
X54397529Y22088946D01*
X54419153Y22078718D01*
X54439670Y22066421D01*
X54458883Y22052171D01*
X54476607Y22036107D01*
X54492671Y22018383D01*
X54506921Y21999170D01*
X54519218Y21978653D01*
X54529446Y21957029D01*
X54537504Y21934507D01*
X54543316Y21911303D01*
X54546826Y21887642D01*
X54548000Y21863750D01*
X54548000Y21376250D01*
X54546826Y21352358D01*
X54543316Y21328697D01*
X54537504Y21305493D01*
X54529446Y21282971D01*
X54519218Y21261347D01*
X54506921Y21240830D01*
X54492671Y21221617D01*
X54476607Y21203893D01*
X54458883Y21187829D01*
X54439670Y21173579D01*
X54419153Y21161282D01*
X54397529Y21151054D01*
X54375007Y21142996D01*
X54351803Y21137184D01*
X54328142Y21133674D01*
X54304250Y21132500D01*
X53391750Y21132500D01*
X53367858Y21133674D01*
X53344197Y21137184D01*
X53320993Y21142996D01*
X53298471Y21151054D01*
X53276847Y21161282D01*
X53256330Y21173579D01*
X53237117Y21187829D01*
X53219393Y21203893D01*
X53203329Y21221617D01*
X53189079Y21240830D01*
X53176782Y21261347D01*
X53166554Y21282971D01*
X53158496Y21305493D01*
X53152684Y21328697D01*
X53149174Y21352358D01*
X53148000Y21376250D01*
X53148000Y21863750D01*
X53149174Y21887642D01*
X53152684Y21911303D01*
X53158496Y21934507D01*
X53166554Y21957029D01*
X53176782Y21978653D01*
X53189079Y21999170D01*
X53203329Y22018383D01*
X53219393Y22036107D01*
X53237117Y22052171D01*
X53256330Y22066421D01*
X53276847Y22078718D01*
X53298471Y22088946D01*
X53320993Y22097004D01*
X53344197Y22102816D01*
X53367858Y22106326D01*
X53391750Y22107500D01*
X54304250Y22107500D01*
X54328142Y22106326D01*
X54328142Y22106326D01*
G37*
D19*
X53848000Y21620000D03*
D18*
G36*
X56655642Y51117826D02*
X56679303Y51114316D01*
X56702507Y51108504D01*
X56725029Y51100446D01*
X56746653Y51090218D01*
X56767170Y51077921D01*
X56786383Y51063671D01*
X56804107Y51047607D01*
X56820171Y51029883D01*
X56834421Y51010670D01*
X56846718Y50990153D01*
X56856946Y50968529D01*
X56865004Y50946007D01*
X56870816Y50922803D01*
X56874326Y50899142D01*
X56875500Y50875250D01*
X56875500Y49962750D01*
X56874326Y49938858D01*
X56870816Y49915197D01*
X56865004Y49891993D01*
X56856946Y49869471D01*
X56846718Y49847847D01*
X56834421Y49827330D01*
X56820171Y49808117D01*
X56804107Y49790393D01*
X56786383Y49774329D01*
X56767170Y49760079D01*
X56746653Y49747782D01*
X56725029Y49737554D01*
X56702507Y49729496D01*
X56679303Y49723684D01*
X56655642Y49720174D01*
X56631750Y49719000D01*
X56144250Y49719000D01*
X56120358Y49720174D01*
X56096697Y49723684D01*
X56073493Y49729496D01*
X56050971Y49737554D01*
X56029347Y49747782D01*
X56008830Y49760079D01*
X55989617Y49774329D01*
X55971893Y49790393D01*
X55955829Y49808117D01*
X55941579Y49827330D01*
X55929282Y49847847D01*
X55919054Y49869471D01*
X55910996Y49891993D01*
X55905184Y49915197D01*
X55901674Y49938858D01*
X55900500Y49962750D01*
X55900500Y50875250D01*
X55901674Y50899142D01*
X55905184Y50922803D01*
X55910996Y50946007D01*
X55919054Y50968529D01*
X55929282Y50990153D01*
X55941579Y51010670D01*
X55955829Y51029883D01*
X55971893Y51047607D01*
X55989617Y51063671D01*
X56008830Y51077921D01*
X56029347Y51090218D01*
X56050971Y51100446D01*
X56073493Y51108504D01*
X56096697Y51114316D01*
X56120358Y51117826D01*
X56144250Y51119000D01*
X56631750Y51119000D01*
X56655642Y51117826D01*
X56655642Y51117826D01*
G37*
D19*
X56388000Y50419000D03*
D18*
G36*
X58530642Y51117826D02*
X58554303Y51114316D01*
X58577507Y51108504D01*
X58600029Y51100446D01*
X58621653Y51090218D01*
X58642170Y51077921D01*
X58661383Y51063671D01*
X58679107Y51047607D01*
X58695171Y51029883D01*
X58709421Y51010670D01*
X58721718Y50990153D01*
X58731946Y50968529D01*
X58740004Y50946007D01*
X58745816Y50922803D01*
X58749326Y50899142D01*
X58750500Y50875250D01*
X58750500Y49962750D01*
X58749326Y49938858D01*
X58745816Y49915197D01*
X58740004Y49891993D01*
X58731946Y49869471D01*
X58721718Y49847847D01*
X58709421Y49827330D01*
X58695171Y49808117D01*
X58679107Y49790393D01*
X58661383Y49774329D01*
X58642170Y49760079D01*
X58621653Y49747782D01*
X58600029Y49737554D01*
X58577507Y49729496D01*
X58554303Y49723684D01*
X58530642Y49720174D01*
X58506750Y49719000D01*
X58019250Y49719000D01*
X57995358Y49720174D01*
X57971697Y49723684D01*
X57948493Y49729496D01*
X57925971Y49737554D01*
X57904347Y49747782D01*
X57883830Y49760079D01*
X57864617Y49774329D01*
X57846893Y49790393D01*
X57830829Y49808117D01*
X57816579Y49827330D01*
X57804282Y49847847D01*
X57794054Y49869471D01*
X57785996Y49891993D01*
X57780184Y49915197D01*
X57776674Y49938858D01*
X57775500Y49962750D01*
X57775500Y50875250D01*
X57776674Y50899142D01*
X57780184Y50922803D01*
X57785996Y50946007D01*
X57794054Y50968529D01*
X57804282Y50990153D01*
X57816579Y51010670D01*
X57830829Y51029883D01*
X57846893Y51047607D01*
X57864617Y51063671D01*
X57883830Y51077921D01*
X57904347Y51090218D01*
X57925971Y51100446D01*
X57948493Y51108504D01*
X57971697Y51114316D01*
X57995358Y51117826D01*
X58019250Y51119000D01*
X58506750Y51119000D01*
X58530642Y51117826D01*
X58530642Y51117826D01*
G37*
D19*
X58263000Y50419000D03*
D18*
G36*
X58530642Y70167826D02*
X58554303Y70164316D01*
X58577507Y70158504D01*
X58600029Y70150446D01*
X58621653Y70140218D01*
X58642170Y70127921D01*
X58661383Y70113671D01*
X58679107Y70097607D01*
X58695171Y70079883D01*
X58709421Y70060670D01*
X58721718Y70040153D01*
X58731946Y70018529D01*
X58740004Y69996007D01*
X58745816Y69972803D01*
X58749326Y69949142D01*
X58750500Y69925250D01*
X58750500Y69012750D01*
X58749326Y68988858D01*
X58745816Y68965197D01*
X58740004Y68941993D01*
X58731946Y68919471D01*
X58721718Y68897847D01*
X58709421Y68877330D01*
X58695171Y68858117D01*
X58679107Y68840393D01*
X58661383Y68824329D01*
X58642170Y68810079D01*
X58621653Y68797782D01*
X58600029Y68787554D01*
X58577507Y68779496D01*
X58554303Y68773684D01*
X58530642Y68770174D01*
X58506750Y68769000D01*
X58019250Y68769000D01*
X57995358Y68770174D01*
X57971697Y68773684D01*
X57948493Y68779496D01*
X57925971Y68787554D01*
X57904347Y68797782D01*
X57883830Y68810079D01*
X57864617Y68824329D01*
X57846893Y68840393D01*
X57830829Y68858117D01*
X57816579Y68877330D01*
X57804282Y68897847D01*
X57794054Y68919471D01*
X57785996Y68941993D01*
X57780184Y68965197D01*
X57776674Y68988858D01*
X57775500Y69012750D01*
X57775500Y69925250D01*
X57776674Y69949142D01*
X57780184Y69972803D01*
X57785996Y69996007D01*
X57794054Y70018529D01*
X57804282Y70040153D01*
X57816579Y70060670D01*
X57830829Y70079883D01*
X57846893Y70097607D01*
X57864617Y70113671D01*
X57883830Y70127921D01*
X57904347Y70140218D01*
X57925971Y70150446D01*
X57948493Y70158504D01*
X57971697Y70164316D01*
X57995358Y70167826D01*
X58019250Y70169000D01*
X58506750Y70169000D01*
X58530642Y70167826D01*
X58530642Y70167826D01*
G37*
D19*
X58263000Y69469000D03*
D18*
G36*
X56655642Y70167826D02*
X56679303Y70164316D01*
X56702507Y70158504D01*
X56725029Y70150446D01*
X56746653Y70140218D01*
X56767170Y70127921D01*
X56786383Y70113671D01*
X56804107Y70097607D01*
X56820171Y70079883D01*
X56834421Y70060670D01*
X56846718Y70040153D01*
X56856946Y70018529D01*
X56865004Y69996007D01*
X56870816Y69972803D01*
X56874326Y69949142D01*
X56875500Y69925250D01*
X56875500Y69012750D01*
X56874326Y68988858D01*
X56870816Y68965197D01*
X56865004Y68941993D01*
X56856946Y68919471D01*
X56846718Y68897847D01*
X56834421Y68877330D01*
X56820171Y68858117D01*
X56804107Y68840393D01*
X56786383Y68824329D01*
X56767170Y68810079D01*
X56746653Y68797782D01*
X56725029Y68787554D01*
X56702507Y68779496D01*
X56679303Y68773684D01*
X56655642Y68770174D01*
X56631750Y68769000D01*
X56144250Y68769000D01*
X56120358Y68770174D01*
X56096697Y68773684D01*
X56073493Y68779496D01*
X56050971Y68787554D01*
X56029347Y68797782D01*
X56008830Y68810079D01*
X55989617Y68824329D01*
X55971893Y68840393D01*
X55955829Y68858117D01*
X55941579Y68877330D01*
X55929282Y68897847D01*
X55919054Y68919471D01*
X55910996Y68941993D01*
X55905184Y68965197D01*
X55901674Y68988858D01*
X55900500Y69012750D01*
X55900500Y69925250D01*
X55901674Y69949142D01*
X55905184Y69972803D01*
X55910996Y69996007D01*
X55919054Y70018529D01*
X55929282Y70040153D01*
X55941579Y70060670D01*
X55955829Y70079883D01*
X55971893Y70097607D01*
X55989617Y70113671D01*
X56008830Y70127921D01*
X56029347Y70140218D01*
X56050971Y70150446D01*
X56073493Y70158504D01*
X56096697Y70164316D01*
X56120358Y70167826D01*
X56144250Y70169000D01*
X56631750Y70169000D01*
X56655642Y70167826D01*
X56655642Y70167826D01*
G37*
D19*
X56388000Y69469000D03*
D18*
G36*
X60036684Y78798621D02*
X60060345Y78795111D01*
X60083549Y78789299D01*
X60106071Y78781241D01*
X60127695Y78771013D01*
X60148212Y78758716D01*
X60167425Y78744466D01*
X60185149Y78728402D01*
X60201213Y78710678D01*
X60215463Y78691465D01*
X60227760Y78670948D01*
X60237988Y78649324D01*
X60246046Y78626802D01*
X60251858Y78603598D01*
X60255368Y78579937D01*
X60256542Y78556045D01*
X60256542Y78068545D01*
X60255368Y78044653D01*
X60251858Y78020992D01*
X60246046Y77997788D01*
X60237988Y77975266D01*
X60227760Y77953642D01*
X60215463Y77933125D01*
X60201213Y77913912D01*
X60185149Y77896188D01*
X60167425Y77880124D01*
X60148212Y77865874D01*
X60127695Y77853577D01*
X60106071Y77843349D01*
X60083549Y77835291D01*
X60060345Y77829479D01*
X60036684Y77825969D01*
X60012792Y77824795D01*
X59100292Y77824795D01*
X59076400Y77825969D01*
X59052739Y77829479D01*
X59029535Y77835291D01*
X59007013Y77843349D01*
X58985389Y77853577D01*
X58964872Y77865874D01*
X58945659Y77880124D01*
X58927935Y77896188D01*
X58911871Y77913912D01*
X58897621Y77933125D01*
X58885324Y77953642D01*
X58875096Y77975266D01*
X58867038Y77997788D01*
X58861226Y78020992D01*
X58857716Y78044653D01*
X58856542Y78068545D01*
X58856542Y78556045D01*
X58857716Y78579937D01*
X58861226Y78603598D01*
X58867038Y78626802D01*
X58875096Y78649324D01*
X58885324Y78670948D01*
X58897621Y78691465D01*
X58911871Y78710678D01*
X58927935Y78728402D01*
X58945659Y78744466D01*
X58964872Y78758716D01*
X58985389Y78771013D01*
X59007013Y78781241D01*
X59029535Y78789299D01*
X59052739Y78795111D01*
X59076400Y78798621D01*
X59100292Y78799795D01*
X60012792Y78799795D01*
X60036684Y78798621D01*
X60036684Y78798621D01*
G37*
D19*
X59556542Y78312295D03*
D18*
G36*
X60036684Y76923621D02*
X60060345Y76920111D01*
X60083549Y76914299D01*
X60106071Y76906241D01*
X60127695Y76896013D01*
X60148212Y76883716D01*
X60167425Y76869466D01*
X60185149Y76853402D01*
X60201213Y76835678D01*
X60215463Y76816465D01*
X60227760Y76795948D01*
X60237988Y76774324D01*
X60246046Y76751802D01*
X60251858Y76728598D01*
X60255368Y76704937D01*
X60256542Y76681045D01*
X60256542Y76193545D01*
X60255368Y76169653D01*
X60251858Y76145992D01*
X60246046Y76122788D01*
X60237988Y76100266D01*
X60227760Y76078642D01*
X60215463Y76058125D01*
X60201213Y76038912D01*
X60185149Y76021188D01*
X60167425Y76005124D01*
X60148212Y75990874D01*
X60127695Y75978577D01*
X60106071Y75968349D01*
X60083549Y75960291D01*
X60060345Y75954479D01*
X60036684Y75950969D01*
X60012792Y75949795D01*
X59100292Y75949795D01*
X59076400Y75950969D01*
X59052739Y75954479D01*
X59029535Y75960291D01*
X59007013Y75968349D01*
X58985389Y75978577D01*
X58964872Y75990874D01*
X58945659Y76005124D01*
X58927935Y76021188D01*
X58911871Y76038912D01*
X58897621Y76058125D01*
X58885324Y76078642D01*
X58875096Y76100266D01*
X58867038Y76122788D01*
X58861226Y76145992D01*
X58857716Y76169653D01*
X58856542Y76193545D01*
X58856542Y76681045D01*
X58857716Y76704937D01*
X58861226Y76728598D01*
X58867038Y76751802D01*
X58875096Y76774324D01*
X58885324Y76795948D01*
X58897621Y76816465D01*
X58911871Y76835678D01*
X58927935Y76853402D01*
X58945659Y76869466D01*
X58964872Y76883716D01*
X58985389Y76896013D01*
X59007013Y76906241D01*
X59029535Y76914299D01*
X59052739Y76920111D01*
X59076400Y76923621D01*
X59100292Y76924795D01*
X60012792Y76924795D01*
X60036684Y76923621D01*
X60036684Y76923621D01*
G37*
D19*
X59556542Y76437295D03*
D20*
X2413000Y37464000D03*
X2413000Y34164000D03*
X2540000Y50928000D03*
X2540000Y54228000D03*
D21*
X13753000Y52324000D03*
X13208000Y71374000D03*
X14478000Y72644000D03*
X58293000Y48514000D03*
X58293000Y22860000D03*
X62738000Y8890000D03*
X59563000Y8890000D03*
X56388000Y48514000D03*
X56388000Y21590000D03*
X17557563Y10847827D03*
X18923000Y10160000D03*
X4318000Y19685000D03*
X43688000Y20955000D03*
X36068000Y32929990D03*
X3920937Y12277294D03*
X3702368Y32294990D03*
X3201005Y11583233D03*
X2903997Y31692805D03*
X2503010Y10867115D03*
X2230364Y30944722D03*
X1778000Y10160000D03*
X1778000Y29845000D03*
X1778000Y8255000D03*
X5588000Y24765000D03*
X5588000Y29210000D03*
X34798000Y33020000D03*
X43688000Y27305000D03*
X51943000Y27305000D03*
X29083000Y17780000D03*
X26543000Y17780000D03*
X15748000Y24765000D03*
X14478000Y24765000D03*
X13208000Y24765000D03*
X11938000Y24765000D03*
X10668000Y24765000D03*
X9398000Y24765000D03*
X8128000Y24765000D03*
X6858000Y24765000D03*
X22098000Y12065000D03*
X21390885Y12772115D03*
X20683770Y13479230D03*
X19976655Y14186345D03*
X19269540Y14893460D03*
X18544530Y15600927D03*
X17819520Y16316871D03*
X17094510Y17037414D03*
X44323000Y29210000D03*
X14478000Y29210000D03*
X44958000Y20955000D03*
X31623000Y20955000D03*
X29083000Y23495000D03*
X18288000Y28575000D03*
X2540000Y52832000D03*
D22*
X51308000Y50419000D02*
X52578000Y51689000D01*
X52578000Y77724000D02*
X53848000Y78994000D01*
X52483001Y77629001D02*
X52578000Y77724000D01*
X52483001Y51783999D02*
X52483001Y77629001D01*
X52578000Y51689000D02*
X52483001Y51783999D01*
X49943001Y77629001D02*
X51308000Y78994000D01*
X48768000Y50419000D02*
X49943001Y51594001D01*
X49943001Y51594001D02*
X49943001Y77629001D01*
X47918001Y78144001D02*
X48768000Y78994000D01*
X47592999Y77818999D02*
X47918001Y78144001D01*
X46228000Y50419000D02*
X47592999Y51783999D01*
X47592999Y51783999D02*
X47592999Y77818999D01*
X44863001Y77629001D02*
X46228000Y78994000D01*
X43688000Y50419000D02*
X44863001Y51594001D01*
X44863001Y51594001D02*
X44863001Y77629001D01*
X42838001Y78144001D02*
X43688000Y78994000D01*
X42323001Y77629001D02*
X42838001Y78144001D01*
X41148000Y50419000D02*
X42323001Y51594001D01*
X42323001Y51594001D02*
X42323001Y77629001D01*
X39783001Y77629001D02*
X41148000Y78994000D01*
X38608000Y50419000D02*
X39783001Y51594001D01*
X39783001Y51594001D02*
X39783001Y77629001D01*
X37758001Y78144001D02*
X38608000Y78994000D01*
X37338000Y77724000D02*
X37758001Y78144001D01*
X36068000Y50419000D02*
X37338000Y51689000D01*
X37338000Y51689000D02*
X37338000Y77724000D01*
X34703001Y77629001D02*
X36068000Y78994000D01*
X33528000Y50419000D02*
X34703001Y51594001D01*
X34703001Y51594001D02*
X34703001Y77629001D01*
X32678001Y78144001D02*
X33528000Y78994000D01*
X32163001Y77629001D02*
X32678001Y78144001D01*
X30988000Y50419000D02*
X32163001Y51594001D01*
X32163001Y51594001D02*
X32163001Y77629001D01*
X28448000Y50419000D02*
X29623001Y51594001D01*
X29623001Y77629001D02*
X30988000Y78994000D01*
X29623001Y51594001D02*
X29623001Y77629001D01*
X27598001Y78144001D02*
X28448000Y78994000D01*
X27083001Y77629001D02*
X27598001Y78144001D01*
X25908000Y50419000D02*
X27083001Y51594001D01*
X27083001Y51594001D02*
X27083001Y77629001D01*
X24732999Y77818999D02*
X25908000Y78994000D01*
X23368000Y50419000D02*
X24732999Y51783999D01*
X24732999Y51783999D02*
X24732999Y77818999D01*
X22518001Y78144001D02*
X23368000Y78994000D01*
X22192999Y77818999D02*
X22518001Y78144001D01*
X20828000Y50419000D02*
X22192999Y51783999D01*
X22192999Y51783999D02*
X22192999Y77818999D01*
X19978001Y78144001D02*
X20828000Y78994000D01*
X19463001Y77629001D02*
X19978001Y78144001D01*
X18288000Y50419000D02*
X19463001Y51594001D01*
X19463001Y51594001D02*
X19463001Y77629001D01*
X17438001Y78144001D02*
X18288000Y78994000D01*
X16923001Y77629001D02*
X17438001Y78144001D01*
X15748000Y50419000D02*
X16923001Y51594001D01*
X16923001Y51594001D02*
X16923001Y77629001D01*
X14478000Y77724000D02*
X15748000Y78994000D01*
X14622999Y53193999D02*
X14622999Y71715997D01*
X13753000Y52324000D02*
X14622999Y53193999D01*
X14622999Y71715997D02*
X15203001Y72295999D01*
X15203001Y75278999D02*
X14478000Y76004000D01*
X15203001Y72295999D02*
X15203001Y75278999D01*
X14478000Y76004000D02*
X14478000Y77724000D01*
X25908000Y37084000D02*
X14622999Y48369001D01*
X11938000Y77724000D02*
X13208000Y78994000D01*
X53848000Y35179000D02*
X53848000Y36310370D01*
X53848000Y36310370D02*
X53074370Y37084000D01*
X53074370Y37084000D02*
X25908000Y37084000D01*
X13693003Y51598999D02*
X14622999Y50669003D01*
X14622999Y50669003D02*
X14622999Y48369001D01*
X13298001Y51598999D02*
X13693003Y51598999D01*
X11843001Y53053999D02*
X13298001Y51598999D01*
X11843001Y77629001D02*
X11938000Y77724000D01*
X11843001Y53053999D02*
X11843001Y77629001D01*
X9398000Y77724000D02*
X10668000Y78994000D01*
X50182999Y36304001D02*
X25657997Y36304001D01*
X51308000Y35179000D02*
X50182999Y36304001D01*
X25657997Y36304001D02*
X11793001Y50168997D01*
X11793001Y50168997D02*
X11793001Y50959001D01*
X11793001Y50959001D02*
X9398000Y53354002D01*
X9398000Y53354002D02*
X9398000Y77724000D01*
X8128000Y78994000D02*
X6858000Y77724000D01*
X6858000Y53833998D02*
X6858000Y77724000D01*
X9868001Y51218999D02*
X9472999Y51218999D01*
X9472999Y51218999D02*
X6858000Y53833998D01*
X10668000Y50419000D02*
X9868001Y51218999D01*
X4318000Y77724000D02*
X5588000Y78994000D01*
X4318000Y53833998D02*
X4318000Y77724000D01*
X6932999Y51218999D02*
X4318000Y53833998D01*
X7328001Y51218999D02*
X6932999Y51218999D01*
X8128000Y50419000D02*
X7328001Y51218999D01*
X13208000Y71374000D02*
X14478000Y72644000D01*
D23*
X60833000Y9009000D02*
X60833000Y10795000D01*
X62357000Y1905000D02*
X62357000Y7485000D01*
X62357000Y7485000D02*
X60833000Y9009000D01*
X60833000Y10795000D02*
X60833000Y14605000D01*
X18288000Y23495000D02*
X5588000Y23495000D01*
X4445000Y24638000D02*
X4445000Y27179000D01*
X5588000Y23495000D02*
X4445000Y24638000D01*
X30353000Y19525000D02*
X30353000Y20955000D01*
X30353000Y20955000D02*
X31623000Y22225000D01*
X37338000Y23495000D02*
X31623000Y23495000D01*
X31623000Y22225000D02*
X31623000Y23495000D01*
X31623000Y23495000D02*
X31623000Y24925000D01*
X31623000Y26175000D02*
X31128000Y26670000D01*
X31623000Y24925000D02*
X31623000Y26175000D01*
X31128000Y26670000D02*
X27178000Y26670000D01*
X27178000Y26670000D02*
X26543000Y26035000D01*
X26543000Y26035000D02*
X26543000Y24925000D01*
X26543000Y23675000D02*
X26543000Y24925000D01*
X26363000Y23495000D02*
X26543000Y23675000D01*
X18288000Y23495000D02*
X26363000Y23495000D01*
X43688000Y23675000D02*
X43688000Y24925000D01*
X43868000Y23495000D02*
X43688000Y23675000D01*
X53848000Y23495000D02*
X43868000Y23495000D01*
X38768000Y24925000D02*
X37338000Y23495000D01*
X43688000Y24925000D02*
X38768000Y24925000D01*
X53848000Y23495000D02*
X57658000Y23495000D01*
X57658000Y23495000D02*
X60833000Y20320000D01*
X60833000Y20320000D02*
X60833000Y14605000D01*
X58263000Y50419000D02*
X58263000Y48544000D01*
X58263000Y48544000D02*
X58293000Y48514000D01*
X58891542Y78977295D02*
X59556542Y78312295D01*
X56381542Y78977295D02*
X58891542Y78977295D01*
X58263000Y50419000D02*
X58263000Y69469000D01*
X60112779Y77756058D02*
X59556542Y78312295D01*
X60706552Y71325052D02*
X60706552Y77162285D01*
X60706552Y77162285D02*
X60112779Y77756058D01*
X58850500Y69469000D02*
X60706552Y71325052D01*
X58263000Y69469000D02*
X58850500Y69469000D01*
X62738000Y10765000D02*
X62708000Y10795000D01*
X62738000Y8890000D02*
X62738000Y10765000D01*
X62708000Y14605000D02*
X62708000Y10795000D01*
X18288000Y21620000D02*
X16413000Y21620000D01*
X15875000Y21082000D02*
X15875000Y17779000D01*
X16413000Y21620000D02*
X15875000Y21082000D01*
X37338000Y21620000D02*
X34828000Y21620000D01*
X34163000Y20955000D02*
X34163000Y19525000D01*
X34828000Y21620000D02*
X34163000Y20955000D01*
X34163000Y19075000D02*
X34163000Y19525000D01*
X31598000Y16510000D02*
X34163000Y19075000D01*
X25273000Y16510000D02*
X31598000Y16510000D01*
X18288000Y21620000D02*
X20163000Y21620000D01*
X20163000Y21620000D02*
X25273000Y16510000D01*
X53848000Y21620000D02*
X51973000Y21620000D01*
X51308000Y20955000D02*
X51308000Y19525000D01*
X51973000Y21620000D02*
X51308000Y20955000D01*
X53848000Y21620000D02*
X56358000Y21620000D01*
X56358000Y21620000D02*
X59563000Y18415000D01*
X59563000Y18415000D02*
X59563000Y8890000D01*
X37338000Y21620000D02*
X37894237Y22176237D01*
X37894237Y22176237D02*
X44994767Y22176237D01*
X45551004Y21620000D02*
X51973000Y21620000D01*
X44994767Y22176237D02*
X45551004Y21620000D01*
X56388000Y50419000D02*
X56388000Y48514000D01*
X53848000Y50419000D02*
X56388000Y50419000D01*
X53848000Y69469000D02*
X56388000Y69469000D01*
X56381542Y76437295D02*
X59556542Y76437295D01*
X56388000Y69469000D02*
X56388000Y50419000D01*
X56388000Y76430837D02*
X56381542Y76437295D01*
X56388000Y69469000D02*
X56388000Y76430837D01*
D22*
X4445000Y17104000D02*
X10701173Y10847827D01*
X16991878Y10847827D02*
X17557563Y10847827D01*
X10701173Y10847827D02*
X16991878Y10847827D01*
X4445000Y17779000D02*
X4445000Y17104000D01*
X18923000Y10160000D02*
X43688000Y10160000D01*
X44577000Y9271000D02*
X44577000Y1905000D01*
X43688000Y10160000D02*
X44577000Y9271000D01*
X4445000Y19004000D02*
X4318000Y19131000D01*
X4445000Y17779000D02*
X4445000Y19004000D01*
X4318000Y19131000D02*
X4318000Y19685000D01*
X43688000Y19525000D02*
X43688000Y20955000D01*
X41783000Y11430000D02*
X43597999Y13244999D01*
X22536004Y11430000D02*
X41783000Y11430000D01*
X43688000Y18525000D02*
X43688000Y19525000D01*
X43688000Y15678002D02*
X43688000Y18525000D01*
X14097000Y1905000D02*
X14097000Y6223000D01*
X14097000Y6223000D02*
X18197999Y10323999D01*
X43597999Y15588001D02*
X43688000Y15678002D01*
X22085993Y10979989D02*
X22536004Y11430000D01*
X18669987Y10979989D02*
X22085993Y10979989D01*
X18197999Y10508001D02*
X18669987Y10979989D01*
X43597999Y13244999D02*
X43597999Y15588001D01*
X18197999Y10323999D02*
X18197999Y10508001D01*
X14641998Y33745002D02*
X13208000Y35179000D01*
X36068000Y32929990D02*
X35252988Y33745002D01*
X35252988Y33745002D02*
X14641998Y33745002D01*
X4486622Y12277294D02*
X3920937Y12277294D01*
X11557000Y1905000D02*
X11557000Y6223000D01*
X11557000Y6223000D02*
X5502706Y12277294D01*
X5502706Y12277294D02*
X4486622Y12277294D01*
X34450006Y32294990D02*
X4268053Y32294990D01*
X4268053Y32294990D02*
X3702368Y32294990D01*
X41148000Y35179000D02*
X38173988Y32204988D01*
X38173988Y32204988D02*
X34540008Y32204988D01*
X34540008Y32204988D02*
X34450006Y32294990D01*
X3656767Y11583233D02*
X3201005Y11583233D01*
X9017000Y1905000D02*
X9017000Y6223000D01*
X9017000Y6223000D02*
X3656767Y11583233D01*
X40078988Y31569988D02*
X3026814Y31569988D01*
X3026814Y31569988D02*
X2903997Y31692805D01*
X43688000Y35179000D02*
X40078988Y31569988D01*
X6477000Y1905000D02*
X6477000Y6223000D01*
X5465000Y7235000D02*
X5465000Y7905125D01*
X5465000Y7905125D02*
X2903009Y10467116D01*
X6477000Y6223000D02*
X5465000Y7235000D01*
X2903009Y10467116D02*
X2503010Y10867115D01*
X46228000Y35179000D02*
X41993722Y30944722D01*
X41993722Y30944722D02*
X2230364Y30944722D01*
X3937000Y8001000D02*
X1778000Y10160000D01*
X3937000Y1905000D02*
X3937000Y8001000D01*
X14916004Y29845000D02*
X43434000Y29845000D01*
X14826002Y29935002D02*
X14916004Y29845000D01*
X14129998Y29935002D02*
X14826002Y29935002D01*
X5149996Y29845000D02*
X5239998Y29935002D01*
X1778000Y29845000D02*
X5149996Y29845000D01*
X43434000Y29845000D02*
X48768000Y35179000D01*
X5239998Y29935002D02*
X5936002Y29935002D01*
X5936002Y29935002D02*
X6026004Y29845000D01*
X6026004Y29845000D02*
X14039996Y29845000D01*
X14039996Y29845000D02*
X14129998Y29935002D01*
X1397000Y1905000D02*
X1397000Y7874000D01*
X1397000Y7874000D02*
X1778000Y8255000D01*
X5588000Y27052000D02*
X5715000Y27179000D01*
X5588000Y24765000D02*
X5588000Y27052000D01*
X5715000Y27179000D02*
X5715000Y29083000D01*
X5715000Y29083000D02*
X5588000Y29210000D01*
X43688000Y27305000D02*
X51943000Y27305000D01*
X34798000Y33020000D02*
X4407000Y33020000D01*
X3263000Y34164000D02*
X2413000Y34164000D01*
X4407000Y33020000D02*
X3263000Y34164000D01*
X2540000Y50928000D02*
X2540000Y39497000D01*
X1487999Y38444999D02*
X1487999Y36104001D01*
X2540000Y39497000D02*
X1487999Y38444999D01*
X2413000Y35179000D02*
X2413000Y34164000D01*
X1487999Y36104001D02*
X2413000Y35179000D01*
X29083000Y19525000D02*
X29083000Y20955000D01*
X30353000Y22225000D02*
X30353000Y24925000D01*
X29083000Y20955000D02*
X30353000Y22225000D01*
X29083000Y17780000D02*
X29083000Y19525000D01*
X27813000Y24925000D02*
X27813000Y19525000D01*
X27813000Y19525000D02*
X26543000Y19525000D01*
X26543000Y17780000D02*
X26543000Y19525000D01*
X15748000Y27052000D02*
X15875000Y27179000D01*
X15748000Y24765000D02*
X15748000Y27052000D01*
X14478000Y27052000D02*
X14605000Y27179000D01*
X14478000Y24765000D02*
X14478000Y27052000D01*
X13208000Y27052000D02*
X13335000Y27179000D01*
X13208000Y24765000D02*
X13208000Y27052000D01*
X11938000Y27052000D02*
X12065000Y27179000D01*
X11938000Y24765000D02*
X11938000Y27052000D01*
X10668000Y27052000D02*
X10795000Y27179000D01*
X10668000Y24765000D02*
X10668000Y27052000D01*
X9398000Y27052000D02*
X9525000Y27179000D01*
X9398000Y24765000D02*
X9398000Y27052000D01*
X8128000Y27052000D02*
X8255000Y27179000D01*
X8128000Y24765000D02*
X8128000Y27052000D01*
X6858000Y27052000D02*
X6985000Y27179000D01*
X6858000Y24765000D02*
X6858000Y27052000D01*
X5715000Y17779000D02*
X6265000Y17779000D01*
X6265000Y17779000D02*
X6359999Y17684001D01*
X6359999Y17684001D02*
X6359999Y16543999D01*
X21647990Y11614990D02*
X21698001Y11665001D01*
X21698001Y11665001D02*
X22098000Y12065000D01*
X11837600Y11614990D02*
X21647990Y11614990D01*
X6973591Y16478999D02*
X11837600Y11614990D01*
X6424999Y16478999D02*
X6973591Y16478999D01*
X6359999Y16543999D02*
X6424999Y16478999D01*
X20990886Y12372116D02*
X21390885Y12772115D01*
X6985000Y17779000D02*
X6985000Y17104000D01*
X6985000Y17104000D02*
X12024000Y12065000D01*
X20683770Y12065000D02*
X20990886Y12372116D01*
X12024000Y12065000D02*
X20683770Y12065000D01*
X19904540Y12700000D02*
X20283771Y13079231D01*
X8255000Y17104000D02*
X12659000Y12700000D01*
X8255000Y17779000D02*
X8255000Y17104000D01*
X12659000Y12700000D02*
X19904540Y12700000D01*
X20283771Y13079231D02*
X20683770Y13479230D01*
X13294000Y13335000D02*
X19125310Y13335000D01*
X19125310Y13335000D02*
X19576656Y13786346D01*
X19576656Y13786346D02*
X19976655Y14186345D01*
X9525000Y17779000D02*
X9525000Y17104000D01*
X9525000Y17104000D02*
X13294000Y13335000D01*
X10795000Y17779000D02*
X10795000Y17104000D01*
X13929000Y13970000D02*
X18346080Y13970000D01*
X18346080Y13970000D02*
X18869541Y14493461D01*
X10795000Y17104000D02*
X13929000Y13970000D01*
X18869541Y14493461D02*
X19269540Y14893460D01*
X18144531Y15200928D02*
X18544530Y15600927D01*
X14564000Y14605000D02*
X17548603Y14605000D01*
X12065000Y17104000D02*
X14564000Y14605000D01*
X12065000Y17779000D02*
X12065000Y17104000D01*
X17548603Y14605000D02*
X18144531Y15200928D01*
X13335000Y17104000D02*
X15199000Y15240000D01*
X15199000Y15240000D02*
X16742649Y15240000D01*
X17419521Y15916872D02*
X17819520Y16316871D01*
X16742649Y15240000D02*
X17419521Y15916872D01*
X13335000Y17779000D02*
X13335000Y17104000D01*
X15932096Y15875000D02*
X16694511Y16637415D01*
X16694511Y16637415D02*
X17094510Y17037414D01*
X15834000Y15875000D02*
X15932096Y15875000D01*
X14605000Y17104000D02*
X15834000Y15875000D01*
X14605000Y17779000D02*
X14605000Y17104000D01*
X44958000Y19525000D02*
X44958000Y20955000D01*
X17849998Y29210000D02*
X15043685Y29210000D01*
X15043685Y29210000D02*
X14478000Y29210000D01*
X17939999Y29300001D02*
X17849998Y29210000D01*
X18636001Y29300001D02*
X17939999Y29300001D01*
X18726002Y29210000D02*
X18636001Y29300001D01*
X44323000Y29210000D02*
X18726002Y29210000D01*
X31623000Y19525000D02*
X31623000Y20955000D01*
X29083000Y23495000D02*
X29083000Y24925000D01*
X18288000Y28575000D02*
X32258000Y28575000D01*
X32258000Y28575000D02*
X32893000Y27940000D01*
X32893000Y27940000D02*
X32893000Y24925000D01*
X3303000Y37464000D02*
X2413000Y37464000D01*
X5588000Y35179000D02*
X3303000Y37464000D01*
X2540000Y52832000D02*
X2540000Y54228000D01*
D24*
G36*
X6418198Y7747000D02*
X6225000Y7747000D01*
X6225000Y7830279D01*
X6239888Y7905126D01*
X6234876Y7930322D01*
X6418198Y7747000D01*
X6418198Y7747000D01*
G37*
X6418198Y7747000D02*
X6225000Y7747000D01*
X6225000Y7830279D01*
X6239888Y7905126D01*
X6234876Y7930322D01*
X6418198Y7747000D01*
G36*
X43817000Y8956198D02*
X43817000Y7747000D01*
X16695802Y7747000D01*
X18284046Y9335243D01*
X18336720Y9282569D01*
X18717126Y9125000D01*
X19128874Y9125000D01*
X19509280Y9282569D01*
X19626711Y9400000D01*
X43373199Y9400000D01*
X43817000Y8956198D01*
X43817000Y8956198D01*
G37*
X43817000Y8956198D02*
X43817000Y7747000D01*
X16695802Y7747000D01*
X18284046Y9335243D01*
X18336720Y9282569D01*
X18717126Y9125000D01*
X19128874Y9125000D01*
X19509280Y9282569D01*
X19626711Y9400000D01*
X43373199Y9400000D01*
X43817000Y8956198D01*
G36*
X3558000Y55162409D02*
X3387765Y55276157D01*
X3140000Y55325440D01*
X1940000Y55325440D01*
X1692235Y55276157D01*
X1482191Y55135809D01*
X1341843Y54925765D01*
X1292560Y54678000D01*
X1292560Y53778000D01*
X1341843Y53530235D01*
X1482191Y53320191D01*
X1591646Y53247055D01*
X1505000Y53037874D01*
X1505000Y52626126D01*
X1662569Y52245720D01*
X1892331Y52015958D01*
X1692235Y51976157D01*
X1482191Y51835809D01*
X1341843Y51625765D01*
X1292560Y51378000D01*
X1292560Y50478000D01*
X1341843Y50230235D01*
X1482191Y50020191D01*
X1692235Y49879843D01*
X1780000Y49862386D01*
X1780001Y39811803D01*
X1003529Y39035330D01*
X940070Y38992928D01*
X772095Y38741535D01*
X727999Y38519850D01*
X727999Y38519846D01*
X713111Y38444999D01*
X727999Y38370152D01*
X728000Y36178853D01*
X713111Y36104001D01*
X728000Y36029149D01*
X772096Y35807464D01*
X940071Y35556072D01*
X1003527Y35513672D01*
X1409261Y35107938D01*
X1355191Y35071809D01*
X1214843Y34861765D01*
X1165560Y34614000D01*
X1165560Y33714000D01*
X1214843Y33466235D01*
X1355191Y33256191D01*
X1565235Y33115843D01*
X1813000Y33066560D01*
X3010227Y33066560D01*
X2824937Y32881270D01*
X2761370Y32727805D01*
X2698123Y32727805D01*
X2317717Y32570236D01*
X2026566Y32279085D01*
X1877315Y31918760D01*
X1644084Y31822153D01*
X1352933Y31531002D01*
X1195364Y31150596D01*
X1195364Y30738848D01*
X1200635Y30726124D01*
X1191720Y30722431D01*
X900569Y30431280D01*
X743000Y30050874D01*
X743000Y29639126D01*
X900569Y29258720D01*
X1191720Y28967569D01*
X1572126Y28810000D01*
X1983874Y28810000D01*
X2364280Y28967569D01*
X2481711Y29085000D01*
X4553000Y29085000D01*
X4553000Y29004126D01*
X4636955Y28801440D01*
X4145000Y28801440D01*
X3897235Y28752157D01*
X3687191Y28611809D01*
X3546843Y28401765D01*
X3497560Y28154000D01*
X3497560Y26204000D01*
X3546843Y25956235D01*
X3560001Y25936544D01*
X3560000Y24725161D01*
X3542663Y24638000D01*
X3560000Y24550839D01*
X3560000Y24550836D01*
X3611348Y24292691D01*
X3806951Y23999951D01*
X3880847Y23950575D01*
X4900577Y22930844D01*
X4949951Y22856951D01*
X5023844Y22807577D01*
X5023845Y22807576D01*
X5102620Y22754940D01*
X5242690Y22661348D01*
X5500835Y22610000D01*
X5500839Y22610000D01*
X5587999Y22592663D01*
X5675159Y22610000D01*
X17218172Y22610000D01*
X17296744Y22557500D01*
X17218172Y22505000D01*
X16500161Y22505000D01*
X16413000Y22522337D01*
X16325839Y22505000D01*
X16325835Y22505000D01*
X16067690Y22453652D01*
X15774951Y22258049D01*
X15725576Y22184154D01*
X15310847Y21769425D01*
X15236951Y21720049D01*
X15041348Y21427309D01*
X14990000Y21169164D01*
X14990000Y21169161D01*
X14972663Y21082000D01*
X14990000Y20994839D01*
X14990001Y19384533D01*
X14905000Y19401440D01*
X14305000Y19401440D01*
X14057235Y19352157D01*
X13970000Y19293868D01*
X13882765Y19352157D01*
X13635000Y19401440D01*
X13035000Y19401440D01*
X12787235Y19352157D01*
X12700000Y19293868D01*
X12612765Y19352157D01*
X12365000Y19401440D01*
X11765000Y19401440D01*
X11517235Y19352157D01*
X11430000Y19293868D01*
X11342765Y19352157D01*
X11095000Y19401440D01*
X10495000Y19401440D01*
X10247235Y19352157D01*
X10160000Y19293868D01*
X10072765Y19352157D01*
X9825000Y19401440D01*
X9225000Y19401440D01*
X8977235Y19352157D01*
X8890000Y19293868D01*
X8802765Y19352157D01*
X8555000Y19401440D01*
X7955000Y19401440D01*
X7707235Y19352157D01*
X7620000Y19293868D01*
X7532765Y19352157D01*
X7285000Y19401440D01*
X6685000Y19401440D01*
X6437235Y19352157D01*
X6350000Y19293868D01*
X6262765Y19352157D01*
X6015000Y19401440D01*
X5415000Y19401440D01*
X5312365Y19381025D01*
X5353000Y19479126D01*
X5353000Y19890874D01*
X5195431Y20271280D01*
X4904280Y20562431D01*
X4523874Y20720000D01*
X4112126Y20720000D01*
X3731720Y20562431D01*
X3440569Y20271280D01*
X3283000Y19890874D01*
X3283000Y19479126D01*
X3440569Y19098720D01*
X3545297Y18993992D01*
X3497560Y18754000D01*
X3497560Y16804000D01*
X3546843Y16556235D01*
X3687191Y16346191D01*
X3897235Y16205843D01*
X4145000Y16156560D01*
X4317639Y16156560D01*
X10110844Y10363354D01*
X10153244Y10299898D01*
X10216700Y10257498D01*
X10404635Y10131923D01*
X10452778Y10122347D01*
X10626321Y10087827D01*
X10626325Y10087827D01*
X10701173Y10072939D01*
X10776021Y10087827D01*
X16853852Y10087827D01*
X16870438Y10071241D01*
X14546199Y7747000D01*
X11107802Y7747000D01*
X6093037Y12761764D01*
X6050635Y12825223D01*
X5799243Y12993198D01*
X5577558Y13037294D01*
X5577553Y13037294D01*
X5502706Y13052182D01*
X5427859Y13037294D01*
X4624648Y13037294D01*
X4507217Y13154725D01*
X4126811Y13312294D01*
X3715063Y13312294D01*
X3334657Y13154725D01*
X3043506Y12863574D01*
X2930855Y12591609D01*
X2614725Y12460664D01*
X2323574Y12169513D01*
X2195351Y11859954D01*
X1916730Y11744546D01*
X1625579Y11453395D01*
X1507452Y11168211D01*
X1191720Y11037431D01*
X900569Y10746280D01*
X743000Y10365874D01*
X743000Y9954126D01*
X900569Y9573720D01*
X1191720Y9282569D01*
X1372953Y9207500D01*
X1191720Y9132431D01*
X900569Y8841280D01*
X743000Y8460874D01*
X743000Y8263181D01*
X710000Y8213793D01*
X710000Y57268905D01*
X3558000Y57268905D01*
X3558000Y55162409D01*
X3558000Y55162409D01*
G37*
X3558000Y55162409D02*
X3387765Y55276157D01*
X3140000Y55325440D01*
X1940000Y55325440D01*
X1692235Y55276157D01*
X1482191Y55135809D01*
X1341843Y54925765D01*
X1292560Y54678000D01*
X1292560Y53778000D01*
X1341843Y53530235D01*
X1482191Y53320191D01*
X1591646Y53247055D01*
X1505000Y53037874D01*
X1505000Y52626126D01*
X1662569Y52245720D01*
X1892331Y52015958D01*
X1692235Y51976157D01*
X1482191Y51835809D01*
X1341843Y51625765D01*
X1292560Y51378000D01*
X1292560Y50478000D01*
X1341843Y50230235D01*
X1482191Y50020191D01*
X1692235Y49879843D01*
X1780000Y49862386D01*
X1780001Y39811803D01*
X1003529Y39035330D01*
X940070Y38992928D01*
X772095Y38741535D01*
X727999Y38519850D01*
X727999Y38519846D01*
X713111Y38444999D01*
X727999Y38370152D01*
X728000Y36178853D01*
X713111Y36104001D01*
X728000Y36029149D01*
X772096Y35807464D01*
X940071Y35556072D01*
X1003527Y35513672D01*
X1409261Y35107938D01*
X1355191Y35071809D01*
X1214843Y34861765D01*
X1165560Y34614000D01*
X1165560Y33714000D01*
X1214843Y33466235D01*
X1355191Y33256191D01*
X1565235Y33115843D01*
X1813000Y33066560D01*
X3010227Y33066560D01*
X2824937Y32881270D01*
X2761370Y32727805D01*
X2698123Y32727805D01*
X2317717Y32570236D01*
X2026566Y32279085D01*
X1877315Y31918760D01*
X1644084Y31822153D01*
X1352933Y31531002D01*
X1195364Y31150596D01*
X1195364Y30738848D01*
X1200635Y30726124D01*
X1191720Y30722431D01*
X900569Y30431280D01*
X743000Y30050874D01*
X743000Y29639126D01*
X900569Y29258720D01*
X1191720Y28967569D01*
X1572126Y28810000D01*
X1983874Y28810000D01*
X2364280Y28967569D01*
X2481711Y29085000D01*
X4553000Y29085000D01*
X4553000Y29004126D01*
X4636955Y28801440D01*
X4145000Y28801440D01*
X3897235Y28752157D01*
X3687191Y28611809D01*
X3546843Y28401765D01*
X3497560Y28154000D01*
X3497560Y26204000D01*
X3546843Y25956235D01*
X3560001Y25936544D01*
X3560000Y24725161D01*
X3542663Y24638000D01*
X3560000Y24550839D01*
X3560000Y24550836D01*
X3611348Y24292691D01*
X3806951Y23999951D01*
X3880847Y23950575D01*
X4900577Y22930844D01*
X4949951Y22856951D01*
X5023844Y22807577D01*
X5023845Y22807576D01*
X5102620Y22754940D01*
X5242690Y22661348D01*
X5500835Y22610000D01*
X5500839Y22610000D01*
X5587999Y22592663D01*
X5675159Y22610000D01*
X17218172Y22610000D01*
X17296744Y22557500D01*
X17218172Y22505000D01*
X16500161Y22505000D01*
X16413000Y22522337D01*
X16325839Y22505000D01*
X16325835Y22505000D01*
X16067690Y22453652D01*
X15774951Y22258049D01*
X15725576Y22184154D01*
X15310847Y21769425D01*
X15236951Y21720049D01*
X15041348Y21427309D01*
X14990000Y21169164D01*
X14990000Y21169161D01*
X14972663Y21082000D01*
X14990000Y20994839D01*
X14990001Y19384533D01*
X14905000Y19401440D01*
X14305000Y19401440D01*
X14057235Y19352157D01*
X13970000Y19293868D01*
X13882765Y19352157D01*
X13635000Y19401440D01*
X13035000Y19401440D01*
X12787235Y19352157D01*
X12700000Y19293868D01*
X12612765Y19352157D01*
X12365000Y19401440D01*
X11765000Y19401440D01*
X11517235Y19352157D01*
X11430000Y19293868D01*
X11342765Y19352157D01*
X11095000Y19401440D01*
X10495000Y19401440D01*
X10247235Y19352157D01*
X10160000Y19293868D01*
X10072765Y19352157D01*
X9825000Y19401440D01*
X9225000Y19401440D01*
X8977235Y19352157D01*
X8890000Y19293868D01*
X8802765Y19352157D01*
X8555000Y19401440D01*
X7955000Y19401440D01*
X7707235Y19352157D01*
X7620000Y19293868D01*
X7532765Y19352157D01*
X7285000Y19401440D01*
X6685000Y19401440D01*
X6437235Y19352157D01*
X6350000Y19293868D01*
X6262765Y19352157D01*
X6015000Y19401440D01*
X5415000Y19401440D01*
X5312365Y19381025D01*
X5353000Y19479126D01*
X5353000Y19890874D01*
X5195431Y20271280D01*
X4904280Y20562431D01*
X4523874Y20720000D01*
X4112126Y20720000D01*
X3731720Y20562431D01*
X3440569Y20271280D01*
X3283000Y19890874D01*
X3283000Y19479126D01*
X3440569Y19098720D01*
X3545297Y18993992D01*
X3497560Y18754000D01*
X3497560Y16804000D01*
X3546843Y16556235D01*
X3687191Y16346191D01*
X3897235Y16205843D01*
X4145000Y16156560D01*
X4317639Y16156560D01*
X10110844Y10363354D01*
X10153244Y10299898D01*
X10216700Y10257498D01*
X10404635Y10131923D01*
X10452778Y10122347D01*
X10626321Y10087827D01*
X10626325Y10087827D01*
X10701173Y10072939D01*
X10776021Y10087827D01*
X16853852Y10087827D01*
X16870438Y10071241D01*
X14546199Y7747000D01*
X11107802Y7747000D01*
X6093037Y12761764D01*
X6050635Y12825223D01*
X5799243Y12993198D01*
X5577558Y13037294D01*
X5577553Y13037294D01*
X5502706Y13052182D01*
X5427859Y13037294D01*
X4624648Y13037294D01*
X4507217Y13154725D01*
X4126811Y13312294D01*
X3715063Y13312294D01*
X3334657Y13154725D01*
X3043506Y12863574D01*
X2930855Y12591609D01*
X2614725Y12460664D01*
X2323574Y12169513D01*
X2195351Y11859954D01*
X1916730Y11744546D01*
X1625579Y11453395D01*
X1507452Y11168211D01*
X1191720Y11037431D01*
X900569Y10746280D01*
X743000Y10365874D01*
X743000Y9954126D01*
X900569Y9573720D01*
X1191720Y9282569D01*
X1372953Y9207500D01*
X1191720Y9132431D01*
X900569Y8841280D01*
X743000Y8460874D01*
X743000Y8263181D01*
X710000Y8213793D01*
X710000Y57268905D01*
X3558000Y57268905D01*
X3558000Y55162409D01*
G36*
X53050706Y20552898D02*
X53391750Y20485060D01*
X54304250Y20485060D01*
X54645294Y20552898D01*
X54917828Y20735000D01*
X55779289Y20735000D01*
X55801720Y20712569D01*
X56163853Y20562569D01*
X58678000Y18048421D01*
X58678001Y9458009D01*
X58528000Y9095874D01*
X58528000Y8684126D01*
X58685569Y8303720D01*
X58976720Y8012569D01*
X59357126Y7855000D01*
X59768874Y7855000D01*
X60149280Y8012569D01*
X60363566Y8226855D01*
X60843421Y7747000D01*
X45337000Y7747000D01*
X45337000Y9196153D01*
X45351888Y9271000D01*
X45337000Y9345847D01*
X45337000Y9345852D01*
X45292904Y9567537D01*
X45124929Y9818929D01*
X45061473Y9861329D01*
X44278331Y10644470D01*
X44235929Y10707929D01*
X43984537Y10875904D01*
X43762852Y10920000D01*
X43762847Y10920000D01*
X43688000Y10934888D01*
X43613153Y10920000D01*
X42356272Y10920000D01*
X42373331Y10945530D01*
X44082472Y12654670D01*
X44145928Y12697070D01*
X44313903Y12948462D01*
X44357999Y13170147D01*
X44357999Y13170151D01*
X44372887Y13244998D01*
X44357999Y13319845D01*
X44357999Y15312763D01*
X44403904Y15381465D01*
X44448000Y15603150D01*
X44448000Y15603154D01*
X44462888Y15678002D01*
X44448000Y15752850D01*
X44448000Y18169331D01*
X44658000Y18127560D01*
X45258000Y18127560D01*
X45505765Y18176843D01*
X45584972Y18229768D01*
X45627215Y18212270D01*
X45680235Y18176843D01*
X45742776Y18164403D01*
X45801690Y18140000D01*
X45865459Y18140000D01*
X45928000Y18127560D01*
X46528000Y18127560D01*
X46590541Y18140000D01*
X46654310Y18140000D01*
X46713224Y18164403D01*
X46775765Y18176843D01*
X46828785Y18212270D01*
X46863000Y18226442D01*
X46897215Y18212270D01*
X46950235Y18176843D01*
X47012776Y18164403D01*
X47071690Y18140000D01*
X47135459Y18140000D01*
X47198000Y18127560D01*
X47798000Y18127560D01*
X47860541Y18140000D01*
X47924310Y18140000D01*
X47983224Y18164403D01*
X48045765Y18176843D01*
X48098785Y18212270D01*
X48133000Y18226442D01*
X48167215Y18212270D01*
X48220235Y18176843D01*
X48282776Y18164403D01*
X48341690Y18140000D01*
X48405459Y18140000D01*
X48468000Y18127560D01*
X49068000Y18127560D01*
X49130541Y18140000D01*
X49194310Y18140000D01*
X49253224Y18164403D01*
X49315765Y18176843D01*
X49368785Y18212270D01*
X49403000Y18226442D01*
X49437215Y18212270D01*
X49490235Y18176843D01*
X49552776Y18164403D01*
X49611690Y18140000D01*
X49675459Y18140000D01*
X49738000Y18127560D01*
X50338000Y18127560D01*
X50400541Y18140000D01*
X50464310Y18140000D01*
X50523224Y18164403D01*
X50585765Y18176843D01*
X50638785Y18212270D01*
X50681028Y18229768D01*
X50760235Y18176843D01*
X51008000Y18127560D01*
X51608000Y18127560D01*
X51855765Y18176843D01*
X52065809Y18317191D01*
X52206157Y18527235D01*
X52255440Y18775000D01*
X52255440Y20275000D01*
X52206157Y20522765D01*
X52193000Y20542456D01*
X52193000Y20588422D01*
X52339579Y20735000D01*
X52778172Y20735000D01*
X53050706Y20552898D01*
X53050706Y20552898D01*
G37*
X53050706Y20552898D02*
X53391750Y20485060D01*
X54304250Y20485060D01*
X54645294Y20552898D01*
X54917828Y20735000D01*
X55779289Y20735000D01*
X55801720Y20712569D01*
X56163853Y20562569D01*
X58678000Y18048421D01*
X58678001Y9458009D01*
X58528000Y9095874D01*
X58528000Y8684126D01*
X58685569Y8303720D01*
X58976720Y8012569D01*
X59357126Y7855000D01*
X59768874Y7855000D01*
X60149280Y8012569D01*
X60363566Y8226855D01*
X60843421Y7747000D01*
X45337000Y7747000D01*
X45337000Y9196153D01*
X45351888Y9271000D01*
X45337000Y9345847D01*
X45337000Y9345852D01*
X45292904Y9567537D01*
X45124929Y9818929D01*
X45061473Y9861329D01*
X44278331Y10644470D01*
X44235929Y10707929D01*
X43984537Y10875904D01*
X43762852Y10920000D01*
X43762847Y10920000D01*
X43688000Y10934888D01*
X43613153Y10920000D01*
X42356272Y10920000D01*
X42373331Y10945530D01*
X44082472Y12654670D01*
X44145928Y12697070D01*
X44313903Y12948462D01*
X44357999Y13170147D01*
X44357999Y13170151D01*
X44372887Y13244998D01*
X44357999Y13319845D01*
X44357999Y15312763D01*
X44403904Y15381465D01*
X44448000Y15603150D01*
X44448000Y15603154D01*
X44462888Y15678002D01*
X44448000Y15752850D01*
X44448000Y18169331D01*
X44658000Y18127560D01*
X45258000Y18127560D01*
X45505765Y18176843D01*
X45584972Y18229768D01*
X45627215Y18212270D01*
X45680235Y18176843D01*
X45742776Y18164403D01*
X45801690Y18140000D01*
X45865459Y18140000D01*
X45928000Y18127560D01*
X46528000Y18127560D01*
X46590541Y18140000D01*
X46654310Y18140000D01*
X46713224Y18164403D01*
X46775765Y18176843D01*
X46828785Y18212270D01*
X46863000Y18226442D01*
X46897215Y18212270D01*
X46950235Y18176843D01*
X47012776Y18164403D01*
X47071690Y18140000D01*
X47135459Y18140000D01*
X47198000Y18127560D01*
X47798000Y18127560D01*
X47860541Y18140000D01*
X47924310Y18140000D01*
X47983224Y18164403D01*
X48045765Y18176843D01*
X48098785Y18212270D01*
X48133000Y18226442D01*
X48167215Y18212270D01*
X48220235Y18176843D01*
X48282776Y18164403D01*
X48341690Y18140000D01*
X48405459Y18140000D01*
X48468000Y18127560D01*
X49068000Y18127560D01*
X49130541Y18140000D01*
X49194310Y18140000D01*
X49253224Y18164403D01*
X49315765Y18176843D01*
X49368785Y18212270D01*
X49403000Y18226442D01*
X49437215Y18212270D01*
X49490235Y18176843D01*
X49552776Y18164403D01*
X49611690Y18140000D01*
X49675459Y18140000D01*
X49738000Y18127560D01*
X50338000Y18127560D01*
X50400541Y18140000D01*
X50464310Y18140000D01*
X50523224Y18164403D01*
X50585765Y18176843D01*
X50638785Y18212270D01*
X50681028Y18229768D01*
X50760235Y18176843D01*
X51008000Y18127560D01*
X51608000Y18127560D01*
X51855765Y18176843D01*
X52065809Y18317191D01*
X52206157Y18527235D01*
X52255440Y18775000D01*
X52255440Y20275000D01*
X52206157Y20522765D01*
X52193000Y20542456D01*
X52193000Y20588422D01*
X52339579Y20735000D01*
X52778172Y20735000D01*
X53050706Y20552898D01*
G36*
X3116198Y7747000D02*
X2687856Y7747000D01*
X2813000Y8049126D01*
X2813000Y8050198D01*
X3116198Y7747000D01*
X3116198Y7747000D01*
G37*
X3116198Y7747000D02*
X2687856Y7747000D01*
X2813000Y8049126D01*
X2813000Y8050198D01*
X3116198Y7747000D01*
G36*
X8958198Y7747000D02*
X8567802Y7747000D01*
X4797507Y11517294D01*
X5187905Y11517294D01*
X8958198Y7747000D01*
X8958198Y7747000D01*
G37*
X8958198Y7747000D02*
X8567802Y7747000D01*
X4797507Y11517294D01*
X5187905Y11517294D01*
X8958198Y7747000D01*
G36*
X61834084Y9708584D02*
X61853000Y9695944D01*
X61853000Y9458008D01*
X61789317Y9304261D01*
X61718000Y9375578D01*
X61718000Y9725172D01*
X61770500Y9803744D01*
X61834084Y9708584D01*
X61834084Y9708584D01*
G37*
X61834084Y9708584D02*
X61853000Y9695944D01*
X61853000Y9458008D01*
X61789317Y9304261D01*
X61718000Y9375578D01*
X61718000Y9725172D01*
X61770500Y9803744D01*
X61834084Y9708584D01*
G36*
X61823000Y13535172D02*
X61823001Y11864829D01*
X61770500Y11786256D01*
X61718000Y11864828D01*
X61718000Y13535172D01*
X61770500Y13613744D01*
X61823000Y13535172D01*
X61823000Y13535172D01*
G37*
X61823000Y13535172D02*
X61823001Y11864829D01*
X61770500Y11786256D01*
X61718000Y11864828D01*
X61718000Y13535172D01*
X61770500Y13613744D01*
X61823000Y13535172D01*
G36*
X42653000Y21160874D02*
X42653000Y20749126D01*
X42775866Y20452499D01*
X42740560Y20275000D01*
X42740560Y18775000D01*
X42789843Y18527235D01*
X42928001Y18320469D01*
X42928000Y15953238D01*
X42882096Y15884538D01*
X42823111Y15588001D01*
X42838000Y15513149D01*
X42837999Y13559801D01*
X41468199Y12190000D01*
X23133000Y12190000D01*
X23133000Y12270874D01*
X22975431Y12651280D01*
X22684280Y12942431D01*
X22390149Y13064264D01*
X22268316Y13358395D01*
X21977165Y13649546D01*
X21683034Y13771379D01*
X21561201Y14065510D01*
X21270050Y14356661D01*
X20975919Y14478494D01*
X20854086Y14772625D01*
X20562935Y15063776D01*
X20268804Y15185609D01*
X20146971Y15479740D01*
X19855820Y15770891D01*
X19540264Y15901598D01*
X19421961Y16187207D01*
X19130810Y16478358D01*
X18819492Y16607310D01*
X18696951Y16903151D01*
X18405800Y17194302D01*
X18096782Y17322301D01*
X17971941Y17623694D01*
X17680790Y17914845D01*
X17300384Y18072414D01*
X16888636Y18072414D01*
X16822440Y18044995D01*
X16822440Y18754000D01*
X16773157Y19001765D01*
X16760000Y19021456D01*
X16760000Y20715422D01*
X16779578Y20735000D01*
X17218172Y20735000D01*
X17490706Y20552898D01*
X17831750Y20485060D01*
X18744250Y20485060D01*
X19085294Y20552898D01*
X19357828Y20735000D01*
X19796422Y20735000D01*
X24585577Y15945844D01*
X24634951Y15871951D01*
X24708844Y15822577D01*
X24708845Y15822576D01*
X24797863Y15763096D01*
X24927690Y15676348D01*
X25185835Y15625000D01*
X25185839Y15625000D01*
X25272999Y15607663D01*
X25360159Y15625000D01*
X31510839Y15625000D01*
X31598000Y15607663D01*
X31685161Y15625000D01*
X31685165Y15625000D01*
X31943310Y15676348D01*
X32236049Y15871951D01*
X32285425Y15945847D01*
X34468167Y18128588D01*
X34710765Y18176843D01*
X34920809Y18317191D01*
X35061157Y18527235D01*
X35110440Y18775000D01*
X35110440Y20275000D01*
X35061157Y20522765D01*
X35048000Y20542456D01*
X35048000Y20588422D01*
X35194579Y20735000D01*
X36268172Y20735000D01*
X36540706Y20552898D01*
X36881750Y20485060D01*
X37794250Y20485060D01*
X38135294Y20552898D01*
X38424416Y20746084D01*
X38617602Y21035206D01*
X38668530Y21291237D01*
X42706998Y21291237D01*
X42653000Y21160874D01*
X42653000Y21160874D01*
G37*
X42653000Y21160874D02*
X42653000Y20749126D01*
X42775866Y20452499D01*
X42740560Y20275000D01*
X42740560Y18775000D01*
X42789843Y18527235D01*
X42928001Y18320469D01*
X42928000Y15953238D01*
X42882096Y15884538D01*
X42823111Y15588001D01*
X42838000Y15513149D01*
X42837999Y13559801D01*
X41468199Y12190000D01*
X23133000Y12190000D01*
X23133000Y12270874D01*
X22975431Y12651280D01*
X22684280Y12942431D01*
X22390149Y13064264D01*
X22268316Y13358395D01*
X21977165Y13649546D01*
X21683034Y13771379D01*
X21561201Y14065510D01*
X21270050Y14356661D01*
X20975919Y14478494D01*
X20854086Y14772625D01*
X20562935Y15063776D01*
X20268804Y15185609D01*
X20146971Y15479740D01*
X19855820Y15770891D01*
X19540264Y15901598D01*
X19421961Y16187207D01*
X19130810Y16478358D01*
X18819492Y16607310D01*
X18696951Y16903151D01*
X18405800Y17194302D01*
X18096782Y17322301D01*
X17971941Y17623694D01*
X17680790Y17914845D01*
X17300384Y18072414D01*
X16888636Y18072414D01*
X16822440Y18044995D01*
X16822440Y18754000D01*
X16773157Y19001765D01*
X16760000Y19021456D01*
X16760000Y20715422D01*
X16779578Y20735000D01*
X17218172Y20735000D01*
X17490706Y20552898D01*
X17831750Y20485060D01*
X18744250Y20485060D01*
X19085294Y20552898D01*
X19357828Y20735000D01*
X19796422Y20735000D01*
X24585577Y15945844D01*
X24634951Y15871951D01*
X24708844Y15822577D01*
X24708845Y15822576D01*
X24797863Y15763096D01*
X24927690Y15676348D01*
X25185835Y15625000D01*
X25185839Y15625000D01*
X25272999Y15607663D01*
X25360159Y15625000D01*
X31510839Y15625000D01*
X31598000Y15607663D01*
X31685161Y15625000D01*
X31685165Y15625000D01*
X31943310Y15676348D01*
X32236049Y15871951D01*
X32285425Y15945847D01*
X34468167Y18128588D01*
X34710765Y18176843D01*
X34920809Y18317191D01*
X35061157Y18527235D01*
X35110440Y18775000D01*
X35110440Y20275000D01*
X35061157Y20522765D01*
X35048000Y20542456D01*
X35048000Y20588422D01*
X35194579Y20735000D01*
X36268172Y20735000D01*
X36540706Y20552898D01*
X36881750Y20485060D01*
X37794250Y20485060D01*
X38135294Y20552898D01*
X38424416Y20746084D01*
X38617602Y21035206D01*
X38668530Y21291237D01*
X42706998Y21291237D01*
X42653000Y21160874D01*
G36*
X63044000Y15934090D02*
X62951750Y15952440D01*
X62464250Y15952440D01*
X62123206Y15884602D01*
X61834084Y15691416D01*
X61770500Y15596256D01*
X61718000Y15674828D01*
X61718000Y20232841D01*
X61735337Y20320001D01*
X61718000Y20407160D01*
X61718000Y20407165D01*
X61666652Y20665310D01*
X61557669Y20828414D01*
X61520424Y20884155D01*
X61520423Y20884156D01*
X61471049Y20958049D01*
X61397156Y21007423D01*
X59320431Y23084147D01*
X59170431Y23446280D01*
X58879280Y23737431D01*
X58517147Y23887431D01*
X58345424Y24059154D01*
X58296049Y24133049D01*
X58003310Y24328652D01*
X57745165Y24380000D01*
X57745161Y24380000D01*
X57658000Y24397337D01*
X57570839Y24380000D01*
X54917828Y24380000D01*
X54645294Y24562102D01*
X54304250Y24629940D01*
X53391750Y24629940D01*
X53050706Y24562102D01*
X52778172Y24380000D01*
X52255440Y24380000D01*
X52255440Y25675000D01*
X52243000Y25737541D01*
X52243000Y25801309D01*
X52218597Y25860222D01*
X52206157Y25922765D01*
X52170729Y25975786D01*
X52146327Y26034698D01*
X52101236Y26079789D01*
X52065809Y26132809D01*
X52012791Y26168235D01*
X51967699Y26213327D01*
X51908785Y26237730D01*
X51860490Y26270000D01*
X52148874Y26270000D01*
X52529280Y26427569D01*
X52820431Y26718720D01*
X52978000Y27099126D01*
X52978000Y27510874D01*
X52820431Y27891280D01*
X52529280Y28182431D01*
X52148874Y28340000D01*
X51737126Y28340000D01*
X51356720Y28182431D01*
X51239289Y28065000D01*
X44391711Y28065000D01*
X44281711Y28175000D01*
X44528874Y28175000D01*
X44909280Y28332569D01*
X45200431Y28623720D01*
X45358000Y29004126D01*
X45358000Y29415874D01*
X45200431Y29796280D01*
X44909280Y30087431D01*
X44797523Y30133722D01*
X48444114Y33780312D01*
X48626667Y33744000D01*
X48909333Y33744000D01*
X49327909Y33827260D01*
X49802577Y34144423D01*
X50038000Y34496758D01*
X50273423Y34144423D01*
X50748091Y33827260D01*
X51166667Y33744000D01*
X51449333Y33744000D01*
X51867909Y33827260D01*
X52342577Y34144423D01*
X52578000Y34496758D01*
X52813423Y34144423D01*
X53288091Y33827260D01*
X53706667Y33744000D01*
X53989333Y33744000D01*
X54407909Y33827260D01*
X54882577Y34144423D01*
X55199740Y34619091D01*
X55311113Y35179000D01*
X55199740Y35738909D01*
X54882577Y36213577D01*
X54605288Y36398855D01*
X54563904Y36606907D01*
X54395929Y36858299D01*
X54332473Y36900699D01*
X53664701Y37568470D01*
X53622299Y37631929D01*
X53370907Y37799904D01*
X53149222Y37844000D01*
X53149217Y37844000D01*
X53074370Y37858888D01*
X52999523Y37844000D01*
X26222803Y37844000D01*
X15382999Y48683802D01*
X15382999Y49028490D01*
X15606667Y48984000D01*
X15889333Y48984000D01*
X16307909Y49067260D01*
X16782577Y49384423D01*
X17018000Y49736758D01*
X17253423Y49384423D01*
X17728091Y49067260D01*
X18146667Y48984000D01*
X18429333Y48984000D01*
X18847909Y49067260D01*
X19322577Y49384423D01*
X19558000Y49736758D01*
X19793423Y49384423D01*
X20268091Y49067260D01*
X20686667Y48984000D01*
X20969333Y48984000D01*
X21387909Y49067260D01*
X21862577Y49384423D01*
X22098000Y49736758D01*
X22333423Y49384423D01*
X22808091Y49067260D01*
X23226667Y48984000D01*
X23509333Y48984000D01*
X23927909Y49067260D01*
X24402577Y49384423D01*
X24638000Y49736758D01*
X24873423Y49384423D01*
X25348091Y49067260D01*
X25766667Y48984000D01*
X26049333Y48984000D01*
X26467909Y49067260D01*
X26942577Y49384423D01*
X27178000Y49736758D01*
X27413423Y49384423D01*
X27888091Y49067260D01*
X28306667Y48984000D01*
X28589333Y48984000D01*
X29007909Y49067260D01*
X29482577Y49384423D01*
X29718000Y49736758D01*
X29953423Y49384423D01*
X30428091Y49067260D01*
X30846667Y48984000D01*
X31129333Y48984000D01*
X31547909Y49067260D01*
X32022577Y49384423D01*
X32258000Y49736758D01*
X32493423Y49384423D01*
X32968091Y49067260D01*
X33386667Y48984000D01*
X33669333Y48984000D01*
X34087909Y49067260D01*
X34562577Y49384423D01*
X34798000Y49736758D01*
X35033423Y49384423D01*
X35508091Y49067260D01*
X35926667Y48984000D01*
X36209333Y48984000D01*
X36627909Y49067260D01*
X37102577Y49384423D01*
X37338000Y49736758D01*
X37573423Y49384423D01*
X38048091Y49067260D01*
X38466667Y48984000D01*
X38749333Y48984000D01*
X39167909Y49067260D01*
X39642577Y49384423D01*
X39878000Y49736758D01*
X40113423Y49384423D01*
X40588091Y49067260D01*
X41006667Y48984000D01*
X41289333Y48984000D01*
X41707909Y49067260D01*
X42182577Y49384423D01*
X42418000Y49736758D01*
X42653423Y49384423D01*
X43128091Y49067260D01*
X43546667Y48984000D01*
X43829333Y48984000D01*
X44247909Y49067260D01*
X44722577Y49384423D01*
X44958000Y49736758D01*
X45193423Y49384423D01*
X45668091Y49067260D01*
X46086667Y48984000D01*
X46369333Y48984000D01*
X46787909Y49067260D01*
X47262577Y49384423D01*
X47498000Y49736758D01*
X47733423Y49384423D01*
X48208091Y49067260D01*
X48626667Y48984000D01*
X48909333Y48984000D01*
X49327909Y49067260D01*
X49802577Y49384423D01*
X50038000Y49736758D01*
X50273423Y49384423D01*
X50748091Y49067260D01*
X51166667Y48984000D01*
X51449333Y48984000D01*
X51867909Y49067260D01*
X52342577Y49384423D01*
X52423215Y49505106D01*
X52449843Y49371235D01*
X52590191Y49161191D01*
X52800235Y49020843D01*
X53048000Y48971560D01*
X54648000Y48971560D01*
X54895765Y49020843D01*
X55105809Y49161191D01*
X55246157Y49371235D01*
X55278533Y49534000D01*
X55379502Y49534000D01*
X55503001Y49349171D01*
X55503001Y49082008D01*
X55353000Y48719874D01*
X55353000Y48308126D01*
X55510569Y47927720D01*
X55801720Y47636569D01*
X56182126Y47479000D01*
X56593874Y47479000D01*
X56974280Y47636569D01*
X57265431Y47927720D01*
X57340500Y48108953D01*
X57415569Y47927720D01*
X57706720Y47636569D01*
X58087126Y47479000D01*
X58498874Y47479000D01*
X58879280Y47636569D01*
X59170431Y47927720D01*
X59328000Y48308126D01*
X59328000Y48719874D01*
X59170431Y49100280D01*
X59148000Y49122711D01*
X59148000Y49349172D01*
X59330102Y49621706D01*
X59397940Y49962750D01*
X59397940Y50875250D01*
X59330102Y51216294D01*
X59148000Y51488828D01*
X59148000Y68399172D01*
X59330102Y68671706D01*
X59342346Y68733261D01*
X59488549Y68830951D01*
X59537925Y68904847D01*
X61270708Y70637629D01*
X61344601Y70687003D01*
X61411899Y70787720D01*
X61540204Y70979742D01*
X61577664Y71168068D01*
X61591552Y71237887D01*
X61591552Y71237891D01*
X61608889Y71325052D01*
X61591552Y71412213D01*
X61591552Y77075124D01*
X61608889Y77162285D01*
X61591552Y77249446D01*
X61591552Y77249450D01*
X61540204Y77507595D01*
X61438685Y77659528D01*
X61393976Y77726440D01*
X61393975Y77726441D01*
X61344601Y77800334D01*
X61270708Y77849708D01*
X60903982Y78216433D01*
X60903982Y78556045D01*
X60836144Y78897089D01*
X60642958Y79186211D01*
X60353836Y79379397D01*
X60012792Y79447235D01*
X59673180Y79447235D01*
X59578967Y79541448D01*
X59529591Y79615344D01*
X59236852Y79810947D01*
X58978707Y79862295D01*
X58978703Y79862295D01*
X58891542Y79879632D01*
X58804381Y79862295D01*
X57872020Y79862295D01*
X57829699Y80075060D01*
X57689351Y80285104D01*
X57479307Y80425452D01*
X57231542Y80474735D01*
X55531542Y80474735D01*
X55283777Y80425452D01*
X55127271Y80320877D01*
X54945765Y80442157D01*
X54698000Y80491440D01*
X52998000Y80491440D01*
X52750235Y80442157D01*
X52540191Y80301809D01*
X52399843Y80091765D01*
X52390816Y80046381D01*
X52378625Y80064625D01*
X51887418Y80392839D01*
X51454256Y80479000D01*
X51161744Y80479000D01*
X50728582Y80392839D01*
X50237375Y80064625D01*
X50038000Y79766239D01*
X49838625Y80064625D01*
X49347418Y80392839D01*
X48914256Y80479000D01*
X48621744Y80479000D01*
X48188582Y80392839D01*
X47697375Y80064625D01*
X47498000Y79766239D01*
X47298625Y80064625D01*
X46807418Y80392839D01*
X46374256Y80479000D01*
X46081744Y80479000D01*
X45648582Y80392839D01*
X45157375Y80064625D01*
X44958000Y79766239D01*
X44758625Y80064625D01*
X44267418Y80392839D01*
X43834256Y80479000D01*
X43541744Y80479000D01*
X43108582Y80392839D01*
X42617375Y80064625D01*
X42418000Y79766239D01*
X42218625Y80064625D01*
X41727418Y80392839D01*
X41294256Y80479000D01*
X41001744Y80479000D01*
X40568582Y80392839D01*
X40077375Y80064625D01*
X39878000Y79766239D01*
X39678625Y80064625D01*
X39187418Y80392839D01*
X38754256Y80479000D01*
X38461744Y80479000D01*
X38028582Y80392839D01*
X37537375Y80064625D01*
X37338000Y79766239D01*
X37138625Y80064625D01*
X36647418Y80392839D01*
X36214256Y80479000D01*
X35921744Y80479000D01*
X35488582Y80392839D01*
X34997375Y80064625D01*
X34798000Y79766239D01*
X34598625Y80064625D01*
X34107418Y80392839D01*
X33674256Y80479000D01*
X33381744Y80479000D01*
X32948582Y80392839D01*
X32457375Y80064625D01*
X32258000Y79766239D01*
X32058625Y80064625D01*
X31567418Y80392839D01*
X31134256Y80479000D01*
X30841744Y80479000D01*
X30408582Y80392839D01*
X29917375Y80064625D01*
X29718000Y79766239D01*
X29518625Y80064625D01*
X29027418Y80392839D01*
X28594256Y80479000D01*
X28301744Y80479000D01*
X27868582Y80392839D01*
X27377375Y80064625D01*
X27178000Y79766239D01*
X26978625Y80064625D01*
X26487418Y80392839D01*
X26054256Y80479000D01*
X25761744Y80479000D01*
X25328582Y80392839D01*
X24837375Y80064625D01*
X24638000Y79766239D01*
X24438625Y80064625D01*
X23947418Y80392839D01*
X23514256Y80479000D01*
X23221744Y80479000D01*
X22788582Y80392839D01*
X22297375Y80064625D01*
X22098000Y79766239D01*
X21898625Y80064625D01*
X21407418Y80392839D01*
X20974256Y80479000D01*
X20681744Y80479000D01*
X20248582Y80392839D01*
X19757375Y80064625D01*
X19558000Y79766239D01*
X19358625Y80064625D01*
X18867418Y80392839D01*
X18434256Y80479000D01*
X18141744Y80479000D01*
X17708582Y80392839D01*
X17217375Y80064625D01*
X17018000Y79766239D01*
X16818625Y80064625D01*
X16327418Y80392839D01*
X15894256Y80479000D01*
X15601744Y80479000D01*
X15168582Y80392839D01*
X14677375Y80064625D01*
X14478000Y79766239D01*
X14278625Y80064625D01*
X13787418Y80392839D01*
X13354256Y80479000D01*
X13061744Y80479000D01*
X12628582Y80392839D01*
X12137375Y80064625D01*
X11938000Y79766239D01*
X11738625Y80064625D01*
X11247418Y80392839D01*
X10814256Y80479000D01*
X10521744Y80479000D01*
X10088582Y80392839D01*
X9597375Y80064625D01*
X9398000Y79766239D01*
X9198625Y80064625D01*
X8707418Y80392839D01*
X8274256Y80479000D01*
X7981744Y80479000D01*
X7548582Y80392839D01*
X7057375Y80064625D01*
X6858000Y79766239D01*
X6658625Y80064625D01*
X6167418Y80392839D01*
X5734256Y80479000D01*
X5441744Y80479000D01*
X5035000Y80398094D01*
X5035000Y80697000D01*
X63044001Y80697000D01*
X63044000Y15934090D01*
X63044000Y15934090D01*
G37*
X63044000Y15934090D02*
X62951750Y15952440D01*
X62464250Y15952440D01*
X62123206Y15884602D01*
X61834084Y15691416D01*
X61770500Y15596256D01*
X61718000Y15674828D01*
X61718000Y20232841D01*
X61735337Y20320001D01*
X61718000Y20407160D01*
X61718000Y20407165D01*
X61666652Y20665310D01*
X61557669Y20828414D01*
X61520424Y20884155D01*
X61520423Y20884156D01*
X61471049Y20958049D01*
X61397156Y21007423D01*
X59320431Y23084147D01*
X59170431Y23446280D01*
X58879280Y23737431D01*
X58517147Y23887431D01*
X58345424Y24059154D01*
X58296049Y24133049D01*
X58003310Y24328652D01*
X57745165Y24380000D01*
X57745161Y24380000D01*
X57658000Y24397337D01*
X57570839Y24380000D01*
X54917828Y24380000D01*
X54645294Y24562102D01*
X54304250Y24629940D01*
X53391750Y24629940D01*
X53050706Y24562102D01*
X52778172Y24380000D01*
X52255440Y24380000D01*
X52255440Y25675000D01*
X52243000Y25737541D01*
X52243000Y25801309D01*
X52218597Y25860222D01*
X52206157Y25922765D01*
X52170729Y25975786D01*
X52146327Y26034698D01*
X52101236Y26079789D01*
X52065809Y26132809D01*
X52012791Y26168235D01*
X51967699Y26213327D01*
X51908785Y26237730D01*
X51860490Y26270000D01*
X52148874Y26270000D01*
X52529280Y26427569D01*
X52820431Y26718720D01*
X52978000Y27099126D01*
X52978000Y27510874D01*
X52820431Y27891280D01*
X52529280Y28182431D01*
X52148874Y28340000D01*
X51737126Y28340000D01*
X51356720Y28182431D01*
X51239289Y28065000D01*
X44391711Y28065000D01*
X44281711Y28175000D01*
X44528874Y28175000D01*
X44909280Y28332569D01*
X45200431Y28623720D01*
X45358000Y29004126D01*
X45358000Y29415874D01*
X45200431Y29796280D01*
X44909280Y30087431D01*
X44797523Y30133722D01*
X48444114Y33780312D01*
X48626667Y33744000D01*
X48909333Y33744000D01*
X49327909Y33827260D01*
X49802577Y34144423D01*
X50038000Y34496758D01*
X50273423Y34144423D01*
X50748091Y33827260D01*
X51166667Y33744000D01*
X51449333Y33744000D01*
X51867909Y33827260D01*
X52342577Y34144423D01*
X52578000Y34496758D01*
X52813423Y34144423D01*
X53288091Y33827260D01*
X53706667Y33744000D01*
X53989333Y33744000D01*
X54407909Y33827260D01*
X54882577Y34144423D01*
X55199740Y34619091D01*
X55311113Y35179000D01*
X55199740Y35738909D01*
X54882577Y36213577D01*
X54605288Y36398855D01*
X54563904Y36606907D01*
X54395929Y36858299D01*
X54332473Y36900699D01*
X53664701Y37568470D01*
X53622299Y37631929D01*
X53370907Y37799904D01*
X53149222Y37844000D01*
X53149217Y37844000D01*
X53074370Y37858888D01*
X52999523Y37844000D01*
X26222803Y37844000D01*
X15382999Y48683802D01*
X15382999Y49028490D01*
X15606667Y48984000D01*
X15889333Y48984000D01*
X16307909Y49067260D01*
X16782577Y49384423D01*
X17018000Y49736758D01*
X17253423Y49384423D01*
X17728091Y49067260D01*
X18146667Y48984000D01*
X18429333Y48984000D01*
X18847909Y49067260D01*
X19322577Y49384423D01*
X19558000Y49736758D01*
X19793423Y49384423D01*
X20268091Y49067260D01*
X20686667Y48984000D01*
X20969333Y48984000D01*
X21387909Y49067260D01*
X21862577Y49384423D01*
X22098000Y49736758D01*
X22333423Y49384423D01*
X22808091Y49067260D01*
X23226667Y48984000D01*
X23509333Y48984000D01*
X23927909Y49067260D01*
X24402577Y49384423D01*
X24638000Y49736758D01*
X24873423Y49384423D01*
X25348091Y49067260D01*
X25766667Y48984000D01*
X26049333Y48984000D01*
X26467909Y49067260D01*
X26942577Y49384423D01*
X27178000Y49736758D01*
X27413423Y49384423D01*
X27888091Y49067260D01*
X28306667Y48984000D01*
X28589333Y48984000D01*
X29007909Y49067260D01*
X29482577Y49384423D01*
X29718000Y49736758D01*
X29953423Y49384423D01*
X30428091Y49067260D01*
X30846667Y48984000D01*
X31129333Y48984000D01*
X31547909Y49067260D01*
X32022577Y49384423D01*
X32258000Y49736758D01*
X32493423Y49384423D01*
X32968091Y49067260D01*
X33386667Y48984000D01*
X33669333Y48984000D01*
X34087909Y49067260D01*
X34562577Y49384423D01*
X34798000Y49736758D01*
X35033423Y49384423D01*
X35508091Y49067260D01*
X35926667Y48984000D01*
X36209333Y48984000D01*
X36627909Y49067260D01*
X37102577Y49384423D01*
X37338000Y49736758D01*
X37573423Y49384423D01*
X38048091Y49067260D01*
X38466667Y48984000D01*
X38749333Y48984000D01*
X39167909Y49067260D01*
X39642577Y49384423D01*
X39878000Y49736758D01*
X40113423Y49384423D01*
X40588091Y49067260D01*
X41006667Y48984000D01*
X41289333Y48984000D01*
X41707909Y49067260D01*
X42182577Y49384423D01*
X42418000Y49736758D01*
X42653423Y49384423D01*
X43128091Y49067260D01*
X43546667Y48984000D01*
X43829333Y48984000D01*
X44247909Y49067260D01*
X44722577Y49384423D01*
X44958000Y49736758D01*
X45193423Y49384423D01*
X45668091Y49067260D01*
X46086667Y48984000D01*
X46369333Y48984000D01*
X46787909Y49067260D01*
X47262577Y49384423D01*
X47498000Y49736758D01*
X47733423Y49384423D01*
X48208091Y49067260D01*
X48626667Y48984000D01*
X48909333Y48984000D01*
X49327909Y49067260D01*
X49802577Y49384423D01*
X50038000Y49736758D01*
X50273423Y49384423D01*
X50748091Y49067260D01*
X51166667Y48984000D01*
X51449333Y48984000D01*
X51867909Y49067260D01*
X52342577Y49384423D01*
X52423215Y49505106D01*
X52449843Y49371235D01*
X52590191Y49161191D01*
X52800235Y49020843D01*
X53048000Y48971560D01*
X54648000Y48971560D01*
X54895765Y49020843D01*
X55105809Y49161191D01*
X55246157Y49371235D01*
X55278533Y49534000D01*
X55379502Y49534000D01*
X55503001Y49349171D01*
X55503001Y49082008D01*
X55353000Y48719874D01*
X55353000Y48308126D01*
X55510569Y47927720D01*
X55801720Y47636569D01*
X56182126Y47479000D01*
X56593874Y47479000D01*
X56974280Y47636569D01*
X57265431Y47927720D01*
X57340500Y48108953D01*
X57415569Y47927720D01*
X57706720Y47636569D01*
X58087126Y47479000D01*
X58498874Y47479000D01*
X58879280Y47636569D01*
X59170431Y47927720D01*
X59328000Y48308126D01*
X59328000Y48719874D01*
X59170431Y49100280D01*
X59148000Y49122711D01*
X59148000Y49349172D01*
X59330102Y49621706D01*
X59397940Y49962750D01*
X59397940Y50875250D01*
X59330102Y51216294D01*
X59148000Y51488828D01*
X59148000Y68399172D01*
X59330102Y68671706D01*
X59342346Y68733261D01*
X59488549Y68830951D01*
X59537925Y68904847D01*
X61270708Y70637629D01*
X61344601Y70687003D01*
X61411899Y70787720D01*
X61540204Y70979742D01*
X61577664Y71168068D01*
X61591552Y71237887D01*
X61591552Y71237891D01*
X61608889Y71325052D01*
X61591552Y71412213D01*
X61591552Y77075124D01*
X61608889Y77162285D01*
X61591552Y77249446D01*
X61591552Y77249450D01*
X61540204Y77507595D01*
X61438685Y77659528D01*
X61393976Y77726440D01*
X61393975Y77726441D01*
X61344601Y77800334D01*
X61270708Y77849708D01*
X60903982Y78216433D01*
X60903982Y78556045D01*
X60836144Y78897089D01*
X60642958Y79186211D01*
X60353836Y79379397D01*
X60012792Y79447235D01*
X59673180Y79447235D01*
X59578967Y79541448D01*
X59529591Y79615344D01*
X59236852Y79810947D01*
X58978707Y79862295D01*
X58978703Y79862295D01*
X58891542Y79879632D01*
X58804381Y79862295D01*
X57872020Y79862295D01*
X57829699Y80075060D01*
X57689351Y80285104D01*
X57479307Y80425452D01*
X57231542Y80474735D01*
X55531542Y80474735D01*
X55283777Y80425452D01*
X55127271Y80320877D01*
X54945765Y80442157D01*
X54698000Y80491440D01*
X52998000Y80491440D01*
X52750235Y80442157D01*
X52540191Y80301809D01*
X52399843Y80091765D01*
X52390816Y80046381D01*
X52378625Y80064625D01*
X51887418Y80392839D01*
X51454256Y80479000D01*
X51161744Y80479000D01*
X50728582Y80392839D01*
X50237375Y80064625D01*
X50038000Y79766239D01*
X49838625Y80064625D01*
X49347418Y80392839D01*
X48914256Y80479000D01*
X48621744Y80479000D01*
X48188582Y80392839D01*
X47697375Y80064625D01*
X47498000Y79766239D01*
X47298625Y80064625D01*
X46807418Y80392839D01*
X46374256Y80479000D01*
X46081744Y80479000D01*
X45648582Y80392839D01*
X45157375Y80064625D01*
X44958000Y79766239D01*
X44758625Y80064625D01*
X44267418Y80392839D01*
X43834256Y80479000D01*
X43541744Y80479000D01*
X43108582Y80392839D01*
X42617375Y80064625D01*
X42418000Y79766239D01*
X42218625Y80064625D01*
X41727418Y80392839D01*
X41294256Y80479000D01*
X41001744Y80479000D01*
X40568582Y80392839D01*
X40077375Y80064625D01*
X39878000Y79766239D01*
X39678625Y80064625D01*
X39187418Y80392839D01*
X38754256Y80479000D01*
X38461744Y80479000D01*
X38028582Y80392839D01*
X37537375Y80064625D01*
X37338000Y79766239D01*
X37138625Y80064625D01*
X36647418Y80392839D01*
X36214256Y80479000D01*
X35921744Y80479000D01*
X35488582Y80392839D01*
X34997375Y80064625D01*
X34798000Y79766239D01*
X34598625Y80064625D01*
X34107418Y80392839D01*
X33674256Y80479000D01*
X33381744Y80479000D01*
X32948582Y80392839D01*
X32457375Y80064625D01*
X32258000Y79766239D01*
X32058625Y80064625D01*
X31567418Y80392839D01*
X31134256Y80479000D01*
X30841744Y80479000D01*
X30408582Y80392839D01*
X29917375Y80064625D01*
X29718000Y79766239D01*
X29518625Y80064625D01*
X29027418Y80392839D01*
X28594256Y80479000D01*
X28301744Y80479000D01*
X27868582Y80392839D01*
X27377375Y80064625D01*
X27178000Y79766239D01*
X26978625Y80064625D01*
X26487418Y80392839D01*
X26054256Y80479000D01*
X25761744Y80479000D01*
X25328582Y80392839D01*
X24837375Y80064625D01*
X24638000Y79766239D01*
X24438625Y80064625D01*
X23947418Y80392839D01*
X23514256Y80479000D01*
X23221744Y80479000D01*
X22788582Y80392839D01*
X22297375Y80064625D01*
X22098000Y79766239D01*
X21898625Y80064625D01*
X21407418Y80392839D01*
X20974256Y80479000D01*
X20681744Y80479000D01*
X20248582Y80392839D01*
X19757375Y80064625D01*
X19558000Y79766239D01*
X19358625Y80064625D01*
X18867418Y80392839D01*
X18434256Y80479000D01*
X18141744Y80479000D01*
X17708582Y80392839D01*
X17217375Y80064625D01*
X17018000Y79766239D01*
X16818625Y80064625D01*
X16327418Y80392839D01*
X15894256Y80479000D01*
X15601744Y80479000D01*
X15168582Y80392839D01*
X14677375Y80064625D01*
X14478000Y79766239D01*
X14278625Y80064625D01*
X13787418Y80392839D01*
X13354256Y80479000D01*
X13061744Y80479000D01*
X12628582Y80392839D01*
X12137375Y80064625D01*
X11938000Y79766239D01*
X11738625Y80064625D01*
X11247418Y80392839D01*
X10814256Y80479000D01*
X10521744Y80479000D01*
X10088582Y80392839D01*
X9597375Y80064625D01*
X9398000Y79766239D01*
X9198625Y80064625D01*
X8707418Y80392839D01*
X8274256Y80479000D01*
X7981744Y80479000D01*
X7548582Y80392839D01*
X7057375Y80064625D01*
X6858000Y79766239D01*
X6658625Y80064625D01*
X6167418Y80392839D01*
X5734256Y80479000D01*
X5441744Y80479000D01*
X5035000Y80398094D01*
X5035000Y80697000D01*
X63044001Y80697000D01*
X63044000Y15934090D01*
G36*
X31075235Y18176843D02*
X31323000Y18127560D01*
X31923000Y18127560D01*
X31974157Y18137736D01*
X31231422Y17395000D01*
X30043804Y17395000D01*
X30118000Y17574126D01*
X30118000Y17985874D01*
X30059312Y18127560D01*
X30653000Y18127560D01*
X30900765Y18176843D01*
X30988000Y18235132D01*
X31075235Y18176843D01*
X31075235Y18176843D01*
G37*
X31075235Y18176843D02*
X31323000Y18127560D01*
X31923000Y18127560D01*
X31974157Y18137736D01*
X31231422Y17395000D01*
X30043804Y17395000D01*
X30118000Y17574126D01*
X30118000Y17985874D01*
X30059312Y18127560D01*
X30653000Y18127560D01*
X30900765Y18176843D01*
X30988000Y18235132D01*
X31075235Y18176843D01*
G36*
X28048000Y17985874D02*
X28048000Y17574126D01*
X28122196Y17395000D01*
X27503804Y17395000D01*
X27578000Y17574126D01*
X27578000Y17985874D01*
X27519312Y18127560D01*
X28106688Y18127560D01*
X28048000Y17985874D01*
X28048000Y17985874D01*
G37*
X28048000Y17985874D02*
X28048000Y17574126D01*
X28122196Y17395000D01*
X27503804Y17395000D01*
X27578000Y17574126D01*
X27578000Y17985874D01*
X27519312Y18127560D01*
X28106688Y18127560D01*
X28048000Y17985874D01*
G36*
X27053001Y20880669D02*
X26843000Y20922440D01*
X26243000Y20922440D01*
X25995235Y20873157D01*
X25785191Y20732809D01*
X25644843Y20522765D01*
X25595560Y20275000D01*
X25595560Y18775000D01*
X25644843Y18527235D01*
X25717615Y18418326D01*
X25665569Y18366280D01*
X25508000Y17985874D01*
X25508000Y17574126D01*
X25541621Y17492958D01*
X20850424Y22184154D01*
X20801049Y22258049D01*
X20508310Y22453652D01*
X20250165Y22505000D01*
X20250161Y22505000D01*
X20163000Y22522337D01*
X20075839Y22505000D01*
X19357828Y22505000D01*
X19279256Y22557500D01*
X19357828Y22610000D01*
X26275839Y22610000D01*
X26363000Y22592663D01*
X26450161Y22610000D01*
X26450165Y22610000D01*
X26708310Y22661348D01*
X27001049Y22856951D01*
X27050425Y22930847D01*
X27053000Y22933422D01*
X27053001Y20880669D01*
X27053001Y20880669D01*
G37*
X27053001Y20880669D02*
X26843000Y20922440D01*
X26243000Y20922440D01*
X25995235Y20873157D01*
X25785191Y20732809D01*
X25644843Y20522765D01*
X25595560Y20275000D01*
X25595560Y18775000D01*
X25644843Y18527235D01*
X25717615Y18418326D01*
X25665569Y18366280D01*
X25508000Y17985874D01*
X25508000Y17574126D01*
X25541621Y17492958D01*
X20850424Y22184154D01*
X20801049Y22258049D01*
X20508310Y22453652D01*
X20250165Y22505000D01*
X20250161Y22505000D01*
X20163000Y22522337D01*
X20075839Y22505000D01*
X19357828Y22505000D01*
X19279256Y22557500D01*
X19357828Y22610000D01*
X26275839Y22610000D01*
X26363000Y22592663D01*
X26450161Y22610000D01*
X26450165Y22610000D01*
X26708310Y22661348D01*
X27001049Y22856951D01*
X27050425Y22930847D01*
X27053000Y22933422D01*
X27053001Y20880669D01*
G36*
X57415569Y22273720D02*
X57706720Y21982569D01*
X58068853Y21832569D01*
X59948000Y19953421D01*
X59948000Y19281579D01*
X57415431Y21814147D01*
X57265431Y22176280D01*
X56974280Y22467431D01*
X56630087Y22610000D01*
X57276278Y22610000D01*
X57415569Y22273720D01*
X57415569Y22273720D01*
G37*
X57415569Y22273720D02*
X57706720Y21982569D01*
X58068853Y21832569D01*
X59948000Y19953421D01*
X59948000Y19281579D01*
X57415431Y21814147D01*
X57265431Y22176280D01*
X56974280Y22467431D01*
X56630087Y22610000D01*
X57276278Y22610000D01*
X57415569Y22273720D01*
G36*
X36346744Y22557500D02*
X36268172Y22505000D01*
X34915160Y22505000D01*
X34827999Y22522337D01*
X34740838Y22505000D01*
X34740835Y22505000D01*
X34514604Y22460000D01*
X34482690Y22453652D01*
X34263845Y22307424D01*
X34263844Y22307423D01*
X34189951Y22258049D01*
X34140577Y22184156D01*
X33598847Y21642425D01*
X33524951Y21593049D01*
X33329348Y21300309D01*
X33278000Y21042164D01*
X33278000Y21042161D01*
X33260663Y20955000D01*
X33270194Y20907085D01*
X33193000Y20922440D01*
X32658000Y20922440D01*
X32658000Y21160874D01*
X32500431Y21541280D01*
X32338639Y21703072D01*
X32456652Y21879690D01*
X32508000Y22137835D01*
X32508000Y22137839D01*
X32525337Y22224999D01*
X32508000Y22312159D01*
X32508000Y22610000D01*
X36268172Y22610000D01*
X36346744Y22557500D01*
X36346744Y22557500D01*
G37*
X36346744Y22557500D02*
X36268172Y22505000D01*
X34915160Y22505000D01*
X34827999Y22522337D01*
X34740838Y22505000D01*
X34740835Y22505000D01*
X34514604Y22460000D01*
X34482690Y22453652D01*
X34263845Y22307424D01*
X34263844Y22307423D01*
X34189951Y22258049D01*
X34140577Y22184156D01*
X33598847Y21642425D01*
X33524951Y21593049D01*
X33329348Y21300309D01*
X33278000Y21042164D01*
X33278000Y21042161D01*
X33260663Y20955000D01*
X33270194Y20907085D01*
X33193000Y20922440D01*
X32658000Y20922440D01*
X32658000Y21160874D01*
X32500431Y21541280D01*
X32338639Y21703072D01*
X32456652Y21879690D01*
X32508000Y22137835D01*
X32508000Y22137839D01*
X32525337Y22224999D01*
X32508000Y22312159D01*
X32508000Y22610000D01*
X36268172Y22610000D01*
X36346744Y22557500D01*
G36*
X29593000Y22539802D02*
X28598528Y21545329D01*
X28573000Y21528272D01*
X28573000Y22585973D01*
X28877126Y22460000D01*
X29288874Y22460000D01*
X29593000Y22585973D01*
X29593000Y22539802D01*
X29593000Y22539802D01*
G37*
X29593000Y22539802D02*
X28598528Y21545329D01*
X28573000Y21528272D01*
X28573000Y22585973D01*
X28877126Y22460000D01*
X29288874Y22460000D01*
X29593000Y22585973D01*
X29593000Y22539802D01*
G36*
X52856744Y22557500D02*
X52778172Y22505000D01*
X52060160Y22505000D01*
X51972999Y22522337D01*
X51885838Y22505000D01*
X45917582Y22505000D01*
X45812582Y22610000D01*
X52778172Y22610000D01*
X52856744Y22557500D01*
X52856744Y22557500D01*
G37*
X52856744Y22557500D02*
X52778172Y22505000D01*
X52060160Y22505000D01*
X51972999Y22522337D01*
X51885838Y22505000D01*
X45917582Y22505000D01*
X45812582Y22610000D01*
X52778172Y22610000D01*
X52856744Y22557500D01*
G36*
X55892420Y22505000D02*
X54917828Y22505000D01*
X54839256Y22557500D01*
X54917828Y22610000D01*
X56145913Y22610000D01*
X55892420Y22505000D01*
X55892420Y22505000D01*
G37*
X55892420Y22505000D02*
X54917828Y22505000D01*
X54839256Y22557500D01*
X54917828Y22610000D01*
X56145913Y22610000D01*
X55892420Y22505000D01*
G36*
X42789843Y23927235D02*
X42803000Y23907544D01*
X42803000Y23762161D01*
X42785663Y23675000D01*
X42803000Y23587839D01*
X42803000Y23587836D01*
X42854348Y23329691D01*
X43033724Y23061237D01*
X38647644Y23061237D01*
X38685440Y23251250D01*
X38685440Y23590861D01*
X39134579Y24040000D01*
X42767413Y24040000D01*
X42789843Y23927235D01*
X42789843Y23927235D01*
G37*
X42789843Y23927235D02*
X42803000Y23907544D01*
X42803000Y23762161D01*
X42785663Y23675000D01*
X42803000Y23587839D01*
X42803000Y23587836D01*
X42854348Y23329691D01*
X43033724Y23061237D01*
X38647644Y23061237D01*
X38685440Y23251250D01*
X38685440Y23590861D01*
X39134579Y24040000D01*
X42767413Y24040000D01*
X42789843Y23927235D01*
G36*
X17253000Y28369126D02*
X17410569Y27988720D01*
X17701720Y27697569D01*
X18082126Y27540000D01*
X18493874Y27540000D01*
X18874280Y27697569D01*
X18991711Y27815000D01*
X31943199Y27815000D01*
X32133000Y27625198D01*
X32133000Y26916578D01*
X31815425Y27234153D01*
X31766049Y27308049D01*
X31473310Y27503652D01*
X31215165Y27555000D01*
X31215161Y27555000D01*
X31128000Y27572337D01*
X31040839Y27555000D01*
X27265161Y27555000D01*
X27178000Y27572337D01*
X27090839Y27555000D01*
X27090835Y27555000D01*
X26868998Y27510874D01*
X26832690Y27503652D01*
X26613845Y27357424D01*
X26613844Y27357423D01*
X26539951Y27308049D01*
X26490577Y27234156D01*
X25978846Y26722425D01*
X25904951Y26673049D01*
X25709348Y26380309D01*
X25658000Y26122164D01*
X25658000Y26122161D01*
X25640663Y26035000D01*
X25658000Y25947839D01*
X25658000Y25942456D01*
X25644843Y25922765D01*
X25595560Y25675000D01*
X25595560Y24380000D01*
X19357828Y24380000D01*
X19085294Y24562102D01*
X18744250Y24629940D01*
X17831750Y24629940D01*
X17490706Y24562102D01*
X17218172Y24380000D01*
X16708804Y24380000D01*
X16783000Y24559126D01*
X16783000Y24970874D01*
X16625431Y25351280D01*
X16508000Y25468711D01*
X16508000Y25662796D01*
X16632809Y25746191D01*
X16773157Y25956235D01*
X16822440Y26204000D01*
X16822440Y28154000D01*
X16773157Y28401765D01*
X16740927Y28450000D01*
X17253000Y28450000D01*
X17253000Y28369126D01*
X17253000Y28369126D01*
G37*
X17253000Y28369126D02*
X17410569Y27988720D01*
X17701720Y27697569D01*
X18082126Y27540000D01*
X18493874Y27540000D01*
X18874280Y27697569D01*
X18991711Y27815000D01*
X31943199Y27815000D01*
X32133000Y27625198D01*
X32133000Y26916578D01*
X31815425Y27234153D01*
X31766049Y27308049D01*
X31473310Y27503652D01*
X31215165Y27555000D01*
X31215161Y27555000D01*
X31128000Y27572337D01*
X31040839Y27555000D01*
X27265161Y27555000D01*
X27178000Y27572337D01*
X27090839Y27555000D01*
X27090835Y27555000D01*
X26868998Y27510874D01*
X26832690Y27503652D01*
X26613845Y27357424D01*
X26613844Y27357423D01*
X26539951Y27308049D01*
X26490577Y27234156D01*
X25978846Y26722425D01*
X25904951Y26673049D01*
X25709348Y26380309D01*
X25658000Y26122164D01*
X25658000Y26122161D01*
X25640663Y26035000D01*
X25658000Y25947839D01*
X25658000Y25942456D01*
X25644843Y25922765D01*
X25595560Y25675000D01*
X25595560Y24380000D01*
X19357828Y24380000D01*
X19085294Y24562102D01*
X18744250Y24629940D01*
X17831750Y24629940D01*
X17490706Y24562102D01*
X17218172Y24380000D01*
X16708804Y24380000D01*
X16783000Y24559126D01*
X16783000Y24970874D01*
X16625431Y25351280D01*
X16508000Y25468711D01*
X16508000Y25662796D01*
X16632809Y25746191D01*
X16773157Y25956235D01*
X16822440Y26204000D01*
X16822440Y28154000D01*
X16773157Y28401765D01*
X16740927Y28450000D01*
X17253000Y28450000D01*
X17253000Y28369126D01*
G36*
X43729289Y28340000D02*
X43482126Y28340000D01*
X43101720Y28182431D01*
X42810569Y27891280D01*
X42653000Y27510874D01*
X42653000Y27099126D01*
X42810569Y26718720D01*
X43101720Y26427569D01*
X43366060Y26318076D01*
X43140235Y26273157D01*
X42930191Y26132809D01*
X42789843Y25922765D01*
X42767413Y25810000D01*
X38855159Y25810000D01*
X38767999Y25827337D01*
X38680839Y25810000D01*
X38680835Y25810000D01*
X38422690Y25758652D01*
X38319483Y25689691D01*
X38203845Y25612424D01*
X38203844Y25612423D01*
X38129951Y25563049D01*
X38080577Y25489156D01*
X37221362Y24629940D01*
X36881750Y24629940D01*
X36540706Y24562102D01*
X36268172Y24380000D01*
X35110440Y24380000D01*
X35110440Y25675000D01*
X35061157Y25922765D01*
X34920809Y26132809D01*
X34710765Y26273157D01*
X34463000Y26322440D01*
X33863000Y26322440D01*
X33653000Y26280669D01*
X33653000Y27865152D01*
X33667888Y27940000D01*
X33653000Y28014848D01*
X33653000Y28014852D01*
X33608904Y28236537D01*
X33466272Y28450000D01*
X43619289Y28450000D01*
X43729289Y28340000D01*
X43729289Y28340000D01*
G37*
X43729289Y28340000D02*
X43482126Y28340000D01*
X43101720Y28182431D01*
X42810569Y27891280D01*
X42653000Y27510874D01*
X42653000Y27099126D01*
X42810569Y26718720D01*
X43101720Y26427569D01*
X43366060Y26318076D01*
X43140235Y26273157D01*
X42930191Y26132809D01*
X42789843Y25922765D01*
X42767413Y25810000D01*
X38855159Y25810000D01*
X38767999Y25827337D01*
X38680839Y25810000D01*
X38680835Y25810000D01*
X38422690Y25758652D01*
X38319483Y25689691D01*
X38203845Y25612424D01*
X38203844Y25612423D01*
X38129951Y25563049D01*
X38080577Y25489156D01*
X37221362Y24629940D01*
X36881750Y24629940D01*
X36540706Y24562102D01*
X36268172Y24380000D01*
X35110440Y24380000D01*
X35110440Y25675000D01*
X35061157Y25922765D01*
X34920809Y26132809D01*
X34710765Y26273157D01*
X34463000Y26322440D01*
X33863000Y26322440D01*
X33653000Y26280669D01*
X33653000Y27865152D01*
X33667888Y27940000D01*
X33653000Y28014848D01*
X33653000Y28014852D01*
X33608904Y28236537D01*
X33466272Y28450000D01*
X43619289Y28450000D01*
X43729289Y28340000D01*
G36*
X51356720Y26427569D02*
X51612857Y26321474D01*
X51608000Y26322440D01*
X51008000Y26322440D01*
X50945459Y26310000D01*
X50881690Y26310000D01*
X50822776Y26285597D01*
X50760235Y26273157D01*
X50707215Y26237730D01*
X50673000Y26223558D01*
X50638785Y26237730D01*
X50585765Y26273157D01*
X50523224Y26285597D01*
X50464310Y26310000D01*
X50400541Y26310000D01*
X50338000Y26322440D01*
X49738000Y26322440D01*
X49675459Y26310000D01*
X49611690Y26310000D01*
X49552776Y26285597D01*
X49490235Y26273157D01*
X49437215Y26237730D01*
X49403000Y26223558D01*
X49368785Y26237730D01*
X49315765Y26273157D01*
X49253224Y26285597D01*
X49194310Y26310000D01*
X49130541Y26310000D01*
X49068000Y26322440D01*
X48468000Y26322440D01*
X48405459Y26310000D01*
X48341690Y26310000D01*
X48282776Y26285597D01*
X48220235Y26273157D01*
X48167215Y26237730D01*
X48133000Y26223558D01*
X48098785Y26237730D01*
X48045765Y26273157D01*
X47983224Y26285597D01*
X47924310Y26310000D01*
X47860541Y26310000D01*
X47798000Y26322440D01*
X47198000Y26322440D01*
X47135459Y26310000D01*
X47071690Y26310000D01*
X47012776Y26285597D01*
X46950235Y26273157D01*
X46897215Y26237730D01*
X46863000Y26223558D01*
X46828785Y26237730D01*
X46775765Y26273157D01*
X46713224Y26285597D01*
X46654310Y26310000D01*
X46590541Y26310000D01*
X46528000Y26322440D01*
X45928000Y26322440D01*
X45865459Y26310000D01*
X45801690Y26310000D01*
X45742776Y26285597D01*
X45680235Y26273157D01*
X45627215Y26237730D01*
X45593000Y26223558D01*
X45558785Y26237730D01*
X45505765Y26273157D01*
X45443224Y26285597D01*
X45384310Y26310000D01*
X45320541Y26310000D01*
X45258000Y26322440D01*
X44658000Y26322440D01*
X44595459Y26310000D01*
X44531690Y26310000D01*
X44472776Y26285597D01*
X44410235Y26273157D01*
X44357215Y26237730D01*
X44314972Y26220232D01*
X44235765Y26273157D01*
X44009940Y26318076D01*
X44274280Y26427569D01*
X44391711Y26545000D01*
X51239289Y26545000D01*
X51356720Y26427569D01*
X51356720Y26427569D01*
G37*
X51356720Y26427569D02*
X51612857Y26321474D01*
X51608000Y26322440D01*
X51008000Y26322440D01*
X50945459Y26310000D01*
X50881690Y26310000D01*
X50822776Y26285597D01*
X50760235Y26273157D01*
X50707215Y26237730D01*
X50673000Y26223558D01*
X50638785Y26237730D01*
X50585765Y26273157D01*
X50523224Y26285597D01*
X50464310Y26310000D01*
X50400541Y26310000D01*
X50338000Y26322440D01*
X49738000Y26322440D01*
X49675459Y26310000D01*
X49611690Y26310000D01*
X49552776Y26285597D01*
X49490235Y26273157D01*
X49437215Y26237730D01*
X49403000Y26223558D01*
X49368785Y26237730D01*
X49315765Y26273157D01*
X49253224Y26285597D01*
X49194310Y26310000D01*
X49130541Y26310000D01*
X49068000Y26322440D01*
X48468000Y26322440D01*
X48405459Y26310000D01*
X48341690Y26310000D01*
X48282776Y26285597D01*
X48220235Y26273157D01*
X48167215Y26237730D01*
X48133000Y26223558D01*
X48098785Y26237730D01*
X48045765Y26273157D01*
X47983224Y26285597D01*
X47924310Y26310000D01*
X47860541Y26310000D01*
X47798000Y26322440D01*
X47198000Y26322440D01*
X47135459Y26310000D01*
X47071690Y26310000D01*
X47012776Y26285597D01*
X46950235Y26273157D01*
X46897215Y26237730D01*
X46863000Y26223558D01*
X46828785Y26237730D01*
X46775765Y26273157D01*
X46713224Y26285597D01*
X46654310Y26310000D01*
X46590541Y26310000D01*
X46528000Y26322440D01*
X45928000Y26322440D01*
X45865459Y26310000D01*
X45801690Y26310000D01*
X45742776Y26285597D01*
X45680235Y26273157D01*
X45627215Y26237730D01*
X45593000Y26223558D01*
X45558785Y26237730D01*
X45505765Y26273157D01*
X45443224Y26285597D01*
X45384310Y26310000D01*
X45320541Y26310000D01*
X45258000Y26322440D01*
X44658000Y26322440D01*
X44595459Y26310000D01*
X44531690Y26310000D01*
X44472776Y26285597D01*
X44410235Y26273157D01*
X44357215Y26237730D01*
X44314972Y26220232D01*
X44235765Y26273157D01*
X44009940Y26318076D01*
X44274280Y26427569D01*
X44391711Y26545000D01*
X51239289Y26545000D01*
X51356720Y26427569D01*
G36*
X13443000Y29004126D02*
X13526955Y28801440D01*
X13035000Y28801440D01*
X12787235Y28752157D01*
X12700000Y28693868D01*
X12612765Y28752157D01*
X12365000Y28801440D01*
X11765000Y28801440D01*
X11517235Y28752157D01*
X11430000Y28693868D01*
X11342765Y28752157D01*
X11095000Y28801440D01*
X10495000Y28801440D01*
X10247235Y28752157D01*
X10160000Y28693868D01*
X10072765Y28752157D01*
X9825000Y28801440D01*
X9225000Y28801440D01*
X8977235Y28752157D01*
X8890000Y28693868D01*
X8802765Y28752157D01*
X8555000Y28801440D01*
X7955000Y28801440D01*
X7707235Y28752157D01*
X7620000Y28693868D01*
X7532765Y28752157D01*
X7285000Y28801440D01*
X6685000Y28801440D01*
X6525940Y28769801D01*
X6623000Y29004126D01*
X6623000Y29085000D01*
X13443000Y29085000D01*
X13443000Y29004126D01*
X13443000Y29004126D01*
G37*
X13443000Y29004126D02*
X13526955Y28801440D01*
X13035000Y28801440D01*
X12787235Y28752157D01*
X12700000Y28693868D01*
X12612765Y28752157D01*
X12365000Y28801440D01*
X11765000Y28801440D01*
X11517235Y28752157D01*
X11430000Y28693868D01*
X11342765Y28752157D01*
X11095000Y28801440D01*
X10495000Y28801440D01*
X10247235Y28752157D01*
X10160000Y28693868D01*
X10072765Y28752157D01*
X9825000Y28801440D01*
X9225000Y28801440D01*
X8977235Y28752157D01*
X8890000Y28693868D01*
X8802765Y28752157D01*
X8555000Y28801440D01*
X7955000Y28801440D01*
X7707235Y28752157D01*
X7620000Y28693868D01*
X7532765Y28752157D01*
X7285000Y28801440D01*
X6685000Y28801440D01*
X6525940Y28769801D01*
X6623000Y29004126D01*
X6623000Y29085000D01*
X13443000Y29085000D01*
X13443000Y29004126D01*
G36*
X46086667Y33744000D02*
X46258198Y33744000D01*
X43119199Y30605000D01*
X42728801Y30605000D01*
X45904115Y33780312D01*
X46086667Y33744000D01*
X46086667Y33744000D01*
G37*
X46086667Y33744000D02*
X46258198Y33744000D01*
X43119199Y30605000D01*
X42728801Y30605000D01*
X45904115Y33780312D01*
X46086667Y33744000D01*
G36*
X43546667Y33744000D02*
X43718198Y33744000D01*
X41678921Y31704722D01*
X41288523Y31704722D01*
X43364114Y33780312D01*
X43546667Y33744000D01*
X43546667Y33744000D01*
G37*
X43546667Y33744000D02*
X43718198Y33744000D01*
X41678921Y31704722D01*
X41288523Y31704722D01*
X43364114Y33780312D01*
X43546667Y33744000D01*
G36*
X41006667Y33744000D02*
X41178199Y33744000D01*
X39764187Y32329988D01*
X39373789Y32329988D01*
X40824114Y33780312D01*
X41006667Y33744000D01*
X41006667Y33744000D01*
G37*
X41006667Y33744000D02*
X41178199Y33744000D01*
X39764187Y32329988D01*
X39373789Y32329988D01*
X40824114Y33780312D01*
X41006667Y33744000D01*
G36*
X37573423Y34144423D02*
X38048091Y33827260D01*
X38466667Y33744000D01*
X38638199Y33744000D01*
X37859187Y32964988D01*
X37103000Y32964988D01*
X37103000Y33135864D01*
X36945431Y33516270D01*
X36654280Y33807421D01*
X36613367Y33824368D01*
X36627909Y33827260D01*
X37102577Y34144423D01*
X37338000Y34496758D01*
X37573423Y34144423D01*
X37573423Y34144423D01*
G37*
X37573423Y34144423D02*
X38048091Y33827260D01*
X38466667Y33744000D01*
X38638199Y33744000D01*
X37859187Y32964988D01*
X37103000Y32964988D01*
X37103000Y33135864D01*
X36945431Y33516270D01*
X36654280Y33807421D01*
X36613367Y33824368D01*
X36627909Y33827260D01*
X37102577Y34144423D01*
X37338000Y34496758D01*
X37573423Y34144423D01*
G36*
X13532198Y33780000D02*
X13530317Y33780000D01*
X13531886Y33780312D01*
X13532198Y33780000D01*
X13532198Y33780000D01*
G37*
X13532198Y33780000D02*
X13530317Y33780000D01*
X13531886Y33780312D01*
X13532198Y33780000D01*
G36*
X12173423Y34144423D02*
X12648091Y33827260D01*
X12885683Y33780000D01*
X10990317Y33780000D01*
X11227909Y33827260D01*
X11702577Y34144423D01*
X11938000Y34496758D01*
X12173423Y34144423D01*
X12173423Y34144423D01*
G37*
X12173423Y34144423D02*
X12648091Y33827260D01*
X12885683Y33780000D01*
X10990317Y33780000D01*
X11227909Y33827260D01*
X11702577Y34144423D01*
X11938000Y34496758D01*
X12173423Y34144423D01*
G36*
X9633423Y34144423D02*
X10108091Y33827260D01*
X10345683Y33780000D01*
X8450317Y33780000D01*
X8687909Y33827260D01*
X9162577Y34144423D01*
X9398000Y34496758D01*
X9633423Y34144423D01*
X9633423Y34144423D01*
G37*
X9633423Y34144423D02*
X10108091Y33827260D01*
X10345683Y33780000D01*
X8450317Y33780000D01*
X8687909Y33827260D01*
X9162577Y34144423D01*
X9398000Y34496758D01*
X9633423Y34144423D01*
G36*
X7093423Y34144423D02*
X7568091Y33827260D01*
X7805683Y33780000D01*
X5910317Y33780000D01*
X6147909Y33827260D01*
X6622577Y34144423D01*
X6858000Y34496758D01*
X7093423Y34144423D01*
X7093423Y34144423D01*
G37*
X7093423Y34144423D02*
X7568091Y33827260D01*
X7805683Y33780000D01*
X5910317Y33780000D01*
X6147909Y33827260D01*
X6622577Y34144423D01*
X6858000Y34496758D01*
X7093423Y34144423D01*
G36*
X4189312Y35502886D02*
X4124887Y35179000D01*
X4236260Y34619091D01*
X4553423Y34144423D01*
X5028091Y33827260D01*
X5265683Y33780000D01*
X4721803Y33780000D01*
X3853331Y34648470D01*
X3810929Y34711929D01*
X3614908Y34842906D01*
X3611157Y34861765D01*
X3470809Y35071809D01*
X3260765Y35212157D01*
X3178019Y35228616D01*
X3173000Y35253847D01*
X3173000Y35253852D01*
X3128904Y35475537D01*
X2960929Y35726929D01*
X2897473Y35769329D01*
X2300241Y36366560D01*
X3013000Y36366560D01*
X3260765Y36415843D01*
X3270111Y36422088D01*
X4189312Y35502886D01*
X4189312Y35502886D01*
G37*
X4189312Y35502886D02*
X4124887Y35179000D01*
X4236260Y34619091D01*
X4553423Y34144423D01*
X5028091Y33827260D01*
X5265683Y33780000D01*
X4721803Y33780000D01*
X3853331Y34648470D01*
X3810929Y34711929D01*
X3614908Y34842906D01*
X3611157Y34861765D01*
X3470809Y35071809D01*
X3260765Y35212157D01*
X3178019Y35228616D01*
X3173000Y35253847D01*
X3173000Y35253852D01*
X3128904Y35475537D01*
X2960929Y35726929D01*
X2897473Y35769329D01*
X2300241Y36366560D01*
X3013000Y36366560D01*
X3260765Y36415843D01*
X3270111Y36422088D01*
X4189312Y35502886D01*
G36*
X3770071Y53286069D02*
X3833530Y53243667D01*
X5260273Y51816924D01*
X5028091Y51770740D01*
X4553423Y51453577D01*
X4236260Y50978909D01*
X4124887Y50419000D01*
X4236260Y49859091D01*
X4553423Y49384423D01*
X5028091Y49067260D01*
X5446667Y48984000D01*
X5729333Y48984000D01*
X6147909Y49067260D01*
X6622577Y49384423D01*
X6858000Y49736758D01*
X7093423Y49384423D01*
X7568091Y49067260D01*
X7986667Y48984000D01*
X8269333Y48984000D01*
X8687909Y49067260D01*
X9162577Y49384423D01*
X9398000Y49736758D01*
X9633423Y49384423D01*
X10108091Y49067260D01*
X10526667Y48984000D01*
X10809333Y48984000D01*
X11227909Y49067260D01*
X11582804Y49304393D01*
X24793392Y36093803D01*
X24638000Y35861242D01*
X24402577Y36213577D01*
X23927909Y36530740D01*
X23509333Y36614000D01*
X23226667Y36614000D01*
X22808091Y36530740D01*
X22333423Y36213577D01*
X22098000Y35861242D01*
X21862577Y36213577D01*
X21387909Y36530740D01*
X20969333Y36614000D01*
X20686667Y36614000D01*
X20268091Y36530740D01*
X19793423Y36213577D01*
X19558000Y35861242D01*
X19322577Y36213577D01*
X18847909Y36530740D01*
X18429333Y36614000D01*
X18146667Y36614000D01*
X17728091Y36530740D01*
X17253423Y36213577D01*
X17018000Y35861242D01*
X16782577Y36213577D01*
X16307909Y36530740D01*
X15889333Y36614000D01*
X15606667Y36614000D01*
X15188091Y36530740D01*
X14713423Y36213577D01*
X14478000Y35861242D01*
X14242577Y36213577D01*
X13767909Y36530740D01*
X13349333Y36614000D01*
X13066667Y36614000D01*
X12648091Y36530740D01*
X12173423Y36213577D01*
X11938000Y35861242D01*
X11702577Y36213577D01*
X11227909Y36530740D01*
X10809333Y36614000D01*
X10526667Y36614000D01*
X10108091Y36530740D01*
X9633423Y36213577D01*
X9398000Y35861242D01*
X9162577Y36213577D01*
X8687909Y36530740D01*
X8269333Y36614000D01*
X7986667Y36614000D01*
X7568091Y36530740D01*
X7093423Y36213577D01*
X6858000Y35861242D01*
X6622577Y36213577D01*
X6147909Y36530740D01*
X5729333Y36614000D01*
X5446667Y36614000D01*
X5264114Y36577688D01*
X3893331Y37948470D01*
X3850929Y38011929D01*
X3599537Y38179904D01*
X3598960Y38180019D01*
X3470809Y38371809D01*
X3260765Y38512157D01*
X3013000Y38561440D01*
X2679242Y38561440D01*
X3024473Y38906671D01*
X3087929Y38949071D01*
X3255904Y39200463D01*
X3300000Y39422148D01*
X3300000Y39422152D01*
X3314888Y39496999D01*
X3300000Y39571846D01*
X3300000Y49862386D01*
X3387765Y49879843D01*
X3597809Y50020191D01*
X3738157Y50230235D01*
X3787440Y50478000D01*
X3787440Y51378000D01*
X3738157Y51625765D01*
X3597809Y51835809D01*
X3387765Y51976157D01*
X3187669Y52015958D01*
X3417431Y52245720D01*
X3575000Y52626126D01*
X3575000Y53037874D01*
X3488354Y53247055D01*
X3597809Y53320191D01*
X3672541Y53432034D01*
X3770071Y53286069D01*
X3770071Y53286069D01*
G37*
X3770071Y53286069D02*
X3833530Y53243667D01*
X5260273Y51816924D01*
X5028091Y51770740D01*
X4553423Y51453577D01*
X4236260Y50978909D01*
X4124887Y50419000D01*
X4236260Y49859091D01*
X4553423Y49384423D01*
X5028091Y49067260D01*
X5446667Y48984000D01*
X5729333Y48984000D01*
X6147909Y49067260D01*
X6622577Y49384423D01*
X6858000Y49736758D01*
X7093423Y49384423D01*
X7568091Y49067260D01*
X7986667Y48984000D01*
X8269333Y48984000D01*
X8687909Y49067260D01*
X9162577Y49384423D01*
X9398000Y49736758D01*
X9633423Y49384423D01*
X10108091Y49067260D01*
X10526667Y48984000D01*
X10809333Y48984000D01*
X11227909Y49067260D01*
X11582804Y49304393D01*
X24793392Y36093803D01*
X24638000Y35861242D01*
X24402577Y36213577D01*
X23927909Y36530740D01*
X23509333Y36614000D01*
X23226667Y36614000D01*
X22808091Y36530740D01*
X22333423Y36213577D01*
X22098000Y35861242D01*
X21862577Y36213577D01*
X21387909Y36530740D01*
X20969333Y36614000D01*
X20686667Y36614000D01*
X20268091Y36530740D01*
X19793423Y36213577D01*
X19558000Y35861242D01*
X19322577Y36213577D01*
X18847909Y36530740D01*
X18429333Y36614000D01*
X18146667Y36614000D01*
X17728091Y36530740D01*
X17253423Y36213577D01*
X17018000Y35861242D01*
X16782577Y36213577D01*
X16307909Y36530740D01*
X15889333Y36614000D01*
X15606667Y36614000D01*
X15188091Y36530740D01*
X14713423Y36213577D01*
X14478000Y35861242D01*
X14242577Y36213577D01*
X13767909Y36530740D01*
X13349333Y36614000D01*
X13066667Y36614000D01*
X12648091Y36530740D01*
X12173423Y36213577D01*
X11938000Y35861242D01*
X11702577Y36213577D01*
X11227909Y36530740D01*
X10809333Y36614000D01*
X10526667Y36614000D01*
X10108091Y36530740D01*
X9633423Y36213577D01*
X9398000Y35861242D01*
X9162577Y36213577D01*
X8687909Y36530740D01*
X8269333Y36614000D01*
X7986667Y36614000D01*
X7568091Y36530740D01*
X7093423Y36213577D01*
X6858000Y35861242D01*
X6622577Y36213577D01*
X6147909Y36530740D01*
X5729333Y36614000D01*
X5446667Y36614000D01*
X5264114Y36577688D01*
X3893331Y37948470D01*
X3850929Y38011929D01*
X3599537Y38179904D01*
X3598960Y38180019D01*
X3470809Y38371809D01*
X3260765Y38512157D01*
X3013000Y38561440D01*
X2679242Y38561440D01*
X3024473Y38906671D01*
X3087929Y38949071D01*
X3255904Y39200463D01*
X3300000Y39422148D01*
X3300000Y39422152D01*
X3314888Y39496999D01*
X3300000Y39571846D01*
X3300000Y49862386D01*
X3387765Y49879843D01*
X3597809Y50020191D01*
X3738157Y50230235D01*
X3787440Y50478000D01*
X3787440Y51378000D01*
X3738157Y51625765D01*
X3597809Y51835809D01*
X3387765Y51976157D01*
X3187669Y52015958D01*
X3417431Y52245720D01*
X3575000Y52626126D01*
X3575000Y53037874D01*
X3488354Y53247055D01*
X3597809Y53320191D01*
X3672541Y53432034D01*
X3770071Y53286069D01*
G36*
X52847333Y36236235D02*
X52813423Y36213577D01*
X52578000Y35861242D01*
X52342577Y36213577D01*
X52177317Y36324000D01*
X52759569Y36324000D01*
X52847333Y36236235D01*
X52847333Y36236235D01*
G37*
X52847333Y36236235D02*
X52813423Y36213577D01*
X52578000Y35861242D01*
X52342577Y36213577D01*
X52177317Y36324000D01*
X52759569Y36324000D01*
X52847333Y36236235D01*
G36*
X57378001Y49349171D02*
X57378001Y49009582D01*
X57340500Y48919047D01*
X57273000Y49082007D01*
X57273000Y49349172D01*
X57325500Y49427744D01*
X57378001Y49349171D01*
X57378001Y49349171D01*
G37*
X57378001Y49349171D02*
X57378001Y49009582D01*
X57340500Y48919047D01*
X57273000Y49082007D01*
X57273000Y49349172D01*
X57325500Y49427744D01*
X57378001Y49349171D01*
G36*
X55503000Y68399172D02*
X55503001Y51488829D01*
X55379502Y51304000D01*
X55278533Y51304000D01*
X55246157Y51466765D01*
X55105809Y51676809D01*
X54895765Y51817157D01*
X54648000Y51866440D01*
X53317593Y51866440D01*
X53293903Y51985537D01*
X53243001Y52061717D01*
X53243001Y52907388D01*
X53288091Y52877260D01*
X53706667Y52794000D01*
X53989333Y52794000D01*
X54407909Y52877260D01*
X54882577Y53194423D01*
X55199740Y53669091D01*
X55311113Y54229000D01*
X55199740Y54788909D01*
X54882577Y55263577D01*
X54407909Y55580740D01*
X53989333Y55664000D01*
X53706667Y55664000D01*
X53288091Y55580740D01*
X53243001Y55550612D01*
X53243001Y68021560D01*
X54648000Y68021560D01*
X54895765Y68070843D01*
X55105809Y68211191D01*
X55246157Y68421235D01*
X55278533Y68584000D01*
X55379502Y68584000D01*
X55503000Y68399172D01*
X55503000Y68399172D01*
G37*
X55503000Y68399172D02*
X55503001Y51488829D01*
X55379502Y51304000D01*
X55278533Y51304000D01*
X55246157Y51466765D01*
X55105809Y51676809D01*
X54895765Y51817157D01*
X54648000Y51866440D01*
X53317593Y51866440D01*
X53293903Y51985537D01*
X53243001Y52061717D01*
X53243001Y52907388D01*
X53288091Y52877260D01*
X53706667Y52794000D01*
X53989333Y52794000D01*
X54407909Y52877260D01*
X54882577Y53194423D01*
X55199740Y53669091D01*
X55311113Y54229000D01*
X55199740Y54788909D01*
X54882577Y55263577D01*
X54407909Y55580740D01*
X53989333Y55664000D01*
X53706667Y55664000D01*
X53288091Y55580740D01*
X53243001Y55550612D01*
X53243001Y68021560D01*
X54648000Y68021560D01*
X54895765Y68070843D01*
X55105809Y68211191D01*
X55246157Y68421235D01*
X55278533Y68584000D01*
X55379502Y68584000D01*
X55503000Y68399172D01*
G36*
X57378001Y68399171D02*
X57378000Y51488828D01*
X57325500Y51410256D01*
X57273000Y51488828D01*
X57273000Y68399172D01*
X57325500Y68477744D01*
X57378001Y68399171D01*
X57378001Y68399171D01*
G37*
X57378001Y68399171D02*
X57378000Y51488828D01*
X57325500Y51410256D01*
X57273000Y51488828D01*
X57273000Y68399172D01*
X57325500Y68477744D01*
X57378001Y68399171D01*
G36*
X15606667Y52794000D02*
X15889333Y52794000D01*
X16163001Y52848436D01*
X16163001Y51908804D01*
X16071886Y51817688D01*
X15889333Y51854000D01*
X15606667Y51854000D01*
X15188091Y51770740D01*
X14833197Y51533607D01*
X14629757Y51737046D01*
X14630431Y51737720D01*
X14788000Y52118126D01*
X14788000Y52284198D01*
X15107475Y52603672D01*
X15170928Y52646070D01*
X15213326Y52709523D01*
X15213328Y52709525D01*
X15309295Y52853151D01*
X15606667Y52794000D01*
X15606667Y52794000D01*
G37*
X15606667Y52794000D02*
X15889333Y52794000D01*
X16163001Y52848436D01*
X16163001Y51908804D01*
X16071886Y51817688D01*
X15889333Y51854000D01*
X15606667Y51854000D01*
X15188091Y51770740D01*
X14833197Y51533607D01*
X14629757Y51737046D01*
X14630431Y51737720D01*
X14788000Y52118126D01*
X14788000Y52284198D01*
X15107475Y52603672D01*
X15170928Y52646070D01*
X15213326Y52709523D01*
X15213328Y52709525D01*
X15309295Y52853151D01*
X15606667Y52794000D01*
G36*
X50748091Y52877260D02*
X51166667Y52794000D01*
X51449333Y52794000D01*
X51723001Y52848436D01*
X51723001Y51908803D01*
X51631886Y51817688D01*
X51449333Y51854000D01*
X51166667Y51854000D01*
X50748091Y51770740D01*
X50703001Y51740612D01*
X50703001Y52907388D01*
X50748091Y52877260D01*
X50748091Y52877260D01*
G37*
X50748091Y52877260D02*
X51166667Y52794000D01*
X51449333Y52794000D01*
X51723001Y52848436D01*
X51723001Y51908803D01*
X51631886Y51817688D01*
X51449333Y51854000D01*
X51166667Y51854000D01*
X50748091Y51770740D01*
X50703001Y51740612D01*
X50703001Y52907388D01*
X50748091Y52877260D01*
G36*
X46832999Y52098801D02*
X46551886Y51817688D01*
X46369333Y51854000D01*
X46086667Y51854000D01*
X45668091Y51770740D01*
X45623001Y51740612D01*
X45623001Y52907388D01*
X45668091Y52877260D01*
X46086667Y52794000D01*
X46369333Y52794000D01*
X46787909Y52877260D01*
X46832999Y52907388D01*
X46832999Y52098801D01*
X46832999Y52098801D01*
G37*
X46832999Y52098801D02*
X46551886Y51817688D01*
X46369333Y51854000D01*
X46086667Y51854000D01*
X45668091Y51770740D01*
X45623001Y51740612D01*
X45623001Y52907388D01*
X45668091Y52877260D01*
X46086667Y52794000D01*
X46369333Y52794000D01*
X46787909Y52877260D01*
X46832999Y52907388D01*
X46832999Y52098801D01*
G36*
X27888091Y52877260D02*
X28306667Y52794000D01*
X28589333Y52794000D01*
X28863001Y52848436D01*
X28863001Y51908804D01*
X28771886Y51817688D01*
X28589333Y51854000D01*
X28306667Y51854000D01*
X27888091Y51770740D01*
X27843001Y51740612D01*
X27843001Y52907388D01*
X27888091Y52877260D01*
X27888091Y52877260D01*
G37*
X27888091Y52877260D02*
X28306667Y52794000D01*
X28589333Y52794000D01*
X28863001Y52848436D01*
X28863001Y51908804D01*
X28771886Y51817688D01*
X28589333Y51854000D01*
X28306667Y51854000D01*
X27888091Y51770740D01*
X27843001Y51740612D01*
X27843001Y52907388D01*
X27888091Y52877260D01*
G36*
X43128091Y52877260D02*
X43546667Y52794000D01*
X43829333Y52794000D01*
X44103001Y52848436D01*
X44103001Y51908804D01*
X44011886Y51817688D01*
X43829333Y51854000D01*
X43546667Y51854000D01*
X43128091Y51770740D01*
X43083001Y51740612D01*
X43083001Y52907388D01*
X43128091Y52877260D01*
X43128091Y52877260D01*
G37*
X43128091Y52877260D02*
X43546667Y52794000D01*
X43829333Y52794000D01*
X44103001Y52848436D01*
X44103001Y51908804D01*
X44011886Y51817688D01*
X43829333Y51854000D01*
X43546667Y51854000D01*
X43128091Y51770740D01*
X43083001Y51740612D01*
X43083001Y52907388D01*
X43128091Y52877260D01*
G36*
X40588091Y52877260D02*
X41006667Y52794000D01*
X41289333Y52794000D01*
X41563001Y52848436D01*
X41563001Y51908804D01*
X41471886Y51817688D01*
X41289333Y51854000D01*
X41006667Y51854000D01*
X40588091Y51770740D01*
X40543001Y51740612D01*
X40543001Y52907388D01*
X40588091Y52877260D01*
X40588091Y52877260D01*
G37*
X40588091Y52877260D02*
X41006667Y52794000D01*
X41289333Y52794000D01*
X41563001Y52848436D01*
X41563001Y51908804D01*
X41471886Y51817688D01*
X41289333Y51854000D01*
X41006667Y51854000D01*
X40588091Y51770740D01*
X40543001Y51740612D01*
X40543001Y52907388D01*
X40588091Y52877260D01*
G36*
X35508091Y52877260D02*
X35926667Y52794000D01*
X36209333Y52794000D01*
X36578000Y52867332D01*
X36578000Y52003802D01*
X36391886Y51817688D01*
X36209333Y51854000D01*
X35926667Y51854000D01*
X35508091Y51770740D01*
X35463001Y51740612D01*
X35463001Y52907388D01*
X35508091Y52877260D01*
X35508091Y52877260D01*
G37*
X35508091Y52877260D02*
X35926667Y52794000D01*
X36209333Y52794000D01*
X36578000Y52867332D01*
X36578000Y52003802D01*
X36391886Y51817688D01*
X36209333Y51854000D01*
X35926667Y51854000D01*
X35508091Y51770740D01*
X35463001Y51740612D01*
X35463001Y52907388D01*
X35508091Y52877260D01*
G36*
X32968091Y52877260D02*
X33386667Y52794000D01*
X33669333Y52794000D01*
X33943001Y52848436D01*
X33943001Y51908804D01*
X33851886Y51817688D01*
X33669333Y51854000D01*
X33386667Y51854000D01*
X32968091Y51770740D01*
X32923001Y51740612D01*
X32923001Y52907388D01*
X32968091Y52877260D01*
X32968091Y52877260D01*
G37*
X32968091Y52877260D02*
X33386667Y52794000D01*
X33669333Y52794000D01*
X33943001Y52848436D01*
X33943001Y51908804D01*
X33851886Y51817688D01*
X33669333Y51854000D01*
X33386667Y51854000D01*
X32968091Y51770740D01*
X32923001Y51740612D01*
X32923001Y52907388D01*
X32968091Y52877260D01*
G36*
X30428091Y52877260D02*
X30846667Y52794000D01*
X31129333Y52794000D01*
X31403001Y52848436D01*
X31403001Y51908804D01*
X31311886Y51817688D01*
X31129333Y51854000D01*
X30846667Y51854000D01*
X30428091Y51770740D01*
X30383001Y51740612D01*
X30383001Y52907388D01*
X30428091Y52877260D01*
X30428091Y52877260D01*
G37*
X30428091Y52877260D02*
X30846667Y52794000D01*
X31129333Y52794000D01*
X31403001Y52848436D01*
X31403001Y51908804D01*
X31311886Y51817688D01*
X31129333Y51854000D01*
X30846667Y51854000D01*
X30428091Y51770740D01*
X30383001Y51740612D01*
X30383001Y52907388D01*
X30428091Y52877260D01*
G36*
X21432999Y52098801D02*
X21151886Y51817688D01*
X20969333Y51854000D01*
X20686667Y51854000D01*
X20268091Y51770740D01*
X20223001Y51740612D01*
X20223001Y52907388D01*
X20268091Y52877260D01*
X20686667Y52794000D01*
X20969333Y52794000D01*
X21387909Y52877260D01*
X21432999Y52907388D01*
X21432999Y52098801D01*
X21432999Y52098801D01*
G37*
X21432999Y52098801D02*
X21151886Y51817688D01*
X20969333Y51854000D01*
X20686667Y51854000D01*
X20268091Y51770740D01*
X20223001Y51740612D01*
X20223001Y52907388D01*
X20268091Y52877260D01*
X20686667Y52794000D01*
X20969333Y52794000D01*
X21387909Y52877260D01*
X21432999Y52907388D01*
X21432999Y52098801D01*
G36*
X17728091Y52877260D02*
X18146667Y52794000D01*
X18429333Y52794000D01*
X18703001Y52848436D01*
X18703001Y51908804D01*
X18611886Y51817688D01*
X18429333Y51854000D01*
X18146667Y51854000D01*
X17728091Y51770740D01*
X17683001Y51740612D01*
X17683001Y52907388D01*
X17728091Y52877260D01*
X17728091Y52877260D01*
G37*
X17728091Y52877260D02*
X18146667Y52794000D01*
X18429333Y52794000D01*
X18703001Y52848436D01*
X18703001Y51908804D01*
X18611886Y51817688D01*
X18429333Y51854000D01*
X18146667Y51854000D01*
X17728091Y51770740D01*
X17683001Y51740612D01*
X17683001Y52907388D01*
X17728091Y52877260D01*
G36*
X38466667Y52794000D02*
X38749333Y52794000D01*
X39023001Y52848436D01*
X39023001Y51908804D01*
X38931886Y51817688D01*
X38749333Y51854000D01*
X38466667Y51854000D01*
X38098000Y51780668D01*
X38098000Y52867332D01*
X38466667Y52794000D01*
X38466667Y52794000D01*
G37*
X38466667Y52794000D02*
X38749333Y52794000D01*
X39023001Y52848436D01*
X39023001Y51908804D01*
X38931886Y51817688D01*
X38749333Y51854000D01*
X38466667Y51854000D01*
X38098000Y51780668D01*
X38098000Y52867332D01*
X38466667Y52794000D01*
G36*
X49183001Y51908804D02*
X49091886Y51817688D01*
X48909333Y51854000D01*
X48626667Y51854000D01*
X48364342Y51801820D01*
X48352999Y51858845D01*
X48352999Y52848436D01*
X48626667Y52794000D01*
X48909333Y52794000D01*
X49183001Y52848436D01*
X49183001Y51908804D01*
X49183001Y51908804D01*
G37*
X49183001Y51908804D02*
X49091886Y51817688D01*
X48909333Y51854000D01*
X48626667Y51854000D01*
X48364342Y51801820D01*
X48352999Y51858845D01*
X48352999Y52848436D01*
X48626667Y52794000D01*
X48909333Y52794000D01*
X49183001Y52848436D01*
X49183001Y51908804D01*
G36*
X26323001Y51908804D02*
X26231886Y51817688D01*
X26049333Y51854000D01*
X25766667Y51854000D01*
X25504342Y51801820D01*
X25492999Y51858845D01*
X25492999Y52848436D01*
X25766667Y52794000D01*
X26049333Y52794000D01*
X26323001Y52848436D01*
X26323001Y51908804D01*
X26323001Y51908804D01*
G37*
X26323001Y51908804D02*
X26231886Y51817688D01*
X26049333Y51854000D01*
X25766667Y51854000D01*
X25504342Y51801820D01*
X25492999Y51858845D01*
X25492999Y52848436D01*
X25766667Y52794000D01*
X26049333Y52794000D01*
X26323001Y52848436D01*
X26323001Y51908804D01*
G36*
X23972999Y52098801D02*
X23691886Y51817688D01*
X23509333Y51854000D01*
X23226667Y51854000D01*
X22964342Y51801820D01*
X22952999Y51858845D01*
X22952999Y52848436D01*
X23226667Y52794000D01*
X23509333Y52794000D01*
X23927909Y52877260D01*
X23972999Y52907388D01*
X23972999Y52098801D01*
X23972999Y52098801D01*
G37*
X23972999Y52098801D02*
X23691886Y51817688D01*
X23509333Y51854000D01*
X23226667Y51854000D01*
X22964342Y51801820D01*
X22952999Y51858845D01*
X22952999Y52848436D01*
X23226667Y52794000D01*
X23509333Y52794000D01*
X23927909Y52877260D01*
X23972999Y52907388D01*
X23972999Y52098801D01*
G36*
X7798594Y51818602D02*
X7624538Y51934903D01*
X7402853Y51978999D01*
X7402848Y51978999D01*
X7328001Y51993887D01*
X7253154Y51978999D01*
X7247801Y51978999D01*
X6268778Y52958022D01*
X6502804Y53114393D01*
X7798594Y51818602D01*
X7798594Y51818602D01*
G37*
X7798594Y51818602D02*
X7624538Y51934903D01*
X7402853Y51978999D01*
X7402848Y51978999D01*
X7328001Y51993887D01*
X7253154Y51978999D01*
X7247801Y51978999D01*
X6268778Y52958022D01*
X6502804Y53114393D01*
X7798594Y51818602D01*
G36*
X11127097Y52757463D02*
X11243399Y52583405D01*
X10995727Y52831076D01*
X11108012Y52853411D01*
X11127097Y52757463D01*
X11127097Y52757463D01*
G37*
X11127097Y52757463D02*
X11243399Y52583405D01*
X10995727Y52831076D01*
X11108012Y52853411D01*
X11127097Y52757463D01*
G36*
X13862999Y55517203D02*
X13767909Y55580740D01*
X13349333Y55664000D01*
X13066667Y55664000D01*
X12648091Y55580740D01*
X12603001Y55550612D01*
X12603001Y68147388D01*
X12648091Y68117260D01*
X13066667Y68034000D01*
X13349333Y68034000D01*
X13767909Y68117260D01*
X13863000Y68180798D01*
X13862999Y55517203D01*
X13862999Y55517203D01*
G37*
X13862999Y55517203D02*
X13767909Y55580740D01*
X13349333Y55664000D01*
X13066667Y55664000D01*
X12648091Y55580740D01*
X12603001Y55550612D01*
X12603001Y68147388D01*
X12648091Y68117260D01*
X13066667Y68034000D01*
X13349333Y68034000D01*
X13767909Y68117260D01*
X13863000Y68180798D01*
X13862999Y55517203D01*
G36*
X46832999Y55550612D02*
X46787909Y55580740D01*
X46369333Y55664000D01*
X46086667Y55664000D01*
X45668091Y55580740D01*
X45623001Y55550612D01*
X45623001Y68147388D01*
X45668091Y68117260D01*
X46086667Y68034000D01*
X46369333Y68034000D01*
X46787909Y68117260D01*
X46833000Y68147389D01*
X46832999Y55550612D01*
X46832999Y55550612D01*
G37*
X46832999Y55550612D02*
X46787909Y55580740D01*
X46369333Y55664000D01*
X46086667Y55664000D01*
X45668091Y55580740D01*
X45623001Y55550612D01*
X45623001Y68147388D01*
X45668091Y68117260D01*
X46086667Y68034000D01*
X46369333Y68034000D01*
X46787909Y68117260D01*
X46833000Y68147389D01*
X46832999Y55550612D01*
G36*
X50748091Y68117260D02*
X51166667Y68034000D01*
X51449333Y68034000D01*
X51723002Y68088436D01*
X51723001Y55609564D01*
X51449333Y55664000D01*
X51166667Y55664000D01*
X50748091Y55580740D01*
X50703001Y55550612D01*
X50703001Y68147388D01*
X50748091Y68117260D01*
X50748091Y68117260D01*
G37*
X50748091Y68117260D02*
X51166667Y68034000D01*
X51449333Y68034000D01*
X51723002Y68088436D01*
X51723001Y55609564D01*
X51449333Y55664000D01*
X51166667Y55664000D01*
X50748091Y55580740D01*
X50703001Y55550612D01*
X50703001Y68147388D01*
X50748091Y68117260D01*
G36*
X27888091Y68117260D02*
X28306667Y68034000D01*
X28589333Y68034000D01*
X28863002Y68088436D01*
X28863001Y55609564D01*
X28589333Y55664000D01*
X28306667Y55664000D01*
X27888091Y55580740D01*
X27843001Y55550612D01*
X27843001Y68147388D01*
X27888091Y68117260D01*
X27888091Y68117260D01*
G37*
X27888091Y68117260D02*
X28306667Y68034000D01*
X28589333Y68034000D01*
X28863002Y68088436D01*
X28863001Y55609564D01*
X28589333Y55664000D01*
X28306667Y55664000D01*
X27888091Y55580740D01*
X27843001Y55550612D01*
X27843001Y68147388D01*
X27888091Y68117260D01*
G36*
X23972999Y55550612D02*
X23927909Y55580740D01*
X23509333Y55664000D01*
X23226667Y55664000D01*
X22952999Y55609564D01*
X22952999Y68088436D01*
X23226667Y68034000D01*
X23509333Y68034000D01*
X23927909Y68117260D01*
X23973000Y68147389D01*
X23972999Y55550612D01*
X23972999Y55550612D01*
G37*
X23972999Y55550612D02*
X23927909Y55580740D01*
X23509333Y55664000D01*
X23226667Y55664000D01*
X22952999Y55609564D01*
X22952999Y68088436D01*
X23226667Y68034000D01*
X23509333Y68034000D01*
X23927909Y68117260D01*
X23973000Y68147389D01*
X23972999Y55550612D01*
G36*
X21432999Y55550612D02*
X21387909Y55580740D01*
X20969333Y55664000D01*
X20686667Y55664000D01*
X20268091Y55580740D01*
X20223001Y55550612D01*
X20223001Y68147388D01*
X20268091Y68117260D01*
X20686667Y68034000D01*
X20969333Y68034000D01*
X21387909Y68117260D01*
X21433000Y68147389D01*
X21432999Y55550612D01*
X21432999Y55550612D01*
G37*
X21432999Y55550612D02*
X21387909Y55580740D01*
X20969333Y55664000D01*
X20686667Y55664000D01*
X20268091Y55580740D01*
X20223001Y55550612D01*
X20223001Y68147388D01*
X20268091Y68117260D01*
X20686667Y68034000D01*
X20969333Y68034000D01*
X21387909Y68117260D01*
X21433000Y68147389D01*
X21432999Y55550612D01*
G36*
X17728091Y68117260D02*
X18146667Y68034000D01*
X18429333Y68034000D01*
X18703002Y68088436D01*
X18703001Y55609564D01*
X18429333Y55664000D01*
X18146667Y55664000D01*
X17728091Y55580740D01*
X17683001Y55550612D01*
X17683001Y68147388D01*
X17728091Y68117260D01*
X17728091Y68117260D01*
G37*
X17728091Y68117260D02*
X18146667Y68034000D01*
X18429333Y68034000D01*
X18703002Y68088436D01*
X18703001Y55609564D01*
X18429333Y55664000D01*
X18146667Y55664000D01*
X17728091Y55580740D01*
X17683001Y55550612D01*
X17683001Y68147388D01*
X17728091Y68117260D01*
G36*
X40588091Y68117260D02*
X41006667Y68034000D01*
X41289333Y68034000D01*
X41563002Y68088436D01*
X41563001Y55609564D01*
X41289333Y55664000D01*
X41006667Y55664000D01*
X40588091Y55580740D01*
X40543001Y55550612D01*
X40543001Y68147388D01*
X40588091Y68117260D01*
X40588091Y68117260D01*
G37*
X40588091Y68117260D02*
X41006667Y68034000D01*
X41289333Y68034000D01*
X41563002Y68088436D01*
X41563001Y55609564D01*
X41289333Y55664000D01*
X41006667Y55664000D01*
X40588091Y55580740D01*
X40543001Y55550612D01*
X40543001Y68147388D01*
X40588091Y68117260D01*
G36*
X35508091Y68117260D02*
X35926667Y68034000D01*
X36209333Y68034000D01*
X36578001Y68107333D01*
X36578000Y55590667D01*
X36209333Y55664000D01*
X35926667Y55664000D01*
X35508091Y55580740D01*
X35463001Y55550612D01*
X35463001Y68147388D01*
X35508091Y68117260D01*
X35508091Y68117260D01*
G37*
X35508091Y68117260D02*
X35926667Y68034000D01*
X36209333Y68034000D01*
X36578001Y68107333D01*
X36578000Y55590667D01*
X36209333Y55664000D01*
X35926667Y55664000D01*
X35508091Y55580740D01*
X35463001Y55550612D01*
X35463001Y68147388D01*
X35508091Y68117260D01*
G36*
X43128091Y68117260D02*
X43546667Y68034000D01*
X43829333Y68034000D01*
X44103002Y68088436D01*
X44103001Y55609564D01*
X43829333Y55664000D01*
X43546667Y55664000D01*
X43128091Y55580740D01*
X43083001Y55550612D01*
X43083001Y68147388D01*
X43128091Y68117260D01*
X43128091Y68117260D01*
G37*
X43128091Y68117260D02*
X43546667Y68034000D01*
X43829333Y68034000D01*
X44103002Y68088436D01*
X44103001Y55609564D01*
X43829333Y55664000D01*
X43546667Y55664000D01*
X43128091Y55580740D01*
X43083001Y55550612D01*
X43083001Y68147388D01*
X43128091Y68117260D01*
G36*
X32968091Y68117260D02*
X33386667Y68034000D01*
X33669333Y68034000D01*
X33943002Y68088436D01*
X33943001Y55609564D01*
X33669333Y55664000D01*
X33386667Y55664000D01*
X32968091Y55580740D01*
X32923001Y55550612D01*
X32923001Y68147388D01*
X32968091Y68117260D01*
X32968091Y68117260D01*
G37*
X32968091Y68117260D02*
X33386667Y68034000D01*
X33669333Y68034000D01*
X33943002Y68088436D01*
X33943001Y55609564D01*
X33669333Y55664000D01*
X33386667Y55664000D01*
X32968091Y55580740D01*
X32923001Y55550612D01*
X32923001Y68147388D01*
X32968091Y68117260D01*
G36*
X30428091Y68117260D02*
X30846667Y68034000D01*
X31129333Y68034000D01*
X31403002Y68088436D01*
X31403001Y55609564D01*
X31129333Y55664000D01*
X30846667Y55664000D01*
X30428091Y55580740D01*
X30383001Y55550612D01*
X30383001Y68147388D01*
X30428091Y68117260D01*
X30428091Y68117260D01*
G37*
X30428091Y68117260D02*
X30846667Y68034000D01*
X31129333Y68034000D01*
X31403002Y68088436D01*
X31403001Y55609564D01*
X31129333Y55664000D01*
X30846667Y55664000D01*
X30428091Y55580740D01*
X30383001Y55550612D01*
X30383001Y68147388D01*
X30428091Y68117260D01*
G36*
X38466667Y68034000D02*
X38749333Y68034000D01*
X39023002Y68088436D01*
X39023001Y55609564D01*
X38749333Y55664000D01*
X38466667Y55664000D01*
X38098000Y55590668D01*
X38098000Y68107332D01*
X38466667Y68034000D01*
X38466667Y68034000D01*
G37*
X38466667Y68034000D02*
X38749333Y68034000D01*
X39023002Y68088436D01*
X39023001Y55609564D01*
X38749333Y55664000D01*
X38466667Y55664000D01*
X38098000Y55590668D01*
X38098000Y68107332D01*
X38466667Y68034000D01*
G36*
X10526667Y68034000D02*
X10809333Y68034000D01*
X11083002Y68088436D01*
X11083001Y55609564D01*
X10809333Y55664000D01*
X10526667Y55664000D01*
X10158000Y55590668D01*
X10158000Y68107332D01*
X10526667Y68034000D01*
X10526667Y68034000D01*
G37*
X10526667Y68034000D02*
X10809333Y68034000D01*
X11083002Y68088436D01*
X11083001Y55609564D01*
X10809333Y55664000D01*
X10526667Y55664000D01*
X10158000Y55590668D01*
X10158000Y68107332D01*
X10526667Y68034000D01*
G36*
X8638000Y55590668D02*
X8269333Y55664000D01*
X7986667Y55664000D01*
X7618000Y55590668D01*
X7618000Y68107332D01*
X7986667Y68034000D01*
X8269333Y68034000D01*
X8638001Y68107333D01*
X8638000Y55590668D01*
X8638000Y55590668D01*
G37*
X8638000Y55590668D02*
X8269333Y55664000D01*
X7986667Y55664000D01*
X7618000Y55590668D01*
X7618000Y68107332D01*
X7986667Y68034000D01*
X8269333Y68034000D01*
X8638001Y68107333D01*
X8638000Y55590668D01*
G36*
X6098000Y55590668D02*
X5729333Y55664000D01*
X5446667Y55664000D01*
X5078000Y55590668D01*
X5078000Y68107332D01*
X5446667Y68034000D01*
X5729333Y68034000D01*
X6098001Y68107333D01*
X6098000Y55590668D01*
X6098000Y55590668D01*
G37*
X6098000Y55590668D02*
X5729333Y55664000D01*
X5446667Y55664000D01*
X5078000Y55590668D01*
X5078000Y68107332D01*
X5446667Y68034000D01*
X5729333Y68034000D01*
X6098001Y68107333D01*
X6098000Y55590668D01*
G36*
X26323001Y55609564D02*
X26049333Y55664000D01*
X25766667Y55664000D01*
X25492999Y55609564D01*
X25492999Y68088436D01*
X25766667Y68034000D01*
X26049333Y68034000D01*
X26323002Y68088436D01*
X26323001Y55609564D01*
X26323001Y55609564D01*
G37*
X26323001Y55609564D02*
X26049333Y55664000D01*
X25766667Y55664000D01*
X25492999Y55609564D01*
X25492999Y68088436D01*
X25766667Y68034000D01*
X26049333Y68034000D01*
X26323002Y68088436D01*
X26323001Y55609564D01*
G36*
X16163001Y55609564D02*
X15889333Y55664000D01*
X15606667Y55664000D01*
X15382999Y55619510D01*
X15382999Y68078490D01*
X15606667Y68034000D01*
X15889333Y68034000D01*
X16163002Y68088436D01*
X16163001Y55609564D01*
X16163001Y55609564D01*
G37*
X16163001Y55609564D02*
X15889333Y55664000D01*
X15606667Y55664000D01*
X15382999Y55619510D01*
X15382999Y68078490D01*
X15606667Y68034000D01*
X15889333Y68034000D01*
X16163002Y68088436D01*
X16163001Y55609564D01*
G36*
X49183001Y55609564D02*
X48909333Y55664000D01*
X48626667Y55664000D01*
X48352999Y55609564D01*
X48352999Y68088436D01*
X48626667Y68034000D01*
X48909333Y68034000D01*
X49183002Y68088436D01*
X49183001Y55609564D01*
X49183001Y55609564D01*
G37*
X49183001Y55609564D02*
X48909333Y55664000D01*
X48626667Y55664000D01*
X48352999Y55609564D01*
X48352999Y68088436D01*
X48626667Y68034000D01*
X48909333Y68034000D01*
X49183002Y68088436D01*
X49183001Y55609564D01*
G36*
X55310917Y75366670D02*
X55503001Y75238324D01*
X55503000Y70538828D01*
X55379502Y70354000D01*
X55278533Y70354000D01*
X55246157Y70516765D01*
X55105809Y70726809D01*
X54895765Y70867157D01*
X54648000Y70916440D01*
X53243001Y70916440D01*
X53243001Y75072254D01*
X53268582Y75055161D01*
X53701744Y74969000D01*
X53994256Y74969000D01*
X54427418Y75055161D01*
X54918625Y75383375D01*
X55109190Y75668576D01*
X55310917Y75366670D01*
X55310917Y75366670D01*
G37*
X55310917Y75366670D02*
X55503001Y75238324D01*
X55503000Y70538828D01*
X55379502Y70354000D01*
X55278533Y70354000D01*
X55246157Y70516765D01*
X55105809Y70726809D01*
X54895765Y70867157D01*
X54648000Y70916440D01*
X53243001Y70916440D01*
X53243001Y75072254D01*
X53268582Y75055161D01*
X53701744Y74969000D01*
X53994256Y74969000D01*
X54427418Y75055161D01*
X54918625Y75383375D01*
X55109190Y75668576D01*
X55310917Y75366670D01*
G36*
X58759248Y75370193D02*
X59100292Y75302355D01*
X59821553Y75302355D01*
X59821552Y71691631D01*
X58866215Y70736293D01*
X58847794Y70748602D01*
X58506750Y70816440D01*
X58019250Y70816440D01*
X57678206Y70748602D01*
X57389084Y70555416D01*
X57325500Y70460256D01*
X57273000Y70538828D01*
X57273000Y75246954D01*
X57452167Y75366670D01*
X57576198Y75552295D01*
X58486714Y75552295D01*
X58759248Y75370193D01*
X58759248Y75370193D01*
G37*
X58759248Y75370193D02*
X59100292Y75302355D01*
X59821553Y75302355D01*
X59821552Y71691631D01*
X58866215Y70736293D01*
X58847794Y70748602D01*
X58506750Y70816440D01*
X58019250Y70816440D01*
X57678206Y70748602D01*
X57389084Y70555416D01*
X57325500Y70460256D01*
X57273000Y70538828D01*
X57273000Y75246954D01*
X57452167Y75366670D01*
X57576198Y75552295D01*
X58486714Y75552295D01*
X58759248Y75370193D01*
G36*
X23973000Y70790611D02*
X23927909Y70820740D01*
X23509333Y70904000D01*
X23226667Y70904000D01*
X22952999Y70849564D01*
X22952999Y75022457D01*
X23221744Y74969000D01*
X23514256Y74969000D01*
X23947418Y75055161D01*
X23973000Y75072254D01*
X23973000Y70790611D01*
X23973000Y70790611D01*
G37*
X23973000Y70790611D02*
X23927909Y70820740D01*
X23509333Y70904000D01*
X23226667Y70904000D01*
X22952999Y70849564D01*
X22952999Y75022457D01*
X23221744Y74969000D01*
X23514256Y74969000D01*
X23947418Y75055161D01*
X23973000Y75072254D01*
X23973000Y70790611D01*
G36*
X46833000Y70790611D02*
X46787909Y70820740D01*
X46369333Y70904000D01*
X46086667Y70904000D01*
X45668091Y70820740D01*
X45623001Y70790612D01*
X45623001Y75072254D01*
X45648582Y75055161D01*
X46081744Y74969000D01*
X46374256Y74969000D01*
X46807418Y75055161D01*
X46833000Y75072254D01*
X46833000Y70790611D01*
X46833000Y70790611D01*
G37*
X46833000Y70790611D02*
X46787909Y70820740D01*
X46369333Y70904000D01*
X46086667Y70904000D01*
X45668091Y70820740D01*
X45623001Y70790612D01*
X45623001Y75072254D01*
X45648582Y75055161D01*
X46081744Y74969000D01*
X46374256Y74969000D01*
X46807418Y75055161D01*
X46833000Y75072254D01*
X46833000Y70790611D01*
G36*
X21433000Y70790611D02*
X21387909Y70820740D01*
X20969333Y70904000D01*
X20686667Y70904000D01*
X20268091Y70820740D01*
X20223001Y70790612D01*
X20223001Y75072254D01*
X20248582Y75055161D01*
X20681744Y74969000D01*
X20974256Y74969000D01*
X21407418Y75055161D01*
X21433000Y75072254D01*
X21433000Y70790611D01*
X21433000Y70790611D01*
G37*
X21433000Y70790611D02*
X21387909Y70820740D01*
X20969333Y70904000D01*
X20686667Y70904000D01*
X20268091Y70820740D01*
X20223001Y70790612D01*
X20223001Y75072254D01*
X20248582Y75055161D01*
X20681744Y74969000D01*
X20974256Y74969000D01*
X21407418Y75055161D01*
X21433000Y75072254D01*
X21433000Y70790611D01*
G36*
X30408582Y75055161D02*
X30841744Y74969000D01*
X31134256Y74969000D01*
X31403002Y75022457D01*
X31403002Y70849564D01*
X31129333Y70904000D01*
X30846667Y70904000D01*
X30428091Y70820740D01*
X30383001Y70790612D01*
X30383001Y75072254D01*
X30408582Y75055161D01*
X30408582Y75055161D01*
G37*
X30408582Y75055161D02*
X30841744Y74969000D01*
X31134256Y74969000D01*
X31403002Y75022457D01*
X31403002Y70849564D01*
X31129333Y70904000D01*
X30846667Y70904000D01*
X30428091Y70820740D01*
X30383001Y70790612D01*
X30383001Y75072254D01*
X30408582Y75055161D01*
G36*
X40568582Y75055161D02*
X41001744Y74969000D01*
X41294256Y74969000D01*
X41563002Y75022457D01*
X41563002Y70849564D01*
X41289333Y70904000D01*
X41006667Y70904000D01*
X40588091Y70820740D01*
X40543001Y70790612D01*
X40543001Y75072254D01*
X40568582Y75055161D01*
X40568582Y75055161D01*
G37*
X40568582Y75055161D02*
X41001744Y74969000D01*
X41294256Y74969000D01*
X41563002Y75022457D01*
X41563002Y70849564D01*
X41289333Y70904000D01*
X41006667Y70904000D01*
X40588091Y70820740D01*
X40543001Y70790612D01*
X40543001Y75072254D01*
X40568582Y75055161D01*
G36*
X35488582Y75055161D02*
X35921744Y74969000D01*
X36214256Y74969000D01*
X36578001Y75041353D01*
X36578001Y70830667D01*
X36209333Y70904000D01*
X35926667Y70904000D01*
X35508091Y70820740D01*
X35463001Y70790612D01*
X35463001Y75072254D01*
X35488582Y75055161D01*
X35488582Y75055161D01*
G37*
X35488582Y75055161D02*
X35921744Y74969000D01*
X36214256Y74969000D01*
X36578001Y75041353D01*
X36578001Y70830667D01*
X36209333Y70904000D01*
X35926667Y70904000D01*
X35508091Y70820740D01*
X35463001Y70790612D01*
X35463001Y75072254D01*
X35488582Y75055161D01*
G36*
X17708582Y75055161D02*
X18141744Y74969000D01*
X18434256Y74969000D01*
X18703002Y75022457D01*
X18703002Y70849564D01*
X18429333Y70904000D01*
X18146667Y70904000D01*
X17728091Y70820740D01*
X17683001Y70790612D01*
X17683001Y75072254D01*
X17708582Y75055161D01*
X17708582Y75055161D01*
G37*
X17708582Y75055161D02*
X18141744Y74969000D01*
X18434256Y74969000D01*
X18703002Y75022457D01*
X18703002Y70849564D01*
X18429333Y70904000D01*
X18146667Y70904000D01*
X17728091Y70820740D01*
X17683001Y70790612D01*
X17683001Y75072254D01*
X17708582Y75055161D01*
G36*
X27868582Y75055161D02*
X28301744Y74969000D01*
X28594256Y74969000D01*
X28863002Y75022457D01*
X28863002Y70849564D01*
X28589333Y70904000D01*
X28306667Y70904000D01*
X27888091Y70820740D01*
X27843001Y70790612D01*
X27843001Y75072254D01*
X27868582Y75055161D01*
X27868582Y75055161D01*
G37*
X27868582Y75055161D02*
X28301744Y74969000D01*
X28594256Y74969000D01*
X28863002Y75022457D01*
X28863002Y70849564D01*
X28589333Y70904000D01*
X28306667Y70904000D01*
X27888091Y70820740D01*
X27843001Y70790612D01*
X27843001Y75072254D01*
X27868582Y75055161D01*
G36*
X50728582Y75055161D02*
X51161744Y74969000D01*
X51454256Y74969000D01*
X51723002Y75022457D01*
X51723002Y70849564D01*
X51449333Y70904000D01*
X51166667Y70904000D01*
X50748091Y70820740D01*
X50703001Y70790612D01*
X50703001Y75072254D01*
X50728582Y75055161D01*
X50728582Y75055161D01*
G37*
X50728582Y75055161D02*
X51161744Y74969000D01*
X51454256Y74969000D01*
X51723002Y75022457D01*
X51723002Y70849564D01*
X51449333Y70904000D01*
X51166667Y70904000D01*
X50748091Y70820740D01*
X50703001Y70790612D01*
X50703001Y75072254D01*
X50728582Y75055161D01*
G36*
X43108582Y75055161D02*
X43541744Y74969000D01*
X43834256Y74969000D01*
X44103002Y75022457D01*
X44103002Y70849564D01*
X43829333Y70904000D01*
X43546667Y70904000D01*
X43128091Y70820740D01*
X43083001Y70790612D01*
X43083001Y75072254D01*
X43108582Y75055161D01*
X43108582Y75055161D01*
G37*
X43108582Y75055161D02*
X43541744Y74969000D01*
X43834256Y74969000D01*
X44103002Y75022457D01*
X44103002Y70849564D01*
X43829333Y70904000D01*
X43546667Y70904000D01*
X43128091Y70820740D01*
X43083001Y70790612D01*
X43083001Y75072254D01*
X43108582Y75055161D01*
G36*
X32948582Y75055161D02*
X33381744Y74969000D01*
X33674256Y74969000D01*
X33943002Y75022457D01*
X33943002Y70849564D01*
X33669333Y70904000D01*
X33386667Y70904000D01*
X32968091Y70820740D01*
X32923001Y70790612D01*
X32923001Y75072254D01*
X32948582Y75055161D01*
X32948582Y75055161D01*
G37*
X32948582Y75055161D02*
X33381744Y74969000D01*
X33674256Y74969000D01*
X33943002Y75022457D01*
X33943002Y70849564D01*
X33669333Y70904000D01*
X33386667Y70904000D01*
X32968091Y70820740D01*
X32923001Y70790612D01*
X32923001Y75072254D01*
X32948582Y75055161D01*
G36*
X6098001Y70830667D02*
X5729333Y70904000D01*
X5446667Y70904000D01*
X5078000Y70830668D01*
X5078000Y75041353D01*
X5441744Y74969000D01*
X5734256Y74969000D01*
X6098001Y75041353D01*
X6098001Y70830667D01*
X6098001Y70830667D01*
G37*
X6098001Y70830667D02*
X5729333Y70904000D01*
X5446667Y70904000D01*
X5078000Y70830668D01*
X5078000Y75041353D01*
X5441744Y74969000D01*
X5734256Y74969000D01*
X6098001Y75041353D01*
X6098001Y70830667D01*
G36*
X8638001Y70830667D02*
X8269333Y70904000D01*
X7986667Y70904000D01*
X7618000Y70830668D01*
X7618000Y75041353D01*
X7981744Y74969000D01*
X8274256Y74969000D01*
X8638001Y75041353D01*
X8638001Y70830667D01*
X8638001Y70830667D01*
G37*
X8638001Y70830667D02*
X8269333Y70904000D01*
X7986667Y70904000D01*
X7618000Y70830668D01*
X7618000Y75041353D01*
X7981744Y74969000D01*
X8274256Y74969000D01*
X8638001Y75041353D01*
X8638001Y70830667D01*
G36*
X10521744Y74969000D02*
X10814256Y74969000D01*
X11083002Y75022457D01*
X11083002Y70849564D01*
X10809333Y70904000D01*
X10526667Y70904000D01*
X10158000Y70830668D01*
X10158000Y75041353D01*
X10521744Y74969000D01*
X10521744Y74969000D01*
G37*
X10521744Y74969000D02*
X10814256Y74969000D01*
X11083002Y75022457D01*
X11083002Y70849564D01*
X10809333Y70904000D01*
X10526667Y70904000D01*
X10158000Y70830668D01*
X10158000Y75041353D01*
X10521744Y74969000D01*
G36*
X38461744Y74969000D02*
X38754256Y74969000D01*
X39023002Y75022457D01*
X39023002Y70849564D01*
X38749333Y70904000D01*
X38466667Y70904000D01*
X38098000Y70830668D01*
X38098000Y75041353D01*
X38461744Y74969000D01*
X38461744Y74969000D01*
G37*
X38461744Y74969000D02*
X38754256Y74969000D01*
X39023002Y75022457D01*
X39023002Y70849564D01*
X38749333Y70904000D01*
X38466667Y70904000D01*
X38098000Y70830668D01*
X38098000Y75041353D01*
X38461744Y74969000D01*
G36*
X49183002Y70849564D02*
X48909333Y70904000D01*
X48626667Y70904000D01*
X48352999Y70849564D01*
X48352999Y75022457D01*
X48621744Y74969000D01*
X48914256Y74969000D01*
X49183002Y75022457D01*
X49183002Y70849564D01*
X49183002Y70849564D01*
G37*
X49183002Y70849564D02*
X48909333Y70904000D01*
X48626667Y70904000D01*
X48352999Y70849564D01*
X48352999Y75022457D01*
X48621744Y74969000D01*
X48914256Y74969000D01*
X49183002Y75022457D01*
X49183002Y70849564D01*
G36*
X16163002Y70849564D02*
X15889333Y70904000D01*
X15606667Y70904000D01*
X15382999Y70859510D01*
X15382999Y71401196D01*
X15687474Y71705670D01*
X15750930Y71748070D01*
X15793925Y71812417D01*
X15918905Y71999461D01*
X15950744Y72159527D01*
X15963001Y72221147D01*
X15963001Y72221151D01*
X15977889Y72295999D01*
X15963001Y72370847D01*
X15963001Y74982674D01*
X16163002Y75022457D01*
X16163002Y70849564D01*
X16163002Y70849564D01*
G37*
X16163002Y70849564D02*
X15889333Y70904000D01*
X15606667Y70904000D01*
X15382999Y70859510D01*
X15382999Y71401196D01*
X15687474Y71705670D01*
X15750930Y71748070D01*
X15793925Y71812417D01*
X15918905Y71999461D01*
X15950744Y72159527D01*
X15963001Y72221147D01*
X15963001Y72221151D01*
X15977889Y72295999D01*
X15963001Y72370847D01*
X15963001Y74982674D01*
X16163002Y75022457D01*
X16163002Y70849564D01*
G36*
X26323002Y70849564D02*
X26049333Y70904000D01*
X25766667Y70904000D01*
X25492999Y70849564D01*
X25492999Y75022457D01*
X25761744Y74969000D01*
X26054256Y74969000D01*
X26323002Y75022457D01*
X26323002Y70849564D01*
X26323002Y70849564D01*
G37*
X26323002Y70849564D02*
X26049333Y70904000D01*
X25766667Y70904000D01*
X25492999Y70849564D01*
X25492999Y75022457D01*
X25761744Y74969000D01*
X26054256Y74969000D01*
X26323002Y75022457D01*
X26323002Y70849564D01*
G36*
X14443002Y74964196D02*
X14443001Y73679000D01*
X14272126Y73679000D01*
X13891720Y73521431D01*
X13600569Y73230280D01*
X13443000Y72849874D01*
X13443000Y72683802D01*
X13168199Y72409000D01*
X13002126Y72409000D01*
X12621720Y72251431D01*
X12603001Y72232712D01*
X12603001Y75072254D01*
X12628582Y75055161D01*
X13061744Y74969000D01*
X13354256Y74969000D01*
X13787418Y75055161D01*
X14125883Y75281316D01*
X14443002Y74964196D01*
X14443002Y74964196D01*
G37*
X14443002Y74964196D02*
X14443001Y73679000D01*
X14272126Y73679000D01*
X13891720Y73521431D01*
X13600569Y73230280D01*
X13443000Y72849874D01*
X13443000Y72683802D01*
X13168199Y72409000D01*
X13002126Y72409000D01*
X12621720Y72251431D01*
X12603001Y72232712D01*
X12603001Y75072254D01*
X12628582Y75055161D01*
X13061744Y74969000D01*
X13354256Y74969000D01*
X13787418Y75055161D01*
X14125883Y75281316D01*
X14443002Y74964196D01*
G36*
X55283777Y77529138D02*
X55329161Y77520111D01*
X55310917Y77507920D01*
X55120352Y77222719D01*
X54918625Y77524625D01*
X54900381Y77536816D01*
X54945765Y77545843D01*
X55102271Y77650418D01*
X55283777Y77529138D01*
X55283777Y77529138D01*
G37*
X55283777Y77529138D02*
X55329161Y77520111D01*
X55310917Y77507920D01*
X55120352Y77222719D01*
X54918625Y77524625D01*
X54900381Y77536816D01*
X54945765Y77545843D01*
X55102271Y77650418D01*
X55283777Y77529138D01*
G36*
X58209102Y78068545D02*
X58276940Y77727501D01*
X58470126Y77438379D01*
X58565286Y77374795D01*
X58486714Y77322295D01*
X57576198Y77322295D01*
X57452167Y77507920D01*
X57433923Y77520111D01*
X57479307Y77529138D01*
X57689351Y77669486D01*
X57829699Y77879530D01*
X57872020Y78092295D01*
X58209102Y78092295D01*
X58209102Y78068545D01*
X58209102Y78068545D01*
G37*
X58209102Y78068545D02*
X58276940Y77727501D01*
X58470126Y77438379D01*
X58565286Y77374795D01*
X58486714Y77322295D01*
X57576198Y77322295D01*
X57452167Y77507920D01*
X57433923Y77520111D01*
X57479307Y77529138D01*
X57689351Y77669486D01*
X57829699Y77879530D01*
X57872020Y78092295D01*
X58209102Y78092295D01*
X58209102Y78068545D01*
M02*
