%TF.GenerationSoftware,KiCad,Pcbnew,(5.0.0)*%
%TF.CreationDate,2018-09-18T07:55:34-07:00*%
%TF.ProjectId,6522,363532322E6B696361645F7063620000,0.1*%
%TF.SameCoordinates,PX6a38238PY7fe6300*%
%TF.FileFunction,Copper,L2,Bot,Signal*%
%TF.FilePolarity,Positive*%
%FSLAX46Y46*%
G04 Gerber Fmt 4.6, Leading zero omitted, Abs format (unit mm)*
G04 Created by KiCad (PCBNEW (5.0.0)) date 09/18/18 07:55:34*
%MOMM*%
%LPD*%
G01*
G04 APERTURE LIST*
%ADD10R,1.524000X6.350000*%
%ADD11R,1.700000X1.700000*%
%ADD12O,1.700000X1.700000*%
%ADD13R,1.600000X1.600000*%
%ADD14O,1.600000X1.600000*%
%ADD15C,0.800000*%
%ADD16C,0.250000*%
%ADD17C,0.500000*%
%ADD18C,0.254000*%
G04 APERTURE END LIST*
D10*
X2413000Y3810000D03*
X4953000Y3810000D03*
X7493000Y3810000D03*
X10033000Y3810000D03*
X12573000Y3810000D03*
X15113000Y3810000D03*
X17653000Y3810000D03*
X20193000Y3810000D03*
X22733000Y3810000D03*
X25273000Y3810000D03*
X27813000Y3810000D03*
X30353000Y3810000D03*
X32893000Y3810000D03*
X35433000Y3810000D03*
X37973000Y3810000D03*
X40513000Y3810000D03*
X43053000Y3810000D03*
X45593000Y3810000D03*
X48133000Y3810000D03*
X50673000Y3810000D03*
X53213000Y3810000D03*
X55753000Y3810000D03*
X58293000Y3810000D03*
X60833000Y3810000D03*
X63373000Y3810000D03*
D11*
X54864000Y78994000D03*
D12*
X54864000Y76454000D03*
X52324000Y78994000D03*
X52324000Y76454000D03*
X49784000Y78994000D03*
X49784000Y76454000D03*
X47244000Y78994000D03*
X47244000Y76454000D03*
X44704000Y78994000D03*
X44704000Y76454000D03*
X42164000Y78994000D03*
X42164000Y76454000D03*
X39624000Y78994000D03*
X39624000Y76454000D03*
X37084000Y78994000D03*
X37084000Y76454000D03*
X34544000Y78994000D03*
X34544000Y76454000D03*
X32004000Y78994000D03*
X32004000Y76454000D03*
X29464000Y78994000D03*
X29464000Y76454000D03*
X26924000Y78994000D03*
X26924000Y76454000D03*
X24384000Y78994000D03*
X24384000Y76454000D03*
X21844000Y78994000D03*
X21844000Y76454000D03*
X19304000Y78994000D03*
X19304000Y76454000D03*
X16764000Y78994000D03*
X16764000Y76454000D03*
X14224000Y78994000D03*
X14224000Y76454000D03*
X11684000Y78994000D03*
X11684000Y76454000D03*
X9144000Y78994000D03*
X9144000Y76454000D03*
X6604000Y78994000D03*
X6604000Y76454000D03*
D13*
X54864000Y69469000D03*
D14*
X6604000Y54229000D03*
X52324000Y69469000D03*
X9144000Y54229000D03*
X49784000Y69469000D03*
X11684000Y54229000D03*
X47244000Y69469000D03*
X14224000Y54229000D03*
X44704000Y69469000D03*
X16764000Y54229000D03*
X42164000Y69469000D03*
X19304000Y54229000D03*
X39624000Y69469000D03*
X21844000Y54229000D03*
X37084000Y69469000D03*
X24384000Y54229000D03*
X34544000Y69469000D03*
X26924000Y54229000D03*
X32004000Y69469000D03*
X29464000Y54229000D03*
X29464000Y69469000D03*
X32004000Y54229000D03*
X26924000Y69469000D03*
X34544000Y54229000D03*
X24384000Y69469000D03*
X37084000Y54229000D03*
X21844000Y69469000D03*
X39624000Y54229000D03*
X19304000Y69469000D03*
X42164000Y54229000D03*
X16764000Y69469000D03*
X44704000Y54229000D03*
X14224000Y69469000D03*
X47244000Y54229000D03*
X11684000Y69469000D03*
X49784000Y54229000D03*
X9144000Y69469000D03*
X52324000Y54229000D03*
X6604000Y69469000D03*
X54864000Y54229000D03*
D11*
X57397542Y78977295D03*
D12*
X57397542Y76437295D03*
D14*
X54864000Y35179000D03*
X6604000Y50419000D03*
X52324000Y35179000D03*
X9144000Y50419000D03*
X49784000Y35179000D03*
X11684000Y50419000D03*
X47244000Y35179000D03*
X14224000Y50419000D03*
X44704000Y35179000D03*
X16764000Y50419000D03*
X42164000Y35179000D03*
X19304000Y50419000D03*
X39624000Y35179000D03*
X21844000Y50419000D03*
X37084000Y35179000D03*
X24384000Y50419000D03*
X34544000Y35179000D03*
X26924000Y50419000D03*
X32004000Y35179000D03*
X29464000Y50419000D03*
X29464000Y35179000D03*
X32004000Y50419000D03*
X26924000Y35179000D03*
X34544000Y50419000D03*
X24384000Y35179000D03*
X37084000Y50419000D03*
X21844000Y35179000D03*
X39624000Y50419000D03*
X19304000Y35179000D03*
X42164000Y50419000D03*
X16764000Y35179000D03*
X44704000Y50419000D03*
X14224000Y35179000D03*
X47244000Y50419000D03*
X11684000Y35179000D03*
X49784000Y50419000D03*
X9144000Y35179000D03*
X52324000Y50419000D03*
X6604000Y35179000D03*
D13*
X54864000Y50419000D03*
D15*
X14769000Y52324000D03*
X14224000Y71374000D03*
X15494000Y72644000D03*
X59309000Y48514000D03*
X59309000Y22860000D03*
X63754000Y8890000D03*
X60579000Y8890000D03*
X57404000Y48514000D03*
X57404000Y21590000D03*
X18573563Y10847827D03*
X19939000Y10160000D03*
X5334000Y19685000D03*
X44704000Y20955000D03*
X37084000Y32929990D03*
X4936937Y12277294D03*
X4718368Y32294990D03*
X4217005Y11583233D03*
X3919997Y31692805D03*
X3519010Y10867115D03*
X3246364Y30944722D03*
X2794000Y10160000D03*
X2794000Y29845000D03*
X2794000Y8255000D03*
X6604000Y24765000D03*
X6604000Y29210000D03*
X35814000Y33020000D03*
X44704000Y27305000D03*
X52959000Y27305000D03*
X30099000Y17780000D03*
X27559000Y17780000D03*
X16764000Y24765000D03*
X15494000Y24765000D03*
X14224000Y24765000D03*
X12954000Y24765000D03*
X11684000Y24765000D03*
X10414000Y24765000D03*
X9144000Y24765000D03*
X7874000Y24765000D03*
X23114000Y12065000D03*
X22406885Y12772115D03*
X21699770Y13479230D03*
X20992655Y14186345D03*
X20285540Y14893460D03*
X19560530Y15600927D03*
X18835520Y16316871D03*
X18110510Y17037414D03*
X45339000Y29210000D03*
X15494000Y29210000D03*
X45974000Y20955000D03*
X32639000Y20955000D03*
X30099000Y23495000D03*
X19304000Y28575000D03*
X3556000Y52832000D03*
D16*
X14224000Y51779000D02*
X14769000Y52324000D01*
X14224000Y50419000D02*
X14224000Y51779000D01*
X54864000Y72009000D02*
X54864000Y76454000D01*
X52324000Y69469000D02*
X54864000Y72009000D01*
X52324000Y72009000D02*
X52324000Y76454000D01*
X49784000Y69469000D02*
X52324000Y72009000D01*
X49784000Y72009000D02*
X49784000Y76454000D01*
X47244000Y69469000D02*
X49784000Y72009000D01*
X47244000Y72009000D02*
X47244000Y76454000D01*
X44704000Y69469000D02*
X47244000Y72009000D01*
X44704000Y72009000D02*
X44704000Y76454000D01*
X42164000Y69469000D02*
X44704000Y72009000D01*
X42164000Y72009000D02*
X42164000Y76454000D01*
X39624000Y69469000D02*
X42164000Y72009000D01*
X39624000Y72009000D02*
X39624000Y76454000D01*
X37084000Y69469000D02*
X39624000Y72009000D01*
X37084000Y72009000D02*
X37084000Y76454000D01*
X34544000Y69469000D02*
X37084000Y72009000D01*
X34544000Y72009000D02*
X34544000Y76454000D01*
X32004000Y69469000D02*
X34544000Y72009000D01*
X32004000Y72009000D02*
X32004000Y76454000D01*
X29464000Y69469000D02*
X32004000Y72009000D01*
X29464000Y72009000D02*
X29464000Y76454000D01*
X26924000Y69469000D02*
X29464000Y72009000D01*
X26924000Y72009000D02*
X26924000Y76454000D01*
X24384000Y69469000D02*
X26924000Y72009000D01*
X24384000Y72009000D02*
X24384000Y76454000D01*
X21844000Y69469000D02*
X24384000Y72009000D01*
X21844000Y72009000D02*
X21844000Y76454000D01*
X19304000Y69469000D02*
X21844000Y72009000D01*
X19304000Y72009000D02*
X19304000Y76454000D01*
X16764000Y69469000D02*
X19304000Y72009000D01*
X15494000Y72644000D02*
X16764000Y73914000D01*
X16764000Y73914000D02*
X16764000Y76454000D01*
X14224000Y71374000D02*
X14224000Y69469000D01*
X54864000Y55360370D02*
X48375370Y61849000D01*
X54864000Y54229000D02*
X54864000Y55360370D01*
X48375370Y61849000D02*
X18669000Y61849000D01*
X18669000Y61849000D02*
X15349001Y65168999D01*
X15349001Y71518999D02*
X14224000Y72644000D01*
X15349001Y65168999D02*
X15349001Y71518999D01*
X14224000Y72644000D02*
X14224000Y76454000D01*
X12533999Y75604001D02*
X11684000Y76454000D01*
X12809001Y75328999D02*
X12533999Y75604001D01*
X12809001Y67072589D02*
X12809001Y75328999D01*
X18482599Y61398991D02*
X12809001Y67072589D01*
X45154010Y61398990D02*
X18482599Y61398991D01*
X52324000Y54229000D02*
X45154010Y61398990D01*
X9144000Y72009000D02*
X9144000Y76454000D01*
X11684000Y69469000D02*
X9144000Y72009000D01*
X6604000Y72009000D02*
X6604000Y76454000D01*
X9144000Y69469000D02*
X6604000Y72009000D01*
D17*
X5303999Y79598999D02*
X6604000Y80899000D01*
X57397542Y80327295D02*
X57397542Y78977295D01*
X56825837Y80899000D02*
X57397542Y80327295D01*
X6604000Y80899000D02*
X56825837Y80899000D01*
X59309000Y22860000D02*
X59309000Y48514000D01*
X5303999Y70769001D02*
X5303999Y79598999D01*
X6604000Y69469000D02*
X5303999Y70769001D01*
X5353999Y51669001D02*
X5353999Y68218999D01*
X6604000Y50419000D02*
X5353999Y51669001D01*
X5353999Y68218999D02*
X5804001Y68669001D01*
X5804001Y68669001D02*
X6604000Y69469000D01*
X63373000Y1905000D02*
X63373000Y8509000D01*
X63373000Y8509000D02*
X63754000Y8890000D01*
X60579000Y8890000D02*
X63754000Y8890000D01*
X57404000Y48514000D02*
X57404000Y21590000D01*
D16*
X19432410Y10160000D02*
X19939000Y10160000D01*
X19432410Y10160000D02*
X19432410Y10554665D01*
X19139248Y10847827D02*
X18573563Y10847827D01*
X19432410Y10554665D02*
X19139248Y10847827D01*
X5334000Y31369000D02*
X9144000Y35179000D01*
X5334000Y19685000D02*
X5334000Y31369000D01*
X10414000Y52959000D02*
X9144000Y54229000D01*
X10414000Y49784000D02*
X10414000Y52959000D01*
X9144000Y35179000D02*
X9144000Y48514000D01*
X9144000Y48514000D02*
X10414000Y49784000D01*
X44704000Y20955000D02*
X44704000Y25309990D01*
X37483999Y32529991D02*
X37084000Y32929990D01*
X44704000Y25309990D02*
X37483999Y32529991D01*
X42164000Y35179000D02*
X42164000Y47879000D01*
X42164000Y47879000D02*
X43434000Y49149000D01*
X43434000Y50814002D02*
X42164000Y52084002D01*
X43434000Y49149000D02*
X43434000Y50814002D01*
X42164000Y52084002D02*
X42164000Y54229000D01*
X4718368Y31729305D02*
X4718368Y32294990D01*
X4536938Y19960940D02*
X4718368Y20142370D01*
X4718368Y20142370D02*
X4718368Y31729305D01*
X4936937Y12277294D02*
X4536938Y12677293D01*
X4536938Y12677293D02*
X4536938Y19960940D01*
X44704000Y35179000D02*
X44704000Y48514000D01*
X44704000Y48514000D02*
X45974000Y49784000D01*
X45974000Y49784000D02*
X45974000Y51054000D01*
X45974000Y51054000D02*
X44704000Y52324000D01*
X44704000Y52324000D02*
X44704000Y54229000D01*
X4217005Y11583233D02*
X4217005Y12148918D01*
X3991885Y31620917D02*
X3919997Y31692805D01*
X3991885Y12374038D02*
X3991885Y31620917D01*
X4217005Y12148918D02*
X3991885Y12374038D01*
X47244000Y35179000D02*
X47244000Y47879000D01*
X47244000Y47879000D02*
X48514000Y49149000D01*
X48514000Y50814002D02*
X47244000Y52084002D01*
X48514000Y49149000D02*
X48514000Y50814002D01*
X47244000Y52084002D02*
X47244000Y54229000D01*
X3519002Y30672084D02*
X3246364Y30944722D01*
X3266884Y11119241D02*
X3266884Y29244880D01*
X3266884Y29244880D02*
X3519002Y29496998D01*
X3519002Y29496998D02*
X3519002Y30672084D01*
X3519010Y10867115D02*
X3266884Y11119241D01*
X2794000Y10160000D02*
X2794000Y29845000D01*
X49784000Y35179000D02*
X49784000Y47879000D01*
X49784000Y47879000D02*
X51054000Y49149000D01*
X51054000Y50814002D02*
X49784000Y52084002D01*
X51054000Y49149000D02*
X51054000Y50814002D01*
X49784000Y52084002D02*
X49784000Y54229000D01*
X2794000Y8255000D02*
X3429000Y8890000D01*
X3429000Y8890000D02*
X7874000Y8890000D01*
X7874000Y8890000D02*
X9779000Y10795000D01*
X9779000Y10795000D02*
X9779000Y21590000D01*
X9779000Y21590000D02*
X6604000Y24765000D01*
X6604000Y30099000D02*
X11684000Y35179000D01*
X6604000Y29210000D02*
X6604000Y30099000D01*
X12954000Y52959000D02*
X11684000Y54229000D01*
X12954000Y49784000D02*
X12954000Y52959000D01*
X11684000Y35179000D02*
X11684000Y48514000D01*
X11684000Y48514000D02*
X12954000Y49784000D01*
X35814000Y33020000D02*
X36449000Y33655000D01*
X36449000Y33655000D02*
X37719000Y33655000D01*
X37719000Y33655000D02*
X38354000Y33655000D01*
X38354000Y33655000D02*
X44704000Y27305000D01*
X52959000Y2159000D02*
X53213000Y1905000D01*
X52959000Y27305000D02*
X52959000Y2159000D01*
X39624000Y35179000D02*
X39624000Y47879000D01*
X39624000Y47879000D02*
X40894000Y49149000D01*
X40894000Y49149000D02*
X40894000Y51054000D01*
X40894000Y51054000D02*
X39624000Y52324000D01*
X39624000Y33655000D02*
X39624000Y35179000D01*
X45339000Y32385000D02*
X40894000Y32385000D01*
X40894000Y32385000D02*
X39624000Y33655000D01*
X50673000Y1905000D02*
X50673000Y27051000D01*
X50673000Y27051000D02*
X45339000Y32385000D01*
X39624000Y52324000D02*
X39624000Y54229000D01*
X37973000Y1905000D02*
X37973000Y9906000D01*
X37973000Y9906000D02*
X30099000Y17780000D01*
X27813000Y1905000D02*
X27813000Y17526000D01*
X27813000Y17526000D02*
X27559000Y17780000D01*
X22733000Y1905000D02*
X22733000Y6223000D01*
X15494000Y23495000D02*
X16364001Y24365001D01*
X22733000Y6223000D02*
X18833175Y10122825D01*
X16166175Y10122825D02*
X15494000Y10795000D01*
X16364001Y24365001D02*
X16764000Y24765000D01*
X15494000Y10795000D02*
X15494000Y23495000D01*
X18833175Y10122825D02*
X16166175Y10122825D01*
X20193000Y7235000D02*
X17903000Y9525000D01*
X20193000Y1905000D02*
X20193000Y7235000D01*
X17903000Y9525000D02*
X15494000Y9525000D01*
X15494000Y9525000D02*
X14859000Y10160000D01*
X14859000Y10160000D02*
X14859000Y24130000D01*
X14859000Y24130000D02*
X15494000Y24765000D01*
X17653000Y7235000D02*
X15998000Y8890000D01*
X17653000Y1905000D02*
X17653000Y7235000D01*
X15998000Y8890000D02*
X14859000Y8890000D01*
X14859000Y8890000D02*
X14224000Y9525000D01*
X14224000Y9525000D02*
X14224000Y24765000D01*
X15113000Y7235000D02*
X13589000Y8759000D01*
X15113000Y1905000D02*
X15113000Y7235000D01*
X13589000Y8759000D02*
X13589000Y24130000D01*
X13589000Y24130000D02*
X12954000Y24765000D01*
X12573000Y1905000D02*
X12573000Y23876000D01*
X12573000Y23876000D02*
X11684000Y24765000D01*
X10033000Y7235000D02*
X11684000Y8886000D01*
X10033000Y1905000D02*
X10033000Y7235000D01*
X11684000Y8886000D02*
X11684000Y22225000D01*
X11684000Y22225000D02*
X11684000Y23495000D01*
X11684000Y23495000D02*
X10414000Y24765000D01*
X7493000Y6223000D02*
X11049000Y9779000D01*
X7493000Y1905000D02*
X7493000Y6223000D01*
X11049000Y9779000D02*
X11049000Y22860000D01*
X11049000Y22860000D02*
X9144000Y24765000D01*
X4953000Y6223000D02*
X6985000Y8255000D01*
X4953000Y1905000D02*
X4953000Y6223000D01*
X6985000Y8255000D02*
X8509000Y8255000D01*
X8509000Y8255000D02*
X10414000Y10160000D01*
X10414000Y10160000D02*
X10414000Y22225000D01*
X10414000Y22225000D02*
X7874000Y24765000D01*
X23114000Y12065000D02*
X23749000Y12700000D01*
X23749000Y12700000D02*
X23749000Y17145000D01*
X23749000Y17145000D02*
X23114000Y17780000D01*
X23114000Y17780000D02*
X23114000Y20955000D01*
X23114000Y20955000D02*
X29464000Y27305000D01*
X37084000Y35179000D02*
X37084000Y47879000D01*
X37084000Y47879000D02*
X38354000Y49149000D01*
X38354000Y49149000D02*
X38354000Y51054000D01*
X38354000Y51054000D02*
X37084000Y52324000D01*
X35409003Y34379001D02*
X36284001Y34379001D01*
X29464000Y28433998D02*
X35409003Y34379001D01*
X36284001Y34379001D02*
X37084000Y35179000D01*
X29464000Y27305000D02*
X29464000Y28433998D01*
X37084000Y52324000D02*
X37084000Y54229000D01*
X34544000Y35179000D02*
X34544000Y48514000D01*
X34544000Y48514000D02*
X35814000Y49784000D01*
X35814000Y49784000D02*
X35814000Y51054000D01*
X35814000Y51054000D02*
X34544000Y52324000D01*
X23114000Y13479230D02*
X23114000Y16510000D01*
X22479000Y17145000D02*
X22479000Y21590000D01*
X22479000Y21590000D02*
X28829000Y27940000D01*
X22406885Y12772115D02*
X23114000Y13479230D01*
X23114000Y16510000D02*
X22479000Y17145000D01*
X28829000Y29464000D02*
X34544000Y35179000D01*
X28829000Y27940000D02*
X28829000Y29464000D01*
X34544000Y52324000D02*
X34544000Y54229000D01*
X22099769Y13879229D02*
X21699770Y13479230D01*
X21699770Y16654230D02*
X22099769Y16254231D01*
X22099769Y16254231D02*
X22099769Y13879229D01*
X28194000Y28575000D02*
X21699770Y22080770D01*
X21699770Y22080770D02*
X21699770Y16654230D01*
X32004000Y35179000D02*
X32004000Y48514000D01*
X32004000Y48514000D02*
X33274000Y49784000D01*
X33274000Y50814002D02*
X32004000Y52084002D01*
X33274000Y49784000D02*
X33274000Y50814002D01*
X28194000Y31369000D02*
X32004000Y35179000D01*
X28194000Y28575000D02*
X28194000Y31369000D01*
X32004000Y52084002D02*
X32004000Y54229000D01*
X21392654Y14586344D02*
X20992655Y14186345D01*
X27559000Y29210000D02*
X20992655Y22643655D01*
X20992655Y22643655D02*
X20992655Y16091345D01*
X20992655Y16091345D02*
X21392654Y15691346D01*
X21392654Y15691346D02*
X21392654Y14586344D01*
X29464000Y35179000D02*
X29464000Y48514000D01*
X29464000Y48514000D02*
X30734000Y49784000D01*
X30734000Y49784000D02*
X30734000Y51054000D01*
X30734000Y51054000D02*
X29464000Y52324000D01*
X27559000Y33274000D02*
X29464000Y35179000D01*
X27559000Y29210000D02*
X27559000Y33274000D01*
X29464000Y52324000D02*
X29464000Y54229000D01*
X20285540Y14893460D02*
X20285540Y23206540D01*
X20285540Y23206540D02*
X26924000Y29845000D01*
X26924000Y35179000D02*
X26924000Y48514000D01*
X26924000Y48514000D02*
X28194000Y49784000D01*
X28194000Y50814002D02*
X26924000Y52084002D01*
X28194000Y49784000D02*
X28194000Y50814002D01*
X26924000Y29845000D02*
X26924000Y35179000D01*
X26924000Y52084002D02*
X26924000Y54229000D01*
X19560530Y15600927D02*
X19560530Y23751530D01*
X24384000Y35179000D02*
X24384000Y47879000D01*
X25509001Y49004001D02*
X25509001Y51198999D01*
X24384000Y47879000D02*
X25509001Y49004001D01*
X25509001Y51198999D02*
X24384000Y52324000D01*
X19560530Y23751530D02*
X24384000Y28575000D01*
X24384000Y28575000D02*
X24384000Y35179000D01*
X24384000Y52324000D02*
X24384000Y54229000D01*
X23114000Y51689000D02*
X21844000Y52959000D01*
X23114000Y49149000D02*
X23114000Y51689000D01*
X21844000Y35179000D02*
X21844000Y47879000D01*
X21844000Y47879000D02*
X23114000Y49149000D01*
X21844000Y27940000D02*
X21844000Y35179000D01*
X18835520Y16316871D02*
X18835520Y24931520D01*
X18835520Y24931520D02*
X21844000Y27940000D01*
X21844000Y52959000D02*
X21844000Y54229000D01*
X18110510Y17037414D02*
X18110510Y24841510D01*
X19304000Y35179000D02*
X19304000Y47879000D01*
X19304000Y47879000D02*
X20574000Y49149000D01*
X20574000Y49149000D02*
X20574000Y51054000D01*
X20574000Y51054000D02*
X19304000Y52324000D01*
X18385510Y25116510D02*
X18385510Y26386510D01*
X18110510Y24841510D02*
X18385510Y25116510D01*
X19304000Y34047630D02*
X19304000Y35179000D01*
X20029001Y33322629D02*
X19304000Y34047630D01*
X20029001Y28030001D02*
X20029001Y33322629D01*
X18385510Y26386510D02*
X20029001Y28030001D01*
X19304000Y52324000D02*
X19304000Y54229000D01*
X15494000Y52959000D02*
X14224000Y54229000D01*
X45974000Y28575000D02*
X45339000Y29210000D01*
X45974000Y20955000D02*
X45974000Y28575000D01*
X15494000Y29210000D02*
X15494000Y52959000D01*
X32639000Y20955000D02*
X30099000Y23495000D01*
X16764000Y31115000D02*
X19304000Y28575000D01*
X16764000Y35179000D02*
X16764000Y47879000D01*
X16764000Y47879000D02*
X18034000Y49149000D01*
X18034000Y49149000D02*
X18034000Y51054000D01*
X18034000Y51054000D02*
X16764000Y52324000D01*
X16764000Y31115000D02*
X16764000Y35179000D01*
X16764000Y52324000D02*
X16764000Y54229000D01*
X7144001Y49293999D02*
X5824001Y49293999D01*
X7729001Y49878999D02*
X7144001Y49293999D01*
X6604000Y54229000D02*
X7729001Y53103999D01*
X7729001Y53103999D02*
X7729001Y49878999D01*
X5824001Y49293999D02*
X3556000Y51562000D01*
X3556000Y51562000D02*
X3556000Y52832000D01*
D18*
G36*
X34936569Y32433720D02*
X35227720Y32142569D01*
X35608126Y31985000D01*
X36019874Y31985000D01*
X36400280Y32142569D01*
X36403995Y32146284D01*
X36497720Y32052559D01*
X36878126Y31894990D01*
X37044199Y31894990D01*
X43944001Y24995186D01*
X43944000Y21658711D01*
X43826569Y21541280D01*
X43669000Y21160874D01*
X43669000Y20749126D01*
X43826569Y20368720D01*
X44117720Y20077569D01*
X44498126Y19920000D01*
X44909874Y19920000D01*
X45290280Y20077569D01*
X45339000Y20126289D01*
X45387720Y20077569D01*
X45768126Y19920000D01*
X46179874Y19920000D01*
X46560280Y20077569D01*
X46851431Y20368720D01*
X47009000Y20749126D01*
X47009000Y21160874D01*
X46851431Y21541280D01*
X46734000Y21658711D01*
X46734000Y28500152D01*
X46748888Y28575000D01*
X46734000Y28649848D01*
X46734000Y28649852D01*
X46689904Y28871537D01*
X46521929Y29122929D01*
X46458473Y29165329D01*
X46374000Y29249802D01*
X46374000Y29415874D01*
X46216431Y29796280D01*
X45925280Y30087431D01*
X45544874Y30245000D01*
X45133126Y30245000D01*
X44752720Y30087431D01*
X44461569Y29796280D01*
X44304000Y29415874D01*
X44304000Y29004126D01*
X44461569Y28623720D01*
X44745289Y28340000D01*
X44743802Y28340000D01*
X41458801Y31625000D01*
X45024199Y31625000D01*
X49913001Y26736197D01*
X49913000Y7747000D01*
X38733000Y7747000D01*
X38733000Y9831152D01*
X38747888Y9906000D01*
X38733000Y9980848D01*
X38733000Y9980852D01*
X38688904Y10202537D01*
X38520929Y10453929D01*
X38457473Y10496329D01*
X31134000Y17819801D01*
X31134000Y17985874D01*
X30976431Y18366280D01*
X30685280Y18657431D01*
X30304874Y18815000D01*
X29893126Y18815000D01*
X29512720Y18657431D01*
X29221569Y18366280D01*
X29064000Y17985874D01*
X29064000Y17574126D01*
X29221569Y17193720D01*
X29512720Y16902569D01*
X29893126Y16745000D01*
X30059199Y16745000D01*
X37213001Y9591197D01*
X37213001Y7747000D01*
X28573000Y7747000D01*
X28573000Y17451154D01*
X28587888Y17526001D01*
X28583404Y17548544D01*
X28594000Y17574126D01*
X28594000Y17985874D01*
X28436431Y18366280D01*
X28145280Y18657431D01*
X27764874Y18815000D01*
X27353126Y18815000D01*
X26972720Y18657431D01*
X26681569Y18366280D01*
X26524000Y17985874D01*
X26524000Y17574126D01*
X26681569Y17193720D01*
X26972720Y16902569D01*
X27053001Y16869316D01*
X27053000Y7747000D01*
X22283803Y7747000D01*
X20636756Y9394045D01*
X20816431Y9573720D01*
X20974000Y9954126D01*
X20974000Y10365874D01*
X20816431Y10746280D01*
X20525280Y11037431D01*
X20144874Y11195000D01*
X19866876Y11195000D01*
X19729579Y11332297D01*
X19687177Y11395756D01*
X19435785Y11563731D01*
X19292960Y11592141D01*
X19159843Y11725258D01*
X18779437Y11882827D01*
X18367689Y11882827D01*
X17987283Y11725258D01*
X17696132Y11434107D01*
X17538563Y11053701D01*
X17538563Y10882825D01*
X16480977Y10882825D01*
X16254000Y11109801D01*
X16254000Y23180199D01*
X16803802Y23730000D01*
X16969874Y23730000D01*
X17350280Y23887569D01*
X17350511Y23887800D01*
X17350510Y17741125D01*
X17233079Y17623694D01*
X17075510Y17243288D01*
X17075510Y16831540D01*
X17233079Y16451134D01*
X17524230Y16159983D01*
X17833248Y16031984D01*
X17958089Y15730591D01*
X18249240Y15439440D01*
X18560558Y15310488D01*
X18683099Y15014647D01*
X18974250Y14723496D01*
X19289806Y14592789D01*
X19408109Y14307180D01*
X19699260Y14016029D01*
X19993391Y13894196D01*
X20115224Y13600065D01*
X20406375Y13308914D01*
X20700506Y13187081D01*
X20822339Y12892950D01*
X21113490Y12601799D01*
X21407621Y12479966D01*
X21529454Y12185835D01*
X21820605Y11894684D01*
X22114736Y11772851D01*
X22236569Y11478720D01*
X22527720Y11187569D01*
X22908126Y11030000D01*
X23319874Y11030000D01*
X23700280Y11187569D01*
X23991431Y11478720D01*
X24149000Y11859126D01*
X24149000Y12025198D01*
X24233473Y12109671D01*
X24296929Y12152071D01*
X24464904Y12403463D01*
X24509000Y12625148D01*
X24509000Y12625152D01*
X24523888Y12700000D01*
X24509000Y12774848D01*
X24509000Y17070152D01*
X24523888Y17145000D01*
X24509000Y17219848D01*
X24509000Y17219852D01*
X24464904Y17441537D01*
X24296929Y17692929D01*
X24233473Y17735329D01*
X23874000Y18094801D01*
X23874000Y20640199D01*
X26934675Y23700874D01*
X29064000Y23700874D01*
X29064000Y23289126D01*
X29221569Y22908720D01*
X29512720Y22617569D01*
X29893126Y22460000D01*
X30059199Y22460000D01*
X31604000Y20915197D01*
X31604000Y20749126D01*
X31761569Y20368720D01*
X32052720Y20077569D01*
X32433126Y19920000D01*
X32844874Y19920000D01*
X33225280Y20077569D01*
X33516431Y20368720D01*
X33674000Y20749126D01*
X33674000Y21160874D01*
X33516431Y21541280D01*
X33225280Y21832431D01*
X32844874Y21990000D01*
X32678803Y21990000D01*
X31134000Y23534801D01*
X31134000Y23700874D01*
X30976431Y24081280D01*
X30685280Y24372431D01*
X30304874Y24530000D01*
X29893126Y24530000D01*
X29512720Y24372431D01*
X29221569Y24081280D01*
X29064000Y23700874D01*
X26934675Y23700874D01*
X29948473Y26714671D01*
X30011929Y26757071D01*
X30179904Y27008463D01*
X30224000Y27230148D01*
X30224000Y27230152D01*
X30238888Y27304999D01*
X30224000Y27379846D01*
X30224000Y28119197D01*
X34819984Y32715181D01*
X34936569Y32433720D01*
X34936569Y32433720D01*
G37*
X34936569Y32433720D02*
X35227720Y32142569D01*
X35608126Y31985000D01*
X36019874Y31985000D01*
X36400280Y32142569D01*
X36403995Y32146284D01*
X36497720Y32052559D01*
X36878126Y31894990D01*
X37044199Y31894990D01*
X43944001Y24995186D01*
X43944000Y21658711D01*
X43826569Y21541280D01*
X43669000Y21160874D01*
X43669000Y20749126D01*
X43826569Y20368720D01*
X44117720Y20077569D01*
X44498126Y19920000D01*
X44909874Y19920000D01*
X45290280Y20077569D01*
X45339000Y20126289D01*
X45387720Y20077569D01*
X45768126Y19920000D01*
X46179874Y19920000D01*
X46560280Y20077569D01*
X46851431Y20368720D01*
X47009000Y20749126D01*
X47009000Y21160874D01*
X46851431Y21541280D01*
X46734000Y21658711D01*
X46734000Y28500152D01*
X46748888Y28575000D01*
X46734000Y28649848D01*
X46734000Y28649852D01*
X46689904Y28871537D01*
X46521929Y29122929D01*
X46458473Y29165329D01*
X46374000Y29249802D01*
X46374000Y29415874D01*
X46216431Y29796280D01*
X45925280Y30087431D01*
X45544874Y30245000D01*
X45133126Y30245000D01*
X44752720Y30087431D01*
X44461569Y29796280D01*
X44304000Y29415874D01*
X44304000Y29004126D01*
X44461569Y28623720D01*
X44745289Y28340000D01*
X44743802Y28340000D01*
X41458801Y31625000D01*
X45024199Y31625000D01*
X49913001Y26736197D01*
X49913000Y7747000D01*
X38733000Y7747000D01*
X38733000Y9831152D01*
X38747888Y9906000D01*
X38733000Y9980848D01*
X38733000Y9980852D01*
X38688904Y10202537D01*
X38520929Y10453929D01*
X38457473Y10496329D01*
X31134000Y17819801D01*
X31134000Y17985874D01*
X30976431Y18366280D01*
X30685280Y18657431D01*
X30304874Y18815000D01*
X29893126Y18815000D01*
X29512720Y18657431D01*
X29221569Y18366280D01*
X29064000Y17985874D01*
X29064000Y17574126D01*
X29221569Y17193720D01*
X29512720Y16902569D01*
X29893126Y16745000D01*
X30059199Y16745000D01*
X37213001Y9591197D01*
X37213001Y7747000D01*
X28573000Y7747000D01*
X28573000Y17451154D01*
X28587888Y17526001D01*
X28583404Y17548544D01*
X28594000Y17574126D01*
X28594000Y17985874D01*
X28436431Y18366280D01*
X28145280Y18657431D01*
X27764874Y18815000D01*
X27353126Y18815000D01*
X26972720Y18657431D01*
X26681569Y18366280D01*
X26524000Y17985874D01*
X26524000Y17574126D01*
X26681569Y17193720D01*
X26972720Y16902569D01*
X27053001Y16869316D01*
X27053000Y7747000D01*
X22283803Y7747000D01*
X20636756Y9394045D01*
X20816431Y9573720D01*
X20974000Y9954126D01*
X20974000Y10365874D01*
X20816431Y10746280D01*
X20525280Y11037431D01*
X20144874Y11195000D01*
X19866876Y11195000D01*
X19729579Y11332297D01*
X19687177Y11395756D01*
X19435785Y11563731D01*
X19292960Y11592141D01*
X19159843Y11725258D01*
X18779437Y11882827D01*
X18367689Y11882827D01*
X17987283Y11725258D01*
X17696132Y11434107D01*
X17538563Y11053701D01*
X17538563Y10882825D01*
X16480977Y10882825D01*
X16254000Y11109801D01*
X16254000Y23180199D01*
X16803802Y23730000D01*
X16969874Y23730000D01*
X17350280Y23887569D01*
X17350511Y23887800D01*
X17350510Y17741125D01*
X17233079Y17623694D01*
X17075510Y17243288D01*
X17075510Y16831540D01*
X17233079Y16451134D01*
X17524230Y16159983D01*
X17833248Y16031984D01*
X17958089Y15730591D01*
X18249240Y15439440D01*
X18560558Y15310488D01*
X18683099Y15014647D01*
X18974250Y14723496D01*
X19289806Y14592789D01*
X19408109Y14307180D01*
X19699260Y14016029D01*
X19993391Y13894196D01*
X20115224Y13600065D01*
X20406375Y13308914D01*
X20700506Y13187081D01*
X20822339Y12892950D01*
X21113490Y12601799D01*
X21407621Y12479966D01*
X21529454Y12185835D01*
X21820605Y11894684D01*
X22114736Y11772851D01*
X22236569Y11478720D01*
X22527720Y11187569D01*
X22908126Y11030000D01*
X23319874Y11030000D01*
X23700280Y11187569D01*
X23991431Y11478720D01*
X24149000Y11859126D01*
X24149000Y12025198D01*
X24233473Y12109671D01*
X24296929Y12152071D01*
X24464904Y12403463D01*
X24509000Y12625148D01*
X24509000Y12625152D01*
X24523888Y12700000D01*
X24509000Y12774848D01*
X24509000Y17070152D01*
X24523888Y17145000D01*
X24509000Y17219848D01*
X24509000Y17219852D01*
X24464904Y17441537D01*
X24296929Y17692929D01*
X24233473Y17735329D01*
X23874000Y18094801D01*
X23874000Y20640199D01*
X26934675Y23700874D01*
X29064000Y23700874D01*
X29064000Y23289126D01*
X29221569Y22908720D01*
X29512720Y22617569D01*
X29893126Y22460000D01*
X30059199Y22460000D01*
X31604000Y20915197D01*
X31604000Y20749126D01*
X31761569Y20368720D01*
X32052720Y20077569D01*
X32433126Y19920000D01*
X32844874Y19920000D01*
X33225280Y20077569D01*
X33516431Y20368720D01*
X33674000Y20749126D01*
X33674000Y21160874D01*
X33516431Y21541280D01*
X33225280Y21832431D01*
X32844874Y21990000D01*
X32678803Y21990000D01*
X31134000Y23534801D01*
X31134000Y23700874D01*
X30976431Y24081280D01*
X30685280Y24372431D01*
X30304874Y24530000D01*
X29893126Y24530000D01*
X29512720Y24372431D01*
X29221569Y24081280D01*
X29064000Y23700874D01*
X26934675Y23700874D01*
X29948473Y26714671D01*
X30011929Y26757071D01*
X30179904Y27008463D01*
X30224000Y27230148D01*
X30224000Y27230152D01*
X30238888Y27304999D01*
X30224000Y27379846D01*
X30224000Y28119197D01*
X34819984Y32715181D01*
X34936569Y32433720D01*
G36*
X65076000Y7747000D02*
X64258000Y7747000D01*
X64258000Y7978488D01*
X64340280Y8012569D01*
X64631431Y8303720D01*
X64789000Y8684126D01*
X64789000Y9095874D01*
X64631431Y9476280D01*
X64340280Y9767431D01*
X63959874Y9925000D01*
X63548126Y9925000D01*
X63185993Y9775000D01*
X61147007Y9775000D01*
X60784874Y9925000D01*
X60373126Y9925000D01*
X59992720Y9767431D01*
X59701569Y9476280D01*
X59544000Y9095874D01*
X59544000Y8684126D01*
X59701569Y8303720D01*
X59992720Y8012569D01*
X60373126Y7855000D01*
X60784874Y7855000D01*
X61147007Y8005000D01*
X62488001Y8005000D01*
X62488001Y7747000D01*
X53719000Y7747000D01*
X53719000Y26601289D01*
X53836431Y26718720D01*
X53994000Y27099126D01*
X53994000Y27510874D01*
X53836431Y27891280D01*
X53545280Y28182431D01*
X53164874Y28340000D01*
X52753126Y28340000D01*
X52372720Y28182431D01*
X52081569Y27891280D01*
X51924000Y27510874D01*
X51924000Y27099126D01*
X52081569Y26718720D01*
X52199000Y26601289D01*
X52199001Y7747000D01*
X51433000Y7747000D01*
X51433000Y26976154D01*
X51447888Y27051001D01*
X51433000Y27125848D01*
X51433000Y27125852D01*
X51388904Y27347537D01*
X51220929Y27598929D01*
X51157473Y27641329D01*
X45929331Y32869470D01*
X45886929Y32932929D01*
X45635537Y33100904D01*
X45413852Y33145000D01*
X45413847Y33145000D01*
X45339000Y33159888D01*
X45264153Y33145000D01*
X41208802Y33145000D01*
X40389302Y33964499D01*
X40658577Y34144423D01*
X40894000Y34496758D01*
X41129423Y34144423D01*
X41604091Y33827260D01*
X42022667Y33744000D01*
X42305333Y33744000D01*
X42723909Y33827260D01*
X43198577Y34144423D01*
X43434000Y34496758D01*
X43669423Y34144423D01*
X44144091Y33827260D01*
X44562667Y33744000D01*
X44845333Y33744000D01*
X45263909Y33827260D01*
X45738577Y34144423D01*
X45974000Y34496758D01*
X46209423Y34144423D01*
X46684091Y33827260D01*
X47102667Y33744000D01*
X47385333Y33744000D01*
X47803909Y33827260D01*
X48278577Y34144423D01*
X48514000Y34496758D01*
X48749423Y34144423D01*
X49224091Y33827260D01*
X49642667Y33744000D01*
X49925333Y33744000D01*
X50343909Y33827260D01*
X50818577Y34144423D01*
X51054000Y34496758D01*
X51289423Y34144423D01*
X51764091Y33827260D01*
X52182667Y33744000D01*
X52465333Y33744000D01*
X52883909Y33827260D01*
X53358577Y34144423D01*
X53594000Y34496758D01*
X53829423Y34144423D01*
X54304091Y33827260D01*
X54722667Y33744000D01*
X55005333Y33744000D01*
X55423909Y33827260D01*
X55898577Y34144423D01*
X56215740Y34619091D01*
X56327113Y35179000D01*
X56215740Y35738909D01*
X55898577Y36213577D01*
X55423909Y36530740D01*
X55005333Y36614000D01*
X54722667Y36614000D01*
X54304091Y36530740D01*
X53829423Y36213577D01*
X53594000Y35861242D01*
X53358577Y36213577D01*
X52883909Y36530740D01*
X52465333Y36614000D01*
X52182667Y36614000D01*
X51764091Y36530740D01*
X51289423Y36213577D01*
X51054000Y35861242D01*
X50818577Y36213577D01*
X50544000Y36397043D01*
X50544000Y47564199D01*
X51538473Y48558671D01*
X51601929Y48601071D01*
X51681310Y48719874D01*
X56369000Y48719874D01*
X56369000Y48308126D01*
X56519000Y47945993D01*
X56519001Y22158009D01*
X56369000Y21795874D01*
X56369000Y21384126D01*
X56526569Y21003720D01*
X56817720Y20712569D01*
X57198126Y20555000D01*
X57609874Y20555000D01*
X57990280Y20712569D01*
X58281431Y21003720D01*
X58439000Y21384126D01*
X58439000Y21795874D01*
X58289000Y22158007D01*
X58289000Y22617913D01*
X58431569Y22273720D01*
X58722720Y21982569D01*
X59103126Y21825000D01*
X59514874Y21825000D01*
X59895280Y21982569D01*
X60186431Y22273720D01*
X60344000Y22654126D01*
X60344000Y23065874D01*
X60194000Y23428007D01*
X60194000Y47945993D01*
X60344000Y48308126D01*
X60344000Y48719874D01*
X60186431Y49100280D01*
X59895280Y49391431D01*
X59514874Y49549000D01*
X59103126Y49549000D01*
X58722720Y49391431D01*
X58431569Y49100280D01*
X58356500Y48919047D01*
X58281431Y49100280D01*
X57990280Y49391431D01*
X57609874Y49549000D01*
X57198126Y49549000D01*
X56817720Y49391431D01*
X56526569Y49100280D01*
X56369000Y48719874D01*
X51681310Y48719874D01*
X51769904Y48852463D01*
X51810782Y49057972D01*
X52182667Y48984000D01*
X52465333Y48984000D01*
X52883909Y49067260D01*
X53358577Y49384423D01*
X53439215Y49505106D01*
X53465843Y49371235D01*
X53606191Y49161191D01*
X53816235Y49020843D01*
X54064000Y48971560D01*
X55664000Y48971560D01*
X55911765Y49020843D01*
X56121809Y49161191D01*
X56262157Y49371235D01*
X56311440Y49619000D01*
X56311440Y51219000D01*
X56262157Y51466765D01*
X56121809Y51676809D01*
X55911765Y51817157D01*
X55664000Y51866440D01*
X54064000Y51866440D01*
X53816235Y51817157D01*
X53606191Y51676809D01*
X53465843Y51466765D01*
X53439215Y51332894D01*
X53358577Y51453577D01*
X52883909Y51770740D01*
X52465333Y51854000D01*
X52182667Y51854000D01*
X51764091Y51770740D01*
X51409197Y51533607D01*
X50544000Y52398803D01*
X50544000Y53010957D01*
X50818577Y53194423D01*
X51054000Y53546758D01*
X51289423Y53194423D01*
X51764091Y52877260D01*
X52182667Y52794000D01*
X52465333Y52794000D01*
X52883909Y52877260D01*
X53358577Y53194423D01*
X53594000Y53546758D01*
X53829423Y53194423D01*
X54304091Y52877260D01*
X54722667Y52794000D01*
X55005333Y52794000D01*
X55423909Y52877260D01*
X55898577Y53194423D01*
X56215740Y53669091D01*
X56327113Y54229000D01*
X56215740Y54788909D01*
X55898577Y55263577D01*
X55621288Y55448855D01*
X55579904Y55656907D01*
X55411929Y55908299D01*
X55348473Y55950699D01*
X48965701Y62333470D01*
X48923299Y62396929D01*
X48671907Y62564904D01*
X48450222Y62609000D01*
X48450217Y62609000D01*
X48375370Y62623888D01*
X48300523Y62609000D01*
X18983802Y62609000D01*
X16109001Y65483800D01*
X16109001Y68180797D01*
X16204091Y68117260D01*
X16622667Y68034000D01*
X16905333Y68034000D01*
X17323909Y68117260D01*
X17798577Y68434423D01*
X18034000Y68786758D01*
X18269423Y68434423D01*
X18744091Y68117260D01*
X19162667Y68034000D01*
X19445333Y68034000D01*
X19863909Y68117260D01*
X20338577Y68434423D01*
X20574000Y68786758D01*
X20809423Y68434423D01*
X21284091Y68117260D01*
X21702667Y68034000D01*
X21985333Y68034000D01*
X22403909Y68117260D01*
X22878577Y68434423D01*
X23114000Y68786758D01*
X23349423Y68434423D01*
X23824091Y68117260D01*
X24242667Y68034000D01*
X24525333Y68034000D01*
X24943909Y68117260D01*
X25418577Y68434423D01*
X25654000Y68786758D01*
X25889423Y68434423D01*
X26364091Y68117260D01*
X26782667Y68034000D01*
X27065333Y68034000D01*
X27483909Y68117260D01*
X27958577Y68434423D01*
X28194000Y68786758D01*
X28429423Y68434423D01*
X28904091Y68117260D01*
X29322667Y68034000D01*
X29605333Y68034000D01*
X30023909Y68117260D01*
X30498577Y68434423D01*
X30734000Y68786758D01*
X30969423Y68434423D01*
X31444091Y68117260D01*
X31862667Y68034000D01*
X32145333Y68034000D01*
X32563909Y68117260D01*
X33038577Y68434423D01*
X33274000Y68786758D01*
X33509423Y68434423D01*
X33984091Y68117260D01*
X34402667Y68034000D01*
X34685333Y68034000D01*
X35103909Y68117260D01*
X35578577Y68434423D01*
X35814000Y68786758D01*
X36049423Y68434423D01*
X36524091Y68117260D01*
X36942667Y68034000D01*
X37225333Y68034000D01*
X37643909Y68117260D01*
X38118577Y68434423D01*
X38354000Y68786758D01*
X38589423Y68434423D01*
X39064091Y68117260D01*
X39482667Y68034000D01*
X39765333Y68034000D01*
X40183909Y68117260D01*
X40658577Y68434423D01*
X40894000Y68786758D01*
X41129423Y68434423D01*
X41604091Y68117260D01*
X42022667Y68034000D01*
X42305333Y68034000D01*
X42723909Y68117260D01*
X43198577Y68434423D01*
X43434000Y68786758D01*
X43669423Y68434423D01*
X44144091Y68117260D01*
X44562667Y68034000D01*
X44845333Y68034000D01*
X45263909Y68117260D01*
X45738577Y68434423D01*
X45974000Y68786758D01*
X46209423Y68434423D01*
X46684091Y68117260D01*
X47102667Y68034000D01*
X47385333Y68034000D01*
X47803909Y68117260D01*
X48278577Y68434423D01*
X48514000Y68786758D01*
X48749423Y68434423D01*
X49224091Y68117260D01*
X49642667Y68034000D01*
X49925333Y68034000D01*
X50343909Y68117260D01*
X50818577Y68434423D01*
X51054000Y68786758D01*
X51289423Y68434423D01*
X51764091Y68117260D01*
X52182667Y68034000D01*
X52465333Y68034000D01*
X52883909Y68117260D01*
X53358577Y68434423D01*
X53439215Y68555106D01*
X53465843Y68421235D01*
X53606191Y68211191D01*
X53816235Y68070843D01*
X54064000Y68021560D01*
X55664000Y68021560D01*
X55911765Y68070843D01*
X56121809Y68211191D01*
X56262157Y68421235D01*
X56311440Y68669000D01*
X56311440Y70269000D01*
X56262157Y70516765D01*
X56121809Y70726809D01*
X55911765Y70867157D01*
X55664000Y70916440D01*
X54846243Y70916440D01*
X55348476Y71418673D01*
X55411929Y71461071D01*
X55454327Y71524524D01*
X55454329Y71524526D01*
X55579903Y71712462D01*
X55579904Y71712463D01*
X55624000Y71934148D01*
X55624000Y71934152D01*
X55638888Y72008999D01*
X55624000Y72083846D01*
X55624000Y75175822D01*
X55934625Y75383375D01*
X56125190Y75668576D01*
X56326917Y75366670D01*
X56818124Y75038456D01*
X57251286Y74952295D01*
X57543798Y74952295D01*
X57976960Y75038456D01*
X58468167Y75366670D01*
X58796381Y75857877D01*
X58911634Y76437295D01*
X58796381Y77016713D01*
X58468167Y77507920D01*
X58449923Y77520111D01*
X58495307Y77529138D01*
X58705351Y77669486D01*
X58845699Y77879530D01*
X58894982Y78127295D01*
X58894982Y79827295D01*
X58845699Y80075060D01*
X58705351Y80285104D01*
X58495307Y80425452D01*
X58271501Y80469969D01*
X58231194Y80672605D01*
X58214894Y80697000D01*
X65076001Y80697000D01*
X65076000Y7747000D01*
X65076000Y7747000D01*
G37*
X65076000Y7747000D02*
X64258000Y7747000D01*
X64258000Y7978488D01*
X64340280Y8012569D01*
X64631431Y8303720D01*
X64789000Y8684126D01*
X64789000Y9095874D01*
X64631431Y9476280D01*
X64340280Y9767431D01*
X63959874Y9925000D01*
X63548126Y9925000D01*
X63185993Y9775000D01*
X61147007Y9775000D01*
X60784874Y9925000D01*
X60373126Y9925000D01*
X59992720Y9767431D01*
X59701569Y9476280D01*
X59544000Y9095874D01*
X59544000Y8684126D01*
X59701569Y8303720D01*
X59992720Y8012569D01*
X60373126Y7855000D01*
X60784874Y7855000D01*
X61147007Y8005000D01*
X62488001Y8005000D01*
X62488001Y7747000D01*
X53719000Y7747000D01*
X53719000Y26601289D01*
X53836431Y26718720D01*
X53994000Y27099126D01*
X53994000Y27510874D01*
X53836431Y27891280D01*
X53545280Y28182431D01*
X53164874Y28340000D01*
X52753126Y28340000D01*
X52372720Y28182431D01*
X52081569Y27891280D01*
X51924000Y27510874D01*
X51924000Y27099126D01*
X52081569Y26718720D01*
X52199000Y26601289D01*
X52199001Y7747000D01*
X51433000Y7747000D01*
X51433000Y26976154D01*
X51447888Y27051001D01*
X51433000Y27125848D01*
X51433000Y27125852D01*
X51388904Y27347537D01*
X51220929Y27598929D01*
X51157473Y27641329D01*
X45929331Y32869470D01*
X45886929Y32932929D01*
X45635537Y33100904D01*
X45413852Y33145000D01*
X45413847Y33145000D01*
X45339000Y33159888D01*
X45264153Y33145000D01*
X41208802Y33145000D01*
X40389302Y33964499D01*
X40658577Y34144423D01*
X40894000Y34496758D01*
X41129423Y34144423D01*
X41604091Y33827260D01*
X42022667Y33744000D01*
X42305333Y33744000D01*
X42723909Y33827260D01*
X43198577Y34144423D01*
X43434000Y34496758D01*
X43669423Y34144423D01*
X44144091Y33827260D01*
X44562667Y33744000D01*
X44845333Y33744000D01*
X45263909Y33827260D01*
X45738577Y34144423D01*
X45974000Y34496758D01*
X46209423Y34144423D01*
X46684091Y33827260D01*
X47102667Y33744000D01*
X47385333Y33744000D01*
X47803909Y33827260D01*
X48278577Y34144423D01*
X48514000Y34496758D01*
X48749423Y34144423D01*
X49224091Y33827260D01*
X49642667Y33744000D01*
X49925333Y33744000D01*
X50343909Y33827260D01*
X50818577Y34144423D01*
X51054000Y34496758D01*
X51289423Y34144423D01*
X51764091Y33827260D01*
X52182667Y33744000D01*
X52465333Y33744000D01*
X52883909Y33827260D01*
X53358577Y34144423D01*
X53594000Y34496758D01*
X53829423Y34144423D01*
X54304091Y33827260D01*
X54722667Y33744000D01*
X55005333Y33744000D01*
X55423909Y33827260D01*
X55898577Y34144423D01*
X56215740Y34619091D01*
X56327113Y35179000D01*
X56215740Y35738909D01*
X55898577Y36213577D01*
X55423909Y36530740D01*
X55005333Y36614000D01*
X54722667Y36614000D01*
X54304091Y36530740D01*
X53829423Y36213577D01*
X53594000Y35861242D01*
X53358577Y36213577D01*
X52883909Y36530740D01*
X52465333Y36614000D01*
X52182667Y36614000D01*
X51764091Y36530740D01*
X51289423Y36213577D01*
X51054000Y35861242D01*
X50818577Y36213577D01*
X50544000Y36397043D01*
X50544000Y47564199D01*
X51538473Y48558671D01*
X51601929Y48601071D01*
X51681310Y48719874D01*
X56369000Y48719874D01*
X56369000Y48308126D01*
X56519000Y47945993D01*
X56519001Y22158009D01*
X56369000Y21795874D01*
X56369000Y21384126D01*
X56526569Y21003720D01*
X56817720Y20712569D01*
X57198126Y20555000D01*
X57609874Y20555000D01*
X57990280Y20712569D01*
X58281431Y21003720D01*
X58439000Y21384126D01*
X58439000Y21795874D01*
X58289000Y22158007D01*
X58289000Y22617913D01*
X58431569Y22273720D01*
X58722720Y21982569D01*
X59103126Y21825000D01*
X59514874Y21825000D01*
X59895280Y21982569D01*
X60186431Y22273720D01*
X60344000Y22654126D01*
X60344000Y23065874D01*
X60194000Y23428007D01*
X60194000Y47945993D01*
X60344000Y48308126D01*
X60344000Y48719874D01*
X60186431Y49100280D01*
X59895280Y49391431D01*
X59514874Y49549000D01*
X59103126Y49549000D01*
X58722720Y49391431D01*
X58431569Y49100280D01*
X58356500Y48919047D01*
X58281431Y49100280D01*
X57990280Y49391431D01*
X57609874Y49549000D01*
X57198126Y49549000D01*
X56817720Y49391431D01*
X56526569Y49100280D01*
X56369000Y48719874D01*
X51681310Y48719874D01*
X51769904Y48852463D01*
X51810782Y49057972D01*
X52182667Y48984000D01*
X52465333Y48984000D01*
X52883909Y49067260D01*
X53358577Y49384423D01*
X53439215Y49505106D01*
X53465843Y49371235D01*
X53606191Y49161191D01*
X53816235Y49020843D01*
X54064000Y48971560D01*
X55664000Y48971560D01*
X55911765Y49020843D01*
X56121809Y49161191D01*
X56262157Y49371235D01*
X56311440Y49619000D01*
X56311440Y51219000D01*
X56262157Y51466765D01*
X56121809Y51676809D01*
X55911765Y51817157D01*
X55664000Y51866440D01*
X54064000Y51866440D01*
X53816235Y51817157D01*
X53606191Y51676809D01*
X53465843Y51466765D01*
X53439215Y51332894D01*
X53358577Y51453577D01*
X52883909Y51770740D01*
X52465333Y51854000D01*
X52182667Y51854000D01*
X51764091Y51770740D01*
X51409197Y51533607D01*
X50544000Y52398803D01*
X50544000Y53010957D01*
X50818577Y53194423D01*
X51054000Y53546758D01*
X51289423Y53194423D01*
X51764091Y52877260D01*
X52182667Y52794000D01*
X52465333Y52794000D01*
X52883909Y52877260D01*
X53358577Y53194423D01*
X53594000Y53546758D01*
X53829423Y53194423D01*
X54304091Y52877260D01*
X54722667Y52794000D01*
X55005333Y52794000D01*
X55423909Y52877260D01*
X55898577Y53194423D01*
X56215740Y53669091D01*
X56327113Y54229000D01*
X56215740Y54788909D01*
X55898577Y55263577D01*
X55621288Y55448855D01*
X55579904Y55656907D01*
X55411929Y55908299D01*
X55348473Y55950699D01*
X48965701Y62333470D01*
X48923299Y62396929D01*
X48671907Y62564904D01*
X48450222Y62609000D01*
X48450217Y62609000D01*
X48375370Y62623888D01*
X48300523Y62609000D01*
X18983802Y62609000D01*
X16109001Y65483800D01*
X16109001Y68180797D01*
X16204091Y68117260D01*
X16622667Y68034000D01*
X16905333Y68034000D01*
X17323909Y68117260D01*
X17798577Y68434423D01*
X18034000Y68786758D01*
X18269423Y68434423D01*
X18744091Y68117260D01*
X19162667Y68034000D01*
X19445333Y68034000D01*
X19863909Y68117260D01*
X20338577Y68434423D01*
X20574000Y68786758D01*
X20809423Y68434423D01*
X21284091Y68117260D01*
X21702667Y68034000D01*
X21985333Y68034000D01*
X22403909Y68117260D01*
X22878577Y68434423D01*
X23114000Y68786758D01*
X23349423Y68434423D01*
X23824091Y68117260D01*
X24242667Y68034000D01*
X24525333Y68034000D01*
X24943909Y68117260D01*
X25418577Y68434423D01*
X25654000Y68786758D01*
X25889423Y68434423D01*
X26364091Y68117260D01*
X26782667Y68034000D01*
X27065333Y68034000D01*
X27483909Y68117260D01*
X27958577Y68434423D01*
X28194000Y68786758D01*
X28429423Y68434423D01*
X28904091Y68117260D01*
X29322667Y68034000D01*
X29605333Y68034000D01*
X30023909Y68117260D01*
X30498577Y68434423D01*
X30734000Y68786758D01*
X30969423Y68434423D01*
X31444091Y68117260D01*
X31862667Y68034000D01*
X32145333Y68034000D01*
X32563909Y68117260D01*
X33038577Y68434423D01*
X33274000Y68786758D01*
X33509423Y68434423D01*
X33984091Y68117260D01*
X34402667Y68034000D01*
X34685333Y68034000D01*
X35103909Y68117260D01*
X35578577Y68434423D01*
X35814000Y68786758D01*
X36049423Y68434423D01*
X36524091Y68117260D01*
X36942667Y68034000D01*
X37225333Y68034000D01*
X37643909Y68117260D01*
X38118577Y68434423D01*
X38354000Y68786758D01*
X38589423Y68434423D01*
X39064091Y68117260D01*
X39482667Y68034000D01*
X39765333Y68034000D01*
X40183909Y68117260D01*
X40658577Y68434423D01*
X40894000Y68786758D01*
X41129423Y68434423D01*
X41604091Y68117260D01*
X42022667Y68034000D01*
X42305333Y68034000D01*
X42723909Y68117260D01*
X43198577Y68434423D01*
X43434000Y68786758D01*
X43669423Y68434423D01*
X44144091Y68117260D01*
X44562667Y68034000D01*
X44845333Y68034000D01*
X45263909Y68117260D01*
X45738577Y68434423D01*
X45974000Y68786758D01*
X46209423Y68434423D01*
X46684091Y68117260D01*
X47102667Y68034000D01*
X47385333Y68034000D01*
X47803909Y68117260D01*
X48278577Y68434423D01*
X48514000Y68786758D01*
X48749423Y68434423D01*
X49224091Y68117260D01*
X49642667Y68034000D01*
X49925333Y68034000D01*
X50343909Y68117260D01*
X50818577Y68434423D01*
X51054000Y68786758D01*
X51289423Y68434423D01*
X51764091Y68117260D01*
X52182667Y68034000D01*
X52465333Y68034000D01*
X52883909Y68117260D01*
X53358577Y68434423D01*
X53439215Y68555106D01*
X53465843Y68421235D01*
X53606191Y68211191D01*
X53816235Y68070843D01*
X54064000Y68021560D01*
X55664000Y68021560D01*
X55911765Y68070843D01*
X56121809Y68211191D01*
X56262157Y68421235D01*
X56311440Y68669000D01*
X56311440Y70269000D01*
X56262157Y70516765D01*
X56121809Y70726809D01*
X55911765Y70867157D01*
X55664000Y70916440D01*
X54846243Y70916440D01*
X55348476Y71418673D01*
X55411929Y71461071D01*
X55454327Y71524524D01*
X55454329Y71524526D01*
X55579903Y71712462D01*
X55579904Y71712463D01*
X55624000Y71934148D01*
X55624000Y71934152D01*
X55638888Y72008999D01*
X55624000Y72083846D01*
X55624000Y75175822D01*
X55934625Y75383375D01*
X56125190Y75668576D01*
X56326917Y75366670D01*
X56818124Y75038456D01*
X57251286Y74952295D01*
X57543798Y74952295D01*
X57976960Y75038456D01*
X58468167Y75366670D01*
X58796381Y75857877D01*
X58911634Y76437295D01*
X58796381Y77016713D01*
X58468167Y77507920D01*
X58449923Y77520111D01*
X58495307Y77529138D01*
X58705351Y77669486D01*
X58845699Y77879530D01*
X58894982Y78127295D01*
X58894982Y79827295D01*
X58845699Y80075060D01*
X58705351Y80285104D01*
X58495307Y80425452D01*
X58271501Y80469969D01*
X58231194Y80672605D01*
X58214894Y80697000D01*
X65076001Y80697000D01*
X65076000Y7747000D01*
G36*
X58424001Y47945991D02*
X58424000Y23428007D01*
X58289000Y23102087D01*
X58289000Y47945993D01*
X58356500Y48108953D01*
X58424001Y47945991D01*
X58424001Y47945991D01*
G37*
X58424001Y47945991D02*
X58424000Y23428007D01*
X58289000Y23102087D01*
X58289000Y47945993D01*
X58356500Y48108953D01*
X58424001Y47945991D01*
G36*
X4739844Y80286422D02*
X4665951Y80237048D01*
X4616577Y80163155D01*
X4616575Y80163153D01*
X4470347Y79944308D01*
X4401662Y79598999D01*
X4419000Y79511834D01*
X4418999Y70856162D01*
X4401662Y70769001D01*
X4418999Y70681840D01*
X4418999Y70681837D01*
X4470347Y70423692D01*
X4665950Y70130952D01*
X4739846Y70081576D01*
X5175983Y69645439D01*
X5140887Y69469000D01*
X5175983Y69292561D01*
X4789844Y68906422D01*
X4715951Y68857048D01*
X4666577Y68783155D01*
X4666575Y68783153D01*
X4520347Y68564308D01*
X4451662Y68218999D01*
X4469000Y68131833D01*
X4468999Y53332411D01*
X4433431Y53418280D01*
X4142280Y53709431D01*
X3761874Y53867000D01*
X3350126Y53867000D01*
X2969720Y53709431D01*
X2678569Y53418280D01*
X2521000Y53037874D01*
X2521000Y52626126D01*
X2678569Y52245720D01*
X2796000Y52128289D01*
X2796000Y51636847D01*
X2781112Y51562000D01*
X2796000Y51487153D01*
X2796000Y51487149D01*
X2840096Y51265464D01*
X3008071Y51014071D01*
X3071530Y50971669D01*
X5233672Y48809526D01*
X5276072Y48746070D01*
X5339528Y48703670D01*
X5527463Y48578095D01*
X5575606Y48568519D01*
X5749149Y48533999D01*
X5749153Y48533999D01*
X5824001Y48519111D01*
X5898849Y48533999D01*
X7069154Y48533999D01*
X7144001Y48519111D01*
X7218848Y48533999D01*
X7218853Y48533999D01*
X7440538Y48578095D01*
X7691930Y48746070D01*
X7734332Y48809529D01*
X8213474Y49288670D01*
X8233101Y49301784D01*
X8584091Y49067260D01*
X8599472Y49064201D01*
X8596072Y49061929D01*
X8553672Y48998473D01*
X8553671Y48998472D01*
X8428097Y48810537D01*
X8369112Y48514000D01*
X8384001Y48439148D01*
X8384000Y36397044D01*
X8109423Y36213577D01*
X7874000Y35861242D01*
X7638577Y36213577D01*
X7163909Y36530740D01*
X6745333Y36614000D01*
X6462667Y36614000D01*
X6044091Y36530740D01*
X5569423Y36213577D01*
X5252260Y35738909D01*
X5140887Y35179000D01*
X5252260Y34619091D01*
X5569423Y34144423D01*
X6044091Y33827260D01*
X6462667Y33744000D01*
X6634199Y33744000D01*
X5647251Y32757053D01*
X5595799Y32881270D01*
X5304648Y33172421D01*
X4924242Y33329990D01*
X4512494Y33329990D01*
X4132088Y33172421D01*
X3840937Y32881270D01*
X3777370Y32727805D01*
X3714123Y32727805D01*
X3333717Y32570236D01*
X3042566Y32279085D01*
X2893315Y31918760D01*
X2660084Y31822153D01*
X2368933Y31531002D01*
X2211364Y31150596D01*
X2211364Y30738848D01*
X2216635Y30726124D01*
X2207720Y30722431D01*
X1916569Y30431280D01*
X1759000Y30050874D01*
X1759000Y29639126D01*
X1916569Y29258720D01*
X2034001Y29141288D01*
X2034000Y10863711D01*
X1916569Y10746280D01*
X1759000Y10365874D01*
X1759000Y9954126D01*
X1916569Y9573720D01*
X2207720Y9282569D01*
X2388953Y9207500D01*
X2207720Y9132431D01*
X1916569Y8841280D01*
X1759000Y8460874D01*
X1759000Y8049126D01*
X1884144Y7747000D01*
X710000Y7747000D01*
X710000Y80697000D01*
X5150422Y80697000D01*
X4739844Y80286422D01*
X4739844Y80286422D01*
G37*
X4739844Y80286422D02*
X4665951Y80237048D01*
X4616577Y80163155D01*
X4616575Y80163153D01*
X4470347Y79944308D01*
X4401662Y79598999D01*
X4419000Y79511834D01*
X4418999Y70856162D01*
X4401662Y70769001D01*
X4418999Y70681840D01*
X4418999Y70681837D01*
X4470347Y70423692D01*
X4665950Y70130952D01*
X4739846Y70081576D01*
X5175983Y69645439D01*
X5140887Y69469000D01*
X5175983Y69292561D01*
X4789844Y68906422D01*
X4715951Y68857048D01*
X4666577Y68783155D01*
X4666575Y68783153D01*
X4520347Y68564308D01*
X4451662Y68218999D01*
X4469000Y68131833D01*
X4468999Y53332411D01*
X4433431Y53418280D01*
X4142280Y53709431D01*
X3761874Y53867000D01*
X3350126Y53867000D01*
X2969720Y53709431D01*
X2678569Y53418280D01*
X2521000Y53037874D01*
X2521000Y52626126D01*
X2678569Y52245720D01*
X2796000Y52128289D01*
X2796000Y51636847D01*
X2781112Y51562000D01*
X2796000Y51487153D01*
X2796000Y51487149D01*
X2840096Y51265464D01*
X3008071Y51014071D01*
X3071530Y50971669D01*
X5233672Y48809526D01*
X5276072Y48746070D01*
X5339528Y48703670D01*
X5527463Y48578095D01*
X5575606Y48568519D01*
X5749149Y48533999D01*
X5749153Y48533999D01*
X5824001Y48519111D01*
X5898849Y48533999D01*
X7069154Y48533999D01*
X7144001Y48519111D01*
X7218848Y48533999D01*
X7218853Y48533999D01*
X7440538Y48578095D01*
X7691930Y48746070D01*
X7734332Y48809529D01*
X8213474Y49288670D01*
X8233101Y49301784D01*
X8584091Y49067260D01*
X8599472Y49064201D01*
X8596072Y49061929D01*
X8553672Y48998473D01*
X8553671Y48998472D01*
X8428097Y48810537D01*
X8369112Y48514000D01*
X8384001Y48439148D01*
X8384000Y36397044D01*
X8109423Y36213577D01*
X7874000Y35861242D01*
X7638577Y36213577D01*
X7163909Y36530740D01*
X6745333Y36614000D01*
X6462667Y36614000D01*
X6044091Y36530740D01*
X5569423Y36213577D01*
X5252260Y35738909D01*
X5140887Y35179000D01*
X5252260Y34619091D01*
X5569423Y34144423D01*
X6044091Y33827260D01*
X6462667Y33744000D01*
X6634199Y33744000D01*
X5647251Y32757053D01*
X5595799Y32881270D01*
X5304648Y33172421D01*
X4924242Y33329990D01*
X4512494Y33329990D01*
X4132088Y33172421D01*
X3840937Y32881270D01*
X3777370Y32727805D01*
X3714123Y32727805D01*
X3333717Y32570236D01*
X3042566Y32279085D01*
X2893315Y31918760D01*
X2660084Y31822153D01*
X2368933Y31531002D01*
X2211364Y31150596D01*
X2211364Y30738848D01*
X2216635Y30726124D01*
X2207720Y30722431D01*
X1916569Y30431280D01*
X1759000Y30050874D01*
X1759000Y29639126D01*
X1916569Y29258720D01*
X2034001Y29141288D01*
X2034000Y10863711D01*
X1916569Y10746280D01*
X1759000Y10365874D01*
X1759000Y9954126D01*
X1916569Y9573720D01*
X2207720Y9282569D01*
X2388953Y9207500D01*
X2207720Y9132431D01*
X1916569Y8841280D01*
X1759000Y8460874D01*
X1759000Y8049126D01*
X1884144Y7747000D01*
X710000Y7747000D01*
X710000Y80697000D01*
X5150422Y80697000D01*
X4739844Y80286422D01*
G36*
X5402199Y7747000D02*
X3703856Y7747000D01*
X3829000Y8049126D01*
X3829000Y8130000D01*
X5785198Y8130000D01*
X5402199Y7747000D01*
X5402199Y7747000D01*
G37*
X5402199Y7747000D02*
X3703856Y7747000D01*
X3829000Y8049126D01*
X3829000Y8130000D01*
X5785198Y8130000D01*
X5402199Y7747000D01*
G36*
X11813000Y7747000D02*
X11619801Y7747000D01*
X11813000Y7940199D01*
X11813000Y7747000D01*
X11813000Y7747000D01*
G37*
X11813000Y7747000D02*
X11619801Y7747000D01*
X11813000Y7940199D01*
X11813000Y7747000D01*
G36*
X13526199Y7747000D02*
X13333000Y7747000D01*
X13333000Y7940199D01*
X13526199Y7747000D01*
X13526199Y7747000D01*
G37*
X13526199Y7747000D02*
X13333000Y7747000D01*
X13333000Y7940199D01*
X13526199Y7747000D01*
G36*
X16066198Y7747000D02*
X15684936Y7747000D01*
X15660929Y7782929D01*
X15597476Y7825327D01*
X15292802Y8130000D01*
X15683199Y8130000D01*
X16066198Y7747000D01*
X16066198Y7747000D01*
G37*
X16066198Y7747000D02*
X15684936Y7747000D01*
X15660929Y7782929D01*
X15597476Y7825327D01*
X15292802Y8130000D01*
X15683199Y8130000D01*
X16066198Y7747000D01*
G36*
X18606198Y7747000D02*
X18224936Y7747000D01*
X18200929Y7782929D01*
X18137476Y7825327D01*
X17197802Y8765000D01*
X17588199Y8765000D01*
X18606198Y7747000D01*
X18606198Y7747000D01*
G37*
X18606198Y7747000D02*
X18224936Y7747000D01*
X18200929Y7782929D01*
X18137476Y7825327D01*
X17197802Y8765000D01*
X17588199Y8765000D01*
X18606198Y7747000D01*
G36*
X6398126Y23730000D02*
X6564199Y23730000D01*
X9019001Y21275197D01*
X9019000Y11109802D01*
X7559199Y9650000D01*
X3703027Y9650000D01*
X3789558Y9858904D01*
X4105290Y9989684D01*
X4396441Y10280835D01*
X4524664Y10590394D01*
X4803285Y10705802D01*
X5094436Y10996953D01*
X5207087Y11268918D01*
X5523217Y11399863D01*
X5814368Y11691014D01*
X5971937Y12071420D01*
X5971937Y12483168D01*
X5814368Y12863574D01*
X5523217Y13154725D01*
X5296938Y13248453D01*
X5296938Y18650000D01*
X5539874Y18650000D01*
X5920280Y18807569D01*
X6211431Y19098720D01*
X6369000Y19479126D01*
X6369000Y19890874D01*
X6211431Y20271280D01*
X6094000Y20388711D01*
X6094000Y23855973D01*
X6398126Y23730000D01*
X6398126Y23730000D01*
G37*
X6398126Y23730000D02*
X6564199Y23730000D01*
X9019001Y21275197D01*
X9019000Y11109802D01*
X7559199Y9650000D01*
X3703027Y9650000D01*
X3789558Y9858904D01*
X4105290Y9989684D01*
X4396441Y10280835D01*
X4524664Y10590394D01*
X4803285Y10705802D01*
X5094436Y10996953D01*
X5207087Y11268918D01*
X5523217Y11399863D01*
X5814368Y11691014D01*
X5971937Y12071420D01*
X5971937Y12483168D01*
X5814368Y12863574D01*
X5523217Y13154725D01*
X5296938Y13248453D01*
X5296938Y18650000D01*
X5539874Y18650000D01*
X5920280Y18807569D01*
X6211431Y19098720D01*
X6369000Y19479126D01*
X6369000Y19890874D01*
X6211431Y20271280D01*
X6094000Y20388711D01*
X6094000Y23855973D01*
X6398126Y23730000D01*
G36*
X13189423Y34144423D02*
X13664091Y33827260D01*
X14082667Y33744000D01*
X14365333Y33744000D01*
X14734000Y33817333D01*
X14734000Y29913711D01*
X14616569Y29796280D01*
X14459000Y29415874D01*
X14459000Y29004126D01*
X14616569Y28623720D01*
X14907720Y28332569D01*
X15288126Y28175000D01*
X15699874Y28175000D01*
X16080280Y28332569D01*
X16371431Y28623720D01*
X16529000Y29004126D01*
X16529000Y29415874D01*
X16371431Y29796280D01*
X16254000Y29913711D01*
X16254000Y30541728D01*
X16279530Y30524669D01*
X18269000Y28535197D01*
X18269000Y28369126D01*
X18426569Y27988720D01*
X18669744Y27745545D01*
X17901038Y26976839D01*
X17837582Y26934439D01*
X17795182Y26870983D01*
X17795181Y26870982D01*
X17669607Y26683047D01*
X17610622Y26386510D01*
X17625511Y26311659D01*
X17625510Y25431486D01*
X17586974Y25405737D01*
X17350280Y25642431D01*
X16969874Y25800000D01*
X16558126Y25800000D01*
X16177720Y25642431D01*
X16129000Y25593711D01*
X16080280Y25642431D01*
X15699874Y25800000D01*
X15288126Y25800000D01*
X14907720Y25642431D01*
X14859000Y25593711D01*
X14810280Y25642431D01*
X14429874Y25800000D01*
X14018126Y25800000D01*
X13637720Y25642431D01*
X13589000Y25593711D01*
X13540280Y25642431D01*
X13159874Y25800000D01*
X12748126Y25800000D01*
X12367720Y25642431D01*
X12319000Y25593711D01*
X12270280Y25642431D01*
X11889874Y25800000D01*
X11478126Y25800000D01*
X11097720Y25642431D01*
X11049000Y25593711D01*
X11000280Y25642431D01*
X10619874Y25800000D01*
X10208126Y25800000D01*
X9827720Y25642431D01*
X9779000Y25593711D01*
X9730280Y25642431D01*
X9349874Y25800000D01*
X8938126Y25800000D01*
X8557720Y25642431D01*
X8509000Y25593711D01*
X8460280Y25642431D01*
X8079874Y25800000D01*
X7668126Y25800000D01*
X7287720Y25642431D01*
X7239000Y25593711D01*
X7190280Y25642431D01*
X6809874Y25800000D01*
X6398126Y25800000D01*
X6094000Y25674027D01*
X6094000Y28300973D01*
X6398126Y28175000D01*
X6809874Y28175000D01*
X7190280Y28332569D01*
X7481431Y28623720D01*
X7639000Y29004126D01*
X7639000Y29415874D01*
X7481431Y29796280D01*
X7428756Y29848955D01*
X11360114Y33780312D01*
X11542667Y33744000D01*
X11825333Y33744000D01*
X12243909Y33827260D01*
X12718577Y34144423D01*
X12954000Y34496758D01*
X13189423Y34144423D01*
X13189423Y34144423D01*
G37*
X13189423Y34144423D02*
X13664091Y33827260D01*
X14082667Y33744000D01*
X14365333Y33744000D01*
X14734000Y33817333D01*
X14734000Y29913711D01*
X14616569Y29796280D01*
X14459000Y29415874D01*
X14459000Y29004126D01*
X14616569Y28623720D01*
X14907720Y28332569D01*
X15288126Y28175000D01*
X15699874Y28175000D01*
X16080280Y28332569D01*
X16371431Y28623720D01*
X16529000Y29004126D01*
X16529000Y29415874D01*
X16371431Y29796280D01*
X16254000Y29913711D01*
X16254000Y30541728D01*
X16279530Y30524669D01*
X18269000Y28535197D01*
X18269000Y28369126D01*
X18426569Y27988720D01*
X18669744Y27745545D01*
X17901038Y26976839D01*
X17837582Y26934439D01*
X17795182Y26870983D01*
X17795181Y26870982D01*
X17669607Y26683047D01*
X17610622Y26386510D01*
X17625511Y26311659D01*
X17625510Y25431486D01*
X17586974Y25405737D01*
X17350280Y25642431D01*
X16969874Y25800000D01*
X16558126Y25800000D01*
X16177720Y25642431D01*
X16129000Y25593711D01*
X16080280Y25642431D01*
X15699874Y25800000D01*
X15288126Y25800000D01*
X14907720Y25642431D01*
X14859000Y25593711D01*
X14810280Y25642431D01*
X14429874Y25800000D01*
X14018126Y25800000D01*
X13637720Y25642431D01*
X13589000Y25593711D01*
X13540280Y25642431D01*
X13159874Y25800000D01*
X12748126Y25800000D01*
X12367720Y25642431D01*
X12319000Y25593711D01*
X12270280Y25642431D01*
X11889874Y25800000D01*
X11478126Y25800000D01*
X11097720Y25642431D01*
X11049000Y25593711D01*
X11000280Y25642431D01*
X10619874Y25800000D01*
X10208126Y25800000D01*
X9827720Y25642431D01*
X9779000Y25593711D01*
X9730280Y25642431D01*
X9349874Y25800000D01*
X8938126Y25800000D01*
X8557720Y25642431D01*
X8509000Y25593711D01*
X8460280Y25642431D01*
X8079874Y25800000D01*
X7668126Y25800000D01*
X7287720Y25642431D01*
X7239000Y25593711D01*
X7190280Y25642431D01*
X6809874Y25800000D01*
X6398126Y25800000D01*
X6094000Y25674027D01*
X6094000Y28300973D01*
X6398126Y28175000D01*
X6809874Y28175000D01*
X7190280Y28332569D01*
X7481431Y28623720D01*
X7639000Y29004126D01*
X7639000Y29415874D01*
X7481431Y29796280D01*
X7428756Y29848955D01*
X11360114Y33780312D01*
X11542667Y33744000D01*
X11825333Y33744000D01*
X12243909Y33827260D01*
X12718577Y34144423D01*
X12954000Y34496758D01*
X13189423Y34144423D01*
G36*
X45214001Y25883262D02*
X45188476Y25900317D01*
X44818793Y26270000D01*
X44909874Y26270000D01*
X45214001Y26395973D01*
X45214001Y25883262D01*
X45214001Y25883262D01*
G37*
X45214001Y25883262D02*
X45188476Y25900317D01*
X44818793Y26270000D01*
X44909874Y26270000D01*
X45214001Y26395973D01*
X45214001Y25883262D01*
G36*
X23349423Y34144423D02*
X23624001Y33960956D01*
X23624000Y28889802D01*
X22605155Y27870956D01*
X22618888Y27939999D01*
X22604000Y28014846D01*
X22604000Y33960957D01*
X22878577Y34144423D01*
X23114000Y34496758D01*
X23349423Y34144423D01*
X23349423Y34144423D01*
G37*
X23349423Y34144423D02*
X23624001Y33960956D01*
X23624000Y28889802D01*
X22605155Y27870956D01*
X22618888Y27939999D01*
X22604000Y28014846D01*
X22604000Y33960957D01*
X22878577Y34144423D01*
X23114000Y34496758D01*
X23349423Y34144423D01*
G36*
X20809423Y34144423D02*
X21084001Y33960956D01*
X21084000Y28254802D01*
X20790156Y27960957D01*
X20803889Y28030000D01*
X20789001Y28104847D01*
X20789001Y33247783D01*
X20803889Y33322630D01*
X20789001Y33397477D01*
X20789001Y33397481D01*
X20744905Y33619166D01*
X20576930Y33870558D01*
X20513474Y33912958D01*
X20304667Y34121765D01*
X20338577Y34144423D01*
X20574000Y34496758D01*
X20809423Y34144423D01*
X20809423Y34144423D01*
G37*
X20809423Y34144423D02*
X21084001Y33960956D01*
X21084000Y28254802D01*
X20790156Y27960957D01*
X20803889Y28030000D01*
X20789001Y28104847D01*
X20789001Y33247783D01*
X20803889Y33322630D01*
X20789001Y33397477D01*
X20789001Y33397481D01*
X20744905Y33619166D01*
X20576930Y33870558D01*
X20513474Y33912958D01*
X20304667Y34121765D01*
X20338577Y34144423D01*
X20574000Y34496758D01*
X20809423Y34144423D01*
G36*
X25889423Y34144423D02*
X26164001Y33960956D01*
X26164000Y30159802D01*
X25144000Y29139802D01*
X25144000Y33960957D01*
X25418577Y34144423D01*
X25654000Y34496758D01*
X25889423Y34144423D01*
X25889423Y34144423D01*
G37*
X25889423Y34144423D02*
X26164001Y33960956D01*
X26164000Y30159802D01*
X25144000Y29139802D01*
X25144000Y33960957D01*
X25418577Y34144423D01*
X25654000Y34496758D01*
X25889423Y34144423D01*
G36*
X18269423Y34144423D02*
X18546712Y33959144D01*
X18588096Y33751094D01*
X18756071Y33499701D01*
X18819530Y33457299D01*
X19269002Y33007826D01*
X19269001Y29684801D01*
X17524000Y31429801D01*
X17524000Y33960957D01*
X17798577Y34144423D01*
X18034000Y34496758D01*
X18269423Y34144423D01*
X18269423Y34144423D01*
G37*
X18269423Y34144423D02*
X18546712Y33959144D01*
X18588096Y33751094D01*
X18756071Y33499701D01*
X18819530Y33457299D01*
X19269002Y33007826D01*
X19269001Y29684801D01*
X17524000Y31429801D01*
X17524000Y33960957D01*
X17798577Y34144423D01*
X18034000Y34496758D01*
X18269423Y34144423D01*
G36*
X31862667Y33744000D02*
X32034198Y33744000D01*
X28954000Y30663801D01*
X28954000Y31054199D01*
X31680114Y33780312D01*
X31862667Y33744000D01*
X31862667Y33744000D01*
G37*
X31862667Y33744000D02*
X32034198Y33744000D01*
X28954000Y30663801D01*
X28954000Y31054199D01*
X31680114Y33780312D01*
X31862667Y33744000D01*
G36*
X9002667Y33744000D02*
X9174198Y33744000D01*
X6119528Y30689329D01*
X6094000Y30672272D01*
X6094000Y31054199D01*
X8820114Y33780312D01*
X9002667Y33744000D01*
X9002667Y33744000D01*
G37*
X9002667Y33744000D02*
X9174198Y33744000D01*
X6119528Y30689329D01*
X6094000Y30672272D01*
X6094000Y31054199D01*
X8820114Y33780312D01*
X9002667Y33744000D01*
G36*
X29322667Y33744000D02*
X29494199Y33744000D01*
X28319000Y32568801D01*
X28319000Y32959199D01*
X29140114Y33780312D01*
X29322667Y33744000D01*
X29322667Y33744000D01*
G37*
X29322667Y33744000D02*
X29494199Y33744000D01*
X28319000Y32568801D01*
X28319000Y32959199D01*
X29140114Y33780312D01*
X29322667Y33744000D01*
G36*
X38405530Y34419638D02*
X38354000Y34429888D01*
X38302470Y34419638D01*
X38354000Y34496758D01*
X38405530Y34419638D01*
X38405530Y34419638D01*
G37*
X38405530Y34419638D02*
X38354000Y34429888D01*
X38302470Y34419638D01*
X38354000Y34496758D01*
X38405530Y34419638D01*
G36*
X49642667Y48984000D02*
X49814199Y48984000D01*
X49299528Y48469329D01*
X49236072Y48426929D01*
X49193672Y48363473D01*
X49193671Y48363472D01*
X49068097Y48175537D01*
X49009112Y47879000D01*
X49024001Y47804148D01*
X49024000Y36397044D01*
X48749423Y36213577D01*
X48514000Y35861242D01*
X48278577Y36213577D01*
X48004000Y36397043D01*
X48004000Y47564199D01*
X48998473Y48558671D01*
X49061929Y48601071D01*
X49229904Y48852463D01*
X49270782Y49057972D01*
X49642667Y48984000D01*
X49642667Y48984000D01*
G37*
X49642667Y48984000D02*
X49814199Y48984000D01*
X49299528Y48469329D01*
X49236072Y48426929D01*
X49193672Y48363473D01*
X49193671Y48363472D01*
X49068097Y48175537D01*
X49009112Y47879000D01*
X49024001Y47804148D01*
X49024000Y36397044D01*
X48749423Y36213577D01*
X48514000Y35861242D01*
X48278577Y36213577D01*
X48004000Y36397043D01*
X48004000Y47564199D01*
X48998473Y48558671D01*
X49061929Y48601071D01*
X49229904Y48852463D01*
X49270782Y49057972D01*
X49642667Y48984000D01*
G36*
X36524091Y49067260D02*
X36942667Y48984000D01*
X37114199Y48984000D01*
X36599528Y48469329D01*
X36536072Y48426929D01*
X36493672Y48363473D01*
X36493671Y48363472D01*
X36368097Y48175537D01*
X36309112Y47879000D01*
X36324001Y47804148D01*
X36324000Y36397044D01*
X36049423Y36213577D01*
X35814000Y35861242D01*
X35578577Y36213577D01*
X35304000Y36397043D01*
X35304000Y48199199D01*
X36298473Y49193671D01*
X36316688Y49205842D01*
X36524091Y49067260D01*
X36524091Y49067260D01*
G37*
X36524091Y49067260D02*
X36942667Y48984000D01*
X37114199Y48984000D01*
X36599528Y48469329D01*
X36536072Y48426929D01*
X36493672Y48363473D01*
X36493671Y48363472D01*
X36368097Y48175537D01*
X36309112Y47879000D01*
X36324001Y47804148D01*
X36324000Y36397044D01*
X36049423Y36213577D01*
X35814000Y35861242D01*
X35578577Y36213577D01*
X35304000Y36397043D01*
X35304000Y48199199D01*
X36298473Y49193671D01*
X36316688Y49205842D01*
X36524091Y49067260D01*
G36*
X11124091Y49067260D02*
X11139472Y49064201D01*
X11136072Y49061929D01*
X11093672Y48998473D01*
X11093671Y48998472D01*
X10968097Y48810537D01*
X10909112Y48514000D01*
X10924001Y48439148D01*
X10924000Y36397044D01*
X10649423Y36213577D01*
X10414000Y35861242D01*
X10178577Y36213577D01*
X9904000Y36397043D01*
X9904000Y48199199D01*
X10898473Y49193671D01*
X10916688Y49205842D01*
X11124091Y49067260D01*
X11124091Y49067260D01*
G37*
X11124091Y49067260D02*
X11139472Y49064201D01*
X11136072Y49061929D01*
X11093672Y48998473D01*
X11093671Y48998472D01*
X10968097Y48810537D01*
X10909112Y48514000D01*
X10924001Y48439148D01*
X10924000Y36397044D01*
X10649423Y36213577D01*
X10414000Y35861242D01*
X10178577Y36213577D01*
X9904000Y36397043D01*
X9904000Y48199199D01*
X10898473Y49193671D01*
X10916688Y49205842D01*
X11124091Y49067260D01*
G36*
X31444091Y49067260D02*
X31459472Y49064201D01*
X31456072Y49061929D01*
X31413672Y48998473D01*
X31413671Y48998472D01*
X31288097Y48810537D01*
X31229112Y48514000D01*
X31244001Y48439148D01*
X31244000Y36397044D01*
X30969423Y36213577D01*
X30734000Y35861242D01*
X30498577Y36213577D01*
X30224000Y36397043D01*
X30224000Y48199199D01*
X31218473Y49193671D01*
X31236688Y49205842D01*
X31444091Y49067260D01*
X31444091Y49067260D01*
G37*
X31444091Y49067260D02*
X31459472Y49064201D01*
X31456072Y49061929D01*
X31413672Y48998473D01*
X31413671Y48998472D01*
X31288097Y48810537D01*
X31229112Y48514000D01*
X31244001Y48439148D01*
X31244000Y36397044D01*
X30969423Y36213577D01*
X30734000Y35861242D01*
X30498577Y36213577D01*
X30224000Y36397043D01*
X30224000Y48199199D01*
X31218473Y49193671D01*
X31236688Y49205842D01*
X31444091Y49067260D01*
G36*
X46684091Y49067260D02*
X47102667Y48984000D01*
X47274199Y48984000D01*
X46759528Y48469329D01*
X46696072Y48426929D01*
X46653672Y48363473D01*
X46653671Y48363472D01*
X46528097Y48175537D01*
X46469112Y47879000D01*
X46484001Y47804148D01*
X46484000Y36397044D01*
X46209423Y36213577D01*
X45974000Y35861242D01*
X45738577Y36213577D01*
X45464000Y36397043D01*
X45464000Y48199199D01*
X46458473Y49193671D01*
X46476688Y49205842D01*
X46684091Y49067260D01*
X46684091Y49067260D01*
G37*
X46684091Y49067260D02*
X47102667Y48984000D01*
X47274199Y48984000D01*
X46759528Y48469329D01*
X46696072Y48426929D01*
X46653672Y48363473D01*
X46653671Y48363472D01*
X46528097Y48175537D01*
X46469112Y47879000D01*
X46484001Y47804148D01*
X46484000Y36397044D01*
X46209423Y36213577D01*
X45974000Y35861242D01*
X45738577Y36213577D01*
X45464000Y36397043D01*
X45464000Y48199199D01*
X46458473Y49193671D01*
X46476688Y49205842D01*
X46684091Y49067260D01*
G36*
X43929112Y48514000D02*
X43944001Y48439148D01*
X43944000Y36397044D01*
X43669423Y36213577D01*
X43434000Y35861242D01*
X43198577Y36213577D01*
X42924000Y36397043D01*
X42924000Y47564199D01*
X43918473Y48558671D01*
X43940990Y48573717D01*
X43929112Y48514000D01*
X43929112Y48514000D01*
G37*
X43929112Y48514000D02*
X43944001Y48439148D01*
X43944000Y36397044D01*
X43669423Y36213577D01*
X43434000Y35861242D01*
X43198577Y36213577D01*
X42924000Y36397043D01*
X42924000Y47564199D01*
X43918473Y48558671D01*
X43940990Y48573717D01*
X43929112Y48514000D01*
G36*
X42022667Y48984000D02*
X42194199Y48984000D01*
X41679528Y48469329D01*
X41616072Y48426929D01*
X41573672Y48363473D01*
X41573671Y48363472D01*
X41448097Y48175537D01*
X41389112Y47879000D01*
X41404001Y47804148D01*
X41404000Y36397044D01*
X41129423Y36213577D01*
X40894000Y35861242D01*
X40658577Y36213577D01*
X40384000Y36397043D01*
X40384000Y47564199D01*
X41378473Y48558671D01*
X41441929Y48601071D01*
X41609904Y48852463D01*
X41650782Y49057972D01*
X42022667Y48984000D01*
X42022667Y48984000D01*
G37*
X42022667Y48984000D02*
X42194199Y48984000D01*
X41679528Y48469329D01*
X41616072Y48426929D01*
X41573672Y48363473D01*
X41573671Y48363472D01*
X41448097Y48175537D01*
X41389112Y47879000D01*
X41404001Y47804148D01*
X41404000Y36397044D01*
X41129423Y36213577D01*
X40894000Y35861242D01*
X40658577Y36213577D01*
X40384000Y36397043D01*
X40384000Y47564199D01*
X41378473Y48558671D01*
X41441929Y48601071D01*
X41609904Y48852463D01*
X41650782Y49057972D01*
X42022667Y48984000D01*
G36*
X39482667Y48984000D02*
X39654199Y48984000D01*
X39139528Y48469329D01*
X39076072Y48426929D01*
X39033672Y48363473D01*
X39033671Y48363472D01*
X38908097Y48175537D01*
X38849112Y47879000D01*
X38864001Y47804148D01*
X38864000Y36397044D01*
X38589423Y36213577D01*
X38354000Y35861242D01*
X38118577Y36213577D01*
X37844000Y36397043D01*
X37844000Y47564199D01*
X38838473Y48558671D01*
X38901929Y48601071D01*
X39069904Y48852463D01*
X39110782Y49057972D01*
X39482667Y48984000D01*
X39482667Y48984000D01*
G37*
X39482667Y48984000D02*
X39654199Y48984000D01*
X39139528Y48469329D01*
X39076072Y48426929D01*
X39033672Y48363473D01*
X39033671Y48363472D01*
X38908097Y48175537D01*
X38849112Y47879000D01*
X38864001Y47804148D01*
X38864000Y36397044D01*
X38589423Y36213577D01*
X38354000Y35861242D01*
X38118577Y36213577D01*
X37844000Y36397043D01*
X37844000Y47564199D01*
X38838473Y48558671D01*
X38901929Y48601071D01*
X39069904Y48852463D01*
X39110782Y49057972D01*
X39482667Y48984000D01*
G36*
X33984091Y49067260D02*
X33999472Y49064201D01*
X33996072Y49061929D01*
X33953672Y48998473D01*
X33953671Y48998472D01*
X33828097Y48810537D01*
X33769112Y48514000D01*
X33784001Y48439148D01*
X33784000Y36397044D01*
X33509423Y36213577D01*
X33274000Y35861242D01*
X33038577Y36213577D01*
X32764000Y36397043D01*
X32764000Y48199199D01*
X33758473Y49193671D01*
X33776688Y49205842D01*
X33984091Y49067260D01*
X33984091Y49067260D01*
G37*
X33984091Y49067260D02*
X33999472Y49064201D01*
X33996072Y49061929D01*
X33953672Y48998473D01*
X33953671Y48998472D01*
X33828097Y48810537D01*
X33769112Y48514000D01*
X33784001Y48439148D01*
X33784000Y36397044D01*
X33509423Y36213577D01*
X33274000Y35861242D01*
X33038577Y36213577D01*
X32764000Y36397043D01*
X32764000Y48199199D01*
X33758473Y49193671D01*
X33776688Y49205842D01*
X33984091Y49067260D01*
G36*
X28904091Y49067260D02*
X28919472Y49064201D01*
X28916072Y49061929D01*
X28873672Y48998473D01*
X28873671Y48998472D01*
X28748097Y48810537D01*
X28689112Y48514000D01*
X28704001Y48439148D01*
X28704000Y36397044D01*
X28429423Y36213577D01*
X28194000Y35861242D01*
X27958577Y36213577D01*
X27684000Y36397043D01*
X27684000Y48199199D01*
X28678473Y49193671D01*
X28696688Y49205842D01*
X28904091Y49067260D01*
X28904091Y49067260D01*
G37*
X28904091Y49067260D02*
X28919472Y49064201D01*
X28916072Y49061929D01*
X28873672Y48998473D01*
X28873671Y48998472D01*
X28748097Y48810537D01*
X28689112Y48514000D01*
X28704001Y48439148D01*
X28704000Y36397044D01*
X28429423Y36213577D01*
X28194000Y35861242D01*
X27958577Y36213577D01*
X27684000Y36397043D01*
X27684000Y48199199D01*
X28678473Y49193671D01*
X28696688Y49205842D01*
X28904091Y49067260D01*
G36*
X26149112Y48514000D02*
X26164001Y48439148D01*
X26164000Y36397044D01*
X25889423Y36213577D01*
X25654000Y35861242D01*
X25418577Y36213577D01*
X25144000Y36397043D01*
X25144000Y47564199D01*
X25993474Y48413672D01*
X26056930Y48456072D01*
X26149695Y48594904D01*
X26171779Y48627955D01*
X26149112Y48514000D01*
X26149112Y48514000D01*
G37*
X26149112Y48514000D02*
X26164001Y48439148D01*
X26164000Y36397044D01*
X25889423Y36213577D01*
X25654000Y35861242D01*
X25418577Y36213577D01*
X25144000Y36397043D01*
X25144000Y47564199D01*
X25993474Y48413672D01*
X26056930Y48456072D01*
X26149695Y48594904D01*
X26171779Y48627955D01*
X26149112Y48514000D01*
G36*
X24242667Y48984000D02*
X24414198Y48984000D01*
X23899528Y48469329D01*
X23836072Y48426929D01*
X23793672Y48363473D01*
X23793671Y48363472D01*
X23668097Y48175537D01*
X23609112Y47879000D01*
X23624001Y47804148D01*
X23624000Y36397044D01*
X23349423Y36213577D01*
X23114000Y35861242D01*
X22878577Y36213577D01*
X22604000Y36397043D01*
X22604000Y47564199D01*
X23598473Y48558671D01*
X23661929Y48601071D01*
X23829904Y48852463D01*
X23870782Y49057972D01*
X24242667Y48984000D01*
X24242667Y48984000D01*
G37*
X24242667Y48984000D02*
X24414198Y48984000D01*
X23899528Y48469329D01*
X23836072Y48426929D01*
X23793672Y48363473D01*
X23793671Y48363472D01*
X23668097Y48175537D01*
X23609112Y47879000D01*
X23624001Y47804148D01*
X23624000Y36397044D01*
X23349423Y36213577D01*
X23114000Y35861242D01*
X22878577Y36213577D01*
X22604000Y36397043D01*
X22604000Y47564199D01*
X23598473Y48558671D01*
X23661929Y48601071D01*
X23829904Y48852463D01*
X23870782Y49057972D01*
X24242667Y48984000D01*
G36*
X21702667Y48984000D02*
X21874199Y48984000D01*
X21359528Y48469329D01*
X21296072Y48426929D01*
X21253672Y48363473D01*
X21253671Y48363472D01*
X21128097Y48175537D01*
X21069112Y47879000D01*
X21084001Y47804148D01*
X21084000Y36397044D01*
X20809423Y36213577D01*
X20574000Y35861242D01*
X20338577Y36213577D01*
X20064000Y36397043D01*
X20064000Y47564199D01*
X21058473Y48558671D01*
X21121929Y48601071D01*
X21289904Y48852463D01*
X21330782Y49057972D01*
X21702667Y48984000D01*
X21702667Y48984000D01*
G37*
X21702667Y48984000D02*
X21874199Y48984000D01*
X21359528Y48469329D01*
X21296072Y48426929D01*
X21253672Y48363473D01*
X21253671Y48363472D01*
X21128097Y48175537D01*
X21069112Y47879000D01*
X21084001Y47804148D01*
X21084000Y36397044D01*
X20809423Y36213577D01*
X20574000Y35861242D01*
X20338577Y36213577D01*
X20064000Y36397043D01*
X20064000Y47564199D01*
X21058473Y48558671D01*
X21121929Y48601071D01*
X21289904Y48852463D01*
X21330782Y49057972D01*
X21702667Y48984000D01*
G36*
X19162667Y48984000D02*
X19334199Y48984000D01*
X18819528Y48469329D01*
X18756072Y48426929D01*
X18713672Y48363473D01*
X18713671Y48363472D01*
X18588097Y48175537D01*
X18529112Y47879000D01*
X18544001Y47804148D01*
X18544000Y36397044D01*
X18269423Y36213577D01*
X18034000Y35861242D01*
X17798577Y36213577D01*
X17524000Y36397043D01*
X17524000Y47564199D01*
X18518473Y48558671D01*
X18581929Y48601071D01*
X18749904Y48852463D01*
X18790782Y49057972D01*
X19162667Y48984000D01*
X19162667Y48984000D01*
G37*
X19162667Y48984000D02*
X19334199Y48984000D01*
X18819528Y48469329D01*
X18756072Y48426929D01*
X18713672Y48363473D01*
X18713671Y48363472D01*
X18588097Y48175537D01*
X18529112Y47879000D01*
X18544001Y47804148D01*
X18544000Y36397044D01*
X18269423Y36213577D01*
X18034000Y35861242D01*
X17798577Y36213577D01*
X17524000Y36397043D01*
X17524000Y47564199D01*
X18518473Y48558671D01*
X18581929Y48601071D01*
X18749904Y48852463D01*
X18790782Y49057972D01*
X19162667Y48984000D01*
G36*
X13664091Y49067260D02*
X14082667Y48984000D01*
X14365333Y48984000D01*
X14734001Y49057333D01*
X14734000Y36540667D01*
X14365333Y36614000D01*
X14082667Y36614000D01*
X13664091Y36530740D01*
X13189423Y36213577D01*
X12954000Y35861242D01*
X12718577Y36213577D01*
X12444000Y36397043D01*
X12444000Y48199199D01*
X13438473Y49193671D01*
X13456688Y49205842D01*
X13664091Y49067260D01*
X13664091Y49067260D01*
G37*
X13664091Y49067260D02*
X14082667Y48984000D01*
X14365333Y48984000D01*
X14734001Y49057333D01*
X14734000Y36540667D01*
X14365333Y36614000D01*
X14082667Y36614000D01*
X13664091Y36530740D01*
X13189423Y36213577D01*
X12954000Y35861242D01*
X12718577Y36213577D01*
X12444000Y36397043D01*
X12444000Y48199199D01*
X13438473Y49193671D01*
X13456688Y49205842D01*
X13664091Y49067260D01*
G36*
X16622667Y48984000D02*
X16794199Y48984000D01*
X16279528Y48469329D01*
X16254000Y48452272D01*
X16254000Y49057332D01*
X16622667Y48984000D01*
X16622667Y48984000D01*
G37*
X16622667Y48984000D02*
X16794199Y48984000D01*
X16279528Y48469329D01*
X16254000Y48452272D01*
X16254000Y49057332D01*
X16622667Y48984000D01*
G36*
X26364091Y49067260D02*
X26379472Y49064201D01*
X26376072Y49061929D01*
X26333672Y48998473D01*
X26333671Y48998472D01*
X26261223Y48890045D01*
X26269001Y48929149D01*
X26269001Y48929153D01*
X26283889Y49004001D01*
X26269001Y49078849D01*
X26269001Y49130797D01*
X26364091Y49067260D01*
X26364091Y49067260D01*
G37*
X26364091Y49067260D02*
X26379472Y49064201D01*
X26376072Y49061929D01*
X26333672Y48998473D01*
X26333671Y48998472D01*
X26261223Y48890045D01*
X26269001Y48929149D01*
X26269001Y48929153D01*
X26283889Y49004001D01*
X26269001Y49078849D01*
X26269001Y49130797D01*
X26364091Y49067260D01*
G36*
X43669423Y53194423D02*
X43944000Y53010956D01*
X43944000Y52398847D01*
X43929112Y52324000D01*
X43944000Y52249153D01*
X43944000Y52249149D01*
X43988096Y52027464D01*
X44156071Y51776071D01*
X44159471Y51773799D01*
X44144091Y51770740D01*
X43789197Y51533607D01*
X42924000Y52398803D01*
X42924000Y53010957D01*
X43198577Y53194423D01*
X43434000Y53546758D01*
X43669423Y53194423D01*
X43669423Y53194423D01*
G37*
X43669423Y53194423D02*
X43944000Y53010956D01*
X43944000Y52398847D01*
X43929112Y52324000D01*
X43944000Y52249153D01*
X43944000Y52249149D01*
X43988096Y52027464D01*
X44156071Y51776071D01*
X44159471Y51773799D01*
X44144091Y51770740D01*
X43789197Y51533607D01*
X42924000Y52398803D01*
X42924000Y53010957D01*
X43198577Y53194423D01*
X43434000Y53546758D01*
X43669423Y53194423D01*
G36*
X28429423Y53194423D02*
X28704000Y53010956D01*
X28704000Y52398847D01*
X28689112Y52324000D01*
X28704000Y52249153D01*
X28704000Y52249149D01*
X28748096Y52027464D01*
X28916071Y51776071D01*
X28919471Y51773799D01*
X28904091Y51770740D01*
X28549197Y51533607D01*
X27684000Y52398803D01*
X27684000Y53010957D01*
X27958577Y53194423D01*
X28194000Y53546758D01*
X28429423Y53194423D01*
X28429423Y53194423D01*
G37*
X28429423Y53194423D02*
X28704000Y53010956D01*
X28704000Y52398847D01*
X28689112Y52324000D01*
X28704000Y52249153D01*
X28704000Y52249149D01*
X28748096Y52027464D01*
X28916071Y51776071D01*
X28919471Y51773799D01*
X28904091Y51770740D01*
X28549197Y51533607D01*
X27684000Y52398803D01*
X27684000Y53010957D01*
X27958577Y53194423D01*
X28194000Y53546758D01*
X28429423Y53194423D01*
G36*
X48749423Y53194423D02*
X49024000Y53010956D01*
X49024000Y52158849D01*
X49009112Y52084002D01*
X49024000Y52009155D01*
X49024000Y52009151D01*
X49068096Y51787466D01*
X49123971Y51703842D01*
X48869197Y51533607D01*
X48004000Y52398803D01*
X48004000Y53010957D01*
X48278577Y53194423D01*
X48514000Y53546758D01*
X48749423Y53194423D01*
X48749423Y53194423D01*
G37*
X48749423Y53194423D02*
X49024000Y53010956D01*
X49024000Y52158849D01*
X49009112Y52084002D01*
X49024000Y52009155D01*
X49024000Y52009151D01*
X49068096Y51787466D01*
X49123971Y51703842D01*
X48869197Y51533607D01*
X48004000Y52398803D01*
X48004000Y53010957D01*
X48278577Y53194423D01*
X48514000Y53546758D01*
X48749423Y53194423D01*
G36*
X33509423Y53194423D02*
X33784000Y53010956D01*
X33784000Y52398847D01*
X33769112Y52324000D01*
X33784000Y52249153D01*
X33784000Y52249149D01*
X33828096Y52027464D01*
X33996071Y51776071D01*
X33999471Y51773799D01*
X33984091Y51770740D01*
X33629197Y51533607D01*
X32764000Y52398803D01*
X32764000Y53010957D01*
X33038577Y53194423D01*
X33274000Y53546758D01*
X33509423Y53194423D01*
X33509423Y53194423D01*
G37*
X33509423Y53194423D02*
X33784000Y53010956D01*
X33784000Y52398847D01*
X33769112Y52324000D01*
X33784000Y52249153D01*
X33784000Y52249149D01*
X33828096Y52027464D01*
X33996071Y51776071D01*
X33999471Y51773799D01*
X33984091Y51770740D01*
X33629197Y51533607D01*
X32764000Y52398803D01*
X32764000Y53010957D01*
X33038577Y53194423D01*
X33274000Y53546758D01*
X33509423Y53194423D01*
G36*
X25889423Y53194423D02*
X26164000Y53010956D01*
X26164000Y52158849D01*
X26149112Y52084002D01*
X26164000Y52009155D01*
X26164000Y52009151D01*
X26208096Y51787466D01*
X26263971Y51703842D01*
X26140738Y51621501D01*
X26099330Y51683472D01*
X26056930Y51746928D01*
X25993474Y51789328D01*
X25144000Y52638801D01*
X25144000Y53010957D01*
X25418577Y53194423D01*
X25654000Y53546758D01*
X25889423Y53194423D01*
X25889423Y53194423D01*
G37*
X25889423Y53194423D02*
X26164000Y53010956D01*
X26164000Y52158849D01*
X26149112Y52084002D01*
X26164000Y52009155D01*
X26164000Y52009151D01*
X26208096Y51787466D01*
X26263971Y51703842D01*
X26140738Y51621501D01*
X26099330Y51683472D01*
X26056930Y51746928D01*
X25993474Y51789328D01*
X25144000Y52638801D01*
X25144000Y53010957D01*
X25418577Y53194423D01*
X25654000Y53546758D01*
X25889423Y53194423D01*
G36*
X41129423Y53194423D02*
X41404000Y53010956D01*
X41404000Y52158849D01*
X41389112Y52084002D01*
X41404000Y52009155D01*
X41404000Y52009151D01*
X41448096Y51787466D01*
X41503971Y51703842D01*
X41396688Y51632158D01*
X41378473Y51644329D01*
X40384000Y52638801D01*
X40384000Y53010957D01*
X40658577Y53194423D01*
X40894000Y53546758D01*
X41129423Y53194423D01*
X41129423Y53194423D01*
G37*
X41129423Y53194423D02*
X41404000Y53010956D01*
X41404000Y52158849D01*
X41389112Y52084002D01*
X41404000Y52009155D01*
X41404000Y52009151D01*
X41448096Y51787466D01*
X41503971Y51703842D01*
X41396688Y51632158D01*
X41378473Y51644329D01*
X40384000Y52638801D01*
X40384000Y53010957D01*
X40658577Y53194423D01*
X40894000Y53546758D01*
X41129423Y53194423D01*
G36*
X36049423Y53194423D02*
X36324000Y53010956D01*
X36324000Y52398847D01*
X36309112Y52324000D01*
X36324000Y52249153D01*
X36324000Y52249149D01*
X36368096Y52027464D01*
X36536071Y51776071D01*
X36539471Y51773799D01*
X36524091Y51770740D01*
X36316688Y51632158D01*
X36298473Y51644329D01*
X35304000Y52638801D01*
X35304000Y53010957D01*
X35578577Y53194423D01*
X35814000Y53546758D01*
X36049423Y53194423D01*
X36049423Y53194423D01*
G37*
X36049423Y53194423D02*
X36324000Y53010956D01*
X36324000Y52398847D01*
X36309112Y52324000D01*
X36324000Y52249153D01*
X36324000Y52249149D01*
X36368096Y52027464D01*
X36536071Y51776071D01*
X36539471Y51773799D01*
X36524091Y51770740D01*
X36316688Y51632158D01*
X36298473Y51644329D01*
X35304000Y52638801D01*
X35304000Y53010957D01*
X35578577Y53194423D01*
X35814000Y53546758D01*
X36049423Y53194423D01*
G36*
X30969423Y53194423D02*
X31244000Y53010956D01*
X31244000Y52158849D01*
X31229112Y52084002D01*
X31244000Y52009155D01*
X31244000Y52009151D01*
X31288096Y51787466D01*
X31343971Y51703842D01*
X31236688Y51632158D01*
X31218473Y51644329D01*
X30224000Y52638801D01*
X30224000Y53010957D01*
X30498577Y53194423D01*
X30734000Y53546758D01*
X30969423Y53194423D01*
X30969423Y53194423D01*
G37*
X30969423Y53194423D02*
X31244000Y53010956D01*
X31244000Y52158849D01*
X31229112Y52084002D01*
X31244000Y52009155D01*
X31244000Y52009151D01*
X31288096Y51787466D01*
X31343971Y51703842D01*
X31236688Y51632158D01*
X31218473Y51644329D01*
X30224000Y52638801D01*
X30224000Y53010957D01*
X30498577Y53194423D01*
X30734000Y53546758D01*
X30969423Y53194423D01*
G36*
X20809423Y53194423D02*
X21079981Y53013642D01*
X21069112Y52959000D01*
X21084000Y52884153D01*
X21084000Y52884149D01*
X21128096Y52662464D01*
X21296071Y52411071D01*
X21359530Y52368669D01*
X21874199Y51854000D01*
X21702667Y51854000D01*
X21284091Y51770740D01*
X21076688Y51632158D01*
X21058473Y51644329D01*
X20064000Y52638801D01*
X20064000Y53010957D01*
X20338577Y53194423D01*
X20574000Y53546758D01*
X20809423Y53194423D01*
X20809423Y53194423D01*
G37*
X20809423Y53194423D02*
X21079981Y53013642D01*
X21069112Y52959000D01*
X21084000Y52884153D01*
X21084000Y52884149D01*
X21128096Y52662464D01*
X21296071Y52411071D01*
X21359530Y52368669D01*
X21874199Y51854000D01*
X21702667Y51854000D01*
X21284091Y51770740D01*
X21076688Y51632158D01*
X21058473Y51644329D01*
X20064000Y52638801D01*
X20064000Y53010957D01*
X20338577Y53194423D01*
X20574000Y53546758D01*
X20809423Y53194423D01*
G36*
X18269423Y53194423D02*
X18544000Y53010956D01*
X18544000Y52398847D01*
X18529112Y52324000D01*
X18544000Y52249153D01*
X18544000Y52249149D01*
X18588096Y52027464D01*
X18756071Y51776071D01*
X18759471Y51773799D01*
X18744091Y51770740D01*
X18536688Y51632158D01*
X18518473Y51644329D01*
X17524000Y52638801D01*
X17524000Y53010957D01*
X17798577Y53194423D01*
X18034000Y53546758D01*
X18269423Y53194423D01*
X18269423Y53194423D01*
G37*
X18269423Y53194423D02*
X18544000Y53010956D01*
X18544000Y52398847D01*
X18529112Y52324000D01*
X18544000Y52249153D01*
X18544000Y52249149D01*
X18588096Y52027464D01*
X18756071Y51776071D01*
X18759471Y51773799D01*
X18744091Y51770740D01*
X18536688Y51632158D01*
X18518473Y51644329D01*
X17524000Y52638801D01*
X17524000Y53010957D01*
X17798577Y53194423D01*
X18034000Y53546758D01*
X18269423Y53194423D01*
G36*
X46209423Y53194423D02*
X46484000Y53010956D01*
X46484000Y52158849D01*
X46469112Y52084002D01*
X46484000Y52009155D01*
X46484000Y52009151D01*
X46528096Y51787466D01*
X46583971Y51703842D01*
X46476688Y51632158D01*
X46458473Y51644329D01*
X45464000Y52638801D01*
X45464000Y53010957D01*
X45738577Y53194423D01*
X45974000Y53546758D01*
X46209423Y53194423D01*
X46209423Y53194423D01*
G37*
X46209423Y53194423D02*
X46484000Y53010956D01*
X46484000Y52158849D01*
X46469112Y52084002D01*
X46484000Y52009155D01*
X46484000Y52009151D01*
X46528096Y51787466D01*
X46583971Y51703842D01*
X46476688Y51632158D01*
X46458473Y51644329D01*
X45464000Y52638801D01*
X45464000Y53010957D01*
X45738577Y53194423D01*
X45974000Y53546758D01*
X46209423Y53194423D01*
G36*
X38589423Y53194423D02*
X38864000Y53010956D01*
X38864000Y52398847D01*
X38849112Y52324000D01*
X38864000Y52249153D01*
X38864000Y52249149D01*
X38908096Y52027464D01*
X39076071Y51776071D01*
X39079471Y51773799D01*
X39064091Y51770740D01*
X38856688Y51632158D01*
X38838473Y51644329D01*
X37844000Y52638801D01*
X37844000Y53010957D01*
X38118577Y53194423D01*
X38354000Y53546758D01*
X38589423Y53194423D01*
X38589423Y53194423D01*
G37*
X38589423Y53194423D02*
X38864000Y53010956D01*
X38864000Y52398847D01*
X38849112Y52324000D01*
X38864000Y52249153D01*
X38864000Y52249149D01*
X38908096Y52027464D01*
X39076071Y51776071D01*
X39079471Y51773799D01*
X39064091Y51770740D01*
X38856688Y51632158D01*
X38838473Y51644329D01*
X37844000Y52638801D01*
X37844000Y53010957D01*
X38118577Y53194423D01*
X38354000Y53546758D01*
X38589423Y53194423D01*
G36*
X8584091Y52877260D02*
X9002667Y52794000D01*
X9285333Y52794000D01*
X9467886Y52830312D01*
X9654001Y52644197D01*
X9654001Y51780667D01*
X9285333Y51854000D01*
X9002667Y51854000D01*
X8584091Y51770740D01*
X8489001Y51707203D01*
X8489001Y52940797D01*
X8584091Y52877260D01*
X8584091Y52877260D01*
G37*
X8584091Y52877260D02*
X9002667Y52794000D01*
X9285333Y52794000D01*
X9467886Y52830312D01*
X9654001Y52644197D01*
X9654001Y51780667D01*
X9285333Y51854000D01*
X9002667Y51854000D01*
X8584091Y51770740D01*
X8489001Y51707203D01*
X8489001Y52940797D01*
X8584091Y52877260D01*
G36*
X4468999Y51756162D02*
X4463630Y51729171D01*
X4316000Y51876801D01*
X4316000Y52128289D01*
X4433431Y52245720D01*
X4468999Y52331589D01*
X4468999Y51756162D01*
X4468999Y51756162D01*
G37*
X4468999Y51756162D02*
X4463630Y51729171D01*
X4316000Y51876801D01*
X4316000Y52128289D01*
X4433431Y52245720D01*
X4468999Y52331589D01*
X4468999Y51756162D01*
G36*
X11542667Y52794000D02*
X11825333Y52794000D01*
X12007886Y52830312D01*
X12194001Y52644197D01*
X12194001Y51780667D01*
X11825333Y51854000D01*
X11542667Y51854000D01*
X11174000Y51780668D01*
X11174000Y52867332D01*
X11542667Y52794000D01*
X11542667Y52794000D01*
G37*
X11542667Y52794000D02*
X11825333Y52794000D01*
X12007886Y52830312D01*
X12194001Y52644197D01*
X12194001Y51780667D01*
X11825333Y51854000D01*
X11542667Y51854000D01*
X11174000Y51780668D01*
X11174000Y52867332D01*
X11542667Y52794000D01*
G36*
X6462667Y52794000D02*
X6745333Y52794000D01*
X6927886Y52830312D01*
X6969001Y52789197D01*
X6969001Y51809510D01*
X6745333Y51854000D01*
X6462667Y51854000D01*
X6427561Y51847017D01*
X6238999Y52035579D01*
X6238999Y52838490D01*
X6462667Y52794000D01*
X6462667Y52794000D01*
G37*
X6462667Y52794000D02*
X6745333Y52794000D01*
X6927886Y52830312D01*
X6969001Y52789197D01*
X6969001Y51809510D01*
X6745333Y51854000D01*
X6462667Y51854000D01*
X6427561Y51847017D01*
X6238999Y52035579D01*
X6238999Y52838490D01*
X6462667Y52794000D01*
G36*
X23349423Y53194423D02*
X23624000Y53010956D01*
X23624000Y52398847D01*
X23609112Y52324000D01*
X23620990Y52264283D01*
X23598473Y52279329D01*
X22761564Y53116237D01*
X22878577Y53194423D01*
X23114000Y53546758D01*
X23349423Y53194423D01*
X23349423Y53194423D01*
G37*
X23349423Y53194423D02*
X23624000Y53010956D01*
X23624000Y52398847D01*
X23609112Y52324000D01*
X23620990Y52264283D01*
X23598473Y52279329D01*
X22761564Y53116237D01*
X22878577Y53194423D01*
X23114000Y53546758D01*
X23349423Y53194423D01*
G36*
X13861617Y52837970D02*
X13734000Y52529874D01*
X13734000Y52365635D01*
X13714000Y52352272D01*
X13714000Y52867332D01*
X13861617Y52837970D01*
X13861617Y52837970D01*
G37*
X13861617Y52837970D02*
X13734000Y52529874D01*
X13734000Y52365635D01*
X13714000Y52352272D01*
X13714000Y52867332D01*
X13861617Y52837970D01*
G36*
X10649423Y68434423D02*
X11124091Y68117260D01*
X11542667Y68034000D01*
X11825333Y68034000D01*
X12049001Y68078490D01*
X12049001Y67147436D01*
X12034113Y67072589D01*
X12049001Y66997742D01*
X12049001Y66997738D01*
X12093097Y66776053D01*
X12261072Y66524660D01*
X12324531Y66482258D01*
X17892272Y60914516D01*
X17934670Y60851063D01*
X17998123Y60808665D01*
X17998126Y60808662D01*
X18186061Y60683088D01*
X18482598Y60624103D01*
X18557450Y60638992D01*
X44839209Y60638990D01*
X49814198Y55664000D01*
X49642667Y55664000D01*
X49224091Y55580740D01*
X48749423Y55263577D01*
X48514000Y54911242D01*
X48278577Y55263577D01*
X47803909Y55580740D01*
X47385333Y55664000D01*
X47102667Y55664000D01*
X46684091Y55580740D01*
X46209423Y55263577D01*
X45974000Y54911242D01*
X45738577Y55263577D01*
X45263909Y55580740D01*
X44845333Y55664000D01*
X44562667Y55664000D01*
X44144091Y55580740D01*
X43669423Y55263577D01*
X43434000Y54911242D01*
X43198577Y55263577D01*
X42723909Y55580740D01*
X42305333Y55664000D01*
X42022667Y55664000D01*
X41604091Y55580740D01*
X41129423Y55263577D01*
X40894000Y54911242D01*
X40658577Y55263577D01*
X40183909Y55580740D01*
X39765333Y55664000D01*
X39482667Y55664000D01*
X39064091Y55580740D01*
X38589423Y55263577D01*
X38354000Y54911242D01*
X38118577Y55263577D01*
X37643909Y55580740D01*
X37225333Y55664000D01*
X36942667Y55664000D01*
X36524091Y55580740D01*
X36049423Y55263577D01*
X35814000Y54911242D01*
X35578577Y55263577D01*
X35103909Y55580740D01*
X34685333Y55664000D01*
X34402667Y55664000D01*
X33984091Y55580740D01*
X33509423Y55263577D01*
X33274000Y54911242D01*
X33038577Y55263577D01*
X32563909Y55580740D01*
X32145333Y55664000D01*
X31862667Y55664000D01*
X31444091Y55580740D01*
X30969423Y55263577D01*
X30734000Y54911242D01*
X30498577Y55263577D01*
X30023909Y55580740D01*
X29605333Y55664000D01*
X29322667Y55664000D01*
X28904091Y55580740D01*
X28429423Y55263577D01*
X28194000Y54911242D01*
X27958577Y55263577D01*
X27483909Y55580740D01*
X27065333Y55664000D01*
X26782667Y55664000D01*
X26364091Y55580740D01*
X25889423Y55263577D01*
X25654000Y54911242D01*
X25418577Y55263577D01*
X24943909Y55580740D01*
X24525333Y55664000D01*
X24242667Y55664000D01*
X23824091Y55580740D01*
X23349423Y55263577D01*
X23114000Y54911242D01*
X22878577Y55263577D01*
X22403909Y55580740D01*
X21985333Y55664000D01*
X21702667Y55664000D01*
X21284091Y55580740D01*
X20809423Y55263577D01*
X20574000Y54911242D01*
X20338577Y55263577D01*
X19863909Y55580740D01*
X19445333Y55664000D01*
X19162667Y55664000D01*
X18744091Y55580740D01*
X18269423Y55263577D01*
X18034000Y54911242D01*
X17798577Y55263577D01*
X17323909Y55580740D01*
X16905333Y55664000D01*
X16622667Y55664000D01*
X16204091Y55580740D01*
X15729423Y55263577D01*
X15494000Y54911242D01*
X15258577Y55263577D01*
X14783909Y55580740D01*
X14365333Y55664000D01*
X14082667Y55664000D01*
X13664091Y55580740D01*
X13189423Y55263577D01*
X12954000Y54911242D01*
X12718577Y55263577D01*
X12243909Y55580740D01*
X11825333Y55664000D01*
X11542667Y55664000D01*
X11124091Y55580740D01*
X10649423Y55263577D01*
X10414000Y54911242D01*
X10178577Y55263577D01*
X9703909Y55580740D01*
X9285333Y55664000D01*
X9002667Y55664000D01*
X8584091Y55580740D01*
X8109423Y55263577D01*
X7874000Y54911242D01*
X7638577Y55263577D01*
X7163909Y55580740D01*
X6745333Y55664000D01*
X6462667Y55664000D01*
X6238999Y55619510D01*
X6238999Y67852421D01*
X6427561Y68040983D01*
X6462667Y68034000D01*
X6745333Y68034000D01*
X7163909Y68117260D01*
X7638577Y68434423D01*
X7874000Y68786758D01*
X8109423Y68434423D01*
X8584091Y68117260D01*
X9002667Y68034000D01*
X9285333Y68034000D01*
X9703909Y68117260D01*
X10178577Y68434423D01*
X10414000Y68786758D01*
X10649423Y68434423D01*
X10649423Y68434423D01*
G37*
X10649423Y68434423D02*
X11124091Y68117260D01*
X11542667Y68034000D01*
X11825333Y68034000D01*
X12049001Y68078490D01*
X12049001Y67147436D01*
X12034113Y67072589D01*
X12049001Y66997742D01*
X12049001Y66997738D01*
X12093097Y66776053D01*
X12261072Y66524660D01*
X12324531Y66482258D01*
X17892272Y60914516D01*
X17934670Y60851063D01*
X17998123Y60808665D01*
X17998126Y60808662D01*
X18186061Y60683088D01*
X18482598Y60624103D01*
X18557450Y60638992D01*
X44839209Y60638990D01*
X49814198Y55664000D01*
X49642667Y55664000D01*
X49224091Y55580740D01*
X48749423Y55263577D01*
X48514000Y54911242D01*
X48278577Y55263577D01*
X47803909Y55580740D01*
X47385333Y55664000D01*
X47102667Y55664000D01*
X46684091Y55580740D01*
X46209423Y55263577D01*
X45974000Y54911242D01*
X45738577Y55263577D01*
X45263909Y55580740D01*
X44845333Y55664000D01*
X44562667Y55664000D01*
X44144091Y55580740D01*
X43669423Y55263577D01*
X43434000Y54911242D01*
X43198577Y55263577D01*
X42723909Y55580740D01*
X42305333Y55664000D01*
X42022667Y55664000D01*
X41604091Y55580740D01*
X41129423Y55263577D01*
X40894000Y54911242D01*
X40658577Y55263577D01*
X40183909Y55580740D01*
X39765333Y55664000D01*
X39482667Y55664000D01*
X39064091Y55580740D01*
X38589423Y55263577D01*
X38354000Y54911242D01*
X38118577Y55263577D01*
X37643909Y55580740D01*
X37225333Y55664000D01*
X36942667Y55664000D01*
X36524091Y55580740D01*
X36049423Y55263577D01*
X35814000Y54911242D01*
X35578577Y55263577D01*
X35103909Y55580740D01*
X34685333Y55664000D01*
X34402667Y55664000D01*
X33984091Y55580740D01*
X33509423Y55263577D01*
X33274000Y54911242D01*
X33038577Y55263577D01*
X32563909Y55580740D01*
X32145333Y55664000D01*
X31862667Y55664000D01*
X31444091Y55580740D01*
X30969423Y55263577D01*
X30734000Y54911242D01*
X30498577Y55263577D01*
X30023909Y55580740D01*
X29605333Y55664000D01*
X29322667Y55664000D01*
X28904091Y55580740D01*
X28429423Y55263577D01*
X28194000Y54911242D01*
X27958577Y55263577D01*
X27483909Y55580740D01*
X27065333Y55664000D01*
X26782667Y55664000D01*
X26364091Y55580740D01*
X25889423Y55263577D01*
X25654000Y54911242D01*
X25418577Y55263577D01*
X24943909Y55580740D01*
X24525333Y55664000D01*
X24242667Y55664000D01*
X23824091Y55580740D01*
X23349423Y55263577D01*
X23114000Y54911242D01*
X22878577Y55263577D01*
X22403909Y55580740D01*
X21985333Y55664000D01*
X21702667Y55664000D01*
X21284091Y55580740D01*
X20809423Y55263577D01*
X20574000Y54911242D01*
X20338577Y55263577D01*
X19863909Y55580740D01*
X19445333Y55664000D01*
X19162667Y55664000D01*
X18744091Y55580740D01*
X18269423Y55263577D01*
X18034000Y54911242D01*
X17798577Y55263577D01*
X17323909Y55580740D01*
X16905333Y55664000D01*
X16622667Y55664000D01*
X16204091Y55580740D01*
X15729423Y55263577D01*
X15494000Y54911242D01*
X15258577Y55263577D01*
X14783909Y55580740D01*
X14365333Y55664000D01*
X14082667Y55664000D01*
X13664091Y55580740D01*
X13189423Y55263577D01*
X12954000Y54911242D01*
X12718577Y55263577D01*
X12243909Y55580740D01*
X11825333Y55664000D01*
X11542667Y55664000D01*
X11124091Y55580740D01*
X10649423Y55263577D01*
X10414000Y54911242D01*
X10178577Y55263577D01*
X9703909Y55580740D01*
X9285333Y55664000D01*
X9002667Y55664000D01*
X8584091Y55580740D01*
X8109423Y55263577D01*
X7874000Y54911242D01*
X7638577Y55263577D01*
X7163909Y55580740D01*
X6745333Y55664000D01*
X6462667Y55664000D01*
X6238999Y55619510D01*
X6238999Y67852421D01*
X6427561Y68040983D01*
X6462667Y68034000D01*
X6745333Y68034000D01*
X7163909Y68117260D01*
X7638577Y68434423D01*
X7874000Y68786758D01*
X8109423Y68434423D01*
X8584091Y68117260D01*
X9002667Y68034000D01*
X9285333Y68034000D01*
X9703909Y68117260D01*
X10178577Y68434423D01*
X10414000Y68786758D01*
X10649423Y68434423D01*
G36*
X53863333Y55286235D02*
X53829423Y55263577D01*
X53594000Y54911242D01*
X53358577Y55263577D01*
X52883909Y55580740D01*
X52465333Y55664000D01*
X52182667Y55664000D01*
X52000114Y55627688D01*
X46538801Y61089000D01*
X48060569Y61089000D01*
X53863333Y55286235D01*
X53863333Y55286235D01*
G37*
X53863333Y55286235D02*
X53829423Y55263577D01*
X53594000Y54911242D01*
X53358577Y55263577D01*
X52883909Y55580740D01*
X52465333Y55664000D01*
X52182667Y55664000D01*
X52000114Y55627688D01*
X46538801Y61089000D01*
X48060569Y61089000D01*
X53863333Y55286235D01*
G36*
X13664091Y68117260D02*
X14082667Y68034000D01*
X14365333Y68034000D01*
X14589001Y68078490D01*
X14589001Y66367390D01*
X13569001Y67387390D01*
X13569001Y68180797D01*
X13664091Y68117260D01*
X13664091Y68117260D01*
G37*
X13664091Y68117260D02*
X14082667Y68034000D01*
X14365333Y68034000D01*
X14589001Y68078490D01*
X14589001Y66367390D01*
X13569001Y67387390D01*
X13569001Y68180797D01*
X13664091Y68117260D01*
G36*
X18233375Y75383375D02*
X18544001Y75175822D01*
X18544000Y72323803D01*
X17087886Y70867688D01*
X16905333Y70904000D01*
X16622667Y70904000D01*
X16204091Y70820740D01*
X16109001Y70757203D01*
X16109001Y71444151D01*
X16123889Y71518999D01*
X16109001Y71593847D01*
X16109001Y71593851D01*
X16075074Y71764413D01*
X16080280Y71766569D01*
X16371431Y72057720D01*
X16529000Y72438126D01*
X16529000Y72604199D01*
X17248473Y73323671D01*
X17311929Y73366071D01*
X17479904Y73617463D01*
X17524000Y73839148D01*
X17524000Y73839152D01*
X17538888Y73913999D01*
X17524000Y73988846D01*
X17524000Y75175822D01*
X17834625Y75383375D01*
X18034000Y75681761D01*
X18233375Y75383375D01*
X18233375Y75383375D01*
G37*
X18233375Y75383375D02*
X18544001Y75175822D01*
X18544000Y72323803D01*
X17087886Y70867688D01*
X16905333Y70904000D01*
X16622667Y70904000D01*
X16204091Y70820740D01*
X16109001Y70757203D01*
X16109001Y71444151D01*
X16123889Y71518999D01*
X16109001Y71593847D01*
X16109001Y71593851D01*
X16075074Y71764413D01*
X16080280Y71766569D01*
X16371431Y72057720D01*
X16529000Y72438126D01*
X16529000Y72604199D01*
X17248473Y73323671D01*
X17311929Y73366071D01*
X17479904Y73617463D01*
X17524000Y73839148D01*
X17524000Y73839152D01*
X17538888Y73913999D01*
X17524000Y73988846D01*
X17524000Y75175822D01*
X17834625Y75383375D01*
X18034000Y75681761D01*
X18233375Y75383375D01*
G36*
X10613375Y75383375D02*
X11104582Y75055161D01*
X11537744Y74969000D01*
X11830256Y74969000D01*
X12049002Y75012511D01*
X12049001Y70859510D01*
X11825333Y70904000D01*
X11542667Y70904000D01*
X11360114Y70867688D01*
X9904000Y72323801D01*
X9904000Y75175822D01*
X10214625Y75383375D01*
X10414000Y75681761D01*
X10613375Y75383375D01*
X10613375Y75383375D01*
G37*
X10613375Y75383375D02*
X11104582Y75055161D01*
X11537744Y74969000D01*
X11830256Y74969000D01*
X12049002Y75012511D01*
X12049001Y70859510D01*
X11825333Y70904000D01*
X11542667Y70904000D01*
X11360114Y70867688D01*
X9904000Y72323801D01*
X9904000Y75175822D01*
X10214625Y75383375D01*
X10414000Y75681761D01*
X10613375Y75383375D01*
G36*
X33473375Y75383375D02*
X33784001Y75175822D01*
X33784000Y72323803D01*
X32327886Y70867688D01*
X32145333Y70904000D01*
X31973803Y70904000D01*
X32488476Y71418673D01*
X32551929Y71461071D01*
X32594327Y71524524D01*
X32594329Y71524526D01*
X32719903Y71712462D01*
X32719904Y71712463D01*
X32764000Y71934148D01*
X32764000Y71934152D01*
X32778888Y72008999D01*
X32764000Y72083846D01*
X32764000Y75175822D01*
X33074625Y75383375D01*
X33274000Y75681761D01*
X33473375Y75383375D01*
X33473375Y75383375D01*
G37*
X33473375Y75383375D02*
X33784001Y75175822D01*
X33784000Y72323803D01*
X32327886Y70867688D01*
X32145333Y70904000D01*
X31973803Y70904000D01*
X32488476Y71418673D01*
X32551929Y71461071D01*
X32594327Y71524524D01*
X32594329Y71524526D01*
X32719903Y71712462D01*
X32719904Y71712463D01*
X32764000Y71934148D01*
X32764000Y71934152D01*
X32778888Y72008999D01*
X32764000Y72083846D01*
X32764000Y75175822D01*
X33074625Y75383375D01*
X33274000Y75681761D01*
X33473375Y75383375D01*
G36*
X51253375Y75383375D02*
X51564001Y75175822D01*
X51564000Y72323803D01*
X50107886Y70867688D01*
X49925333Y70904000D01*
X49753803Y70904000D01*
X50268476Y71418673D01*
X50331929Y71461071D01*
X50374327Y71524524D01*
X50374329Y71524526D01*
X50499903Y71712462D01*
X50499904Y71712463D01*
X50544000Y71934148D01*
X50544000Y71934152D01*
X50558888Y72008999D01*
X50544000Y72083846D01*
X50544000Y75175822D01*
X50854625Y75383375D01*
X51054000Y75681761D01*
X51253375Y75383375D01*
X51253375Y75383375D01*
G37*
X51253375Y75383375D02*
X51564001Y75175822D01*
X51564000Y72323803D01*
X50107886Y70867688D01*
X49925333Y70904000D01*
X49753803Y70904000D01*
X50268476Y71418673D01*
X50331929Y71461071D01*
X50374327Y71524524D01*
X50374329Y71524526D01*
X50499903Y71712462D01*
X50499904Y71712463D01*
X50544000Y71934148D01*
X50544000Y71934152D01*
X50558888Y72008999D01*
X50544000Y72083846D01*
X50544000Y75175822D01*
X50854625Y75383375D01*
X51054000Y75681761D01*
X51253375Y75383375D01*
G36*
X30933375Y75383375D02*
X31244001Y75175822D01*
X31244000Y72323803D01*
X29787886Y70867688D01*
X29605333Y70904000D01*
X29433803Y70904000D01*
X29948476Y71418673D01*
X30011929Y71461071D01*
X30054327Y71524524D01*
X30054329Y71524526D01*
X30179903Y71712462D01*
X30179904Y71712463D01*
X30224000Y71934148D01*
X30224000Y71934152D01*
X30238888Y72008999D01*
X30224000Y72083846D01*
X30224000Y75175822D01*
X30534625Y75383375D01*
X30734000Y75681761D01*
X30933375Y75383375D01*
X30933375Y75383375D01*
G37*
X30933375Y75383375D02*
X31244001Y75175822D01*
X31244000Y72323803D01*
X29787886Y70867688D01*
X29605333Y70904000D01*
X29433803Y70904000D01*
X29948476Y71418673D01*
X30011929Y71461071D01*
X30054327Y71524524D01*
X30054329Y71524526D01*
X30179903Y71712462D01*
X30179904Y71712463D01*
X30224000Y71934148D01*
X30224000Y71934152D01*
X30238888Y72008999D01*
X30224000Y72083846D01*
X30224000Y75175822D01*
X30534625Y75383375D01*
X30734000Y75681761D01*
X30933375Y75383375D01*
G36*
X36013375Y75383375D02*
X36324001Y75175822D01*
X36324000Y72323803D01*
X34867886Y70867688D01*
X34685333Y70904000D01*
X34513803Y70904000D01*
X35028476Y71418673D01*
X35091929Y71461071D01*
X35134327Y71524524D01*
X35134329Y71524526D01*
X35259903Y71712462D01*
X35259904Y71712463D01*
X35304000Y71934148D01*
X35304000Y71934152D01*
X35318888Y72008999D01*
X35304000Y72083846D01*
X35304000Y75175822D01*
X35614625Y75383375D01*
X35814000Y75681761D01*
X36013375Y75383375D01*
X36013375Y75383375D01*
G37*
X36013375Y75383375D02*
X36324001Y75175822D01*
X36324000Y72323803D01*
X34867886Y70867688D01*
X34685333Y70904000D01*
X34513803Y70904000D01*
X35028476Y71418673D01*
X35091929Y71461071D01*
X35134327Y71524524D01*
X35134329Y71524526D01*
X35259903Y71712462D01*
X35259904Y71712463D01*
X35304000Y71934148D01*
X35304000Y71934152D01*
X35318888Y72008999D01*
X35304000Y72083846D01*
X35304000Y75175822D01*
X35614625Y75383375D01*
X35814000Y75681761D01*
X36013375Y75383375D01*
G36*
X38553375Y75383375D02*
X38864001Y75175822D01*
X38864000Y72323803D01*
X37407886Y70867688D01*
X37225333Y70904000D01*
X37053803Y70904000D01*
X37568476Y71418673D01*
X37631929Y71461071D01*
X37674327Y71524524D01*
X37674329Y71524526D01*
X37799903Y71712462D01*
X37799904Y71712463D01*
X37844000Y71934148D01*
X37844000Y71934152D01*
X37858888Y72008999D01*
X37844000Y72083846D01*
X37844000Y75175822D01*
X38154625Y75383375D01*
X38354000Y75681761D01*
X38553375Y75383375D01*
X38553375Y75383375D01*
G37*
X38553375Y75383375D02*
X38864001Y75175822D01*
X38864000Y72323803D01*
X37407886Y70867688D01*
X37225333Y70904000D01*
X37053803Y70904000D01*
X37568476Y71418673D01*
X37631929Y71461071D01*
X37674327Y71524524D01*
X37674329Y71524526D01*
X37799903Y71712462D01*
X37799904Y71712463D01*
X37844000Y71934148D01*
X37844000Y71934152D01*
X37858888Y72008999D01*
X37844000Y72083846D01*
X37844000Y75175822D01*
X38154625Y75383375D01*
X38354000Y75681761D01*
X38553375Y75383375D01*
G36*
X41093375Y75383375D02*
X41404001Y75175822D01*
X41404000Y72323803D01*
X39947886Y70867688D01*
X39765333Y70904000D01*
X39593803Y70904000D01*
X40108476Y71418673D01*
X40171929Y71461071D01*
X40214327Y71524524D01*
X40214329Y71524526D01*
X40339903Y71712462D01*
X40339904Y71712463D01*
X40384000Y71934148D01*
X40384000Y71934152D01*
X40398888Y72008999D01*
X40384000Y72083846D01*
X40384000Y75175822D01*
X40694625Y75383375D01*
X40894000Y75681761D01*
X41093375Y75383375D01*
X41093375Y75383375D01*
G37*
X41093375Y75383375D02*
X41404001Y75175822D01*
X41404000Y72323803D01*
X39947886Y70867688D01*
X39765333Y70904000D01*
X39593803Y70904000D01*
X40108476Y71418673D01*
X40171929Y71461071D01*
X40214327Y71524524D01*
X40214329Y71524526D01*
X40339903Y71712462D01*
X40339904Y71712463D01*
X40384000Y71934148D01*
X40384000Y71934152D01*
X40398888Y72008999D01*
X40384000Y72083846D01*
X40384000Y75175822D01*
X40694625Y75383375D01*
X40894000Y75681761D01*
X41093375Y75383375D01*
G36*
X43633375Y75383375D02*
X43944001Y75175822D01*
X43944000Y72323803D01*
X42487886Y70867688D01*
X42305333Y70904000D01*
X42133803Y70904000D01*
X42648476Y71418673D01*
X42711929Y71461071D01*
X42754327Y71524524D01*
X42754329Y71524526D01*
X42879903Y71712462D01*
X42879904Y71712463D01*
X42924000Y71934148D01*
X42924000Y71934152D01*
X42938888Y72008999D01*
X42924000Y72083846D01*
X42924000Y75175822D01*
X43234625Y75383375D01*
X43434000Y75681761D01*
X43633375Y75383375D01*
X43633375Y75383375D01*
G37*
X43633375Y75383375D02*
X43944001Y75175822D01*
X43944000Y72323803D01*
X42487886Y70867688D01*
X42305333Y70904000D01*
X42133803Y70904000D01*
X42648476Y71418673D01*
X42711929Y71461071D01*
X42754327Y71524524D01*
X42754329Y71524526D01*
X42879903Y71712462D01*
X42879904Y71712463D01*
X42924000Y71934148D01*
X42924000Y71934152D01*
X42938888Y72008999D01*
X42924000Y72083846D01*
X42924000Y75175822D01*
X43234625Y75383375D01*
X43434000Y75681761D01*
X43633375Y75383375D01*
G36*
X46173375Y75383375D02*
X46484001Y75175822D01*
X46484000Y72323803D01*
X45027886Y70867688D01*
X44845333Y70904000D01*
X44673803Y70904000D01*
X45188476Y71418673D01*
X45251929Y71461071D01*
X45294327Y71524524D01*
X45294329Y71524526D01*
X45419903Y71712462D01*
X45419904Y71712463D01*
X45464000Y71934148D01*
X45464000Y71934152D01*
X45478888Y72008999D01*
X45464000Y72083846D01*
X45464000Y75175822D01*
X45774625Y75383375D01*
X45974000Y75681761D01*
X46173375Y75383375D01*
X46173375Y75383375D01*
G37*
X46173375Y75383375D02*
X46484001Y75175822D01*
X46484000Y72323803D01*
X45027886Y70867688D01*
X44845333Y70904000D01*
X44673803Y70904000D01*
X45188476Y71418673D01*
X45251929Y71461071D01*
X45294327Y71524524D01*
X45294329Y71524526D01*
X45419903Y71712462D01*
X45419904Y71712463D01*
X45464000Y71934148D01*
X45464000Y71934152D01*
X45478888Y72008999D01*
X45464000Y72083846D01*
X45464000Y75175822D01*
X45774625Y75383375D01*
X45974000Y75681761D01*
X46173375Y75383375D01*
G36*
X48713375Y75383375D02*
X49024001Y75175822D01*
X49024000Y72323803D01*
X47567886Y70867688D01*
X47385333Y70904000D01*
X47213803Y70904000D01*
X47728476Y71418673D01*
X47791929Y71461071D01*
X47834327Y71524524D01*
X47834329Y71524526D01*
X47959903Y71712462D01*
X47959904Y71712463D01*
X48004000Y71934148D01*
X48004000Y71934152D01*
X48018888Y72008999D01*
X48004000Y72083846D01*
X48004000Y75175822D01*
X48314625Y75383375D01*
X48514000Y75681761D01*
X48713375Y75383375D01*
X48713375Y75383375D01*
G37*
X48713375Y75383375D02*
X49024001Y75175822D01*
X49024000Y72323803D01*
X47567886Y70867688D01*
X47385333Y70904000D01*
X47213803Y70904000D01*
X47728476Y71418673D01*
X47791929Y71461071D01*
X47834327Y71524524D01*
X47834329Y71524526D01*
X47959903Y71712462D01*
X47959904Y71712463D01*
X48004000Y71934148D01*
X48004000Y71934152D01*
X48018888Y72008999D01*
X48004000Y72083846D01*
X48004000Y75175822D01*
X48314625Y75383375D01*
X48514000Y75681761D01*
X48713375Y75383375D01*
G36*
X25853375Y75383375D02*
X26164001Y75175822D01*
X26164000Y72323803D01*
X24707886Y70867688D01*
X24525333Y70904000D01*
X24353803Y70904000D01*
X24868476Y71418673D01*
X24931929Y71461071D01*
X24974327Y71524524D01*
X24974329Y71524526D01*
X25099903Y71712462D01*
X25099904Y71712463D01*
X25144000Y71934148D01*
X25144000Y71934152D01*
X25158888Y72008999D01*
X25144000Y72083846D01*
X25144000Y75175822D01*
X25454625Y75383375D01*
X25654000Y75681761D01*
X25853375Y75383375D01*
X25853375Y75383375D01*
G37*
X25853375Y75383375D02*
X26164001Y75175822D01*
X26164000Y72323803D01*
X24707886Y70867688D01*
X24525333Y70904000D01*
X24353803Y70904000D01*
X24868476Y71418673D01*
X24931929Y71461071D01*
X24974327Y71524524D01*
X24974329Y71524526D01*
X25099903Y71712462D01*
X25099904Y71712463D01*
X25144000Y71934148D01*
X25144000Y71934152D01*
X25158888Y72008999D01*
X25144000Y72083846D01*
X25144000Y75175822D01*
X25454625Y75383375D01*
X25654000Y75681761D01*
X25853375Y75383375D01*
G36*
X23313375Y75383375D02*
X23624001Y75175822D01*
X23624000Y72323803D01*
X22167886Y70867688D01*
X21985333Y70904000D01*
X21813803Y70904000D01*
X22328476Y71418673D01*
X22391929Y71461071D01*
X22434327Y71524524D01*
X22434329Y71524526D01*
X22559903Y71712462D01*
X22559904Y71712463D01*
X22604000Y71934148D01*
X22604000Y71934152D01*
X22618888Y72008999D01*
X22604000Y72083846D01*
X22604000Y75175822D01*
X22914625Y75383375D01*
X23114000Y75681761D01*
X23313375Y75383375D01*
X23313375Y75383375D01*
G37*
X23313375Y75383375D02*
X23624001Y75175822D01*
X23624000Y72323803D01*
X22167886Y70867688D01*
X21985333Y70904000D01*
X21813803Y70904000D01*
X22328476Y71418673D01*
X22391929Y71461071D01*
X22434327Y71524524D01*
X22434329Y71524526D01*
X22559903Y71712462D01*
X22559904Y71712463D01*
X22604000Y71934148D01*
X22604000Y71934152D01*
X22618888Y72008999D01*
X22604000Y72083846D01*
X22604000Y75175822D01*
X22914625Y75383375D01*
X23114000Y75681761D01*
X23313375Y75383375D01*
G36*
X20773375Y75383375D02*
X21084001Y75175822D01*
X21084000Y72323803D01*
X19627886Y70867688D01*
X19445333Y70904000D01*
X19273803Y70904000D01*
X19788476Y71418673D01*
X19851929Y71461071D01*
X19894327Y71524524D01*
X19894329Y71524526D01*
X20019903Y71712462D01*
X20019904Y71712463D01*
X20064000Y71934148D01*
X20064000Y71934152D01*
X20078888Y72008999D01*
X20064000Y72083846D01*
X20064000Y75175822D01*
X20374625Y75383375D01*
X20574000Y75681761D01*
X20773375Y75383375D01*
X20773375Y75383375D01*
G37*
X20773375Y75383375D02*
X21084001Y75175822D01*
X21084000Y72323803D01*
X19627886Y70867688D01*
X19445333Y70904000D01*
X19273803Y70904000D01*
X19788476Y71418673D01*
X19851929Y71461071D01*
X19894327Y71524524D01*
X19894329Y71524526D01*
X20019903Y71712462D01*
X20019904Y71712463D01*
X20064000Y71934148D01*
X20064000Y71934152D01*
X20078888Y72008999D01*
X20064000Y72083846D01*
X20064000Y75175822D01*
X20374625Y75383375D01*
X20574000Y75681761D01*
X20773375Y75383375D01*
G36*
X8073375Y75383375D02*
X8384001Y75175822D01*
X8384000Y72083847D01*
X8369112Y72009000D01*
X8384000Y71934153D01*
X8384000Y71934149D01*
X8428096Y71712464D01*
X8596071Y71461071D01*
X8659530Y71418669D01*
X9174199Y70904000D01*
X9002667Y70904000D01*
X8820114Y70867688D01*
X7364000Y72323801D01*
X7364000Y75175822D01*
X7674625Y75383375D01*
X7874000Y75681761D01*
X8073375Y75383375D01*
X8073375Y75383375D01*
G37*
X8073375Y75383375D02*
X8384001Y75175822D01*
X8384000Y72083847D01*
X8369112Y72009000D01*
X8384000Y71934153D01*
X8384000Y71934149D01*
X8428096Y71712464D01*
X8596071Y71461071D01*
X8659530Y71418669D01*
X9174199Y70904000D01*
X9002667Y70904000D01*
X8820114Y70867688D01*
X7364000Y72323801D01*
X7364000Y75175822D01*
X7674625Y75383375D01*
X7874000Y75681761D01*
X8073375Y75383375D01*
G36*
X28393375Y75383375D02*
X28704001Y75175822D01*
X28704000Y72323803D01*
X27247886Y70867688D01*
X27065333Y70904000D01*
X26893803Y70904000D01*
X27408476Y71418673D01*
X27471929Y71461071D01*
X27514327Y71524524D01*
X27514329Y71524526D01*
X27639903Y71712462D01*
X27639904Y71712463D01*
X27684000Y71934148D01*
X27684000Y71934152D01*
X27698888Y72008999D01*
X27684000Y72083846D01*
X27684000Y75175822D01*
X27994625Y75383375D01*
X28194000Y75681761D01*
X28393375Y75383375D01*
X28393375Y75383375D01*
G37*
X28393375Y75383375D02*
X28704001Y75175822D01*
X28704000Y72323803D01*
X27247886Y70867688D01*
X27065333Y70904000D01*
X26893803Y70904000D01*
X27408476Y71418673D01*
X27471929Y71461071D01*
X27514327Y71524524D01*
X27514329Y71524526D01*
X27639903Y71712462D01*
X27639904Y71712463D01*
X27684000Y71934148D01*
X27684000Y71934152D01*
X27698888Y72008999D01*
X27684000Y72083846D01*
X27684000Y75175822D01*
X27994625Y75383375D01*
X28194000Y75681761D01*
X28393375Y75383375D01*
G36*
X53793375Y75383375D02*
X54104001Y75175822D01*
X54104000Y72323803D01*
X52647886Y70867688D01*
X52465333Y70904000D01*
X52293803Y70904000D01*
X52808476Y71418673D01*
X52871929Y71461071D01*
X52914327Y71524524D01*
X52914329Y71524526D01*
X53039903Y71712462D01*
X53039904Y71712463D01*
X53084000Y71934148D01*
X53084000Y71934152D01*
X53098888Y72008999D01*
X53084000Y72083846D01*
X53084000Y75175822D01*
X53394625Y75383375D01*
X53594000Y75681761D01*
X53793375Y75383375D01*
X53793375Y75383375D01*
G37*
X53793375Y75383375D02*
X54104001Y75175822D01*
X54104000Y72323803D01*
X52647886Y70867688D01*
X52465333Y70904000D01*
X52293803Y70904000D01*
X52808476Y71418673D01*
X52871929Y71461071D01*
X52914327Y71524524D01*
X52914329Y71524526D01*
X53039903Y71712462D01*
X53039904Y71712463D01*
X53084000Y71934148D01*
X53084000Y71934152D01*
X53098888Y72008999D01*
X53084000Y72083846D01*
X53084000Y75175822D01*
X53394625Y75383375D01*
X53594000Y75681761D01*
X53793375Y75383375D01*
G36*
X6634199Y70904000D02*
X6462667Y70904000D01*
X6427561Y70897017D01*
X6188999Y71135579D01*
X6188999Y71349200D01*
X6634199Y70904000D01*
X6634199Y70904000D01*
G37*
X6634199Y70904000D02*
X6462667Y70904000D01*
X6427561Y70897017D01*
X6188999Y71135579D01*
X6188999Y71349200D01*
X6634199Y70904000D01*
G36*
X13598481Y72212192D02*
X13569001Y72182712D01*
X13569001Y72256313D01*
X13598481Y72212192D01*
X13598481Y72212192D01*
G37*
X13598481Y72212192D02*
X13569001Y72182712D01*
X13569001Y72256313D01*
X13598481Y72212192D01*
G36*
X15693375Y75383375D02*
X16004000Y75175822D01*
X16004000Y74228802D01*
X15454199Y73679000D01*
X15288126Y73679000D01*
X14984000Y73553027D01*
X14984000Y75175822D01*
X15294625Y75383375D01*
X15494000Y75681761D01*
X15693375Y75383375D01*
X15693375Y75383375D01*
G37*
X15693375Y75383375D02*
X16004000Y75175822D01*
X16004000Y74228802D01*
X15454199Y73679000D01*
X15288126Y73679000D01*
X14984000Y73553027D01*
X14984000Y75175822D01*
X15294625Y75383375D01*
X15494000Y75681761D01*
X15693375Y75383375D01*
G36*
X56299777Y77529138D02*
X56345161Y77520111D01*
X56326917Y77507920D01*
X56136352Y77222719D01*
X55934625Y77524625D01*
X55916381Y77536816D01*
X55961765Y77545843D01*
X56118271Y77650418D01*
X56299777Y77529138D01*
X56299777Y77529138D01*
G37*
X56299777Y77529138D02*
X56345161Y77520111D01*
X56326917Y77507920D01*
X56136352Y77222719D01*
X55934625Y77524625D01*
X55916381Y77536816D01*
X55961765Y77545843D01*
X56118271Y77650418D01*
X56299777Y77529138D01*
G36*
X30933375Y77923375D02*
X31231761Y77724000D01*
X30933375Y77524625D01*
X30734000Y77226239D01*
X30534625Y77524625D01*
X30236239Y77724000D01*
X30534625Y77923375D01*
X30734000Y78221761D01*
X30933375Y77923375D01*
X30933375Y77923375D01*
G37*
X30933375Y77923375D02*
X31231761Y77724000D01*
X30933375Y77524625D01*
X30734000Y77226239D01*
X30534625Y77524625D01*
X30236239Y77724000D01*
X30534625Y77923375D01*
X30734000Y78221761D01*
X30933375Y77923375D01*
G36*
X23313375Y77923375D02*
X23611761Y77724000D01*
X23313375Y77524625D01*
X23114000Y77226239D01*
X22914625Y77524625D01*
X22616239Y77724000D01*
X22914625Y77923375D01*
X23114000Y78221761D01*
X23313375Y77923375D01*
X23313375Y77923375D01*
G37*
X23313375Y77923375D02*
X23611761Y77724000D01*
X23313375Y77524625D01*
X23114000Y77226239D01*
X22914625Y77524625D01*
X22616239Y77724000D01*
X22914625Y77923375D01*
X23114000Y78221761D01*
X23313375Y77923375D01*
G36*
X28393375Y77923375D02*
X28691761Y77724000D01*
X28393375Y77524625D01*
X28194000Y77226239D01*
X27994625Y77524625D01*
X27696239Y77724000D01*
X27994625Y77923375D01*
X28194000Y78221761D01*
X28393375Y77923375D01*
X28393375Y77923375D01*
G37*
X28393375Y77923375D02*
X28691761Y77724000D01*
X28393375Y77524625D01*
X28194000Y77226239D01*
X27994625Y77524625D01*
X27696239Y77724000D01*
X27994625Y77923375D01*
X28194000Y78221761D01*
X28393375Y77923375D01*
G36*
X8073375Y77923375D02*
X8371761Y77724000D01*
X8073375Y77524625D01*
X7874000Y77226239D01*
X7674625Y77524625D01*
X7376239Y77724000D01*
X7674625Y77923375D01*
X7874000Y78221761D01*
X8073375Y77923375D01*
X8073375Y77923375D01*
G37*
X8073375Y77923375D02*
X8371761Y77724000D01*
X8073375Y77524625D01*
X7874000Y77226239D01*
X7674625Y77524625D01*
X7376239Y77724000D01*
X7674625Y77923375D01*
X7874000Y78221761D01*
X8073375Y77923375D01*
G36*
X36013375Y77923375D02*
X36311761Y77724000D01*
X36013375Y77524625D01*
X35814000Y77226239D01*
X35614625Y77524625D01*
X35316239Y77724000D01*
X35614625Y77923375D01*
X35814000Y78221761D01*
X36013375Y77923375D01*
X36013375Y77923375D01*
G37*
X36013375Y77923375D02*
X36311761Y77724000D01*
X36013375Y77524625D01*
X35814000Y77226239D01*
X35614625Y77524625D01*
X35316239Y77724000D01*
X35614625Y77923375D01*
X35814000Y78221761D01*
X36013375Y77923375D01*
G36*
X38553375Y77923375D02*
X38851761Y77724000D01*
X38553375Y77524625D01*
X38354000Y77226239D01*
X38154625Y77524625D01*
X37856239Y77724000D01*
X38154625Y77923375D01*
X38354000Y78221761D01*
X38553375Y77923375D01*
X38553375Y77923375D01*
G37*
X38553375Y77923375D02*
X38851761Y77724000D01*
X38553375Y77524625D01*
X38354000Y77226239D01*
X38154625Y77524625D01*
X37856239Y77724000D01*
X38154625Y77923375D01*
X38354000Y78221761D01*
X38553375Y77923375D01*
G36*
X41093375Y77923375D02*
X41391761Y77724000D01*
X41093375Y77524625D01*
X40894000Y77226239D01*
X40694625Y77524625D01*
X40396239Y77724000D01*
X40694625Y77923375D01*
X40894000Y78221761D01*
X41093375Y77923375D01*
X41093375Y77923375D01*
G37*
X41093375Y77923375D02*
X41391761Y77724000D01*
X41093375Y77524625D01*
X40894000Y77226239D01*
X40694625Y77524625D01*
X40396239Y77724000D01*
X40694625Y77923375D01*
X40894000Y78221761D01*
X41093375Y77923375D01*
G36*
X43633375Y77923375D02*
X43931761Y77724000D01*
X43633375Y77524625D01*
X43434000Y77226239D01*
X43234625Y77524625D01*
X42936239Y77724000D01*
X43234625Y77923375D01*
X43434000Y78221761D01*
X43633375Y77923375D01*
X43633375Y77923375D01*
G37*
X43633375Y77923375D02*
X43931761Y77724000D01*
X43633375Y77524625D01*
X43434000Y77226239D01*
X43234625Y77524625D01*
X42936239Y77724000D01*
X43234625Y77923375D01*
X43434000Y78221761D01*
X43633375Y77923375D01*
G36*
X46173375Y77923375D02*
X46471761Y77724000D01*
X46173375Y77524625D01*
X45974000Y77226239D01*
X45774625Y77524625D01*
X45476239Y77724000D01*
X45774625Y77923375D01*
X45974000Y78221761D01*
X46173375Y77923375D01*
X46173375Y77923375D01*
G37*
X46173375Y77923375D02*
X46471761Y77724000D01*
X46173375Y77524625D01*
X45974000Y77226239D01*
X45774625Y77524625D01*
X45476239Y77724000D01*
X45774625Y77923375D01*
X45974000Y78221761D01*
X46173375Y77923375D01*
G36*
X20773375Y77923375D02*
X21071761Y77724000D01*
X20773375Y77524625D01*
X20574000Y77226239D01*
X20374625Y77524625D01*
X20076239Y77724000D01*
X20374625Y77923375D01*
X20574000Y78221761D01*
X20773375Y77923375D01*
X20773375Y77923375D01*
G37*
X20773375Y77923375D02*
X21071761Y77724000D01*
X20773375Y77524625D01*
X20574000Y77226239D01*
X20374625Y77524625D01*
X20076239Y77724000D01*
X20374625Y77923375D01*
X20574000Y78221761D01*
X20773375Y77923375D01*
G36*
X25853375Y77923375D02*
X26151761Y77724000D01*
X25853375Y77524625D01*
X25654000Y77226239D01*
X25454625Y77524625D01*
X25156239Y77724000D01*
X25454625Y77923375D01*
X25654000Y78221761D01*
X25853375Y77923375D01*
X25853375Y77923375D01*
G37*
X25853375Y77923375D02*
X26151761Y77724000D01*
X25853375Y77524625D01*
X25654000Y77226239D01*
X25454625Y77524625D01*
X25156239Y77724000D01*
X25454625Y77923375D01*
X25654000Y78221761D01*
X25853375Y77923375D01*
G36*
X48713375Y77923375D02*
X49011761Y77724000D01*
X48713375Y77524625D01*
X48514000Y77226239D01*
X48314625Y77524625D01*
X48016239Y77724000D01*
X48314625Y77923375D01*
X48514000Y78221761D01*
X48713375Y77923375D01*
X48713375Y77923375D01*
G37*
X48713375Y77923375D02*
X49011761Y77724000D01*
X48713375Y77524625D01*
X48514000Y77226239D01*
X48314625Y77524625D01*
X48016239Y77724000D01*
X48314625Y77923375D01*
X48514000Y78221761D01*
X48713375Y77923375D01*
G36*
X53415843Y77896235D02*
X53556191Y77686191D01*
X53766235Y77545843D01*
X53811619Y77536816D01*
X53793375Y77524625D01*
X53594000Y77226239D01*
X53394625Y77524625D01*
X53096239Y77724000D01*
X53394625Y77923375D01*
X53406816Y77941619D01*
X53415843Y77896235D01*
X53415843Y77896235D01*
G37*
X53415843Y77896235D02*
X53556191Y77686191D01*
X53766235Y77545843D01*
X53811619Y77536816D01*
X53793375Y77524625D01*
X53594000Y77226239D01*
X53394625Y77524625D01*
X53096239Y77724000D01*
X53394625Y77923375D01*
X53406816Y77941619D01*
X53415843Y77896235D01*
G36*
X51253375Y77923375D02*
X51551761Y77724000D01*
X51253375Y77524625D01*
X51054000Y77226239D01*
X50854625Y77524625D01*
X50556239Y77724000D01*
X50854625Y77923375D01*
X51054000Y78221761D01*
X51253375Y77923375D01*
X51253375Y77923375D01*
G37*
X51253375Y77923375D02*
X51551761Y77724000D01*
X51253375Y77524625D01*
X51054000Y77226239D01*
X50854625Y77524625D01*
X50556239Y77724000D01*
X50854625Y77923375D01*
X51054000Y78221761D01*
X51253375Y77923375D01*
G36*
X33473375Y77923375D02*
X33771761Y77724000D01*
X33473375Y77524625D01*
X33274000Y77226239D01*
X33074625Y77524625D01*
X32776239Y77724000D01*
X33074625Y77923375D01*
X33274000Y78221761D01*
X33473375Y77923375D01*
X33473375Y77923375D01*
G37*
X33473375Y77923375D02*
X33771761Y77724000D01*
X33473375Y77524625D01*
X33274000Y77226239D01*
X33074625Y77524625D01*
X32776239Y77724000D01*
X33074625Y77923375D01*
X33274000Y78221761D01*
X33473375Y77923375D01*
G36*
X10613375Y77923375D02*
X10911761Y77724000D01*
X10613375Y77524625D01*
X10414000Y77226239D01*
X10214625Y77524625D01*
X9916239Y77724000D01*
X10214625Y77923375D01*
X10414000Y78221761D01*
X10613375Y77923375D01*
X10613375Y77923375D01*
G37*
X10613375Y77923375D02*
X10911761Y77724000D01*
X10613375Y77524625D01*
X10414000Y77226239D01*
X10214625Y77524625D01*
X9916239Y77724000D01*
X10214625Y77923375D01*
X10414000Y78221761D01*
X10613375Y77923375D01*
G36*
X13153375Y77923375D02*
X13451761Y77724000D01*
X13153375Y77524625D01*
X12954000Y77226239D01*
X12754625Y77524625D01*
X12456239Y77724000D01*
X12754625Y77923375D01*
X12954000Y78221761D01*
X13153375Y77923375D01*
X13153375Y77923375D01*
G37*
X13153375Y77923375D02*
X13451761Y77724000D01*
X13153375Y77524625D01*
X12954000Y77226239D01*
X12754625Y77524625D01*
X12456239Y77724000D01*
X12754625Y77923375D01*
X12954000Y78221761D01*
X13153375Y77923375D01*
G36*
X15693375Y77923375D02*
X15991761Y77724000D01*
X15693375Y77524625D01*
X15494000Y77226239D01*
X15294625Y77524625D01*
X14996239Y77724000D01*
X15294625Y77923375D01*
X15494000Y78221761D01*
X15693375Y77923375D01*
X15693375Y77923375D01*
G37*
X15693375Y77923375D02*
X15991761Y77724000D01*
X15693375Y77524625D01*
X15494000Y77226239D01*
X15294625Y77524625D01*
X14996239Y77724000D01*
X15294625Y77923375D01*
X15494000Y78221761D01*
X15693375Y77923375D01*
G36*
X18233375Y77923375D02*
X18531761Y77724000D01*
X18233375Y77524625D01*
X18034000Y77226239D01*
X17834625Y77524625D01*
X17536239Y77724000D01*
X17834625Y77923375D01*
X18034000Y78221761D01*
X18233375Y77923375D01*
X18233375Y77923375D01*
G37*
X18233375Y77923375D02*
X18531761Y77724000D01*
X18233375Y77524625D01*
X18034000Y77226239D01*
X17834625Y77524625D01*
X17536239Y77724000D01*
X17834625Y77923375D01*
X18034000Y78221761D01*
X18233375Y77923375D01*
G36*
X30734000Y79766239D02*
X30568452Y80014000D01*
X30899548Y80014000D01*
X30734000Y79766239D01*
X30734000Y79766239D01*
G37*
X30734000Y79766239D02*
X30568452Y80014000D01*
X30899548Y80014000D01*
X30734000Y79766239D01*
G36*
X51054000Y79766239D02*
X50888452Y80014000D01*
X51219548Y80014000D01*
X51054000Y79766239D01*
X51054000Y79766239D01*
G37*
X51054000Y79766239D02*
X50888452Y80014000D01*
X51219548Y80014000D01*
X51054000Y79766239D01*
G36*
X48514000Y79766239D02*
X48348452Y80014000D01*
X48679548Y80014000D01*
X48514000Y79766239D01*
X48514000Y79766239D01*
G37*
X48514000Y79766239D02*
X48348452Y80014000D01*
X48679548Y80014000D01*
X48514000Y79766239D01*
G36*
X43434000Y79766239D02*
X43268452Y80014000D01*
X43599548Y80014000D01*
X43434000Y79766239D01*
X43434000Y79766239D01*
G37*
X43434000Y79766239D02*
X43268452Y80014000D01*
X43599548Y80014000D01*
X43434000Y79766239D01*
G36*
X40894000Y79766239D02*
X40728452Y80014000D01*
X41059548Y80014000D01*
X40894000Y79766239D01*
X40894000Y79766239D01*
G37*
X40894000Y79766239D02*
X40728452Y80014000D01*
X41059548Y80014000D01*
X40894000Y79766239D01*
G36*
X38354000Y79766239D02*
X38188452Y80014000D01*
X38519548Y80014000D01*
X38354000Y79766239D01*
X38354000Y79766239D01*
G37*
X38354000Y79766239D02*
X38188452Y80014000D01*
X38519548Y80014000D01*
X38354000Y79766239D01*
G36*
X35814000Y79766239D02*
X35648452Y80014000D01*
X35979548Y80014000D01*
X35814000Y79766239D01*
X35814000Y79766239D01*
G37*
X35814000Y79766239D02*
X35648452Y80014000D01*
X35979548Y80014000D01*
X35814000Y79766239D01*
G36*
X33274000Y79766239D02*
X33108452Y80014000D01*
X33439548Y80014000D01*
X33274000Y79766239D01*
X33274000Y79766239D01*
G37*
X33274000Y79766239D02*
X33108452Y80014000D01*
X33439548Y80014000D01*
X33274000Y79766239D01*
G36*
X7874000Y79766239D02*
X7708452Y80014000D01*
X8039548Y80014000D01*
X7874000Y79766239D01*
X7874000Y79766239D01*
G37*
X7874000Y79766239D02*
X7708452Y80014000D01*
X8039548Y80014000D01*
X7874000Y79766239D01*
G36*
X28194000Y79766239D02*
X28028452Y80014000D01*
X28359548Y80014000D01*
X28194000Y79766239D01*
X28194000Y79766239D01*
G37*
X28194000Y79766239D02*
X28028452Y80014000D01*
X28359548Y80014000D01*
X28194000Y79766239D01*
G36*
X25654000Y79766239D02*
X25488452Y80014000D01*
X25819548Y80014000D01*
X25654000Y79766239D01*
X25654000Y79766239D01*
G37*
X25654000Y79766239D02*
X25488452Y80014000D01*
X25819548Y80014000D01*
X25654000Y79766239D01*
G36*
X23114000Y79766239D02*
X22948452Y80014000D01*
X23279548Y80014000D01*
X23114000Y79766239D01*
X23114000Y79766239D01*
G37*
X23114000Y79766239D02*
X22948452Y80014000D01*
X23279548Y80014000D01*
X23114000Y79766239D01*
G36*
X20574000Y79766239D02*
X20408452Y80014000D01*
X20739548Y80014000D01*
X20574000Y79766239D01*
X20574000Y79766239D01*
G37*
X20574000Y79766239D02*
X20408452Y80014000D01*
X20739548Y80014000D01*
X20574000Y79766239D01*
G36*
X18034000Y79766239D02*
X17868452Y80014000D01*
X18199548Y80014000D01*
X18034000Y79766239D01*
X18034000Y79766239D01*
G37*
X18034000Y79766239D02*
X17868452Y80014000D01*
X18199548Y80014000D01*
X18034000Y79766239D01*
G36*
X15494000Y79766239D02*
X15328452Y80014000D01*
X15659548Y80014000D01*
X15494000Y79766239D01*
X15494000Y79766239D01*
G37*
X15494000Y79766239D02*
X15328452Y80014000D01*
X15659548Y80014000D01*
X15494000Y79766239D01*
G36*
X12954000Y79766239D02*
X12788452Y80014000D01*
X13119548Y80014000D01*
X12954000Y79766239D01*
X12954000Y79766239D01*
G37*
X12954000Y79766239D02*
X12788452Y80014000D01*
X13119548Y80014000D01*
X12954000Y79766239D01*
G36*
X10414000Y79766239D02*
X10248452Y80014000D01*
X10579548Y80014000D01*
X10414000Y79766239D01*
X10414000Y79766239D01*
G37*
X10414000Y79766239D02*
X10248452Y80014000D01*
X10579548Y80014000D01*
X10414000Y79766239D01*
G36*
X45974000Y79766239D02*
X45808452Y80014000D01*
X46139548Y80014000D01*
X45974000Y79766239D01*
X45974000Y79766239D01*
G37*
X45974000Y79766239D02*
X45808452Y80014000D01*
X46139548Y80014000D01*
X45974000Y79766239D01*
M02*
