%TF.GenerationSoftware,KiCad,Pcbnew,(5.0.0)*%
%TF.CreationDate,2018-09-17T10:05:30-07:00*%
%TF.ProjectId,6522,363532322E6B696361645F7063620000,0.1*%
%TF.SameCoordinates,PX6b302f8PY7fe6300*%
%TF.FileFunction,Legend,Top*%
%TF.FilePolarity,Positive*%
%FSLAX46Y46*%
G04 Gerber Fmt 4.6, Leading zero omitted, Abs format (unit mm)*
G04 Created by KiCad (PCBNEW (5.0.0)) date 09/17/18 10:05:30*
%MOMM*%
%LPD*%
G01*
G04 APERTURE LIST*
%ADD10C,0.400000*%
%ADD11C,0.120000*%
%ADD12C,0.150000*%
%ADD13C,0.010000*%
G04 APERTURE END LIST*
D10*
X61293333Y25608667D02*
X61293333Y26561048D01*
X61864761Y25418191D02*
X59864761Y26084858D01*
X61864761Y26751524D01*
X60531428Y27418191D02*
X62531428Y27418191D01*
X60626666Y27418191D02*
X60531428Y27608667D01*
X60531428Y27989620D01*
X60626666Y28180096D01*
X60721904Y28275334D01*
X60912380Y28370572D01*
X61483809Y28370572D01*
X61674285Y28275334D01*
X61769523Y28180096D01*
X61864761Y27989620D01*
X61864761Y27608667D01*
X61769523Y27418191D01*
X60531428Y29227715D02*
X62531428Y29227715D01*
X60626666Y29227715D02*
X60531428Y29418191D01*
X60531428Y29799143D01*
X60626666Y29989620D01*
X60721904Y30084858D01*
X60912380Y30180096D01*
X61483809Y30180096D01*
X61674285Y30084858D01*
X61769523Y29989620D01*
X61864761Y29799143D01*
X61864761Y29418191D01*
X61769523Y29227715D01*
X61864761Y31322953D02*
X61769523Y31132477D01*
X61579047Y31037239D01*
X59864761Y31037239D01*
X61769523Y32846762D02*
X61864761Y32656286D01*
X61864761Y32275334D01*
X61769523Y32084858D01*
X61579047Y31989620D01*
X60817142Y31989620D01*
X60626666Y32084858D01*
X60531428Y32275334D01*
X60531428Y32656286D01*
X60626666Y32846762D01*
X60817142Y32942000D01*
X61007619Y32942000D01*
X61198095Y31989620D01*
X61864761Y35322953D02*
X59864761Y35322953D01*
X61864761Y36275334D02*
X59864761Y36275334D01*
X61864761Y38751524D02*
X59864761Y38751524D01*
X59864761Y39227715D01*
X59960000Y39513429D01*
X60150476Y39703905D01*
X60340952Y39799143D01*
X60721904Y39894381D01*
X61007619Y39894381D01*
X61388571Y39799143D01*
X61579047Y39703905D01*
X61769523Y39513429D01*
X61864761Y39227715D01*
X61864761Y38751524D01*
X60531428Y41608667D02*
X61864761Y41608667D01*
X60531428Y40751524D02*
X61579047Y40751524D01*
X61769523Y40846762D01*
X61864761Y41037239D01*
X61864761Y41322953D01*
X61769523Y41513429D01*
X61674285Y41608667D01*
X61864761Y43418191D02*
X60817142Y43418191D01*
X60626666Y43322953D01*
X60531428Y43132477D01*
X60531428Y42751524D01*
X60626666Y42561048D01*
X61769523Y43418191D02*
X61864761Y43227715D01*
X61864761Y42751524D01*
X61769523Y42561048D01*
X61579047Y42465810D01*
X61388571Y42465810D01*
X61198095Y42561048D01*
X61102857Y42751524D01*
X61102857Y43227715D01*
X61007619Y43418191D01*
X61864761Y44656286D02*
X61769523Y44465810D01*
X61579047Y44370572D01*
X59864761Y44370572D01*
X59864761Y47799143D02*
X59864761Y47418191D01*
X59960000Y47227715D01*
X60055238Y47132477D01*
X60340952Y46942000D01*
X60721904Y46846762D01*
X61483809Y46846762D01*
X61674285Y46942000D01*
X61769523Y47037239D01*
X61864761Y47227715D01*
X61864761Y47608667D01*
X61769523Y47799143D01*
X61674285Y47894381D01*
X61483809Y47989620D01*
X61007619Y47989620D01*
X60817142Y47894381D01*
X60721904Y47799143D01*
X60626666Y47608667D01*
X60626666Y47227715D01*
X60721904Y47037239D01*
X60817142Y46942000D01*
X61007619Y46846762D01*
X59864761Y49799143D02*
X59864761Y48846762D01*
X60817142Y48751524D01*
X60721904Y48846762D01*
X60626666Y49037239D01*
X60626666Y49513429D01*
X60721904Y49703905D01*
X60817142Y49799143D01*
X61007619Y49894381D01*
X61483809Y49894381D01*
X61674285Y49799143D01*
X61769523Y49703905D01*
X61864761Y49513429D01*
X61864761Y49037239D01*
X61769523Y48846762D01*
X61674285Y48751524D01*
X60055238Y50656286D02*
X59960000Y50751524D01*
X59864761Y50942000D01*
X59864761Y51418191D01*
X59960000Y51608667D01*
X60055238Y51703905D01*
X60245714Y51799143D01*
X60436190Y51799143D01*
X60721904Y51703905D01*
X61864761Y50561048D01*
X61864761Y51799143D01*
X60055238Y52561048D02*
X59960000Y52656286D01*
X59864761Y52846762D01*
X59864761Y53322953D01*
X59960000Y53513429D01*
X60055238Y53608667D01*
X60245714Y53703905D01*
X60436190Y53703905D01*
X60721904Y53608667D01*
X61864761Y52465810D01*
X61864761Y53703905D01*
X59960000Y57132477D02*
X59864761Y56942000D01*
X59864761Y56656286D01*
X59960000Y56370572D01*
X60150476Y56180096D01*
X60340952Y56084858D01*
X60721904Y55989620D01*
X61007619Y55989620D01*
X61388571Y56084858D01*
X61579047Y56180096D01*
X61769523Y56370572D01*
X61864761Y56656286D01*
X61864761Y56846762D01*
X61769523Y57132477D01*
X61674285Y57227715D01*
X61007619Y57227715D01*
X61007619Y56846762D01*
X61864761Y58084858D02*
X59864761Y58084858D01*
X59864761Y58846762D01*
X59960000Y59037239D01*
X60055238Y59132477D01*
X60245714Y59227715D01*
X60531428Y59227715D01*
X60721904Y59132477D01*
X60817142Y59037239D01*
X60912380Y58846762D01*
X60912380Y58084858D01*
X61864761Y60084858D02*
X59864761Y60084858D01*
X59864761Y61418191D02*
X59864761Y61799143D01*
X59960000Y61989620D01*
X60150476Y62180096D01*
X60531428Y62275334D01*
X61198095Y62275334D01*
X61579047Y62180096D01*
X61769523Y61989620D01*
X61864761Y61799143D01*
X61864761Y61418191D01*
X61769523Y61227715D01*
X61579047Y61037239D01*
X61198095Y60942000D01*
X60531428Y60942000D01*
X60150476Y61037239D01*
X59960000Y61227715D01*
X59864761Y61418191D01*
D11*
X4258000Y80324000D02*
X4258000Y75124000D01*
X52578000Y80324000D02*
X4258000Y80324000D01*
X55178000Y75124000D02*
X4258000Y75124000D01*
X52578000Y80324000D02*
X52578000Y77724000D01*
X52578000Y77724000D02*
X55178000Y77724000D01*
X55178000Y77724000D02*
X55178000Y75124000D01*
X53848000Y80324000D02*
X55178000Y80324000D01*
X55178000Y80324000D02*
X55178000Y78994000D01*
X55178000Y60849000D02*
G75*
G02X55178000Y62849000I0J1000000D01*
G01*
X55178000Y62849000D02*
X55178000Y68309000D01*
X55178000Y68309000D02*
X4258000Y68309000D01*
X4258000Y68309000D02*
X4258000Y55389000D01*
X4258000Y55389000D02*
X55178000Y55389000D01*
X55178000Y55389000D02*
X55178000Y60849000D01*
X55051542Y80307295D02*
X55051542Y75107295D01*
X55111542Y80307295D02*
X55051542Y80307295D01*
X57711542Y75107295D02*
X55051542Y75107295D01*
X55111542Y80307295D02*
X55111542Y77707295D01*
X55111542Y77707295D02*
X57711542Y77707295D01*
X57711542Y77707295D02*
X57711542Y75107295D01*
X56381542Y80307295D02*
X57711542Y80307295D01*
X57711542Y80307295D02*
X57711542Y78977295D01*
X55178000Y36339000D02*
X55178000Y41799000D01*
X4258000Y36339000D02*
X55178000Y36339000D01*
X4258000Y49259000D02*
X4258000Y36339000D01*
X55178000Y49259000D02*
X4258000Y49259000D01*
X55178000Y43799000D02*
X55178000Y49259000D01*
X55178000Y41799000D02*
G75*
G02X55178000Y43799000I0J1000000D01*
G01*
D12*
X3585000Y18604000D02*
X3835000Y18604000D01*
X3585000Y26354000D02*
X3920000Y26354000D01*
X16735000Y26354000D02*
X16400000Y26354000D01*
X16735000Y18604000D02*
X16400000Y18604000D01*
X3585000Y18604000D02*
X3585000Y26354000D01*
X16735000Y18604000D02*
X16735000Y26354000D01*
X3835000Y18604000D02*
X3835000Y16804000D01*
X43048000Y20150000D02*
X43073000Y20150000D01*
X43048000Y24300000D02*
X43163000Y24300000D01*
X51948000Y24300000D02*
X51833000Y24300000D01*
X51948000Y20150000D02*
X51833000Y20150000D01*
X43048000Y20150000D02*
X43048000Y24300000D01*
X51948000Y20150000D02*
X51948000Y24300000D01*
X43073000Y20150000D02*
X43073000Y18775000D01*
X25928000Y20150000D02*
X25928000Y18775000D01*
X34803000Y20150000D02*
X34803000Y24300000D01*
X25903000Y20150000D02*
X25903000Y24300000D01*
X34803000Y20150000D02*
X34688000Y20150000D01*
X34803000Y24300000D02*
X34688000Y24300000D01*
X25903000Y24300000D02*
X26018000Y24300000D01*
X25903000Y20150000D02*
X25928000Y20150000D01*
D11*
X61511922Y10085000D02*
X62029078Y10085000D01*
X61511922Y11505000D02*
X62029078Y11505000D01*
X61511922Y13895000D02*
X62029078Y13895000D01*
X61511922Y15315000D02*
X62029078Y15315000D01*
X18998000Y22816078D02*
X18998000Y22298922D01*
X17578000Y22816078D02*
X17578000Y22298922D01*
X36628000Y22816078D02*
X36628000Y22298922D01*
X38048000Y22816078D02*
X38048000Y22298922D01*
X54558000Y22816078D02*
X54558000Y22298922D01*
X53138000Y22816078D02*
X53138000Y22298922D01*
X57584078Y51129000D02*
X57066922Y51129000D01*
X57584078Y49709000D02*
X57066922Y49709000D01*
X57584078Y68759000D02*
X57066922Y68759000D01*
X57584078Y70179000D02*
X57066922Y70179000D01*
X60266542Y77633373D02*
X60266542Y77116217D01*
X58846542Y77633373D02*
X58846542Y77116217D01*
D13*
G36*
X54086536Y16226573D02*
X54199118Y15629382D01*
X54614531Y15458135D01*
X55029945Y15286888D01*
X55528302Y15625767D01*
X55667869Y15720123D01*
X55794029Y15804370D01*
X55900896Y15874662D01*
X55982583Y15927153D01*
X56033202Y15957996D01*
X56046987Y15964647D01*
X56071821Y15947542D01*
X56124889Y15900256D01*
X56200241Y15828828D01*
X56291930Y15739300D01*
X56394008Y15637711D01*
X56500527Y15530102D01*
X56605537Y15422513D01*
X56703092Y15320985D01*
X56787243Y15231559D01*
X56852041Y15160274D01*
X56891538Y15113172D01*
X56900981Y15097408D01*
X56887392Y15068347D01*
X56849294Y15004679D01*
X56790694Y14912633D01*
X56715598Y14798436D01*
X56628009Y14668316D01*
X56577255Y14594099D01*
X56484746Y14458578D01*
X56402541Y14336284D01*
X56334631Y14233305D01*
X56285001Y14155727D01*
X56257641Y14109639D01*
X56253530Y14099953D01*
X56262850Y14072426D01*
X56288255Y14008272D01*
X56325912Y13916510D01*
X56371987Y13806161D01*
X56422647Y13686245D01*
X56474060Y13565781D01*
X56522390Y13453791D01*
X56563807Y13359293D01*
X56594475Y13291308D01*
X56610562Y13258857D01*
X56611512Y13257580D01*
X56636773Y13251383D01*
X56704046Y13237560D01*
X56806361Y13217468D01*
X56936742Y13192466D01*
X57088217Y13163914D01*
X57176594Y13147449D01*
X57338453Y13116631D01*
X57484650Y13087306D01*
X57607788Y13061079D01*
X57700470Y13039554D01*
X57755302Y13024335D01*
X57766324Y13019507D01*
X57777119Y12986826D01*
X57785830Y12913015D01*
X57792461Y12806708D01*
X57797019Y12676533D01*
X57799510Y12531124D01*
X57799939Y12379110D01*
X57798312Y12229123D01*
X57794636Y12089794D01*
X57788916Y11969755D01*
X57781158Y11877635D01*
X57771369Y11822068D01*
X57765497Y11810500D01*
X57730400Y11796635D01*
X57656029Y11776812D01*
X57552224Y11753361D01*
X57428820Y11728609D01*
X57385742Y11720602D01*
X57178048Y11682559D01*
X57013985Y11651921D01*
X56888131Y11627471D01*
X56795066Y11607991D01*
X56729368Y11592264D01*
X56685618Y11579072D01*
X56658393Y11567196D01*
X56642273Y11555420D01*
X56640018Y11553092D01*
X56617504Y11515600D01*
X56583159Y11442635D01*
X56540412Y11343133D01*
X56492693Y11226027D01*
X56443431Y11100252D01*
X56396056Y10974743D01*
X56353996Y10858435D01*
X56320681Y10760261D01*
X56299542Y10689157D01*
X56294006Y10654058D01*
X56294467Y10652828D01*
X56313224Y10624139D01*
X56355777Y10561015D01*
X56417654Y10470027D01*
X56494383Y10357745D01*
X56581492Y10230740D01*
X56606299Y10194647D01*
X56694753Y10063797D01*
X56772589Y9944409D01*
X56835567Y9843338D01*
X56879446Y9767441D01*
X56899986Y9723573D01*
X56900981Y9718183D01*
X56883723Y9689856D01*
X56836036Y9633739D01*
X56764051Y9555863D01*
X56673898Y9462260D01*
X56571706Y9358959D01*
X56463606Y9251994D01*
X56355729Y9147394D01*
X56254205Y9051191D01*
X56165163Y8969416D01*
X56094734Y8908100D01*
X56049048Y8873274D01*
X56036410Y8867588D01*
X56006992Y8880980D01*
X55946762Y8917101D01*
X55865530Y8969864D01*
X55803031Y9012333D01*
X55689786Y9090260D01*
X55555675Y9182016D01*
X55421156Y9273625D01*
X55348834Y9322654D01*
X55104039Y9488230D01*
X54898551Y9377125D01*
X54804937Y9328452D01*
X54725331Y9290619D01*
X54671468Y9269042D01*
X54657758Y9266039D01*
X54641271Y9288207D01*
X54608746Y9350851D01*
X54562609Y9448191D01*
X54505291Y9574451D01*
X54439217Y9723850D01*
X54366816Y9890612D01*
X54290517Y10068958D01*
X54212747Y10253109D01*
X54135935Y10437288D01*
X54062507Y10615715D01*
X53994893Y10782613D01*
X53935521Y10932203D01*
X53886817Y11058707D01*
X53851211Y11156346D01*
X53831131Y11219343D01*
X53827901Y11240979D01*
X53853497Y11268576D01*
X53909539Y11313375D01*
X53984312Y11366066D01*
X53990588Y11370235D01*
X54183846Y11524931D01*
X54339675Y11705409D01*
X54456725Y11905898D01*
X54533646Y12120626D01*
X54569087Y12343823D01*
X54561698Y12569719D01*
X54510128Y12792541D01*
X54413027Y13006521D01*
X54384459Y13053336D01*
X54235869Y13242382D01*
X54060328Y13394188D01*
X53863911Y13507966D01*
X53652694Y13582925D01*
X53432754Y13618278D01*
X53210164Y13613233D01*
X52991002Y13567001D01*
X52781343Y13478794D01*
X52587262Y13347821D01*
X52527227Y13294663D01*
X52374436Y13128261D01*
X52263098Y12953088D01*
X52186724Y12756734D01*
X52144188Y12562283D01*
X52133687Y12343658D01*
X52168701Y12123948D01*
X52245674Y11910580D01*
X52361048Y11710978D01*
X52511266Y11532571D01*
X52692774Y11382783D01*
X52716628Y11366994D01*
X52792202Y11315288D01*
X52849652Y11270488D01*
X52877118Y11241883D01*
X52877518Y11240979D01*
X52871621Y11210036D01*
X52848246Y11139809D01*
X52809822Y11036075D01*
X52758778Y10904610D01*
X52697543Y10751193D01*
X52628545Y10581599D01*
X52554214Y10401607D01*
X52476979Y10216992D01*
X52399269Y10033532D01*
X52323512Y9857004D01*
X52252138Y9693186D01*
X52187575Y9547853D01*
X52132253Y9426783D01*
X52088601Y9335753D01*
X52059047Y9280540D01*
X52047145Y9266039D01*
X52010778Y9277331D01*
X51942731Y9307615D01*
X51854737Y9351480D01*
X51806351Y9377125D01*
X51600864Y9488230D01*
X51356069Y9322654D01*
X51231107Y9237830D01*
X51094296Y9144484D01*
X50966089Y9056592D01*
X50901872Y9012333D01*
X50811552Y8951682D01*
X50735072Y8903619D01*
X50682408Y8874230D01*
X50665303Y8868018D01*
X50640406Y8884777D01*
X50585306Y8931564D01*
X50505344Y9003520D01*
X50405861Y9095788D01*
X50292201Y9203510D01*
X50220316Y9272674D01*
X50094552Y9396243D01*
X49985864Y9506766D01*
X49898646Y9599515D01*
X49837290Y9669763D01*
X49806192Y9712780D01*
X49803209Y9721510D01*
X49817054Y9754716D01*
X49855313Y9821858D01*
X49913742Y9916137D01*
X49988098Y10030755D01*
X50074136Y10158917D01*
X50098603Y10194647D01*
X50187755Y10324511D01*
X50267739Y10441431D01*
X50334081Y10538838D01*
X50382312Y10610161D01*
X50407958Y10648830D01*
X50410436Y10652828D01*
X50406730Y10683645D01*
X50387062Y10751401D01*
X50354861Y10847161D01*
X50313556Y10961991D01*
X50266576Y11086956D01*
X50217350Y11213121D01*
X50169309Y11331552D01*
X50125882Y11433315D01*
X50090497Y11509474D01*
X50066585Y11551096D01*
X50064885Y11553092D01*
X50050263Y11564987D01*
X50025566Y11576750D01*
X49985373Y11589599D01*
X49924264Y11604751D01*
X49836818Y11623424D01*
X49717613Y11646835D01*
X49561228Y11676203D01*
X49362244Y11712745D01*
X49319161Y11720602D01*
X49191471Y11745273D01*
X49080154Y11769407D01*
X48995046Y11790676D01*
X48945984Y11806752D01*
X48939406Y11810500D01*
X48928565Y11843727D01*
X48919754Y11917979D01*
X48912977Y12024624D01*
X48908241Y12155033D01*
X48905551Y12300573D01*
X48904914Y12452614D01*
X48906335Y12602524D01*
X48909821Y12741672D01*
X48915377Y12861428D01*
X48923009Y12953159D01*
X48932723Y13008234D01*
X48938579Y13019507D01*
X48971181Y13030877D01*
X49045419Y13049376D01*
X49153897Y13073398D01*
X49289218Y13101338D01*
X49443986Y13131592D01*
X49528308Y13147449D01*
X49688297Y13177356D01*
X49830968Y13204450D01*
X49949349Y13227369D01*
X50036466Y13244757D01*
X50085346Y13255253D01*
X50093391Y13257580D01*
X50106988Y13283814D01*
X50135730Y13347005D01*
X50175786Y13438123D01*
X50223325Y13548143D01*
X50274516Y13668035D01*
X50325527Y13788773D01*
X50372527Y13901329D01*
X50411685Y13996674D01*
X50439170Y14065783D01*
X50451150Y14099626D01*
X50451373Y14101105D01*
X50437792Y14127803D01*
X50399716Y14189240D01*
X50341148Y14279311D01*
X50266089Y14391910D01*
X50178541Y14520930D01*
X50127648Y14595039D01*
X50034910Y14730923D01*
X49952542Y14854291D01*
X49884562Y14958903D01*
X49834989Y15038517D01*
X49807843Y15086893D01*
X49803922Y15097738D01*
X49820776Y15122980D01*
X49867369Y15176876D01*
X49937749Y15253387D01*
X50025966Y15346477D01*
X50126066Y15450105D01*
X50232099Y15558236D01*
X50338112Y15664830D01*
X50438153Y15763850D01*
X50526271Y15849258D01*
X50596514Y15915015D01*
X50642929Y15955084D01*
X50658457Y15964647D01*
X50683740Y15951200D01*
X50744212Y15913425D01*
X50833993Y15855165D01*
X50947204Y15780266D01*
X51077964Y15692575D01*
X51176600Y15625767D01*
X51674958Y15286888D01*
X52090371Y15458135D01*
X52505785Y15629382D01*
X52618367Y16226573D01*
X52730950Y16823765D01*
X53973953Y16823765D01*
X54086536Y16226573D01*
X54086536Y16226573D01*
G37*
X54086536Y16226573D02*
X54199118Y15629382D01*
X54614531Y15458135D01*
X55029945Y15286888D01*
X55528302Y15625767D01*
X55667869Y15720123D01*
X55794029Y15804370D01*
X55900896Y15874662D01*
X55982583Y15927153D01*
X56033202Y15957996D01*
X56046987Y15964647D01*
X56071821Y15947542D01*
X56124889Y15900256D01*
X56200241Y15828828D01*
X56291930Y15739300D01*
X56394008Y15637711D01*
X56500527Y15530102D01*
X56605537Y15422513D01*
X56703092Y15320985D01*
X56787243Y15231559D01*
X56852041Y15160274D01*
X56891538Y15113172D01*
X56900981Y15097408D01*
X56887392Y15068347D01*
X56849294Y15004679D01*
X56790694Y14912633D01*
X56715598Y14798436D01*
X56628009Y14668316D01*
X56577255Y14594099D01*
X56484746Y14458578D01*
X56402541Y14336284D01*
X56334631Y14233305D01*
X56285001Y14155727D01*
X56257641Y14109639D01*
X56253530Y14099953D01*
X56262850Y14072426D01*
X56288255Y14008272D01*
X56325912Y13916510D01*
X56371987Y13806161D01*
X56422647Y13686245D01*
X56474060Y13565781D01*
X56522390Y13453791D01*
X56563807Y13359293D01*
X56594475Y13291308D01*
X56610562Y13258857D01*
X56611512Y13257580D01*
X56636773Y13251383D01*
X56704046Y13237560D01*
X56806361Y13217468D01*
X56936742Y13192466D01*
X57088217Y13163914D01*
X57176594Y13147449D01*
X57338453Y13116631D01*
X57484650Y13087306D01*
X57607788Y13061079D01*
X57700470Y13039554D01*
X57755302Y13024335D01*
X57766324Y13019507D01*
X57777119Y12986826D01*
X57785830Y12913015D01*
X57792461Y12806708D01*
X57797019Y12676533D01*
X57799510Y12531124D01*
X57799939Y12379110D01*
X57798312Y12229123D01*
X57794636Y12089794D01*
X57788916Y11969755D01*
X57781158Y11877635D01*
X57771369Y11822068D01*
X57765497Y11810500D01*
X57730400Y11796635D01*
X57656029Y11776812D01*
X57552224Y11753361D01*
X57428820Y11728609D01*
X57385742Y11720602D01*
X57178048Y11682559D01*
X57013985Y11651921D01*
X56888131Y11627471D01*
X56795066Y11607991D01*
X56729368Y11592264D01*
X56685618Y11579072D01*
X56658393Y11567196D01*
X56642273Y11555420D01*
X56640018Y11553092D01*
X56617504Y11515600D01*
X56583159Y11442635D01*
X56540412Y11343133D01*
X56492693Y11226027D01*
X56443431Y11100252D01*
X56396056Y10974743D01*
X56353996Y10858435D01*
X56320681Y10760261D01*
X56299542Y10689157D01*
X56294006Y10654058D01*
X56294467Y10652828D01*
X56313224Y10624139D01*
X56355777Y10561015D01*
X56417654Y10470027D01*
X56494383Y10357745D01*
X56581492Y10230740D01*
X56606299Y10194647D01*
X56694753Y10063797D01*
X56772589Y9944409D01*
X56835567Y9843338D01*
X56879446Y9767441D01*
X56899986Y9723573D01*
X56900981Y9718183D01*
X56883723Y9689856D01*
X56836036Y9633739D01*
X56764051Y9555863D01*
X56673898Y9462260D01*
X56571706Y9358959D01*
X56463606Y9251994D01*
X56355729Y9147394D01*
X56254205Y9051191D01*
X56165163Y8969416D01*
X56094734Y8908100D01*
X56049048Y8873274D01*
X56036410Y8867588D01*
X56006992Y8880980D01*
X55946762Y8917101D01*
X55865530Y8969864D01*
X55803031Y9012333D01*
X55689786Y9090260D01*
X55555675Y9182016D01*
X55421156Y9273625D01*
X55348834Y9322654D01*
X55104039Y9488230D01*
X54898551Y9377125D01*
X54804937Y9328452D01*
X54725331Y9290619D01*
X54671468Y9269042D01*
X54657758Y9266039D01*
X54641271Y9288207D01*
X54608746Y9350851D01*
X54562609Y9448191D01*
X54505291Y9574451D01*
X54439217Y9723850D01*
X54366816Y9890612D01*
X54290517Y10068958D01*
X54212747Y10253109D01*
X54135935Y10437288D01*
X54062507Y10615715D01*
X53994893Y10782613D01*
X53935521Y10932203D01*
X53886817Y11058707D01*
X53851211Y11156346D01*
X53831131Y11219343D01*
X53827901Y11240979D01*
X53853497Y11268576D01*
X53909539Y11313375D01*
X53984312Y11366066D01*
X53990588Y11370235D01*
X54183846Y11524931D01*
X54339675Y11705409D01*
X54456725Y11905898D01*
X54533646Y12120626D01*
X54569087Y12343823D01*
X54561698Y12569719D01*
X54510128Y12792541D01*
X54413027Y13006521D01*
X54384459Y13053336D01*
X54235869Y13242382D01*
X54060328Y13394188D01*
X53863911Y13507966D01*
X53652694Y13582925D01*
X53432754Y13618278D01*
X53210164Y13613233D01*
X52991002Y13567001D01*
X52781343Y13478794D01*
X52587262Y13347821D01*
X52527227Y13294663D01*
X52374436Y13128261D01*
X52263098Y12953088D01*
X52186724Y12756734D01*
X52144188Y12562283D01*
X52133687Y12343658D01*
X52168701Y12123948D01*
X52245674Y11910580D01*
X52361048Y11710978D01*
X52511266Y11532571D01*
X52692774Y11382783D01*
X52716628Y11366994D01*
X52792202Y11315288D01*
X52849652Y11270488D01*
X52877118Y11241883D01*
X52877518Y11240979D01*
X52871621Y11210036D01*
X52848246Y11139809D01*
X52809822Y11036075D01*
X52758778Y10904610D01*
X52697543Y10751193D01*
X52628545Y10581599D01*
X52554214Y10401607D01*
X52476979Y10216992D01*
X52399269Y10033532D01*
X52323512Y9857004D01*
X52252138Y9693186D01*
X52187575Y9547853D01*
X52132253Y9426783D01*
X52088601Y9335753D01*
X52059047Y9280540D01*
X52047145Y9266039D01*
X52010778Y9277331D01*
X51942731Y9307615D01*
X51854737Y9351480D01*
X51806351Y9377125D01*
X51600864Y9488230D01*
X51356069Y9322654D01*
X51231107Y9237830D01*
X51094296Y9144484D01*
X50966089Y9056592D01*
X50901872Y9012333D01*
X50811552Y8951682D01*
X50735072Y8903619D01*
X50682408Y8874230D01*
X50665303Y8868018D01*
X50640406Y8884777D01*
X50585306Y8931564D01*
X50505344Y9003520D01*
X50405861Y9095788D01*
X50292201Y9203510D01*
X50220316Y9272674D01*
X50094552Y9396243D01*
X49985864Y9506766D01*
X49898646Y9599515D01*
X49837290Y9669763D01*
X49806192Y9712780D01*
X49803209Y9721510D01*
X49817054Y9754716D01*
X49855313Y9821858D01*
X49913742Y9916137D01*
X49988098Y10030755D01*
X50074136Y10158917D01*
X50098603Y10194647D01*
X50187755Y10324511D01*
X50267739Y10441431D01*
X50334081Y10538838D01*
X50382312Y10610161D01*
X50407958Y10648830D01*
X50410436Y10652828D01*
X50406730Y10683645D01*
X50387062Y10751401D01*
X50354861Y10847161D01*
X50313556Y10961991D01*
X50266576Y11086956D01*
X50217350Y11213121D01*
X50169309Y11331552D01*
X50125882Y11433315D01*
X50090497Y11509474D01*
X50066585Y11551096D01*
X50064885Y11553092D01*
X50050263Y11564987D01*
X50025566Y11576750D01*
X49985373Y11589599D01*
X49924264Y11604751D01*
X49836818Y11623424D01*
X49717613Y11646835D01*
X49561228Y11676203D01*
X49362244Y11712745D01*
X49319161Y11720602D01*
X49191471Y11745273D01*
X49080154Y11769407D01*
X48995046Y11790676D01*
X48945984Y11806752D01*
X48939406Y11810500D01*
X48928565Y11843727D01*
X48919754Y11917979D01*
X48912977Y12024624D01*
X48908241Y12155033D01*
X48905551Y12300573D01*
X48904914Y12452614D01*
X48906335Y12602524D01*
X48909821Y12741672D01*
X48915377Y12861428D01*
X48923009Y12953159D01*
X48932723Y13008234D01*
X48938579Y13019507D01*
X48971181Y13030877D01*
X49045419Y13049376D01*
X49153897Y13073398D01*
X49289218Y13101338D01*
X49443986Y13131592D01*
X49528308Y13147449D01*
X49688297Y13177356D01*
X49830968Y13204450D01*
X49949349Y13227369D01*
X50036466Y13244757D01*
X50085346Y13255253D01*
X50093391Y13257580D01*
X50106988Y13283814D01*
X50135730Y13347005D01*
X50175786Y13438123D01*
X50223325Y13548143D01*
X50274516Y13668035D01*
X50325527Y13788773D01*
X50372527Y13901329D01*
X50411685Y13996674D01*
X50439170Y14065783D01*
X50451150Y14099626D01*
X50451373Y14101105D01*
X50437792Y14127803D01*
X50399716Y14189240D01*
X50341148Y14279311D01*
X50266089Y14391910D01*
X50178541Y14520930D01*
X50127648Y14595039D01*
X50034910Y14730923D01*
X49952542Y14854291D01*
X49884562Y14958903D01*
X49834989Y15038517D01*
X49807843Y15086893D01*
X49803922Y15097738D01*
X49820776Y15122980D01*
X49867369Y15176876D01*
X49937749Y15253387D01*
X50025966Y15346477D01*
X50126066Y15450105D01*
X50232099Y15558236D01*
X50338112Y15664830D01*
X50438153Y15763850D01*
X50526271Y15849258D01*
X50596514Y15915015D01*
X50642929Y15955084D01*
X50658457Y15964647D01*
X50683740Y15951200D01*
X50744212Y15913425D01*
X50833993Y15855165D01*
X50947204Y15780266D01*
X51077964Y15692575D01*
X51176600Y15625767D01*
X51674958Y15286888D01*
X52090371Y15458135D01*
X52505785Y15629382D01*
X52618367Y16226573D01*
X52730950Y16823765D01*
X53973953Y16823765D01*
X54086536Y16226573D01*
D11*
X3413000Y38064000D02*
X1413000Y38064000D01*
X1413000Y38064000D02*
X1413000Y34164000D01*
X3413000Y38064000D02*
X3413000Y34164000D01*
X3540000Y54828000D02*
X3540000Y50928000D01*
X1540000Y54828000D02*
X1540000Y50928000D01*
X3540000Y54828000D02*
X1540000Y54828000D01*
D12*
X53427380Y73453667D02*
X54141666Y73453667D01*
X54284523Y73406048D01*
X54379761Y73310810D01*
X54427380Y73167953D01*
X54427380Y73072715D01*
X54427380Y74453667D02*
X54427380Y73882239D01*
X54427380Y74167953D02*
X53427380Y74167953D01*
X53570238Y74072715D01*
X53665476Y73977477D01*
X53713095Y73882239D01*
X55630380Y61087096D02*
X56439904Y61087096D01*
X56535142Y61134715D01*
X56582761Y61182334D01*
X56630380Y61277572D01*
X56630380Y61468048D01*
X56582761Y61563286D01*
X56535142Y61610905D01*
X56439904Y61658524D01*
X55630380Y61658524D01*
X55630380Y62610905D02*
X55630380Y62134715D01*
X56106571Y62087096D01*
X56058952Y62134715D01*
X56011333Y62229953D01*
X56011333Y62468048D01*
X56058952Y62563286D01*
X56106571Y62610905D01*
X56201809Y62658524D01*
X56439904Y62658524D01*
X56535142Y62610905D01*
X56582761Y62563286D01*
X56630380Y62468048D01*
X56630380Y62229953D01*
X56582761Y62134715D01*
X56535142Y62087096D01*
X55967380Y73453667D02*
X56681666Y73453667D01*
X56824523Y73406048D01*
X56919761Y73310810D01*
X56967380Y73167953D01*
X56967380Y73072715D01*
X56062619Y73882239D02*
X56015000Y73929858D01*
X55967380Y74025096D01*
X55967380Y74263191D01*
X56015000Y74358429D01*
X56062619Y74406048D01*
X56157857Y74453667D01*
X56253095Y74453667D01*
X56395952Y74406048D01*
X56967380Y73834620D01*
X56967380Y74453667D01*
X55630380Y42037096D02*
X56439904Y42037096D01*
X56535142Y42084715D01*
X56582761Y42132334D01*
X56630380Y42227572D01*
X56630380Y42418048D01*
X56582761Y42513286D01*
X56535142Y42560905D01*
X56439904Y42608524D01*
X55630380Y42608524D01*
X55963714Y43513286D02*
X56630380Y43513286D01*
X55582761Y43275191D02*
X56297047Y43037096D01*
X56297047Y43656143D01*
X2112380Y21717096D02*
X2921904Y21717096D01*
X3017142Y21764715D01*
X3064761Y21812334D01*
X3112380Y21907572D01*
X3112380Y22098048D01*
X3064761Y22193286D01*
X3017142Y22240905D01*
X2921904Y22288524D01*
X2112380Y22288524D01*
X3112380Y23288524D02*
X3112380Y22717096D01*
X3112380Y23002810D02*
X2112380Y23002810D01*
X2255238Y22907572D01*
X2350476Y22812334D01*
X2398095Y22717096D01*
X41575380Y21463096D02*
X42384904Y21463096D01*
X42480142Y21510715D01*
X42527761Y21558334D01*
X42575380Y21653572D01*
X42575380Y21844048D01*
X42527761Y21939286D01*
X42480142Y21986905D01*
X42384904Y22034524D01*
X41575380Y22034524D01*
X41670619Y22463096D02*
X41623000Y22510715D01*
X41575380Y22605953D01*
X41575380Y22844048D01*
X41623000Y22939286D01*
X41670619Y22986905D01*
X41765857Y23034524D01*
X41861095Y23034524D01*
X42003952Y22986905D01*
X42575380Y22415477D01*
X42575380Y23034524D01*
X24430380Y21463096D02*
X25239904Y21463096D01*
X25335142Y21510715D01*
X25382761Y21558334D01*
X25430380Y21653572D01*
X25430380Y21844048D01*
X25382761Y21939286D01*
X25335142Y21986905D01*
X25239904Y22034524D01*
X24430380Y22034524D01*
X24430380Y22415477D02*
X24430380Y23034524D01*
X24811333Y22701191D01*
X24811333Y22844048D01*
X24858952Y22939286D01*
X24906571Y22986905D01*
X25001809Y23034524D01*
X25239904Y23034524D01*
X25335142Y22986905D01*
X25382761Y22939286D01*
X25430380Y22844048D01*
X25430380Y22558334D01*
X25382761Y22463096D01*
X25335142Y22415477D01*
X61603833Y12087858D02*
X61556214Y12040239D01*
X61413357Y11992620D01*
X61318119Y11992620D01*
X61175261Y12040239D01*
X61080023Y12135477D01*
X61032404Y12230715D01*
X60984785Y12421191D01*
X60984785Y12564048D01*
X61032404Y12754524D01*
X61080023Y12849762D01*
X61175261Y12945000D01*
X61318119Y12992620D01*
X61413357Y12992620D01*
X61556214Y12945000D01*
X61603833Y12897381D01*
X62556214Y11992620D02*
X61984785Y11992620D01*
X62270500Y11992620D02*
X62270500Y12992620D01*
X62175261Y12849762D01*
X62080023Y12754524D01*
X61984785Y12706905D01*
X61603833Y15897858D02*
X61556214Y15850239D01*
X61413357Y15802620D01*
X61318119Y15802620D01*
X61175261Y15850239D01*
X61080023Y15945477D01*
X61032404Y16040715D01*
X60984785Y16231191D01*
X60984785Y16374048D01*
X61032404Y16564524D01*
X61080023Y16659762D01*
X61175261Y16755000D01*
X61318119Y16802620D01*
X61413357Y16802620D01*
X61556214Y16755000D01*
X61603833Y16707381D01*
X61984785Y16707381D02*
X62032404Y16755000D01*
X62127642Y16802620D01*
X62365738Y16802620D01*
X62460976Y16755000D01*
X62508595Y16707381D01*
X62556214Y16612143D01*
X62556214Y16516905D01*
X62508595Y16374048D01*
X61937166Y15802620D01*
X62556214Y15802620D01*
X20295142Y22390834D02*
X20342761Y22343215D01*
X20390380Y22200358D01*
X20390380Y22105120D01*
X20342761Y21962262D01*
X20247523Y21867024D01*
X20152285Y21819405D01*
X19961809Y21771786D01*
X19818952Y21771786D01*
X19628476Y21819405D01*
X19533238Y21867024D01*
X19438000Y21962262D01*
X19390380Y22105120D01*
X19390380Y22200358D01*
X19438000Y22343215D01*
X19485619Y22390834D01*
X19390380Y22724167D02*
X19390380Y23343215D01*
X19771333Y23009881D01*
X19771333Y23152739D01*
X19818952Y23247977D01*
X19866571Y23295596D01*
X19961809Y23343215D01*
X20199904Y23343215D01*
X20295142Y23295596D01*
X20342761Y23247977D01*
X20390380Y23152739D01*
X20390380Y22867024D01*
X20342761Y22771786D01*
X20295142Y22724167D01*
X39345142Y22390834D02*
X39392761Y22343215D01*
X39440380Y22200358D01*
X39440380Y22105120D01*
X39392761Y21962262D01*
X39297523Y21867024D01*
X39202285Y21819405D01*
X39011809Y21771786D01*
X38868952Y21771786D01*
X38678476Y21819405D01*
X38583238Y21867024D01*
X38488000Y21962262D01*
X38440380Y22105120D01*
X38440380Y22200358D01*
X38488000Y22343215D01*
X38535619Y22390834D01*
X38773714Y23247977D02*
X39440380Y23247977D01*
X38392761Y23009881D02*
X39107047Y22771786D01*
X39107047Y23390834D01*
X55855142Y22390834D02*
X55902761Y22343215D01*
X55950380Y22200358D01*
X55950380Y22105120D01*
X55902761Y21962262D01*
X55807523Y21867024D01*
X55712285Y21819405D01*
X55521809Y21771786D01*
X55378952Y21771786D01*
X55188476Y21819405D01*
X55093238Y21867024D01*
X54998000Y21962262D01*
X54950380Y22105120D01*
X54950380Y22200358D01*
X54998000Y22343215D01*
X55045619Y22390834D01*
X54950380Y23295596D02*
X54950380Y22819405D01*
X55426571Y22771786D01*
X55378952Y22819405D01*
X55331333Y22914643D01*
X55331333Y23152739D01*
X55378952Y23247977D01*
X55426571Y23295596D01*
X55521809Y23343215D01*
X55759904Y23343215D01*
X55855142Y23295596D01*
X55902761Y23247977D01*
X55950380Y23152739D01*
X55950380Y22914643D01*
X55902761Y22819405D01*
X55855142Y22771786D01*
X57158833Y48411858D02*
X57111214Y48364239D01*
X56968357Y48316620D01*
X56873119Y48316620D01*
X56730261Y48364239D01*
X56635023Y48459477D01*
X56587404Y48554715D01*
X56539785Y48745191D01*
X56539785Y48888048D01*
X56587404Y49078524D01*
X56635023Y49173762D01*
X56730261Y49269000D01*
X56873119Y49316620D01*
X56968357Y49316620D01*
X57111214Y49269000D01*
X57158833Y49221381D01*
X58015976Y49316620D02*
X57825500Y49316620D01*
X57730261Y49269000D01*
X57682642Y49221381D01*
X57587404Y49078524D01*
X57539785Y48888048D01*
X57539785Y48507096D01*
X57587404Y48411858D01*
X57635023Y48364239D01*
X57730261Y48316620D01*
X57920738Y48316620D01*
X58015976Y48364239D01*
X58063595Y48411858D01*
X58111214Y48507096D01*
X58111214Y48745191D01*
X58063595Y48840429D01*
X58015976Y48888048D01*
X57920738Y48935667D01*
X57730261Y48935667D01*
X57635023Y48888048D01*
X57587404Y48840429D01*
X57539785Y48745191D01*
X57158833Y67461858D02*
X57111214Y67414239D01*
X56968357Y67366620D01*
X56873119Y67366620D01*
X56730261Y67414239D01*
X56635023Y67509477D01*
X56587404Y67604715D01*
X56539785Y67795191D01*
X56539785Y67938048D01*
X56587404Y68128524D01*
X56635023Y68223762D01*
X56730261Y68319000D01*
X56873119Y68366620D01*
X56968357Y68366620D01*
X57111214Y68319000D01*
X57158833Y68271381D01*
X57492166Y68366620D02*
X58158833Y68366620D01*
X57730261Y67366620D01*
X61563684Y77208129D02*
X61611303Y77160510D01*
X61658922Y77017653D01*
X61658922Y76922415D01*
X61611303Y76779557D01*
X61516065Y76684319D01*
X61420827Y76636700D01*
X61230351Y76589081D01*
X61087494Y76589081D01*
X60897018Y76636700D01*
X60801780Y76684319D01*
X60706542Y76779557D01*
X60658922Y76922415D01*
X60658922Y77017653D01*
X60706542Y77160510D01*
X60754161Y77208129D01*
X61087494Y77779557D02*
X61039875Y77684319D01*
X60992256Y77636700D01*
X60897018Y77589081D01*
X60849399Y77589081D01*
X60754161Y77636700D01*
X60706542Y77684319D01*
X60658922Y77779557D01*
X60658922Y77970034D01*
X60706542Y78065272D01*
X60754161Y78112891D01*
X60849399Y78160510D01*
X60897018Y78160510D01*
X60992256Y78112891D01*
X61039875Y78065272D01*
X61087494Y77970034D01*
X61087494Y77779557D01*
X61135113Y77684319D01*
X61182732Y77636700D01*
X61277970Y77589081D01*
X61468446Y77589081D01*
X61563684Y77636700D01*
X61611303Y77684319D01*
X61658922Y77779557D01*
X61658922Y77970034D01*
X61611303Y78065272D01*
X61563684Y78112891D01*
X61468446Y78160510D01*
X61277970Y78160510D01*
X61182732Y78112891D01*
X61135113Y78065272D01*
X61087494Y77970034D01*
X2865380Y38631905D02*
X1865380Y38631905D01*
X1865380Y38870000D01*
X1913000Y39012858D01*
X2008238Y39108096D01*
X2103476Y39155715D01*
X2293952Y39203334D01*
X2436809Y39203334D01*
X2627285Y39155715D01*
X2722523Y39108096D01*
X2817761Y39012858D01*
X2865380Y38870000D01*
X2865380Y38631905D01*
X2865380Y40155715D02*
X2865380Y39584286D01*
X2865380Y39870000D02*
X1865380Y39870000D01*
X2008238Y39774762D01*
X2103476Y39679524D01*
X2151095Y39584286D01*
X3119380Y55268905D02*
X2119380Y55268905D01*
X2119380Y55507000D01*
X2167000Y55649858D01*
X2262238Y55745096D01*
X2357476Y55792715D01*
X2547952Y55840334D01*
X2690809Y55840334D01*
X2881285Y55792715D01*
X2976523Y55745096D01*
X3071761Y55649858D01*
X3119380Y55507000D01*
X3119380Y55268905D01*
X2214619Y56221286D02*
X2167000Y56268905D01*
X2119380Y56364143D01*
X2119380Y56602239D01*
X2167000Y56697477D01*
X2214619Y56745096D01*
X2309857Y56792715D01*
X2405095Y56792715D01*
X2547952Y56745096D01*
X3119380Y56173667D01*
X3119380Y56792715D01*
M02*
