%TF.GenerationSoftware,KiCad,Pcbnew,(5.0.0)*%
%TF.CreationDate,2018-09-18T07:55:34-07:00*%
%TF.ProjectId,6522,363532322E6B696361645F7063620000,0.1*%
%TF.SameCoordinates,PX6a38238PY7fe6300*%
%TF.FileFunction,Copper,L1,Top,Signal*%
%TF.FilePolarity,Positive*%
%FSLAX46Y46*%
G04 Gerber Fmt 4.6, Leading zero omitted, Abs format (unit mm)*
G04 Created by KiCad (PCBNEW (5.0.0)) date 09/18/18 07:55:34*
%MOMM*%
%LPD*%
G01*
G04 APERTURE LIST*
%ADD10C,0.400000*%
%ADD11R,1.524000X6.350000*%
%ADD12R,1.700000X1.700000*%
%ADD13O,1.700000X1.700000*%
%ADD14R,1.600000X1.600000*%
%ADD15O,1.600000X1.600000*%
%ADD16R,0.600000X1.950000*%
%ADD17R,0.600000X1.500000*%
%ADD18C,0.100000*%
%ADD19C,0.975000*%
%ADD20R,1.200000X0.900000*%
%ADD21C,0.800000*%
%ADD22C,0.250000*%
%ADD23C,0.500000*%
%ADD24C,0.254000*%
G04 APERTURE END LIST*
D10*
X4365523Y58484858D02*
X4460761Y58675334D01*
X4460761Y59056286D01*
X4365523Y59246762D01*
X4175047Y59342000D01*
X4079809Y59342000D01*
X3889333Y59246762D01*
X3794095Y59056286D01*
X3794095Y58770572D01*
X3698857Y58580096D01*
X3508380Y58484858D01*
X3413142Y58484858D01*
X3222666Y58580096D01*
X3127428Y58770572D01*
X3127428Y59056286D01*
X3222666Y59246762D01*
X4365523Y61056286D02*
X4460761Y60865810D01*
X4460761Y60484858D01*
X4365523Y60294381D01*
X4270285Y60199143D01*
X4079809Y60103905D01*
X3508380Y60103905D01*
X3317904Y60199143D01*
X3222666Y60294381D01*
X3127428Y60484858D01*
X3127428Y60865810D01*
X3222666Y61056286D01*
X4460761Y62199143D02*
X4365523Y62008667D01*
X4270285Y61913429D01*
X4079809Y61818191D01*
X3508380Y61818191D01*
X3317904Y61913429D01*
X3222666Y62008667D01*
X3127428Y62199143D01*
X3127428Y62484858D01*
X3222666Y62675334D01*
X3317904Y62770572D01*
X3508380Y62865810D01*
X4079809Y62865810D01*
X4270285Y62770572D01*
X4365523Y62675334D01*
X4460761Y62484858D01*
X4460761Y62199143D01*
X3127428Y63437239D02*
X3127428Y64199143D01*
X2460761Y63722953D02*
X4175047Y63722953D01*
X4365523Y63818191D01*
X4460761Y64008667D01*
X4460761Y64199143D01*
X3127428Y64580096D02*
X3127428Y65342000D01*
X2460761Y64865810D02*
X4175047Y64865810D01*
X4365523Y64961048D01*
X4460761Y65151524D01*
X4460761Y65342000D01*
X3508380Y67246762D02*
X3413142Y67151524D01*
X3317904Y66961048D01*
X3317904Y66770572D01*
X3413142Y66580096D01*
X3508380Y66484858D01*
X3698857Y66389620D01*
X3889333Y66389620D01*
X4079809Y66484858D01*
X4175047Y66580096D01*
X4270285Y66770572D01*
X4270285Y66961048D01*
X4175047Y67151524D01*
X4079809Y67246762D01*
X3317904Y67246762D02*
X4079809Y67246762D01*
X4175047Y67342000D01*
X4175047Y67437239D01*
X4079809Y67627715D01*
X3889333Y67722953D01*
X3413142Y67722953D01*
X3127428Y67532477D01*
X2936952Y67246762D01*
X2841714Y66865810D01*
X2936952Y66484858D01*
X3127428Y66199143D01*
X3413142Y66008667D01*
X3794095Y65913429D01*
X4175047Y66008667D01*
X4460761Y66199143D01*
X4651238Y66484858D01*
X4746476Y66865810D01*
X4651238Y67246762D01*
X4460761Y67532477D01*
X4460761Y69437239D02*
X3413142Y69437239D01*
X3222666Y69342000D01*
X3127428Y69151524D01*
X3127428Y68770572D01*
X3222666Y68580096D01*
X4365523Y69437239D02*
X4460761Y69246762D01*
X4460761Y68770572D01*
X4365523Y68580096D01*
X4175047Y68484858D01*
X3984571Y68484858D01*
X3794095Y68580096D01*
X3698857Y68770572D01*
X3698857Y69246762D01*
X3603619Y69437239D01*
X4460761Y70675334D02*
X4365523Y70484858D01*
X4175047Y70389620D01*
X2460761Y70389620D01*
X3127428Y71151524D02*
X3127428Y71913429D01*
X4460761Y71437239D02*
X2746476Y71437239D01*
X2556000Y71532477D01*
X2460761Y71722953D01*
X2460761Y71913429D01*
X3127428Y72294381D02*
X3127428Y73056286D01*
X2460761Y72580096D02*
X4175047Y72580096D01*
X4365523Y72675334D01*
X4460761Y72865810D01*
X4460761Y73056286D01*
X4365523Y74484858D02*
X4460761Y74294381D01*
X4460761Y73913429D01*
X4365523Y73722953D01*
X4175047Y73627715D01*
X3413142Y73627715D01*
X3222666Y73722953D01*
X3127428Y73913429D01*
X3127428Y74294381D01*
X3222666Y74484858D01*
X3413142Y74580096D01*
X3603619Y74580096D01*
X3794095Y73627715D01*
X4460761Y75437239D02*
X3127428Y75437239D01*
X3508380Y75437239D02*
X3317904Y75532477D01*
X3222666Y75627715D01*
X3127428Y75818191D01*
X3127428Y76008667D01*
X4270285Y76675334D02*
X4365523Y76770572D01*
X4460761Y76675334D01*
X4365523Y76580096D01*
X4270285Y76675334D01*
X4460761Y76675334D01*
X3127428Y78484858D02*
X4460761Y78484858D01*
X3127428Y77627715D02*
X4175047Y77627715D01*
X4365523Y77722953D01*
X4460761Y77913429D01*
X4460761Y78199143D01*
X4365523Y78389620D01*
X4270285Y78484858D01*
X4365523Y79342000D02*
X4460761Y79532477D01*
X4460761Y79913429D01*
X4365523Y80103905D01*
X4175047Y80199143D01*
X4079809Y80199143D01*
X3889333Y80103905D01*
X3794095Y79913429D01*
X3794095Y79627715D01*
X3698857Y79437239D01*
X3508380Y79342000D01*
X3413142Y79342000D01*
X3222666Y79437239D01*
X3127428Y79627715D01*
X3127428Y79913429D01*
X3222666Y80103905D01*
D11*
X2413000Y3810000D03*
X4953000Y3810000D03*
X7493000Y3810000D03*
X10033000Y3810000D03*
X12573000Y3810000D03*
X15113000Y3810000D03*
X17653000Y3810000D03*
X20193000Y3810000D03*
X22733000Y3810000D03*
X25273000Y3810000D03*
X27813000Y3810000D03*
X30353000Y3810000D03*
X32893000Y3810000D03*
X35433000Y3810000D03*
X37973000Y3810000D03*
X40513000Y3810000D03*
X43053000Y3810000D03*
X45593000Y3810000D03*
X48133000Y3810000D03*
X50673000Y3810000D03*
X53213000Y3810000D03*
X55753000Y3810000D03*
X58293000Y3810000D03*
X60833000Y3810000D03*
X63373000Y3810000D03*
D12*
X54864000Y78994000D03*
D13*
X54864000Y76454000D03*
X52324000Y78994000D03*
X52324000Y76454000D03*
X49784000Y78994000D03*
X49784000Y76454000D03*
X47244000Y78994000D03*
X47244000Y76454000D03*
X44704000Y78994000D03*
X44704000Y76454000D03*
X42164000Y78994000D03*
X42164000Y76454000D03*
X39624000Y78994000D03*
X39624000Y76454000D03*
X37084000Y78994000D03*
X37084000Y76454000D03*
X34544000Y78994000D03*
X34544000Y76454000D03*
X32004000Y78994000D03*
X32004000Y76454000D03*
X29464000Y78994000D03*
X29464000Y76454000D03*
X26924000Y78994000D03*
X26924000Y76454000D03*
X24384000Y78994000D03*
X24384000Y76454000D03*
X21844000Y78994000D03*
X21844000Y76454000D03*
X19304000Y78994000D03*
X19304000Y76454000D03*
X16764000Y78994000D03*
X16764000Y76454000D03*
X14224000Y78994000D03*
X14224000Y76454000D03*
X11684000Y78994000D03*
X11684000Y76454000D03*
X9144000Y78994000D03*
X9144000Y76454000D03*
X6604000Y78994000D03*
X6604000Y76454000D03*
D14*
X54864000Y69469000D03*
D15*
X6604000Y54229000D03*
X52324000Y69469000D03*
X9144000Y54229000D03*
X49784000Y69469000D03*
X11684000Y54229000D03*
X47244000Y69469000D03*
X14224000Y54229000D03*
X44704000Y69469000D03*
X16764000Y54229000D03*
X42164000Y69469000D03*
X19304000Y54229000D03*
X39624000Y69469000D03*
X21844000Y54229000D03*
X37084000Y69469000D03*
X24384000Y54229000D03*
X34544000Y69469000D03*
X26924000Y54229000D03*
X32004000Y69469000D03*
X29464000Y54229000D03*
X29464000Y69469000D03*
X32004000Y54229000D03*
X26924000Y69469000D03*
X34544000Y54229000D03*
X24384000Y69469000D03*
X37084000Y54229000D03*
X21844000Y69469000D03*
X39624000Y54229000D03*
X19304000Y69469000D03*
X42164000Y54229000D03*
X16764000Y69469000D03*
X44704000Y54229000D03*
X14224000Y69469000D03*
X47244000Y54229000D03*
X11684000Y69469000D03*
X49784000Y54229000D03*
X9144000Y69469000D03*
X52324000Y54229000D03*
X6604000Y69469000D03*
X54864000Y54229000D03*
D12*
X57397542Y78977295D03*
D13*
X57397542Y76437295D03*
D15*
X54864000Y35179000D03*
X6604000Y50419000D03*
X52324000Y35179000D03*
X9144000Y50419000D03*
X49784000Y35179000D03*
X11684000Y50419000D03*
X47244000Y35179000D03*
X14224000Y50419000D03*
X44704000Y35179000D03*
X16764000Y50419000D03*
X42164000Y35179000D03*
X19304000Y50419000D03*
X39624000Y35179000D03*
X21844000Y50419000D03*
X37084000Y35179000D03*
X24384000Y50419000D03*
X34544000Y35179000D03*
X26924000Y50419000D03*
X32004000Y35179000D03*
X29464000Y50419000D03*
X29464000Y35179000D03*
X32004000Y50419000D03*
X26924000Y35179000D03*
X34544000Y50419000D03*
X24384000Y35179000D03*
X37084000Y50419000D03*
X21844000Y35179000D03*
X39624000Y50419000D03*
X19304000Y35179000D03*
X42164000Y50419000D03*
X16764000Y35179000D03*
X44704000Y50419000D03*
X14224000Y35179000D03*
X47244000Y50419000D03*
X11684000Y35179000D03*
X49784000Y50419000D03*
X9144000Y35179000D03*
X52324000Y50419000D03*
X6604000Y35179000D03*
D14*
X54864000Y50419000D03*
D16*
X5461000Y17779000D03*
X6731000Y17779000D03*
X8001000Y17779000D03*
X9271000Y17779000D03*
X10541000Y17779000D03*
X11811000Y17779000D03*
X13081000Y17779000D03*
X14351000Y17779000D03*
X15621000Y17779000D03*
X16891000Y17779000D03*
X16891000Y27179000D03*
X15621000Y27179000D03*
X14351000Y27179000D03*
X13081000Y27179000D03*
X11811000Y27179000D03*
X10541000Y27179000D03*
X9271000Y27179000D03*
X8001000Y27179000D03*
X6731000Y27179000D03*
X5461000Y27179000D03*
D17*
X44704000Y19525000D03*
X45974000Y19525000D03*
X47244000Y19525000D03*
X48514000Y19525000D03*
X49784000Y19525000D03*
X51054000Y19525000D03*
X52324000Y19525000D03*
X52324000Y24925000D03*
X51054000Y24925000D03*
X49784000Y24925000D03*
X48514000Y24925000D03*
X47244000Y24925000D03*
X45974000Y24925000D03*
X44704000Y24925000D03*
X27559000Y24925000D03*
X28829000Y24925000D03*
X30099000Y24925000D03*
X31369000Y24925000D03*
X32639000Y24925000D03*
X33909000Y24925000D03*
X35179000Y24925000D03*
X35179000Y19525000D03*
X33909000Y19525000D03*
X32639000Y19525000D03*
X31369000Y19525000D03*
X30099000Y19525000D03*
X28829000Y19525000D03*
X27559000Y19525000D03*
D18*
G36*
X63991642Y11493826D02*
X64015303Y11490316D01*
X64038507Y11484504D01*
X64061029Y11476446D01*
X64082653Y11466218D01*
X64103170Y11453921D01*
X64122383Y11439671D01*
X64140107Y11423607D01*
X64156171Y11405883D01*
X64170421Y11386670D01*
X64182718Y11366153D01*
X64192946Y11344529D01*
X64201004Y11322007D01*
X64206816Y11298803D01*
X64210326Y11275142D01*
X64211500Y11251250D01*
X64211500Y10338750D01*
X64210326Y10314858D01*
X64206816Y10291197D01*
X64201004Y10267993D01*
X64192946Y10245471D01*
X64182718Y10223847D01*
X64170421Y10203330D01*
X64156171Y10184117D01*
X64140107Y10166393D01*
X64122383Y10150329D01*
X64103170Y10136079D01*
X64082653Y10123782D01*
X64061029Y10113554D01*
X64038507Y10105496D01*
X64015303Y10099684D01*
X63991642Y10096174D01*
X63967750Y10095000D01*
X63480250Y10095000D01*
X63456358Y10096174D01*
X63432697Y10099684D01*
X63409493Y10105496D01*
X63386971Y10113554D01*
X63365347Y10123782D01*
X63344830Y10136079D01*
X63325617Y10150329D01*
X63307893Y10166393D01*
X63291829Y10184117D01*
X63277579Y10203330D01*
X63265282Y10223847D01*
X63255054Y10245471D01*
X63246996Y10267993D01*
X63241184Y10291197D01*
X63237674Y10314858D01*
X63236500Y10338750D01*
X63236500Y11251250D01*
X63237674Y11275142D01*
X63241184Y11298803D01*
X63246996Y11322007D01*
X63255054Y11344529D01*
X63265282Y11366153D01*
X63277579Y11386670D01*
X63291829Y11405883D01*
X63307893Y11423607D01*
X63325617Y11439671D01*
X63344830Y11453921D01*
X63365347Y11466218D01*
X63386971Y11476446D01*
X63409493Y11484504D01*
X63432697Y11490316D01*
X63456358Y11493826D01*
X63480250Y11495000D01*
X63967750Y11495000D01*
X63991642Y11493826D01*
X63991642Y11493826D01*
G37*
D19*
X63724000Y10795000D03*
D18*
G36*
X62116642Y11493826D02*
X62140303Y11490316D01*
X62163507Y11484504D01*
X62186029Y11476446D01*
X62207653Y11466218D01*
X62228170Y11453921D01*
X62247383Y11439671D01*
X62265107Y11423607D01*
X62281171Y11405883D01*
X62295421Y11386670D01*
X62307718Y11366153D01*
X62317946Y11344529D01*
X62326004Y11322007D01*
X62331816Y11298803D01*
X62335326Y11275142D01*
X62336500Y11251250D01*
X62336500Y10338750D01*
X62335326Y10314858D01*
X62331816Y10291197D01*
X62326004Y10267993D01*
X62317946Y10245471D01*
X62307718Y10223847D01*
X62295421Y10203330D01*
X62281171Y10184117D01*
X62265107Y10166393D01*
X62247383Y10150329D01*
X62228170Y10136079D01*
X62207653Y10123782D01*
X62186029Y10113554D01*
X62163507Y10105496D01*
X62140303Y10099684D01*
X62116642Y10096174D01*
X62092750Y10095000D01*
X61605250Y10095000D01*
X61581358Y10096174D01*
X61557697Y10099684D01*
X61534493Y10105496D01*
X61511971Y10113554D01*
X61490347Y10123782D01*
X61469830Y10136079D01*
X61450617Y10150329D01*
X61432893Y10166393D01*
X61416829Y10184117D01*
X61402579Y10203330D01*
X61390282Y10223847D01*
X61380054Y10245471D01*
X61371996Y10267993D01*
X61366184Y10291197D01*
X61362674Y10314858D01*
X61361500Y10338750D01*
X61361500Y11251250D01*
X61362674Y11275142D01*
X61366184Y11298803D01*
X61371996Y11322007D01*
X61380054Y11344529D01*
X61390282Y11366153D01*
X61402579Y11386670D01*
X61416829Y11405883D01*
X61432893Y11423607D01*
X61450617Y11439671D01*
X61469830Y11453921D01*
X61490347Y11466218D01*
X61511971Y11476446D01*
X61534493Y11484504D01*
X61557697Y11490316D01*
X61581358Y11493826D01*
X61605250Y11495000D01*
X62092750Y11495000D01*
X62116642Y11493826D01*
X62116642Y11493826D01*
G37*
D19*
X61849000Y10795000D03*
D18*
G36*
X63991642Y15303826D02*
X64015303Y15300316D01*
X64038507Y15294504D01*
X64061029Y15286446D01*
X64082653Y15276218D01*
X64103170Y15263921D01*
X64122383Y15249671D01*
X64140107Y15233607D01*
X64156171Y15215883D01*
X64170421Y15196670D01*
X64182718Y15176153D01*
X64192946Y15154529D01*
X64201004Y15132007D01*
X64206816Y15108803D01*
X64210326Y15085142D01*
X64211500Y15061250D01*
X64211500Y14148750D01*
X64210326Y14124858D01*
X64206816Y14101197D01*
X64201004Y14077993D01*
X64192946Y14055471D01*
X64182718Y14033847D01*
X64170421Y14013330D01*
X64156171Y13994117D01*
X64140107Y13976393D01*
X64122383Y13960329D01*
X64103170Y13946079D01*
X64082653Y13933782D01*
X64061029Y13923554D01*
X64038507Y13915496D01*
X64015303Y13909684D01*
X63991642Y13906174D01*
X63967750Y13905000D01*
X63480250Y13905000D01*
X63456358Y13906174D01*
X63432697Y13909684D01*
X63409493Y13915496D01*
X63386971Y13923554D01*
X63365347Y13933782D01*
X63344830Y13946079D01*
X63325617Y13960329D01*
X63307893Y13976393D01*
X63291829Y13994117D01*
X63277579Y14013330D01*
X63265282Y14033847D01*
X63255054Y14055471D01*
X63246996Y14077993D01*
X63241184Y14101197D01*
X63237674Y14124858D01*
X63236500Y14148750D01*
X63236500Y15061250D01*
X63237674Y15085142D01*
X63241184Y15108803D01*
X63246996Y15132007D01*
X63255054Y15154529D01*
X63265282Y15176153D01*
X63277579Y15196670D01*
X63291829Y15215883D01*
X63307893Y15233607D01*
X63325617Y15249671D01*
X63344830Y15263921D01*
X63365347Y15276218D01*
X63386971Y15286446D01*
X63409493Y15294504D01*
X63432697Y15300316D01*
X63456358Y15303826D01*
X63480250Y15305000D01*
X63967750Y15305000D01*
X63991642Y15303826D01*
X63991642Y15303826D01*
G37*
D19*
X63724000Y14605000D03*
D18*
G36*
X62116642Y15303826D02*
X62140303Y15300316D01*
X62163507Y15294504D01*
X62186029Y15286446D01*
X62207653Y15276218D01*
X62228170Y15263921D01*
X62247383Y15249671D01*
X62265107Y15233607D01*
X62281171Y15215883D01*
X62295421Y15196670D01*
X62307718Y15176153D01*
X62317946Y15154529D01*
X62326004Y15132007D01*
X62331816Y15108803D01*
X62335326Y15085142D01*
X62336500Y15061250D01*
X62336500Y14148750D01*
X62335326Y14124858D01*
X62331816Y14101197D01*
X62326004Y14077993D01*
X62317946Y14055471D01*
X62307718Y14033847D01*
X62295421Y14013330D01*
X62281171Y13994117D01*
X62265107Y13976393D01*
X62247383Y13960329D01*
X62228170Y13946079D01*
X62207653Y13933782D01*
X62186029Y13923554D01*
X62163507Y13915496D01*
X62140303Y13909684D01*
X62116642Y13906174D01*
X62092750Y13905000D01*
X61605250Y13905000D01*
X61581358Y13906174D01*
X61557697Y13909684D01*
X61534493Y13915496D01*
X61511971Y13923554D01*
X61490347Y13933782D01*
X61469830Y13946079D01*
X61450617Y13960329D01*
X61432893Y13976393D01*
X61416829Y13994117D01*
X61402579Y14013330D01*
X61390282Y14033847D01*
X61380054Y14055471D01*
X61371996Y14077993D01*
X61366184Y14101197D01*
X61362674Y14124858D01*
X61361500Y14148750D01*
X61361500Y15061250D01*
X61362674Y15085142D01*
X61366184Y15108803D01*
X61371996Y15132007D01*
X61380054Y15154529D01*
X61390282Y15176153D01*
X61402579Y15196670D01*
X61416829Y15215883D01*
X61432893Y15233607D01*
X61450617Y15249671D01*
X61469830Y15263921D01*
X61490347Y15276218D01*
X61511971Y15286446D01*
X61534493Y15294504D01*
X61557697Y15300316D01*
X61581358Y15303826D01*
X61605250Y15305000D01*
X62092750Y15305000D01*
X62116642Y15303826D01*
X62116642Y15303826D01*
G37*
D19*
X61849000Y14605000D03*
D18*
G36*
X19784142Y23981326D02*
X19807803Y23977816D01*
X19831007Y23972004D01*
X19853529Y23963946D01*
X19875153Y23953718D01*
X19895670Y23941421D01*
X19914883Y23927171D01*
X19932607Y23911107D01*
X19948671Y23893383D01*
X19962921Y23874170D01*
X19975218Y23853653D01*
X19985446Y23832029D01*
X19993504Y23809507D01*
X19999316Y23786303D01*
X20002826Y23762642D01*
X20004000Y23738750D01*
X20004000Y23251250D01*
X20002826Y23227358D01*
X19999316Y23203697D01*
X19993504Y23180493D01*
X19985446Y23157971D01*
X19975218Y23136347D01*
X19962921Y23115830D01*
X19948671Y23096617D01*
X19932607Y23078893D01*
X19914883Y23062829D01*
X19895670Y23048579D01*
X19875153Y23036282D01*
X19853529Y23026054D01*
X19831007Y23017996D01*
X19807803Y23012184D01*
X19784142Y23008674D01*
X19760250Y23007500D01*
X18847750Y23007500D01*
X18823858Y23008674D01*
X18800197Y23012184D01*
X18776993Y23017996D01*
X18754471Y23026054D01*
X18732847Y23036282D01*
X18712330Y23048579D01*
X18693117Y23062829D01*
X18675393Y23078893D01*
X18659329Y23096617D01*
X18645079Y23115830D01*
X18632782Y23136347D01*
X18622554Y23157971D01*
X18614496Y23180493D01*
X18608684Y23203697D01*
X18605174Y23227358D01*
X18604000Y23251250D01*
X18604000Y23738750D01*
X18605174Y23762642D01*
X18608684Y23786303D01*
X18614496Y23809507D01*
X18622554Y23832029D01*
X18632782Y23853653D01*
X18645079Y23874170D01*
X18659329Y23893383D01*
X18675393Y23911107D01*
X18693117Y23927171D01*
X18712330Y23941421D01*
X18732847Y23953718D01*
X18754471Y23963946D01*
X18776993Y23972004D01*
X18800197Y23977816D01*
X18823858Y23981326D01*
X18847750Y23982500D01*
X19760250Y23982500D01*
X19784142Y23981326D01*
X19784142Y23981326D01*
G37*
D19*
X19304000Y23495000D03*
D18*
G36*
X19784142Y22106326D02*
X19807803Y22102816D01*
X19831007Y22097004D01*
X19853529Y22088946D01*
X19875153Y22078718D01*
X19895670Y22066421D01*
X19914883Y22052171D01*
X19932607Y22036107D01*
X19948671Y22018383D01*
X19962921Y21999170D01*
X19975218Y21978653D01*
X19985446Y21957029D01*
X19993504Y21934507D01*
X19999316Y21911303D01*
X20002826Y21887642D01*
X20004000Y21863750D01*
X20004000Y21376250D01*
X20002826Y21352358D01*
X19999316Y21328697D01*
X19993504Y21305493D01*
X19985446Y21282971D01*
X19975218Y21261347D01*
X19962921Y21240830D01*
X19948671Y21221617D01*
X19932607Y21203893D01*
X19914883Y21187829D01*
X19895670Y21173579D01*
X19875153Y21161282D01*
X19853529Y21151054D01*
X19831007Y21142996D01*
X19807803Y21137184D01*
X19784142Y21133674D01*
X19760250Y21132500D01*
X18847750Y21132500D01*
X18823858Y21133674D01*
X18800197Y21137184D01*
X18776993Y21142996D01*
X18754471Y21151054D01*
X18732847Y21161282D01*
X18712330Y21173579D01*
X18693117Y21187829D01*
X18675393Y21203893D01*
X18659329Y21221617D01*
X18645079Y21240830D01*
X18632782Y21261347D01*
X18622554Y21282971D01*
X18614496Y21305493D01*
X18608684Y21328697D01*
X18605174Y21352358D01*
X18604000Y21376250D01*
X18604000Y21863750D01*
X18605174Y21887642D01*
X18608684Y21911303D01*
X18614496Y21934507D01*
X18622554Y21957029D01*
X18632782Y21978653D01*
X18645079Y21999170D01*
X18659329Y22018383D01*
X18675393Y22036107D01*
X18693117Y22052171D01*
X18712330Y22066421D01*
X18732847Y22078718D01*
X18754471Y22088946D01*
X18776993Y22097004D01*
X18800197Y22102816D01*
X18823858Y22106326D01*
X18847750Y22107500D01*
X19760250Y22107500D01*
X19784142Y22106326D01*
X19784142Y22106326D01*
G37*
D19*
X19304000Y21620000D03*
D18*
G36*
X38834142Y22106326D02*
X38857803Y22102816D01*
X38881007Y22097004D01*
X38903529Y22088946D01*
X38925153Y22078718D01*
X38945670Y22066421D01*
X38964883Y22052171D01*
X38982607Y22036107D01*
X38998671Y22018383D01*
X39012921Y21999170D01*
X39025218Y21978653D01*
X39035446Y21957029D01*
X39043504Y21934507D01*
X39049316Y21911303D01*
X39052826Y21887642D01*
X39054000Y21863750D01*
X39054000Y21376250D01*
X39052826Y21352358D01*
X39049316Y21328697D01*
X39043504Y21305493D01*
X39035446Y21282971D01*
X39025218Y21261347D01*
X39012921Y21240830D01*
X38998671Y21221617D01*
X38982607Y21203893D01*
X38964883Y21187829D01*
X38945670Y21173579D01*
X38925153Y21161282D01*
X38903529Y21151054D01*
X38881007Y21142996D01*
X38857803Y21137184D01*
X38834142Y21133674D01*
X38810250Y21132500D01*
X37897750Y21132500D01*
X37873858Y21133674D01*
X37850197Y21137184D01*
X37826993Y21142996D01*
X37804471Y21151054D01*
X37782847Y21161282D01*
X37762330Y21173579D01*
X37743117Y21187829D01*
X37725393Y21203893D01*
X37709329Y21221617D01*
X37695079Y21240830D01*
X37682782Y21261347D01*
X37672554Y21282971D01*
X37664496Y21305493D01*
X37658684Y21328697D01*
X37655174Y21352358D01*
X37654000Y21376250D01*
X37654000Y21863750D01*
X37655174Y21887642D01*
X37658684Y21911303D01*
X37664496Y21934507D01*
X37672554Y21957029D01*
X37682782Y21978653D01*
X37695079Y21999170D01*
X37709329Y22018383D01*
X37725393Y22036107D01*
X37743117Y22052171D01*
X37762330Y22066421D01*
X37782847Y22078718D01*
X37804471Y22088946D01*
X37826993Y22097004D01*
X37850197Y22102816D01*
X37873858Y22106326D01*
X37897750Y22107500D01*
X38810250Y22107500D01*
X38834142Y22106326D01*
X38834142Y22106326D01*
G37*
D19*
X38354000Y21620000D03*
D18*
G36*
X38834142Y23981326D02*
X38857803Y23977816D01*
X38881007Y23972004D01*
X38903529Y23963946D01*
X38925153Y23953718D01*
X38945670Y23941421D01*
X38964883Y23927171D01*
X38982607Y23911107D01*
X38998671Y23893383D01*
X39012921Y23874170D01*
X39025218Y23853653D01*
X39035446Y23832029D01*
X39043504Y23809507D01*
X39049316Y23786303D01*
X39052826Y23762642D01*
X39054000Y23738750D01*
X39054000Y23251250D01*
X39052826Y23227358D01*
X39049316Y23203697D01*
X39043504Y23180493D01*
X39035446Y23157971D01*
X39025218Y23136347D01*
X39012921Y23115830D01*
X38998671Y23096617D01*
X38982607Y23078893D01*
X38964883Y23062829D01*
X38945670Y23048579D01*
X38925153Y23036282D01*
X38903529Y23026054D01*
X38881007Y23017996D01*
X38857803Y23012184D01*
X38834142Y23008674D01*
X38810250Y23007500D01*
X37897750Y23007500D01*
X37873858Y23008674D01*
X37850197Y23012184D01*
X37826993Y23017996D01*
X37804471Y23026054D01*
X37782847Y23036282D01*
X37762330Y23048579D01*
X37743117Y23062829D01*
X37725393Y23078893D01*
X37709329Y23096617D01*
X37695079Y23115830D01*
X37682782Y23136347D01*
X37672554Y23157971D01*
X37664496Y23180493D01*
X37658684Y23203697D01*
X37655174Y23227358D01*
X37654000Y23251250D01*
X37654000Y23738750D01*
X37655174Y23762642D01*
X37658684Y23786303D01*
X37664496Y23809507D01*
X37672554Y23832029D01*
X37682782Y23853653D01*
X37695079Y23874170D01*
X37709329Y23893383D01*
X37725393Y23911107D01*
X37743117Y23927171D01*
X37762330Y23941421D01*
X37782847Y23953718D01*
X37804471Y23963946D01*
X37826993Y23972004D01*
X37850197Y23977816D01*
X37873858Y23981326D01*
X37897750Y23982500D01*
X38810250Y23982500D01*
X38834142Y23981326D01*
X38834142Y23981326D01*
G37*
D19*
X38354000Y23495000D03*
D18*
G36*
X55344142Y23981326D02*
X55367803Y23977816D01*
X55391007Y23972004D01*
X55413529Y23963946D01*
X55435153Y23953718D01*
X55455670Y23941421D01*
X55474883Y23927171D01*
X55492607Y23911107D01*
X55508671Y23893383D01*
X55522921Y23874170D01*
X55535218Y23853653D01*
X55545446Y23832029D01*
X55553504Y23809507D01*
X55559316Y23786303D01*
X55562826Y23762642D01*
X55564000Y23738750D01*
X55564000Y23251250D01*
X55562826Y23227358D01*
X55559316Y23203697D01*
X55553504Y23180493D01*
X55545446Y23157971D01*
X55535218Y23136347D01*
X55522921Y23115830D01*
X55508671Y23096617D01*
X55492607Y23078893D01*
X55474883Y23062829D01*
X55455670Y23048579D01*
X55435153Y23036282D01*
X55413529Y23026054D01*
X55391007Y23017996D01*
X55367803Y23012184D01*
X55344142Y23008674D01*
X55320250Y23007500D01*
X54407750Y23007500D01*
X54383858Y23008674D01*
X54360197Y23012184D01*
X54336993Y23017996D01*
X54314471Y23026054D01*
X54292847Y23036282D01*
X54272330Y23048579D01*
X54253117Y23062829D01*
X54235393Y23078893D01*
X54219329Y23096617D01*
X54205079Y23115830D01*
X54192782Y23136347D01*
X54182554Y23157971D01*
X54174496Y23180493D01*
X54168684Y23203697D01*
X54165174Y23227358D01*
X54164000Y23251250D01*
X54164000Y23738750D01*
X54165174Y23762642D01*
X54168684Y23786303D01*
X54174496Y23809507D01*
X54182554Y23832029D01*
X54192782Y23853653D01*
X54205079Y23874170D01*
X54219329Y23893383D01*
X54235393Y23911107D01*
X54253117Y23927171D01*
X54272330Y23941421D01*
X54292847Y23953718D01*
X54314471Y23963946D01*
X54336993Y23972004D01*
X54360197Y23977816D01*
X54383858Y23981326D01*
X54407750Y23982500D01*
X55320250Y23982500D01*
X55344142Y23981326D01*
X55344142Y23981326D01*
G37*
D19*
X54864000Y23495000D03*
D18*
G36*
X55344142Y22106326D02*
X55367803Y22102816D01*
X55391007Y22097004D01*
X55413529Y22088946D01*
X55435153Y22078718D01*
X55455670Y22066421D01*
X55474883Y22052171D01*
X55492607Y22036107D01*
X55508671Y22018383D01*
X55522921Y21999170D01*
X55535218Y21978653D01*
X55545446Y21957029D01*
X55553504Y21934507D01*
X55559316Y21911303D01*
X55562826Y21887642D01*
X55564000Y21863750D01*
X55564000Y21376250D01*
X55562826Y21352358D01*
X55559316Y21328697D01*
X55553504Y21305493D01*
X55545446Y21282971D01*
X55535218Y21261347D01*
X55522921Y21240830D01*
X55508671Y21221617D01*
X55492607Y21203893D01*
X55474883Y21187829D01*
X55455670Y21173579D01*
X55435153Y21161282D01*
X55413529Y21151054D01*
X55391007Y21142996D01*
X55367803Y21137184D01*
X55344142Y21133674D01*
X55320250Y21132500D01*
X54407750Y21132500D01*
X54383858Y21133674D01*
X54360197Y21137184D01*
X54336993Y21142996D01*
X54314471Y21151054D01*
X54292847Y21161282D01*
X54272330Y21173579D01*
X54253117Y21187829D01*
X54235393Y21203893D01*
X54219329Y21221617D01*
X54205079Y21240830D01*
X54192782Y21261347D01*
X54182554Y21282971D01*
X54174496Y21305493D01*
X54168684Y21328697D01*
X54165174Y21352358D01*
X54164000Y21376250D01*
X54164000Y21863750D01*
X54165174Y21887642D01*
X54168684Y21911303D01*
X54174496Y21934507D01*
X54182554Y21957029D01*
X54192782Y21978653D01*
X54205079Y21999170D01*
X54219329Y22018383D01*
X54235393Y22036107D01*
X54253117Y22052171D01*
X54272330Y22066421D01*
X54292847Y22078718D01*
X54314471Y22088946D01*
X54336993Y22097004D01*
X54360197Y22102816D01*
X54383858Y22106326D01*
X54407750Y22107500D01*
X55320250Y22107500D01*
X55344142Y22106326D01*
X55344142Y22106326D01*
G37*
D19*
X54864000Y21620000D03*
D18*
G36*
X57671642Y51117826D02*
X57695303Y51114316D01*
X57718507Y51108504D01*
X57741029Y51100446D01*
X57762653Y51090218D01*
X57783170Y51077921D01*
X57802383Y51063671D01*
X57820107Y51047607D01*
X57836171Y51029883D01*
X57850421Y51010670D01*
X57862718Y50990153D01*
X57872946Y50968529D01*
X57881004Y50946007D01*
X57886816Y50922803D01*
X57890326Y50899142D01*
X57891500Y50875250D01*
X57891500Y49962750D01*
X57890326Y49938858D01*
X57886816Y49915197D01*
X57881004Y49891993D01*
X57872946Y49869471D01*
X57862718Y49847847D01*
X57850421Y49827330D01*
X57836171Y49808117D01*
X57820107Y49790393D01*
X57802383Y49774329D01*
X57783170Y49760079D01*
X57762653Y49747782D01*
X57741029Y49737554D01*
X57718507Y49729496D01*
X57695303Y49723684D01*
X57671642Y49720174D01*
X57647750Y49719000D01*
X57160250Y49719000D01*
X57136358Y49720174D01*
X57112697Y49723684D01*
X57089493Y49729496D01*
X57066971Y49737554D01*
X57045347Y49747782D01*
X57024830Y49760079D01*
X57005617Y49774329D01*
X56987893Y49790393D01*
X56971829Y49808117D01*
X56957579Y49827330D01*
X56945282Y49847847D01*
X56935054Y49869471D01*
X56926996Y49891993D01*
X56921184Y49915197D01*
X56917674Y49938858D01*
X56916500Y49962750D01*
X56916500Y50875250D01*
X56917674Y50899142D01*
X56921184Y50922803D01*
X56926996Y50946007D01*
X56935054Y50968529D01*
X56945282Y50990153D01*
X56957579Y51010670D01*
X56971829Y51029883D01*
X56987893Y51047607D01*
X57005617Y51063671D01*
X57024830Y51077921D01*
X57045347Y51090218D01*
X57066971Y51100446D01*
X57089493Y51108504D01*
X57112697Y51114316D01*
X57136358Y51117826D01*
X57160250Y51119000D01*
X57647750Y51119000D01*
X57671642Y51117826D01*
X57671642Y51117826D01*
G37*
D19*
X57404000Y50419000D03*
D18*
G36*
X59546642Y51117826D02*
X59570303Y51114316D01*
X59593507Y51108504D01*
X59616029Y51100446D01*
X59637653Y51090218D01*
X59658170Y51077921D01*
X59677383Y51063671D01*
X59695107Y51047607D01*
X59711171Y51029883D01*
X59725421Y51010670D01*
X59737718Y50990153D01*
X59747946Y50968529D01*
X59756004Y50946007D01*
X59761816Y50922803D01*
X59765326Y50899142D01*
X59766500Y50875250D01*
X59766500Y49962750D01*
X59765326Y49938858D01*
X59761816Y49915197D01*
X59756004Y49891993D01*
X59747946Y49869471D01*
X59737718Y49847847D01*
X59725421Y49827330D01*
X59711171Y49808117D01*
X59695107Y49790393D01*
X59677383Y49774329D01*
X59658170Y49760079D01*
X59637653Y49747782D01*
X59616029Y49737554D01*
X59593507Y49729496D01*
X59570303Y49723684D01*
X59546642Y49720174D01*
X59522750Y49719000D01*
X59035250Y49719000D01*
X59011358Y49720174D01*
X58987697Y49723684D01*
X58964493Y49729496D01*
X58941971Y49737554D01*
X58920347Y49747782D01*
X58899830Y49760079D01*
X58880617Y49774329D01*
X58862893Y49790393D01*
X58846829Y49808117D01*
X58832579Y49827330D01*
X58820282Y49847847D01*
X58810054Y49869471D01*
X58801996Y49891993D01*
X58796184Y49915197D01*
X58792674Y49938858D01*
X58791500Y49962750D01*
X58791500Y50875250D01*
X58792674Y50899142D01*
X58796184Y50922803D01*
X58801996Y50946007D01*
X58810054Y50968529D01*
X58820282Y50990153D01*
X58832579Y51010670D01*
X58846829Y51029883D01*
X58862893Y51047607D01*
X58880617Y51063671D01*
X58899830Y51077921D01*
X58920347Y51090218D01*
X58941971Y51100446D01*
X58964493Y51108504D01*
X58987697Y51114316D01*
X59011358Y51117826D01*
X59035250Y51119000D01*
X59522750Y51119000D01*
X59546642Y51117826D01*
X59546642Y51117826D01*
G37*
D19*
X59279000Y50419000D03*
D18*
G36*
X59546642Y70167826D02*
X59570303Y70164316D01*
X59593507Y70158504D01*
X59616029Y70150446D01*
X59637653Y70140218D01*
X59658170Y70127921D01*
X59677383Y70113671D01*
X59695107Y70097607D01*
X59711171Y70079883D01*
X59725421Y70060670D01*
X59737718Y70040153D01*
X59747946Y70018529D01*
X59756004Y69996007D01*
X59761816Y69972803D01*
X59765326Y69949142D01*
X59766500Y69925250D01*
X59766500Y69012750D01*
X59765326Y68988858D01*
X59761816Y68965197D01*
X59756004Y68941993D01*
X59747946Y68919471D01*
X59737718Y68897847D01*
X59725421Y68877330D01*
X59711171Y68858117D01*
X59695107Y68840393D01*
X59677383Y68824329D01*
X59658170Y68810079D01*
X59637653Y68797782D01*
X59616029Y68787554D01*
X59593507Y68779496D01*
X59570303Y68773684D01*
X59546642Y68770174D01*
X59522750Y68769000D01*
X59035250Y68769000D01*
X59011358Y68770174D01*
X58987697Y68773684D01*
X58964493Y68779496D01*
X58941971Y68787554D01*
X58920347Y68797782D01*
X58899830Y68810079D01*
X58880617Y68824329D01*
X58862893Y68840393D01*
X58846829Y68858117D01*
X58832579Y68877330D01*
X58820282Y68897847D01*
X58810054Y68919471D01*
X58801996Y68941993D01*
X58796184Y68965197D01*
X58792674Y68988858D01*
X58791500Y69012750D01*
X58791500Y69925250D01*
X58792674Y69949142D01*
X58796184Y69972803D01*
X58801996Y69996007D01*
X58810054Y70018529D01*
X58820282Y70040153D01*
X58832579Y70060670D01*
X58846829Y70079883D01*
X58862893Y70097607D01*
X58880617Y70113671D01*
X58899830Y70127921D01*
X58920347Y70140218D01*
X58941971Y70150446D01*
X58964493Y70158504D01*
X58987697Y70164316D01*
X59011358Y70167826D01*
X59035250Y70169000D01*
X59522750Y70169000D01*
X59546642Y70167826D01*
X59546642Y70167826D01*
G37*
D19*
X59279000Y69469000D03*
D18*
G36*
X57671642Y70167826D02*
X57695303Y70164316D01*
X57718507Y70158504D01*
X57741029Y70150446D01*
X57762653Y70140218D01*
X57783170Y70127921D01*
X57802383Y70113671D01*
X57820107Y70097607D01*
X57836171Y70079883D01*
X57850421Y70060670D01*
X57862718Y70040153D01*
X57872946Y70018529D01*
X57881004Y69996007D01*
X57886816Y69972803D01*
X57890326Y69949142D01*
X57891500Y69925250D01*
X57891500Y69012750D01*
X57890326Y68988858D01*
X57886816Y68965197D01*
X57881004Y68941993D01*
X57872946Y68919471D01*
X57862718Y68897847D01*
X57850421Y68877330D01*
X57836171Y68858117D01*
X57820107Y68840393D01*
X57802383Y68824329D01*
X57783170Y68810079D01*
X57762653Y68797782D01*
X57741029Y68787554D01*
X57718507Y68779496D01*
X57695303Y68773684D01*
X57671642Y68770174D01*
X57647750Y68769000D01*
X57160250Y68769000D01*
X57136358Y68770174D01*
X57112697Y68773684D01*
X57089493Y68779496D01*
X57066971Y68787554D01*
X57045347Y68797782D01*
X57024830Y68810079D01*
X57005617Y68824329D01*
X56987893Y68840393D01*
X56971829Y68858117D01*
X56957579Y68877330D01*
X56945282Y68897847D01*
X56935054Y68919471D01*
X56926996Y68941993D01*
X56921184Y68965197D01*
X56917674Y68988858D01*
X56916500Y69012750D01*
X56916500Y69925250D01*
X56917674Y69949142D01*
X56921184Y69972803D01*
X56926996Y69996007D01*
X56935054Y70018529D01*
X56945282Y70040153D01*
X56957579Y70060670D01*
X56971829Y70079883D01*
X56987893Y70097607D01*
X57005617Y70113671D01*
X57024830Y70127921D01*
X57045347Y70140218D01*
X57066971Y70150446D01*
X57089493Y70158504D01*
X57112697Y70164316D01*
X57136358Y70167826D01*
X57160250Y70169000D01*
X57647750Y70169000D01*
X57671642Y70167826D01*
X57671642Y70167826D01*
G37*
D19*
X57404000Y69469000D03*
D18*
G36*
X61052684Y78798621D02*
X61076345Y78795111D01*
X61099549Y78789299D01*
X61122071Y78781241D01*
X61143695Y78771013D01*
X61164212Y78758716D01*
X61183425Y78744466D01*
X61201149Y78728402D01*
X61217213Y78710678D01*
X61231463Y78691465D01*
X61243760Y78670948D01*
X61253988Y78649324D01*
X61262046Y78626802D01*
X61267858Y78603598D01*
X61271368Y78579937D01*
X61272542Y78556045D01*
X61272542Y78068545D01*
X61271368Y78044653D01*
X61267858Y78020992D01*
X61262046Y77997788D01*
X61253988Y77975266D01*
X61243760Y77953642D01*
X61231463Y77933125D01*
X61217213Y77913912D01*
X61201149Y77896188D01*
X61183425Y77880124D01*
X61164212Y77865874D01*
X61143695Y77853577D01*
X61122071Y77843349D01*
X61099549Y77835291D01*
X61076345Y77829479D01*
X61052684Y77825969D01*
X61028792Y77824795D01*
X60116292Y77824795D01*
X60092400Y77825969D01*
X60068739Y77829479D01*
X60045535Y77835291D01*
X60023013Y77843349D01*
X60001389Y77853577D01*
X59980872Y77865874D01*
X59961659Y77880124D01*
X59943935Y77896188D01*
X59927871Y77913912D01*
X59913621Y77933125D01*
X59901324Y77953642D01*
X59891096Y77975266D01*
X59883038Y77997788D01*
X59877226Y78020992D01*
X59873716Y78044653D01*
X59872542Y78068545D01*
X59872542Y78556045D01*
X59873716Y78579937D01*
X59877226Y78603598D01*
X59883038Y78626802D01*
X59891096Y78649324D01*
X59901324Y78670948D01*
X59913621Y78691465D01*
X59927871Y78710678D01*
X59943935Y78728402D01*
X59961659Y78744466D01*
X59980872Y78758716D01*
X60001389Y78771013D01*
X60023013Y78781241D01*
X60045535Y78789299D01*
X60068739Y78795111D01*
X60092400Y78798621D01*
X60116292Y78799795D01*
X61028792Y78799795D01*
X61052684Y78798621D01*
X61052684Y78798621D01*
G37*
D19*
X60572542Y78312295D03*
D18*
G36*
X61052684Y76923621D02*
X61076345Y76920111D01*
X61099549Y76914299D01*
X61122071Y76906241D01*
X61143695Y76896013D01*
X61164212Y76883716D01*
X61183425Y76869466D01*
X61201149Y76853402D01*
X61217213Y76835678D01*
X61231463Y76816465D01*
X61243760Y76795948D01*
X61253988Y76774324D01*
X61262046Y76751802D01*
X61267858Y76728598D01*
X61271368Y76704937D01*
X61272542Y76681045D01*
X61272542Y76193545D01*
X61271368Y76169653D01*
X61267858Y76145992D01*
X61262046Y76122788D01*
X61253988Y76100266D01*
X61243760Y76078642D01*
X61231463Y76058125D01*
X61217213Y76038912D01*
X61201149Y76021188D01*
X61183425Y76005124D01*
X61164212Y75990874D01*
X61143695Y75978577D01*
X61122071Y75968349D01*
X61099549Y75960291D01*
X61076345Y75954479D01*
X61052684Y75950969D01*
X61028792Y75949795D01*
X60116292Y75949795D01*
X60092400Y75950969D01*
X60068739Y75954479D01*
X60045535Y75960291D01*
X60023013Y75968349D01*
X60001389Y75978577D01*
X59980872Y75990874D01*
X59961659Y76005124D01*
X59943935Y76021188D01*
X59927871Y76038912D01*
X59913621Y76058125D01*
X59901324Y76078642D01*
X59891096Y76100266D01*
X59883038Y76122788D01*
X59877226Y76145992D01*
X59873716Y76169653D01*
X59872542Y76193545D01*
X59872542Y76681045D01*
X59873716Y76704937D01*
X59877226Y76728598D01*
X59883038Y76751802D01*
X59891096Y76774324D01*
X59901324Y76795948D01*
X59913621Y76816465D01*
X59927871Y76835678D01*
X59943935Y76853402D01*
X59961659Y76869466D01*
X59980872Y76883716D01*
X60001389Y76896013D01*
X60023013Y76906241D01*
X60045535Y76914299D01*
X60068739Y76920111D01*
X60092400Y76923621D01*
X60116292Y76924795D01*
X61028792Y76924795D01*
X61052684Y76923621D01*
X61052684Y76923621D01*
G37*
D19*
X60572542Y76437295D03*
D20*
X3429000Y37464000D03*
X3429000Y34164000D03*
X3556000Y50928000D03*
X3556000Y54228000D03*
D21*
X14769000Y52324000D03*
X14224000Y71374000D03*
X15494000Y72644000D03*
X59309000Y48514000D03*
X59309000Y22860000D03*
X63754000Y8890000D03*
X60579000Y8890000D03*
X57404000Y48514000D03*
X57404000Y21590000D03*
X18573563Y10847827D03*
X19939000Y10160000D03*
X5334000Y19685000D03*
X44704000Y20955000D03*
X37084000Y32929990D03*
X4936937Y12277294D03*
X4718368Y32294990D03*
X4217005Y11583233D03*
X3919997Y31692805D03*
X3519010Y10867115D03*
X3246364Y30944722D03*
X2794000Y10160000D03*
X2794000Y29845000D03*
X2794000Y8255000D03*
X6604000Y24765000D03*
X6604000Y29210000D03*
X35814000Y33020000D03*
X44704000Y27305000D03*
X52959000Y27305000D03*
X30099000Y17780000D03*
X27559000Y17780000D03*
X16764000Y24765000D03*
X15494000Y24765000D03*
X14224000Y24765000D03*
X12954000Y24765000D03*
X11684000Y24765000D03*
X10414000Y24765000D03*
X9144000Y24765000D03*
X7874000Y24765000D03*
X23114000Y12065000D03*
X22406885Y12772115D03*
X21699770Y13479230D03*
X20992655Y14186345D03*
X20285540Y14893460D03*
X19560530Y15600927D03*
X18835520Y16316871D03*
X18110510Y17037414D03*
X45339000Y29210000D03*
X15494000Y29210000D03*
X45974000Y20955000D03*
X32639000Y20955000D03*
X30099000Y23495000D03*
X19304000Y28575000D03*
X3556000Y52832000D03*
D22*
X52324000Y50419000D02*
X53594000Y51689000D01*
X53594000Y77724000D02*
X54864000Y78994000D01*
X53499001Y77629001D02*
X53594000Y77724000D01*
X53499001Y51783999D02*
X53499001Y77629001D01*
X53594000Y51689000D02*
X53499001Y51783999D01*
X50959001Y77629001D02*
X52324000Y78994000D01*
X49784000Y50419000D02*
X50959001Y51594001D01*
X50959001Y51594001D02*
X50959001Y77629001D01*
X48934001Y78144001D02*
X49784000Y78994000D01*
X48608999Y77818999D02*
X48934001Y78144001D01*
X47244000Y50419000D02*
X48608999Y51783999D01*
X48608999Y51783999D02*
X48608999Y77818999D01*
X45879001Y77629001D02*
X47244000Y78994000D01*
X44704000Y50419000D02*
X45879001Y51594001D01*
X45879001Y51594001D02*
X45879001Y77629001D01*
X43854001Y78144001D02*
X44704000Y78994000D01*
X43339001Y77629001D02*
X43854001Y78144001D01*
X42164000Y50419000D02*
X43339001Y51594001D01*
X43339001Y51594001D02*
X43339001Y77629001D01*
X40799001Y77629001D02*
X42164000Y78994000D01*
X39624000Y50419000D02*
X40799001Y51594001D01*
X40799001Y51594001D02*
X40799001Y77629001D01*
X38774001Y78144001D02*
X39624000Y78994000D01*
X38354000Y77724000D02*
X38774001Y78144001D01*
X37084000Y50419000D02*
X38354000Y51689000D01*
X38354000Y51689000D02*
X38354000Y77724000D01*
X35719001Y77629001D02*
X37084000Y78994000D01*
X34544000Y50419000D02*
X35719001Y51594001D01*
X35719001Y51594001D02*
X35719001Y77629001D01*
X33694001Y78144001D02*
X34544000Y78994000D01*
X33179001Y77629001D02*
X33694001Y78144001D01*
X32004000Y50419000D02*
X33179001Y51594001D01*
X33179001Y51594001D02*
X33179001Y77629001D01*
X29464000Y50419000D02*
X30639001Y51594001D01*
X30639001Y77629001D02*
X32004000Y78994000D01*
X30639001Y51594001D02*
X30639001Y77629001D01*
X28614001Y78144001D02*
X29464000Y78994000D01*
X28099001Y77629001D02*
X28614001Y78144001D01*
X26924000Y50419000D02*
X28099001Y51594001D01*
X28099001Y51594001D02*
X28099001Y77629001D01*
X25748999Y77818999D02*
X26924000Y78994000D01*
X24384000Y50419000D02*
X25748999Y51783999D01*
X25748999Y51783999D02*
X25748999Y77818999D01*
X23534001Y78144001D02*
X24384000Y78994000D01*
X23208999Y77818999D02*
X23534001Y78144001D01*
X21844000Y50419000D02*
X23208999Y51783999D01*
X23208999Y51783999D02*
X23208999Y77818999D01*
X20994001Y78144001D02*
X21844000Y78994000D01*
X20479001Y77629001D02*
X20994001Y78144001D01*
X19304000Y50419000D02*
X20479001Y51594001D01*
X20479001Y51594001D02*
X20479001Y77629001D01*
X18454001Y78144001D02*
X19304000Y78994000D01*
X17939001Y77629001D02*
X18454001Y78144001D01*
X16764000Y50419000D02*
X17939001Y51594001D01*
X17939001Y51594001D02*
X17939001Y77629001D01*
X15494000Y77724000D02*
X16764000Y78994000D01*
X15638999Y53193999D02*
X15638999Y71715997D01*
X14769000Y52324000D02*
X15638999Y53193999D01*
X15638999Y71715997D02*
X16219001Y72295999D01*
X16219001Y75278999D02*
X15494000Y76004000D01*
X16219001Y72295999D02*
X16219001Y75278999D01*
X15494000Y76004000D02*
X15494000Y77724000D01*
X26924000Y37084000D02*
X15638999Y48369001D01*
X12954000Y77724000D02*
X14224000Y78994000D01*
X54864000Y35179000D02*
X54864000Y36310370D01*
X54864000Y36310370D02*
X54090370Y37084000D01*
X54090370Y37084000D02*
X26924000Y37084000D01*
X14709003Y51598999D02*
X15638999Y50669003D01*
X15638999Y50669003D02*
X15638999Y48369001D01*
X14314001Y51598999D02*
X14709003Y51598999D01*
X12859001Y53053999D02*
X14314001Y51598999D01*
X12859001Y77629001D02*
X12954000Y77724000D01*
X12859001Y53053999D02*
X12859001Y77629001D01*
X10414000Y77724000D02*
X11684000Y78994000D01*
X51198999Y36304001D02*
X26673997Y36304001D01*
X52324000Y35179000D02*
X51198999Y36304001D01*
X26673997Y36304001D02*
X12809001Y50168997D01*
X12809001Y50168997D02*
X12809001Y50959001D01*
X12809001Y50959001D02*
X10414000Y53354002D01*
X10414000Y53354002D02*
X10414000Y77724000D01*
X9144000Y78994000D02*
X7874000Y77724000D01*
X7874000Y53833998D02*
X7874000Y77724000D01*
X10884001Y51218999D02*
X10488999Y51218999D01*
X10488999Y51218999D02*
X7874000Y53833998D01*
X11684000Y50419000D02*
X10884001Y51218999D01*
X5334000Y77724000D02*
X6604000Y78994000D01*
X5334000Y53833998D02*
X5334000Y77724000D01*
X7948999Y51218999D02*
X5334000Y53833998D01*
X8344001Y51218999D02*
X7948999Y51218999D01*
X9144000Y50419000D02*
X8344001Y51218999D01*
X14224000Y71374000D02*
X15494000Y72644000D01*
D23*
X61849000Y9009000D02*
X61849000Y10795000D01*
X63373000Y1905000D02*
X63373000Y7485000D01*
X63373000Y7485000D02*
X61849000Y9009000D01*
X61849000Y10795000D02*
X61849000Y14605000D01*
X19304000Y23495000D02*
X6604000Y23495000D01*
X5461000Y24638000D02*
X5461000Y27179000D01*
X6604000Y23495000D02*
X5461000Y24638000D01*
X31369000Y19525000D02*
X31369000Y20955000D01*
X31369000Y20955000D02*
X32639000Y22225000D01*
X38354000Y23495000D02*
X32639000Y23495000D01*
X32639000Y22225000D02*
X32639000Y23495000D01*
X32639000Y23495000D02*
X32639000Y24925000D01*
X32639000Y26175000D02*
X32144000Y26670000D01*
X32639000Y24925000D02*
X32639000Y26175000D01*
X32144000Y26670000D02*
X28194000Y26670000D01*
X28194000Y26670000D02*
X27559000Y26035000D01*
X27559000Y26035000D02*
X27559000Y24925000D01*
X27559000Y23675000D02*
X27559000Y24925000D01*
X27379000Y23495000D02*
X27559000Y23675000D01*
X19304000Y23495000D02*
X27379000Y23495000D01*
X44704000Y23675000D02*
X44704000Y24925000D01*
X44884000Y23495000D02*
X44704000Y23675000D01*
X54864000Y23495000D02*
X44884000Y23495000D01*
X39784000Y24925000D02*
X38354000Y23495000D01*
X44704000Y24925000D02*
X39784000Y24925000D01*
X54864000Y23495000D02*
X58674000Y23495000D01*
X58674000Y23495000D02*
X61849000Y20320000D01*
X61849000Y20320000D02*
X61849000Y14605000D01*
X59279000Y50419000D02*
X59279000Y48544000D01*
X59279000Y48544000D02*
X59309000Y48514000D01*
X59907542Y78977295D02*
X60572542Y78312295D01*
X57397542Y78977295D02*
X59907542Y78977295D01*
X59279000Y50419000D02*
X59279000Y69469000D01*
X61128779Y77756058D02*
X60572542Y78312295D01*
X61722552Y71325052D02*
X61722552Y77162285D01*
X61722552Y77162285D02*
X61128779Y77756058D01*
X59866500Y69469000D02*
X61722552Y71325052D01*
X59279000Y69469000D02*
X59866500Y69469000D01*
X63754000Y10765000D02*
X63724000Y10795000D01*
X63754000Y8890000D02*
X63754000Y10765000D01*
X63724000Y14605000D02*
X63724000Y10795000D01*
X19304000Y21620000D02*
X17429000Y21620000D01*
X16891000Y21082000D02*
X16891000Y17779000D01*
X17429000Y21620000D02*
X16891000Y21082000D01*
X38354000Y21620000D02*
X35844000Y21620000D01*
X35179000Y20955000D02*
X35179000Y19525000D01*
X35844000Y21620000D02*
X35179000Y20955000D01*
X35179000Y19075000D02*
X35179000Y19525000D01*
X32614000Y16510000D02*
X35179000Y19075000D01*
X26289000Y16510000D02*
X32614000Y16510000D01*
X19304000Y21620000D02*
X21179000Y21620000D01*
X21179000Y21620000D02*
X26289000Y16510000D01*
X54864000Y21620000D02*
X52989000Y21620000D01*
X52324000Y20955000D02*
X52324000Y19525000D01*
X52989000Y21620000D02*
X52324000Y20955000D01*
X54864000Y21620000D02*
X57374000Y21620000D01*
X57374000Y21620000D02*
X60579000Y18415000D01*
X60579000Y18415000D02*
X60579000Y8890000D01*
X38354000Y21620000D02*
X38910237Y22176237D01*
X38910237Y22176237D02*
X46010767Y22176237D01*
X46567004Y21620000D02*
X52989000Y21620000D01*
X46010767Y22176237D02*
X46567004Y21620000D01*
X57404000Y50419000D02*
X57404000Y48514000D01*
X54864000Y50419000D02*
X57404000Y50419000D01*
X54864000Y69469000D02*
X57404000Y69469000D01*
X57397542Y76437295D02*
X60572542Y76437295D01*
X57404000Y69469000D02*
X57404000Y50419000D01*
X57404000Y76430837D02*
X57397542Y76437295D01*
X57404000Y69469000D02*
X57404000Y76430837D01*
D22*
X5461000Y17104000D02*
X11717173Y10847827D01*
X18007878Y10847827D02*
X18573563Y10847827D01*
X11717173Y10847827D02*
X18007878Y10847827D01*
X5461000Y17779000D02*
X5461000Y17104000D01*
X19939000Y10160000D02*
X44704000Y10160000D01*
X45593000Y9271000D02*
X45593000Y1905000D01*
X44704000Y10160000D02*
X45593000Y9271000D01*
X5461000Y19004000D02*
X5334000Y19131000D01*
X5461000Y17779000D02*
X5461000Y19004000D01*
X5334000Y19131000D02*
X5334000Y19685000D01*
X44704000Y19525000D02*
X44704000Y20955000D01*
X42799000Y11430000D02*
X44613999Y13244999D01*
X23552004Y11430000D02*
X42799000Y11430000D01*
X44704000Y18525000D02*
X44704000Y19525000D01*
X44704000Y15678002D02*
X44704000Y18525000D01*
X15113000Y1905000D02*
X15113000Y6223000D01*
X15113000Y6223000D02*
X19213999Y10323999D01*
X44613999Y15588001D02*
X44704000Y15678002D01*
X23101993Y10979989D02*
X23552004Y11430000D01*
X19685987Y10979989D02*
X23101993Y10979989D01*
X19213999Y10508001D02*
X19685987Y10979989D01*
X44613999Y13244999D02*
X44613999Y15588001D01*
X19213999Y10323999D02*
X19213999Y10508001D01*
X15657998Y33745002D02*
X14224000Y35179000D01*
X37084000Y32929990D02*
X36268988Y33745002D01*
X36268988Y33745002D02*
X15657998Y33745002D01*
X5502622Y12277294D02*
X4936937Y12277294D01*
X12573000Y1905000D02*
X12573000Y6223000D01*
X12573000Y6223000D02*
X6518706Y12277294D01*
X6518706Y12277294D02*
X5502622Y12277294D01*
X35466006Y32294990D02*
X5284053Y32294990D01*
X5284053Y32294990D02*
X4718368Y32294990D01*
X42164000Y35179000D02*
X39189988Y32204988D01*
X39189988Y32204988D02*
X35556008Y32204988D01*
X35556008Y32204988D02*
X35466006Y32294990D01*
X4672767Y11583233D02*
X4217005Y11583233D01*
X10033000Y1905000D02*
X10033000Y6223000D01*
X10033000Y6223000D02*
X4672767Y11583233D01*
X41094988Y31569988D02*
X4042814Y31569988D01*
X4042814Y31569988D02*
X3919997Y31692805D01*
X44704000Y35179000D02*
X41094988Y31569988D01*
X7493000Y1905000D02*
X7493000Y6223000D01*
X6481000Y7235000D02*
X6481000Y7905125D01*
X6481000Y7905125D02*
X3919009Y10467116D01*
X7493000Y6223000D02*
X6481000Y7235000D01*
X3919009Y10467116D02*
X3519010Y10867115D01*
X47244000Y35179000D02*
X43009722Y30944722D01*
X43009722Y30944722D02*
X3246364Y30944722D01*
X4953000Y8001000D02*
X2794000Y10160000D01*
X4953000Y1905000D02*
X4953000Y8001000D01*
X15932004Y29845000D02*
X44450000Y29845000D01*
X15842002Y29935002D02*
X15932004Y29845000D01*
X15145998Y29935002D02*
X15842002Y29935002D01*
X6165996Y29845000D02*
X6255998Y29935002D01*
X2794000Y29845000D02*
X6165996Y29845000D01*
X44450000Y29845000D02*
X49784000Y35179000D01*
X6255998Y29935002D02*
X6952002Y29935002D01*
X6952002Y29935002D02*
X7042004Y29845000D01*
X7042004Y29845000D02*
X15055996Y29845000D01*
X15055996Y29845000D02*
X15145998Y29935002D01*
X2413000Y1905000D02*
X2413000Y7874000D01*
X2413000Y7874000D02*
X2794000Y8255000D01*
X6604000Y27052000D02*
X6731000Y27179000D01*
X6604000Y24765000D02*
X6604000Y27052000D01*
X6731000Y27179000D02*
X6731000Y29083000D01*
X6731000Y29083000D02*
X6604000Y29210000D01*
X44704000Y27305000D02*
X52959000Y27305000D01*
X35814000Y33020000D02*
X5423000Y33020000D01*
X4279000Y34164000D02*
X3429000Y34164000D01*
X5423000Y33020000D02*
X4279000Y34164000D01*
X3556000Y50928000D02*
X3556000Y39497000D01*
X2503999Y38444999D02*
X2503999Y36104001D01*
X3556000Y39497000D02*
X2503999Y38444999D01*
X3429000Y35179000D02*
X3429000Y34164000D01*
X2503999Y36104001D02*
X3429000Y35179000D01*
X30099000Y19525000D02*
X30099000Y20955000D01*
X31369000Y22225000D02*
X31369000Y24925000D01*
X30099000Y20955000D02*
X31369000Y22225000D01*
X30099000Y17780000D02*
X30099000Y19525000D01*
X28829000Y24925000D02*
X28829000Y19525000D01*
X28829000Y19525000D02*
X27559000Y19525000D01*
X27559000Y17780000D02*
X27559000Y19525000D01*
X16764000Y27052000D02*
X16891000Y27179000D01*
X16764000Y24765000D02*
X16764000Y27052000D01*
X15494000Y27052000D02*
X15621000Y27179000D01*
X15494000Y24765000D02*
X15494000Y27052000D01*
X14224000Y27052000D02*
X14351000Y27179000D01*
X14224000Y24765000D02*
X14224000Y27052000D01*
X12954000Y27052000D02*
X13081000Y27179000D01*
X12954000Y24765000D02*
X12954000Y27052000D01*
X11684000Y27052000D02*
X11811000Y27179000D01*
X11684000Y24765000D02*
X11684000Y27052000D01*
X10414000Y27052000D02*
X10541000Y27179000D01*
X10414000Y24765000D02*
X10414000Y27052000D01*
X9144000Y27052000D02*
X9271000Y27179000D01*
X9144000Y24765000D02*
X9144000Y27052000D01*
X7874000Y27052000D02*
X8001000Y27179000D01*
X7874000Y24765000D02*
X7874000Y27052000D01*
X6731000Y17779000D02*
X7281000Y17779000D01*
X7281000Y17779000D02*
X7375999Y17684001D01*
X7375999Y17684001D02*
X7375999Y16543999D01*
X22663990Y11614990D02*
X22714001Y11665001D01*
X22714001Y11665001D02*
X23114000Y12065000D01*
X12853600Y11614990D02*
X22663990Y11614990D01*
X7989591Y16478999D02*
X12853600Y11614990D01*
X7440999Y16478999D02*
X7989591Y16478999D01*
X7375999Y16543999D02*
X7440999Y16478999D01*
X22006886Y12372116D02*
X22406885Y12772115D01*
X8001000Y17779000D02*
X8001000Y17104000D01*
X8001000Y17104000D02*
X13040000Y12065000D01*
X21699770Y12065000D02*
X22006886Y12372116D01*
X13040000Y12065000D02*
X21699770Y12065000D01*
X20920540Y12700000D02*
X21299771Y13079231D01*
X9271000Y17104000D02*
X13675000Y12700000D01*
X9271000Y17779000D02*
X9271000Y17104000D01*
X13675000Y12700000D02*
X20920540Y12700000D01*
X21299771Y13079231D02*
X21699770Y13479230D01*
X14310000Y13335000D02*
X20141310Y13335000D01*
X20141310Y13335000D02*
X20592656Y13786346D01*
X20592656Y13786346D02*
X20992655Y14186345D01*
X10541000Y17779000D02*
X10541000Y17104000D01*
X10541000Y17104000D02*
X14310000Y13335000D01*
X11811000Y17779000D02*
X11811000Y17104000D01*
X14945000Y13970000D02*
X19362080Y13970000D01*
X19362080Y13970000D02*
X19885541Y14493461D01*
X11811000Y17104000D02*
X14945000Y13970000D01*
X19885541Y14493461D02*
X20285540Y14893460D01*
X19160531Y15200928D02*
X19560530Y15600927D01*
X15580000Y14605000D02*
X18564603Y14605000D01*
X13081000Y17104000D02*
X15580000Y14605000D01*
X13081000Y17779000D02*
X13081000Y17104000D01*
X18564603Y14605000D02*
X19160531Y15200928D01*
X14351000Y17104000D02*
X16215000Y15240000D01*
X16215000Y15240000D02*
X17758649Y15240000D01*
X18435521Y15916872D02*
X18835520Y16316871D01*
X17758649Y15240000D02*
X18435521Y15916872D01*
X14351000Y17779000D02*
X14351000Y17104000D01*
X16948096Y15875000D02*
X17710511Y16637415D01*
X17710511Y16637415D02*
X18110510Y17037414D01*
X16850000Y15875000D02*
X16948096Y15875000D01*
X15621000Y17104000D02*
X16850000Y15875000D01*
X15621000Y17779000D02*
X15621000Y17104000D01*
X45974000Y19525000D02*
X45974000Y20955000D01*
X18865998Y29210000D02*
X16059685Y29210000D01*
X16059685Y29210000D02*
X15494000Y29210000D01*
X18955999Y29300001D02*
X18865998Y29210000D01*
X19652001Y29300001D02*
X18955999Y29300001D01*
X19742002Y29210000D02*
X19652001Y29300001D01*
X45339000Y29210000D02*
X19742002Y29210000D01*
X32639000Y19525000D02*
X32639000Y20955000D01*
X30099000Y23495000D02*
X30099000Y24925000D01*
X19304000Y28575000D02*
X33274000Y28575000D01*
X33274000Y28575000D02*
X33909000Y27940000D01*
X33909000Y27940000D02*
X33909000Y24925000D01*
X4319000Y37464000D02*
X3429000Y37464000D01*
X6604000Y35179000D02*
X4319000Y37464000D01*
X3556000Y52832000D02*
X3556000Y54228000D01*
D24*
G36*
X65076000Y7747000D02*
X64223223Y7747000D01*
X64206652Y7830310D01*
X64140236Y7929708D01*
X64340280Y8012569D01*
X64631431Y8303720D01*
X64789000Y8684126D01*
X64789000Y9095874D01*
X64639000Y9458007D01*
X64639000Y9770070D01*
X64791102Y9997706D01*
X64858940Y10338750D01*
X64858940Y11251250D01*
X64791102Y11592294D01*
X64609000Y11864828D01*
X64609000Y13535172D01*
X64791102Y13807706D01*
X64858940Y14148750D01*
X64858940Y15061250D01*
X64791102Y15402294D01*
X64597916Y15691416D01*
X64308794Y15884602D01*
X63967750Y15952440D01*
X63480250Y15952440D01*
X63139206Y15884602D01*
X62850084Y15691416D01*
X62786500Y15596256D01*
X62734000Y15674828D01*
X62734000Y20232841D01*
X62751337Y20320001D01*
X62734000Y20407160D01*
X62734000Y20407165D01*
X62682652Y20665310D01*
X62573669Y20828414D01*
X62536424Y20884155D01*
X62536423Y20884156D01*
X62487049Y20958049D01*
X62413156Y21007423D01*
X60336431Y23084147D01*
X60186431Y23446280D01*
X59895280Y23737431D01*
X59533147Y23887431D01*
X59361424Y24059154D01*
X59312049Y24133049D01*
X59019310Y24328652D01*
X58761165Y24380000D01*
X58761161Y24380000D01*
X58674000Y24397337D01*
X58586839Y24380000D01*
X55933828Y24380000D01*
X55661294Y24562102D01*
X55320250Y24629940D01*
X54407750Y24629940D01*
X54066706Y24562102D01*
X53794172Y24380000D01*
X53271440Y24380000D01*
X53271440Y25675000D01*
X53259000Y25737541D01*
X53259000Y25801309D01*
X53234597Y25860222D01*
X53222157Y25922765D01*
X53186729Y25975786D01*
X53162327Y26034698D01*
X53117236Y26079789D01*
X53081809Y26132809D01*
X53028791Y26168235D01*
X52983699Y26213327D01*
X52924785Y26237730D01*
X52876490Y26270000D01*
X53164874Y26270000D01*
X53545280Y26427569D01*
X53836431Y26718720D01*
X53994000Y27099126D01*
X53994000Y27510874D01*
X53836431Y27891280D01*
X53545280Y28182431D01*
X53164874Y28340000D01*
X52753126Y28340000D01*
X52372720Y28182431D01*
X52255289Y28065000D01*
X45407711Y28065000D01*
X45297711Y28175000D01*
X45544874Y28175000D01*
X45925280Y28332569D01*
X46216431Y28623720D01*
X46374000Y29004126D01*
X46374000Y29415874D01*
X46216431Y29796280D01*
X45925280Y30087431D01*
X45813523Y30133722D01*
X49460114Y33780312D01*
X49642667Y33744000D01*
X49925333Y33744000D01*
X50343909Y33827260D01*
X50818577Y34144423D01*
X51054000Y34496758D01*
X51289423Y34144423D01*
X51764091Y33827260D01*
X52182667Y33744000D01*
X52465333Y33744000D01*
X52883909Y33827260D01*
X53358577Y34144423D01*
X53594000Y34496758D01*
X53829423Y34144423D01*
X54304091Y33827260D01*
X54722667Y33744000D01*
X55005333Y33744000D01*
X55423909Y33827260D01*
X55898577Y34144423D01*
X56215740Y34619091D01*
X56327113Y35179000D01*
X56215740Y35738909D01*
X55898577Y36213577D01*
X55621288Y36398855D01*
X55579904Y36606907D01*
X55411929Y36858299D01*
X55348473Y36900699D01*
X54680701Y37568470D01*
X54638299Y37631929D01*
X54386907Y37799904D01*
X54165222Y37844000D01*
X54165217Y37844000D01*
X54090370Y37858888D01*
X54015523Y37844000D01*
X27238803Y37844000D01*
X16398999Y48683802D01*
X16398999Y49028490D01*
X16622667Y48984000D01*
X16905333Y48984000D01*
X17323909Y49067260D01*
X17798577Y49384423D01*
X18034000Y49736758D01*
X18269423Y49384423D01*
X18744091Y49067260D01*
X19162667Y48984000D01*
X19445333Y48984000D01*
X19863909Y49067260D01*
X20338577Y49384423D01*
X20574000Y49736758D01*
X20809423Y49384423D01*
X21284091Y49067260D01*
X21702667Y48984000D01*
X21985333Y48984000D01*
X22403909Y49067260D01*
X22878577Y49384423D01*
X23114000Y49736758D01*
X23349423Y49384423D01*
X23824091Y49067260D01*
X24242667Y48984000D01*
X24525333Y48984000D01*
X24943909Y49067260D01*
X25418577Y49384423D01*
X25654000Y49736758D01*
X25889423Y49384423D01*
X26364091Y49067260D01*
X26782667Y48984000D01*
X27065333Y48984000D01*
X27483909Y49067260D01*
X27958577Y49384423D01*
X28194000Y49736758D01*
X28429423Y49384423D01*
X28904091Y49067260D01*
X29322667Y48984000D01*
X29605333Y48984000D01*
X30023909Y49067260D01*
X30498577Y49384423D01*
X30734000Y49736758D01*
X30969423Y49384423D01*
X31444091Y49067260D01*
X31862667Y48984000D01*
X32145333Y48984000D01*
X32563909Y49067260D01*
X33038577Y49384423D01*
X33274000Y49736758D01*
X33509423Y49384423D01*
X33984091Y49067260D01*
X34402667Y48984000D01*
X34685333Y48984000D01*
X35103909Y49067260D01*
X35578577Y49384423D01*
X35814000Y49736758D01*
X36049423Y49384423D01*
X36524091Y49067260D01*
X36942667Y48984000D01*
X37225333Y48984000D01*
X37643909Y49067260D01*
X38118577Y49384423D01*
X38354000Y49736758D01*
X38589423Y49384423D01*
X39064091Y49067260D01*
X39482667Y48984000D01*
X39765333Y48984000D01*
X40183909Y49067260D01*
X40658577Y49384423D01*
X40894000Y49736758D01*
X41129423Y49384423D01*
X41604091Y49067260D01*
X42022667Y48984000D01*
X42305333Y48984000D01*
X42723909Y49067260D01*
X43198577Y49384423D01*
X43434000Y49736758D01*
X43669423Y49384423D01*
X44144091Y49067260D01*
X44562667Y48984000D01*
X44845333Y48984000D01*
X45263909Y49067260D01*
X45738577Y49384423D01*
X45974000Y49736758D01*
X46209423Y49384423D01*
X46684091Y49067260D01*
X47102667Y48984000D01*
X47385333Y48984000D01*
X47803909Y49067260D01*
X48278577Y49384423D01*
X48514000Y49736758D01*
X48749423Y49384423D01*
X49224091Y49067260D01*
X49642667Y48984000D01*
X49925333Y48984000D01*
X50343909Y49067260D01*
X50818577Y49384423D01*
X51054000Y49736758D01*
X51289423Y49384423D01*
X51764091Y49067260D01*
X52182667Y48984000D01*
X52465333Y48984000D01*
X52883909Y49067260D01*
X53358577Y49384423D01*
X53439215Y49505106D01*
X53465843Y49371235D01*
X53606191Y49161191D01*
X53816235Y49020843D01*
X54064000Y48971560D01*
X55664000Y48971560D01*
X55911765Y49020843D01*
X56121809Y49161191D01*
X56262157Y49371235D01*
X56294533Y49534000D01*
X56395502Y49534000D01*
X56519001Y49349171D01*
X56519001Y49082008D01*
X56369000Y48719874D01*
X56369000Y48308126D01*
X56526569Y47927720D01*
X56817720Y47636569D01*
X57198126Y47479000D01*
X57609874Y47479000D01*
X57990280Y47636569D01*
X58281431Y47927720D01*
X58356500Y48108953D01*
X58431569Y47927720D01*
X58722720Y47636569D01*
X59103126Y47479000D01*
X59514874Y47479000D01*
X59895280Y47636569D01*
X60186431Y47927720D01*
X60344000Y48308126D01*
X60344000Y48719874D01*
X60186431Y49100280D01*
X60164000Y49122711D01*
X60164000Y49349172D01*
X60346102Y49621706D01*
X60413940Y49962750D01*
X60413940Y50875250D01*
X60346102Y51216294D01*
X60164000Y51488828D01*
X60164000Y68399172D01*
X60346102Y68671706D01*
X60358346Y68733261D01*
X60504549Y68830951D01*
X60553925Y68904847D01*
X62286708Y70637629D01*
X62360601Y70687003D01*
X62427899Y70787720D01*
X62556204Y70979742D01*
X62593664Y71168068D01*
X62607552Y71237887D01*
X62607552Y71237891D01*
X62624889Y71325052D01*
X62607552Y71412213D01*
X62607552Y77075124D01*
X62624889Y77162285D01*
X62607552Y77249446D01*
X62607552Y77249450D01*
X62556204Y77507595D01*
X62454685Y77659528D01*
X62409976Y77726440D01*
X62409975Y77726441D01*
X62360601Y77800334D01*
X62286708Y77849708D01*
X61919982Y78216433D01*
X61919982Y78556045D01*
X61852144Y78897089D01*
X61658958Y79186211D01*
X61369836Y79379397D01*
X61028792Y79447235D01*
X60689180Y79447235D01*
X60594967Y79541448D01*
X60545591Y79615344D01*
X60252852Y79810947D01*
X59994707Y79862295D01*
X59994703Y79862295D01*
X59907542Y79879632D01*
X59820381Y79862295D01*
X58888020Y79862295D01*
X58845699Y80075060D01*
X58705351Y80285104D01*
X58495307Y80425452D01*
X58247542Y80474735D01*
X56547542Y80474735D01*
X56299777Y80425452D01*
X56143271Y80320877D01*
X55961765Y80442157D01*
X55714000Y80491440D01*
X54014000Y80491440D01*
X53766235Y80442157D01*
X53556191Y80301809D01*
X53415843Y80091765D01*
X53406816Y80046381D01*
X53394625Y80064625D01*
X52903418Y80392839D01*
X52470256Y80479000D01*
X52177744Y80479000D01*
X51744582Y80392839D01*
X51253375Y80064625D01*
X51054000Y79766239D01*
X50854625Y80064625D01*
X50363418Y80392839D01*
X49930256Y80479000D01*
X49637744Y80479000D01*
X49204582Y80392839D01*
X48713375Y80064625D01*
X48514000Y79766239D01*
X48314625Y80064625D01*
X47823418Y80392839D01*
X47390256Y80479000D01*
X47097744Y80479000D01*
X46664582Y80392839D01*
X46173375Y80064625D01*
X45974000Y79766239D01*
X45774625Y80064625D01*
X45283418Y80392839D01*
X44850256Y80479000D01*
X44557744Y80479000D01*
X44124582Y80392839D01*
X43633375Y80064625D01*
X43434000Y79766239D01*
X43234625Y80064625D01*
X42743418Y80392839D01*
X42310256Y80479000D01*
X42017744Y80479000D01*
X41584582Y80392839D01*
X41093375Y80064625D01*
X40894000Y79766239D01*
X40694625Y80064625D01*
X40203418Y80392839D01*
X39770256Y80479000D01*
X39477744Y80479000D01*
X39044582Y80392839D01*
X38553375Y80064625D01*
X38354000Y79766239D01*
X38154625Y80064625D01*
X37663418Y80392839D01*
X37230256Y80479000D01*
X36937744Y80479000D01*
X36504582Y80392839D01*
X36013375Y80064625D01*
X35814000Y79766239D01*
X35614625Y80064625D01*
X35123418Y80392839D01*
X34690256Y80479000D01*
X34397744Y80479000D01*
X33964582Y80392839D01*
X33473375Y80064625D01*
X33274000Y79766239D01*
X33074625Y80064625D01*
X32583418Y80392839D01*
X32150256Y80479000D01*
X31857744Y80479000D01*
X31424582Y80392839D01*
X30933375Y80064625D01*
X30734000Y79766239D01*
X30534625Y80064625D01*
X30043418Y80392839D01*
X29610256Y80479000D01*
X29317744Y80479000D01*
X28884582Y80392839D01*
X28393375Y80064625D01*
X28194000Y79766239D01*
X27994625Y80064625D01*
X27503418Y80392839D01*
X27070256Y80479000D01*
X26777744Y80479000D01*
X26344582Y80392839D01*
X25853375Y80064625D01*
X25654000Y79766239D01*
X25454625Y80064625D01*
X24963418Y80392839D01*
X24530256Y80479000D01*
X24237744Y80479000D01*
X23804582Y80392839D01*
X23313375Y80064625D01*
X23114000Y79766239D01*
X22914625Y80064625D01*
X22423418Y80392839D01*
X21990256Y80479000D01*
X21697744Y80479000D01*
X21264582Y80392839D01*
X20773375Y80064625D01*
X20574000Y79766239D01*
X20374625Y80064625D01*
X19883418Y80392839D01*
X19450256Y80479000D01*
X19157744Y80479000D01*
X18724582Y80392839D01*
X18233375Y80064625D01*
X18034000Y79766239D01*
X17834625Y80064625D01*
X17343418Y80392839D01*
X16910256Y80479000D01*
X16617744Y80479000D01*
X16184582Y80392839D01*
X15693375Y80064625D01*
X15494000Y79766239D01*
X15294625Y80064625D01*
X14803418Y80392839D01*
X14370256Y80479000D01*
X14077744Y80479000D01*
X13644582Y80392839D01*
X13153375Y80064625D01*
X12954000Y79766239D01*
X12754625Y80064625D01*
X12263418Y80392839D01*
X11830256Y80479000D01*
X11537744Y80479000D01*
X11104582Y80392839D01*
X10613375Y80064625D01*
X10414000Y79766239D01*
X10214625Y80064625D01*
X9723418Y80392839D01*
X9290256Y80479000D01*
X8997744Y80479000D01*
X8564582Y80392839D01*
X8073375Y80064625D01*
X7874000Y79766239D01*
X7674625Y80064625D01*
X7183418Y80392839D01*
X6750256Y80479000D01*
X6457744Y80479000D01*
X6051000Y80398094D01*
X6051000Y80697000D01*
X65076001Y80697000D01*
X65076000Y7747000D01*
X65076000Y7747000D01*
G37*
X65076000Y7747000D02*
X64223223Y7747000D01*
X64206652Y7830310D01*
X64140236Y7929708D01*
X64340280Y8012569D01*
X64631431Y8303720D01*
X64789000Y8684126D01*
X64789000Y9095874D01*
X64639000Y9458007D01*
X64639000Y9770070D01*
X64791102Y9997706D01*
X64858940Y10338750D01*
X64858940Y11251250D01*
X64791102Y11592294D01*
X64609000Y11864828D01*
X64609000Y13535172D01*
X64791102Y13807706D01*
X64858940Y14148750D01*
X64858940Y15061250D01*
X64791102Y15402294D01*
X64597916Y15691416D01*
X64308794Y15884602D01*
X63967750Y15952440D01*
X63480250Y15952440D01*
X63139206Y15884602D01*
X62850084Y15691416D01*
X62786500Y15596256D01*
X62734000Y15674828D01*
X62734000Y20232841D01*
X62751337Y20320001D01*
X62734000Y20407160D01*
X62734000Y20407165D01*
X62682652Y20665310D01*
X62573669Y20828414D01*
X62536424Y20884155D01*
X62536423Y20884156D01*
X62487049Y20958049D01*
X62413156Y21007423D01*
X60336431Y23084147D01*
X60186431Y23446280D01*
X59895280Y23737431D01*
X59533147Y23887431D01*
X59361424Y24059154D01*
X59312049Y24133049D01*
X59019310Y24328652D01*
X58761165Y24380000D01*
X58761161Y24380000D01*
X58674000Y24397337D01*
X58586839Y24380000D01*
X55933828Y24380000D01*
X55661294Y24562102D01*
X55320250Y24629940D01*
X54407750Y24629940D01*
X54066706Y24562102D01*
X53794172Y24380000D01*
X53271440Y24380000D01*
X53271440Y25675000D01*
X53259000Y25737541D01*
X53259000Y25801309D01*
X53234597Y25860222D01*
X53222157Y25922765D01*
X53186729Y25975786D01*
X53162327Y26034698D01*
X53117236Y26079789D01*
X53081809Y26132809D01*
X53028791Y26168235D01*
X52983699Y26213327D01*
X52924785Y26237730D01*
X52876490Y26270000D01*
X53164874Y26270000D01*
X53545280Y26427569D01*
X53836431Y26718720D01*
X53994000Y27099126D01*
X53994000Y27510874D01*
X53836431Y27891280D01*
X53545280Y28182431D01*
X53164874Y28340000D01*
X52753126Y28340000D01*
X52372720Y28182431D01*
X52255289Y28065000D01*
X45407711Y28065000D01*
X45297711Y28175000D01*
X45544874Y28175000D01*
X45925280Y28332569D01*
X46216431Y28623720D01*
X46374000Y29004126D01*
X46374000Y29415874D01*
X46216431Y29796280D01*
X45925280Y30087431D01*
X45813523Y30133722D01*
X49460114Y33780312D01*
X49642667Y33744000D01*
X49925333Y33744000D01*
X50343909Y33827260D01*
X50818577Y34144423D01*
X51054000Y34496758D01*
X51289423Y34144423D01*
X51764091Y33827260D01*
X52182667Y33744000D01*
X52465333Y33744000D01*
X52883909Y33827260D01*
X53358577Y34144423D01*
X53594000Y34496758D01*
X53829423Y34144423D01*
X54304091Y33827260D01*
X54722667Y33744000D01*
X55005333Y33744000D01*
X55423909Y33827260D01*
X55898577Y34144423D01*
X56215740Y34619091D01*
X56327113Y35179000D01*
X56215740Y35738909D01*
X55898577Y36213577D01*
X55621288Y36398855D01*
X55579904Y36606907D01*
X55411929Y36858299D01*
X55348473Y36900699D01*
X54680701Y37568470D01*
X54638299Y37631929D01*
X54386907Y37799904D01*
X54165222Y37844000D01*
X54165217Y37844000D01*
X54090370Y37858888D01*
X54015523Y37844000D01*
X27238803Y37844000D01*
X16398999Y48683802D01*
X16398999Y49028490D01*
X16622667Y48984000D01*
X16905333Y48984000D01*
X17323909Y49067260D01*
X17798577Y49384423D01*
X18034000Y49736758D01*
X18269423Y49384423D01*
X18744091Y49067260D01*
X19162667Y48984000D01*
X19445333Y48984000D01*
X19863909Y49067260D01*
X20338577Y49384423D01*
X20574000Y49736758D01*
X20809423Y49384423D01*
X21284091Y49067260D01*
X21702667Y48984000D01*
X21985333Y48984000D01*
X22403909Y49067260D01*
X22878577Y49384423D01*
X23114000Y49736758D01*
X23349423Y49384423D01*
X23824091Y49067260D01*
X24242667Y48984000D01*
X24525333Y48984000D01*
X24943909Y49067260D01*
X25418577Y49384423D01*
X25654000Y49736758D01*
X25889423Y49384423D01*
X26364091Y49067260D01*
X26782667Y48984000D01*
X27065333Y48984000D01*
X27483909Y49067260D01*
X27958577Y49384423D01*
X28194000Y49736758D01*
X28429423Y49384423D01*
X28904091Y49067260D01*
X29322667Y48984000D01*
X29605333Y48984000D01*
X30023909Y49067260D01*
X30498577Y49384423D01*
X30734000Y49736758D01*
X30969423Y49384423D01*
X31444091Y49067260D01*
X31862667Y48984000D01*
X32145333Y48984000D01*
X32563909Y49067260D01*
X33038577Y49384423D01*
X33274000Y49736758D01*
X33509423Y49384423D01*
X33984091Y49067260D01*
X34402667Y48984000D01*
X34685333Y48984000D01*
X35103909Y49067260D01*
X35578577Y49384423D01*
X35814000Y49736758D01*
X36049423Y49384423D01*
X36524091Y49067260D01*
X36942667Y48984000D01*
X37225333Y48984000D01*
X37643909Y49067260D01*
X38118577Y49384423D01*
X38354000Y49736758D01*
X38589423Y49384423D01*
X39064091Y49067260D01*
X39482667Y48984000D01*
X39765333Y48984000D01*
X40183909Y49067260D01*
X40658577Y49384423D01*
X40894000Y49736758D01*
X41129423Y49384423D01*
X41604091Y49067260D01*
X42022667Y48984000D01*
X42305333Y48984000D01*
X42723909Y49067260D01*
X43198577Y49384423D01*
X43434000Y49736758D01*
X43669423Y49384423D01*
X44144091Y49067260D01*
X44562667Y48984000D01*
X44845333Y48984000D01*
X45263909Y49067260D01*
X45738577Y49384423D01*
X45974000Y49736758D01*
X46209423Y49384423D01*
X46684091Y49067260D01*
X47102667Y48984000D01*
X47385333Y48984000D01*
X47803909Y49067260D01*
X48278577Y49384423D01*
X48514000Y49736758D01*
X48749423Y49384423D01*
X49224091Y49067260D01*
X49642667Y48984000D01*
X49925333Y48984000D01*
X50343909Y49067260D01*
X50818577Y49384423D01*
X51054000Y49736758D01*
X51289423Y49384423D01*
X51764091Y49067260D01*
X52182667Y48984000D01*
X52465333Y48984000D01*
X52883909Y49067260D01*
X53358577Y49384423D01*
X53439215Y49505106D01*
X53465843Y49371235D01*
X53606191Y49161191D01*
X53816235Y49020843D01*
X54064000Y48971560D01*
X55664000Y48971560D01*
X55911765Y49020843D01*
X56121809Y49161191D01*
X56262157Y49371235D01*
X56294533Y49534000D01*
X56395502Y49534000D01*
X56519001Y49349171D01*
X56519001Y49082008D01*
X56369000Y48719874D01*
X56369000Y48308126D01*
X56526569Y47927720D01*
X56817720Y47636569D01*
X57198126Y47479000D01*
X57609874Y47479000D01*
X57990280Y47636569D01*
X58281431Y47927720D01*
X58356500Y48108953D01*
X58431569Y47927720D01*
X58722720Y47636569D01*
X59103126Y47479000D01*
X59514874Y47479000D01*
X59895280Y47636569D01*
X60186431Y47927720D01*
X60344000Y48308126D01*
X60344000Y48719874D01*
X60186431Y49100280D01*
X60164000Y49122711D01*
X60164000Y49349172D01*
X60346102Y49621706D01*
X60413940Y49962750D01*
X60413940Y50875250D01*
X60346102Y51216294D01*
X60164000Y51488828D01*
X60164000Y68399172D01*
X60346102Y68671706D01*
X60358346Y68733261D01*
X60504549Y68830951D01*
X60553925Y68904847D01*
X62286708Y70637629D01*
X62360601Y70687003D01*
X62427899Y70787720D01*
X62556204Y70979742D01*
X62593664Y71168068D01*
X62607552Y71237887D01*
X62607552Y71237891D01*
X62624889Y71325052D01*
X62607552Y71412213D01*
X62607552Y77075124D01*
X62624889Y77162285D01*
X62607552Y77249446D01*
X62607552Y77249450D01*
X62556204Y77507595D01*
X62454685Y77659528D01*
X62409976Y77726440D01*
X62409975Y77726441D01*
X62360601Y77800334D01*
X62286708Y77849708D01*
X61919982Y78216433D01*
X61919982Y78556045D01*
X61852144Y78897089D01*
X61658958Y79186211D01*
X61369836Y79379397D01*
X61028792Y79447235D01*
X60689180Y79447235D01*
X60594967Y79541448D01*
X60545591Y79615344D01*
X60252852Y79810947D01*
X59994707Y79862295D01*
X59994703Y79862295D01*
X59907542Y79879632D01*
X59820381Y79862295D01*
X58888020Y79862295D01*
X58845699Y80075060D01*
X58705351Y80285104D01*
X58495307Y80425452D01*
X58247542Y80474735D01*
X56547542Y80474735D01*
X56299777Y80425452D01*
X56143271Y80320877D01*
X55961765Y80442157D01*
X55714000Y80491440D01*
X54014000Y80491440D01*
X53766235Y80442157D01*
X53556191Y80301809D01*
X53415843Y80091765D01*
X53406816Y80046381D01*
X53394625Y80064625D01*
X52903418Y80392839D01*
X52470256Y80479000D01*
X52177744Y80479000D01*
X51744582Y80392839D01*
X51253375Y80064625D01*
X51054000Y79766239D01*
X50854625Y80064625D01*
X50363418Y80392839D01*
X49930256Y80479000D01*
X49637744Y80479000D01*
X49204582Y80392839D01*
X48713375Y80064625D01*
X48514000Y79766239D01*
X48314625Y80064625D01*
X47823418Y80392839D01*
X47390256Y80479000D01*
X47097744Y80479000D01*
X46664582Y80392839D01*
X46173375Y80064625D01*
X45974000Y79766239D01*
X45774625Y80064625D01*
X45283418Y80392839D01*
X44850256Y80479000D01*
X44557744Y80479000D01*
X44124582Y80392839D01*
X43633375Y80064625D01*
X43434000Y79766239D01*
X43234625Y80064625D01*
X42743418Y80392839D01*
X42310256Y80479000D01*
X42017744Y80479000D01*
X41584582Y80392839D01*
X41093375Y80064625D01*
X40894000Y79766239D01*
X40694625Y80064625D01*
X40203418Y80392839D01*
X39770256Y80479000D01*
X39477744Y80479000D01*
X39044582Y80392839D01*
X38553375Y80064625D01*
X38354000Y79766239D01*
X38154625Y80064625D01*
X37663418Y80392839D01*
X37230256Y80479000D01*
X36937744Y80479000D01*
X36504582Y80392839D01*
X36013375Y80064625D01*
X35814000Y79766239D01*
X35614625Y80064625D01*
X35123418Y80392839D01*
X34690256Y80479000D01*
X34397744Y80479000D01*
X33964582Y80392839D01*
X33473375Y80064625D01*
X33274000Y79766239D01*
X33074625Y80064625D01*
X32583418Y80392839D01*
X32150256Y80479000D01*
X31857744Y80479000D01*
X31424582Y80392839D01*
X30933375Y80064625D01*
X30734000Y79766239D01*
X30534625Y80064625D01*
X30043418Y80392839D01*
X29610256Y80479000D01*
X29317744Y80479000D01*
X28884582Y80392839D01*
X28393375Y80064625D01*
X28194000Y79766239D01*
X27994625Y80064625D01*
X27503418Y80392839D01*
X27070256Y80479000D01*
X26777744Y80479000D01*
X26344582Y80392839D01*
X25853375Y80064625D01*
X25654000Y79766239D01*
X25454625Y80064625D01*
X24963418Y80392839D01*
X24530256Y80479000D01*
X24237744Y80479000D01*
X23804582Y80392839D01*
X23313375Y80064625D01*
X23114000Y79766239D01*
X22914625Y80064625D01*
X22423418Y80392839D01*
X21990256Y80479000D01*
X21697744Y80479000D01*
X21264582Y80392839D01*
X20773375Y80064625D01*
X20574000Y79766239D01*
X20374625Y80064625D01*
X19883418Y80392839D01*
X19450256Y80479000D01*
X19157744Y80479000D01*
X18724582Y80392839D01*
X18233375Y80064625D01*
X18034000Y79766239D01*
X17834625Y80064625D01*
X17343418Y80392839D01*
X16910256Y80479000D01*
X16617744Y80479000D01*
X16184582Y80392839D01*
X15693375Y80064625D01*
X15494000Y79766239D01*
X15294625Y80064625D01*
X14803418Y80392839D01*
X14370256Y80479000D01*
X14077744Y80479000D01*
X13644582Y80392839D01*
X13153375Y80064625D01*
X12954000Y79766239D01*
X12754625Y80064625D01*
X12263418Y80392839D01*
X11830256Y80479000D01*
X11537744Y80479000D01*
X11104582Y80392839D01*
X10613375Y80064625D01*
X10414000Y79766239D01*
X10214625Y80064625D01*
X9723418Y80392839D01*
X9290256Y80479000D01*
X8997744Y80479000D01*
X8564582Y80392839D01*
X8073375Y80064625D01*
X7874000Y79766239D01*
X7674625Y80064625D01*
X7183418Y80392839D01*
X6750256Y80479000D01*
X6457744Y80479000D01*
X6051000Y80398094D01*
X6051000Y80697000D01*
X65076001Y80697000D01*
X65076000Y7747000D01*
G36*
X54066706Y20552898D02*
X54407750Y20485060D01*
X55320250Y20485060D01*
X55661294Y20552898D01*
X55933828Y20735000D01*
X56795289Y20735000D01*
X56817720Y20712569D01*
X57179853Y20562569D01*
X59694000Y18048421D01*
X59694001Y9458009D01*
X59544000Y9095874D01*
X59544000Y8684126D01*
X59701569Y8303720D01*
X59992720Y8012569D01*
X60373126Y7855000D01*
X60784874Y7855000D01*
X61165280Y8012569D01*
X61379566Y8226855D01*
X61859421Y7747000D01*
X46353000Y7747000D01*
X46353000Y9196153D01*
X46367888Y9271000D01*
X46353000Y9345847D01*
X46353000Y9345852D01*
X46308904Y9567537D01*
X46140929Y9818929D01*
X46077473Y9861329D01*
X45294331Y10644470D01*
X45251929Y10707929D01*
X45000537Y10875904D01*
X44778852Y10920000D01*
X44778847Y10920000D01*
X44704000Y10934888D01*
X44629153Y10920000D01*
X43372272Y10920000D01*
X43389331Y10945530D01*
X45098472Y12654670D01*
X45161928Y12697070D01*
X45329903Y12948462D01*
X45373999Y13170147D01*
X45373999Y13170151D01*
X45388887Y13244998D01*
X45373999Y13319845D01*
X45373999Y15312763D01*
X45419904Y15381465D01*
X45464000Y15603150D01*
X45464000Y15603154D01*
X45478888Y15678002D01*
X45464000Y15752850D01*
X45464000Y18169331D01*
X45674000Y18127560D01*
X46274000Y18127560D01*
X46521765Y18176843D01*
X46600972Y18229768D01*
X46643215Y18212270D01*
X46696235Y18176843D01*
X46758776Y18164403D01*
X46817690Y18140000D01*
X46881459Y18140000D01*
X46944000Y18127560D01*
X47544000Y18127560D01*
X47606541Y18140000D01*
X47670310Y18140000D01*
X47729224Y18164403D01*
X47791765Y18176843D01*
X47844785Y18212270D01*
X47879000Y18226442D01*
X47913215Y18212270D01*
X47966235Y18176843D01*
X48028776Y18164403D01*
X48087690Y18140000D01*
X48151459Y18140000D01*
X48214000Y18127560D01*
X48814000Y18127560D01*
X48876541Y18140000D01*
X48940310Y18140000D01*
X48999224Y18164403D01*
X49061765Y18176843D01*
X49114785Y18212270D01*
X49149000Y18226442D01*
X49183215Y18212270D01*
X49236235Y18176843D01*
X49298776Y18164403D01*
X49357690Y18140000D01*
X49421459Y18140000D01*
X49484000Y18127560D01*
X50084000Y18127560D01*
X50146541Y18140000D01*
X50210310Y18140000D01*
X50269224Y18164403D01*
X50331765Y18176843D01*
X50384785Y18212270D01*
X50419000Y18226442D01*
X50453215Y18212270D01*
X50506235Y18176843D01*
X50568776Y18164403D01*
X50627690Y18140000D01*
X50691459Y18140000D01*
X50754000Y18127560D01*
X51354000Y18127560D01*
X51416541Y18140000D01*
X51480310Y18140000D01*
X51539224Y18164403D01*
X51601765Y18176843D01*
X51654785Y18212270D01*
X51697028Y18229768D01*
X51776235Y18176843D01*
X52024000Y18127560D01*
X52624000Y18127560D01*
X52871765Y18176843D01*
X53081809Y18317191D01*
X53222157Y18527235D01*
X53271440Y18775000D01*
X53271440Y20275000D01*
X53222157Y20522765D01*
X53209000Y20542456D01*
X53209000Y20588422D01*
X53355579Y20735000D01*
X53794172Y20735000D01*
X54066706Y20552898D01*
X54066706Y20552898D01*
G37*
X54066706Y20552898D02*
X54407750Y20485060D01*
X55320250Y20485060D01*
X55661294Y20552898D01*
X55933828Y20735000D01*
X56795289Y20735000D01*
X56817720Y20712569D01*
X57179853Y20562569D01*
X59694000Y18048421D01*
X59694001Y9458009D01*
X59544000Y9095874D01*
X59544000Y8684126D01*
X59701569Y8303720D01*
X59992720Y8012569D01*
X60373126Y7855000D01*
X60784874Y7855000D01*
X61165280Y8012569D01*
X61379566Y8226855D01*
X61859421Y7747000D01*
X46353000Y7747000D01*
X46353000Y9196153D01*
X46367888Y9271000D01*
X46353000Y9345847D01*
X46353000Y9345852D01*
X46308904Y9567537D01*
X46140929Y9818929D01*
X46077473Y9861329D01*
X45294331Y10644470D01*
X45251929Y10707929D01*
X45000537Y10875904D01*
X44778852Y10920000D01*
X44778847Y10920000D01*
X44704000Y10934888D01*
X44629153Y10920000D01*
X43372272Y10920000D01*
X43389331Y10945530D01*
X45098472Y12654670D01*
X45161928Y12697070D01*
X45329903Y12948462D01*
X45373999Y13170147D01*
X45373999Y13170151D01*
X45388887Y13244998D01*
X45373999Y13319845D01*
X45373999Y15312763D01*
X45419904Y15381465D01*
X45464000Y15603150D01*
X45464000Y15603154D01*
X45478888Y15678002D01*
X45464000Y15752850D01*
X45464000Y18169331D01*
X45674000Y18127560D01*
X46274000Y18127560D01*
X46521765Y18176843D01*
X46600972Y18229768D01*
X46643215Y18212270D01*
X46696235Y18176843D01*
X46758776Y18164403D01*
X46817690Y18140000D01*
X46881459Y18140000D01*
X46944000Y18127560D01*
X47544000Y18127560D01*
X47606541Y18140000D01*
X47670310Y18140000D01*
X47729224Y18164403D01*
X47791765Y18176843D01*
X47844785Y18212270D01*
X47879000Y18226442D01*
X47913215Y18212270D01*
X47966235Y18176843D01*
X48028776Y18164403D01*
X48087690Y18140000D01*
X48151459Y18140000D01*
X48214000Y18127560D01*
X48814000Y18127560D01*
X48876541Y18140000D01*
X48940310Y18140000D01*
X48999224Y18164403D01*
X49061765Y18176843D01*
X49114785Y18212270D01*
X49149000Y18226442D01*
X49183215Y18212270D01*
X49236235Y18176843D01*
X49298776Y18164403D01*
X49357690Y18140000D01*
X49421459Y18140000D01*
X49484000Y18127560D01*
X50084000Y18127560D01*
X50146541Y18140000D01*
X50210310Y18140000D01*
X50269224Y18164403D01*
X50331765Y18176843D01*
X50384785Y18212270D01*
X50419000Y18226442D01*
X50453215Y18212270D01*
X50506235Y18176843D01*
X50568776Y18164403D01*
X50627690Y18140000D01*
X50691459Y18140000D01*
X50754000Y18127560D01*
X51354000Y18127560D01*
X51416541Y18140000D01*
X51480310Y18140000D01*
X51539224Y18164403D01*
X51601765Y18176843D01*
X51654785Y18212270D01*
X51697028Y18229768D01*
X51776235Y18176843D01*
X52024000Y18127560D01*
X52624000Y18127560D01*
X52871765Y18176843D01*
X53081809Y18317191D01*
X53222157Y18527235D01*
X53271440Y18775000D01*
X53271440Y20275000D01*
X53222157Y20522765D01*
X53209000Y20542456D01*
X53209000Y20588422D01*
X53355579Y20735000D01*
X53794172Y20735000D01*
X54066706Y20552898D01*
G36*
X44833000Y8956198D02*
X44833000Y7747000D01*
X17711802Y7747000D01*
X19300046Y9335243D01*
X19352720Y9282569D01*
X19733126Y9125000D01*
X20144874Y9125000D01*
X20525280Y9282569D01*
X20642711Y9400000D01*
X44389199Y9400000D01*
X44833000Y8956198D01*
X44833000Y8956198D01*
G37*
X44833000Y8956198D02*
X44833000Y7747000D01*
X17711802Y7747000D01*
X19300046Y9335243D01*
X19352720Y9282569D01*
X19733126Y9125000D01*
X20144874Y9125000D01*
X20525280Y9282569D01*
X20642711Y9400000D01*
X44389199Y9400000D01*
X44833000Y8956198D01*
G36*
X9974198Y7747000D02*
X9583802Y7747000D01*
X5813507Y11517294D01*
X6203905Y11517294D01*
X9974198Y7747000D01*
X9974198Y7747000D01*
G37*
X9974198Y7747000D02*
X9583802Y7747000D01*
X5813507Y11517294D01*
X6203905Y11517294D01*
X9974198Y7747000D01*
G36*
X7434198Y7747000D02*
X7241000Y7747000D01*
X7241000Y7830279D01*
X7255888Y7905126D01*
X7250876Y7930322D01*
X7434198Y7747000D01*
X7434198Y7747000D01*
G37*
X7434198Y7747000D02*
X7241000Y7747000D01*
X7241000Y7830279D01*
X7255888Y7905126D01*
X7250876Y7930322D01*
X7434198Y7747000D01*
G36*
X4132198Y7747000D02*
X3703856Y7747000D01*
X3829000Y8049126D01*
X3829000Y8050198D01*
X4132198Y7747000D01*
X4132198Y7747000D01*
G37*
X4132198Y7747000D02*
X3703856Y7747000D01*
X3829000Y8049126D01*
X3829000Y8050198D01*
X4132198Y7747000D01*
G36*
X1381000Y57268905D02*
X4574000Y57268905D01*
X4574000Y55162409D01*
X4403765Y55276157D01*
X4156000Y55325440D01*
X2956000Y55325440D01*
X2708235Y55276157D01*
X2498191Y55135809D01*
X2357843Y54925765D01*
X2308560Y54678000D01*
X2308560Y53778000D01*
X2357843Y53530235D01*
X2498191Y53320191D01*
X2607646Y53247055D01*
X2521000Y53037874D01*
X2521000Y52626126D01*
X2678569Y52245720D01*
X2908331Y52015958D01*
X2708235Y51976157D01*
X2498191Y51835809D01*
X2357843Y51625765D01*
X2308560Y51378000D01*
X2308560Y50478000D01*
X2357843Y50230235D01*
X2498191Y50020191D01*
X2708235Y49879843D01*
X2796000Y49862386D01*
X2796001Y39811803D01*
X2019529Y39035330D01*
X1956070Y38992928D01*
X1788095Y38741535D01*
X1743999Y38519850D01*
X1743999Y38519846D01*
X1729111Y38444999D01*
X1743999Y38370152D01*
X1744000Y36178853D01*
X1729111Y36104001D01*
X1744000Y36029149D01*
X1788096Y35807464D01*
X1956071Y35556072D01*
X2019527Y35513672D01*
X2425261Y35107938D01*
X2371191Y35071809D01*
X2230843Y34861765D01*
X2181560Y34614000D01*
X2181560Y33714000D01*
X2230843Y33466235D01*
X2371191Y33256191D01*
X2581235Y33115843D01*
X2829000Y33066560D01*
X4026227Y33066560D01*
X3840937Y32881270D01*
X3777370Y32727805D01*
X3714123Y32727805D01*
X3333717Y32570236D01*
X3042566Y32279085D01*
X2893315Y31918760D01*
X2660084Y31822153D01*
X2368933Y31531002D01*
X2211364Y31150596D01*
X2211364Y30738848D01*
X2216635Y30726124D01*
X2207720Y30722431D01*
X1916569Y30431280D01*
X1759000Y30050874D01*
X1759000Y29639126D01*
X1916569Y29258720D01*
X2207720Y28967569D01*
X2588126Y28810000D01*
X2999874Y28810000D01*
X3380280Y28967569D01*
X3497711Y29085000D01*
X5569000Y29085000D01*
X5569000Y29004126D01*
X5652955Y28801440D01*
X5161000Y28801440D01*
X4913235Y28752157D01*
X4703191Y28611809D01*
X4562843Y28401765D01*
X4513560Y28154000D01*
X4513560Y26204000D01*
X4562843Y25956235D01*
X4576001Y25936544D01*
X4576000Y24725161D01*
X4558663Y24638000D01*
X4576000Y24550839D01*
X4576000Y24550836D01*
X4627348Y24292691D01*
X4822951Y23999951D01*
X4896847Y23950575D01*
X5916577Y22930844D01*
X5965951Y22856951D01*
X6039844Y22807577D01*
X6039845Y22807576D01*
X6118620Y22754940D01*
X6258690Y22661348D01*
X6516835Y22610000D01*
X6516839Y22610000D01*
X6603999Y22592663D01*
X6691159Y22610000D01*
X18234172Y22610000D01*
X18312744Y22557500D01*
X18234172Y22505000D01*
X17516161Y22505000D01*
X17429000Y22522337D01*
X17341839Y22505000D01*
X17341835Y22505000D01*
X17083690Y22453652D01*
X16790951Y22258049D01*
X16741576Y22184154D01*
X16326847Y21769425D01*
X16252951Y21720049D01*
X16057348Y21427309D01*
X16006000Y21169164D01*
X16006000Y21169161D01*
X15988663Y21082000D01*
X16006000Y20994839D01*
X16006001Y19384533D01*
X15921000Y19401440D01*
X15321000Y19401440D01*
X15073235Y19352157D01*
X14986000Y19293868D01*
X14898765Y19352157D01*
X14651000Y19401440D01*
X14051000Y19401440D01*
X13803235Y19352157D01*
X13716000Y19293868D01*
X13628765Y19352157D01*
X13381000Y19401440D01*
X12781000Y19401440D01*
X12533235Y19352157D01*
X12446000Y19293868D01*
X12358765Y19352157D01*
X12111000Y19401440D01*
X11511000Y19401440D01*
X11263235Y19352157D01*
X11176000Y19293868D01*
X11088765Y19352157D01*
X10841000Y19401440D01*
X10241000Y19401440D01*
X9993235Y19352157D01*
X9906000Y19293868D01*
X9818765Y19352157D01*
X9571000Y19401440D01*
X8971000Y19401440D01*
X8723235Y19352157D01*
X8636000Y19293868D01*
X8548765Y19352157D01*
X8301000Y19401440D01*
X7701000Y19401440D01*
X7453235Y19352157D01*
X7366000Y19293868D01*
X7278765Y19352157D01*
X7031000Y19401440D01*
X6431000Y19401440D01*
X6328365Y19381025D01*
X6369000Y19479126D01*
X6369000Y19890874D01*
X6211431Y20271280D01*
X5920280Y20562431D01*
X5539874Y20720000D01*
X5128126Y20720000D01*
X4747720Y20562431D01*
X4456569Y20271280D01*
X4299000Y19890874D01*
X4299000Y19479126D01*
X4456569Y19098720D01*
X4561297Y18993992D01*
X4513560Y18754000D01*
X4513560Y16804000D01*
X4562843Y16556235D01*
X4703191Y16346191D01*
X4913235Y16205843D01*
X5161000Y16156560D01*
X5333639Y16156560D01*
X11126844Y10363354D01*
X11169244Y10299898D01*
X11232700Y10257498D01*
X11420635Y10131923D01*
X11468778Y10122347D01*
X11642321Y10087827D01*
X11642325Y10087827D01*
X11717173Y10072939D01*
X11792021Y10087827D01*
X17869852Y10087827D01*
X17886438Y10071241D01*
X15562199Y7747000D01*
X12123802Y7747000D01*
X7109037Y12761764D01*
X7066635Y12825223D01*
X6815243Y12993198D01*
X6593558Y13037294D01*
X6593553Y13037294D01*
X6518706Y13052182D01*
X6443859Y13037294D01*
X5640648Y13037294D01*
X5523217Y13154725D01*
X5142811Y13312294D01*
X4731063Y13312294D01*
X4350657Y13154725D01*
X4059506Y12863574D01*
X3946855Y12591609D01*
X3630725Y12460664D01*
X3339574Y12169513D01*
X3211351Y11859954D01*
X2932730Y11744546D01*
X2641579Y11453395D01*
X2523452Y11168211D01*
X2207720Y11037431D01*
X1916569Y10746280D01*
X1759000Y10365874D01*
X1759000Y9954126D01*
X1916569Y9573720D01*
X2207720Y9282569D01*
X2388953Y9207500D01*
X2207720Y9132431D01*
X1916569Y8841280D01*
X1759000Y8460874D01*
X1759000Y8263181D01*
X1697097Y8170537D01*
X1638112Y7874000D01*
X1653001Y7799148D01*
X1653001Y7747000D01*
X710000Y7747000D01*
X710000Y80697000D01*
X1381000Y80697000D01*
X1381000Y57268905D01*
X1381000Y57268905D01*
G37*
X1381000Y57268905D02*
X4574000Y57268905D01*
X4574000Y55162409D01*
X4403765Y55276157D01*
X4156000Y55325440D01*
X2956000Y55325440D01*
X2708235Y55276157D01*
X2498191Y55135809D01*
X2357843Y54925765D01*
X2308560Y54678000D01*
X2308560Y53778000D01*
X2357843Y53530235D01*
X2498191Y53320191D01*
X2607646Y53247055D01*
X2521000Y53037874D01*
X2521000Y52626126D01*
X2678569Y52245720D01*
X2908331Y52015958D01*
X2708235Y51976157D01*
X2498191Y51835809D01*
X2357843Y51625765D01*
X2308560Y51378000D01*
X2308560Y50478000D01*
X2357843Y50230235D01*
X2498191Y50020191D01*
X2708235Y49879843D01*
X2796000Y49862386D01*
X2796001Y39811803D01*
X2019529Y39035330D01*
X1956070Y38992928D01*
X1788095Y38741535D01*
X1743999Y38519850D01*
X1743999Y38519846D01*
X1729111Y38444999D01*
X1743999Y38370152D01*
X1744000Y36178853D01*
X1729111Y36104001D01*
X1744000Y36029149D01*
X1788096Y35807464D01*
X1956071Y35556072D01*
X2019527Y35513672D01*
X2425261Y35107938D01*
X2371191Y35071809D01*
X2230843Y34861765D01*
X2181560Y34614000D01*
X2181560Y33714000D01*
X2230843Y33466235D01*
X2371191Y33256191D01*
X2581235Y33115843D01*
X2829000Y33066560D01*
X4026227Y33066560D01*
X3840937Y32881270D01*
X3777370Y32727805D01*
X3714123Y32727805D01*
X3333717Y32570236D01*
X3042566Y32279085D01*
X2893315Y31918760D01*
X2660084Y31822153D01*
X2368933Y31531002D01*
X2211364Y31150596D01*
X2211364Y30738848D01*
X2216635Y30726124D01*
X2207720Y30722431D01*
X1916569Y30431280D01*
X1759000Y30050874D01*
X1759000Y29639126D01*
X1916569Y29258720D01*
X2207720Y28967569D01*
X2588126Y28810000D01*
X2999874Y28810000D01*
X3380280Y28967569D01*
X3497711Y29085000D01*
X5569000Y29085000D01*
X5569000Y29004126D01*
X5652955Y28801440D01*
X5161000Y28801440D01*
X4913235Y28752157D01*
X4703191Y28611809D01*
X4562843Y28401765D01*
X4513560Y28154000D01*
X4513560Y26204000D01*
X4562843Y25956235D01*
X4576001Y25936544D01*
X4576000Y24725161D01*
X4558663Y24638000D01*
X4576000Y24550839D01*
X4576000Y24550836D01*
X4627348Y24292691D01*
X4822951Y23999951D01*
X4896847Y23950575D01*
X5916577Y22930844D01*
X5965951Y22856951D01*
X6039844Y22807577D01*
X6039845Y22807576D01*
X6118620Y22754940D01*
X6258690Y22661348D01*
X6516835Y22610000D01*
X6516839Y22610000D01*
X6603999Y22592663D01*
X6691159Y22610000D01*
X18234172Y22610000D01*
X18312744Y22557500D01*
X18234172Y22505000D01*
X17516161Y22505000D01*
X17429000Y22522337D01*
X17341839Y22505000D01*
X17341835Y22505000D01*
X17083690Y22453652D01*
X16790951Y22258049D01*
X16741576Y22184154D01*
X16326847Y21769425D01*
X16252951Y21720049D01*
X16057348Y21427309D01*
X16006000Y21169164D01*
X16006000Y21169161D01*
X15988663Y21082000D01*
X16006000Y20994839D01*
X16006001Y19384533D01*
X15921000Y19401440D01*
X15321000Y19401440D01*
X15073235Y19352157D01*
X14986000Y19293868D01*
X14898765Y19352157D01*
X14651000Y19401440D01*
X14051000Y19401440D01*
X13803235Y19352157D01*
X13716000Y19293868D01*
X13628765Y19352157D01*
X13381000Y19401440D01*
X12781000Y19401440D01*
X12533235Y19352157D01*
X12446000Y19293868D01*
X12358765Y19352157D01*
X12111000Y19401440D01*
X11511000Y19401440D01*
X11263235Y19352157D01*
X11176000Y19293868D01*
X11088765Y19352157D01*
X10841000Y19401440D01*
X10241000Y19401440D01*
X9993235Y19352157D01*
X9906000Y19293868D01*
X9818765Y19352157D01*
X9571000Y19401440D01*
X8971000Y19401440D01*
X8723235Y19352157D01*
X8636000Y19293868D01*
X8548765Y19352157D01*
X8301000Y19401440D01*
X7701000Y19401440D01*
X7453235Y19352157D01*
X7366000Y19293868D01*
X7278765Y19352157D01*
X7031000Y19401440D01*
X6431000Y19401440D01*
X6328365Y19381025D01*
X6369000Y19479126D01*
X6369000Y19890874D01*
X6211431Y20271280D01*
X5920280Y20562431D01*
X5539874Y20720000D01*
X5128126Y20720000D01*
X4747720Y20562431D01*
X4456569Y20271280D01*
X4299000Y19890874D01*
X4299000Y19479126D01*
X4456569Y19098720D01*
X4561297Y18993992D01*
X4513560Y18754000D01*
X4513560Y16804000D01*
X4562843Y16556235D01*
X4703191Y16346191D01*
X4913235Y16205843D01*
X5161000Y16156560D01*
X5333639Y16156560D01*
X11126844Y10363354D01*
X11169244Y10299898D01*
X11232700Y10257498D01*
X11420635Y10131923D01*
X11468778Y10122347D01*
X11642321Y10087827D01*
X11642325Y10087827D01*
X11717173Y10072939D01*
X11792021Y10087827D01*
X17869852Y10087827D01*
X17886438Y10071241D01*
X15562199Y7747000D01*
X12123802Y7747000D01*
X7109037Y12761764D01*
X7066635Y12825223D01*
X6815243Y12993198D01*
X6593558Y13037294D01*
X6593553Y13037294D01*
X6518706Y13052182D01*
X6443859Y13037294D01*
X5640648Y13037294D01*
X5523217Y13154725D01*
X5142811Y13312294D01*
X4731063Y13312294D01*
X4350657Y13154725D01*
X4059506Y12863574D01*
X3946855Y12591609D01*
X3630725Y12460664D01*
X3339574Y12169513D01*
X3211351Y11859954D01*
X2932730Y11744546D01*
X2641579Y11453395D01*
X2523452Y11168211D01*
X2207720Y11037431D01*
X1916569Y10746280D01*
X1759000Y10365874D01*
X1759000Y9954126D01*
X1916569Y9573720D01*
X2207720Y9282569D01*
X2388953Y9207500D01*
X2207720Y9132431D01*
X1916569Y8841280D01*
X1759000Y8460874D01*
X1759000Y8263181D01*
X1697097Y8170537D01*
X1638112Y7874000D01*
X1653001Y7799148D01*
X1653001Y7747000D01*
X710000Y7747000D01*
X710000Y80697000D01*
X1381000Y80697000D01*
X1381000Y57268905D01*
G36*
X62850084Y9708584D02*
X62869000Y9695944D01*
X62869000Y9458008D01*
X62805317Y9304261D01*
X62734000Y9375578D01*
X62734000Y9725172D01*
X62786500Y9803744D01*
X62850084Y9708584D01*
X62850084Y9708584D01*
G37*
X62850084Y9708584D02*
X62869000Y9695944D01*
X62869000Y9458008D01*
X62805317Y9304261D01*
X62734000Y9375578D01*
X62734000Y9725172D01*
X62786500Y9803744D01*
X62850084Y9708584D01*
G36*
X62839000Y13535172D02*
X62839001Y11864829D01*
X62786500Y11786256D01*
X62734000Y11864828D01*
X62734000Y13535172D01*
X62786500Y13613744D01*
X62839000Y13535172D01*
X62839000Y13535172D01*
G37*
X62839000Y13535172D02*
X62839001Y11864829D01*
X62786500Y11786256D01*
X62734000Y11864828D01*
X62734000Y13535172D01*
X62786500Y13613744D01*
X62839000Y13535172D01*
G36*
X43669000Y21160874D02*
X43669000Y20749126D01*
X43791866Y20452499D01*
X43756560Y20275000D01*
X43756560Y18775000D01*
X43805843Y18527235D01*
X43944001Y18320469D01*
X43944000Y15953238D01*
X43898096Y15884538D01*
X43839111Y15588001D01*
X43854000Y15513149D01*
X43853999Y13559801D01*
X42484199Y12190000D01*
X24149000Y12190000D01*
X24149000Y12270874D01*
X23991431Y12651280D01*
X23700280Y12942431D01*
X23406149Y13064264D01*
X23284316Y13358395D01*
X22993165Y13649546D01*
X22699034Y13771379D01*
X22577201Y14065510D01*
X22286050Y14356661D01*
X21991919Y14478494D01*
X21870086Y14772625D01*
X21578935Y15063776D01*
X21284804Y15185609D01*
X21162971Y15479740D01*
X20871820Y15770891D01*
X20556264Y15901598D01*
X20437961Y16187207D01*
X20146810Y16478358D01*
X19835492Y16607310D01*
X19712951Y16903151D01*
X19421800Y17194302D01*
X19112782Y17322301D01*
X18987941Y17623694D01*
X18696790Y17914845D01*
X18316384Y18072414D01*
X17904636Y18072414D01*
X17838440Y18044995D01*
X17838440Y18754000D01*
X17789157Y19001765D01*
X17776000Y19021456D01*
X17776000Y20715422D01*
X17795578Y20735000D01*
X18234172Y20735000D01*
X18506706Y20552898D01*
X18847750Y20485060D01*
X19760250Y20485060D01*
X20101294Y20552898D01*
X20373828Y20735000D01*
X20812422Y20735000D01*
X25601577Y15945844D01*
X25650951Y15871951D01*
X25724844Y15822577D01*
X25724845Y15822576D01*
X25813863Y15763096D01*
X25943690Y15676348D01*
X26201835Y15625000D01*
X26201839Y15625000D01*
X26288999Y15607663D01*
X26376159Y15625000D01*
X32526839Y15625000D01*
X32614000Y15607663D01*
X32701161Y15625000D01*
X32701165Y15625000D01*
X32959310Y15676348D01*
X33252049Y15871951D01*
X33301425Y15945847D01*
X35484167Y18128588D01*
X35726765Y18176843D01*
X35936809Y18317191D01*
X36077157Y18527235D01*
X36126440Y18775000D01*
X36126440Y20275000D01*
X36077157Y20522765D01*
X36064000Y20542456D01*
X36064000Y20588422D01*
X36210579Y20735000D01*
X37284172Y20735000D01*
X37556706Y20552898D01*
X37897750Y20485060D01*
X38810250Y20485060D01*
X39151294Y20552898D01*
X39440416Y20746084D01*
X39633602Y21035206D01*
X39684530Y21291237D01*
X43722998Y21291237D01*
X43669000Y21160874D01*
X43669000Y21160874D01*
G37*
X43669000Y21160874D02*
X43669000Y20749126D01*
X43791866Y20452499D01*
X43756560Y20275000D01*
X43756560Y18775000D01*
X43805843Y18527235D01*
X43944001Y18320469D01*
X43944000Y15953238D01*
X43898096Y15884538D01*
X43839111Y15588001D01*
X43854000Y15513149D01*
X43853999Y13559801D01*
X42484199Y12190000D01*
X24149000Y12190000D01*
X24149000Y12270874D01*
X23991431Y12651280D01*
X23700280Y12942431D01*
X23406149Y13064264D01*
X23284316Y13358395D01*
X22993165Y13649546D01*
X22699034Y13771379D01*
X22577201Y14065510D01*
X22286050Y14356661D01*
X21991919Y14478494D01*
X21870086Y14772625D01*
X21578935Y15063776D01*
X21284804Y15185609D01*
X21162971Y15479740D01*
X20871820Y15770891D01*
X20556264Y15901598D01*
X20437961Y16187207D01*
X20146810Y16478358D01*
X19835492Y16607310D01*
X19712951Y16903151D01*
X19421800Y17194302D01*
X19112782Y17322301D01*
X18987941Y17623694D01*
X18696790Y17914845D01*
X18316384Y18072414D01*
X17904636Y18072414D01*
X17838440Y18044995D01*
X17838440Y18754000D01*
X17789157Y19001765D01*
X17776000Y19021456D01*
X17776000Y20715422D01*
X17795578Y20735000D01*
X18234172Y20735000D01*
X18506706Y20552898D01*
X18847750Y20485060D01*
X19760250Y20485060D01*
X20101294Y20552898D01*
X20373828Y20735000D01*
X20812422Y20735000D01*
X25601577Y15945844D01*
X25650951Y15871951D01*
X25724844Y15822577D01*
X25724845Y15822576D01*
X25813863Y15763096D01*
X25943690Y15676348D01*
X26201835Y15625000D01*
X26201839Y15625000D01*
X26288999Y15607663D01*
X26376159Y15625000D01*
X32526839Y15625000D01*
X32614000Y15607663D01*
X32701161Y15625000D01*
X32701165Y15625000D01*
X32959310Y15676348D01*
X33252049Y15871951D01*
X33301425Y15945847D01*
X35484167Y18128588D01*
X35726765Y18176843D01*
X35936809Y18317191D01*
X36077157Y18527235D01*
X36126440Y18775000D01*
X36126440Y20275000D01*
X36077157Y20522765D01*
X36064000Y20542456D01*
X36064000Y20588422D01*
X36210579Y20735000D01*
X37284172Y20735000D01*
X37556706Y20552898D01*
X37897750Y20485060D01*
X38810250Y20485060D01*
X39151294Y20552898D01*
X39440416Y20746084D01*
X39633602Y21035206D01*
X39684530Y21291237D01*
X43722998Y21291237D01*
X43669000Y21160874D01*
G36*
X29064000Y17985874D02*
X29064000Y17574126D01*
X29138196Y17395000D01*
X28519804Y17395000D01*
X28594000Y17574126D01*
X28594000Y17985874D01*
X28535312Y18127560D01*
X29122688Y18127560D01*
X29064000Y17985874D01*
X29064000Y17985874D01*
G37*
X29064000Y17985874D02*
X29064000Y17574126D01*
X29138196Y17395000D01*
X28519804Y17395000D01*
X28594000Y17574126D01*
X28594000Y17985874D01*
X28535312Y18127560D01*
X29122688Y18127560D01*
X29064000Y17985874D01*
G36*
X32091235Y18176843D02*
X32339000Y18127560D01*
X32939000Y18127560D01*
X32990157Y18137736D01*
X32247422Y17395000D01*
X31059804Y17395000D01*
X31134000Y17574126D01*
X31134000Y17985874D01*
X31075312Y18127560D01*
X31669000Y18127560D01*
X31916765Y18176843D01*
X32004000Y18235132D01*
X32091235Y18176843D01*
X32091235Y18176843D01*
G37*
X32091235Y18176843D02*
X32339000Y18127560D01*
X32939000Y18127560D01*
X32990157Y18137736D01*
X32247422Y17395000D01*
X31059804Y17395000D01*
X31134000Y17574126D01*
X31134000Y17985874D01*
X31075312Y18127560D01*
X31669000Y18127560D01*
X31916765Y18176843D01*
X32004000Y18235132D01*
X32091235Y18176843D01*
G36*
X28069001Y20880669D02*
X27859000Y20922440D01*
X27259000Y20922440D01*
X27011235Y20873157D01*
X26801191Y20732809D01*
X26660843Y20522765D01*
X26611560Y20275000D01*
X26611560Y18775000D01*
X26660843Y18527235D01*
X26733615Y18418326D01*
X26681569Y18366280D01*
X26524000Y17985874D01*
X26524000Y17574126D01*
X26557621Y17492958D01*
X21866424Y22184154D01*
X21817049Y22258049D01*
X21524310Y22453652D01*
X21266165Y22505000D01*
X21266161Y22505000D01*
X21179000Y22522337D01*
X21091839Y22505000D01*
X20373828Y22505000D01*
X20295256Y22557500D01*
X20373828Y22610000D01*
X27291839Y22610000D01*
X27379000Y22592663D01*
X27466161Y22610000D01*
X27466165Y22610000D01*
X27724310Y22661348D01*
X28017049Y22856951D01*
X28066425Y22930847D01*
X28069000Y22933422D01*
X28069001Y20880669D01*
X28069001Y20880669D01*
G37*
X28069001Y20880669D02*
X27859000Y20922440D01*
X27259000Y20922440D01*
X27011235Y20873157D01*
X26801191Y20732809D01*
X26660843Y20522765D01*
X26611560Y20275000D01*
X26611560Y18775000D01*
X26660843Y18527235D01*
X26733615Y18418326D01*
X26681569Y18366280D01*
X26524000Y17985874D01*
X26524000Y17574126D01*
X26557621Y17492958D01*
X21866424Y22184154D01*
X21817049Y22258049D01*
X21524310Y22453652D01*
X21266165Y22505000D01*
X21266161Y22505000D01*
X21179000Y22522337D01*
X21091839Y22505000D01*
X20373828Y22505000D01*
X20295256Y22557500D01*
X20373828Y22610000D01*
X27291839Y22610000D01*
X27379000Y22592663D01*
X27466161Y22610000D01*
X27466165Y22610000D01*
X27724310Y22661348D01*
X28017049Y22856951D01*
X28066425Y22930847D01*
X28069000Y22933422D01*
X28069001Y20880669D01*
G36*
X58431569Y22273720D02*
X58722720Y21982569D01*
X59084853Y21832569D01*
X60964000Y19953421D01*
X60964000Y19281579D01*
X58431431Y21814147D01*
X58281431Y22176280D01*
X57990280Y22467431D01*
X57646087Y22610000D01*
X58292278Y22610000D01*
X58431569Y22273720D01*
X58431569Y22273720D01*
G37*
X58431569Y22273720D02*
X58722720Y21982569D01*
X59084853Y21832569D01*
X60964000Y19953421D01*
X60964000Y19281579D01*
X58431431Y21814147D01*
X58281431Y22176280D01*
X57990280Y22467431D01*
X57646087Y22610000D01*
X58292278Y22610000D01*
X58431569Y22273720D01*
G36*
X37362744Y22557500D02*
X37284172Y22505000D01*
X35931160Y22505000D01*
X35843999Y22522337D01*
X35756838Y22505000D01*
X35756835Y22505000D01*
X35530604Y22460000D01*
X35498690Y22453652D01*
X35279845Y22307424D01*
X35279844Y22307423D01*
X35205951Y22258049D01*
X35156577Y22184156D01*
X34614847Y21642425D01*
X34540951Y21593049D01*
X34345348Y21300309D01*
X34294000Y21042164D01*
X34294000Y21042161D01*
X34276663Y20955000D01*
X34286194Y20907085D01*
X34209000Y20922440D01*
X33674000Y20922440D01*
X33674000Y21160874D01*
X33516431Y21541280D01*
X33354639Y21703072D01*
X33472652Y21879690D01*
X33524000Y22137835D01*
X33524000Y22137839D01*
X33541337Y22224999D01*
X33524000Y22312159D01*
X33524000Y22610000D01*
X37284172Y22610000D01*
X37362744Y22557500D01*
X37362744Y22557500D01*
G37*
X37362744Y22557500D02*
X37284172Y22505000D01*
X35931160Y22505000D01*
X35843999Y22522337D01*
X35756838Y22505000D01*
X35756835Y22505000D01*
X35530604Y22460000D01*
X35498690Y22453652D01*
X35279845Y22307424D01*
X35279844Y22307423D01*
X35205951Y22258049D01*
X35156577Y22184156D01*
X34614847Y21642425D01*
X34540951Y21593049D01*
X34345348Y21300309D01*
X34294000Y21042164D01*
X34294000Y21042161D01*
X34276663Y20955000D01*
X34286194Y20907085D01*
X34209000Y20922440D01*
X33674000Y20922440D01*
X33674000Y21160874D01*
X33516431Y21541280D01*
X33354639Y21703072D01*
X33472652Y21879690D01*
X33524000Y22137835D01*
X33524000Y22137839D01*
X33541337Y22224999D01*
X33524000Y22312159D01*
X33524000Y22610000D01*
X37284172Y22610000D01*
X37362744Y22557500D01*
G36*
X30609000Y22539802D02*
X29614528Y21545329D01*
X29589000Y21528272D01*
X29589000Y22585973D01*
X29893126Y22460000D01*
X30304874Y22460000D01*
X30609000Y22585973D01*
X30609000Y22539802D01*
X30609000Y22539802D01*
G37*
X30609000Y22539802D02*
X29614528Y21545329D01*
X29589000Y21528272D01*
X29589000Y22585973D01*
X29893126Y22460000D01*
X30304874Y22460000D01*
X30609000Y22585973D01*
X30609000Y22539802D01*
G36*
X56908420Y22505000D02*
X55933828Y22505000D01*
X55855256Y22557500D01*
X55933828Y22610000D01*
X57161913Y22610000D01*
X56908420Y22505000D01*
X56908420Y22505000D01*
G37*
X56908420Y22505000D02*
X55933828Y22505000D01*
X55855256Y22557500D01*
X55933828Y22610000D01*
X57161913Y22610000D01*
X56908420Y22505000D01*
G36*
X53872744Y22557500D02*
X53794172Y22505000D01*
X53076160Y22505000D01*
X52988999Y22522337D01*
X52901838Y22505000D01*
X46933582Y22505000D01*
X46828582Y22610000D01*
X53794172Y22610000D01*
X53872744Y22557500D01*
X53872744Y22557500D01*
G37*
X53872744Y22557500D02*
X53794172Y22505000D01*
X53076160Y22505000D01*
X52988999Y22522337D01*
X52901838Y22505000D01*
X46933582Y22505000D01*
X46828582Y22610000D01*
X53794172Y22610000D01*
X53872744Y22557500D01*
G36*
X43805843Y23927235D02*
X43819000Y23907544D01*
X43819000Y23762161D01*
X43801663Y23675000D01*
X43819000Y23587839D01*
X43819000Y23587836D01*
X43870348Y23329691D01*
X44049724Y23061237D01*
X39663644Y23061237D01*
X39701440Y23251250D01*
X39701440Y23590861D01*
X40150579Y24040000D01*
X43783413Y24040000D01*
X43805843Y23927235D01*
X43805843Y23927235D01*
G37*
X43805843Y23927235D02*
X43819000Y23907544D01*
X43819000Y23762161D01*
X43801663Y23675000D01*
X43819000Y23587839D01*
X43819000Y23587836D01*
X43870348Y23329691D01*
X44049724Y23061237D01*
X39663644Y23061237D01*
X39701440Y23251250D01*
X39701440Y23590861D01*
X40150579Y24040000D01*
X43783413Y24040000D01*
X43805843Y23927235D01*
G36*
X44745289Y28340000D02*
X44498126Y28340000D01*
X44117720Y28182431D01*
X43826569Y27891280D01*
X43669000Y27510874D01*
X43669000Y27099126D01*
X43826569Y26718720D01*
X44117720Y26427569D01*
X44382060Y26318076D01*
X44156235Y26273157D01*
X43946191Y26132809D01*
X43805843Y25922765D01*
X43783413Y25810000D01*
X39871159Y25810000D01*
X39783999Y25827337D01*
X39696839Y25810000D01*
X39696835Y25810000D01*
X39438690Y25758652D01*
X39335483Y25689691D01*
X39219845Y25612424D01*
X39219844Y25612423D01*
X39145951Y25563049D01*
X39096577Y25489156D01*
X38237362Y24629940D01*
X37897750Y24629940D01*
X37556706Y24562102D01*
X37284172Y24380000D01*
X36126440Y24380000D01*
X36126440Y25675000D01*
X36077157Y25922765D01*
X35936809Y26132809D01*
X35726765Y26273157D01*
X35479000Y26322440D01*
X34879000Y26322440D01*
X34669000Y26280669D01*
X34669000Y27865152D01*
X34683888Y27940000D01*
X34669000Y28014848D01*
X34669000Y28014852D01*
X34624904Y28236537D01*
X34482272Y28450000D01*
X44635289Y28450000D01*
X44745289Y28340000D01*
X44745289Y28340000D01*
G37*
X44745289Y28340000D02*
X44498126Y28340000D01*
X44117720Y28182431D01*
X43826569Y27891280D01*
X43669000Y27510874D01*
X43669000Y27099126D01*
X43826569Y26718720D01*
X44117720Y26427569D01*
X44382060Y26318076D01*
X44156235Y26273157D01*
X43946191Y26132809D01*
X43805843Y25922765D01*
X43783413Y25810000D01*
X39871159Y25810000D01*
X39783999Y25827337D01*
X39696839Y25810000D01*
X39696835Y25810000D01*
X39438690Y25758652D01*
X39335483Y25689691D01*
X39219845Y25612424D01*
X39219844Y25612423D01*
X39145951Y25563049D01*
X39096577Y25489156D01*
X38237362Y24629940D01*
X37897750Y24629940D01*
X37556706Y24562102D01*
X37284172Y24380000D01*
X36126440Y24380000D01*
X36126440Y25675000D01*
X36077157Y25922765D01*
X35936809Y26132809D01*
X35726765Y26273157D01*
X35479000Y26322440D01*
X34879000Y26322440D01*
X34669000Y26280669D01*
X34669000Y27865152D01*
X34683888Y27940000D01*
X34669000Y28014848D01*
X34669000Y28014852D01*
X34624904Y28236537D01*
X34482272Y28450000D01*
X44635289Y28450000D01*
X44745289Y28340000D01*
G36*
X18269000Y28369126D02*
X18426569Y27988720D01*
X18717720Y27697569D01*
X19098126Y27540000D01*
X19509874Y27540000D01*
X19890280Y27697569D01*
X20007711Y27815000D01*
X32959199Y27815000D01*
X33149000Y27625198D01*
X33149000Y26916578D01*
X32831425Y27234153D01*
X32782049Y27308049D01*
X32489310Y27503652D01*
X32231165Y27555000D01*
X32231161Y27555000D01*
X32144000Y27572337D01*
X32056839Y27555000D01*
X28281161Y27555000D01*
X28194000Y27572337D01*
X28106839Y27555000D01*
X28106835Y27555000D01*
X27884998Y27510874D01*
X27848690Y27503652D01*
X27629845Y27357424D01*
X27629844Y27357423D01*
X27555951Y27308049D01*
X27506577Y27234156D01*
X26994846Y26722425D01*
X26920951Y26673049D01*
X26725348Y26380309D01*
X26674000Y26122164D01*
X26674000Y26122161D01*
X26656663Y26035000D01*
X26674000Y25947839D01*
X26674000Y25942456D01*
X26660843Y25922765D01*
X26611560Y25675000D01*
X26611560Y24380000D01*
X20373828Y24380000D01*
X20101294Y24562102D01*
X19760250Y24629940D01*
X18847750Y24629940D01*
X18506706Y24562102D01*
X18234172Y24380000D01*
X17724804Y24380000D01*
X17799000Y24559126D01*
X17799000Y24970874D01*
X17641431Y25351280D01*
X17524000Y25468711D01*
X17524000Y25662796D01*
X17648809Y25746191D01*
X17789157Y25956235D01*
X17838440Y26204000D01*
X17838440Y28154000D01*
X17789157Y28401765D01*
X17756927Y28450000D01*
X18269000Y28450000D01*
X18269000Y28369126D01*
X18269000Y28369126D01*
G37*
X18269000Y28369126D02*
X18426569Y27988720D01*
X18717720Y27697569D01*
X19098126Y27540000D01*
X19509874Y27540000D01*
X19890280Y27697569D01*
X20007711Y27815000D01*
X32959199Y27815000D01*
X33149000Y27625198D01*
X33149000Y26916578D01*
X32831425Y27234153D01*
X32782049Y27308049D01*
X32489310Y27503652D01*
X32231165Y27555000D01*
X32231161Y27555000D01*
X32144000Y27572337D01*
X32056839Y27555000D01*
X28281161Y27555000D01*
X28194000Y27572337D01*
X28106839Y27555000D01*
X28106835Y27555000D01*
X27884998Y27510874D01*
X27848690Y27503652D01*
X27629845Y27357424D01*
X27629844Y27357423D01*
X27555951Y27308049D01*
X27506577Y27234156D01*
X26994846Y26722425D01*
X26920951Y26673049D01*
X26725348Y26380309D01*
X26674000Y26122164D01*
X26674000Y26122161D01*
X26656663Y26035000D01*
X26674000Y25947839D01*
X26674000Y25942456D01*
X26660843Y25922765D01*
X26611560Y25675000D01*
X26611560Y24380000D01*
X20373828Y24380000D01*
X20101294Y24562102D01*
X19760250Y24629940D01*
X18847750Y24629940D01*
X18506706Y24562102D01*
X18234172Y24380000D01*
X17724804Y24380000D01*
X17799000Y24559126D01*
X17799000Y24970874D01*
X17641431Y25351280D01*
X17524000Y25468711D01*
X17524000Y25662796D01*
X17648809Y25746191D01*
X17789157Y25956235D01*
X17838440Y26204000D01*
X17838440Y28154000D01*
X17789157Y28401765D01*
X17756927Y28450000D01*
X18269000Y28450000D01*
X18269000Y28369126D01*
G36*
X52372720Y26427569D02*
X52628857Y26321474D01*
X52624000Y26322440D01*
X52024000Y26322440D01*
X51961459Y26310000D01*
X51897690Y26310000D01*
X51838776Y26285597D01*
X51776235Y26273157D01*
X51723215Y26237730D01*
X51689000Y26223558D01*
X51654785Y26237730D01*
X51601765Y26273157D01*
X51539224Y26285597D01*
X51480310Y26310000D01*
X51416541Y26310000D01*
X51354000Y26322440D01*
X50754000Y26322440D01*
X50691459Y26310000D01*
X50627690Y26310000D01*
X50568776Y26285597D01*
X50506235Y26273157D01*
X50453215Y26237730D01*
X50419000Y26223558D01*
X50384785Y26237730D01*
X50331765Y26273157D01*
X50269224Y26285597D01*
X50210310Y26310000D01*
X50146541Y26310000D01*
X50084000Y26322440D01*
X49484000Y26322440D01*
X49421459Y26310000D01*
X49357690Y26310000D01*
X49298776Y26285597D01*
X49236235Y26273157D01*
X49183215Y26237730D01*
X49149000Y26223558D01*
X49114785Y26237730D01*
X49061765Y26273157D01*
X48999224Y26285597D01*
X48940310Y26310000D01*
X48876541Y26310000D01*
X48814000Y26322440D01*
X48214000Y26322440D01*
X48151459Y26310000D01*
X48087690Y26310000D01*
X48028776Y26285597D01*
X47966235Y26273157D01*
X47913215Y26237730D01*
X47879000Y26223558D01*
X47844785Y26237730D01*
X47791765Y26273157D01*
X47729224Y26285597D01*
X47670310Y26310000D01*
X47606541Y26310000D01*
X47544000Y26322440D01*
X46944000Y26322440D01*
X46881459Y26310000D01*
X46817690Y26310000D01*
X46758776Y26285597D01*
X46696235Y26273157D01*
X46643215Y26237730D01*
X46609000Y26223558D01*
X46574785Y26237730D01*
X46521765Y26273157D01*
X46459224Y26285597D01*
X46400310Y26310000D01*
X46336541Y26310000D01*
X46274000Y26322440D01*
X45674000Y26322440D01*
X45611459Y26310000D01*
X45547690Y26310000D01*
X45488776Y26285597D01*
X45426235Y26273157D01*
X45373215Y26237730D01*
X45330972Y26220232D01*
X45251765Y26273157D01*
X45025940Y26318076D01*
X45290280Y26427569D01*
X45407711Y26545000D01*
X52255289Y26545000D01*
X52372720Y26427569D01*
X52372720Y26427569D01*
G37*
X52372720Y26427569D02*
X52628857Y26321474D01*
X52624000Y26322440D01*
X52024000Y26322440D01*
X51961459Y26310000D01*
X51897690Y26310000D01*
X51838776Y26285597D01*
X51776235Y26273157D01*
X51723215Y26237730D01*
X51689000Y26223558D01*
X51654785Y26237730D01*
X51601765Y26273157D01*
X51539224Y26285597D01*
X51480310Y26310000D01*
X51416541Y26310000D01*
X51354000Y26322440D01*
X50754000Y26322440D01*
X50691459Y26310000D01*
X50627690Y26310000D01*
X50568776Y26285597D01*
X50506235Y26273157D01*
X50453215Y26237730D01*
X50419000Y26223558D01*
X50384785Y26237730D01*
X50331765Y26273157D01*
X50269224Y26285597D01*
X50210310Y26310000D01*
X50146541Y26310000D01*
X50084000Y26322440D01*
X49484000Y26322440D01*
X49421459Y26310000D01*
X49357690Y26310000D01*
X49298776Y26285597D01*
X49236235Y26273157D01*
X49183215Y26237730D01*
X49149000Y26223558D01*
X49114785Y26237730D01*
X49061765Y26273157D01*
X48999224Y26285597D01*
X48940310Y26310000D01*
X48876541Y26310000D01*
X48814000Y26322440D01*
X48214000Y26322440D01*
X48151459Y26310000D01*
X48087690Y26310000D01*
X48028776Y26285597D01*
X47966235Y26273157D01*
X47913215Y26237730D01*
X47879000Y26223558D01*
X47844785Y26237730D01*
X47791765Y26273157D01*
X47729224Y26285597D01*
X47670310Y26310000D01*
X47606541Y26310000D01*
X47544000Y26322440D01*
X46944000Y26322440D01*
X46881459Y26310000D01*
X46817690Y26310000D01*
X46758776Y26285597D01*
X46696235Y26273157D01*
X46643215Y26237730D01*
X46609000Y26223558D01*
X46574785Y26237730D01*
X46521765Y26273157D01*
X46459224Y26285597D01*
X46400310Y26310000D01*
X46336541Y26310000D01*
X46274000Y26322440D01*
X45674000Y26322440D01*
X45611459Y26310000D01*
X45547690Y26310000D01*
X45488776Y26285597D01*
X45426235Y26273157D01*
X45373215Y26237730D01*
X45330972Y26220232D01*
X45251765Y26273157D01*
X45025940Y26318076D01*
X45290280Y26427569D01*
X45407711Y26545000D01*
X52255289Y26545000D01*
X52372720Y26427569D01*
G36*
X14459000Y29004126D02*
X14542955Y28801440D01*
X14051000Y28801440D01*
X13803235Y28752157D01*
X13716000Y28693868D01*
X13628765Y28752157D01*
X13381000Y28801440D01*
X12781000Y28801440D01*
X12533235Y28752157D01*
X12446000Y28693868D01*
X12358765Y28752157D01*
X12111000Y28801440D01*
X11511000Y28801440D01*
X11263235Y28752157D01*
X11176000Y28693868D01*
X11088765Y28752157D01*
X10841000Y28801440D01*
X10241000Y28801440D01*
X9993235Y28752157D01*
X9906000Y28693868D01*
X9818765Y28752157D01*
X9571000Y28801440D01*
X8971000Y28801440D01*
X8723235Y28752157D01*
X8636000Y28693868D01*
X8548765Y28752157D01*
X8301000Y28801440D01*
X7701000Y28801440D01*
X7541940Y28769801D01*
X7639000Y29004126D01*
X7639000Y29085000D01*
X14459000Y29085000D01*
X14459000Y29004126D01*
X14459000Y29004126D01*
G37*
X14459000Y29004126D02*
X14542955Y28801440D01*
X14051000Y28801440D01*
X13803235Y28752157D01*
X13716000Y28693868D01*
X13628765Y28752157D01*
X13381000Y28801440D01*
X12781000Y28801440D01*
X12533235Y28752157D01*
X12446000Y28693868D01*
X12358765Y28752157D01*
X12111000Y28801440D01*
X11511000Y28801440D01*
X11263235Y28752157D01*
X11176000Y28693868D01*
X11088765Y28752157D01*
X10841000Y28801440D01*
X10241000Y28801440D01*
X9993235Y28752157D01*
X9906000Y28693868D01*
X9818765Y28752157D01*
X9571000Y28801440D01*
X8971000Y28801440D01*
X8723235Y28752157D01*
X8636000Y28693868D01*
X8548765Y28752157D01*
X8301000Y28801440D01*
X7701000Y28801440D01*
X7541940Y28769801D01*
X7639000Y29004126D01*
X7639000Y29085000D01*
X14459000Y29085000D01*
X14459000Y29004126D01*
G36*
X47102667Y33744000D02*
X47274198Y33744000D01*
X44135199Y30605000D01*
X43744801Y30605000D01*
X46920115Y33780312D01*
X47102667Y33744000D01*
X47102667Y33744000D01*
G37*
X47102667Y33744000D02*
X47274198Y33744000D01*
X44135199Y30605000D01*
X43744801Y30605000D01*
X46920115Y33780312D01*
X47102667Y33744000D01*
G36*
X44562667Y33744000D02*
X44734198Y33744000D01*
X42694921Y31704722D01*
X42304523Y31704722D01*
X44380114Y33780312D01*
X44562667Y33744000D01*
X44562667Y33744000D01*
G37*
X44562667Y33744000D02*
X44734198Y33744000D01*
X42694921Y31704722D01*
X42304523Y31704722D01*
X44380114Y33780312D01*
X44562667Y33744000D01*
G36*
X42022667Y33744000D02*
X42194199Y33744000D01*
X40780187Y32329988D01*
X40389789Y32329988D01*
X41840114Y33780312D01*
X42022667Y33744000D01*
X42022667Y33744000D01*
G37*
X42022667Y33744000D02*
X42194199Y33744000D01*
X40780187Y32329988D01*
X40389789Y32329988D01*
X41840114Y33780312D01*
X42022667Y33744000D01*
G36*
X38589423Y34144423D02*
X39064091Y33827260D01*
X39482667Y33744000D01*
X39654199Y33744000D01*
X38875187Y32964988D01*
X38119000Y32964988D01*
X38119000Y33135864D01*
X37961431Y33516270D01*
X37670280Y33807421D01*
X37629367Y33824368D01*
X37643909Y33827260D01*
X38118577Y34144423D01*
X38354000Y34496758D01*
X38589423Y34144423D01*
X38589423Y34144423D01*
G37*
X38589423Y34144423D02*
X39064091Y33827260D01*
X39482667Y33744000D01*
X39654199Y33744000D01*
X38875187Y32964988D01*
X38119000Y32964988D01*
X38119000Y33135864D01*
X37961431Y33516270D01*
X37670280Y33807421D01*
X37629367Y33824368D01*
X37643909Y33827260D01*
X38118577Y34144423D01*
X38354000Y34496758D01*
X38589423Y34144423D01*
G36*
X14548198Y33780000D02*
X14546317Y33780000D01*
X14547886Y33780312D01*
X14548198Y33780000D01*
X14548198Y33780000D01*
G37*
X14548198Y33780000D02*
X14546317Y33780000D01*
X14547886Y33780312D01*
X14548198Y33780000D01*
G36*
X13189423Y34144423D02*
X13664091Y33827260D01*
X13901683Y33780000D01*
X12006317Y33780000D01*
X12243909Y33827260D01*
X12718577Y34144423D01*
X12954000Y34496758D01*
X13189423Y34144423D01*
X13189423Y34144423D01*
G37*
X13189423Y34144423D02*
X13664091Y33827260D01*
X13901683Y33780000D01*
X12006317Y33780000D01*
X12243909Y33827260D01*
X12718577Y34144423D01*
X12954000Y34496758D01*
X13189423Y34144423D01*
G36*
X10649423Y34144423D02*
X11124091Y33827260D01*
X11361683Y33780000D01*
X9466317Y33780000D01*
X9703909Y33827260D01*
X10178577Y34144423D01*
X10414000Y34496758D01*
X10649423Y34144423D01*
X10649423Y34144423D01*
G37*
X10649423Y34144423D02*
X11124091Y33827260D01*
X11361683Y33780000D01*
X9466317Y33780000D01*
X9703909Y33827260D01*
X10178577Y34144423D01*
X10414000Y34496758D01*
X10649423Y34144423D01*
G36*
X8109423Y34144423D02*
X8584091Y33827260D01*
X8821683Y33780000D01*
X6926317Y33780000D01*
X7163909Y33827260D01*
X7638577Y34144423D01*
X7874000Y34496758D01*
X8109423Y34144423D01*
X8109423Y34144423D01*
G37*
X8109423Y34144423D02*
X8584091Y33827260D01*
X8821683Y33780000D01*
X6926317Y33780000D01*
X7163909Y33827260D01*
X7638577Y34144423D01*
X7874000Y34496758D01*
X8109423Y34144423D01*
G36*
X5205312Y35502886D02*
X5140887Y35179000D01*
X5252260Y34619091D01*
X5569423Y34144423D01*
X6044091Y33827260D01*
X6281683Y33780000D01*
X5737803Y33780000D01*
X4869331Y34648470D01*
X4826929Y34711929D01*
X4630908Y34842906D01*
X4627157Y34861765D01*
X4486809Y35071809D01*
X4276765Y35212157D01*
X4194019Y35228616D01*
X4189000Y35253847D01*
X4189000Y35253852D01*
X4144904Y35475537D01*
X3976929Y35726929D01*
X3913473Y35769329D01*
X3316241Y36366560D01*
X4029000Y36366560D01*
X4276765Y36415843D01*
X4286111Y36422088D01*
X5205312Y35502886D01*
X5205312Y35502886D01*
G37*
X5205312Y35502886D02*
X5140887Y35179000D01*
X5252260Y34619091D01*
X5569423Y34144423D01*
X6044091Y33827260D01*
X6281683Y33780000D01*
X5737803Y33780000D01*
X4869331Y34648470D01*
X4826929Y34711929D01*
X4630908Y34842906D01*
X4627157Y34861765D01*
X4486809Y35071809D01*
X4276765Y35212157D01*
X4194019Y35228616D01*
X4189000Y35253847D01*
X4189000Y35253852D01*
X4144904Y35475537D01*
X3976929Y35726929D01*
X3913473Y35769329D01*
X3316241Y36366560D01*
X4029000Y36366560D01*
X4276765Y36415843D01*
X4286111Y36422088D01*
X5205312Y35502886D01*
G36*
X4786071Y53286069D02*
X4849530Y53243667D01*
X6276273Y51816924D01*
X6044091Y51770740D01*
X5569423Y51453577D01*
X5252260Y50978909D01*
X5140887Y50419000D01*
X5252260Y49859091D01*
X5569423Y49384423D01*
X6044091Y49067260D01*
X6462667Y48984000D01*
X6745333Y48984000D01*
X7163909Y49067260D01*
X7638577Y49384423D01*
X7874000Y49736758D01*
X8109423Y49384423D01*
X8584091Y49067260D01*
X9002667Y48984000D01*
X9285333Y48984000D01*
X9703909Y49067260D01*
X10178577Y49384423D01*
X10414000Y49736758D01*
X10649423Y49384423D01*
X11124091Y49067260D01*
X11542667Y48984000D01*
X11825333Y48984000D01*
X12243909Y49067260D01*
X12598804Y49304393D01*
X25809392Y36093803D01*
X25654000Y35861242D01*
X25418577Y36213577D01*
X24943909Y36530740D01*
X24525333Y36614000D01*
X24242667Y36614000D01*
X23824091Y36530740D01*
X23349423Y36213577D01*
X23114000Y35861242D01*
X22878577Y36213577D01*
X22403909Y36530740D01*
X21985333Y36614000D01*
X21702667Y36614000D01*
X21284091Y36530740D01*
X20809423Y36213577D01*
X20574000Y35861242D01*
X20338577Y36213577D01*
X19863909Y36530740D01*
X19445333Y36614000D01*
X19162667Y36614000D01*
X18744091Y36530740D01*
X18269423Y36213577D01*
X18034000Y35861242D01*
X17798577Y36213577D01*
X17323909Y36530740D01*
X16905333Y36614000D01*
X16622667Y36614000D01*
X16204091Y36530740D01*
X15729423Y36213577D01*
X15494000Y35861242D01*
X15258577Y36213577D01*
X14783909Y36530740D01*
X14365333Y36614000D01*
X14082667Y36614000D01*
X13664091Y36530740D01*
X13189423Y36213577D01*
X12954000Y35861242D01*
X12718577Y36213577D01*
X12243909Y36530740D01*
X11825333Y36614000D01*
X11542667Y36614000D01*
X11124091Y36530740D01*
X10649423Y36213577D01*
X10414000Y35861242D01*
X10178577Y36213577D01*
X9703909Y36530740D01*
X9285333Y36614000D01*
X9002667Y36614000D01*
X8584091Y36530740D01*
X8109423Y36213577D01*
X7874000Y35861242D01*
X7638577Y36213577D01*
X7163909Y36530740D01*
X6745333Y36614000D01*
X6462667Y36614000D01*
X6280114Y36577688D01*
X4909331Y37948470D01*
X4866929Y38011929D01*
X4615537Y38179904D01*
X4614960Y38180019D01*
X4486809Y38371809D01*
X4276765Y38512157D01*
X4029000Y38561440D01*
X3695242Y38561440D01*
X4040473Y38906671D01*
X4103929Y38949071D01*
X4271904Y39200463D01*
X4316000Y39422148D01*
X4316000Y39422152D01*
X4330888Y39496999D01*
X4316000Y39571846D01*
X4316000Y49862386D01*
X4403765Y49879843D01*
X4613809Y50020191D01*
X4754157Y50230235D01*
X4803440Y50478000D01*
X4803440Y51378000D01*
X4754157Y51625765D01*
X4613809Y51835809D01*
X4403765Y51976157D01*
X4203669Y52015958D01*
X4433431Y52245720D01*
X4591000Y52626126D01*
X4591000Y53037874D01*
X4504354Y53247055D01*
X4613809Y53320191D01*
X4688541Y53432034D01*
X4786071Y53286069D01*
X4786071Y53286069D01*
G37*
X4786071Y53286069D02*
X4849530Y53243667D01*
X6276273Y51816924D01*
X6044091Y51770740D01*
X5569423Y51453577D01*
X5252260Y50978909D01*
X5140887Y50419000D01*
X5252260Y49859091D01*
X5569423Y49384423D01*
X6044091Y49067260D01*
X6462667Y48984000D01*
X6745333Y48984000D01*
X7163909Y49067260D01*
X7638577Y49384423D01*
X7874000Y49736758D01*
X8109423Y49384423D01*
X8584091Y49067260D01*
X9002667Y48984000D01*
X9285333Y48984000D01*
X9703909Y49067260D01*
X10178577Y49384423D01*
X10414000Y49736758D01*
X10649423Y49384423D01*
X11124091Y49067260D01*
X11542667Y48984000D01*
X11825333Y48984000D01*
X12243909Y49067260D01*
X12598804Y49304393D01*
X25809392Y36093803D01*
X25654000Y35861242D01*
X25418577Y36213577D01*
X24943909Y36530740D01*
X24525333Y36614000D01*
X24242667Y36614000D01*
X23824091Y36530740D01*
X23349423Y36213577D01*
X23114000Y35861242D01*
X22878577Y36213577D01*
X22403909Y36530740D01*
X21985333Y36614000D01*
X21702667Y36614000D01*
X21284091Y36530740D01*
X20809423Y36213577D01*
X20574000Y35861242D01*
X20338577Y36213577D01*
X19863909Y36530740D01*
X19445333Y36614000D01*
X19162667Y36614000D01*
X18744091Y36530740D01*
X18269423Y36213577D01*
X18034000Y35861242D01*
X17798577Y36213577D01*
X17323909Y36530740D01*
X16905333Y36614000D01*
X16622667Y36614000D01*
X16204091Y36530740D01*
X15729423Y36213577D01*
X15494000Y35861242D01*
X15258577Y36213577D01*
X14783909Y36530740D01*
X14365333Y36614000D01*
X14082667Y36614000D01*
X13664091Y36530740D01*
X13189423Y36213577D01*
X12954000Y35861242D01*
X12718577Y36213577D01*
X12243909Y36530740D01*
X11825333Y36614000D01*
X11542667Y36614000D01*
X11124091Y36530740D01*
X10649423Y36213577D01*
X10414000Y35861242D01*
X10178577Y36213577D01*
X9703909Y36530740D01*
X9285333Y36614000D01*
X9002667Y36614000D01*
X8584091Y36530740D01*
X8109423Y36213577D01*
X7874000Y35861242D01*
X7638577Y36213577D01*
X7163909Y36530740D01*
X6745333Y36614000D01*
X6462667Y36614000D01*
X6280114Y36577688D01*
X4909331Y37948470D01*
X4866929Y38011929D01*
X4615537Y38179904D01*
X4614960Y38180019D01*
X4486809Y38371809D01*
X4276765Y38512157D01*
X4029000Y38561440D01*
X3695242Y38561440D01*
X4040473Y38906671D01*
X4103929Y38949071D01*
X4271904Y39200463D01*
X4316000Y39422148D01*
X4316000Y39422152D01*
X4330888Y39496999D01*
X4316000Y39571846D01*
X4316000Y49862386D01*
X4403765Y49879843D01*
X4613809Y50020191D01*
X4754157Y50230235D01*
X4803440Y50478000D01*
X4803440Y51378000D01*
X4754157Y51625765D01*
X4613809Y51835809D01*
X4403765Y51976157D01*
X4203669Y52015958D01*
X4433431Y52245720D01*
X4591000Y52626126D01*
X4591000Y53037874D01*
X4504354Y53247055D01*
X4613809Y53320191D01*
X4688541Y53432034D01*
X4786071Y53286069D01*
G36*
X53863333Y36236235D02*
X53829423Y36213577D01*
X53594000Y35861242D01*
X53358577Y36213577D01*
X53193317Y36324000D01*
X53775569Y36324000D01*
X53863333Y36236235D01*
X53863333Y36236235D01*
G37*
X53863333Y36236235D02*
X53829423Y36213577D01*
X53594000Y35861242D01*
X53358577Y36213577D01*
X53193317Y36324000D01*
X53775569Y36324000D01*
X53863333Y36236235D01*
G36*
X58394001Y49349171D02*
X58394001Y49009582D01*
X58356500Y48919047D01*
X58289000Y49082007D01*
X58289000Y49349172D01*
X58341500Y49427744D01*
X58394001Y49349171D01*
X58394001Y49349171D01*
G37*
X58394001Y49349171D02*
X58394001Y49009582D01*
X58356500Y48919047D01*
X58289000Y49082007D01*
X58289000Y49349172D01*
X58341500Y49427744D01*
X58394001Y49349171D01*
G36*
X56519000Y68399172D02*
X56519001Y51488829D01*
X56395502Y51304000D01*
X56294533Y51304000D01*
X56262157Y51466765D01*
X56121809Y51676809D01*
X55911765Y51817157D01*
X55664000Y51866440D01*
X54333593Y51866440D01*
X54309903Y51985537D01*
X54259001Y52061717D01*
X54259001Y52907388D01*
X54304091Y52877260D01*
X54722667Y52794000D01*
X55005333Y52794000D01*
X55423909Y52877260D01*
X55898577Y53194423D01*
X56215740Y53669091D01*
X56327113Y54229000D01*
X56215740Y54788909D01*
X55898577Y55263577D01*
X55423909Y55580740D01*
X55005333Y55664000D01*
X54722667Y55664000D01*
X54304091Y55580740D01*
X54259001Y55550612D01*
X54259001Y68021560D01*
X55664000Y68021560D01*
X55911765Y68070843D01*
X56121809Y68211191D01*
X56262157Y68421235D01*
X56294533Y68584000D01*
X56395502Y68584000D01*
X56519000Y68399172D01*
X56519000Y68399172D01*
G37*
X56519000Y68399172D02*
X56519001Y51488829D01*
X56395502Y51304000D01*
X56294533Y51304000D01*
X56262157Y51466765D01*
X56121809Y51676809D01*
X55911765Y51817157D01*
X55664000Y51866440D01*
X54333593Y51866440D01*
X54309903Y51985537D01*
X54259001Y52061717D01*
X54259001Y52907388D01*
X54304091Y52877260D01*
X54722667Y52794000D01*
X55005333Y52794000D01*
X55423909Y52877260D01*
X55898577Y53194423D01*
X56215740Y53669091D01*
X56327113Y54229000D01*
X56215740Y54788909D01*
X55898577Y55263577D01*
X55423909Y55580740D01*
X55005333Y55664000D01*
X54722667Y55664000D01*
X54304091Y55580740D01*
X54259001Y55550612D01*
X54259001Y68021560D01*
X55664000Y68021560D01*
X55911765Y68070843D01*
X56121809Y68211191D01*
X56262157Y68421235D01*
X56294533Y68584000D01*
X56395502Y68584000D01*
X56519000Y68399172D01*
G36*
X58394001Y68399171D02*
X58394000Y51488828D01*
X58341500Y51410256D01*
X58289000Y51488828D01*
X58289000Y68399172D01*
X58341500Y68477744D01*
X58394001Y68399171D01*
X58394001Y68399171D01*
G37*
X58394001Y68399171D02*
X58394000Y51488828D01*
X58341500Y51410256D01*
X58289000Y51488828D01*
X58289000Y68399172D01*
X58341500Y68477744D01*
X58394001Y68399171D01*
G36*
X16622667Y52794000D02*
X16905333Y52794000D01*
X17179001Y52848436D01*
X17179001Y51908804D01*
X17087886Y51817688D01*
X16905333Y51854000D01*
X16622667Y51854000D01*
X16204091Y51770740D01*
X15849197Y51533607D01*
X15645757Y51737046D01*
X15646431Y51737720D01*
X15804000Y52118126D01*
X15804000Y52284198D01*
X16123475Y52603672D01*
X16186928Y52646070D01*
X16229326Y52709523D01*
X16229328Y52709525D01*
X16325295Y52853151D01*
X16622667Y52794000D01*
X16622667Y52794000D01*
G37*
X16622667Y52794000D02*
X16905333Y52794000D01*
X17179001Y52848436D01*
X17179001Y51908804D01*
X17087886Y51817688D01*
X16905333Y51854000D01*
X16622667Y51854000D01*
X16204091Y51770740D01*
X15849197Y51533607D01*
X15645757Y51737046D01*
X15646431Y51737720D01*
X15804000Y52118126D01*
X15804000Y52284198D01*
X16123475Y52603672D01*
X16186928Y52646070D01*
X16229326Y52709523D01*
X16229328Y52709525D01*
X16325295Y52853151D01*
X16622667Y52794000D01*
G36*
X18744091Y52877260D02*
X19162667Y52794000D01*
X19445333Y52794000D01*
X19719001Y52848436D01*
X19719001Y51908804D01*
X19627886Y51817688D01*
X19445333Y51854000D01*
X19162667Y51854000D01*
X18744091Y51770740D01*
X18699001Y51740612D01*
X18699001Y52907388D01*
X18744091Y52877260D01*
X18744091Y52877260D01*
G37*
X18744091Y52877260D02*
X19162667Y52794000D01*
X19445333Y52794000D01*
X19719001Y52848436D01*
X19719001Y51908804D01*
X19627886Y51817688D01*
X19445333Y51854000D01*
X19162667Y51854000D01*
X18744091Y51770740D01*
X18699001Y51740612D01*
X18699001Y52907388D01*
X18744091Y52877260D01*
G36*
X31444091Y52877260D02*
X31862667Y52794000D01*
X32145333Y52794000D01*
X32419001Y52848436D01*
X32419001Y51908804D01*
X32327886Y51817688D01*
X32145333Y51854000D01*
X31862667Y51854000D01*
X31444091Y51770740D01*
X31399001Y51740612D01*
X31399001Y52907388D01*
X31444091Y52877260D01*
X31444091Y52877260D01*
G37*
X31444091Y52877260D02*
X31862667Y52794000D01*
X32145333Y52794000D01*
X32419001Y52848436D01*
X32419001Y51908804D01*
X32327886Y51817688D01*
X32145333Y51854000D01*
X31862667Y51854000D01*
X31444091Y51770740D01*
X31399001Y51740612D01*
X31399001Y52907388D01*
X31444091Y52877260D01*
G36*
X44144091Y52877260D02*
X44562667Y52794000D01*
X44845333Y52794000D01*
X45119001Y52848436D01*
X45119001Y51908804D01*
X45027886Y51817688D01*
X44845333Y51854000D01*
X44562667Y51854000D01*
X44144091Y51770740D01*
X44099001Y51740612D01*
X44099001Y52907388D01*
X44144091Y52877260D01*
X44144091Y52877260D01*
G37*
X44144091Y52877260D02*
X44562667Y52794000D01*
X44845333Y52794000D01*
X45119001Y52848436D01*
X45119001Y51908804D01*
X45027886Y51817688D01*
X44845333Y51854000D01*
X44562667Y51854000D01*
X44144091Y51770740D01*
X44099001Y51740612D01*
X44099001Y52907388D01*
X44144091Y52877260D01*
G36*
X47848999Y52098801D02*
X47567886Y51817688D01*
X47385333Y51854000D01*
X47102667Y51854000D01*
X46684091Y51770740D01*
X46639001Y51740612D01*
X46639001Y52907388D01*
X46684091Y52877260D01*
X47102667Y52794000D01*
X47385333Y52794000D01*
X47803909Y52877260D01*
X47848999Y52907388D01*
X47848999Y52098801D01*
X47848999Y52098801D01*
G37*
X47848999Y52098801D02*
X47567886Y51817688D01*
X47385333Y51854000D01*
X47102667Y51854000D01*
X46684091Y51770740D01*
X46639001Y51740612D01*
X46639001Y52907388D01*
X46684091Y52877260D01*
X47102667Y52794000D01*
X47385333Y52794000D01*
X47803909Y52877260D01*
X47848999Y52907388D01*
X47848999Y52098801D01*
G36*
X22448999Y52098801D02*
X22167886Y51817688D01*
X21985333Y51854000D01*
X21702667Y51854000D01*
X21284091Y51770740D01*
X21239001Y51740612D01*
X21239001Y52907388D01*
X21284091Y52877260D01*
X21702667Y52794000D01*
X21985333Y52794000D01*
X22403909Y52877260D01*
X22448999Y52907388D01*
X22448999Y52098801D01*
X22448999Y52098801D01*
G37*
X22448999Y52098801D02*
X22167886Y51817688D01*
X21985333Y51854000D01*
X21702667Y51854000D01*
X21284091Y51770740D01*
X21239001Y51740612D01*
X21239001Y52907388D01*
X21284091Y52877260D01*
X21702667Y52794000D01*
X21985333Y52794000D01*
X22403909Y52877260D01*
X22448999Y52907388D01*
X22448999Y52098801D01*
G36*
X36524091Y52877260D02*
X36942667Y52794000D01*
X37225333Y52794000D01*
X37594000Y52867332D01*
X37594000Y52003802D01*
X37407886Y51817688D01*
X37225333Y51854000D01*
X36942667Y51854000D01*
X36524091Y51770740D01*
X36479001Y51740612D01*
X36479001Y52907388D01*
X36524091Y52877260D01*
X36524091Y52877260D01*
G37*
X36524091Y52877260D02*
X36942667Y52794000D01*
X37225333Y52794000D01*
X37594000Y52867332D01*
X37594000Y52003802D01*
X37407886Y51817688D01*
X37225333Y51854000D01*
X36942667Y51854000D01*
X36524091Y51770740D01*
X36479001Y51740612D01*
X36479001Y52907388D01*
X36524091Y52877260D01*
G36*
X51764091Y52877260D02*
X52182667Y52794000D01*
X52465333Y52794000D01*
X52739001Y52848436D01*
X52739001Y51908803D01*
X52647886Y51817688D01*
X52465333Y51854000D01*
X52182667Y51854000D01*
X51764091Y51770740D01*
X51719001Y51740612D01*
X51719001Y52907388D01*
X51764091Y52877260D01*
X51764091Y52877260D01*
G37*
X51764091Y52877260D02*
X52182667Y52794000D01*
X52465333Y52794000D01*
X52739001Y52848436D01*
X52739001Y51908803D01*
X52647886Y51817688D01*
X52465333Y51854000D01*
X52182667Y51854000D01*
X51764091Y51770740D01*
X51719001Y51740612D01*
X51719001Y52907388D01*
X51764091Y52877260D01*
G36*
X28904091Y52877260D02*
X29322667Y52794000D01*
X29605333Y52794000D01*
X29879001Y52848436D01*
X29879001Y51908804D01*
X29787886Y51817688D01*
X29605333Y51854000D01*
X29322667Y51854000D01*
X28904091Y51770740D01*
X28859001Y51740612D01*
X28859001Y52907388D01*
X28904091Y52877260D01*
X28904091Y52877260D01*
G37*
X28904091Y52877260D02*
X29322667Y52794000D01*
X29605333Y52794000D01*
X29879001Y52848436D01*
X29879001Y51908804D01*
X29787886Y51817688D01*
X29605333Y51854000D01*
X29322667Y51854000D01*
X28904091Y51770740D01*
X28859001Y51740612D01*
X28859001Y52907388D01*
X28904091Y52877260D01*
G36*
X41604091Y52877260D02*
X42022667Y52794000D01*
X42305333Y52794000D01*
X42579001Y52848436D01*
X42579001Y51908804D01*
X42487886Y51817688D01*
X42305333Y51854000D01*
X42022667Y51854000D01*
X41604091Y51770740D01*
X41559001Y51740612D01*
X41559001Y52907388D01*
X41604091Y52877260D01*
X41604091Y52877260D01*
G37*
X41604091Y52877260D02*
X42022667Y52794000D01*
X42305333Y52794000D01*
X42579001Y52848436D01*
X42579001Y51908804D01*
X42487886Y51817688D01*
X42305333Y51854000D01*
X42022667Y51854000D01*
X41604091Y51770740D01*
X41559001Y51740612D01*
X41559001Y52907388D01*
X41604091Y52877260D01*
G36*
X33984091Y52877260D02*
X34402667Y52794000D01*
X34685333Y52794000D01*
X34959001Y52848436D01*
X34959001Y51908804D01*
X34867886Y51817688D01*
X34685333Y51854000D01*
X34402667Y51854000D01*
X33984091Y51770740D01*
X33939001Y51740612D01*
X33939001Y52907388D01*
X33984091Y52877260D01*
X33984091Y52877260D01*
G37*
X33984091Y52877260D02*
X34402667Y52794000D01*
X34685333Y52794000D01*
X34959001Y52848436D01*
X34959001Y51908804D01*
X34867886Y51817688D01*
X34685333Y51854000D01*
X34402667Y51854000D01*
X33984091Y51770740D01*
X33939001Y51740612D01*
X33939001Y52907388D01*
X33984091Y52877260D01*
G36*
X39482667Y52794000D02*
X39765333Y52794000D01*
X40039001Y52848436D01*
X40039001Y51908804D01*
X39947886Y51817688D01*
X39765333Y51854000D01*
X39482667Y51854000D01*
X39114000Y51780668D01*
X39114000Y52867332D01*
X39482667Y52794000D01*
X39482667Y52794000D01*
G37*
X39482667Y52794000D02*
X39765333Y52794000D01*
X40039001Y52848436D01*
X40039001Y51908804D01*
X39947886Y51817688D01*
X39765333Y51854000D01*
X39482667Y51854000D01*
X39114000Y51780668D01*
X39114000Y52867332D01*
X39482667Y52794000D01*
G36*
X50199001Y51908804D02*
X50107886Y51817688D01*
X49925333Y51854000D01*
X49642667Y51854000D01*
X49380342Y51801820D01*
X49368999Y51858845D01*
X49368999Y52848436D01*
X49642667Y52794000D01*
X49925333Y52794000D01*
X50199001Y52848436D01*
X50199001Y51908804D01*
X50199001Y51908804D01*
G37*
X50199001Y51908804D02*
X50107886Y51817688D01*
X49925333Y51854000D01*
X49642667Y51854000D01*
X49380342Y51801820D01*
X49368999Y51858845D01*
X49368999Y52848436D01*
X49642667Y52794000D01*
X49925333Y52794000D01*
X50199001Y52848436D01*
X50199001Y51908804D01*
G36*
X24988999Y52098801D02*
X24707886Y51817688D01*
X24525333Y51854000D01*
X24242667Y51854000D01*
X23980342Y51801820D01*
X23968999Y51858845D01*
X23968999Y52848436D01*
X24242667Y52794000D01*
X24525333Y52794000D01*
X24943909Y52877260D01*
X24988999Y52907388D01*
X24988999Y52098801D01*
X24988999Y52098801D01*
G37*
X24988999Y52098801D02*
X24707886Y51817688D01*
X24525333Y51854000D01*
X24242667Y51854000D01*
X23980342Y51801820D01*
X23968999Y51858845D01*
X23968999Y52848436D01*
X24242667Y52794000D01*
X24525333Y52794000D01*
X24943909Y52877260D01*
X24988999Y52907388D01*
X24988999Y52098801D01*
G36*
X27339001Y51908804D02*
X27247886Y51817688D01*
X27065333Y51854000D01*
X26782667Y51854000D01*
X26520342Y51801820D01*
X26508999Y51858845D01*
X26508999Y52848436D01*
X26782667Y52794000D01*
X27065333Y52794000D01*
X27339001Y52848436D01*
X27339001Y51908804D01*
X27339001Y51908804D01*
G37*
X27339001Y51908804D02*
X27247886Y51817688D01*
X27065333Y51854000D01*
X26782667Y51854000D01*
X26520342Y51801820D01*
X26508999Y51858845D01*
X26508999Y52848436D01*
X26782667Y52794000D01*
X27065333Y52794000D01*
X27339001Y52848436D01*
X27339001Y51908804D01*
G36*
X8814594Y51818602D02*
X8640538Y51934903D01*
X8418853Y51978999D01*
X8418848Y51978999D01*
X8344001Y51993887D01*
X8269154Y51978999D01*
X8263801Y51978999D01*
X7284778Y52958022D01*
X7518804Y53114393D01*
X8814594Y51818602D01*
X8814594Y51818602D01*
G37*
X8814594Y51818602D02*
X8640538Y51934903D01*
X8418853Y51978999D01*
X8418848Y51978999D01*
X8344001Y51993887D01*
X8269154Y51978999D01*
X8263801Y51978999D01*
X7284778Y52958022D01*
X7518804Y53114393D01*
X8814594Y51818602D01*
G36*
X12143097Y52757463D02*
X12259399Y52583405D01*
X12011727Y52831076D01*
X12124012Y52853411D01*
X12143097Y52757463D01*
X12143097Y52757463D01*
G37*
X12143097Y52757463D02*
X12259399Y52583405D01*
X12011727Y52831076D01*
X12124012Y52853411D01*
X12143097Y52757463D01*
G36*
X14878999Y55517203D02*
X14783909Y55580740D01*
X14365333Y55664000D01*
X14082667Y55664000D01*
X13664091Y55580740D01*
X13619001Y55550612D01*
X13619001Y68147388D01*
X13664091Y68117260D01*
X14082667Y68034000D01*
X14365333Y68034000D01*
X14783909Y68117260D01*
X14879000Y68180798D01*
X14878999Y55517203D01*
X14878999Y55517203D01*
G37*
X14878999Y55517203D02*
X14783909Y55580740D01*
X14365333Y55664000D01*
X14082667Y55664000D01*
X13664091Y55580740D01*
X13619001Y55550612D01*
X13619001Y68147388D01*
X13664091Y68117260D01*
X14082667Y68034000D01*
X14365333Y68034000D01*
X14783909Y68117260D01*
X14879000Y68180798D01*
X14878999Y55517203D01*
G36*
X41604091Y68117260D02*
X42022667Y68034000D01*
X42305333Y68034000D01*
X42579002Y68088436D01*
X42579001Y55609564D01*
X42305333Y55664000D01*
X42022667Y55664000D01*
X41604091Y55580740D01*
X41559001Y55550612D01*
X41559001Y68147388D01*
X41604091Y68117260D01*
X41604091Y68117260D01*
G37*
X41604091Y68117260D02*
X42022667Y68034000D01*
X42305333Y68034000D01*
X42579002Y68088436D01*
X42579001Y55609564D01*
X42305333Y55664000D01*
X42022667Y55664000D01*
X41604091Y55580740D01*
X41559001Y55550612D01*
X41559001Y68147388D01*
X41604091Y68117260D01*
G36*
X18744091Y68117260D02*
X19162667Y68034000D01*
X19445333Y68034000D01*
X19719002Y68088436D01*
X19719001Y55609564D01*
X19445333Y55664000D01*
X19162667Y55664000D01*
X18744091Y55580740D01*
X18699001Y55550612D01*
X18699001Y68147388D01*
X18744091Y68117260D01*
X18744091Y68117260D01*
G37*
X18744091Y68117260D02*
X19162667Y68034000D01*
X19445333Y68034000D01*
X19719002Y68088436D01*
X19719001Y55609564D01*
X19445333Y55664000D01*
X19162667Y55664000D01*
X18744091Y55580740D01*
X18699001Y55550612D01*
X18699001Y68147388D01*
X18744091Y68117260D01*
G36*
X44144091Y68117260D02*
X44562667Y68034000D01*
X44845333Y68034000D01*
X45119002Y68088436D01*
X45119001Y55609564D01*
X44845333Y55664000D01*
X44562667Y55664000D01*
X44144091Y55580740D01*
X44099001Y55550612D01*
X44099001Y68147388D01*
X44144091Y68117260D01*
X44144091Y68117260D01*
G37*
X44144091Y68117260D02*
X44562667Y68034000D01*
X44845333Y68034000D01*
X45119002Y68088436D01*
X45119001Y55609564D01*
X44845333Y55664000D01*
X44562667Y55664000D01*
X44144091Y55580740D01*
X44099001Y55550612D01*
X44099001Y68147388D01*
X44144091Y68117260D01*
G36*
X51764091Y68117260D02*
X52182667Y68034000D01*
X52465333Y68034000D01*
X52739002Y68088436D01*
X52739001Y55609564D01*
X52465333Y55664000D01*
X52182667Y55664000D01*
X51764091Y55580740D01*
X51719001Y55550612D01*
X51719001Y68147388D01*
X51764091Y68117260D01*
X51764091Y68117260D01*
G37*
X51764091Y68117260D02*
X52182667Y68034000D01*
X52465333Y68034000D01*
X52739002Y68088436D01*
X52739001Y55609564D01*
X52465333Y55664000D01*
X52182667Y55664000D01*
X51764091Y55580740D01*
X51719001Y55550612D01*
X51719001Y68147388D01*
X51764091Y68117260D01*
G36*
X47848999Y55550612D02*
X47803909Y55580740D01*
X47385333Y55664000D01*
X47102667Y55664000D01*
X46684091Y55580740D01*
X46639001Y55550612D01*
X46639001Y68147388D01*
X46684091Y68117260D01*
X47102667Y68034000D01*
X47385333Y68034000D01*
X47803909Y68117260D01*
X47849000Y68147389D01*
X47848999Y55550612D01*
X47848999Y55550612D01*
G37*
X47848999Y55550612D02*
X47803909Y55580740D01*
X47385333Y55664000D01*
X47102667Y55664000D01*
X46684091Y55580740D01*
X46639001Y55550612D01*
X46639001Y68147388D01*
X46684091Y68117260D01*
X47102667Y68034000D01*
X47385333Y68034000D01*
X47803909Y68117260D01*
X47849000Y68147389D01*
X47848999Y55550612D01*
G36*
X36524091Y68117260D02*
X36942667Y68034000D01*
X37225333Y68034000D01*
X37594001Y68107333D01*
X37594000Y55590667D01*
X37225333Y55664000D01*
X36942667Y55664000D01*
X36524091Y55580740D01*
X36479001Y55550612D01*
X36479001Y68147388D01*
X36524091Y68117260D01*
X36524091Y68117260D01*
G37*
X36524091Y68117260D02*
X36942667Y68034000D01*
X37225333Y68034000D01*
X37594001Y68107333D01*
X37594000Y55590667D01*
X37225333Y55664000D01*
X36942667Y55664000D01*
X36524091Y55580740D01*
X36479001Y55550612D01*
X36479001Y68147388D01*
X36524091Y68117260D01*
G36*
X33984091Y68117260D02*
X34402667Y68034000D01*
X34685333Y68034000D01*
X34959002Y68088436D01*
X34959001Y55609564D01*
X34685333Y55664000D01*
X34402667Y55664000D01*
X33984091Y55580740D01*
X33939001Y55550612D01*
X33939001Y68147388D01*
X33984091Y68117260D01*
X33984091Y68117260D01*
G37*
X33984091Y68117260D02*
X34402667Y68034000D01*
X34685333Y68034000D01*
X34959002Y68088436D01*
X34959001Y55609564D01*
X34685333Y55664000D01*
X34402667Y55664000D01*
X33984091Y55580740D01*
X33939001Y55550612D01*
X33939001Y68147388D01*
X33984091Y68117260D01*
G36*
X24988999Y55550612D02*
X24943909Y55580740D01*
X24525333Y55664000D01*
X24242667Y55664000D01*
X23968999Y55609564D01*
X23968999Y68088436D01*
X24242667Y68034000D01*
X24525333Y68034000D01*
X24943909Y68117260D01*
X24989000Y68147389D01*
X24988999Y55550612D01*
X24988999Y55550612D01*
G37*
X24988999Y55550612D02*
X24943909Y55580740D01*
X24525333Y55664000D01*
X24242667Y55664000D01*
X23968999Y55609564D01*
X23968999Y68088436D01*
X24242667Y68034000D01*
X24525333Y68034000D01*
X24943909Y68117260D01*
X24989000Y68147389D01*
X24988999Y55550612D01*
G36*
X22448999Y55550612D02*
X22403909Y55580740D01*
X21985333Y55664000D01*
X21702667Y55664000D01*
X21284091Y55580740D01*
X21239001Y55550612D01*
X21239001Y68147388D01*
X21284091Y68117260D01*
X21702667Y68034000D01*
X21985333Y68034000D01*
X22403909Y68117260D01*
X22449000Y68147389D01*
X22448999Y55550612D01*
X22448999Y55550612D01*
G37*
X22448999Y55550612D02*
X22403909Y55580740D01*
X21985333Y55664000D01*
X21702667Y55664000D01*
X21284091Y55580740D01*
X21239001Y55550612D01*
X21239001Y68147388D01*
X21284091Y68117260D01*
X21702667Y68034000D01*
X21985333Y68034000D01*
X22403909Y68117260D01*
X22449000Y68147389D01*
X22448999Y55550612D01*
G36*
X28904091Y68117260D02*
X29322667Y68034000D01*
X29605333Y68034000D01*
X29879002Y68088436D01*
X29879001Y55609564D01*
X29605333Y55664000D01*
X29322667Y55664000D01*
X28904091Y55580740D01*
X28859001Y55550612D01*
X28859001Y68147388D01*
X28904091Y68117260D01*
X28904091Y68117260D01*
G37*
X28904091Y68117260D02*
X29322667Y68034000D01*
X29605333Y68034000D01*
X29879002Y68088436D01*
X29879001Y55609564D01*
X29605333Y55664000D01*
X29322667Y55664000D01*
X28904091Y55580740D01*
X28859001Y55550612D01*
X28859001Y68147388D01*
X28904091Y68117260D01*
G36*
X31444091Y68117260D02*
X31862667Y68034000D01*
X32145333Y68034000D01*
X32419002Y68088436D01*
X32419001Y55609564D01*
X32145333Y55664000D01*
X31862667Y55664000D01*
X31444091Y55580740D01*
X31399001Y55550612D01*
X31399001Y68147388D01*
X31444091Y68117260D01*
X31444091Y68117260D01*
G37*
X31444091Y68117260D02*
X31862667Y68034000D01*
X32145333Y68034000D01*
X32419002Y68088436D01*
X32419001Y55609564D01*
X32145333Y55664000D01*
X31862667Y55664000D01*
X31444091Y55580740D01*
X31399001Y55550612D01*
X31399001Y68147388D01*
X31444091Y68117260D01*
G36*
X39482667Y68034000D02*
X39765333Y68034000D01*
X40039002Y68088436D01*
X40039001Y55609564D01*
X39765333Y55664000D01*
X39482667Y55664000D01*
X39114000Y55590668D01*
X39114000Y68107332D01*
X39482667Y68034000D01*
X39482667Y68034000D01*
G37*
X39482667Y68034000D02*
X39765333Y68034000D01*
X40039002Y68088436D01*
X40039001Y55609564D01*
X39765333Y55664000D01*
X39482667Y55664000D01*
X39114000Y55590668D01*
X39114000Y68107332D01*
X39482667Y68034000D01*
G36*
X11542667Y68034000D02*
X11825333Y68034000D01*
X12099002Y68088436D01*
X12099001Y55609564D01*
X11825333Y55664000D01*
X11542667Y55664000D01*
X11174000Y55590668D01*
X11174000Y68107332D01*
X11542667Y68034000D01*
X11542667Y68034000D01*
G37*
X11542667Y68034000D02*
X11825333Y68034000D01*
X12099002Y68088436D01*
X12099001Y55609564D01*
X11825333Y55664000D01*
X11542667Y55664000D01*
X11174000Y55590668D01*
X11174000Y68107332D01*
X11542667Y68034000D01*
G36*
X9654000Y55590668D02*
X9285333Y55664000D01*
X9002667Y55664000D01*
X8634000Y55590668D01*
X8634000Y68107332D01*
X9002667Y68034000D01*
X9285333Y68034000D01*
X9654001Y68107333D01*
X9654000Y55590668D01*
X9654000Y55590668D01*
G37*
X9654000Y55590668D02*
X9285333Y55664000D01*
X9002667Y55664000D01*
X8634000Y55590668D01*
X8634000Y68107332D01*
X9002667Y68034000D01*
X9285333Y68034000D01*
X9654001Y68107333D01*
X9654000Y55590668D01*
G36*
X7114000Y55590668D02*
X6745333Y55664000D01*
X6462667Y55664000D01*
X6094000Y55590668D01*
X6094000Y68107332D01*
X6462667Y68034000D01*
X6745333Y68034000D01*
X7114001Y68107333D01*
X7114000Y55590668D01*
X7114000Y55590668D01*
G37*
X7114000Y55590668D02*
X6745333Y55664000D01*
X6462667Y55664000D01*
X6094000Y55590668D01*
X6094000Y68107332D01*
X6462667Y68034000D01*
X6745333Y68034000D01*
X7114001Y68107333D01*
X7114000Y55590668D01*
G36*
X27339001Y55609564D02*
X27065333Y55664000D01*
X26782667Y55664000D01*
X26508999Y55609564D01*
X26508999Y68088436D01*
X26782667Y68034000D01*
X27065333Y68034000D01*
X27339002Y68088436D01*
X27339001Y55609564D01*
X27339001Y55609564D01*
G37*
X27339001Y55609564D02*
X27065333Y55664000D01*
X26782667Y55664000D01*
X26508999Y55609564D01*
X26508999Y68088436D01*
X26782667Y68034000D01*
X27065333Y68034000D01*
X27339002Y68088436D01*
X27339001Y55609564D01*
G36*
X50199001Y55609564D02*
X49925333Y55664000D01*
X49642667Y55664000D01*
X49368999Y55609564D01*
X49368999Y68088436D01*
X49642667Y68034000D01*
X49925333Y68034000D01*
X50199002Y68088436D01*
X50199001Y55609564D01*
X50199001Y55609564D01*
G37*
X50199001Y55609564D02*
X49925333Y55664000D01*
X49642667Y55664000D01*
X49368999Y55609564D01*
X49368999Y68088436D01*
X49642667Y68034000D01*
X49925333Y68034000D01*
X50199002Y68088436D01*
X50199001Y55609564D01*
G36*
X17179001Y55609564D02*
X16905333Y55664000D01*
X16622667Y55664000D01*
X16398999Y55619510D01*
X16398999Y68078490D01*
X16622667Y68034000D01*
X16905333Y68034000D01*
X17179002Y68088436D01*
X17179001Y55609564D01*
X17179001Y55609564D01*
G37*
X17179001Y55609564D02*
X16905333Y55664000D01*
X16622667Y55664000D01*
X16398999Y55619510D01*
X16398999Y68078490D01*
X16622667Y68034000D01*
X16905333Y68034000D01*
X17179002Y68088436D01*
X17179001Y55609564D01*
G36*
X56326917Y75366670D02*
X56519001Y75238324D01*
X56519000Y70538828D01*
X56395502Y70354000D01*
X56294533Y70354000D01*
X56262157Y70516765D01*
X56121809Y70726809D01*
X55911765Y70867157D01*
X55664000Y70916440D01*
X54259001Y70916440D01*
X54259001Y75072254D01*
X54284582Y75055161D01*
X54717744Y74969000D01*
X55010256Y74969000D01*
X55443418Y75055161D01*
X55934625Y75383375D01*
X56125190Y75668576D01*
X56326917Y75366670D01*
X56326917Y75366670D01*
G37*
X56326917Y75366670D02*
X56519001Y75238324D01*
X56519000Y70538828D01*
X56395502Y70354000D01*
X56294533Y70354000D01*
X56262157Y70516765D01*
X56121809Y70726809D01*
X55911765Y70867157D01*
X55664000Y70916440D01*
X54259001Y70916440D01*
X54259001Y75072254D01*
X54284582Y75055161D01*
X54717744Y74969000D01*
X55010256Y74969000D01*
X55443418Y75055161D01*
X55934625Y75383375D01*
X56125190Y75668576D01*
X56326917Y75366670D01*
G36*
X59775248Y75370193D02*
X60116292Y75302355D01*
X60837553Y75302355D01*
X60837552Y71691631D01*
X59882215Y70736293D01*
X59863794Y70748602D01*
X59522750Y70816440D01*
X59035250Y70816440D01*
X58694206Y70748602D01*
X58405084Y70555416D01*
X58341500Y70460256D01*
X58289000Y70538828D01*
X58289000Y75246954D01*
X58468167Y75366670D01*
X58592198Y75552295D01*
X59502714Y75552295D01*
X59775248Y75370193D01*
X59775248Y75370193D01*
G37*
X59775248Y75370193D02*
X60116292Y75302355D01*
X60837553Y75302355D01*
X60837552Y71691631D01*
X59882215Y70736293D01*
X59863794Y70748602D01*
X59522750Y70816440D01*
X59035250Y70816440D01*
X58694206Y70748602D01*
X58405084Y70555416D01*
X58341500Y70460256D01*
X58289000Y70538828D01*
X58289000Y75246954D01*
X58468167Y75366670D01*
X58592198Y75552295D01*
X59502714Y75552295D01*
X59775248Y75370193D01*
G36*
X22449000Y70790611D02*
X22403909Y70820740D01*
X21985333Y70904000D01*
X21702667Y70904000D01*
X21284091Y70820740D01*
X21239001Y70790612D01*
X21239001Y75072254D01*
X21264582Y75055161D01*
X21697744Y74969000D01*
X21990256Y74969000D01*
X22423418Y75055161D01*
X22449000Y75072254D01*
X22449000Y70790611D01*
X22449000Y70790611D01*
G37*
X22449000Y70790611D02*
X22403909Y70820740D01*
X21985333Y70904000D01*
X21702667Y70904000D01*
X21284091Y70820740D01*
X21239001Y70790612D01*
X21239001Y75072254D01*
X21264582Y75055161D01*
X21697744Y74969000D01*
X21990256Y74969000D01*
X22423418Y75055161D01*
X22449000Y75072254D01*
X22449000Y70790611D01*
G36*
X24989000Y70790611D02*
X24943909Y70820740D01*
X24525333Y70904000D01*
X24242667Y70904000D01*
X23968999Y70849564D01*
X23968999Y75022457D01*
X24237744Y74969000D01*
X24530256Y74969000D01*
X24963418Y75055161D01*
X24989000Y75072254D01*
X24989000Y70790611D01*
X24989000Y70790611D01*
G37*
X24989000Y70790611D02*
X24943909Y70820740D01*
X24525333Y70904000D01*
X24242667Y70904000D01*
X23968999Y70849564D01*
X23968999Y75022457D01*
X24237744Y74969000D01*
X24530256Y74969000D01*
X24963418Y75055161D01*
X24989000Y75072254D01*
X24989000Y70790611D01*
G36*
X47849000Y70790611D02*
X47803909Y70820740D01*
X47385333Y70904000D01*
X47102667Y70904000D01*
X46684091Y70820740D01*
X46639001Y70790612D01*
X46639001Y75072254D01*
X46664582Y75055161D01*
X47097744Y74969000D01*
X47390256Y74969000D01*
X47823418Y75055161D01*
X47849000Y75072254D01*
X47849000Y70790611D01*
X47849000Y70790611D01*
G37*
X47849000Y70790611D02*
X47803909Y70820740D01*
X47385333Y70904000D01*
X47102667Y70904000D01*
X46684091Y70820740D01*
X46639001Y70790612D01*
X46639001Y75072254D01*
X46664582Y75055161D01*
X47097744Y74969000D01*
X47390256Y74969000D01*
X47823418Y75055161D01*
X47849000Y75072254D01*
X47849000Y70790611D01*
G36*
X51744582Y75055161D02*
X52177744Y74969000D01*
X52470256Y74969000D01*
X52739002Y75022457D01*
X52739002Y70849564D01*
X52465333Y70904000D01*
X52182667Y70904000D01*
X51764091Y70820740D01*
X51719001Y70790612D01*
X51719001Y75072254D01*
X51744582Y75055161D01*
X51744582Y75055161D01*
G37*
X51744582Y75055161D02*
X52177744Y74969000D01*
X52470256Y74969000D01*
X52739002Y75022457D01*
X52739002Y70849564D01*
X52465333Y70904000D01*
X52182667Y70904000D01*
X51764091Y70820740D01*
X51719001Y70790612D01*
X51719001Y75072254D01*
X51744582Y75055161D01*
G36*
X33964582Y75055161D02*
X34397744Y74969000D01*
X34690256Y74969000D01*
X34959002Y75022457D01*
X34959002Y70849564D01*
X34685333Y70904000D01*
X34402667Y70904000D01*
X33984091Y70820740D01*
X33939001Y70790612D01*
X33939001Y75072254D01*
X33964582Y75055161D01*
X33964582Y75055161D01*
G37*
X33964582Y75055161D02*
X34397744Y74969000D01*
X34690256Y74969000D01*
X34959002Y75022457D01*
X34959002Y70849564D01*
X34685333Y70904000D01*
X34402667Y70904000D01*
X33984091Y70820740D01*
X33939001Y70790612D01*
X33939001Y75072254D01*
X33964582Y75055161D01*
G36*
X18724582Y75055161D02*
X19157744Y74969000D01*
X19450256Y74969000D01*
X19719002Y75022457D01*
X19719002Y70849564D01*
X19445333Y70904000D01*
X19162667Y70904000D01*
X18744091Y70820740D01*
X18699001Y70790612D01*
X18699001Y75072254D01*
X18724582Y75055161D01*
X18724582Y75055161D01*
G37*
X18724582Y75055161D02*
X19157744Y74969000D01*
X19450256Y74969000D01*
X19719002Y75022457D01*
X19719002Y70849564D01*
X19445333Y70904000D01*
X19162667Y70904000D01*
X18744091Y70820740D01*
X18699001Y70790612D01*
X18699001Y75072254D01*
X18724582Y75055161D01*
G36*
X41584582Y75055161D02*
X42017744Y74969000D01*
X42310256Y74969000D01*
X42579002Y75022457D01*
X42579002Y70849564D01*
X42305333Y70904000D01*
X42022667Y70904000D01*
X41604091Y70820740D01*
X41559001Y70790612D01*
X41559001Y75072254D01*
X41584582Y75055161D01*
X41584582Y75055161D01*
G37*
X41584582Y75055161D02*
X42017744Y74969000D01*
X42310256Y74969000D01*
X42579002Y75022457D01*
X42579002Y70849564D01*
X42305333Y70904000D01*
X42022667Y70904000D01*
X41604091Y70820740D01*
X41559001Y70790612D01*
X41559001Y75072254D01*
X41584582Y75055161D01*
G36*
X36504582Y75055161D02*
X36937744Y74969000D01*
X37230256Y74969000D01*
X37594001Y75041353D01*
X37594001Y70830667D01*
X37225333Y70904000D01*
X36942667Y70904000D01*
X36524091Y70820740D01*
X36479001Y70790612D01*
X36479001Y75072254D01*
X36504582Y75055161D01*
X36504582Y75055161D01*
G37*
X36504582Y75055161D02*
X36937744Y74969000D01*
X37230256Y74969000D01*
X37594001Y75041353D01*
X37594001Y70830667D01*
X37225333Y70904000D01*
X36942667Y70904000D01*
X36524091Y70820740D01*
X36479001Y70790612D01*
X36479001Y75072254D01*
X36504582Y75055161D01*
G36*
X31424582Y75055161D02*
X31857744Y74969000D01*
X32150256Y74969000D01*
X32419002Y75022457D01*
X32419002Y70849564D01*
X32145333Y70904000D01*
X31862667Y70904000D01*
X31444091Y70820740D01*
X31399001Y70790612D01*
X31399001Y75072254D01*
X31424582Y75055161D01*
X31424582Y75055161D01*
G37*
X31424582Y75055161D02*
X31857744Y74969000D01*
X32150256Y74969000D01*
X32419002Y75022457D01*
X32419002Y70849564D01*
X32145333Y70904000D01*
X31862667Y70904000D01*
X31444091Y70820740D01*
X31399001Y70790612D01*
X31399001Y75072254D01*
X31424582Y75055161D01*
G36*
X44124582Y75055161D02*
X44557744Y74969000D01*
X44850256Y74969000D01*
X45119002Y75022457D01*
X45119002Y70849564D01*
X44845333Y70904000D01*
X44562667Y70904000D01*
X44144091Y70820740D01*
X44099001Y70790612D01*
X44099001Y75072254D01*
X44124582Y75055161D01*
X44124582Y75055161D01*
G37*
X44124582Y75055161D02*
X44557744Y74969000D01*
X44850256Y74969000D01*
X45119002Y75022457D01*
X45119002Y70849564D01*
X44845333Y70904000D01*
X44562667Y70904000D01*
X44144091Y70820740D01*
X44099001Y70790612D01*
X44099001Y75072254D01*
X44124582Y75055161D01*
G36*
X28884582Y75055161D02*
X29317744Y74969000D01*
X29610256Y74969000D01*
X29879002Y75022457D01*
X29879002Y70849564D01*
X29605333Y70904000D01*
X29322667Y70904000D01*
X28904091Y70820740D01*
X28859001Y70790612D01*
X28859001Y75072254D01*
X28884582Y75055161D01*
X28884582Y75055161D01*
G37*
X28884582Y75055161D02*
X29317744Y74969000D01*
X29610256Y74969000D01*
X29879002Y75022457D01*
X29879002Y70849564D01*
X29605333Y70904000D01*
X29322667Y70904000D01*
X28904091Y70820740D01*
X28859001Y70790612D01*
X28859001Y75072254D01*
X28884582Y75055161D01*
G36*
X7114001Y70830667D02*
X6745333Y70904000D01*
X6462667Y70904000D01*
X6094000Y70830668D01*
X6094000Y75041353D01*
X6457744Y74969000D01*
X6750256Y74969000D01*
X7114001Y75041353D01*
X7114001Y70830667D01*
X7114001Y70830667D01*
G37*
X7114001Y70830667D02*
X6745333Y70904000D01*
X6462667Y70904000D01*
X6094000Y70830668D01*
X6094000Y75041353D01*
X6457744Y74969000D01*
X6750256Y74969000D01*
X7114001Y75041353D01*
X7114001Y70830667D01*
G36*
X9654001Y70830667D02*
X9285333Y70904000D01*
X9002667Y70904000D01*
X8634000Y70830668D01*
X8634000Y75041353D01*
X8997744Y74969000D01*
X9290256Y74969000D01*
X9654001Y75041353D01*
X9654001Y70830667D01*
X9654001Y70830667D01*
G37*
X9654001Y70830667D02*
X9285333Y70904000D01*
X9002667Y70904000D01*
X8634000Y70830668D01*
X8634000Y75041353D01*
X8997744Y74969000D01*
X9290256Y74969000D01*
X9654001Y75041353D01*
X9654001Y70830667D01*
G36*
X39477744Y74969000D02*
X39770256Y74969000D01*
X40039002Y75022457D01*
X40039002Y70849564D01*
X39765333Y70904000D01*
X39482667Y70904000D01*
X39114000Y70830668D01*
X39114000Y75041353D01*
X39477744Y74969000D01*
X39477744Y74969000D01*
G37*
X39477744Y74969000D02*
X39770256Y74969000D01*
X40039002Y75022457D01*
X40039002Y70849564D01*
X39765333Y70904000D01*
X39482667Y70904000D01*
X39114000Y70830668D01*
X39114000Y75041353D01*
X39477744Y74969000D01*
G36*
X11537744Y74969000D02*
X11830256Y74969000D01*
X12099002Y75022457D01*
X12099002Y70849564D01*
X11825333Y70904000D01*
X11542667Y70904000D01*
X11174000Y70830668D01*
X11174000Y75041353D01*
X11537744Y74969000D01*
X11537744Y74969000D01*
G37*
X11537744Y74969000D02*
X11830256Y74969000D01*
X12099002Y75022457D01*
X12099002Y70849564D01*
X11825333Y70904000D01*
X11542667Y70904000D01*
X11174000Y70830668D01*
X11174000Y75041353D01*
X11537744Y74969000D01*
G36*
X50199002Y70849564D02*
X49925333Y70904000D01*
X49642667Y70904000D01*
X49368999Y70849564D01*
X49368999Y75022457D01*
X49637744Y74969000D01*
X49930256Y74969000D01*
X50199002Y75022457D01*
X50199002Y70849564D01*
X50199002Y70849564D01*
G37*
X50199002Y70849564D02*
X49925333Y70904000D01*
X49642667Y70904000D01*
X49368999Y70849564D01*
X49368999Y75022457D01*
X49637744Y74969000D01*
X49930256Y74969000D01*
X50199002Y75022457D01*
X50199002Y70849564D01*
G36*
X17179002Y70849564D02*
X16905333Y70904000D01*
X16622667Y70904000D01*
X16398999Y70859510D01*
X16398999Y71401196D01*
X16703474Y71705670D01*
X16766930Y71748070D01*
X16809925Y71812417D01*
X16934905Y71999461D01*
X16966744Y72159527D01*
X16979001Y72221147D01*
X16979001Y72221151D01*
X16993889Y72295999D01*
X16979001Y72370847D01*
X16979001Y74982674D01*
X17179002Y75022457D01*
X17179002Y70849564D01*
X17179002Y70849564D01*
G37*
X17179002Y70849564D02*
X16905333Y70904000D01*
X16622667Y70904000D01*
X16398999Y70859510D01*
X16398999Y71401196D01*
X16703474Y71705670D01*
X16766930Y71748070D01*
X16809925Y71812417D01*
X16934905Y71999461D01*
X16966744Y72159527D01*
X16979001Y72221147D01*
X16979001Y72221151D01*
X16993889Y72295999D01*
X16979001Y72370847D01*
X16979001Y74982674D01*
X17179002Y75022457D01*
X17179002Y70849564D01*
G36*
X27339002Y70849564D02*
X27065333Y70904000D01*
X26782667Y70904000D01*
X26508999Y70849564D01*
X26508999Y75022457D01*
X26777744Y74969000D01*
X27070256Y74969000D01*
X27339002Y75022457D01*
X27339002Y70849564D01*
X27339002Y70849564D01*
G37*
X27339002Y70849564D02*
X27065333Y70904000D01*
X26782667Y70904000D01*
X26508999Y70849564D01*
X26508999Y75022457D01*
X26777744Y74969000D01*
X27070256Y74969000D01*
X27339002Y75022457D01*
X27339002Y70849564D01*
G36*
X15459002Y74964196D02*
X15459001Y73679000D01*
X15288126Y73679000D01*
X14907720Y73521431D01*
X14616569Y73230280D01*
X14459000Y72849874D01*
X14459000Y72683802D01*
X14184199Y72409000D01*
X14018126Y72409000D01*
X13637720Y72251431D01*
X13619001Y72232712D01*
X13619001Y75072254D01*
X13644582Y75055161D01*
X14077744Y74969000D01*
X14370256Y74969000D01*
X14803418Y75055161D01*
X15141883Y75281316D01*
X15459002Y74964196D01*
X15459002Y74964196D01*
G37*
X15459002Y74964196D02*
X15459001Y73679000D01*
X15288126Y73679000D01*
X14907720Y73521431D01*
X14616569Y73230280D01*
X14459000Y72849874D01*
X14459000Y72683802D01*
X14184199Y72409000D01*
X14018126Y72409000D01*
X13637720Y72251431D01*
X13619001Y72232712D01*
X13619001Y75072254D01*
X13644582Y75055161D01*
X14077744Y74969000D01*
X14370256Y74969000D01*
X14803418Y75055161D01*
X15141883Y75281316D01*
X15459002Y74964196D01*
G36*
X56299777Y77529138D02*
X56345161Y77520111D01*
X56326917Y77507920D01*
X56136352Y77222719D01*
X55934625Y77524625D01*
X55916381Y77536816D01*
X55961765Y77545843D01*
X56118271Y77650418D01*
X56299777Y77529138D01*
X56299777Y77529138D01*
G37*
X56299777Y77529138D02*
X56345161Y77520111D01*
X56326917Y77507920D01*
X56136352Y77222719D01*
X55934625Y77524625D01*
X55916381Y77536816D01*
X55961765Y77545843D01*
X56118271Y77650418D01*
X56299777Y77529138D01*
G36*
X59225102Y78068545D02*
X59292940Y77727501D01*
X59486126Y77438379D01*
X59581286Y77374795D01*
X59502714Y77322295D01*
X58592198Y77322295D01*
X58468167Y77507920D01*
X58449923Y77520111D01*
X58495307Y77529138D01*
X58705351Y77669486D01*
X58845699Y77879530D01*
X58888020Y78092295D01*
X59225102Y78092295D01*
X59225102Y78068545D01*
X59225102Y78068545D01*
G37*
X59225102Y78068545D02*
X59292940Y77727501D01*
X59486126Y77438379D01*
X59581286Y77374795D01*
X59502714Y77322295D01*
X58592198Y77322295D01*
X58468167Y77507920D01*
X58449923Y77520111D01*
X58495307Y77529138D01*
X58705351Y77669486D01*
X58845699Y77879530D01*
X58888020Y78092295D01*
X59225102Y78092295D01*
X59225102Y78068545D01*
M02*
