%TF.GenerationSoftware,KiCad,Pcbnew,(5.0.0)*%
%TF.CreationDate,2018-09-17T08:33:24-07:00*%
%TF.ProjectId,6522,363532322E6B696361645F7063620000,0.1*%
%TF.SameCoordinates,PX6b302f8PY7fe6300*%
%TF.FileFunction,Soldermask,Bot*%
%TF.FilePolarity,Negative*%
%FSLAX46Y46*%
G04 Gerber Fmt 4.6, Leading zero omitted, Abs format (unit mm)*
G04 Created by KiCad (PCBNEW (5.0.0)) date 09/17/18 08:33:24*
%MOMM*%
%LPD*%
G01*
G04 APERTURE LIST*
%ADD10R,2.824000X7.650000*%
%ADD11R,2.100000X2.100000*%
%ADD12O,2.100000X2.100000*%
%ADD13R,2.000000X2.000000*%
%ADD14O,2.000000X2.000000*%
G04 APERTURE END LIST*
D10*
X1397000Y3810000D03*
X3937000Y3810000D03*
X6477000Y3810000D03*
X9017000Y3810000D03*
X11557000Y3810000D03*
X14097000Y3810000D03*
X16637000Y3810000D03*
X19177000Y3810000D03*
X21717000Y3810000D03*
X24257000Y3810000D03*
X26797000Y3810000D03*
X29337000Y3810000D03*
X31877000Y3810000D03*
X34417000Y3810000D03*
X36957000Y3810000D03*
X39497000Y3810000D03*
X42037000Y3810000D03*
X44577000Y3810000D03*
X47117000Y3810000D03*
X49657000Y3810000D03*
X52197000Y3810000D03*
X54737000Y3810000D03*
X57277000Y3810000D03*
X59817000Y3810000D03*
X62357000Y3810000D03*
D11*
X53848000Y78994000D03*
D12*
X53848000Y76454000D03*
X51308000Y78994000D03*
X51308000Y76454000D03*
X48768000Y78994000D03*
X48768000Y76454000D03*
X46228000Y78994000D03*
X46228000Y76454000D03*
X43688000Y78994000D03*
X43688000Y76454000D03*
X41148000Y78994000D03*
X41148000Y76454000D03*
X38608000Y78994000D03*
X38608000Y76454000D03*
X36068000Y78994000D03*
X36068000Y76454000D03*
X33528000Y78994000D03*
X33528000Y76454000D03*
X30988000Y78994000D03*
X30988000Y76454000D03*
X28448000Y78994000D03*
X28448000Y76454000D03*
X25908000Y78994000D03*
X25908000Y76454000D03*
X23368000Y78994000D03*
X23368000Y76454000D03*
X20828000Y78994000D03*
X20828000Y76454000D03*
X18288000Y78994000D03*
X18288000Y76454000D03*
X15748000Y78994000D03*
X15748000Y76454000D03*
X13208000Y78994000D03*
X13208000Y76454000D03*
X10668000Y78994000D03*
X10668000Y76454000D03*
X8128000Y78994000D03*
X8128000Y76454000D03*
X5588000Y78994000D03*
X5588000Y76454000D03*
D13*
X53848000Y69469000D03*
D14*
X5588000Y54229000D03*
X51308000Y69469000D03*
X8128000Y54229000D03*
X48768000Y69469000D03*
X10668000Y54229000D03*
X46228000Y69469000D03*
X13208000Y54229000D03*
X43688000Y69469000D03*
X15748000Y54229000D03*
X41148000Y69469000D03*
X18288000Y54229000D03*
X38608000Y69469000D03*
X20828000Y54229000D03*
X36068000Y69469000D03*
X23368000Y54229000D03*
X33528000Y69469000D03*
X25908000Y54229000D03*
X30988000Y69469000D03*
X28448000Y54229000D03*
X28448000Y69469000D03*
X30988000Y54229000D03*
X25908000Y69469000D03*
X33528000Y54229000D03*
X23368000Y69469000D03*
X36068000Y54229000D03*
X20828000Y69469000D03*
X38608000Y54229000D03*
X18288000Y69469000D03*
X41148000Y54229000D03*
X15748000Y69469000D03*
X43688000Y54229000D03*
X13208000Y69469000D03*
X46228000Y54229000D03*
X10668000Y69469000D03*
X48768000Y54229000D03*
X8128000Y69469000D03*
X51308000Y54229000D03*
X5588000Y69469000D03*
X53848000Y54229000D03*
D11*
X56381542Y78977295D03*
D12*
X56381542Y76437295D03*
D14*
X53848000Y35179000D03*
X5588000Y50419000D03*
X51308000Y35179000D03*
X8128000Y50419000D03*
X48768000Y35179000D03*
X10668000Y50419000D03*
X46228000Y35179000D03*
X13208000Y50419000D03*
X43688000Y35179000D03*
X15748000Y50419000D03*
X41148000Y35179000D03*
X18288000Y50419000D03*
X38608000Y35179000D03*
X20828000Y50419000D03*
X36068000Y35179000D03*
X23368000Y50419000D03*
X33528000Y35179000D03*
X25908000Y50419000D03*
X30988000Y35179000D03*
X28448000Y50419000D03*
X28448000Y35179000D03*
X30988000Y50419000D03*
X25908000Y35179000D03*
X33528000Y50419000D03*
X23368000Y35179000D03*
X36068000Y50419000D03*
X20828000Y35179000D03*
X38608000Y50419000D03*
X18288000Y35179000D03*
X41148000Y50419000D03*
X15748000Y35179000D03*
X43688000Y50419000D03*
X13208000Y35179000D03*
X46228000Y50419000D03*
X10668000Y35179000D03*
X48768000Y50419000D03*
X8128000Y35179000D03*
X51308000Y50419000D03*
X5588000Y35179000D03*
D13*
X53848000Y50419000D03*
M02*
