%TF.GenerationSoftware,KiCad,Pcbnew,(6.0.2-0)*%
%TF.CreationDate,2022-03-26T21:25:16+01:00*%
%TF.ProjectId,mockingboard2k,6d6f636b-696e-4676-926f-617264326b2e,0.1*%
%TF.SameCoordinates,PXc52d8a0PY889e9c0*%
%TF.FileFunction,Copper,L2,Bot*%
%TF.FilePolarity,Positive*%
%FSLAX46Y46*%
G04 Gerber Fmt 4.6, Leading zero omitted, Abs format (unit mm)*
G04 Created by KiCad (PCBNEW (6.0.2-0)) date 2022-03-26 21:25:16*
%MOMM*%
%LPD*%
G01*
G04 APERTURE LIST*
G04 Aperture macros list*
%AMRoundRect*
0 Rectangle with rounded corners*
0 $1 Rounding radius*
0 $2 $3 $4 $5 $6 $7 $8 $9 X,Y pos of 4 corners*
0 Add a 4 corners polygon primitive as box body*
4,1,4,$2,$3,$4,$5,$6,$7,$8,$9,$2,$3,0*
0 Add four circle primitives for the rounded corners*
1,1,$1+$1,$2,$3*
1,1,$1+$1,$4,$5*
1,1,$1+$1,$6,$7*
1,1,$1+$1,$8,$9*
0 Add four rect primitives between the rounded corners*
20,1,$1+$1,$2,$3,$4,$5,0*
20,1,$1+$1,$4,$5,$6,$7,0*
20,1,$1+$1,$6,$7,$8,$9,0*
20,1,$1+$1,$8,$9,$2,$3,0*%
G04 Aperture macros list end*
%TA.AperFunction,SMDPad,CuDef*%
%ADD10R,1.524000X6.350000*%
%TD*%
%TA.AperFunction,ComponentPad*%
%ADD11R,1.600000X1.600000*%
%TD*%
%TA.AperFunction,ComponentPad*%
%ADD12O,1.600000X1.600000*%
%TD*%
%TA.AperFunction,ComponentPad*%
%ADD13R,1.700000X1.700000*%
%TD*%
%TA.AperFunction,ComponentPad*%
%ADD14O,1.700000X1.700000*%
%TD*%
%TA.AperFunction,SMDPad,CuDef*%
%ADD15RoundRect,0.243750X0.243750X0.456250X-0.243750X0.456250X-0.243750X-0.456250X0.243750X-0.456250X0*%
%TD*%
%TA.AperFunction,SMDPad,CuDef*%
%ADD16RoundRect,0.243750X0.456250X-0.243750X0.456250X0.243750X-0.456250X0.243750X-0.456250X-0.243750X0*%
%TD*%
%TA.AperFunction,SMDPad,CuDef*%
%ADD17RoundRect,0.243750X-0.243750X-0.456250X0.243750X-0.456250X0.243750X0.456250X-0.243750X0.456250X0*%
%TD*%
%TA.AperFunction,SMDPad,CuDef*%
%ADD18R,1.200000X0.900000*%
%TD*%
%TA.AperFunction,SMDPad,CuDef*%
%ADD19RoundRect,0.250000X0.450000X-0.262500X0.450000X0.262500X-0.450000X0.262500X-0.450000X-0.262500X0*%
%TD*%
%TA.AperFunction,SMDPad,CuDef*%
%ADD20RoundRect,0.250000X-0.250000X-0.475000X0.250000X-0.475000X0.250000X0.475000X-0.250000X0.475000X0*%
%TD*%
%TA.AperFunction,SMDPad,CuDef*%
%ADD21R,0.900000X1.200000*%
%TD*%
%TA.AperFunction,SMDPad,CuDef*%
%ADD22RoundRect,0.250000X-0.450000X0.262500X-0.450000X-0.262500X0.450000X-0.262500X0.450000X0.262500X0*%
%TD*%
%TA.AperFunction,SMDPad,CuDef*%
%ADD23R,1.005599X0.500000*%
%TD*%
%TA.AperFunction,SMDPad,CuDef*%
%ADD24RoundRect,0.100000X-0.637500X-0.100000X0.637500X-0.100000X0.637500X0.100000X-0.637500X0.100000X0*%
%TD*%
%TA.AperFunction,ViaPad*%
%ADD25C,0.800000*%
%TD*%
%TA.AperFunction,Conductor*%
%ADD26C,0.250000*%
%TD*%
%TA.AperFunction,Conductor*%
%ADD27C,0.500000*%
%TD*%
G04 APERTURE END LIST*
D10*
X-9017000Y3810000D03*
X-11557000Y3810000D03*
X-14097000Y3810000D03*
X-16637000Y3810000D03*
X-19177000Y3810000D03*
X-21717000Y3810000D03*
X-24257000Y3810000D03*
X-26797000Y3810000D03*
X-29337000Y3810000D03*
X-31877000Y3810000D03*
X-34417000Y3810000D03*
X-36957000Y3810000D03*
X-39497000Y3810000D03*
X-42037000Y3810000D03*
X-44577000Y3810000D03*
X-47117000Y3810000D03*
X-49657000Y3810000D03*
X-52197000Y3810000D03*
X-54737000Y3810000D03*
X-57277000Y3810000D03*
X-59817000Y3810000D03*
X-62357000Y3810000D03*
X-64897000Y3810000D03*
X-67437000Y3810000D03*
X-69977000Y3810000D03*
D11*
X-75008642Y42845000D03*
D12*
X-77548642Y42845000D03*
X-80088642Y42845000D03*
X-82628642Y42845000D03*
X-85168642Y42845000D03*
X-87708642Y42845000D03*
X-90248642Y42845000D03*
X-92788642Y42845000D03*
X-95328642Y42845000D03*
X-97868642Y42845000D03*
X-100408642Y42845000D03*
X-102948642Y42845000D03*
X-105488642Y42845000D03*
X-108028642Y42845000D03*
X-110568642Y42845000D03*
X-113108642Y42845000D03*
X-115648642Y42845000D03*
X-118188642Y42845000D03*
X-120728642Y42845000D03*
X-123268642Y42845000D03*
X-123268642Y27605000D03*
X-120728642Y27605000D03*
X-118188642Y27605000D03*
X-115648642Y27605000D03*
X-113108642Y27605000D03*
X-110568642Y27605000D03*
X-108028642Y27605000D03*
X-105488642Y27605000D03*
X-102948642Y27605000D03*
X-100408642Y27605000D03*
X-97868642Y27605000D03*
X-95328642Y27605000D03*
X-92788642Y27605000D03*
X-90248642Y27605000D03*
X-87708642Y27605000D03*
X-85168642Y27605000D03*
X-82628642Y27605000D03*
X-80088642Y27605000D03*
X-77548642Y27605000D03*
X-75008642Y27605000D03*
D11*
X-74935000Y65029000D03*
D12*
X-77475000Y65029000D03*
X-80015000Y65029000D03*
X-82555000Y65029000D03*
X-85095000Y65029000D03*
X-87635000Y65029000D03*
X-90175000Y65029000D03*
X-92715000Y65029000D03*
X-95255000Y65029000D03*
X-97795000Y65029000D03*
X-100335000Y65029000D03*
X-102875000Y65029000D03*
X-105415000Y65029000D03*
X-107955000Y65029000D03*
X-110495000Y65029000D03*
X-113035000Y65029000D03*
X-115575000Y65029000D03*
X-118115000Y65029000D03*
X-120655000Y65029000D03*
X-123195000Y65029000D03*
X-123195000Y49789000D03*
X-120655000Y49789000D03*
X-118115000Y49789000D03*
X-115575000Y49789000D03*
X-113035000Y49789000D03*
X-110495000Y49789000D03*
X-107955000Y49789000D03*
X-105415000Y49789000D03*
X-102875000Y49789000D03*
X-100335000Y49789000D03*
X-97795000Y49789000D03*
X-95255000Y49789000D03*
X-92715000Y49789000D03*
X-90175000Y49789000D03*
X-87635000Y49789000D03*
X-85095000Y49789000D03*
X-82555000Y49789000D03*
X-80015000Y49789000D03*
X-77475000Y49789000D03*
X-74935000Y49789000D03*
D13*
X-3389000Y59862000D03*
D14*
X-5929000Y59862000D03*
X-8469000Y59862000D03*
X-11009000Y59862000D03*
D11*
X-19304000Y65024000D03*
D12*
X-21844000Y65024000D03*
X-24384000Y65024000D03*
X-26924000Y65024000D03*
X-29464000Y65024000D03*
X-32004000Y65024000D03*
X-34544000Y65024000D03*
X-37084000Y65024000D03*
X-39624000Y65024000D03*
X-42164000Y65024000D03*
X-44704000Y65024000D03*
X-47244000Y65024000D03*
X-49784000Y65024000D03*
X-52324000Y65024000D03*
X-54864000Y65024000D03*
X-57404000Y65024000D03*
X-59944000Y65024000D03*
X-62484000Y65024000D03*
X-65024000Y65024000D03*
X-67564000Y65024000D03*
X-67564000Y49784000D03*
X-65024000Y49784000D03*
X-62484000Y49784000D03*
X-59944000Y49784000D03*
X-57404000Y49784000D03*
X-54864000Y49784000D03*
X-52324000Y49784000D03*
X-49784000Y49784000D03*
X-47244000Y49784000D03*
X-44704000Y49784000D03*
X-42164000Y49784000D03*
X-39624000Y49784000D03*
X-37084000Y49784000D03*
X-34544000Y49784000D03*
X-32004000Y49784000D03*
X-29464000Y49784000D03*
X-26924000Y49784000D03*
X-24384000Y49784000D03*
X-21844000Y49784000D03*
X-19304000Y49784000D03*
D11*
X-19382642Y42845000D03*
D12*
X-21922642Y42845000D03*
X-24462642Y42845000D03*
X-27002642Y42845000D03*
X-29542642Y42845000D03*
X-32082642Y42845000D03*
X-34622642Y42845000D03*
X-37162642Y42845000D03*
X-39702642Y42845000D03*
X-42242642Y42845000D03*
X-44782642Y42845000D03*
X-47322642Y42845000D03*
X-49862642Y42845000D03*
X-52402642Y42845000D03*
X-54942642Y42845000D03*
X-57482642Y42845000D03*
X-60022642Y42845000D03*
X-62562642Y42845000D03*
X-65102642Y42845000D03*
X-67642642Y42845000D03*
X-67642642Y27605000D03*
X-65102642Y27605000D03*
X-62562642Y27605000D03*
X-60022642Y27605000D03*
X-57482642Y27605000D03*
X-54942642Y27605000D03*
X-52402642Y27605000D03*
X-49862642Y27605000D03*
X-47322642Y27605000D03*
X-44782642Y27605000D03*
X-42242642Y27605000D03*
X-39702642Y27605000D03*
X-37162642Y27605000D03*
X-34622642Y27605000D03*
X-32082642Y27605000D03*
X-29542642Y27605000D03*
X-27002642Y27605000D03*
X-24462642Y27605000D03*
X-21922642Y27605000D03*
X-19382642Y27605000D03*
D15*
X-9197100Y16002000D03*
X-11072100Y16002000D03*
D16*
X-19278600Y56415700D03*
X-19278600Y58290700D03*
D17*
X-67739500Y40182800D03*
X-65864500Y40182800D03*
D16*
X-24892000Y34368500D03*
X-24892000Y36243500D03*
D17*
X-123190000Y40132000D03*
X-121315000Y40132000D03*
D16*
X-74955400Y56314100D03*
X-74955400Y58189100D03*
D15*
X-9197100Y12293600D03*
X-11072100Y12293600D03*
D18*
X-123317000Y32132000D03*
X-123317000Y35432000D03*
X-67666090Y32052375D03*
X-67666090Y35352375D03*
D19*
X-24384000Y68326000D03*
X-24384000Y70151000D03*
X-24380127Y52669188D03*
X-24380127Y54494188D03*
D20*
X-17333000Y74168000D03*
X-15433000Y74168000D03*
D21*
X-59183000Y46101000D03*
X-62483000Y46101000D03*
D19*
X-26924000Y68326000D03*
X-26924000Y70151000D03*
D22*
X-24395324Y62383486D03*
X-24395324Y60558486D03*
D23*
X-56051201Y32192001D03*
X-56051201Y31242000D03*
X-56051201Y30291999D03*
X-58756799Y30291999D03*
X-58756799Y32192001D03*
D22*
X-80020522Y62488772D03*
X-80020522Y60663772D03*
X-26931019Y62383486D03*
X-26931019Y60558486D03*
D21*
X-75032600Y46126400D03*
X-78332600Y46126400D03*
D22*
X-82558388Y62485871D03*
X-82558388Y60660871D03*
D24*
X-33088500Y33356000D03*
X-33088500Y34006000D03*
X-33088500Y34656000D03*
X-33088500Y35306000D03*
X-33088500Y35956000D03*
X-33088500Y36606000D03*
X-33088500Y37256000D03*
X-27363500Y37256000D03*
X-27363500Y36606000D03*
X-27363500Y35956000D03*
X-27363500Y35306000D03*
X-27363500Y34656000D03*
X-27363500Y34006000D03*
X-27363500Y33356000D03*
D19*
X-80016584Y67871307D03*
X-80016584Y69696307D03*
X-82562925Y67883413D03*
X-82562925Y69708413D03*
X-85134267Y67891376D03*
X-85134267Y69716376D03*
D20*
X-17333000Y70254500D03*
X-15433000Y70254500D03*
D19*
X-29718000Y68279000D03*
X-29718000Y70104000D03*
X-80016314Y52543069D03*
X-80016314Y54368069D03*
D25*
X-32018796Y34656000D03*
X-28433205Y35306000D03*
X-35560000Y34544000D03*
X-12954000Y71882000D03*
X-118110000Y45974000D03*
X-78332600Y46126400D03*
X-105410000Y45974000D03*
X-9279001Y26805001D03*
X-8797312Y8474688D03*
X-19558000Y33020000D03*
X-59436000Y33020000D03*
X-67739500Y40182800D03*
X-74930000Y40132000D03*
X-67564000Y48260000D03*
X-34372255Y32988313D03*
X-75008642Y32941358D03*
X-26924000Y60452000D03*
X-80010000Y60706000D03*
X-24395324Y60558486D03*
X-121315000Y40132000D03*
X-24384000Y54356000D03*
X-82550000Y60706000D03*
X-56134000Y30226000D03*
X-19304000Y58166000D03*
X-24892000Y36322000D03*
X-10922000Y9398000D03*
X-74930000Y58420000D03*
X-80010000Y54356000D03*
X-33088500Y37405500D03*
X-65864500Y40182800D03*
X-11557000Y3810000D03*
X-14097000Y3810000D03*
X-120777000Y20066000D03*
X-25400000Y18542000D03*
X-25400000Y8128000D03*
X-65024000Y20103500D03*
X-32004000Y17780000D03*
X-87630000Y17780000D03*
X-58420000Y17780000D03*
X-58674000Y8128000D03*
X-61214000Y8128000D03*
X-85090000Y17018000D03*
X-61073987Y16980500D03*
X-29464000Y17272000D03*
X-64008000Y8128000D03*
X-64008000Y16256000D03*
X-26924000Y16510000D03*
X-82550000Y16256000D03*
X-66548000Y15494000D03*
X-24384000Y15494000D03*
X-66548000Y8128000D03*
X-80010000Y15494000D03*
X-69088000Y8128000D03*
X-69088000Y19304000D03*
X-118110000Y19304000D03*
X-62484000Y19304000D03*
X-19177000Y21590000D03*
X-124333000Y21717000D03*
X-69469000Y21590000D03*
X-59183000Y46101000D03*
X-76454000Y40386000D03*
X-21717000Y20828000D03*
X-34671000Y20828000D03*
X-88900000Y40386000D03*
X-90170000Y20865500D03*
X-75032600Y46126400D03*
X-43434000Y34036000D03*
X-33870105Y33871504D03*
X-92710000Y9398000D03*
X-67564000Y9398000D03*
X-37084000Y9652000D03*
X-64770000Y10160000D03*
X-39624000Y10160000D03*
X-95250000Y10160000D03*
X-62230000Y10922000D03*
X-42164000Y10922000D03*
X-97790000Y10922000D03*
X-100330000Y11684000D03*
X-59690000Y11684000D03*
X-44704000Y11684000D03*
X-102870000Y12446000D03*
X-57150000Y12446000D03*
X-47244000Y12446000D03*
X-50381500Y13828895D03*
X-105410000Y13208000D03*
X-54610000Y13208000D03*
X-52070000Y13970000D03*
X-107950000Y13970000D03*
X-54864000Y14732000D03*
X-49276000Y14732000D03*
X-110490000Y14732000D03*
X-48514000Y8128000D03*
X-53594000Y18542000D03*
X-48514000Y18542000D03*
X-115570000Y18542000D03*
X-57404000Y34036000D03*
X-119634000Y34036000D03*
X-113030000Y34036000D03*
X-57404000Y36576000D03*
X-64008000Y34036000D03*
X-31750000Y36576000D03*
D26*
X-26924000Y70151000D02*
X-24384000Y70151000D01*
X-29671000Y70151000D02*
X-26924000Y70151000D01*
X-24384000Y70151000D02*
X-17436500Y70151000D01*
X-29718000Y70104000D02*
X-29671000Y70151000D01*
X-17436500Y70151000D02*
X-17333000Y70254500D01*
X-3389000Y68413000D02*
X-3389000Y59862000D01*
X-15433000Y70254500D02*
X-5230500Y70254500D01*
X-5230500Y70254500D02*
X-3389000Y68413000D01*
X-35814000Y34290000D02*
X-35560000Y34544000D01*
X-28433205Y35306000D02*
X-27363500Y35306000D01*
X-35814000Y5207000D02*
X-35814000Y34290000D01*
X-34417000Y3810000D02*
X-35814000Y5207000D01*
X-32018796Y34656000D02*
X-33088500Y34656000D01*
X-15433000Y74168000D02*
X-15240000Y74168000D01*
X-15240000Y74168000D02*
X-12954000Y71882000D01*
X-82562925Y67883413D02*
X-82555000Y67875488D01*
X-82555000Y67875488D02*
X-82555000Y65029000D01*
X-82555000Y65029000D02*
X-82555000Y62489259D01*
X-82555000Y62489259D02*
X-82558388Y62485871D01*
X-102875000Y47851358D02*
X-102875000Y49789000D01*
X-97868642Y42845000D02*
X-102875000Y47851358D01*
X-104553642Y46990000D02*
X-107442000Y46990000D01*
X-107955000Y47503000D02*
X-107955000Y49789000D01*
X-100408642Y42845000D02*
X-104553642Y46990000D01*
X-107442000Y46990000D02*
X-107955000Y47503000D01*
X-118115000Y45979000D02*
X-118115000Y49789000D01*
X-102948642Y42845000D02*
X-105410000Y45306358D01*
X-105410000Y45306358D02*
X-105410000Y45974000D01*
X-118110000Y45974000D02*
X-118115000Y45979000D01*
X-80016314Y52543069D02*
X-83679511Y56206266D01*
X-83679511Y56206266D02*
X-83679511Y66436620D01*
X-80015000Y49789000D02*
X-80015000Y52541755D01*
X-83679511Y66436620D02*
X-85134267Y67891376D01*
X-80015000Y52541755D02*
X-80016314Y52543069D01*
X-24384000Y62394810D02*
X-24384000Y65024000D01*
X-24395324Y62383486D02*
X-24384000Y62394810D01*
X-24384000Y65024000D02*
X-24384000Y68326000D01*
X-24380127Y52669188D02*
X-28048511Y56337572D01*
X-24384000Y52665315D02*
X-24384000Y49784000D01*
X-28048511Y56337572D02*
X-28048511Y66609511D01*
X-28048511Y66609511D02*
X-29718000Y68279000D01*
X-24380127Y52669188D02*
X-24384000Y52665315D01*
X-42242642Y42845000D02*
X-47244000Y47846358D01*
X-47244000Y47846358D02*
X-47244000Y49784000D01*
X-52324000Y47752000D02*
X-52324000Y49784000D01*
X-48673642Y46736000D02*
X-51308000Y46736000D01*
X-44782642Y42845000D02*
X-48673642Y46736000D01*
X-51308000Y46736000D02*
X-52324000Y47752000D01*
X-62483000Y49783000D02*
X-62484000Y49784000D01*
X-62483000Y46101000D02*
X-62483000Y49783000D01*
X-49654131Y45176489D02*
X-47322642Y42845000D01*
X-62483000Y46101000D02*
X-61558489Y45176489D01*
X-61558489Y45176489D02*
X-49654131Y45176489D01*
D27*
X-26176480Y33678382D02*
X-26498862Y33356000D01*
X-20632153Y48455847D02*
X-20632153Y34094153D01*
X-75008642Y32941358D02*
X-75008642Y40053358D01*
X-20632153Y34094153D02*
X-19558000Y33020000D01*
X-9197100Y26723100D02*
X-9279001Y26805001D01*
X-9197100Y8874476D02*
X-8797312Y8474688D01*
X-123190000Y42766358D02*
X-123268642Y42845000D01*
X-19382642Y32844642D02*
X-19558000Y33020000D01*
X-67642642Y48181358D02*
X-67564000Y48260000D01*
X-33088500Y35306000D02*
X-33953138Y35306000D01*
X-27363500Y35956000D02*
X-26498862Y35956000D01*
X-123190000Y40132000D02*
X-123190000Y42766358D01*
X-19304000Y49784000D02*
X-20632153Y48455847D01*
X-74955400Y56314100D02*
X-74935000Y56293700D01*
X-67739500Y42748142D02*
X-67642642Y42845000D01*
X-9197100Y12293600D02*
X-9197100Y8874476D01*
X-34719606Y34183017D02*
X-34719606Y33472468D01*
X-26498862Y33356000D02*
X-27363500Y33356000D01*
X-33953618Y32706480D02*
X-28013020Y32706480D01*
X-74935000Y56293700D02*
X-74935000Y49789000D01*
X-9197100Y16002000D02*
X-9197100Y26723100D01*
X-58756799Y32340799D02*
X-59436000Y33020000D01*
X-9197100Y12293600D02*
X-9197100Y16002000D01*
X-34710499Y34548639D02*
X-34710499Y34192124D01*
X-19382642Y27605000D02*
X-19382642Y32844642D01*
X-58756799Y32192001D02*
X-58756799Y32340799D01*
X-28013020Y32706480D02*
X-27363500Y33356000D01*
X-26498862Y35956000D02*
X-26176480Y35633618D01*
X-67642642Y42845000D02*
X-67642642Y48181358D01*
X-34719606Y33472468D02*
X-33953618Y32706480D01*
X-26176480Y35633618D02*
X-26176480Y34304480D01*
X-24892000Y34368500D02*
X-26112460Y34368500D01*
X-19304000Y56390300D02*
X-19304000Y49784000D01*
X-19278600Y56415700D02*
X-19304000Y56390300D01*
X-26176480Y34304480D02*
X-26176480Y33678382D01*
X-26112460Y34368500D02*
X-26176480Y34304480D01*
X-75008642Y40053358D02*
X-74930000Y40132000D01*
X-34710499Y34192124D02*
X-34719606Y34183017D01*
X-67739500Y40182800D02*
X-67739500Y42748142D01*
X-33953138Y35306000D02*
X-34710499Y34548639D01*
X-75008642Y27605000D02*
X-75008642Y32941358D01*
X-82558388Y60660871D02*
X-82558388Y60697612D01*
X-9017000Y7493000D02*
X-10922000Y9398000D01*
X-19278600Y58191400D02*
X-19304000Y58166000D01*
X-26931019Y60558486D02*
X-26931019Y60459019D01*
X-74955400Y58189100D02*
X-74955400Y58394600D01*
X-74955400Y58394600D02*
X-74930000Y58420000D01*
X-80020522Y60663772D02*
X-80020522Y60695478D01*
X-9017000Y3810000D02*
X-9017000Y7493000D01*
X-11072100Y12293600D02*
X-11072100Y16002000D01*
X-82558388Y60697612D02*
X-82550000Y60706000D01*
X-10922000Y12143500D02*
X-11072100Y12293600D01*
X-56051201Y30291999D02*
X-56068001Y30291999D01*
X-10922000Y9398000D02*
X-10922000Y12143500D01*
X-24380127Y54359873D02*
X-24384000Y54356000D01*
X-80016314Y54362314D02*
X-80010000Y54356000D01*
X-80020522Y60695478D02*
X-80010000Y60706000D01*
X-24380127Y54494188D02*
X-24380127Y54359873D01*
X-26931019Y60459019D02*
X-26924000Y60452000D01*
X-24892000Y36243500D02*
X-24892000Y36322000D01*
X-19278600Y58290700D02*
X-19278600Y58191400D01*
X-56068001Y30291999D02*
X-56134000Y30226000D01*
X-80016314Y54368069D02*
X-80016314Y54362314D01*
X-33088500Y37256000D02*
X-33088500Y37405500D01*
D26*
X-26924000Y65024000D02*
X-26924000Y68326000D01*
X-26931019Y62383486D02*
X-26924000Y62390505D01*
X-26924000Y62390505D02*
X-26924000Y65024000D01*
X-65102642Y27605000D02*
X-65102642Y20182142D01*
X-120728642Y27605000D02*
X-120728642Y20114358D01*
X-120728642Y20114358D02*
X-120777000Y20066000D01*
X-65102642Y20182142D02*
X-65024000Y20103500D01*
X-25400000Y8128000D02*
X-25400000Y18542000D01*
X-58674000Y8128000D02*
X-58674000Y17526000D01*
X-32082642Y17858642D02*
X-32082642Y27605000D01*
X-87630000Y17780000D02*
X-87708642Y17858642D01*
X-58674000Y17526000D02*
X-58420000Y17780000D01*
X-32004000Y17780000D02*
X-32082642Y17858642D01*
X-87708642Y17858642D02*
X-87708642Y27605000D01*
X-29464000Y17272000D02*
X-29542642Y17350642D01*
X-85168642Y17096642D02*
X-85168642Y27605000D01*
X-29542642Y17350642D02*
X-29542642Y27605000D01*
X-85090000Y17018000D02*
X-85168642Y17096642D01*
X-61214000Y16840487D02*
X-61073987Y16980500D01*
X-61214000Y8128000D02*
X-61214000Y16840487D01*
X-26924000Y16510000D02*
X-27002642Y16588642D01*
X-27002642Y16588642D02*
X-27002642Y27605000D01*
X-64008000Y8128000D02*
X-64008000Y16256000D01*
X-82550000Y16256000D02*
X-82628642Y16334642D01*
X-82628642Y16334642D02*
X-82628642Y27605000D01*
X-66548000Y8128000D02*
X-66548000Y15494000D01*
X-24384000Y15494000D02*
X-24462642Y15572642D01*
X-80088642Y15572642D02*
X-80088642Y27605000D01*
X-24462642Y15572642D02*
X-24462642Y27605000D01*
X-80010000Y15494000D02*
X-80088642Y15572642D01*
X-118110000Y19304000D02*
X-118188642Y19382642D01*
X-62484000Y19304000D02*
X-62562642Y19382642D01*
X-62562642Y19382642D02*
X-62562642Y27605000D01*
X-69088000Y8128000D02*
X-69088000Y19304000D01*
X-118188642Y19382642D02*
X-118188642Y27605000D01*
X-123317000Y35432000D02*
X-124460000Y34289000D01*
X-124460000Y21844000D02*
X-124333000Y21717000D01*
X-69469000Y33549465D02*
X-69469000Y21590000D01*
X-19177000Y3810000D02*
X-19177000Y21590000D01*
X-67666090Y35352375D02*
X-69469000Y33549465D01*
X-124460000Y34289000D02*
X-124460000Y21844000D01*
X-89124131Y40161869D02*
X-88900000Y40386000D01*
X-90248642Y20944142D02*
X-90170000Y20865500D01*
X-76424131Y40415869D02*
X-76424131Y44734869D01*
X-90248642Y27605000D02*
X-90248642Y20944142D01*
X-21717000Y3810000D02*
X-21717000Y20828000D01*
X-34622642Y20876358D02*
X-34671000Y20828000D01*
X-76424131Y44734869D02*
X-75032600Y46126400D01*
X-76454000Y40386000D02*
X-76424131Y40415869D01*
X-90248642Y27605000D02*
X-89124131Y28729511D01*
X-89124131Y28729511D02*
X-89124131Y40161869D01*
X-34622642Y27605000D02*
X-34622642Y20876358D01*
X-32294196Y35956000D02*
X-33088500Y35956000D01*
X-27363500Y34656000D02*
X-27438001Y34581499D01*
X-44577000Y6223000D02*
X-43434000Y7366000D01*
X-33088500Y34006000D02*
X-33088500Y33356000D01*
X-27438001Y34581499D02*
X-30919695Y34581499D01*
X-30919695Y34581499D02*
X-32294196Y35956000D01*
X-44577000Y3810000D02*
X-44577000Y6223000D01*
X-27438989Y33930511D02*
X-27363500Y34006000D01*
X-43434000Y7366000D02*
X-43434000Y34036000D01*
X-32513989Y33930511D02*
X-27438989Y33930511D01*
X-67437000Y9271000D02*
X-67564000Y9398000D01*
X-92710000Y9398000D02*
X-92788642Y9476642D01*
X-67437000Y3810000D02*
X-67437000Y9271000D01*
X-92788642Y9476642D02*
X-92788642Y27605000D01*
X-37162642Y9730642D02*
X-37162642Y27605000D01*
X-37084000Y9652000D02*
X-37162642Y9730642D01*
X-95250000Y10160000D02*
X-95328642Y10238642D01*
X-64897000Y10033000D02*
X-64770000Y10160000D01*
X-39624000Y10160000D02*
X-39702642Y10238642D01*
X-95328642Y10238642D02*
X-95328642Y27605000D01*
X-64897000Y3810000D02*
X-64897000Y10033000D01*
X-39702642Y10238642D02*
X-39702642Y27605000D01*
X-42242642Y11000642D02*
X-42242642Y27605000D01*
X-97868642Y11000642D02*
X-97868642Y27605000D01*
X-62357000Y10795000D02*
X-62230000Y10922000D01*
X-42164000Y10922000D02*
X-42242642Y11000642D01*
X-97790000Y10922000D02*
X-97868642Y11000642D01*
X-62357000Y3810000D02*
X-62357000Y10795000D01*
X-44704000Y11684000D02*
X-44782642Y11762642D01*
X-100408642Y11762642D02*
X-100408642Y27605000D01*
X-59817000Y3810000D02*
X-59817000Y11557000D01*
X-44782642Y11762642D02*
X-44782642Y27605000D01*
X-100330000Y11684000D02*
X-100408642Y11762642D01*
X-59817000Y11557000D02*
X-59690000Y11684000D01*
X-57277000Y12319000D02*
X-57150000Y12446000D01*
X-47244000Y12446000D02*
X-47322642Y12524642D01*
X-57277000Y3810000D02*
X-57277000Y12319000D01*
X-102948642Y12524642D02*
X-102948642Y27605000D01*
X-47322642Y12524642D02*
X-47322642Y27605000D01*
X-102870000Y12446000D02*
X-102948642Y12524642D01*
X-54737000Y13081000D02*
X-54610000Y13208000D01*
X-105488642Y13286642D02*
X-105488642Y27605000D01*
X-49862642Y27605000D02*
X-50381500Y27086142D01*
X-50381500Y27086142D02*
X-50381500Y13828895D01*
X-105410000Y13208000D02*
X-105488642Y13286642D01*
X-54737000Y3810000D02*
X-54737000Y13081000D01*
X-52070000Y13970000D02*
X-52402642Y14302642D01*
X-107950000Y13970000D02*
X-108028642Y14048642D01*
X-108028642Y14048642D02*
X-108028642Y27605000D01*
X-52197000Y13843000D02*
X-52070000Y13970000D01*
X-52402642Y14302642D02*
X-52402642Y27605000D01*
X-52197000Y3810000D02*
X-52197000Y13843000D01*
X-54864000Y14732000D02*
X-54942642Y14810642D01*
X-49657000Y3810000D02*
X-49657000Y14351000D01*
X-49657000Y14351000D02*
X-49276000Y14732000D01*
X-110490000Y14732000D02*
X-110568642Y14810642D01*
X-54942642Y14810642D02*
X-54942642Y27605000D01*
X-110568642Y14810642D02*
X-110568642Y27605000D01*
X-115570000Y18542000D02*
X-115648642Y18620642D01*
X-53594000Y29537598D02*
X-53594000Y18542000D01*
X-56051201Y31242000D02*
X-55298402Y31242000D01*
X-115648642Y18620642D02*
X-115648642Y27605000D01*
X-48514000Y8128000D02*
X-48514000Y18542000D01*
X-55298402Y31242000D02*
X-53594000Y29537598D01*
X-113108642Y33957358D02*
X-113108642Y27605000D01*
X-27363500Y36606000D02*
X-31720000Y36606000D01*
X-119634000Y34036000D02*
X-119604131Y34065869D01*
X-119604131Y34065869D02*
X-119604131Y48738131D01*
X-57482642Y33957358D02*
X-57404000Y34036000D01*
X-31720000Y36606000D02*
X-31750000Y36576000D01*
X-63978131Y34065869D02*
X-64008000Y34036000D01*
X-57482642Y27605000D02*
X-57482642Y33957358D01*
X-119604131Y48738131D02*
X-120655000Y49789000D01*
X-65024000Y49784000D02*
X-63978131Y48738131D01*
X-57404000Y36576000D02*
X-57404000Y34036000D01*
X-113030000Y34036000D02*
X-113108642Y33957358D01*
X-63978131Y48738131D02*
X-63978131Y34065869D01*
X-75544891Y74168000D02*
X-80016584Y69696307D01*
X-82562925Y69708413D02*
X-85126304Y69708413D01*
X-85126304Y69708413D02*
X-85134267Y69716376D01*
X-17333000Y74168000D02*
X-75544891Y74168000D01*
X-80016584Y69696307D02*
X-82550819Y69696307D01*
X-82550819Y69696307D02*
X-82562925Y69708413D01*
X-123268642Y32083642D02*
X-123317000Y32132000D01*
X-123268642Y27605000D02*
X-123268642Y32083642D01*
X-58756799Y30291999D02*
X-58756799Y28870843D01*
X-58756799Y28870843D02*
X-60022642Y27605000D01*
X-67642642Y27605000D02*
X-67642642Y32028927D01*
X-67642642Y32028927D02*
X-67666090Y32052375D01*
X-80015000Y67869723D02*
X-80015000Y65029000D01*
X-80015000Y62494294D02*
X-80015000Y65029000D01*
X-80016584Y67871307D02*
X-80015000Y67869723D01*
X-80020522Y62488772D02*
X-80015000Y62494294D01*
X-95328642Y42845000D02*
X-100335000Y47851358D01*
X-100335000Y47851358D02*
X-100335000Y49789000D01*
X-92788642Y42845000D02*
X-97795000Y47851358D01*
X-97795000Y47851358D02*
X-97795000Y49789000D01*
X-90248642Y42845000D02*
X-95255000Y47851358D01*
X-95255000Y47851358D02*
X-95255000Y49789000D01*
X-92715000Y47851358D02*
X-92715000Y49789000D01*
X-87708642Y42845000D02*
X-92715000Y47851358D01*
X-90175000Y47851358D02*
X-90175000Y49789000D01*
X-85168642Y42845000D02*
X-90175000Y47851358D01*
X-87635000Y47851358D02*
X-87635000Y49789000D01*
X-82628642Y42845000D02*
X-87635000Y47851358D01*
X-85095000Y47851358D02*
X-85095000Y49789000D01*
X-80088642Y42845000D02*
X-85095000Y47851358D01*
X-77548642Y42845000D02*
X-82555000Y47851358D01*
X-82555000Y47851358D02*
X-82555000Y49789000D01*
X-39702642Y42845000D02*
X-44704000Y47846358D01*
X-44704000Y47846358D02*
X-44704000Y49784000D01*
X-37162642Y42845000D02*
X-42164000Y47846358D01*
X-42164000Y47846358D02*
X-42164000Y49784000D01*
X-34622642Y42845000D02*
X-39624000Y47846358D01*
X-39624000Y47846358D02*
X-39624000Y49784000D01*
X-32082642Y42845000D02*
X-37084000Y47846358D01*
X-37084000Y47846358D02*
X-37084000Y49784000D01*
X-34544000Y47846358D02*
X-34544000Y49784000D01*
X-29542642Y42845000D02*
X-34544000Y47846358D01*
X-27002642Y42845000D02*
X-32004000Y47846358D01*
X-32004000Y47846358D02*
X-32004000Y49784000D01*
X-24462642Y42845000D02*
X-29464000Y47846358D01*
X-29464000Y47846358D02*
X-29464000Y49784000D01*
X-21922642Y42845000D02*
X-26924000Y47846358D01*
X-26924000Y47846358D02*
X-26924000Y49784000D01*
M02*
