%TF.GenerationSoftware,KiCad,Pcbnew,(6.0.2-0)*%
%TF.CreationDate,2022-03-26T21:25:16+01:00*%
%TF.ProjectId,mockingboard2k,6d6f636b-696e-4676-926f-617264326b2e,0.1*%
%TF.SameCoordinates,PXc52d8a0PY889e9c0*%
%TF.FileFunction,Legend,Bot*%
%TF.FilePolarity,Positive*%
%FSLAX46Y46*%
G04 Gerber Fmt 4.6, Leading zero omitted, Abs format (unit mm)*
G04 Created by KiCad (PCBNEW (6.0.2-0)) date 2022-03-26 21:25:16*
%MOMM*%
%LPD*%
G01*
G04 APERTURE LIST*
%ADD10C,0.150000*%
%ADD11C,0.120000*%
G04 APERTURE END LIST*
D10*
X-9491743Y13899620D02*
X-8920315Y13899620D01*
X-9206029Y13899620D02*
X-9206029Y14899620D01*
X-9110791Y14756762D01*
X-9015553Y14661524D01*
X-8920315Y14613905D01*
X-10110791Y14899620D02*
X-10206029Y14899620D01*
X-10301267Y14852000D01*
X-10348886Y14804381D01*
X-10396505Y14709143D01*
X-10444124Y14518667D01*
X-10444124Y14280572D01*
X-10396505Y14090096D01*
X-10348886Y13994858D01*
X-10301267Y13947239D01*
X-10206029Y13899620D01*
X-10110791Y13899620D01*
X-10015553Y13947239D01*
X-9967934Y13994858D01*
X-9920315Y14090096D01*
X-9872696Y14280572D01*
X-9872696Y14518667D01*
X-9920315Y14709143D01*
X-9967934Y14804381D01*
X-10015553Y14852000D01*
X-10110791Y14899620D01*
X-11301267Y14566286D02*
X-11301267Y13899620D01*
X-10872696Y14566286D02*
X-10872696Y14042477D01*
X-10920315Y13947239D01*
X-11015553Y13899620D01*
X-11158410Y13899620D01*
X-11253648Y13947239D01*
X-11301267Y13994858D01*
X-21476220Y58567486D02*
X-21476220Y58472248D01*
X-21428600Y58377010D01*
X-21380981Y58329391D01*
X-21285743Y58281772D01*
X-21095267Y58234153D01*
X-20857172Y58234153D01*
X-20666696Y58281772D01*
X-20571458Y58329391D01*
X-20523839Y58377010D01*
X-20476220Y58472248D01*
X-20476220Y58567486D01*
X-20523839Y58662724D01*
X-20571458Y58710343D01*
X-20666696Y58757962D01*
X-20857172Y58805581D01*
X-21095267Y58805581D01*
X-21285743Y58757962D01*
X-21380981Y58710343D01*
X-21428600Y58662724D01*
X-21476220Y58567486D01*
X-20571458Y57805581D02*
X-20523839Y57757962D01*
X-20476220Y57805581D01*
X-20523839Y57853200D01*
X-20571458Y57805581D01*
X-20476220Y57805581D01*
X-20476220Y56805581D02*
X-20476220Y57377010D01*
X-20476220Y57091296D02*
X-21476220Y57091296D01*
X-21333362Y57186534D01*
X-21238124Y57281772D01*
X-21190505Y57377010D01*
X-21142886Y55948439D02*
X-20476220Y55948439D01*
X-21142886Y56377010D02*
X-20619077Y56377010D01*
X-20523839Y56329391D01*
X-20476220Y56234153D01*
X-20476220Y56091296D01*
X-20523839Y55996058D01*
X-20571458Y55948439D01*
X-65587715Y39028620D02*
X-65682953Y39028620D01*
X-65778191Y38981000D01*
X-65825810Y38933381D01*
X-65873429Y38838143D01*
X-65921048Y38647667D01*
X-65921048Y38409572D01*
X-65873429Y38219096D01*
X-65825810Y38123858D01*
X-65778191Y38076239D01*
X-65682953Y38028620D01*
X-65587715Y38028620D01*
X-65492477Y38076239D01*
X-65444858Y38123858D01*
X-65397239Y38219096D01*
X-65349620Y38409572D01*
X-65349620Y38647667D01*
X-65397239Y38838143D01*
X-65444858Y38933381D01*
X-65492477Y38981000D01*
X-65587715Y39028620D01*
X-66349620Y38123858D02*
X-66397239Y38076239D01*
X-66349620Y38028620D01*
X-66302000Y38076239D01*
X-66349620Y38123858D01*
X-66349620Y38028620D01*
X-67349620Y38028620D02*
X-66778191Y38028620D01*
X-67063905Y38028620D02*
X-67063905Y39028620D01*
X-66968667Y38885762D01*
X-66873429Y38790524D01*
X-66778191Y38742905D01*
X-68206762Y38695286D02*
X-68206762Y38028620D01*
X-67778191Y38695286D02*
X-67778191Y38171477D01*
X-67825810Y38076239D01*
X-67921048Y38028620D01*
X-68063905Y38028620D01*
X-68159143Y38076239D01*
X-68206762Y38123858D01*
X-23585420Y36494886D02*
X-23585420Y36399648D01*
X-23537800Y36304410D01*
X-23490181Y36256791D01*
X-23394943Y36209172D01*
X-23204467Y36161553D01*
X-22966372Y36161553D01*
X-22775896Y36209172D01*
X-22680658Y36256791D01*
X-22633039Y36304410D01*
X-22585420Y36399648D01*
X-22585420Y36494886D01*
X-22633039Y36590124D01*
X-22680658Y36637743D01*
X-22775896Y36685362D01*
X-22966372Y36732981D01*
X-23204467Y36732981D01*
X-23394943Y36685362D01*
X-23490181Y36637743D01*
X-23537800Y36590124D01*
X-23585420Y36494886D01*
X-22680658Y35732981D02*
X-22633039Y35685362D01*
X-22585420Y35732981D01*
X-22633039Y35780600D01*
X-22680658Y35732981D01*
X-22585420Y35732981D01*
X-22585420Y34732981D02*
X-22585420Y35304410D01*
X-22585420Y35018696D02*
X-23585420Y35018696D01*
X-23442562Y35113934D01*
X-23347324Y35209172D01*
X-23299705Y35304410D01*
X-23252086Y33875839D02*
X-22585420Y33875839D01*
X-23252086Y34304410D02*
X-22728277Y34304410D01*
X-22633039Y34256791D01*
X-22585420Y34161553D01*
X-22585420Y34018696D01*
X-22633039Y33923458D01*
X-22680658Y33875839D01*
X-121089015Y39054020D02*
X-121184253Y39054020D01*
X-121279491Y39006400D01*
X-121327110Y38958781D01*
X-121374729Y38863543D01*
X-121422348Y38673067D01*
X-121422348Y38434972D01*
X-121374729Y38244496D01*
X-121327110Y38149258D01*
X-121279491Y38101639D01*
X-121184253Y38054020D01*
X-121089015Y38054020D01*
X-120993777Y38101639D01*
X-120946158Y38149258D01*
X-120898539Y38244496D01*
X-120850920Y38434972D01*
X-120850920Y38673067D01*
X-120898539Y38863543D01*
X-120946158Y38958781D01*
X-120993777Y39006400D01*
X-121089015Y39054020D01*
X-121850920Y38149258D02*
X-121898539Y38101639D01*
X-121850920Y38054020D01*
X-121803300Y38101639D01*
X-121850920Y38149258D01*
X-121850920Y38054020D01*
X-122850920Y38054020D02*
X-122279491Y38054020D01*
X-122565205Y38054020D02*
X-122565205Y39054020D01*
X-122469967Y38911162D01*
X-122374729Y38815924D01*
X-122279491Y38768305D01*
X-123708062Y38720686D02*
X-123708062Y38054020D01*
X-123279491Y38720686D02*
X-123279491Y38196877D01*
X-123327110Y38101639D01*
X-123422348Y38054020D01*
X-123565205Y38054020D01*
X-123660443Y38101639D01*
X-123708062Y38149258D01*
X-77153020Y58465886D02*
X-77153020Y58370648D01*
X-77105400Y58275410D01*
X-77057781Y58227791D01*
X-76962543Y58180172D01*
X-76772067Y58132553D01*
X-76533972Y58132553D01*
X-76343496Y58180172D01*
X-76248258Y58227791D01*
X-76200639Y58275410D01*
X-76153020Y58370648D01*
X-76153020Y58465886D01*
X-76200639Y58561124D01*
X-76248258Y58608743D01*
X-76343496Y58656362D01*
X-76533972Y58703981D01*
X-76772067Y58703981D01*
X-76962543Y58656362D01*
X-77057781Y58608743D01*
X-77105400Y58561124D01*
X-77153020Y58465886D01*
X-76248258Y57703981D02*
X-76200639Y57656362D01*
X-76153020Y57703981D01*
X-76200639Y57751600D01*
X-76248258Y57703981D01*
X-76153020Y57703981D01*
X-76153020Y56703981D02*
X-76153020Y57275410D01*
X-76153020Y56989696D02*
X-77153020Y56989696D01*
X-77010162Y57084934D01*
X-76914924Y57180172D01*
X-76867305Y57275410D01*
X-76819686Y55846839D02*
X-76153020Y55846839D01*
X-76819686Y56275410D02*
X-76295877Y56275410D01*
X-76200639Y56227791D01*
X-76153020Y56132553D01*
X-76153020Y55989696D01*
X-76200639Y55894458D01*
X-76248258Y55846839D01*
X-8920315Y11191220D02*
X-9015553Y11191220D01*
X-9110791Y11143600D01*
X-9158410Y11095981D01*
X-9206029Y11000743D01*
X-9253648Y10810267D01*
X-9253648Y10572172D01*
X-9206029Y10381696D01*
X-9158410Y10286458D01*
X-9110791Y10238839D01*
X-9015553Y10191220D01*
X-8920315Y10191220D01*
X-8825077Y10238839D01*
X-8777458Y10286458D01*
X-8729839Y10381696D01*
X-8682220Y10572172D01*
X-8682220Y10810267D01*
X-8729839Y11000743D01*
X-8777458Y11095981D01*
X-8825077Y11143600D01*
X-8920315Y11191220D01*
X-9682220Y10286458D02*
X-9729839Y10238839D01*
X-9682220Y10191220D01*
X-9634600Y10238839D01*
X-9682220Y10286458D01*
X-9682220Y10191220D01*
X-10682220Y10191220D02*
X-10110791Y10191220D01*
X-10396505Y10191220D02*
X-10396505Y11191220D01*
X-10301267Y11048362D01*
X-10206029Y10953124D01*
X-10110791Y10905505D01*
X-11539362Y10857886D02*
X-11539362Y10191220D01*
X-11110791Y10857886D02*
X-11110791Y10334077D01*
X-11158410Y10238839D01*
X-11253648Y10191220D01*
X-11396505Y10191220D01*
X-11491743Y10238839D01*
X-11539362Y10286458D01*
X-122864620Y30964096D02*
X-123864620Y30964096D01*
X-123864620Y30726000D01*
X-123817000Y30583143D01*
X-123721762Y30487905D01*
X-123626524Y30440286D01*
X-123436048Y30392667D01*
X-123293191Y30392667D01*
X-123102715Y30440286D01*
X-123007477Y30487905D01*
X-122912239Y30583143D01*
X-122864620Y30726000D01*
X-122864620Y30964096D01*
X-123769381Y30011715D02*
X-123817000Y29964096D01*
X-123864620Y29868858D01*
X-123864620Y29630762D01*
X-123817000Y29535524D01*
X-123769381Y29487905D01*
X-123674143Y29440286D01*
X-123578905Y29440286D01*
X-123436048Y29487905D01*
X-122864620Y30059334D01*
X-122864620Y29440286D01*
X-67086710Y31011471D02*
X-68086710Y31011471D01*
X-68086710Y30773375D01*
X-68039090Y30630518D01*
X-67943852Y30535280D01*
X-67848614Y30487661D01*
X-67658138Y30440042D01*
X-67515281Y30440042D01*
X-67324805Y30487661D01*
X-67229567Y30535280D01*
X-67134329Y30630518D01*
X-67086710Y30773375D01*
X-67086710Y31011471D01*
X-67753376Y29582899D02*
X-67086710Y29582899D01*
X-68134329Y29820995D02*
X-67420043Y30059090D01*
X-67420043Y29440042D01*
X-23931620Y72255048D02*
X-23931620Y72826477D01*
X-23931620Y72540762D02*
X-24931620Y72540762D01*
X-24788762Y72636000D01*
X-24693524Y72731239D01*
X-24645905Y72826477D01*
X-23931620Y71826477D02*
X-24931620Y71826477D01*
X-24312572Y71731239D02*
X-23931620Y71445524D01*
X-24598286Y71445524D02*
X-24217334Y71826477D01*
X-26244413Y54343593D02*
X-25577747Y54343593D01*
X-26625366Y54581688D02*
X-25911080Y54819784D01*
X-25911080Y54200736D01*
X-26577747Y53915022D02*
X-26577747Y53248355D01*
X-25577747Y53676927D01*
X-26577747Y52676927D02*
X-26577747Y52581688D01*
X-26530127Y52486450D01*
X-26482508Y52438831D01*
X-26387270Y52391212D01*
X-26196794Y52343593D01*
X-25958699Y52343593D01*
X-25768223Y52391212D01*
X-25672985Y52438831D01*
X-25625366Y52486450D01*
X-25577747Y52581688D01*
X-25577747Y52676927D01*
X-25625366Y52772165D01*
X-25672985Y52819784D01*
X-25768223Y52867403D01*
X-25958699Y52915022D01*
X-26196794Y52915022D01*
X-26387270Y52867403D01*
X-26482508Y52819784D01*
X-26530127Y52772165D01*
X-26577747Y52676927D01*
X-15240143Y75395620D02*
X-14668715Y75395620D01*
X-14954429Y75395620D02*
X-14954429Y76395620D01*
X-14859191Y76252762D01*
X-14763953Y76157524D01*
X-14668715Y76109905D01*
X-15859191Y76395620D02*
X-15954429Y76395620D01*
X-16049667Y76348000D01*
X-16097286Y76300381D01*
X-16144905Y76205143D01*
X-16192524Y76014667D01*
X-16192524Y75776572D01*
X-16144905Y75586096D01*
X-16097286Y75490858D01*
X-16049667Y75443239D01*
X-15954429Y75395620D01*
X-15859191Y75395620D01*
X-15763953Y75443239D01*
X-15716334Y75490858D01*
X-15668715Y75586096D01*
X-15621096Y75776572D01*
X-15621096Y76014667D01*
X-15668715Y76205143D01*
X-15716334Y76300381D01*
X-15763953Y76348000D01*
X-15859191Y76395620D01*
X-16621096Y76062286D02*
X-16621096Y75062286D01*
X-17097286Y75538477D02*
X-17144905Y75443239D01*
X-17240143Y75395620D01*
X-16621096Y75538477D02*
X-16668715Y75443239D01*
X-16763953Y75395620D01*
X-16954429Y75395620D01*
X-17049667Y75443239D01*
X-17097286Y75538477D01*
X-17097286Y76062286D01*
X-18002048Y75919429D02*
X-17668715Y75919429D01*
X-17668715Y75395620D02*
X-17668715Y76395620D01*
X-18144905Y76395620D01*
X-60094905Y47648620D02*
X-60094905Y48648620D01*
X-60333000Y48648620D01*
X-60475858Y48601000D01*
X-60571096Y48505762D01*
X-60618715Y48410524D01*
X-60666334Y48220048D01*
X-60666334Y48077191D01*
X-60618715Y47886715D01*
X-60571096Y47791477D01*
X-60475858Y47696239D01*
X-60333000Y47648620D01*
X-60094905Y47648620D01*
X-60999667Y48648620D02*
X-61618715Y48648620D01*
X-61285381Y48267667D01*
X-61428239Y48267667D01*
X-61523477Y48220048D01*
X-61571096Y48172429D01*
X-61618715Y48077191D01*
X-61618715Y47839096D01*
X-61571096Y47743858D01*
X-61523477Y47696239D01*
X-61428239Y47648620D01*
X-61142524Y47648620D01*
X-61047286Y47696239D01*
X-60999667Y47743858D01*
X-26471620Y72255048D02*
X-26471620Y72826477D01*
X-26471620Y72540762D02*
X-27471620Y72540762D01*
X-27328762Y72636000D01*
X-27233524Y72731239D01*
X-27185905Y72826477D01*
X-26471620Y71826477D02*
X-27471620Y71826477D01*
X-26852572Y71731239D02*
X-26471620Y71445524D01*
X-27138286Y71445524D02*
X-26757334Y71826477D01*
X-22959610Y62232891D02*
X-22292944Y62232891D01*
X-23340563Y62470986D02*
X-22626277Y62709082D01*
X-22626277Y62090034D01*
X-23292944Y61804320D02*
X-23292944Y61137653D01*
X-22292944Y61566225D01*
X-23292944Y60566225D02*
X-23292944Y60470986D01*
X-23245324Y60375748D01*
X-23197705Y60328129D01*
X-23102467Y60280510D01*
X-22911991Y60232891D01*
X-22673896Y60232891D01*
X-22483420Y60280510D01*
X-22388182Y60328129D01*
X-22340563Y60375748D01*
X-22292944Y60470986D01*
X-22292944Y60566225D01*
X-22340563Y60661463D01*
X-22388182Y60709082D01*
X-22483420Y60756701D01*
X-22673896Y60804320D01*
X-22911991Y60804320D01*
X-23102467Y60756701D01*
X-23197705Y60709082D01*
X-23245324Y60661463D01*
X-23292944Y60566225D01*
X-53340096Y31789620D02*
X-53340096Y30980096D01*
X-53387715Y30884858D01*
X-53435334Y30837239D01*
X-53530572Y30789620D01*
X-53721048Y30789620D01*
X-53816286Y30837239D01*
X-53863905Y30884858D01*
X-53911524Y30980096D01*
X-53911524Y31789620D01*
X-54816286Y31456286D02*
X-54816286Y30789620D01*
X-54578191Y31837239D02*
X-54340096Y31122953D01*
X-54959143Y31122953D01*
X-56896572Y31789620D02*
X-57563239Y31789620D01*
X-57134667Y30789620D01*
X-58372762Y31456286D02*
X-58372762Y30789620D01*
X-58134667Y31837239D02*
X-57896572Y31122953D01*
X-58515620Y31122953D01*
X-58848953Y31075334D02*
X-59325143Y31075334D01*
X-58753715Y30789620D02*
X-59087048Y31789620D01*
X-59420381Y30789620D01*
X-59753715Y30789620D02*
X-59753715Y31789620D01*
X-59753715Y31313429D02*
X-60325143Y31313429D01*
X-60325143Y30789620D02*
X-60325143Y31789620D01*
X-61372762Y30884858D02*
X-61325143Y30837239D01*
X-61182286Y30789620D01*
X-61087048Y30789620D01*
X-60944191Y30837239D01*
X-60848953Y30932477D01*
X-60801334Y31027715D01*
X-60753715Y31218191D01*
X-60753715Y31361048D01*
X-60801334Y31551524D01*
X-60848953Y31646762D01*
X-60944191Y31742000D01*
X-61087048Y31789620D01*
X-61182286Y31789620D01*
X-61325143Y31742000D01*
X-61372762Y31694381D01*
X-61658477Y31789620D02*
X-62229905Y31789620D01*
X-61944191Y30789620D02*
X-61944191Y31789620D01*
X-63087048Y30789620D02*
X-62515620Y30789620D01*
X-62801334Y30789620D02*
X-62801334Y31789620D01*
X-62706096Y31646762D01*
X-62610858Y31551524D01*
X-62515620Y31503905D01*
X-64039429Y31742000D02*
X-63944191Y31789620D01*
X-63801334Y31789620D01*
X-63658477Y31742000D01*
X-63563239Y31646762D01*
X-63515620Y31551524D01*
X-63468000Y31361048D01*
X-63468000Y31218191D01*
X-63515620Y31027715D01*
X-63563239Y30932477D01*
X-63658477Y30837239D01*
X-63801334Y30789620D01*
X-63896572Y30789620D01*
X-64039429Y30837239D01*
X-64087048Y30884858D01*
X-64087048Y31218191D01*
X-63896572Y31218191D01*
X-64706096Y31789620D02*
X-64801334Y31789620D01*
X-64896572Y31742000D01*
X-64944191Y31694381D01*
X-64991810Y31599143D01*
X-65039429Y31408667D01*
X-65039429Y31170572D01*
X-64991810Y30980096D01*
X-64944191Y30884858D01*
X-64896572Y30837239D01*
X-64801334Y30789620D01*
X-64706096Y30789620D01*
X-64610858Y30837239D01*
X-64563239Y30884858D01*
X-64515620Y30980096D01*
X-64468000Y31170572D01*
X-64468000Y31408667D01*
X-64515620Y31599143D01*
X-64563239Y31694381D01*
X-64610858Y31742000D01*
X-64706096Y31789620D01*
X-65896572Y31456286D02*
X-65896572Y30789620D01*
X-65658477Y31837239D02*
X-65420381Y31122953D01*
X-66039429Y31122953D01*
X-78584808Y62338177D02*
X-77918142Y62338177D01*
X-78965761Y62576272D02*
X-78251475Y62814368D01*
X-78251475Y62195320D01*
X-78918142Y61909606D02*
X-78918142Y61242939D01*
X-77918142Y61671511D01*
X-78918142Y60671511D02*
X-78918142Y60576272D01*
X-78870522Y60481034D01*
X-78822903Y60433415D01*
X-78727665Y60385796D01*
X-78537189Y60338177D01*
X-78299094Y60338177D01*
X-78108618Y60385796D01*
X-78013380Y60433415D01*
X-77965761Y60481034D01*
X-77918142Y60576272D01*
X-77918142Y60671511D01*
X-77965761Y60766749D01*
X-78013380Y60814368D01*
X-78108618Y60861987D01*
X-78299094Y60909606D01*
X-78537189Y60909606D01*
X-78727665Y60861987D01*
X-78822903Y60814368D01*
X-78870522Y60766749D01*
X-78918142Y60671511D01*
X-28789286Y62232891D02*
X-28122620Y62232891D01*
X-29170239Y62470986D02*
X-28455953Y62709082D01*
X-28455953Y62090034D01*
X-29122620Y61804320D02*
X-29122620Y61137653D01*
X-28122620Y61566225D01*
X-29122620Y60566225D02*
X-29122620Y60470986D01*
X-29075000Y60375748D01*
X-29027381Y60328129D01*
X-28932143Y60280510D01*
X-28741667Y60232891D01*
X-28503572Y60232891D01*
X-28313096Y60280510D01*
X-28217858Y60328129D01*
X-28170239Y60375748D01*
X-28122620Y60470986D01*
X-28122620Y60566225D01*
X-28170239Y60661463D01*
X-28217858Y60709082D01*
X-28313096Y60756701D01*
X-28503572Y60804320D01*
X-28741667Y60804320D01*
X-28932143Y60756701D01*
X-29027381Y60709082D01*
X-29075000Y60661463D01*
X-29122620Y60566225D01*
X-75944505Y47674020D02*
X-75944505Y48674020D01*
X-76182600Y48674020D01*
X-76325458Y48626400D01*
X-76420696Y48531162D01*
X-76468315Y48435924D01*
X-76515934Y48245448D01*
X-76515934Y48102591D01*
X-76468315Y47912115D01*
X-76420696Y47816877D01*
X-76325458Y47721639D01*
X-76182600Y47674020D01*
X-75944505Y47674020D01*
X-77468315Y47674020D02*
X-76896886Y47674020D01*
X-77182600Y47674020D02*
X-77182600Y48674020D01*
X-77087362Y48531162D01*
X-76992124Y48435924D01*
X-76896886Y48388305D01*
X-84288286Y62356905D02*
X-83621620Y62356905D01*
X-84669239Y62595000D02*
X-83954953Y62833096D01*
X-83954953Y62214048D01*
X-84621620Y61928334D02*
X-84621620Y61261667D01*
X-83621620Y61690239D01*
X-84621620Y60690239D02*
X-84621620Y60595000D01*
X-84574000Y60499762D01*
X-84526381Y60452143D01*
X-84431143Y60404524D01*
X-84240667Y60356905D01*
X-84002572Y60356905D01*
X-83812096Y60404524D01*
X-83716858Y60452143D01*
X-83669239Y60499762D01*
X-83621620Y60595000D01*
X-83621620Y60690239D01*
X-83669239Y60785477D01*
X-83716858Y60833096D01*
X-83812096Y60880715D01*
X-84002572Y60928334D01*
X-84240667Y60928334D01*
X-84431143Y60880715D01*
X-84526381Y60833096D01*
X-84574000Y60785477D01*
X-84621620Y60690239D01*
X-29464096Y32403620D02*
X-29464096Y31594096D01*
X-29511715Y31498858D01*
X-29559334Y31451239D01*
X-29654572Y31403620D01*
X-29845048Y31403620D01*
X-29940286Y31451239D01*
X-29987905Y31498858D01*
X-30035524Y31594096D01*
X-30035524Y32403620D01*
X-30416477Y32403620D02*
X-31035524Y32403620D01*
X-30702191Y32022667D01*
X-30845048Y32022667D01*
X-30940286Y31975048D01*
X-30987905Y31927429D01*
X-31035524Y31832191D01*
X-31035524Y31594096D01*
X-30987905Y31498858D01*
X-30940286Y31451239D01*
X-30845048Y31403620D01*
X-30559334Y31403620D01*
X-30464096Y31451239D01*
X-30416477Y31498858D01*
X-79557620Y71747048D02*
X-79557620Y72318477D01*
X-79557620Y72032762D02*
X-80557620Y72032762D01*
X-80414762Y72128000D01*
X-80319524Y72223239D01*
X-80271905Y72318477D01*
X-79557620Y71318477D02*
X-80557620Y71318477D01*
X-79938572Y71223239D02*
X-79557620Y70937524D01*
X-80224286Y70937524D02*
X-79843334Y71318477D01*
X-82097620Y71747048D02*
X-82097620Y72318477D01*
X-82097620Y72032762D02*
X-83097620Y72032762D01*
X-82954762Y72128000D01*
X-82859524Y72223239D01*
X-82811905Y72318477D01*
X-82097620Y71318477D02*
X-83097620Y71318477D01*
X-82478572Y71223239D02*
X-82097620Y70937524D01*
X-82764286Y70937524D02*
X-82383334Y71318477D01*
X-84637620Y71747048D02*
X-84637620Y72318477D01*
X-84637620Y72032762D02*
X-85637620Y72032762D01*
X-85494762Y72128000D01*
X-85399524Y72223239D01*
X-85351905Y72318477D01*
X-84637620Y71318477D02*
X-85637620Y71318477D01*
X-85018572Y71223239D02*
X-84637620Y70937524D01*
X-85304286Y70937524D02*
X-84923334Y71318477D01*
X-15240143Y71482120D02*
X-14668715Y71482120D01*
X-14954429Y71482120D02*
X-14954429Y72482120D01*
X-14859191Y72339262D01*
X-14763953Y72244024D01*
X-14668715Y72196405D01*
X-15859191Y72482120D02*
X-15954429Y72482120D01*
X-16049667Y72434500D01*
X-16097286Y72386881D01*
X-16144905Y72291643D01*
X-16192524Y72101167D01*
X-16192524Y71863072D01*
X-16144905Y71672596D01*
X-16097286Y71577358D01*
X-16049667Y71529739D01*
X-15954429Y71482120D01*
X-15859191Y71482120D01*
X-15763953Y71529739D01*
X-15716334Y71577358D01*
X-15668715Y71672596D01*
X-15621096Y71863072D01*
X-15621096Y72101167D01*
X-15668715Y72291643D01*
X-15716334Y72386881D01*
X-15763953Y72434500D01*
X-15859191Y72482120D01*
X-16621096Y72148786D02*
X-16621096Y71148786D01*
X-17097286Y71624977D02*
X-17144905Y71529739D01*
X-17240143Y71482120D01*
X-16621096Y71624977D02*
X-16668715Y71529739D01*
X-16763953Y71482120D01*
X-16954429Y71482120D01*
X-17049667Y71529739D01*
X-17097286Y71624977D01*
X-17097286Y72148786D01*
X-18002048Y72005929D02*
X-17668715Y72005929D01*
X-17668715Y71482120D02*
X-17668715Y72482120D01*
X-18144905Y72482120D01*
X-29265620Y72255048D02*
X-29265620Y72826477D01*
X-29265620Y72540762D02*
X-30265620Y72540762D01*
X-30122762Y72636000D01*
X-30027524Y72731239D01*
X-29979905Y72826477D01*
X-29265620Y71826477D02*
X-30265620Y71826477D01*
X-29646572Y71731239D02*
X-29265620Y71445524D01*
X-29932286Y71445524D02*
X-29551334Y71826477D01*
X-81880600Y54217474D02*
X-81213934Y54217474D01*
X-82261553Y54455569D02*
X-81547267Y54693665D01*
X-81547267Y54074617D01*
X-82213934Y53788903D02*
X-82213934Y53122236D01*
X-81213934Y53550808D01*
X-82213934Y52550808D02*
X-82213934Y52455569D01*
X-82166314Y52360331D01*
X-82118695Y52312712D01*
X-82023457Y52265093D01*
X-81832981Y52217474D01*
X-81594886Y52217474D01*
X-81404410Y52265093D01*
X-81309172Y52312712D01*
X-81261553Y52360331D01*
X-81213934Y52455569D01*
X-81213934Y52550808D01*
X-81261553Y52646046D01*
X-81309172Y52693665D01*
X-81404410Y52741284D01*
X-81594886Y52788903D01*
X-81832981Y52788903D01*
X-82023457Y52741284D01*
X-82118695Y52693665D01*
X-82166314Y52646046D01*
X-82213934Y52550808D01*
D11*
X-9876022Y15292000D02*
X-10393178Y15292000D01*
X-9876022Y16712000D02*
X-10393178Y16712000D01*
X-19988600Y57094622D02*
X-19988600Y57611778D01*
X-18568600Y57094622D02*
X-18568600Y57611778D01*
X-67060578Y39472800D02*
X-66543422Y39472800D01*
X-67060578Y40892800D02*
X-66543422Y40892800D01*
X-25602000Y35047422D02*
X-25602000Y35564578D01*
X-24182000Y35047422D02*
X-24182000Y35564578D01*
X-122511078Y40842000D02*
X-121993922Y40842000D01*
X-122511078Y39422000D02*
X-121993922Y39422000D01*
X-75665400Y56993022D02*
X-75665400Y57510178D01*
X-74245400Y56993022D02*
X-74245400Y57510178D01*
X-9876022Y11583600D02*
X-10393178Y11583600D01*
X-9876022Y13003600D02*
X-10393178Y13003600D01*
X-122317000Y31532000D02*
X-124317000Y31532000D01*
X-124317000Y31532000D02*
X-124317000Y35432000D01*
X-122317000Y31532000D02*
X-122317000Y35432000D01*
X-68666090Y31452375D02*
X-68666090Y35352375D01*
X-66666090Y31452375D02*
X-68666090Y31452375D01*
X-66666090Y31452375D02*
X-66666090Y35352375D01*
X-25119000Y69011436D02*
X-25119000Y69465564D01*
X-23649000Y69011436D02*
X-23649000Y69465564D01*
X-25115127Y53354624D02*
X-25115127Y53808752D01*
X-23645127Y53354624D02*
X-23645127Y53808752D01*
X-16644252Y74903000D02*
X-16121748Y74903000D01*
X-16644252Y73433000D02*
X-16121748Y73433000D01*
X-58583000Y45101000D02*
X-62483000Y45101000D01*
X-58583000Y47101000D02*
X-58583000Y45101000D01*
X-58583000Y47101000D02*
X-62483000Y47101000D01*
X-26189000Y69011436D02*
X-26189000Y69465564D01*
X-27659000Y69011436D02*
X-27659000Y69465564D01*
X-23660324Y61698050D02*
X-23660324Y61243922D01*
X-25130324Y61698050D02*
X-25130324Y61243922D01*
X-80755522Y61803336D02*
X-80755522Y61349208D01*
X-79285522Y61803336D02*
X-79285522Y61349208D01*
X-26196019Y61698050D02*
X-26196019Y61243922D01*
X-27666019Y61698050D02*
X-27666019Y61243922D01*
X-74432600Y47126400D02*
X-78332600Y47126400D01*
X-74432600Y45126400D02*
X-78332600Y45126400D01*
X-74432600Y47126400D02*
X-74432600Y45126400D01*
X-81823388Y61800435D02*
X-81823388Y61346307D01*
X-83293388Y61800435D02*
X-83293388Y61346307D01*
X-30226000Y37916000D02*
X-28026000Y37916000D01*
X-30226000Y32696000D02*
X-28026000Y32696000D01*
X-30226000Y37916000D02*
X-32426000Y37916000D01*
X-30226000Y32696000D02*
X-33826000Y32696000D01*
X-79281584Y68556743D02*
X-79281584Y69010871D01*
X-80751584Y68556743D02*
X-80751584Y69010871D01*
X-83297925Y68568849D02*
X-83297925Y69022977D01*
X-81827925Y68568849D02*
X-81827925Y69022977D01*
X-84399267Y68576812D02*
X-84399267Y69030940D01*
X-85869267Y68576812D02*
X-85869267Y69030940D01*
X-16644252Y69519500D02*
X-16121748Y69519500D01*
X-16644252Y70989500D02*
X-16121748Y70989500D01*
X-30453000Y68964436D02*
X-30453000Y69418564D01*
X-28983000Y68964436D02*
X-28983000Y69418564D01*
X-80751314Y53228505D02*
X-80751314Y53682633D01*
X-79281314Y53228505D02*
X-79281314Y53682633D01*
M02*
