%TF.GenerationSoftware,KiCad,Pcbnew,(6.0.2-0)*%
%TF.CreationDate,2022-03-26T21:25:16+01:00*%
%TF.ProjectId,mockingboard2k,6d6f636b-696e-4676-926f-617264326b2e,0.1*%
%TF.SameCoordinates,PXc52d8a0PY889e9c0*%
%TF.FileFunction,Legend,Top*%
%TF.FilePolarity,Positive*%
%FSLAX46Y46*%
G04 Gerber Fmt 4.6, Leading zero omitted, Abs format (unit mm)*
G04 Created by KiCad (PCBNEW (6.0.2-0)) date 2022-03-26 21:25:16*
%MOMM*%
%LPD*%
G01*
G04 APERTURE LIST*
%ADD10C,0.300000*%
%ADD11C,0.750000*%
%ADD12C,0.350000*%
%ADD13C,0.150000*%
%ADD14C,0.120000*%
G04 APERTURE END LIST*
D10*
X-69730286Y70925429D02*
X-69230286Y69425429D01*
X-68730286Y70925429D01*
X-67658858Y69496858D02*
X-67801715Y69425429D01*
X-68087429Y69425429D01*
X-68230286Y69496858D01*
X-68301715Y69639715D01*
X-68301715Y70211143D01*
X-68230286Y70354000D01*
X-68087429Y70425429D01*
X-67801715Y70425429D01*
X-67658858Y70354000D01*
X-67587429Y70211143D01*
X-67587429Y70068286D01*
X-68301715Y69925429D01*
X-66944572Y69425429D02*
X-66944572Y70425429D01*
X-66944572Y70139715D02*
X-66873143Y70282572D01*
X-66801715Y70354000D01*
X-66658858Y70425429D01*
X-66516000Y70425429D01*
X-66087429Y69496858D02*
X-65944572Y69425429D01*
X-65658858Y69425429D01*
X-65516000Y69496858D01*
X-65444572Y69639715D01*
X-65444572Y69711143D01*
X-65516000Y69854000D01*
X-65658858Y69925429D01*
X-65873143Y69925429D01*
X-66016000Y69996858D01*
X-66087429Y70139715D01*
X-66087429Y70211143D01*
X-66016000Y70354000D01*
X-65873143Y70425429D01*
X-65658858Y70425429D01*
X-65516000Y70354000D01*
X-64801715Y69425429D02*
X-64801715Y70425429D01*
X-64801715Y70925429D02*
X-64873143Y70854000D01*
X-64801715Y70782572D01*
X-64730286Y70854000D01*
X-64801715Y70925429D01*
X-64801715Y70782572D01*
X-63873143Y69425429D02*
X-64016000Y69496858D01*
X-64087429Y69568286D01*
X-64158858Y69711143D01*
X-64158858Y70139715D01*
X-64087429Y70282572D01*
X-64016000Y70354000D01*
X-63873143Y70425429D01*
X-63658858Y70425429D01*
X-63516000Y70354000D01*
X-63444572Y70282572D01*
X-63373143Y70139715D01*
X-63373143Y69711143D01*
X-63444572Y69568286D01*
X-63516000Y69496858D01*
X-63658858Y69425429D01*
X-63873143Y69425429D01*
X-62730286Y70425429D02*
X-62730286Y69425429D01*
X-62730286Y70282572D02*
X-62658858Y70354000D01*
X-62516000Y70425429D01*
X-62301715Y70425429D01*
X-62158858Y70354000D01*
X-62087429Y70211143D01*
X-62087429Y69425429D01*
X-59444572Y69425429D02*
X-60301715Y69425429D01*
X-59873143Y69425429D02*
X-59873143Y70925429D01*
X-60016000Y70711143D01*
X-60158858Y70568286D01*
X-60301715Y70496858D01*
D11*
X-122639120Y69421715D02*
X-122639120Y75421715D01*
X-121305786Y71136000D01*
X-119972453Y75421715D01*
X-119972453Y69421715D01*
X-117496262Y69421715D02*
X-117877215Y69707429D01*
X-118067691Y69993143D01*
X-118258167Y70564572D01*
X-118258167Y72278858D01*
X-118067691Y72850286D01*
X-117877215Y73136000D01*
X-117496262Y73421715D01*
X-116924834Y73421715D01*
X-116543881Y73136000D01*
X-116353405Y72850286D01*
X-116162929Y72278858D01*
X-116162929Y70564572D01*
X-116353405Y69993143D01*
X-116543881Y69707429D01*
X-116924834Y69421715D01*
X-117496262Y69421715D01*
X-112734358Y69707429D02*
X-113115310Y69421715D01*
X-113877215Y69421715D01*
X-114258167Y69707429D01*
X-114448643Y69993143D01*
X-114639120Y70564572D01*
X-114639120Y72278858D01*
X-114448643Y72850286D01*
X-114258167Y73136000D01*
X-113877215Y73421715D01*
X-113115310Y73421715D01*
X-112734358Y73136000D01*
X-111020072Y69421715D02*
X-111020072Y75421715D01*
X-110639120Y71707429D02*
X-109496262Y69421715D01*
X-109496262Y73421715D02*
X-111020072Y71136000D01*
X-107781977Y69421715D02*
X-107781977Y73421715D01*
X-107781977Y75421715D02*
X-107972453Y75136000D01*
X-107781977Y74850286D01*
X-107591500Y75136000D01*
X-107781977Y75421715D01*
X-107781977Y74850286D01*
X-105877215Y73421715D02*
X-105877215Y69421715D01*
X-105877215Y72850286D02*
X-105686739Y73136000D01*
X-105305786Y73421715D01*
X-104734358Y73421715D01*
X-104353405Y73136000D01*
X-104162929Y72564572D01*
X-104162929Y69421715D01*
X-100543881Y73421715D02*
X-100543881Y68564572D01*
X-100734358Y67993143D01*
X-100924834Y67707429D01*
X-101305786Y67421715D01*
X-101877215Y67421715D01*
X-102258167Y67707429D01*
X-100543881Y69707429D02*
X-100924834Y69421715D01*
X-101686739Y69421715D01*
X-102067691Y69707429D01*
X-102258167Y69993143D01*
X-102448643Y70564572D01*
X-102448643Y72278858D01*
X-102258167Y72850286D01*
X-102067691Y73136000D01*
X-101686739Y73421715D01*
X-100924834Y73421715D01*
X-100543881Y73136000D01*
X-98639120Y69421715D02*
X-98639120Y75421715D01*
X-98639120Y73136000D02*
X-98258167Y73421715D01*
X-97496262Y73421715D01*
X-97115310Y73136000D01*
X-96924834Y72850286D01*
X-96734358Y72278858D01*
X-96734358Y70564572D01*
X-96924834Y69993143D01*
X-97115310Y69707429D01*
X-97496262Y69421715D01*
X-98258167Y69421715D01*
X-98639120Y69707429D01*
X-94448643Y69421715D02*
X-94829596Y69707429D01*
X-95020072Y69993143D01*
X-95210548Y70564572D01*
X-95210548Y72278858D01*
X-95020072Y72850286D01*
X-94829596Y73136000D01*
X-94448643Y73421715D01*
X-93877215Y73421715D01*
X-93496262Y73136000D01*
X-93305786Y72850286D01*
X-93115310Y72278858D01*
X-93115310Y70564572D01*
X-93305786Y69993143D01*
X-93496262Y69707429D01*
X-93877215Y69421715D01*
X-94448643Y69421715D01*
X-89686739Y69421715D02*
X-89686739Y72564572D01*
X-89877215Y73136000D01*
X-90258167Y73421715D01*
X-91020072Y73421715D01*
X-91401024Y73136000D01*
X-89686739Y69707429D02*
X-90067691Y69421715D01*
X-91020072Y69421715D01*
X-91401024Y69707429D01*
X-91591500Y70278858D01*
X-91591500Y70850286D01*
X-91401024Y71421715D01*
X-91020072Y71707429D01*
X-90067691Y71707429D01*
X-89686739Y71993143D01*
X-87781977Y69421715D02*
X-87781977Y73421715D01*
X-87781977Y72278858D02*
X-87591500Y72850286D01*
X-87401024Y73136000D01*
X-87020072Y73421715D01*
X-86639120Y73421715D01*
X-83591500Y69421715D02*
X-83591500Y75421715D01*
X-83591500Y69707429D02*
X-83972453Y69421715D01*
X-84734358Y69421715D01*
X-85115310Y69707429D01*
X-85305786Y69993143D01*
X-85496262Y70564572D01*
X-85496262Y72278858D01*
X-85305786Y72850286D01*
X-85115310Y73136000D01*
X-84734358Y73421715D01*
X-83972453Y73421715D01*
X-83591500Y73136000D01*
X-78829596Y74850286D02*
X-78639120Y75136000D01*
X-78258167Y75421715D01*
X-77305786Y75421715D01*
X-76924834Y75136000D01*
X-76734358Y74850286D01*
X-76543881Y74278858D01*
X-76543881Y73707429D01*
X-76734358Y72850286D01*
X-79020072Y69421715D01*
X-76543881Y69421715D01*
X-74829596Y69421715D02*
X-74829596Y75421715D01*
X-74448643Y71707429D02*
X-73305786Y69421715D01*
X-73305786Y73421715D02*
X-74829596Y71136000D01*
D12*
X-124137310Y12993858D02*
X-124137310Y15993858D01*
X-123280167Y12993858D02*
X-123280167Y14565286D01*
X-123375405Y14851000D01*
X-123565881Y14993858D01*
X-123851596Y14993858D01*
X-124042072Y14851000D01*
X-124137310Y14708143D01*
X-122613500Y14993858D02*
X-121851596Y14993858D01*
X-122327786Y15993858D02*
X-122327786Y13422429D01*
X-122232548Y13136715D01*
X-122042072Y12993858D01*
X-121851596Y12993858D01*
X-121470643Y14993858D02*
X-120708739Y14993858D01*
X-121184929Y15993858D02*
X-121184929Y13422429D01*
X-121089691Y13136715D01*
X-120899215Y12993858D01*
X-120708739Y12993858D01*
X-120042072Y14993858D02*
X-120042072Y11993858D01*
X-120042072Y14851000D02*
X-119851596Y14993858D01*
X-119470643Y14993858D01*
X-119280167Y14851000D01*
X-119184929Y14708143D01*
X-119089691Y14422429D01*
X-119089691Y13565286D01*
X-119184929Y13279572D01*
X-119280167Y13136715D01*
X-119470643Y12993858D01*
X-119851596Y12993858D01*
X-120042072Y13136715D01*
X-118327786Y13136715D02*
X-118137310Y12993858D01*
X-117756358Y12993858D01*
X-117565881Y13136715D01*
X-117470643Y13422429D01*
X-117470643Y13565286D01*
X-117565881Y13851000D01*
X-117756358Y13993858D01*
X-118042072Y13993858D01*
X-118232548Y14136715D01*
X-118327786Y14422429D01*
X-118327786Y14565286D01*
X-118232548Y14851000D01*
X-118042072Y14993858D01*
X-117756358Y14993858D01*
X-117565881Y14851000D01*
X-116613500Y13279572D02*
X-116518262Y13136715D01*
X-116613500Y12993858D01*
X-116708739Y13136715D01*
X-116613500Y13279572D01*
X-116613500Y12993858D01*
X-116613500Y14851000D02*
X-116518262Y14708143D01*
X-116613500Y14565286D01*
X-116708739Y14708143D01*
X-116613500Y14851000D01*
X-116613500Y14565286D01*
X-114232548Y16136715D02*
X-115946834Y12279572D01*
X-112137310Y16136715D02*
X-113851596Y12279572D01*
X-110613500Y14993858D02*
X-110613500Y12565286D01*
X-110708739Y12279572D01*
X-110803977Y12136715D01*
X-110994453Y11993858D01*
X-111280167Y11993858D01*
X-111470643Y12136715D01*
X-110613500Y13136715D02*
X-110803977Y12993858D01*
X-111184929Y12993858D01*
X-111375405Y13136715D01*
X-111470643Y13279572D01*
X-111565881Y13565286D01*
X-111565881Y14422429D01*
X-111470643Y14708143D01*
X-111375405Y14851000D01*
X-111184929Y14993858D01*
X-110803977Y14993858D01*
X-110613500Y14851000D01*
X-109661120Y12993858D02*
X-109661120Y14993858D01*
X-109661120Y15993858D02*
X-109756358Y15851000D01*
X-109661120Y15708143D01*
X-109565881Y15851000D01*
X-109661120Y15993858D01*
X-109661120Y15708143D01*
X-108994453Y14993858D02*
X-108232548Y14993858D01*
X-108708739Y15993858D02*
X-108708739Y13422429D01*
X-108613500Y13136715D01*
X-108423024Y12993858D01*
X-108232548Y12993858D01*
X-107565881Y12993858D02*
X-107565881Y15993858D01*
X-106708739Y12993858D02*
X-106708739Y14565286D01*
X-106803977Y14851000D01*
X-106994453Y14993858D01*
X-107280167Y14993858D01*
X-107470643Y14851000D01*
X-107565881Y14708143D01*
X-104899215Y14993858D02*
X-104899215Y12993858D01*
X-105756358Y14993858D02*
X-105756358Y13422429D01*
X-105661120Y13136715D01*
X-105470643Y12993858D01*
X-105184929Y12993858D01*
X-104994453Y13136715D01*
X-104899215Y13279572D01*
X-103946834Y12993858D02*
X-103946834Y15993858D01*
X-103946834Y14851000D02*
X-103756358Y14993858D01*
X-103375405Y14993858D01*
X-103184929Y14851000D01*
X-103089691Y14708143D01*
X-102994453Y14422429D01*
X-102994453Y13565286D01*
X-103089691Y13279572D01*
X-103184929Y13136715D01*
X-103375405Y12993858D01*
X-103756358Y12993858D01*
X-103946834Y13136715D01*
X-102137310Y13279572D02*
X-102042072Y13136715D01*
X-102137310Y12993858D01*
X-102232548Y13136715D01*
X-102137310Y13279572D01*
X-102137310Y12993858D01*
X-100327786Y13136715D02*
X-100518262Y12993858D01*
X-100899215Y12993858D01*
X-101089691Y13136715D01*
X-101184929Y13279572D01*
X-101280167Y13565286D01*
X-101280167Y14422429D01*
X-101184929Y14708143D01*
X-101089691Y14851000D01*
X-100899215Y14993858D01*
X-100518262Y14993858D01*
X-100327786Y14851000D01*
X-99184929Y12993858D02*
X-99375405Y13136715D01*
X-99470643Y13279572D01*
X-99565881Y13565286D01*
X-99565881Y14422429D01*
X-99470643Y14708143D01*
X-99375405Y14851000D01*
X-99184929Y14993858D01*
X-98899215Y14993858D01*
X-98708739Y14851000D01*
X-98613500Y14708143D01*
X-98518262Y14422429D01*
X-98518262Y13565286D01*
X-98613500Y13279572D01*
X-98708739Y13136715D01*
X-98899215Y12993858D01*
X-99184929Y12993858D01*
X-97661120Y12993858D02*
X-97661120Y14993858D01*
X-97661120Y14708143D02*
X-97565881Y14851000D01*
X-97375405Y14993858D01*
X-97089691Y14993858D01*
X-96899215Y14851000D01*
X-96803977Y14565286D01*
X-96803977Y12993858D01*
X-96803977Y14565286D02*
X-96708739Y14851000D01*
X-96518262Y14993858D01*
X-96232548Y14993858D01*
X-96042072Y14851000D01*
X-95946834Y14565286D01*
X-95946834Y12993858D01*
X-93565881Y16136715D02*
X-95280167Y12279572D01*
X-92899215Y12993858D02*
X-92899215Y15993858D01*
X-92042072Y12993858D02*
X-92042072Y14565286D01*
X-92137310Y14851000D01*
X-92327786Y14993858D01*
X-92613500Y14993858D01*
X-92803977Y14851000D01*
X-92899215Y14708143D01*
X-90232548Y12993858D02*
X-90232548Y14565286D01*
X-90327786Y14851000D01*
X-90518262Y14993858D01*
X-90899215Y14993858D01*
X-91089691Y14851000D01*
X-90232548Y13136715D02*
X-90423024Y12993858D01*
X-90899215Y12993858D01*
X-91089691Y13136715D01*
X-91184929Y13422429D01*
X-91184929Y13708143D01*
X-91089691Y13993858D01*
X-90899215Y14136715D01*
X-90423024Y14136715D01*
X-90232548Y14279572D01*
X-89280167Y14993858D02*
X-89280167Y12993858D01*
X-89280167Y14708143D02*
X-89184929Y14851000D01*
X-88994453Y14993858D01*
X-88708739Y14993858D01*
X-88518262Y14851000D01*
X-88423024Y14565286D01*
X-88423024Y12993858D01*
X-87565881Y13136715D02*
X-87375405Y12993858D01*
X-86994453Y12993858D01*
X-86803977Y13136715D01*
X-86708739Y13422429D01*
X-86708739Y13565286D01*
X-86803977Y13851000D01*
X-86994453Y13993858D01*
X-87280167Y13993858D01*
X-87470643Y14136715D01*
X-87565881Y14422429D01*
X-87565881Y14565286D01*
X-87470643Y14851000D01*
X-87280167Y14993858D01*
X-86994453Y14993858D01*
X-86803977Y14851000D01*
X-85851596Y12993858D02*
X-85851596Y15993858D01*
X-84994453Y12993858D02*
X-84994453Y14565286D01*
X-85089691Y14851000D01*
X-85280167Y14993858D01*
X-85565881Y14993858D01*
X-85756358Y14851000D01*
X-85851596Y14708143D01*
X-83184929Y14993858D02*
X-83184929Y12993858D01*
X-84042072Y14993858D02*
X-84042072Y13422429D01*
X-83946834Y13136715D01*
X-83756358Y12993858D01*
X-83470643Y12993858D01*
X-83280167Y13136715D01*
X-83184929Y13279572D01*
X-81470643Y13136715D02*
X-81661120Y12993858D01*
X-82042072Y12993858D01*
X-82232548Y13136715D01*
X-82327786Y13422429D01*
X-82327786Y14565286D01*
X-82232548Y14851000D01*
X-82042072Y14993858D01*
X-81661120Y14993858D01*
X-81470643Y14851000D01*
X-81375405Y14565286D01*
X-81375405Y14279572D01*
X-82327786Y13993858D01*
X-80518262Y12993858D02*
X-80518262Y15993858D01*
X-80518262Y14851000D02*
X-80327786Y14993858D01*
X-79946834Y14993858D01*
X-79756358Y14851000D01*
X-79661120Y14708143D01*
X-79565881Y14422429D01*
X-79565881Y13565286D01*
X-79661120Y13279572D01*
X-79756358Y13136715D01*
X-79946834Y12993858D01*
X-80327786Y12993858D01*
X-80518262Y13136715D01*
X-78708739Y14993858D02*
X-78708739Y12993858D01*
X-78708739Y14708143D02*
X-78613501Y14851000D01*
X-78423024Y14993858D01*
X-78137310Y14993858D01*
X-77946834Y14851000D01*
X-77851596Y14565286D01*
X-77851596Y12993858D01*
X-76137310Y13136715D02*
X-76327786Y12993858D01*
X-76708739Y12993858D01*
X-76899215Y13136715D01*
X-76994453Y13422429D01*
X-76994453Y14565286D01*
X-76899215Y14851000D01*
X-76708739Y14993858D01*
X-76327786Y14993858D01*
X-76137310Y14851000D01*
X-76042072Y14565286D01*
X-76042072Y14279572D01*
X-76994453Y13993858D01*
X-75184929Y12993858D02*
X-75184929Y14993858D01*
X-75184929Y14422429D02*
X-75089691Y14708143D01*
X-74994453Y14851000D01*
X-74803977Y14993858D01*
X-74613501Y14993858D01*
X-72518262Y16136715D02*
X-74232548Y12279572D01*
X-71851596Y12993858D02*
X-71851596Y14993858D01*
X-71851596Y14708143D02*
X-71756358Y14851000D01*
X-71565881Y14993858D01*
X-71280167Y14993858D01*
X-71089691Y14851000D01*
X-70994453Y14565286D01*
X-70994453Y12993858D01*
X-70994453Y14565286D02*
X-70899215Y14851000D01*
X-70708739Y14993858D01*
X-70423024Y14993858D01*
X-70232548Y14851000D01*
X-70137310Y14565286D01*
X-70137310Y12993858D01*
X-68899215Y12993858D02*
X-69089691Y13136715D01*
X-69184929Y13279572D01*
X-69280167Y13565286D01*
X-69280167Y14422429D01*
X-69184929Y14708143D01*
X-69089691Y14851000D01*
X-68899215Y14993858D01*
X-68613501Y14993858D01*
X-68423024Y14851000D01*
X-68327786Y14708143D01*
X-68232548Y14422429D01*
X-68232548Y13565286D01*
X-68327786Y13279572D01*
X-68423024Y13136715D01*
X-68613501Y12993858D01*
X-68899215Y12993858D01*
X-66518262Y13136715D02*
X-66708739Y12993858D01*
X-67089691Y12993858D01*
X-67280167Y13136715D01*
X-67375405Y13279572D01*
X-67470643Y13565286D01*
X-67470643Y14422429D01*
X-67375405Y14708143D01*
X-67280167Y14851000D01*
X-67089691Y14993858D01*
X-66708739Y14993858D01*
X-66518262Y14851000D01*
X-65661120Y12993858D02*
X-65661120Y15993858D01*
X-65470643Y14136715D02*
X-64899215Y12993858D01*
X-64899215Y14993858D02*
X-65661120Y13851000D01*
X-64042072Y12993858D02*
X-64042072Y14993858D01*
X-64042072Y15993858D02*
X-64137310Y15851000D01*
X-64042072Y15708143D01*
X-63946834Y15851000D01*
X-64042072Y15993858D01*
X-64042072Y15708143D01*
X-63089691Y14993858D02*
X-63089691Y12993858D01*
X-63089691Y14708143D02*
X-62994453Y14851000D01*
X-62803977Y14993858D01*
X-62518262Y14993858D01*
X-62327786Y14851000D01*
X-62232548Y14565286D01*
X-62232548Y12993858D01*
X-60423024Y14993858D02*
X-60423024Y12565286D01*
X-60518262Y12279572D01*
X-60613501Y12136715D01*
X-60803977Y11993858D01*
X-61089691Y11993858D01*
X-61280167Y12136715D01*
X-60423024Y13136715D02*
X-60613501Y12993858D01*
X-60994453Y12993858D01*
X-61184929Y13136715D01*
X-61280167Y13279572D01*
X-61375405Y13565286D01*
X-61375405Y14422429D01*
X-61280167Y14708143D01*
X-61184929Y14851000D01*
X-60994453Y14993858D01*
X-60613501Y14993858D01*
X-60423024Y14851000D01*
X-59470643Y12993858D02*
X-59470643Y15993858D01*
X-59470643Y14851000D02*
X-59280167Y14993858D01*
X-58899215Y14993858D01*
X-58708739Y14851000D01*
X-58613501Y14708143D01*
X-58518262Y14422429D01*
X-58518262Y13565286D01*
X-58613501Y13279572D01*
X-58708739Y13136715D01*
X-58899215Y12993858D01*
X-59280167Y12993858D01*
X-59470643Y13136715D01*
X-57375405Y12993858D02*
X-57565881Y13136715D01*
X-57661120Y13279572D01*
X-57756358Y13565286D01*
X-57756358Y14422429D01*
X-57661120Y14708143D01*
X-57565881Y14851000D01*
X-57375405Y14993858D01*
X-57089691Y14993858D01*
X-56899215Y14851000D01*
X-56803977Y14708143D01*
X-56708739Y14422429D01*
X-56708739Y13565286D01*
X-56803977Y13279572D01*
X-56899215Y13136715D01*
X-57089691Y12993858D01*
X-57375405Y12993858D01*
X-54994453Y12993858D02*
X-54994453Y14565286D01*
X-55089691Y14851000D01*
X-55280167Y14993858D01*
X-55661120Y14993858D01*
X-55851596Y14851000D01*
X-54994453Y13136715D02*
X-55184929Y12993858D01*
X-55661120Y12993858D01*
X-55851596Y13136715D01*
X-55946834Y13422429D01*
X-55946834Y13708143D01*
X-55851596Y13993858D01*
X-55661120Y14136715D01*
X-55184929Y14136715D01*
X-54994453Y14279572D01*
X-54042072Y12993858D02*
X-54042072Y14993858D01*
X-54042072Y14422429D02*
X-53946834Y14708143D01*
X-53851596Y14851000D01*
X-53661120Y14993858D01*
X-53470643Y14993858D01*
X-51946834Y12993858D02*
X-51946834Y15993858D01*
X-51946834Y13136715D02*
X-52137310Y12993858D01*
X-52518262Y12993858D01*
X-52708739Y13136715D01*
X-52803977Y13279572D01*
X-52899215Y13565286D01*
X-52899215Y14422429D01*
X-52803977Y14708143D01*
X-52708739Y14851000D01*
X-52518262Y14993858D01*
X-52137310Y14993858D01*
X-51946834Y14851000D01*
X-51089691Y15708143D02*
X-50994453Y15851000D01*
X-50803977Y15993858D01*
X-50327786Y15993858D01*
X-50137310Y15851000D01*
X-50042072Y15708143D01*
X-49946834Y15422429D01*
X-49946834Y15136715D01*
X-50042072Y14708143D01*
X-51184929Y12993858D01*
X-49946834Y12993858D01*
X-49089691Y12993858D02*
X-49089691Y15993858D01*
X-48899215Y14136715D02*
X-48327786Y12993858D01*
X-48327786Y14993858D02*
X-49089691Y13851000D01*
D13*
X-99821905Y35980620D02*
X-99821905Y35171096D01*
X-99774286Y35075858D01*
X-99726667Y35028239D01*
X-99631429Y34980620D01*
X-99440953Y34980620D01*
X-99345715Y35028239D01*
X-99298096Y35075858D01*
X-99250477Y35171096D01*
X-99250477Y35980620D01*
X-98821905Y35885381D02*
X-98774286Y35933000D01*
X-98679048Y35980620D01*
X-98440953Y35980620D01*
X-98345715Y35933000D01*
X-98298096Y35885381D01*
X-98250477Y35790143D01*
X-98250477Y35694905D01*
X-98298096Y35552048D01*
X-98869524Y34980620D01*
X-98250477Y34980620D01*
X-100425096Y34202620D02*
X-100615572Y34202620D01*
X-100710810Y34155000D01*
X-100758429Y34107381D01*
X-100853667Y33964524D01*
X-100901286Y33774048D01*
X-100901286Y33393096D01*
X-100853667Y33297858D01*
X-100806048Y33250239D01*
X-100710810Y33202620D01*
X-100520334Y33202620D01*
X-100425096Y33250239D01*
X-100377477Y33297858D01*
X-100329858Y33393096D01*
X-100329858Y33631191D01*
X-100377477Y33726429D01*
X-100425096Y33774048D01*
X-100520334Y33821667D01*
X-100710810Y33821667D01*
X-100806048Y33774048D01*
X-100853667Y33726429D01*
X-100901286Y33631191D01*
X-99425096Y34202620D02*
X-99901286Y34202620D01*
X-99948905Y33726429D01*
X-99901286Y33774048D01*
X-99806048Y33821667D01*
X-99567953Y33821667D01*
X-99472715Y33774048D01*
X-99425096Y33726429D01*
X-99377477Y33631191D01*
X-99377477Y33393096D01*
X-99425096Y33297858D01*
X-99472715Y33250239D01*
X-99567953Y33202620D01*
X-99806048Y33202620D01*
X-99901286Y33250239D01*
X-99948905Y33297858D01*
X-98996524Y34107381D02*
X-98948905Y34155000D01*
X-98853667Y34202620D01*
X-98615572Y34202620D01*
X-98520334Y34155000D01*
X-98472715Y34107381D01*
X-98425096Y34012143D01*
X-98425096Y33916905D01*
X-98472715Y33774048D01*
X-99044143Y33202620D01*
X-98425096Y33202620D01*
X-98044143Y34107381D02*
X-97996524Y34155000D01*
X-97901286Y34202620D01*
X-97663191Y34202620D01*
X-97567953Y34155000D01*
X-97520334Y34107381D01*
X-97472715Y34012143D01*
X-97472715Y33916905D01*
X-97520334Y33774048D01*
X-98091762Y33202620D01*
X-97472715Y33202620D01*
X-99821905Y58078620D02*
X-99821905Y57269096D01*
X-99774286Y57173858D01*
X-99726667Y57126239D01*
X-99631429Y57078620D01*
X-99440953Y57078620D01*
X-99345715Y57126239D01*
X-99298096Y57173858D01*
X-99250477Y57269096D01*
X-99250477Y58078620D01*
X-98250477Y57078620D02*
X-98821905Y57078620D01*
X-98536191Y57078620D02*
X-98536191Y58078620D01*
X-98631429Y57935762D01*
X-98726667Y57840524D01*
X-98821905Y57792905D01*
X-103345715Y55586334D02*
X-102869524Y55586334D01*
X-103440953Y55300620D02*
X-103107620Y56300620D01*
X-102774286Y55300620D01*
X-102250477Y55776810D02*
X-102250477Y55300620D01*
X-102583810Y56300620D02*
X-102250477Y55776810D01*
X-101917143Y56300620D01*
X-101583810Y55681572D02*
X-100821905Y55681572D01*
X-100440953Y56300620D02*
X-99821905Y56300620D01*
X-100155239Y55919667D01*
X-100012381Y55919667D01*
X-99917143Y55872048D01*
X-99869524Y55824429D01*
X-99821905Y55729191D01*
X-99821905Y55491096D01*
X-99869524Y55395858D01*
X-99917143Y55348239D01*
X-100012381Y55300620D01*
X-100298096Y55300620D01*
X-100393334Y55348239D01*
X-100440953Y55395858D01*
X-99393334Y55681572D02*
X-98631429Y55681572D01*
X-98012381Y55872048D02*
X-98107620Y55919667D01*
X-98155239Y55967286D01*
X-98202858Y56062524D01*
X-98202858Y56110143D01*
X-98155239Y56205381D01*
X-98107620Y56253000D01*
X-98012381Y56300620D01*
X-97821905Y56300620D01*
X-97726667Y56253000D01*
X-97679048Y56205381D01*
X-97631429Y56110143D01*
X-97631429Y56062524D01*
X-97679048Y55967286D01*
X-97726667Y55919667D01*
X-97821905Y55872048D01*
X-98012381Y55872048D01*
X-98107620Y55824429D01*
X-98155239Y55776810D01*
X-98202858Y55681572D01*
X-98202858Y55491096D01*
X-98155239Y55395858D01*
X-98107620Y55348239D01*
X-98012381Y55300620D01*
X-97821905Y55300620D01*
X-97726667Y55348239D01*
X-97679048Y55395858D01*
X-97631429Y55491096D01*
X-97631429Y55681572D01*
X-97679048Y55776810D01*
X-97726667Y55824429D01*
X-97821905Y55872048D01*
X-97155239Y55300620D02*
X-96964762Y55300620D01*
X-96869524Y55348239D01*
X-96821905Y55395858D01*
X-96726667Y55538715D01*
X-96679048Y55729191D01*
X-96679048Y56110143D01*
X-96726667Y56205381D01*
X-96774286Y56253000D01*
X-96869524Y56300620D01*
X-97060000Y56300620D01*
X-97155239Y56253000D01*
X-97202858Y56205381D01*
X-97250477Y56110143D01*
X-97250477Y55872048D01*
X-97202858Y55776810D01*
X-97155239Y55729191D01*
X-97060000Y55681572D01*
X-96869524Y55681572D01*
X-96774286Y55729191D01*
X-96726667Y55776810D01*
X-96679048Y55872048D01*
X-95726667Y55300620D02*
X-96298096Y55300620D01*
X-96012381Y55300620D02*
X-96012381Y56300620D01*
X-96107620Y56157762D01*
X-96202858Y56062524D01*
X-96298096Y56014905D01*
X-95107620Y56300620D02*
X-95012381Y56300620D01*
X-94917143Y56253000D01*
X-94869524Y56205381D01*
X-94821905Y56110143D01*
X-94774286Y55919667D01*
X-94774286Y55681572D01*
X-94821905Y55491096D01*
X-94869524Y55395858D01*
X-94917143Y55348239D01*
X-95012381Y55300620D01*
X-95107620Y55300620D01*
X-95202858Y55348239D01*
X-95250477Y55395858D01*
X-95298096Y55491096D01*
X-95345715Y55681572D01*
X-95345715Y55919667D01*
X-95298096Y56110143D01*
X-95250477Y56205381D01*
X-95202858Y56253000D01*
X-95107620Y56300620D01*
X-13612334Y60408667D02*
X-13612334Y60884858D01*
X-13326620Y60313429D02*
X-14326620Y60646762D01*
X-13326620Y60980096D01*
X-14326620Y61313429D02*
X-13517096Y61313429D01*
X-13421858Y61361048D01*
X-13374239Y61408667D01*
X-13326620Y61503905D01*
X-13326620Y61694381D01*
X-13374239Y61789620D01*
X-13421858Y61837239D01*
X-13517096Y61884858D01*
X-14326620Y61884858D01*
X-13326620Y62361048D02*
X-14326620Y62361048D01*
X-14326620Y62599143D01*
X-14279000Y62742000D01*
X-14183762Y62837239D01*
X-14088524Y62884858D01*
X-13898048Y62932477D01*
X-13755191Y62932477D01*
X-13564715Y62884858D01*
X-13469477Y62837239D01*
X-13374239Y62742000D01*
X-13326620Y62599143D01*
X-13326620Y62361048D01*
X-13326620Y63361048D02*
X-14326620Y63361048D01*
X-14326620Y64027715D02*
X-14326620Y64218191D01*
X-14279000Y64313429D01*
X-14183762Y64408667D01*
X-13993286Y64456286D01*
X-13659953Y64456286D01*
X-13469477Y64408667D01*
X-13374239Y64313429D01*
X-13326620Y64218191D01*
X-13326620Y64027715D01*
X-13374239Y63932477D01*
X-13469477Y63837239D01*
X-13659953Y63789620D01*
X-13993286Y63789620D01*
X-14183762Y63837239D01*
X-14279000Y63932477D01*
X-14326620Y64027715D01*
X-13231381Y64646762D02*
X-13231381Y65408667D01*
X-14326620Y65837239D02*
X-14326620Y66027715D01*
X-14279000Y66122953D01*
X-14183762Y66218191D01*
X-13993286Y66265810D01*
X-13659953Y66265810D01*
X-13469477Y66218191D01*
X-13374239Y66122953D01*
X-13326620Y66027715D01*
X-13326620Y65837239D01*
X-13374239Y65742000D01*
X-13469477Y65646762D01*
X-13659953Y65599143D01*
X-13993286Y65599143D01*
X-14183762Y65646762D01*
X-14279000Y65742000D01*
X-14326620Y65837239D01*
X-14326620Y66694381D02*
X-13517096Y66694381D01*
X-13421858Y66742000D01*
X-13374239Y66789620D01*
X-13326620Y66884858D01*
X-13326620Y67075334D01*
X-13374239Y67170572D01*
X-13421858Y67218191D01*
X-13517096Y67265810D01*
X-14326620Y67265810D01*
X-14326620Y67599143D02*
X-14326620Y68170572D01*
X-13326620Y67884858D02*
X-14326620Y67884858D01*
X-44068905Y58078620D02*
X-44068905Y57269096D01*
X-44021286Y57173858D01*
X-43973667Y57126239D01*
X-43878429Y57078620D01*
X-43687953Y57078620D01*
X-43592715Y57126239D01*
X-43545096Y57173858D01*
X-43497477Y57269096D01*
X-43497477Y58078620D01*
X-42545096Y58078620D02*
X-43021286Y58078620D01*
X-43068905Y57602429D01*
X-43021286Y57650048D01*
X-42926048Y57697667D01*
X-42687953Y57697667D01*
X-42592715Y57650048D01*
X-42545096Y57602429D01*
X-42497477Y57507191D01*
X-42497477Y57269096D01*
X-42545096Y57173858D01*
X-42592715Y57126239D01*
X-42687953Y57078620D01*
X-42926048Y57078620D01*
X-43021286Y57126239D01*
X-43068905Y57173858D01*
X-47846715Y55586334D02*
X-47370524Y55586334D01*
X-47941953Y55300620D02*
X-47608620Y56300620D01*
X-47275286Y55300620D01*
X-46751477Y55776810D02*
X-46751477Y55300620D01*
X-47084810Y56300620D02*
X-46751477Y55776810D01*
X-46418143Y56300620D01*
X-46084810Y55681572D02*
X-45322905Y55681572D01*
X-44941953Y56300620D02*
X-44322905Y56300620D01*
X-44656239Y55919667D01*
X-44513381Y55919667D01*
X-44418143Y55872048D01*
X-44370524Y55824429D01*
X-44322905Y55729191D01*
X-44322905Y55491096D01*
X-44370524Y55395858D01*
X-44418143Y55348239D01*
X-44513381Y55300620D01*
X-44799096Y55300620D01*
X-44894334Y55348239D01*
X-44941953Y55395858D01*
X-43894334Y55681572D02*
X-43132429Y55681572D01*
X-42513381Y55872048D02*
X-42608620Y55919667D01*
X-42656239Y55967286D01*
X-42703858Y56062524D01*
X-42703858Y56110143D01*
X-42656239Y56205381D01*
X-42608620Y56253000D01*
X-42513381Y56300620D01*
X-42322905Y56300620D01*
X-42227667Y56253000D01*
X-42180048Y56205381D01*
X-42132429Y56110143D01*
X-42132429Y56062524D01*
X-42180048Y55967286D01*
X-42227667Y55919667D01*
X-42322905Y55872048D01*
X-42513381Y55872048D01*
X-42608620Y55824429D01*
X-42656239Y55776810D01*
X-42703858Y55681572D01*
X-42703858Y55491096D01*
X-42656239Y55395858D01*
X-42608620Y55348239D01*
X-42513381Y55300620D01*
X-42322905Y55300620D01*
X-42227667Y55348239D01*
X-42180048Y55395858D01*
X-42132429Y55491096D01*
X-42132429Y55681572D01*
X-42180048Y55776810D01*
X-42227667Y55824429D01*
X-42322905Y55872048D01*
X-41656239Y55300620D02*
X-41465762Y55300620D01*
X-41370524Y55348239D01*
X-41322905Y55395858D01*
X-41227667Y55538715D01*
X-41180048Y55729191D01*
X-41180048Y56110143D01*
X-41227667Y56205381D01*
X-41275286Y56253000D01*
X-41370524Y56300620D01*
X-41561000Y56300620D01*
X-41656239Y56253000D01*
X-41703858Y56205381D01*
X-41751477Y56110143D01*
X-41751477Y55872048D01*
X-41703858Y55776810D01*
X-41656239Y55729191D01*
X-41561000Y55681572D01*
X-41370524Y55681572D01*
X-41275286Y55729191D01*
X-41227667Y55776810D01*
X-41180048Y55872048D01*
X-40227667Y55300620D02*
X-40799096Y55300620D01*
X-40513381Y55300620D02*
X-40513381Y56300620D01*
X-40608620Y56157762D01*
X-40703858Y56062524D01*
X-40799096Y56014905D01*
X-39608620Y56300620D02*
X-39513381Y56300620D01*
X-39418143Y56253000D01*
X-39370524Y56205381D01*
X-39322905Y56110143D01*
X-39275286Y55919667D01*
X-39275286Y55681572D01*
X-39322905Y55491096D01*
X-39370524Y55395858D01*
X-39418143Y55348239D01*
X-39513381Y55300620D01*
X-39608620Y55300620D01*
X-39703858Y55348239D01*
X-39751477Y55395858D01*
X-39799096Y55491096D01*
X-39846715Y55681572D01*
X-39846715Y55919667D01*
X-39799096Y56110143D01*
X-39751477Y56205381D01*
X-39703858Y56253000D01*
X-39608620Y56300620D01*
X-44195905Y35980620D02*
X-44195905Y35171096D01*
X-44148286Y35075858D01*
X-44100667Y35028239D01*
X-44005429Y34980620D01*
X-43814953Y34980620D01*
X-43719715Y35028239D01*
X-43672096Y35075858D01*
X-43624477Y35171096D01*
X-43624477Y35980620D01*
X-42719715Y35980620D02*
X-42910191Y35980620D01*
X-43005429Y35933000D01*
X-43053048Y35885381D01*
X-43148286Y35742524D01*
X-43195905Y35552048D01*
X-43195905Y35171096D01*
X-43148286Y35075858D01*
X-43100667Y35028239D01*
X-43005429Y34980620D01*
X-42814953Y34980620D01*
X-42719715Y35028239D01*
X-42672096Y35075858D01*
X-42624477Y35171096D01*
X-42624477Y35409191D01*
X-42672096Y35504429D01*
X-42719715Y35552048D01*
X-42814953Y35599667D01*
X-43005429Y35599667D01*
X-43100667Y35552048D01*
X-43148286Y35504429D01*
X-43195905Y35409191D01*
X-44799096Y34075620D02*
X-44989572Y34075620D01*
X-45084810Y34028000D01*
X-45132429Y33980381D01*
X-45227667Y33837524D01*
X-45275286Y33647048D01*
X-45275286Y33266096D01*
X-45227667Y33170858D01*
X-45180048Y33123239D01*
X-45084810Y33075620D01*
X-44894334Y33075620D01*
X-44799096Y33123239D01*
X-44751477Y33170858D01*
X-44703858Y33266096D01*
X-44703858Y33504191D01*
X-44751477Y33599429D01*
X-44799096Y33647048D01*
X-44894334Y33694667D01*
X-45084810Y33694667D01*
X-45180048Y33647048D01*
X-45227667Y33599429D01*
X-45275286Y33504191D01*
X-43799096Y34075620D02*
X-44275286Y34075620D01*
X-44322905Y33599429D01*
X-44275286Y33647048D01*
X-44180048Y33694667D01*
X-43941953Y33694667D01*
X-43846715Y33647048D01*
X-43799096Y33599429D01*
X-43751477Y33504191D01*
X-43751477Y33266096D01*
X-43799096Y33170858D01*
X-43846715Y33123239D01*
X-43941953Y33075620D01*
X-44180048Y33075620D01*
X-44275286Y33123239D01*
X-44322905Y33170858D01*
X-43370524Y33980381D02*
X-43322905Y34028000D01*
X-43227667Y34075620D01*
X-42989572Y34075620D01*
X-42894334Y34028000D01*
X-42846715Y33980381D01*
X-42799096Y33885143D01*
X-42799096Y33789905D01*
X-42846715Y33647048D01*
X-43418143Y33075620D01*
X-42799096Y33075620D01*
X-42418143Y33980381D02*
X-42370524Y34028000D01*
X-42275286Y34075620D01*
X-42037191Y34075620D01*
X-41941953Y34028000D01*
X-41894334Y33980381D01*
X-41846715Y33885143D01*
X-41846715Y33789905D01*
X-41894334Y33647048D01*
X-42465762Y33075620D01*
X-41846715Y33075620D01*
D14*
X-124598642Y28765000D02*
X-73678642Y28765000D01*
X-73678642Y36225000D02*
X-73678642Y41685000D01*
X-73678642Y41685000D02*
X-124598642Y41685000D01*
X-124598642Y41685000D02*
X-124598642Y28765000D01*
X-73678642Y28765000D02*
X-73678642Y34225000D01*
X-73678642Y36225000D02*
G75*
G03*
X-73678642Y34225000I0J-1000000D01*
G01*
X-124525000Y63869000D02*
X-124525000Y50949000D01*
X-124525000Y50949000D02*
X-73605000Y50949000D01*
X-73605000Y58409000D02*
X-73605000Y63869000D01*
X-73605000Y63869000D02*
X-124525000Y63869000D01*
X-73605000Y50949000D02*
X-73605000Y56409000D01*
X-73605000Y58409000D02*
G75*
G03*
X-73605000Y56409000I0J-1000000D01*
G01*
X-4304710Y69952000D02*
X-4304710Y61322000D01*
X-3749000Y61322000D02*
X-3749000Y60972000D01*
X-9739000Y69952000D02*
X-9739000Y61322000D01*
X-2059000Y59862000D02*
X-2059000Y58752000D01*
X-8829000Y61322000D02*
X-8829000Y60912000D01*
X-2059000Y61322000D02*
X-12339000Y61322000D01*
X-2415190Y69952000D02*
X-2415190Y61322000D01*
X-4540900Y69952000D02*
X-4540900Y61322000D01*
X-2059000Y58752000D02*
X-3389000Y58752000D01*
X-4659000Y69952000D02*
X-4659000Y61322000D01*
X-2887570Y69952000D02*
X-2887570Y61322000D01*
X-3359950Y69952000D02*
X-3359950Y61322000D01*
X-10649000Y61322000D02*
X-10649000Y60912000D01*
X-4068520Y69952000D02*
X-4068520Y61322000D01*
X-2533285Y69952000D02*
X-2533285Y61322000D01*
X-7199000Y69952000D02*
X-7199000Y61322000D01*
X-2179000Y69952000D02*
X-2179000Y61322000D01*
X-3596140Y69952000D02*
X-3596140Y61322000D01*
X-3241855Y69952000D02*
X-3241855Y61322000D01*
X-3123760Y69952000D02*
X-3123760Y61322000D01*
X-12339000Y69952000D02*
X-12339000Y61322000D01*
X-6289000Y61322000D02*
X-6289000Y60912000D01*
X-3005665Y69952000D02*
X-3005665Y61322000D01*
X-5569000Y61322000D02*
X-5569000Y60912000D01*
X-2651380Y69952000D02*
X-2651380Y61322000D01*
X-3950425Y69952000D02*
X-3950425Y61322000D01*
X-11369000Y61322000D02*
X-11369000Y60912000D01*
X-4422805Y69952000D02*
X-4422805Y61322000D01*
X-4186615Y69952000D02*
X-4186615Y61322000D01*
X-3478045Y69952000D02*
X-3478045Y61322000D01*
X-2297095Y69952000D02*
X-2297095Y61322000D01*
X-2059000Y69952000D02*
X-2059000Y61322000D01*
X-2769475Y69952000D02*
X-2769475Y61322000D01*
X-8109000Y61322000D02*
X-8109000Y60912000D01*
X-3714235Y69952000D02*
X-3714235Y61322000D01*
X-3832330Y69952000D02*
X-3832330Y61322000D01*
X-2059000Y69952000D02*
X-12339000Y69952000D01*
X-3029000Y61322000D02*
X-3029000Y60972000D01*
X-17974000Y58404000D02*
X-17974000Y63864000D01*
X-68894000Y50944000D02*
X-17974000Y50944000D01*
X-68894000Y63864000D02*
X-68894000Y50944000D01*
X-17974000Y63864000D02*
X-68894000Y63864000D01*
X-17974000Y50944000D02*
X-17974000Y56404000D01*
X-17974000Y58404000D02*
G75*
G03*
X-17974000Y56404000I0J-1000000D01*
G01*
X-68972642Y28765000D02*
X-18052642Y28765000D01*
X-18052642Y28765000D02*
X-18052642Y34225000D01*
X-68972642Y41685000D02*
X-68972642Y28765000D01*
X-18052642Y41685000D02*
X-68972642Y41685000D01*
X-18052642Y36225000D02*
X-18052642Y41685000D01*
X-18052642Y36225000D02*
G75*
G03*
X-18052642Y34225000I0J-1000000D01*
G01*
M02*
