M48
; DRILL file {KiCad (6.0.2-0)} date 2022 March 26, Saturday 21:25:12
; FORMAT={-:-/ absolute / inch / decimal}
; #@! TF.CreationDate,2022-03-26T21:25:12+01:00
; #@! TF.GenerationSoftware,Kicad,Pcbnew,(6.0.2-0)
; #@! TF.FileFunction,Plated,1,2,PTH
FMAT,2
INCH
; #@! TA.AperFunction,Plated,PTH,ViaDrill
T1C0.0157
; #@! TA.AperFunction,Plated,PTH,ComponentDrill
T2C0.0315
; #@! TA.AperFunction,Plated,PTH,ComponentDrill
T3C0.0394
%
G90
G05
T1
X-4.895Y0.855
X-4.7762Y1.58
X-4.755Y0.79
X-4.71Y1.34
X-4.65Y1.81
X-4.65Y0.76
X-4.55Y0.73
X-4.45Y1.34
X-4.35Y0.58
X-4.25Y0.55
X-4.15Y1.81
X-4.15Y0.52
X-4.05Y0.49
X-3.95Y0.46
X-3.85Y0.43
X-3.75Y0.4
X-3.65Y0.37
X-3.55Y0.8215
X-3.5Y1.59
X-3.45Y0.7
X-3.35Y0.67
X-3.25Y2.39
X-3.25Y0.64
X-3.15Y2.39
X-3.15Y2.14
X-3.15Y0.61
X-3.084Y1.816
X-3.01Y1.59
X-2.954Y1.816
X-2.9531Y1.2969
X-2.95Y2.3
X-2.95Y1.58
X-2.735Y0.85
X-2.72Y0.76
X-2.72Y0.32
X-2.6669Y1.582
X-2.66Y1.9
X-2.66Y0.37
X-2.62Y0.61
X-2.62Y0.32
X-2.5931Y1.582
X-2.56Y0.7915
X-2.55Y0.4
X-2.52Y1.34
X-2.52Y0.64
X-2.52Y0.32
X-2.46Y0.76
X-2.45Y0.43
X-2.41Y0.32
X-2.4045Y0.6685
X-2.35Y0.46
X-2.34Y1.3
X-2.33Y1.815
X-2.31Y0.32
X-2.3Y0.7
X-2.26Y1.44
X-2.26Y1.34
X-2.25Y0.49
X-2.21Y1.19
X-2.16Y0.58
X-2.15Y0.52
X-2.11Y0.73
X-2.05Y0.55
X-1.9835Y0.5444
X-1.94Y0.58
X-1.91Y0.73
X-1.91Y0.32
X-1.86Y0.49
X-1.76Y0.46
X-1.71Y1.34
X-1.66Y0.43
X-1.56Y0.4
X-1.46Y0.38
X-1.4Y1.36
X-1.365Y0.82
X-1.3532Y1.2988
X-1.3335Y1.3335
X-1.3027Y1.4727
X-1.2606Y1.3644
X-1.26Y0.7
X-1.25Y1.44
X-1.16Y0.68
X-1.1194Y1.39
X-1.06Y2.38
X-1.06Y0.65
X-1.0Y0.73
X-1.0Y0.32
X-0.98Y1.43
X-0.9604Y2.3842
X-0.96Y2.14
X-0.96Y0.61
X-0.855Y0.82
X-0.77Y1.3
X-0.76Y2.29
X-0.755Y0.85
X-0.555Y0.15
X-0.51Y2.83
X-0.455Y0.15
X-0.43Y0.37
X-0.3653Y1.0553
X-0.3464Y0.3336
T2
X-4.8531Y1.6868
X-4.8531Y1.0868
X-4.8502Y2.5602
X-4.8502Y1.9602
X-4.7531Y1.6868
X-4.7531Y1.0868
X-4.7502Y2.5602
X-4.7502Y1.9602
X-4.6531Y1.6868
X-4.6531Y1.0868
X-4.6502Y2.5602
X-4.6502Y1.9602
X-4.5531Y1.6868
X-4.5531Y1.0868
X-4.5502Y2.5602
X-4.5502Y1.9602
X-4.4531Y1.6868
X-4.4531Y1.0868
X-4.4502Y2.5602
X-4.4502Y1.9602
X-4.3531Y1.6868
X-4.3531Y1.0868
X-4.3502Y2.5602
X-4.3502Y1.9602
X-4.2531Y1.6868
X-4.2531Y1.0868
X-4.2502Y2.5602
X-4.2502Y1.9602
X-4.1531Y1.6868
X-4.1531Y1.0868
X-4.1502Y2.5602
X-4.1502Y1.9602
X-4.0531Y1.6868
X-4.0531Y1.0868
X-4.0502Y2.5602
X-4.0502Y1.9602
X-3.9531Y1.6868
X-3.9531Y1.0868
X-3.9502Y2.5602
X-3.9502Y1.9602
X-3.8531Y1.6868
X-3.8531Y1.0868
X-3.8502Y2.5602
X-3.8502Y1.9602
X-3.7531Y1.6868
X-3.7531Y1.0868
X-3.7502Y2.5602
X-3.7502Y1.9602
X-3.6531Y1.6868
X-3.6531Y1.0868
X-3.6502Y2.5602
X-3.6502Y1.9602
X-3.5531Y1.6868
X-3.5531Y1.0868
X-3.5502Y2.5602
X-3.5502Y1.9602
X-3.4531Y1.6868
X-3.4531Y1.0868
X-3.4502Y2.5602
X-3.4502Y1.9602
X-3.3531Y1.6868
X-3.3531Y1.0868
X-3.3502Y2.5602
X-3.3502Y1.9602
X-3.2531Y1.6868
X-3.2531Y1.0868
X-3.2502Y2.5602
X-3.2502Y1.9602
X-3.1531Y1.6868
X-3.1531Y1.0868
X-3.1502Y2.5602
X-3.1502Y1.9602
X-3.0531Y1.6868
X-3.0531Y1.0868
X-3.0502Y2.5602
X-3.0502Y1.9602
X-2.9531Y1.6868
X-2.9531Y1.0868
X-2.9502Y2.5602
X-2.9502Y1.9602
X-2.6631Y1.6868
X-2.6631Y1.0868
X-2.66Y2.56
X-2.66Y1.96
X-2.5631Y1.6868
X-2.5631Y1.0868
X-2.56Y2.56
X-2.56Y1.96
X-2.4631Y1.6868
X-2.4631Y1.0868
X-2.46Y2.56
X-2.46Y1.96
X-2.3631Y1.6868
X-2.3631Y1.0868
X-2.36Y2.56
X-2.36Y1.96
X-2.2631Y1.6868
X-2.2631Y1.0868
X-2.26Y2.56
X-2.26Y1.96
X-2.1631Y1.6868
X-2.1631Y1.0868
X-2.16Y2.56
X-2.16Y1.96
X-2.0631Y1.6868
X-2.0631Y1.0868
X-2.06Y2.56
X-2.06Y1.96
X-1.9631Y1.6868
X-1.9631Y1.0868
X-1.96Y2.56
X-1.96Y1.96
X-1.8631Y1.6868
X-1.8631Y1.0868
X-1.86Y2.56
X-1.86Y1.96
X-1.7631Y1.6868
X-1.7631Y1.0868
X-1.76Y2.56
X-1.76Y1.96
X-1.6631Y1.6868
X-1.6631Y1.0868
X-1.66Y2.56
X-1.66Y1.96
X-1.5631Y1.6868
X-1.5631Y1.0868
X-1.56Y2.56
X-1.56Y1.96
X-1.4631Y1.6868
X-1.4631Y1.0868
X-1.46Y2.56
X-1.46Y1.96
X-1.3631Y1.6868
X-1.3631Y1.0868
X-1.36Y2.56
X-1.36Y1.96
X-1.2631Y1.6868
X-1.2631Y1.0868
X-1.26Y2.56
X-1.26Y1.96
X-1.1631Y1.6868
X-1.1631Y1.0868
X-1.16Y2.56
X-1.16Y1.96
X-1.0631Y1.6868
X-1.0631Y1.0868
X-1.06Y2.56
X-1.06Y1.96
X-0.9631Y1.6868
X-0.9631Y1.0868
X-0.96Y2.56
X-0.96Y1.96
X-0.8631Y1.6868
X-0.8631Y1.0868
X-0.86Y2.56
X-0.86Y1.96
X-0.7631Y1.6868
X-0.7631Y1.0868
X-0.76Y2.56
X-0.76Y1.96
T3
X-0.4334Y2.3568
X-0.3334Y2.3568
X-0.2334Y2.3568
X-0.1334Y2.3568
T0
M30
