%TF.GenerationSoftware,KiCad,Pcbnew,(6.0.2-0)*%
%TF.CreationDate,2022-03-26T21:25:16+01:00*%
%TF.ProjectId,mockingboard2k,6d6f636b-696e-4676-926f-617264326b2e,0.1*%
%TF.SameCoordinates,PXc52d8a0PY889e9c0*%
%TF.FileFunction,Soldermask,Top*%
%TF.FilePolarity,Negative*%
%FSLAX46Y46*%
G04 Gerber Fmt 4.6, Leading zero omitted, Abs format (unit mm)*
G04 Created by KiCad (PCBNEW (6.0.2-0)) date 2022-03-26 21:25:16*
%MOMM*%
%LPD*%
G01*
G04 APERTURE LIST*
G04 Aperture macros list*
%AMRoundRect*
0 Rectangle with rounded corners*
0 $1 Rounding radius*
0 $2 $3 $4 $5 $6 $7 $8 $9 X,Y pos of 4 corners*
0 Add a 4 corners polygon primitive as box body*
4,1,4,$2,$3,$4,$5,$6,$7,$8,$9,$2,$3,0*
0 Add four circle primitives for the rounded corners*
1,1,$1+$1,$2,$3*
1,1,$1+$1,$4,$5*
1,1,$1+$1,$6,$7*
1,1,$1+$1,$8,$9*
0 Add four rect primitives between the rounded corners*
20,1,$1+$1,$2,$3,$4,$5,0*
20,1,$1+$1,$4,$5,$6,$7,0*
20,1,$1+$1,$6,$7,$8,$9,0*
20,1,$1+$1,$8,$9,$2,$3,0*%
G04 Aperture macros list end*
%ADD10C,0.150000*%
%ADD11C,0.001000*%
%ADD12RoundRect,0.650000X-0.762000X3.175000X-0.762000X-3.175000X0.762000X-3.175000X0.762000X3.175000X0*%
%ADD13RoundRect,0.200000X-0.800000X0.800000X-0.800000X-0.800000X0.800000X-0.800000X0.800000X0.800000X0*%
%ADD14O,2.000000X2.000000*%
%ADD15RoundRect,0.200000X-0.850000X0.850000X-0.850000X-0.850000X0.850000X-0.850000X0.850000X0.850000X0*%
%ADD16O,2.100000X2.100000*%
G04 APERTURE END LIST*
D10*
X-9009000Y71725405D02*
X-9056620Y71630167D01*
X-9056620Y71487310D01*
X-9009000Y71344453D01*
X-8913762Y71249215D01*
X-8818524Y71201596D01*
X-8628048Y71153977D01*
X-8485191Y71153977D01*
X-8294715Y71201596D01*
X-8199477Y71249215D01*
X-8104239Y71344453D01*
X-8056620Y71487310D01*
X-8056620Y71582548D01*
X-8104239Y71725405D01*
X-8151858Y71773024D01*
X-8485191Y71773024D01*
X-8485191Y71582548D01*
X-8056620Y72201596D02*
X-9056620Y72201596D01*
X-8056620Y72773024D01*
X-9056620Y72773024D01*
X-8056620Y73249215D02*
X-9056620Y73249215D01*
X-9056620Y73487310D01*
X-9009000Y73630167D01*
X-8913762Y73725405D01*
X-8818524Y73773024D01*
X-8628048Y73820643D01*
X-8485191Y73820643D01*
X-8294715Y73773024D01*
X-8199477Y73725405D01*
X-8104239Y73630167D01*
X-8056620Y73487310D01*
X-8056620Y73249215D01*
X-2976620Y71773024D02*
X-3452810Y71439691D01*
X-2976620Y71201596D02*
X-3976620Y71201596D01*
X-3976620Y71582548D01*
X-3929000Y71677786D01*
X-3881381Y71725405D01*
X-3786143Y71773024D01*
X-3643286Y71773024D01*
X-3548048Y71725405D01*
X-3500429Y71677786D01*
X-3452810Y71582548D01*
X-3452810Y71201596D01*
X-2976620Y72201596D02*
X-3976620Y72201596D01*
X-3929000Y73201596D02*
X-3976620Y73106358D01*
X-3976620Y72963500D01*
X-3929000Y72820643D01*
X-3833762Y72725405D01*
X-3738524Y72677786D01*
X-3548048Y72630167D01*
X-3405191Y72630167D01*
X-3214715Y72677786D01*
X-3119477Y72725405D01*
X-3024239Y72820643D01*
X-2976620Y72963500D01*
X-2976620Y73058739D01*
X-3024239Y73201596D01*
X-3071858Y73249215D01*
X-3405191Y73249215D01*
X-3405191Y73058739D01*
X-2976620Y73677786D02*
X-3976620Y73677786D01*
X-3500429Y73677786D02*
X-3500429Y74249215D01*
X-2976620Y74249215D02*
X-3976620Y74249215D01*
X-3976620Y74582548D02*
X-3976620Y75153977D01*
X-2976620Y74868262D02*
X-3976620Y74868262D01*
X-10469620Y71677786D02*
X-10469620Y71201596D01*
X-11469620Y71201596D01*
X-10993429Y72011120D02*
X-10993429Y72344453D01*
X-10469620Y72487310D02*
X-10469620Y72011120D01*
X-11469620Y72011120D01*
X-11469620Y72487310D01*
X-10993429Y73249215D02*
X-10993429Y72915881D01*
X-10469620Y72915881D02*
X-11469620Y72915881D01*
X-11469620Y73392072D01*
X-11469620Y73630167D02*
X-11469620Y74201596D01*
X-10469620Y73915881D02*
X-11469620Y73915881D01*
X-6469000Y71725405D02*
X-6516620Y71630167D01*
X-6516620Y71487310D01*
X-6469000Y71344453D01*
X-6373762Y71249215D01*
X-6278524Y71201596D01*
X-6088048Y71153977D01*
X-5945191Y71153977D01*
X-5754715Y71201596D01*
X-5659477Y71249215D01*
X-5564239Y71344453D01*
X-5516620Y71487310D01*
X-5516620Y71582548D01*
X-5564239Y71725405D01*
X-5611858Y71773024D01*
X-5945191Y71773024D01*
X-5945191Y71582548D01*
X-5516620Y72201596D02*
X-6516620Y72201596D01*
X-5516620Y72773024D01*
X-6516620Y72773024D01*
X-5516620Y73249215D02*
X-6516620Y73249215D01*
X-6516620Y73487310D01*
X-6469000Y73630167D01*
X-6373762Y73725405D01*
X-6278524Y73773024D01*
X-6088048Y73820643D01*
X-5945191Y73820643D01*
X-5754715Y73773024D01*
X-5659477Y73725405D01*
X-5564239Y73630167D01*
X-5516620Y73487310D01*
X-5516620Y73249215D01*
D11*
X-6604000Y7620000D02*
X-7747000Y7620000D01*
X-7747000Y7620000D02*
X-7747000Y0D01*
X-7747000Y0D02*
X-6604000Y0D01*
X-6604000Y0D02*
X-6604000Y7620000D01*
G36*
X-6604000Y0D02*
G01*
X-7747000Y0D01*
X-7747000Y7620000D01*
X-6604000Y7620000D01*
X-6604000Y0D01*
G37*
X-6604000Y0D02*
X-7747000Y0D01*
X-7747000Y7620000D01*
X-6604000Y7620000D01*
X-6604000Y0D01*
X-72390000Y7620000D02*
X-71247000Y7620000D01*
X-71247000Y7620000D02*
X-71247000Y0D01*
X-71247000Y0D02*
X-72390000Y0D01*
X-72390000Y0D02*
X-72390000Y7620000D01*
G36*
X-71247000Y0D02*
G01*
X-72390000Y0D01*
X-72390000Y7620000D01*
X-71247000Y7620000D01*
X-71247000Y0D01*
G37*
X-71247000Y0D02*
X-72390000Y0D01*
X-72390000Y7620000D01*
X-71247000Y7620000D01*
X-71247000Y0D01*
D12*
X-69977000Y3810000D03*
X-67437000Y3810000D03*
X-64897000Y3810000D03*
X-62357000Y3810000D03*
X-59817000Y3810000D03*
X-57277000Y3810000D03*
X-54737000Y3810000D03*
X-52197000Y3810000D03*
X-49657000Y3810000D03*
X-47117000Y3810000D03*
X-44577000Y3810000D03*
X-42037000Y3810000D03*
X-39497000Y3810000D03*
X-36957000Y3810000D03*
X-34417000Y3810000D03*
X-31877000Y3810000D03*
X-29337000Y3810000D03*
X-26797000Y3810000D03*
X-24257000Y3810000D03*
X-21717000Y3810000D03*
X-19177000Y3810000D03*
X-16637000Y3810000D03*
X-14097000Y3810000D03*
X-11557000Y3810000D03*
X-9017000Y3810000D03*
D13*
X-75008642Y42845000D03*
D14*
X-77548642Y42845000D03*
X-80088642Y42845000D03*
X-82628642Y42845000D03*
X-85168642Y42845000D03*
X-87708642Y42845000D03*
X-90248642Y42845000D03*
X-92788642Y42845000D03*
X-95328642Y42845000D03*
X-97868642Y42845000D03*
X-100408642Y42845000D03*
X-102948642Y42845000D03*
X-105488642Y42845000D03*
X-108028642Y42845000D03*
X-110568642Y42845000D03*
X-113108642Y42845000D03*
X-115648642Y42845000D03*
X-118188642Y42845000D03*
X-120728642Y42845000D03*
X-123268642Y42845000D03*
X-123268642Y27605000D03*
X-120728642Y27605000D03*
X-118188642Y27605000D03*
X-115648642Y27605000D03*
X-113108642Y27605000D03*
X-110568642Y27605000D03*
X-108028642Y27605000D03*
X-105488642Y27605000D03*
X-102948642Y27605000D03*
X-100408642Y27605000D03*
X-97868642Y27605000D03*
X-95328642Y27605000D03*
X-92788642Y27605000D03*
X-90248642Y27605000D03*
X-87708642Y27605000D03*
X-85168642Y27605000D03*
X-82628642Y27605000D03*
X-80088642Y27605000D03*
X-77548642Y27605000D03*
X-75008642Y27605000D03*
D13*
X-74935000Y65029000D03*
D14*
X-77475000Y65029000D03*
X-80015000Y65029000D03*
X-82555000Y65029000D03*
X-85095000Y65029000D03*
X-87635000Y65029000D03*
X-90175000Y65029000D03*
X-92715000Y65029000D03*
X-95255000Y65029000D03*
X-97795000Y65029000D03*
X-100335000Y65029000D03*
X-102875000Y65029000D03*
X-105415000Y65029000D03*
X-107955000Y65029000D03*
X-110495000Y65029000D03*
X-113035000Y65029000D03*
X-115575000Y65029000D03*
X-118115000Y65029000D03*
X-120655000Y65029000D03*
X-123195000Y65029000D03*
X-123195000Y49789000D03*
X-120655000Y49789000D03*
X-118115000Y49789000D03*
X-115575000Y49789000D03*
X-113035000Y49789000D03*
X-110495000Y49789000D03*
X-107955000Y49789000D03*
X-105415000Y49789000D03*
X-102875000Y49789000D03*
X-100335000Y49789000D03*
X-97795000Y49789000D03*
X-95255000Y49789000D03*
X-92715000Y49789000D03*
X-90175000Y49789000D03*
X-87635000Y49789000D03*
X-85095000Y49789000D03*
X-82555000Y49789000D03*
X-80015000Y49789000D03*
X-77475000Y49789000D03*
X-74935000Y49789000D03*
D15*
X-3389000Y59862000D03*
D16*
X-5929000Y59862000D03*
X-8469000Y59862000D03*
X-11009000Y59862000D03*
D13*
X-19304000Y65024000D03*
D14*
X-21844000Y65024000D03*
X-24384000Y65024000D03*
X-26924000Y65024000D03*
X-29464000Y65024000D03*
X-32004000Y65024000D03*
X-34544000Y65024000D03*
X-37084000Y65024000D03*
X-39624000Y65024000D03*
X-42164000Y65024000D03*
X-44704000Y65024000D03*
X-47244000Y65024000D03*
X-49784000Y65024000D03*
X-52324000Y65024000D03*
X-54864000Y65024000D03*
X-57404000Y65024000D03*
X-59944000Y65024000D03*
X-62484000Y65024000D03*
X-65024000Y65024000D03*
X-67564000Y65024000D03*
X-67564000Y49784000D03*
X-65024000Y49784000D03*
X-62484000Y49784000D03*
X-59944000Y49784000D03*
X-57404000Y49784000D03*
X-54864000Y49784000D03*
X-52324000Y49784000D03*
X-49784000Y49784000D03*
X-47244000Y49784000D03*
X-44704000Y49784000D03*
X-42164000Y49784000D03*
X-39624000Y49784000D03*
X-37084000Y49784000D03*
X-34544000Y49784000D03*
X-32004000Y49784000D03*
X-29464000Y49784000D03*
X-26924000Y49784000D03*
X-24384000Y49784000D03*
X-21844000Y49784000D03*
X-19304000Y49784000D03*
D13*
X-19382642Y42845000D03*
D14*
X-21922642Y42845000D03*
X-24462642Y42845000D03*
X-27002642Y42845000D03*
X-29542642Y42845000D03*
X-32082642Y42845000D03*
X-34622642Y42845000D03*
X-37162642Y42845000D03*
X-39702642Y42845000D03*
X-42242642Y42845000D03*
X-44782642Y42845000D03*
X-47322642Y42845000D03*
X-49862642Y42845000D03*
X-52402642Y42845000D03*
X-54942642Y42845000D03*
X-57482642Y42845000D03*
X-60022642Y42845000D03*
X-62562642Y42845000D03*
X-65102642Y42845000D03*
X-67642642Y42845000D03*
X-67642642Y27605000D03*
X-65102642Y27605000D03*
X-62562642Y27605000D03*
X-60022642Y27605000D03*
X-57482642Y27605000D03*
X-54942642Y27605000D03*
X-52402642Y27605000D03*
X-49862642Y27605000D03*
X-47322642Y27605000D03*
X-44782642Y27605000D03*
X-42242642Y27605000D03*
X-39702642Y27605000D03*
X-37162642Y27605000D03*
X-34622642Y27605000D03*
X-32082642Y27605000D03*
X-29542642Y27605000D03*
X-27002642Y27605000D03*
X-24462642Y27605000D03*
X-21922642Y27605000D03*
X-19382642Y27605000D03*
M02*
